<?xml version="1.0" standalone="no"?>
<!DOCTYPE svg PUBLIC "-//W3C//DTD SVG 1.1//EN" "http://www.w3.org/Graphics/SVG/1.1/DTD/svg11.dtd" >
<svg xmlns="http://www.w3.org/2000/svg" xmlns:xlink="http://www.w3.org/1999/xlink" version="1.1">
<metadata></metadata>
<defs>
<font id="fira_sans_condensedbold" horiz-adv-x="543" >
<font-face units-per-em="1000" ascent="800" descent="-200" />
<missing-glyph horiz-adv-x="208" />
<glyph unicode="&#xfb01;" horiz-adv-x="548" />
<glyph unicode="&#xfb02;" horiz-adv-x="580" />
<glyph horiz-adv-x="0" />
<glyph unicode="&#xd;" horiz-adv-x="208" />
<glyph unicode=" "  horiz-adv-x="208" />
<glyph unicode="&#x09;" horiz-adv-x="208" />
<glyph unicode="&#xa0;" horiz-adv-x="208" />
<glyph unicode="!" horiz-adv-x="230" d="M196 693l-21 -439h-121l-21 439h163zM177 134q25 -26 25 -62q0 -37 -24.5 -63t-62.5 -26t-63 26t-25 63q0 36 25 62t63 26q37 0 62 -26z" />
<glyph unicode="&#x22;" horiz-adv-x="425" d="M62 415l-18 278h135l-17 -278h-100zM263 415l-18 278h135l-17 -278h-100z" />
<glyph unicode="#" horiz-adv-x="508" d="M494 441h-60l-25 -194h52v-102h-66l-19 -145h-123l19 145h-88l-19 -145h-124l19 145h-47v102h61l26 194h-54v101h67l18 134h123l-18 -134h88l18 134h123l-18 -134h47v-101zM286 247l25 194h-88l-25 -194h88z" />
<glyph unicode="$" horiz-adv-x="498" d="M434 69.5q-44 -53.5 -123 -72.5v-158h-109v151q-119 11 -197 94l75 83q35 -31 71 -47.5t77 -16.5q44 0 68 22.5t24 62.5q0 36 -22.5 58.5t-84.5 44.5q-100 36 -141.5 83t-41.5 120q0 74 47.5 124.5t124.5 63.5v148h109v-149q87 -14 151 -80l-69 -81q-31 27 -62 40.5 t-66 13.5q-37 0 -58 -18t-21 -50q0 -21 10 -36t34 -28t71 -31q92 -35 134.5 -81.5t42.5 -130.5q0 -76 -44 -129.5z" />
<glyph unicode="%" horiz-adv-x="788" d="M558 719l93 -55l-419 -703l-92 55zM308 642q46 -48 46 -132t-46 -131.5t-117 -47.5q-70 0 -116 47.5t-46 131.5t46 132t116 48q71 0 117 -48zM148.5 576q-12.5 -23 -12.5 -66t12.5 -66t42.5 -23t42.5 23t12.5 66t-12.5 66t-42.5 23t-42.5 -23zM714 294q46 -48 46 -132 t-45.5 -131.5t-117.5 -47.5q-70 0 -116.5 47.5t-46.5 131.5q0 56 21.5 97t58.5 62t83 21q71 0 117 -48zM554 228.5q-12 -22.5 -12 -66.5q0 -43 12.5 -65.5t42.5 -22.5q31 0 43 22t12 66t-12 66.5t-43 22.5t-43 -22.5z" />
<glyph unicode="&#x26;" horiz-adv-x="692" d="M432 665q53 -45 53 -117q0 -58 -30.5 -101.5t-89.5 -86.5l120 -129q24 61 40 142l124 -34q-33 -109 -83 -187l111 -106l-129 -63l-71 77q-86 -77 -201 -77q-65 0 -116 24.5t-79 68.5t-28 101q0 60 29.5 104.5t94.5 90.5q-51 51 -70 87.5t-19 84.5q0 45 22 83t67 60.5 t109 22.5q93 0 146 -45zM248 593.5q-14 -16.5 -14 -49.5q0 -30 10.5 -52t38.5 -55q31 29 44 52t13 56q0 65 -52 65q-26 0 -40 -16.5zM225.5 241q-11.5 -25 -11.5 -57q0 -44 24.5 -67.5t66.5 -23.5q54 0 97 41l-140 154q-25 -22 -36.5 -47z" />
<glyph unicode="'" horiz-adv-x="224" d="M62 415l-18 278h135l-17 -278h-100z" />
<glyph unicode="(" horiz-adv-x="300" d="M288 792q-64 -102 -91.5 -201.5t-27.5 -240.5t27.5 -240.5t91.5 -201.5l-99 -66q-56 82 -92 150t-59.5 157t-23.5 201t23.5 201t59.5 157t92 150z" />
<glyph unicode=")" horiz-adv-x="300" d="M203.5 704q35.5 -66 59 -154.5t23.5 -199.5t-23.5 -199.5t-59 -154.5t-93.5 -154l-98 66q63 102 91 202.5t28 239.5t-27.5 239.5t-91.5 202.5l98 66q58 -88 93.5 -154z" />
<glyph unicode="*" horiz-adv-x="417" d="M407 537l-126 -24l94 -103l-107 -73l-59 124l-59 -124l-106 72l92 104l-126 23l41 118l113 -59l-20 147h129l-19 -147l112 60z" />
<glyph unicode="+" horiz-adv-x="483" d="M305 545v-154h137v-119h-137v-154h-126v154h-138v119h138v154h126z" />
<glyph unicode="," horiz-adv-x="226" d="M174.5 136q24.5 -25 24.5 -63q0 -19 -6.5 -40t-24.5 -65l-58 -144h-83l39 174q-39 28 -39 75q0 38 24.5 63t61.5 25t61.5 -25z" />
<glyph unicode="-" horiz-adv-x="375" d="M41 253v120h293v-120h-293z" />
<glyph unicode="." horiz-adv-x="229" d="M177 134q25 -26 25 -62q0 -37 -25 -63t-63 -26t-62.5 26t-24.5 63q0 36 25 62t62 26q38 0 63 -26z" />
<glyph unicode="/" horiz-adv-x="468" d="M276 816l132 -30l-215 -897l-133 30z" />
<glyph unicode="0" horiz-adv-x="546" d="M447.5 600q60.5 -90 60.5 -263q0 -175 -60 -264.5t-175 -89.5t-175 89.5t-60 264.5t60 264t175 89q114 0 174.5 -90zM227.5 555q-16.5 -21 -24.5 -72.5t-8 -145.5q0 -95 8 -147t24.5 -72.5t45.5 -20.5t46 20.5t24.5 72t7.5 147.5q0 95 -8 146.5t-24.5 72t-45.5 20.5 t-45.5 -21z" />
<glyph unicode="1" horiz-adv-x="423" d="M353 675v-675h-151v525l-128 -87l-68 100l209 137h138z" />
<glyph unicode="2" horiz-adv-x="463" d="M328.5 664.5q48.5 -25.5 73.5 -68.5t25 -96q0 -54 -20 -103.5t-70.5 -113.5t-147.5 -164h251l-16 -119h-404v110q106 117 157.5 181.5t71.5 108t20 88.5q0 40 -19.5 61.5t-54.5 21.5q-31 0 -55 -15.5t-53 -51.5l-89 70q82 116 214 116q68 0 116.5 -25.5z" />
<glyph unicode="3" horiz-adv-x="473" d="M328.5 667q47.5 -23 72 -62.5t24.5 -87.5q0 -123 -130 -160q69 -8 109.5 -48.5t40.5 -116.5q0 -57 -27.5 -104.5t-81 -76t-127.5 -28.5q-69 0 -122 26t-94 76l83 77q32 -33 59.5 -47.5t61.5 -14.5q41 0 66 26.5t25 74.5q0 52 -25.5 75.5t-75.5 23.5h-49l17 106h33 q41 0 65 23.5t24 66.5q0 38 -21 59t-58 21q-62 0 -116 -57l-77 80q91 91 212 91q64 0 111.5 -23z" />
<glyph unicode="4" horiz-adv-x="514" d="M497 263v-116h-66v-147h-147l-1 147h-261v103l172 443l130 -47l-146 -383h107l17 161h129v-161h66z" />
<glyph unicode="5" horiz-adv-x="491" d="M416 565h-220v-147q44 24 92 24q77 0 125.5 -57.5t48.5 -161.5q0 -71 -30 -125.5t-85.5 -84.5t-129.5 -30q-125 0 -207 101l85 77q26 -30 53.5 -46t62.5 -16q46 0 70.5 31t24.5 92q0 62 -21 88t-59 26q-19 0 -35.5 -5t-36.5 -18h-103v363h382z" />
<glyph unicode="6" horiz-adv-x="523" d="M415.5 428q39.5 -26 62 -76.5t22.5 -120.5q0 -72 -27 -128.5t-77.5 -88t-120.5 -31.5q-120 0 -178.5 85t-58.5 241q0 115 33 201t94.5 133t145.5 47q79 0 141 -45l-56 -90q-40 25 -80 25q-50 0 -81.5 -48t-38.5 -142q52 64 130 64q50 0 89.5 -26zM347 229q0 67 -16 93.5 t-49 26.5q-45 0 -86 -57q1 -75 9 -117.5t24.5 -61.5t45.5 -19q70 0 72 135z" />
<glyph unicode="7" horiz-adv-x="426" d="M412 676v-105l-223 -587l-138 46l204 530h-246v116h403z" />
<glyph unicode="8" horiz-adv-x="528" d="M474.5 285q30.5 -44 30.5 -102q0 -57 -28.5 -102.5t-84 -71.5t-131.5 -26q-74 0 -127.5 25.5t-81.5 70.5t-28 101q0 113 117 168q-50 32 -71.5 71.5t-21.5 88.5q0 55 27 96t76 63.5t112 22.5q98 0 158 -46.5t60 -127.5q0 -96 -103 -153q66 -34 96.5 -78zM195 506 q0 -36 16 -57.5t54 -38.5l18 -9q29 24 40 49t11 58q0 78 -69 78q-70 0 -70 -80zM331 117.5q22 23.5 22 66.5q0 41 -19.5 64.5t-71.5 45.5l-29 12q-57 -41 -57 -119q0 -46 23.5 -69.5t66.5 -23.5t65 23.5z" />
<glyph unicode="9" horiz-adv-x="517" d="M428 619.5q60 -70.5 60 -192.5q0 -137 -41.5 -226.5t-126.5 -143.5t-222 -85l-31 108q119 32 178.5 80.5t78.5 136.5q-52 -62 -125 -62q-48 0 -88.5 27t-64.5 77.5t-24 117.5q0 72 30.5 124.5t83.5 80.5t119 28q113 0 173 -70.5zM330 400q1 70 -6 109t-23.5 55.5 t-45.5 16.5q-37 0 -58 -29t-21 -90q0 -63 19.5 -91.5t52.5 -28.5q48 0 82 58z" />
<glyph unicode=":" horiz-adv-x="229" d="M177 134q25 -26 25 -62q0 -37 -25 -63t-63 -26t-62.5 26t-24.5 63q0 36 25 62t62 26q38 0 63 -26zM177 480q25 -26 25 -62q0 -37 -25 -63t-63 -26t-62.5 26t-24.5 63q0 36 25 62t62 26q38 0 63 -26z" />
<glyph unicode=";" horiz-adv-x="229" d="M174.5 136q24.5 -25 24.5 -63q0 -19 -6.5 -40t-24.5 -65l-58 -144h-83l39 174q-39 28 -39 75q0 38 24.5 63t61.5 25t61.5 -25zM177 480q25 -26 25 -62q0 -37 -25 -63t-63 -26t-62.5 26t-24.5 63q0 36 25 62t62 26q38 0 63 -26z" />
<glyph unicode="&#x3c;" horiz-adv-x="470" d="M393 571l50 -105l-290 -133l290 -129l-50 -110l-366 173v132z" />
<glyph unicode="=" horiz-adv-x="470" d="M41 377v118h388v-118h-388zM41 168v118h388v-118h-388z" />
<glyph unicode="&#x3e;" horiz-adv-x="470" d="M77 571l366 -172v-132l-366 -173l-50 110l290 129l-290 133z" />
<glyph unicode="?" horiz-adv-x="443" d="M338.5 687q45.5 -23 68.5 -61t23 -82q0 -39 -12.5 -67t-30 -46t-47.5 -41q-37 -29 -54.5 -51.5t-17.5 -58.5v-26h-139v31q0 46 12.5 77.5t30 50t44.5 39.5q29 22 42 38.5t13 42.5q0 27 -16 41.5t-44 14.5q-54 0 -104 -59l-94 74q82 106 215 106q65 0 110.5 -23zM263 134 q25 -26 25 -62q0 -37 -25 -63t-63 -26t-62.5 26t-24.5 63q0 36 25 62t62 26q38 0 63 -26z" />
<glyph unicode="@" horiz-adv-x="924" d="M559 490.5q42 -11.5 77 -33.5v-247q0 -64 8.5 -86.5t31.5 -22.5q70 0 70 212q0 137 -66.5 211t-202.5 74q-95 0 -162 -44t-101.5 -124.5t-34.5 -187.5q0 -170 76.5 -260.5t222.5 -90.5q45 0 92 9.5t85 24.5l36 -104q-45 -19 -101.5 -30.5t-112.5 -11.5q-133 0 -231 56 t-150.5 160.5t-52.5 246.5q0 135 56 241.5t154.5 166.5t223.5 60t216.5 -54t139.5 -144.5t48 -196.5q0 -90 -25.5 -160.5t-71 -110.5t-103.5 -40q-49 0 -80.5 29.5t-39.5 70.5q-18 -44 -50.5 -70t-80.5 -26q-82 0 -123.5 60.5t-41.5 164.5q0 126 55 197.5t156 71.5 q41 0 83 -11.5zM507 144v255q-15 7 -37 7q-35 0 -51.5 -38t-16.5 -136q0 -73 11.5 -101t38.5 -28q34 0 55 41z" />
<glyph unicode="A" d="M389 0l-31 151h-176l-31 -151h-162l187 693h192l186 -693h-165zM206 266h128l-64 310z" />
<glyph unicode="B" horiz-adv-x="559" d="M498.5 315q40.5 -38 40.5 -113q0 -202 -279 -202h-205v693h181q133 0 205 -43.5t72 -133.5q0 -60 -34 -97.5t-87 -51.5q66 -14 106.5 -52zM215 580v-165h44q92 0 92 85q0 41 -24 60.5t-76 19.5h-36zM346 137q29 21 29 73q0 98 -106 98h-54v-192h46q56 0 85 21z" />
<glyph unicode="C" horiz-adv-x="524" d="M424 691q47 -19 89 -57l-76 -89q-27 23 -53.5 34.5t-56.5 11.5q-130 0 -130 -243q0 -241 131 -241q34 0 60.5 13.5t59.5 39.5l72 -88q-37 -39 -88.5 -64t-113.5 -25q-87 0 -151.5 41t-100.5 123t-36 201q0 116 37 197.5t101.5 123t148.5 41.5q60 0 107 -19z" />
<glyph unicode="D" horiz-adv-x="595" d="M404.5 666q71.5 -27 115.5 -103t44 -213q0 -194 -86 -272t-228 -78h-195v693h182q96 0 167.5 -27zM215 577v-461h45q46 0 76 20t46.5 71.5t16.5 142.5t-17 141t-47.5 68t-75.5 18h-44z" />
<glyph unicode="E" horiz-adv-x="474" d="M447 693l-17 -114h-215v-171h188v-112h-188v-180h230v-116h-390v693h392z" />
<glyph unicode="F" horiz-adv-x="441" d="M55 0v693h380l-17 -114h-203v-188h178v-114h-178v-277h-160z" />
<glyph unicode="G" horiz-adv-x="590" d="M547 625l-78 -82q-34 27 -62.5 39t-64.5 12q-70 0 -108 -57.5t-38 -189.5q0 -95 13 -148.5t39 -75.5t69 -22q45 0 80 22v162h-77l-15 113h244v-343q-49 -34 -109 -53t-120 -19q-147 0 -218.5 90.5t-71.5 273.5q0 118 40 200t109 122.5t156 40.5q122 0 212 -85z" />
<glyph unicode="H" horiz-adv-x="602" d="M388 0v298h-173v-298h-160v693h160v-270h173v270h160v-693h-160z" />
<glyph unicode="I" horiz-adv-x="269" d="M215 693v-693h-160v693h160z" />
<glyph unicode="J" horiz-adv-x="290" d="M238 105q0 -118 -56 -178t-153 -94l-42 113q39 17 58.5 38t26 50t6.5 77v582h160v-588z" />
<glyph unicode="K" horiz-adv-x="581" d="M215 693v-693h-160v693h160zM577 693l-194 -311l210 -382h-179l-194 370l194 323h163z" />
<glyph unicode="L" horiz-adv-x="465" d="M215 693v-566h241l-17 -127h-384v693h160z" />
<glyph unicode="M" horiz-adv-x="720" d="M690 0h-153l-9 274q-4 120 -4 177q0 70 2 103l-91 -481h-150l-96 481q4 -76 4 -161q0 -38 -2 -122l-9 -271h-152l46 693h200l87 -472l80 472h201z" />
<glyph unicode="N" horiz-adv-x="599" d="M544 0h-200l-170 544q2 -12 2 -20q9 -72 14 -130.5t5 -135.5v-258h-140v693h198l173 -545q-22 130 -22 259v286h140v-693z" />
<glyph unicode="O" horiz-adv-x="630" d="M526 617.5q74 -92.5 74 -270.5q0 -176 -74.5 -270t-210.5 -94t-210.5 93t-74.5 271q0 175 74.5 269t210.5 94q137 0 211 -92.5zM225.5 536q-28.5 -57 -28.5 -189q0 -134 29 -190.5t89 -56.5q61 0 89.5 56.5t28.5 190.5q0 132 -28.5 189t-89.5 57t-89.5 -57z" />
<glyph unicode="P" horiz-adv-x="544" d="M457.5 636q71.5 -57 71.5 -168q0 -117 -69.5 -176.5t-191.5 -59.5h-53v-232h-160v693h198q133 0 204.5 -57zM338 375.5q27 27.5 27 91.5q0 57 -26.5 84.5t-83.5 27.5h-40v-231h40q56 0 83 27.5z" />
<glyph unicode="Q" horiz-adv-x="630" d="M555.5 28q44.5 -16 85.5 -50l-96 -122q-49 62 -104 96t-136 34q-129 0 -202 93.5t-73 267.5t74.5 268.5t210.5 94.5t210.5 -93t74.5 -270q0 -120 -41 -190.5t-110 -112.5q62 0 106.5 -16zM226 157.5q29 -56.5 89 -56.5q62 0 90 56t28 190q0 133 -28.5 189.5t-89.5 56.5 t-89.5 -56.5t-28.5 -189.5t29 -189.5z" />
<glyph unicode="R" horiz-adv-x="562" d="M267 266h-52v-266h-160v693h203q136 0 203 -52.5t67 -157.5q0 -133 -117 -187l157 -296h-175zM215 377h49q52 0 76 25.5t24 80.5q0 50 -26 73.5t-82 23.5h-41v-203z" />
<glyph unicode="S" horiz-adv-x="519" d="M385.5 687.5q53.5 -22.5 97.5 -66.5l-73 -84q-65 56 -133 56q-38 0 -60 -19t-22 -52q0 -22 10 -37t35 -29t74 -32q64 -24 103.5 -51.5t60.5 -68.5t21 -102q0 -64 -30.5 -113.5t-88 -77.5t-134.5 -28q-145 0 -241 98l78 87q37 -32 74.5 -49t79.5 -17q46 0 71 24t25 64 q0 38 -23 61t-87 46q-104 39 -148 88t-44 125q0 59 30 104.5t82.5 70.5t118.5 25q70 0 123.5 -22.5z" />
<glyph unicode="T" horiz-adv-x="490" d="M491 693l-17 -122h-149v-571h-160v571h-158v122h484z" />
<glyph unicode="U" horiz-adv-x="587" d="M543 214q0 -66 -28 -118.5t-84 -82.5t-137 -30q-122 0 -185.5 63t-63.5 168v479h160v-473q0 -60 21 -88.5t68 -28.5t67.5 28.5t20.5 88.5v473h161v-479z" />
<glyph unicode="V" horiz-adv-x="525" d="M536 693l-169 -693h-202l-176 693h164l116 -567l107 567h160z" />
<glyph unicode="W" horiz-adv-x="772" d="M763 693l-100 -693h-208l-70 534l-76 -534h-203l-97 693h155l59 -572l81 572h166l76 -572l68 572h149z" />
<glyph unicode="X" horiz-adv-x="530" d="M357 374l179 -374h-171l-104 267l-100 -267h-167l173 368l-160 325h170l86 -225l92 225h166z" />
<glyph unicode="Y" horiz-adv-x="542" d="M551 693l-200 -433v-260h-160v259l-200 434h171l111 -308l113 308h165z" />
<glyph unicode="Z" horiz-adv-x="492" d="M467 693v-121l-273 -444h279l-16 -128h-443v120l275 449h-249v124h427z" />
<glyph unicode="[" horiz-adv-x="295" d="M275 822v-114h-103v-717h103v-113h-248v944h248z" />
<glyph unicode="\" horiz-adv-x="468" d="M192 815l216 -896l-133 -30l-215 896z" />
<glyph unicode="]" horiz-adv-x="295" d="M267 822v-944h-248v114h104v716h-104v114h248z" />
<glyph unicode="^" horiz-adv-x="510" d="M325 844l170 -317h-149l-93 201l-87 -201h-152l170 317h141z" />
<glyph unicode="_" horiz-adv-x="471" d="M9 -169v121h453v-121h-453z" />
<glyph unicode="`" horiz-adv-x="319" d="M93 830l199 -131l-42 -76l-217 94z" />
<glyph unicode="a" horiz-adv-x="497" d="M450 107q7 -13 24 -20l-32 -101q-46 4 -75 21t-45 53q-49 -77 -143 -77q-72 0 -114.5 45.5t-42.5 120.5q0 87 58.5 133t169.5 46h42v25q0 47 -17 65.5t-60 18.5q-49 0 -125 -27l-35 99q44 19 94 29t93 10q103 0 152 -46t49 -140v-215q0 -27 7 -40zM263.5 106 q17.5 13 28.5 37v99h-28q-47 0 -69 -19.5t-22 -60.5q0 -34 13.5 -51.5t38.5 -17.5q21 0 38.5 13z" />
<glyph unicode="b" d="M466.5 475.5q45.5 -72.5 45.5 -210.5q0 -84 -23 -148t-66 -99t-102 -35q-38 0 -70 17.5t-55 49.5l-7 -50h-137v742l154 16v-279q22 32 56 50.5t74 18.5q85 0 130.5 -72.5zM333 133.5q20 38.5 20 131.5q0 99 -18 134.5t-52 35.5q-22 0 -41.5 -16t-35.5 -44v-230 q28 -50 70 -50q37 0 57 38.5z" />
<glyph unicode="c" horiz-adv-x="436" d="M360 532q40 -16 75 -49l-64 -88q-23 18 -44 26.5t-45 8.5q-46 0 -69 -38t-23 -130q0 -88 23.5 -123t67.5 -35q23 0 42 7.5t45 25.5l67 -91q-69 -63 -163 -63q-114 0 -178.5 73t-64.5 205q0 87 29.5 152t84 100t127.5 35q50 0 90 -16z" />
<glyph unicode="d" horiz-adv-x="545" d="M492 742v-742h-136l-7 59q-51 -76 -135 -76q-89 0 -136 74.5t-47 208.5q0 84 24.5 148t69 99t102.5 35q67 0 111 -49v259zM304 109.5q18 13.5 34 41.5v241q-16 22 -31.5 32.5t-36.5 10.5q-80 0 -80 -169q0 -95 19 -132.5t54 -37.5q23 0 41 13.5z" />
<glyph unicode="e" horiz-adv-x="507" d="M480 220h-296q6 -70 31 -97t71 -27q30 0 57 11t59 34l63 -85q-82 -73 -191 -73q-120 0 -182.5 74.5t-62.5 205.5q0 128 60 206.5t169 78.5q105 0 165 -70.5t60 -201.5q0 -32 -3 -56zM332 320q0 63 -16.5 94.5t-55.5 31.5q-35 0 -54 -29.5t-23 -103.5h149v7z" />
<glyph unicode="f" horiz-adv-x="329" d="M240 630.5q-13 -14.5 -13 -47.5v-52h109l-17 -107h-92v-424h-154v424h-70v107h70v51q0 79 48.5 127.5t139.5 48.5q74 0 135 -32l-41 -99q-36 18 -72 18q-30 0 -43 -14.5z" />
<glyph unicode="g" horiz-adv-x="497" d="M500 500q-46 -20 -137 -20q48 -22 70.5 -54.5t22.5 -83.5t-25 -91.5t-71.5 -63t-109.5 -22.5q-30 0 -54 6q-17 -11 -17 -32q0 -16 11.5 -25t42.5 -9h65q88 0 140 -42.5t52 -109.5q0 -81 -66 -127.5t-189 -46.5q-132 0 -183 43t-51 127h138q0 -37 20 -53t78 -16 q55 0 77 16.5t22 45.5q0 56 -71 56h-57q-80 0 -118 28.5t-38 75.5q0 29 16 55t43 45q-46 27 -66.5 63t-20.5 89q0 90 59.5 142t159.5 51q70 -1 117 15.5t104 49.5zM176 356q0 -46 17.5 -69t49.5 -23q33 0 50 22.5t17 71.5q0 46 -16.5 67t-50.5 21q-67 0 -67 -90z" />
<glyph unicode="h" horiz-adv-x="524" d="M439.5 506.5q35.5 -41.5 35.5 -113.5v-393h-154v372q0 33 -10 46.5t-28 13.5q-20 0 -38.5 -16.5t-38.5 -48.5v-367h-154v742l154 16v-285q28 38 61 56.5t75 18.5q62 0 97.5 -41.5z" />
<glyph unicode="i" horiz-adv-x="259" d="M206 531v-531h-154v531h154zM192.5 783q25.5 -25 25.5 -62q0 -38 -25.5 -63t-64.5 -25t-64 25t-25 63q0 37 25 62t64 25t64.5 -25z" />
<glyph unicode="j" horiz-adv-x="259" d="M206 48q0 -77 -25 -128.5t-68.5 -83t-107.5 -57.5l-51 112q35 19 55 36t31.5 44t11.5 71v489h154v-483zM192.5 783q25.5 -25 25.5 -62q0 -38 -25.5 -63t-64.5 -25t-64 25t-25 63q0 37 25 62t64 25t64.5 -25z" />
<glyph unicode="k" horiz-adv-x="509" d="M206 758v-758h-154v742zM506 531l-142 -233l153 -298h-168l-138 290l144 241h151z" />
<glyph unicode="l" horiz-adv-x="273" d="M84 21q-37 38 -37 106v615l154 16v-624q0 -29 24 -29q10 0 22 4l29 -107q-40 -19 -89 -19q-66 0 -103 38z" />
<glyph unicode="m" horiz-adv-x="763" d="M680.5 506q34.5 -42 34.5 -113v-393h-152v373q0 60 -36 60q-35 0 -67 -63v-370h-152v373q0 60 -35 60q-20 0 -36 -16t-32 -47v-370h-153v531h135l10 -63q55 80 138 80q40 0 69 -21.5t43 -62.5q29 42 63.5 63t78.5 21q57 0 91.5 -42z" />
<glyph unicode="n" horiz-adv-x="524" d="M439.5 506.5q35.5 -41.5 35.5 -113.5v-393h-154v372q0 33 -9.5 46.5t-28.5 13.5q-20 0 -38.5 -16.5t-38.5 -48.5v-367h-154v531h135l11 -63q29 40 64 60t80 20q62 0 97.5 -41.5z" />
<glyph unicode="o" horiz-adv-x="534" d="M442.5 475.5q63.5 -72.5 63.5 -210.5q0 -132 -64 -207t-175 -75q-112 0 -175 73t-63 210q0 133 63.5 207.5t174.5 74.5q112 0 175.5 -72.5zM207 395q-19 -39 -19 -129q0 -92 19 -131t60 -39t60.5 39.5t19.5 129.5q0 92 -19 130.5t-61 38.5q-41 0 -60 -39z" />
<glyph unicode="p" d="M467.5 475q44.5 -73 44.5 -208q0 -84 -23.5 -148.5t-66.5 -100t-101 -35.5q-69 0 -115 55v-243l-154 -16v752h137l7 -58q54 75 139 75q88 0 132.5 -73zM353 265q0 97 -17.5 133.5t-51.5 36.5q-45 0 -78 -59v-235q29 -44 69 -44q78 0 78 168z" />
<glyph unicode="q" horiz-adv-x="545" d="M492 531v-752l-154 16v252q-47 -64 -124 -64q-89 0 -136 74.5t-47 208.5q0 84 24.5 148t69 99t103.5 35q72 0 123 -62l7 45h134zM304 110q18 14 34 42v239q-16 22 -31.5 33t-36.5 11q-37 0 -58.5 -40t-21.5 -129q0 -97 19 -133.5t54 -36.5q23 0 41 14z" />
<glyph unicode="r" horiz-adv-x="366" d="M370 538l-25 -148q-21 6 -42 6q-41 0 -63 -31.5t-34 -93.5v-271h-154v531h135l12 -93q18 52 50 80t75 28q26 0 46 -8z" />
<glyph unicode="s" horiz-adv-x="438" d="M324 531q46 -17 81 -48l-56 -84q-60 39 -113 39q-28 0 -43 -11.5t-15 -31.5q0 -15 7.5 -25.5t28.5 -21t63 -25.5q74 -25 109.5 -63t35.5 -103q0 -80 -61 -127t-156 -47q-61 0 -113.5 21t-89.5 57l73 82q62 -50 124 -50q31 0 48.5 13.5t17.5 37.5q0 19 -7.5 31t-28 23 t-63.5 26q-73 25 -106.5 63.5t-33.5 97.5q0 46 24 83t69 58.5t106 21.5q53 0 99 -17z" />
<glyph unicode="t" horiz-adv-x="352" d="M362 25q-27 -20 -62.5 -31t-71.5 -11q-81 0 -122 46t-41 129v266h-64v107h64v115l154 18v-133h109l-16 -107h-93v-264q0 -55 42 -55q23 0 50 15z" />
<glyph unicode="u" horiz-adv-x="519" d="M466 0h-134l-7 64q-52 -81 -141 -81q-65 0 -100.5 43t-35.5 116v389h154v-377q0 -57 40 -57q39 0 70 58v376h154v-531z" />
<glyph unicode="v" horiz-adv-x="470" d="M476 531l-148 -531h-182l-151 531h161l82 -414l85 414h153z" />
<glyph unicode="w" horiz-adv-x="687" d="M682 531l-97 -531h-182l-59 393l-59 -393h-180l-100 531h151l48 -415l70 415h147l63 -415l53 415h145z" />
<glyph unicode="x" horiz-adv-x="469" d="M326 284l153 -284h-167l-82 201l-78 -201h-162l152 279l-138 252h165l65 -172l62 172h159z" />
<glyph unicode="y" horiz-adv-x="476" d="M330 -1q-57 -207 -278 -221l-17 107q69 10 103 35.5t54 79.5h-55l-142 531h158l82 -433l91 433h155z" />
<glyph unicode="z" horiz-adv-x="418" d="M400 531v-109l-217 -305h222l-14 -117h-380v109l217 306h-199v116h371z" />
<glyph unicode="{" horiz-adv-x="293" d="M274 732q-39 0 -53 -12.5t-14 -46.5v-190q0 -63 -23 -91.5t-74 -42.5q50 -11 74 -40.5t24 -91.5v-190q0 -34 14 -46.5t52 -12.5v-108q-82 0 -127.5 18t-63 53.5t-17.5 92.5v187q0 42 -12 58.5t-46 16.5v127q34 0 46 17t12 59v187q0 57 17.5 92.5t62.5 53.5t128 18v-108z " />
<glyph unicode="|" horiz-adv-x="333" d="M239 810v-915h-144v915h144z" />
<glyph unicode="}" horiz-adv-x="293" d="M147 822q45 -18 62.5 -53.5t17.5 -92.5v-187q0 -42 12 -59t45 -17v-127q-34 0 -45.5 -16.5t-11.5 -58.5v-187q0 -57 -17.5 -92.5t-63 -53.5t-127.5 -18v108q38 0 51.5 12.5t13.5 46.5v190q0 62 24 91t75 41q-52 14 -75 42.5t-23 91.5v190q0 34 -14 46.5t-52 12.5v108 q83 0 128 -18z" />
<glyph unicode="~" horiz-adv-x="474" d="M260.5 244.5q-22.5 9.5 -47.5 26.5q-21 12 -32 17.5t-24 5.5q-21 0 -34 -12.5t-30 -38.5l-78 40q26 56 61 89.5t87 33.5q29 0 51 -9t46 -26q21 -12 32.5 -17.5t24.5 -5.5q20 0 33 12t30 36l79 -40q-26 -55 -60.5 -88t-85.5 -33q-30 0 -52.5 9.5z" />
<glyph unicode="&#xa1;" horiz-adv-x="230" d="M177 482q25 -26 25 -62q0 -37 -24.5 -63t-62.5 -26t-63 26t-25 63q0 36 25 62t63 26q37 0 62 -26zM176 237l21 -447h-163l20 447h122z" />
<glyph unicode="&#xa2;" horiz-adv-x="436" d="M435 46q-56 -49 -121 -60v-147h-109v151q-84 20 -130 90t-46 181t47 184.5t130 94.5v151h108v-146q67 -11 121 -62l-64 -88q-23 18 -44 26.5t-45 8.5q-46 0 -69 -38t-23 -130q0 -88 23.5 -123t67.5 -35q23 0 42 7.5t45 25.5z" />
<glyph unicode="&#xa3;" horiz-adv-x="491" d="M236 166.5q-13 -27.5 -51 -49.5h279l-17 -117h-424v111q34 11 50 26.5t20.5 36t4.5 57.5v80h-62v81h62v96q0 90 51 146t146 56q61 0 107 -24.5t80 -74.5l-92 -66q-19 26 -37 37.5t-42 11.5q-32 0 -47 -21t-15 -64v-97h162v-81h-162v-71q0 -46 -13 -73.5z" />
<glyph unicode="&#xa4;" horiz-adv-x="504" d="M425 78l-68 76q-46 -29 -105 -29q-58 0 -105 30l-70 -77l-68 64l73 81q-29 50 -29 119q0 67 29 117l-73 83l71 63l67 -76q46 29 105 29t106 -30l69 77l68 -63l-72 -81q29 -55 29 -119q0 -69 -29 -119l73 -81zM314.5 256q20.5 28 20.5 86t-20.5 86t-62.5 28 q-82 0 -82 -114t82 -114q42 0 62.5 28z" />
<glyph unicode="&#xa5;" horiz-adv-x="517" d="M526 676l-159 -324h88v-81h-119v-73h119v-81h-119v-117h-153v117h-118v81h118v73h-118v81h86l-160 324h158l112 -283l111 283h154z" />
<glyph unicode="&#xa6;" horiz-adv-x="333" d="M239 810v-367h-144v367h144zM239 262v-367h-144v367h144z" />
<glyph unicode="&#xa7;" horiz-adv-x="498" d="M421 137q12 -24 12 -59q0 -72 -56 -116.5t-148 -44.5q-101 0 -177 54l50 89q30 -19 58.5 -27.5t59.5 -8.5q33 0 51 12t18 34q0 18 -7.5 29t-30.5 22.5t-70 28.5q-71 24 -104 56.5t-33 90.5q0 40 20 71.5t55 52.5q-27 22 -39.5 47.5t-12.5 60.5q0 46 24.5 82.5t69.5 57 t105 20.5q100 0 177 -56l-51 -86q-55 35 -115 35q-33 0 -49.5 -12.5t-16.5 -34.5q0 -18 7.5 -29t29.5 -22t69 -28q68 -25 102.5 -58.5t34.5 -89.5q0 -78 -73 -127q28 -20 40 -44zM301 224q22 32 22 60q0 27 -18.5 44.5t-70.5 35.5q-24 8 -40 16q-19 -28 -19 -57 q0 -28 14.5 -43.5t56.5 -32.5q45 -18 55 -23z" />
<glyph unicode="&#xa8;" horiz-adv-x="427" d="M164 775q22 -22 22 -55t-22 -55.5t-55 -22.5q-32 0 -54.5 22.5t-22.5 55.5q0 32 22.5 54.5t54.5 22.5q33 0 55 -22zM376.5 775q22.5 -22 22.5 -55t-22 -55.5t-56 -22.5q-32 0 -54.5 22.5t-22.5 55.5q0 32 22.5 54.5t54.5 22.5q33 0 55.5 -22z" />
<glyph unicode="&#xa9;" horiz-adv-x="729" d="M521 723q70 -42 111 -117.5t41 -173.5q0 -97 -40.5 -172.5t-111 -117t-156.5 -41.5q-85 0 -156 41.5t-112 117t-41 172.5q0 98 41 173.5t112 117.5t156 42q86 0 156 -42zM251.5 656q-50.5 -31 -79 -89t-28.5 -135q0 -76 28.5 -133.5t79 -88.5t113.5 -31t113 31t78.5 88.5 t28.5 133.5q0 77 -28.5 135t-78.5 89t-113 31t-113.5 -31zM487 580l-45 -59q-18 13 -32 18.5t-31 5.5q-29 0 -47 -26.5t-18 -85.5q0 -110 66 -110q19 0 34.5 6.5t33.5 20.5l43 -61q-25 -25 -56.5 -39t-66.5 -14q-75 0 -118 51t-43 146q0 91 44.5 143.5t117.5 52.5 q67 0 118 -49z" />
<glyph unicode="&#xaa;" horiz-adv-x="454" d="M253 528v14q0 31 -12 42t-44 11q-39 0 -100 -21l-31 89q35 15 76 22.5t78 7.5q86 0 126.5 -35.5t40.5 -104.5v-155q0 -18 5 -27.5t18 -13.5l-28 -90q-73 6 -102 54q-38 -56 -112 -56q-58 0 -93.5 35t-35.5 91q0 67 47.5 102t136.5 35h30zM253 387v68h-18q-33 0 -47 -12.5 t-14 -39.5q0 -42 35 -42q27 0 44 26zM43 119h376v-118h-376v118z" />
<glyph unicode="&#xab;" horiz-adv-x="589" d="M206 555l96 -63l-118 -207l118 -208l-96 -63l-172 221v98zM459 555l96 -63l-118 -207l118 -208l-96 -63l-172 221v98z" />
<glyph unicode="&#xac;" horiz-adv-x="484" d="M443 387v-272h-126v154h-276v118h402z" />
<glyph unicode="&#xad;" horiz-adv-x="375" d="M41 253v120h293v-120h-293z" />
<glyph unicode="&#xae;" horiz-adv-x="573" d="M415 723.5q57 -34.5 89.5 -96.5t32.5 -142q0 -79 -32.5 -141t-89.5 -96.5t-128 -34.5t-128.5 34.5t-90 96.5t-32.5 141q0 80 32.5 142t90 96.5t128.5 34.5t128 -34.5zM414.5 334.5q48.5 55.5 48.5 150.5q0 96 -48.5 152t-127.5 56q-52 0 -92 -25.5t-63 -72.5t-23 -110 t23 -109.5t63 -71.5t92 -25q79 0 127.5 55.5zM376 500.5q-14 -19.5 -37 -30.5l66 -118h-76l-51 103h-20v-103h-67v282h77q60 0 91 -22.5t31 -66.5q0 -25 -14 -44.5zM258 512h26q17 0 27 8.5t10 27.5q0 33 -38 33h-25v-69z" />
<glyph unicode="&#xaf;" horiz-adv-x="340" d="M313 657h-280v105h280v-105z" />
<glyph unicode="&#xb0;" horiz-adv-x="468" d="M116 390.5q-37 20.5 -60 59t-23 91.5t23 91.5t60 58t80 19.5t80 -20t60 -58t23 -91t-23 -92t-60 -59t-80 -20t-80 20.5zM239.5 480.5q15.5 20.5 15.5 60.5t-15.5 60t-43.5 20t-44 -20t-16 -60t16 -60.5t44 -20.5t43.5 20.5z" />
<glyph unicode="&#xb1;" horiz-adv-x="484" d="M48 0v118h388v-118h-388zM305 618v-154h137v-119h-137v-154h-126v154h-138v119h138v154h126z" />
<glyph unicode="&#xb2;" horiz-adv-x="365" d="M283.5 715q38.5 -36 38.5 -89q0 -32 -12 -60t-44.5 -64.5t-96.5 -93.5h162l-12 -87h-273v81q69 70 101.5 106.5t45.5 61t13 48.5q0 22 -11.5 34.5t-31.5 12.5t-36 -9.5t-34 -30.5l-63 50q26 36 63 56t84 20q68 0 106.5 -36z" />
<glyph unicode="&#xb3;" horiz-adv-x="365" d="M282.5 720.5q37.5 -31.5 37.5 -79.5q0 -75 -89 -98q48 -3 75.5 -28.5t27.5 -73.5q0 -56 -42 -94t-119 -38q-93 0 -147 67l60 57q20 -20 37.5 -28.5t39.5 -8.5q25 0 40 13.5t15 39.5q0 28 -15.5 40.5t-47.5 12.5h-31l13 77h21q53 0 53 46q0 21 -12.5 32t-34.5 11 q-40 0 -76 -34l-55 58q62 60 146 60q66 0 103.5 -31.5z" />
<glyph unicode="&#xb4;" horiz-adv-x="319" d="M232 830l60 -113l-217 -94l-42 76z" />
<glyph unicode="&#xb5;" horiz-adv-x="527" d="M349 -17q-8 21 -12 38.5t-8 44.5q-41 -74 -96 -74q-23 0 -41 9.5t-34 33.5q20 -37 29.5 -68.5t9.5 -81.5v-90l-145 -15v751h154v-372q0 -55 40 -55q41 0 69 62v365h154v-349q0 -102 21 -182z" />
<glyph unicode="&#xb6;" horiz-adv-x="719" d="M620 693v-898l-134 -17v808h-80v-791l-134 -17v486q-105 3 -161.5 61.5t-56.5 153.5q0 101 63.5 157.5t180.5 56.5h322z" />
<glyph unicode="&#xb7;" horiz-adv-x="229" d="M177 370q25 -26 25 -62q0 -37 -25 -63t-63 -26t-62.5 26t-24.5 63q0 36 25 62t62 26q38 0 63 -26z" />
<glyph unicode="&#xb8;" horiz-adv-x="303" d="M181 -51q47 -6 71 -30.5t24 -65.5q0 -51 -37 -82.5t-101 -31.5q-61 0 -105 30l35 69q28 -15 58 -15q41 0 41 31q0 18 -20.5 26.5t-63.5 8.5l15 127h83v-67z" />
<glyph unicode="&#xb9;" horiz-adv-x="365" d="M274 742v-421h-111v313l-82 -54l-50 73l141 89h102z" />
<glyph unicode="&#xba;" horiz-adv-x="456" d="M372 638.5q52 -54.5 52 -159.5q0 -101 -52 -157.5t-143 -56.5q-92 0 -144.5 54.5t-52.5 160.5q0 101 52.5 157t143.5 56q92 0 144 -54.5zM185.5 568.5q-13.5 -25.5 -13.5 -88.5q0 -66 13 -91t43 -25t43.5 25.5t13.5 89.5q0 65 -13.5 90t-43.5 25q-29 0 -42.5 -25.5zM34 0 v118h388v-118h-388z" />
<glyph unicode="&#xbb;" horiz-adv-x="587" d="M129 555l173 -222v-98l-173 -221l-95 63l118 208l-118 207zM381 555l173 -222v-98l-173 -221l-95 63l118 208l-118 207z" />
<glyph unicode="&#xbc;" horiz-adv-x="888" d="M274 693v-421h-111v313l-82 -54l-50 73l141 89h102zM584 758l90 -41l-370 -802l-89 41zM866 168v-83h-42v-85h-104l-1 85h-175v76l108 270l95 -35l-89 -228h63l22 97h81v-97h42z" />
<glyph unicode="&#xbd;" horiz-adv-x="888" d="M274 693v-421h-111v313l-82 -54l-50 73l141 89h102zM584 758l90 -41l-370 -802l-89 41zM806.5 394q38.5 -36 38.5 -89q0 -32 -12 -60t-44.5 -64.5t-96.5 -93.5h162l-12 -87h-273v81q69 70 101.5 106.5t45.5 61t13 48.5q0 22 -11.5 34.5t-31.5 12.5t-36 -9.5t-34 -30.5 l-63 50q26 36 63 56t84 20q68 0 106.5 -36z" />
<glyph unicode="&#xbe;" horiz-adv-x="888" d="M282.5 671.5q37.5 -31.5 37.5 -79.5q0 -75 -89 -98q48 -3 75.5 -28.5t27.5 -73.5q0 -56 -42 -94t-119 -38q-93 0 -147 67l60 57q20 -20 37.5 -28.5t39.5 -8.5q25 0 40 13.5t15 39.5q0 28 -15.5 40.5t-47.5 12.5h-31l13 77h21q53 0 53 46q0 21 -12.5 32t-34.5 11 q-40 0 -76 -34l-55 58q62 60 146 60q66 0 103.5 -31.5zM584 758l90 -41l-370 -802l-89 41zM866 168v-83h-42v-85h-104l-1 85h-175v76l108 270l95 -35l-89 -228h63l22 97h81v-97h42z" />
<glyph unicode="&#xbf;" horiz-adv-x="443" d="M180 357q-25 26 -25 62q0 37 25 63t63 26t62.5 -26t24.5 -63q0 -36 -25 -62t-62 -26q-38 0 -63 26zM104.5 -200q-45.5 23 -68.5 61t-23 83q0 40 12.5 68.5t30.5 46.5t48 41q36 28 53.5 51t17.5 58v27h139v-32q0 -45 -12.5 -76.5t-30 -50t-44.5 -39.5q-29 -23 -42 -39.5 t-13 -43.5t15.5 -41.5t44.5 -14.5q55 0 104 58l94 -73q-83 -107 -215 -107q-65 0 -110.5 23z" />
<glyph unicode="&#xc0;" d="M389 0l-31 151h-176l-31 -151h-162l187 693h192l186 -693h-165zM206 266h128l-64 310zM199 949l200 -122l-39 -76l-219 85z" />
<glyph unicode="&#xc1;" d="M389 0l-31 151h-176l-31 -151h-162l187 693h192l186 -693h-165zM206 266h128l-64 310zM343 950l58 -113l-219 -86l-39 77z" />
<glyph unicode="&#xc2;" d="M389 0l-31 151h-176l-31 -151h-162l187 693h192l186 -693h-165zM206 266h128l-64 310zM151 758l-54 58l129 131h92l128 -131l-53 -58l-121 83z" />
<glyph unicode="&#xc3;" d="M389 0l-31 151h-176l-31 -151h-162l187 693h192l186 -693h-165zM206 266h128l-64 310zM292.5 771q-13.5 6 -34.5 19q-13 9 -20.5 13t-16.5 4q-15 0 -25 -9.5t-23 -32.5l-74 35q18 51 49 82.5t70 31.5q20 0 35 -6.5t34 -19.5q2 -1 10 -6t14.5 -7.5t12.5 -2.5 q14 0 24.5 9.5t22.5 31.5l74 -35q-18 -52 -49 -82.5t-70 -30.5q-20 0 -33.5 6z" />
<glyph unicode="&#xc4;" d="M389 0l-31 151h-176l-31 -151h-162l187 693h192l186 -693h-165zM206 266h128l-64 310zM222 901q22 -22 22 -55t-22 -55.5t-55 -22.5q-32 0 -54.5 22.5t-22.5 55.5q0 32 22.5 54.5t54.5 22.5q33 0 55 -22zM434.5 901q22.5 -22 22.5 -55t-22 -55.5t-56 -22.5 q-32 0 -54.5 22.5t-22.5 55.5q0 32 22.5 54.5t54.5 22.5q33 0 55.5 -22z" />
<glyph unicode="&#xc5;" d="M389 0l-31 151h-176l-31 -151h-162l187 693h192l186 -693h-165zM206 266h128l-64 310zM367 954.5q35 -36.5 35 -92.5t-35 -93t-94 -37t-94.5 37t-35.5 93t35.5 92.5t94.5 36.5t94 -36.5zM233 862q0 -52 40 -52q39 0 39 52q0 51 -39 51q-40 0 -40 -51z" />
<glyph unicode="&#xc6;" horiz-adv-x="766" d="M533 116h209v-116h-343l-21 151h-185l-44 -151h-171l245 693h486l-17 -114h-237l29 -172h216v-113h-197zM227 267h134l-44 309z" />
<glyph unicode="&#xc7;" horiz-adv-x="524" d="M446 15q-43 -24 -95 -30v-36q47 -6 71 -30.5t24 -65.5q0 -51 -37 -82.5t-101 -31.5q-61 0 -105 30l35 69q28 -15 58 -15q41 0 41 31q0 18 -20.5 26.5t-63.5 8.5l12 98q-110 19 -172.5 110.5t-62.5 250.5q0 116 37 197.5t101.5 123t148.5 41.5q60 0 107 -19t89 -57 l-76 -89q-27 23 -53.5 34.5t-56.5 11.5q-130 0 -130 -243q0 -241 131 -241q34 0 60.5 13.5t59.5 39.5l72 -88q-31 -33 -74 -57z" />
<glyph unicode="&#xc8;" horiz-adv-x="474" d="M447 693l-17 -114h-215v-171h188v-112h-188v-180h230v-116h-390v693h392zM179 949l200 -122l-39 -76l-219 85z" />
<glyph unicode="&#xc9;" horiz-adv-x="474" d="M447 693l-17 -114h-215v-171h188v-112h-188v-180h230v-116h-390v693h392zM323 950l58 -113l-219 -86l-39 77z" />
<glyph unicode="&#xca;" horiz-adv-x="474" d="M447 693l-17 -114h-215v-171h188v-112h-188v-180h230v-116h-390v693h392zM131 758l-54 58l129 131h92l128 -131l-53 -58l-121 83z" />
<glyph unicode="&#xcb;" horiz-adv-x="474" d="M447 693l-17 -114h-215v-171h188v-112h-188v-180h230v-116h-390v693h392zM202 901q22 -22 22 -55t-22 -55.5t-55 -22.5q-32 0 -54.5 22.5t-22.5 55.5q0 32 22.5 54.5t54.5 22.5q33 0 55 -22zM414.5 901q22.5 -22 22.5 -55t-22 -55.5t-56 -22.5q-32 0 -54.5 22.5 t-22.5 55.5q0 32 22.5 54.5t54.5 22.5q33 0 55.5 -22z" />
<glyph unicode="&#xcc;" horiz-adv-x="269" d="M215 693v-693h-160v693h160zM61 949l200 -122l-39 -76l-219 85z" />
<glyph unicode="&#xcd;" horiz-adv-x="269" d="M215 693v-693h-160v693h160zM205 950l58 -113l-219 -86l-39 77z" />
<glyph unicode="&#xce;" horiz-adv-x="269" d="M215 693v-693h-160v693h160zM13 758l-54 58l129 131h92l128 -131l-53 -58l-121 83z" />
<glyph unicode="&#xcf;" horiz-adv-x="269" d="M215 693v-693h-160v693h160zM84 901q22 -22 22 -55t-22 -55.5t-55 -22.5q-32 0 -54.5 22.5t-22.5 55.5q0 32 22.5 54.5t54.5 22.5q33 0 55 -22zM296.5 901q22.5 -22 22.5 -55t-22 -55.5t-56 -22.5q-32 0 -54.5 22.5t-22.5 55.5q0 32 22.5 54.5t54.5 22.5q33 0 55.5 -22z " />
<glyph unicode="&#xd0;" horiz-adv-x="611" d="M420.5 666q71.5 -27 115.5 -103t44 -213q0 -194 -86 -272t-228 -78h-195v305h-57v96h57v292h182q96 0 167.5 -27zM352 136q30 20 46.5 71.5t16.5 142.5t-17 141t-47.5 68t-75.5 18h-44v-176h106v-96h-106v-189h45q46 0 76 20z" />
<glyph unicode="&#xd1;" horiz-adv-x="599" d="M544 0h-200l-170 544q2 -12 2 -20q9 -72 14 -130.5t5 -135.5v-258h-140v693h198l173 -545q-22 130 -22 259v286h140v-693zM322.5 771q-13.5 6 -34.5 19q-13 9 -20.5 13t-16.5 4q-15 0 -25 -9.5t-23 -32.5l-74 35q18 51 49 82.5t70 31.5q20 0 35 -6.5t34 -19.5q2 -1 10 -6 t14.5 -7.5t12.5 -2.5q14 0 24.5 9.5t22.5 31.5l74 -35q-18 -52 -49 -82.5t-70 -30.5q-20 0 -33.5 6z" />
<glyph unicode="&#xd2;" horiz-adv-x="630" d="M526 617.5q74 -92.5 74 -270.5q0 -176 -74.5 -270t-210.5 -94t-210.5 93t-74.5 271q0 175 74.5 269t210.5 94q137 0 211 -92.5zM225.5 536q-28.5 -57 -28.5 -189q0 -134 29 -190.5t89 -56.5q61 0 89.5 56.5t28.5 190.5q0 132 -28.5 189t-89.5 57t-89.5 -57zM242 949 l200 -122l-39 -76l-219 85z" />
<glyph unicode="&#xd3;" horiz-adv-x="630" d="M526 617.5q74 -92.5 74 -270.5q0 -176 -74.5 -270t-210.5 -94t-210.5 93t-74.5 271q0 175 74.5 269t210.5 94q137 0 211 -92.5zM225.5 536q-28.5 -57 -28.5 -189q0 -134 29 -190.5t89 -56.5q61 0 89.5 56.5t28.5 190.5q0 132 -28.5 189t-89.5 57t-89.5 -57zM386 950 l58 -113l-219 -86l-39 77z" />
<glyph unicode="&#xd4;" horiz-adv-x="630" d="M526 617.5q74 -92.5 74 -270.5q0 -176 -74.5 -270t-210.5 -94t-210.5 93t-74.5 271q0 175 74.5 269t210.5 94q137 0 211 -92.5zM225.5 536q-28.5 -57 -28.5 -189q0 -134 29 -190.5t89 -56.5q61 0 89.5 56.5t28.5 190.5q0 132 -28.5 189t-89.5 57t-89.5 -57zM194 758 l-54 58l129 131h92l128 -131l-53 -58l-121 83z" />
<glyph unicode="&#xd5;" horiz-adv-x="630" d="M526 617.5q74 -92.5 74 -270.5q0 -176 -74.5 -270t-210.5 -94t-210.5 93t-74.5 271q0 175 74.5 269t210.5 94q137 0 211 -92.5zM225.5 536q-28.5 -57 -28.5 -189q0 -134 29 -190.5t89 -56.5q61 0 89.5 56.5t28.5 190.5q0 132 -28.5 189t-89.5 57t-89.5 -57zM335.5 771 q-13.5 6 -34.5 19q-13 9 -20.5 13t-16.5 4q-15 0 -25 -9.5t-23 -32.5l-74 35q18 51 49 82.5t70 31.5q20 0 35 -6.5t34 -19.5q2 -1 10 -6t14.5 -7.5t12.5 -2.5q14 0 24.5 9.5t22.5 31.5l74 -35q-18 -52 -49 -82.5t-70 -30.5q-20 0 -33.5 6z" />
<glyph unicode="&#xd6;" horiz-adv-x="630" d="M526 617.5q74 -92.5 74 -270.5q0 -176 -74.5 -270t-210.5 -94t-210.5 93t-74.5 271q0 175 74.5 269t210.5 94q137 0 211 -92.5zM225.5 536q-28.5 -57 -28.5 -189q0 -134 29 -190.5t89 -56.5q61 0 89.5 56.5t28.5 190.5q0 132 -28.5 189t-89.5 57t-89.5 -57zM265 901 q22 -22 22 -55t-22 -55.5t-55 -22.5q-32 0 -54.5 22.5t-22.5 55.5q0 32 22.5 54.5t54.5 22.5q33 0 55 -22zM477.5 901q22.5 -22 22.5 -55t-22 -55.5t-56 -22.5q-32 0 -54.5 22.5t-22.5 55.5q0 32 22.5 54.5t54.5 22.5q33 0 55.5 -22z" />
<glyph unicode="&#xd7;" horiz-adv-x="470" d="M340 509l88 -78l-110 -123l110 -126l-88 -78l-104 124l-106 -124l-88 78l110 123l-110 126l88 78l104 -124z" />
<glyph unicode="&#xd8;" horiz-adv-x="630" d="M566.5 547q33.5 -81 33.5 -200q0 -175 -74.5 -269.5t-210.5 -94.5q-15 0 -39 2l-33 -119l-118 32l36 126q-64 42 -97.5 123t-33.5 200q0 175 74.5 269t210.5 94q15 0 39 -2l33 119l119 -32l-37 -126q64 -41 97.5 -122zM221.5 537.5q-29.5 -56.5 -29.5 -190.5 q0 -148 32 -204l115 449q-14 2 -24 2q-64 0 -93.5 -56.5zM385.5 123q26.5 24 39 78t13.5 146q0 145 -32 200l-115 -447q8 -1 24 -1q44 0 70.5 24z" />
<glyph unicode="&#xd9;" horiz-adv-x="587" d="M543 214q0 -66 -28 -118.5t-84 -82.5t-137 -30q-122 0 -185.5 63t-63.5 168v479h160v-473q0 -60 21 -88.5t68 -28.5t67.5 28.5t20.5 88.5v473h161v-479zM221 949l200 -122l-39 -76l-219 85z" />
<glyph unicode="&#xda;" horiz-adv-x="587" d="M543 214q0 -66 -28 -118.5t-84 -82.5t-137 -30q-122 0 -185.5 63t-63.5 168v479h160v-473q0 -60 21 -88.5t68 -28.5t67.5 28.5t20.5 88.5v473h161v-479zM365 950l58 -113l-219 -86l-39 77z" />
<glyph unicode="&#xdb;" horiz-adv-x="587" d="M543 214q0 -66 -28 -118.5t-84 -82.5t-137 -30q-122 0 -185.5 63t-63.5 168v479h160v-473q0 -60 21 -88.5t68 -28.5t67.5 28.5t20.5 88.5v473h161v-479zM173 758l-54 58l129 131h92l128 -131l-53 -58l-121 83z" />
<glyph unicode="&#xdc;" horiz-adv-x="587" d="M543 214q0 -66 -28 -118.5t-84 -82.5t-137 -30q-122 0 -185.5 63t-63.5 168v479h160v-473q0 -60 21 -88.5t68 -28.5t67.5 28.5t20.5 88.5v473h161v-479zM244 901q22 -22 22 -55t-22 -55.5t-55 -22.5q-32 0 -54.5 22.5t-22.5 55.5q0 32 22.5 54.5t54.5 22.5q33 0 55 -22z M456.5 901q22.5 -22 22.5 -55t-22 -55.5t-56 -22.5q-32 0 -54.5 22.5t-22.5 55.5q0 32 22.5 54.5t54.5 22.5q33 0 55.5 -22z" />
<glyph unicode="&#xdd;" horiz-adv-x="542" d="M551 693l-200 -433v-260h-160v259l-200 434h171l111 -308l113 308h165zM342 950l58 -113l-219 -86l-39 77z" />
<glyph unicode="&#xde;" horiz-adv-x="544" d="M459 526.5q70 -57.5 70 -170.5q0 -121 -68.5 -181t-187.5 -60h-58v-115h-160v693h160v-109h46q128 0 198 -57.5zM339.5 259q26.5 29 26.5 97q0 60 -27 87t-82 27h-42v-240h44q54 0 80.5 29z" />
<glyph unicode="&#xdf;" horiz-adv-x="552" d="M374.5 738q43.5 -20 65.5 -53.5t22 -74.5q0 -35 -12.5 -58.5t-35.5 -50.5q-18 -22 -26.5 -36.5t-8.5 -33.5q0 -20 13.5 -36t42.5 -41q31 -26 52 -48.5t36 -57.5t15 -82q0 -56 -24 -97.5t-66 -63.5t-94 -22q-61 0 -110 26l46 102q20 -9 40 -9q23 0 37 16.5t14 49.5 q0 35 -16 58.5t-48 53.5q-35 32 -52.5 58.5t-17.5 67.5q0 33 9.5 54t28.5 46q17 23 25.5 41t8.5 44q0 29 -14 44t-38 15q-61 0 -61 -96v-554h-154v547q0 97 57.5 154t161.5 57q60 0 103.5 -20z" />
<glyph unicode="&#xe0;" horiz-adv-x="497" d="M450 107q7 -13 24 -20l-32 -101q-46 4 -75 21t-45 53q-49 -77 -143 -77q-72 0 -114.5 45.5t-42.5 120.5q0 87 58.5 133t169.5 46h42v25q0 47 -17 65.5t-60 18.5q-49 0 -125 -27l-35 99q44 19 94 29t93 10q103 0 152 -46t49 -140v-215q0 -27 7 -40zM263.5 106 q17.5 13 28.5 37v99h-28q-47 0 -69 -19.5t-22 -60.5q0 -34 13.5 -51.5t38.5 -17.5q21 0 38.5 13zM185 830l199 -131l-42 -76l-217 94z" />
<glyph unicode="&#xe1;" horiz-adv-x="497" d="M450 107q7 -13 24 -20l-32 -101q-46 4 -75 21t-45 53q-49 -77 -143 -77q-72 0 -114.5 45.5t-42.5 120.5q0 87 58.5 133t169.5 46h42v25q0 47 -17 65.5t-60 18.5q-49 0 -125 -27l-35 99q44 19 94 29t93 10q103 0 152 -46t49 -140v-215q0 -27 7 -40zM263.5 106 q17.5 13 28.5 37v99h-28q-47 0 -69 -19.5t-22 -60.5q0 -34 13.5 -51.5t38.5 -17.5q21 0 38.5 13zM309 830l60 -113l-217 -94l-42 76z" />
<glyph unicode="&#xe2;" horiz-adv-x="497" d="M450 107q7 -13 24 -20l-32 -101q-46 4 -75 21t-45 53q-49 -77 -143 -77q-72 0 -114.5 45.5t-42.5 120.5q0 87 58.5 133t169.5 46h42v25q0 47 -17 65.5t-60 18.5q-49 0 -125 -27l-35 99q44 19 94 29t93 10q103 0 152 -46t49 -140v-215q0 -27 7 -40zM263.5 106 q17.5 13 28.5 37v99h-28q-47 0 -69 -19.5t-22 -60.5q0 -34 13.5 -51.5t38.5 -17.5q21 0 38.5 13zM125 623l-54 59l128 138h93l128 -138l-54 -59l-120 92z" />
<glyph unicode="&#xe3;" horiz-adv-x="497" d="M450 107q7 -13 24 -20l-32 -101q-46 4 -75 21t-45 53q-49 -77 -143 -77q-72 0 -114.5 45.5t-42.5 120.5q0 87 58.5 133t169.5 46h42v25q0 47 -17 65.5t-60 18.5q-49 0 -125 -27l-35 99q44 19 94 29t93 10q103 0 152 -46t49 -140v-215q0 -27 7 -40zM263.5 106 q17.5 13 28.5 37v99h-28q-47 0 -69 -19.5t-22 -60.5q0 -34 13.5 -51.5t38.5 -17.5q21 0 38.5 13zM266.5 645q-13.5 6 -34.5 19q-13 9 -20.5 13t-16.5 4q-15 0 -25 -9.5t-23 -32.5l-74 35q18 51 49 82.5t70 31.5q20 0 35 -6.5t34 -19.5q2 -1 10 -6t14.5 -7.5t12.5 -2.5 q14 0 24.5 9.5t22.5 31.5l74 -35q-18 -52 -49 -82.5t-70 -30.5q-20 0 -33.5 6z" />
<glyph unicode="&#xe4;" horiz-adv-x="497" d="M450 107q7 -13 24 -20l-32 -101q-46 4 -75 21t-45 53q-49 -77 -143 -77q-72 0 -114.5 45.5t-42.5 120.5q0 87 58.5 133t169.5 46h42v25q0 47 -17 65.5t-60 18.5q-49 0 -125 -27l-35 99q44 19 94 29t93 10q103 0 152 -46t49 -140v-215q0 -27 7 -40zM263.5 106 q17.5 13 28.5 37v99h-28q-47 0 -69 -19.5t-22 -60.5q0 -34 13.5 -51.5t38.5 -17.5q21 0 38.5 13zM194 775q22 -22 22 -55t-22 -55.5t-55 -22.5q-32 0 -54.5 22.5t-22.5 55.5q0 32 22.5 54.5t54.5 22.5q33 0 55 -22zM406.5 775q22.5 -22 22.5 -55t-22 -55.5t-56 -22.5 q-32 0 -54.5 22.5t-22.5 55.5q0 32 22.5 54.5t54.5 22.5q33 0 55.5 -22z" />
<glyph unicode="&#xe5;" horiz-adv-x="497" d="M450 107q7 -13 24 -20l-32 -101q-46 4 -75 21t-45 53q-49 -77 -143 -77q-72 0 -114.5 45.5t-42.5 120.5q0 87 58.5 133t169.5 46h42v25q0 47 -17 65.5t-60 18.5q-49 0 -125 -27l-35 99q44 19 94 29t93 10q103 0 152 -46t49 -140v-215q0 -27 7 -40zM263.5 106 q17.5 13 28.5 37v99h-28q-47 0 -69 -19.5t-22 -60.5q0 -34 13.5 -51.5t38.5 -17.5q21 0 38.5 13zM340 828.5q35 -36.5 35 -92.5t-35 -93t-94 -37t-94.5 37t-35.5 93t35.5 92.5t94.5 36.5t94 -36.5zM206 736q0 -52 40 -52q39 0 39 52q0 51 -39 51q-40 0 -40 -51z" />
<glyph unicode="&#xe6;" horiz-adv-x="776" d="M749 220h-295q6 -69 32 -96.5t73 -27.5q27 0 53.5 11t58.5 34l63 -84q-81 -74 -189 -74q-64 0 -112.5 23.5t-79.5 65.5q-62 -89 -168 -89q-75 0 -119 46t-44 120q0 85 60 130.5t174 45.5h42v26q0 48 -17 66.5t-60 18.5q-49 0 -125 -27l-34 100q94 39 183 39q54 0 89 -17 t57 -50q57 67 149 67q97 0 154.5 -71t57.5 -201q0 -32 -3 -56zM603 320q0 125 -73 125q-35 0 -54 -30t-23 -102h150v7zM313 158q-11 38 -12 79v1h-30q-46 0 -68 -19t-22 -60q0 -66 51 -66q45 0 81 65z" />
<glyph unicode="&#xe7;" horiz-adv-x="436" d="M298 -16v-35q47 -6 71 -30.5t24 -65.5q0 -51 -37 -82.5t-101 -31.5q-61 0 -105 30l35 69q28 -15 58 -15q41 0 41 31q0 18 -20.5 26.5t-63.5 8.5l12 100q-87 18 -135 88.5t-48 183.5q0 87 29.5 152t84 100t127.5 35q50 0 90 -16t75 -49l-64 -88q-23 18 -44 26.5t-45 8.5 q-46 0 -69 -38t-23 -130q0 -88 23.5 -123t67.5 -35q23 0 42 7.5t45 25.5l67 -91q-58 -53 -137 -62z" />
<glyph unicode="&#xe8;" horiz-adv-x="507" d="M480 220h-296q6 -70 31 -97t71 -27q30 0 57 11t59 34l63 -85q-82 -73 -191 -73q-120 0 -182.5 74.5t-62.5 205.5q0 128 60 206.5t169 78.5q105 0 165 -70.5t60 -201.5q0 -32 -3 -56zM332 320q0 63 -16.5 94.5t-55.5 31.5q-35 0 -54 -29.5t-23 -103.5h149v7zM199 830 l199 -131l-42 -76l-217 94z" />
<glyph unicode="&#xe9;" horiz-adv-x="507" d="M480 220h-296q6 -70 31 -97t71 -27q30 0 57 11t59 34l63 -85q-82 -73 -191 -73q-120 0 -182.5 74.5t-62.5 205.5q0 128 60 206.5t169 78.5q105 0 165 -70.5t60 -201.5q0 -32 -3 -56zM332 320q0 63 -16.5 94.5t-55.5 31.5q-35 0 -54 -29.5t-23 -103.5h149v7zM323 830 l60 -113l-217 -94l-42 76z" />
<glyph unicode="&#xea;" horiz-adv-x="507" d="M480 220h-296q6 -70 31 -97t71 -27q30 0 57 11t59 34l63 -85q-82 -73 -191 -73q-120 0 -182.5 74.5t-62.5 205.5q0 128 60 206.5t169 78.5q105 0 165 -70.5t60 -201.5q0 -32 -3 -56zM332 320q0 63 -16.5 94.5t-55.5 31.5q-35 0 -54 -29.5t-23 -103.5h149v7zM139 623 l-54 59l128 138h93l128 -138l-54 -59l-120 92z" />
<glyph unicode="&#xeb;" horiz-adv-x="507" d="M480 220h-296q6 -70 31 -97t71 -27q30 0 57 11t59 34l63 -85q-82 -73 -191 -73q-120 0 -182.5 74.5t-62.5 205.5q0 128 60 206.5t169 78.5q105 0 165 -70.5t60 -201.5q0 -32 -3 -56zM332 320q0 63 -16.5 94.5t-55.5 31.5q-35 0 -54 -29.5t-23 -103.5h149v7zM208 775 q22 -22 22 -55t-22 -55.5t-55 -22.5q-32 0 -54.5 22.5t-22.5 55.5q0 32 22.5 54.5t54.5 22.5q33 0 55 -22zM420.5 775q22.5 -22 22.5 -55t-22 -55.5t-56 -22.5q-32 0 -54.5 22.5t-22.5 55.5q0 32 22.5 54.5t54.5 22.5q33 0 55.5 -22z" />
<glyph unicode="&#xec;" horiz-adv-x="259" d="M206 531v-531h-154v531h154zM68 830l199 -131l-42 -76l-217 94z" />
<glyph unicode="&#xed;" horiz-adv-x="259" d="M206 531v-531h-154v531h154zM192 830l60 -113l-217 -94l-42 76z" />
<glyph unicode="&#xee;" horiz-adv-x="259" d="M206 531v-531h-154v531h154zM8 623l-54 59l128 138h93l128 -138l-54 -59l-120 92z" />
<glyph unicode="&#xef;" horiz-adv-x="259" d="M206 531v-531h-154v531h154zM77 775q22 -22 22 -55t-22 -55.5t-55 -22.5q-32 0 -54.5 22.5t-22.5 55.5q0 32 22.5 54.5t54.5 22.5q33 0 55 -22zM289.5 775q22.5 -22 22.5 -55t-22 -55.5t-56 -22.5q-32 0 -54.5 22.5t-22.5 55.5q0 32 22.5 54.5t54.5 22.5q33 0 55.5 -22z " />
<glyph unicode="&#xf0;" horiz-adv-x="532" d="M459 504q39 -95 39 -227q0 -84 -28 -151t-81.5 -105t-128.5 -38q-66 0 -118.5 29.5t-82.5 86.5t-30 135q0 70 25 126t67.5 87.5t94.5 31.5q37 0 65 -12t53 -35q-13 49 -33.5 85t-56.5 67l-50 -56l-95 45l57 62q-36 12 -83 23l29 99q64 -10 133 -37l67 76l80 -64l-54 -63 q92 -70 131 -165zM322.5 133q19.5 37 19.5 117l-1 78q-32 43 -80 43q-40 0 -58.5 -34t-18.5 -101q0 -75 20 -107.5t58 -32.5q41 0 60.5 37z" />
<glyph unicode="&#xf1;" horiz-adv-x="524" d="M439.5 506.5q35.5 -41.5 35.5 -113.5v-393h-154v372q0 33 -9.5 46.5t-28.5 13.5q-20 0 -38.5 -16.5t-38.5 -48.5v-367h-154v531h135l11 -63q29 40 64 60t80 20q62 0 97.5 -41.5zM286.5 645q-13.5 6 -34.5 19q-13 9 -20.5 13t-16.5 4q-15 0 -25 -9.5t-23 -32.5l-74 35 q18 51 49 82.5t70 31.5q20 0 35 -6.5t34 -19.5q2 -1 10 -6t14.5 -7.5t12.5 -2.5q14 0 24.5 9.5t22.5 31.5l74 -35q-18 -52 -49 -82.5t-70 -30.5q-20 0 -33.5 6z" />
<glyph unicode="&#xf2;" horiz-adv-x="534" d="M442.5 475.5q63.5 -72.5 63.5 -210.5q0 -132 -64 -207t-175 -75q-112 0 -175 73t-63 210q0 133 63.5 207.5t174.5 74.5q112 0 175.5 -72.5zM207 395q-19 -39 -19 -129q0 -92 19 -131t60 -39t60.5 39.5t19.5 129.5q0 92 -19 130.5t-61 38.5q-41 0 -60 -39zM206 830 l199 -131l-42 -76l-217 94z" />
<glyph unicode="&#xf3;" horiz-adv-x="534" d="M442.5 475.5q63.5 -72.5 63.5 -210.5q0 -132 -64 -207t-175 -75q-112 0 -175 73t-63 210q0 133 63.5 207.5t174.5 74.5q112 0 175.5 -72.5zM207 395q-19 -39 -19 -129q0 -92 19 -131t60 -39t60.5 39.5t19.5 129.5q0 92 -19 130.5t-61 38.5q-41 0 -60 -39zM330 830 l60 -113l-217 -94l-42 76z" />
<glyph unicode="&#xf4;" horiz-adv-x="534" d="M442.5 475.5q63.5 -72.5 63.5 -210.5q0 -132 -64 -207t-175 -75q-112 0 -175 73t-63 210q0 133 63.5 207.5t174.5 74.5q112 0 175.5 -72.5zM207 395q-19 -39 -19 -129q0 -92 19 -131t60 -39t60.5 39.5t19.5 129.5q0 92 -19 130.5t-61 38.5q-41 0 -60 -39zM146 623l-54 59 l128 138h93l128 -138l-54 -59l-120 92z" />
<glyph unicode="&#xf5;" horiz-adv-x="534" d="M442.5 475.5q63.5 -72.5 63.5 -210.5q0 -132 -64 -207t-175 -75q-112 0 -175 73t-63 210q0 133 63.5 207.5t174.5 74.5q112 0 175.5 -72.5zM207 395q-19 -39 -19 -129q0 -92 19 -131t60 -39t60.5 39.5t19.5 129.5q0 92 -19 130.5t-61 38.5q-41 0 -60 -39zM287.5 645 q-13.5 6 -34.5 19q-13 9 -20.5 13t-16.5 4q-15 0 -25 -9.5t-23 -32.5l-74 35q18 51 49 82.5t70 31.5q20 0 35 -6.5t34 -19.5q2 -1 10 -6t14.5 -7.5t12.5 -2.5q14 0 24.5 9.5t22.5 31.5l74 -35q-18 -52 -49 -82.5t-70 -30.5q-20 0 -33.5 6z" />
<glyph unicode="&#xf6;" horiz-adv-x="534" d="M442.5 475.5q63.5 -72.5 63.5 -210.5q0 -132 -64 -207t-175 -75q-112 0 -175 73t-63 210q0 133 63.5 207.5t174.5 74.5q112 0 175.5 -72.5zM207 395q-19 -39 -19 -129q0 -92 19 -131t60 -39t60.5 39.5t19.5 129.5q0 92 -19 130.5t-61 38.5q-41 0 -60 -39zM215 775 q22 -22 22 -55t-22 -55.5t-55 -22.5q-32 0 -54.5 22.5t-22.5 55.5q0 32 22.5 54.5t54.5 22.5q33 0 55 -22zM427.5 775q22.5 -22 22.5 -55t-22 -55.5t-56 -22.5q-32 0 -54.5 22.5t-22.5 55.5q0 32 22.5 54.5t54.5 22.5q33 0 55.5 -22z" />
<glyph unicode="&#xf7;" horiz-adv-x="470" d="M298 154q25 -26 25 -62q0 -37 -25 -63t-63 -26t-62.5 26t-24.5 63q0 36 25 62t62 26q38 0 63 -26zM298 634q25 -26 25 -62q0 -37 -25 -63t-63 -26t-62.5 26t-24.5 63q0 36 25 62t62 26q38 0 63 -26zM41 273v118h388v-118h-388z" />
<glyph unicode="&#xf8;" horiz-adv-x="534" d="M479 414.5q27 -61.5 27 -149.5q0 -132 -64 -207t-175 -75q-17 0 -26 1l-33 -118l-111 31l36 124q-50 34 -77 96t-27 149q0 133 63.5 207.5t174.5 74.5q19 0 28 -1l35 119l111 -32l-39 -124q50 -34 77 -95.5zM194.5 396.5q-23.5 -39.5 -23.5 -130.5q0 -100 22 -138l86 308 h-12q-49 0 -72.5 -39.5zM340 134q24 40 24 131q0 98 -22 136l-86 -307h11q49 0 73 40z" />
<glyph unicode="&#xf9;" horiz-adv-x="519" d="M466 0h-134l-7 64q-52 -81 -141 -81q-65 0 -100.5 43t-35.5 116v389h154v-377q0 -57 40 -57q39 0 70 58v376h154v-531zM197 830l199 -131l-42 -76l-217 94z" />
<glyph unicode="&#xfa;" horiz-adv-x="519" d="M466 0h-134l-7 64q-52 -81 -141 -81q-65 0 -100.5 43t-35.5 116v389h154v-377q0 -57 40 -57q39 0 70 58v376h154v-531zM321 830l60 -113l-217 -94l-42 76z" />
<glyph unicode="&#xfb;" horiz-adv-x="519" d="M466 0h-134l-7 64q-52 -81 -141 -81q-65 0 -100.5 43t-35.5 116v389h154v-377q0 -57 40 -57q39 0 70 58v376h154v-531zM137 623l-54 59l128 138h93l128 -138l-54 -59l-120 92z" />
<glyph unicode="&#xfc;" horiz-adv-x="519" d="M466 0h-134l-7 64q-52 -81 -141 -81q-65 0 -100.5 43t-35.5 116v389h154v-377q0 -57 40 -57q39 0 70 58v376h154v-531zM206 775q22 -22 22 -55t-22 -55.5t-55 -22.5q-32 0 -54.5 22.5t-22.5 55.5q0 32 22.5 54.5t54.5 22.5q33 0 55 -22zM418.5 775q22.5 -22 22.5 -55 t-22 -55.5t-56 -22.5q-32 0 -54.5 22.5t-22.5 55.5q0 32 22.5 54.5t54.5 22.5q33 0 55.5 -22z" />
<glyph unicode="&#xfd;" horiz-adv-x="476" d="M330 -1q-57 -207 -278 -221l-17 107q69 10 103 35.5t54 79.5h-55l-142 531h158l82 -433l91 433h155zM301 830l60 -113l-217 -94l-42 76z" />
<glyph unicode="&#xfe;" d="M467.5 475q44.5 -73 44.5 -208q0 -84 -23.5 -148.5t-66.5 -100t-101 -35.5q-71 0 -115 59v-245l-154 -18v963l154 16v-277q51 67 128 67q89 0 133.5 -73zM353 265q0 97 -17.5 133.5t-53.5 36.5q-43 0 -76 -59v-235q29 -44 69 -44q78 0 78 168z" />
<glyph unicode="&#xff;" horiz-adv-x="476" d="M330 -1q-57 -207 -278 -221l-17 107q69 10 103 35.5t54 79.5h-55l-142 531h158l82 -433l91 433h155zM186 775q22 -22 22 -55t-22 -55.5t-55 -22.5q-32 0 -54.5 22.5t-22.5 55.5q0 32 22.5 54.5t54.5 22.5q33 0 55 -22zM398.5 775q22.5 -22 22.5 -55t-22 -55.5t-56 -22.5 q-32 0 -54.5 22.5t-22.5 55.5q0 32 22.5 54.5t54.5 22.5q33 0 55.5 -22z" />
<glyph unicode="&#x100;" d="M389 0l-31 151h-176l-31 -151h-162l187 693h192l186 -693h-165zM206 266h128l-64 310zM412 783h-280v105h280v-105z" />
<glyph unicode="&#x101;" horiz-adv-x="497" d="M450 107q7 -13 24 -20l-32 -101q-46 4 -75 21t-45 53q-49 -77 -143 -77q-72 0 -114.5 45.5t-42.5 120.5q0 87 58.5 133t169.5 46h42v25q0 47 -17 65.5t-60 18.5q-49 0 -125 -27l-35 99q44 19 94 29t93 10q103 0 152 -46t49 -140v-215q0 -27 7 -40zM263.5 106 q17.5 13 28.5 37v99h-28q-47 0 -69 -19.5t-22 -60.5q0 -34 13.5 -51.5t38.5 -17.5q21 0 38.5 13zM386 657h-280v105h280v-105z" />
<glyph unicode="&#x102;" d="M389 0l-31 151h-176l-31 -151h-162l187 693h192l186 -693h-165zM206 266h128l-64 310zM159.5 795.5q-40.5 44.5 -46.5 115.5l83 15q8 -32 26.5 -50t48.5 -18t49 18.5t27 49.5l83 -15q-6 -70 -47 -115t-112 -45t-111.5 44.5z" />
<glyph unicode="&#x103;" horiz-adv-x="497" d="M450 107q7 -13 24 -20l-32 -101q-46 4 -75 21t-45 53q-49 -77 -143 -77q-72 0 -114.5 45.5t-42.5 120.5q0 87 58.5 133t169.5 46h42v25q0 47 -17 65.5t-60 18.5q-49 0 -125 -27l-35 99q44 19 94 29t93 10q103 0 152 -46t49 -140v-215q0 -27 7 -40zM263.5 106 q17.5 13 28.5 37v99h-28q-47 0 -69 -19.5t-22 -60.5q0 -34 13.5 -51.5t38.5 -17.5q21 0 38.5 13zM132.5 679.5q-40.5 46.5 -45.5 123.5l83 15q18 -79 75 -79q30 0 49 20.5t27 58.5l83 -15q-5 -77 -46 -123.5t-113 -46.5t-112.5 46.5z" />
<glyph unicode="&#x104;" d="M388.5 -50.5q-22.5 -25.5 -22.5 -52.5q0 -46 47 -46q19 0 54 7l-10 -95q-30 -8 -63 -8q-61 0 -99.5 31t-38.5 84t33.5 91t94.5 65l-26 125h-176l-31 -151h-162l187 693h192l186 -693h-83q-60 -25 -82.5 -50.5zM206 266h128l-64 310z" />
<glyph unicode="&#x105;" horiz-adv-x="497" d="M359.5 -64.5q-22.5 -25.5 -22.5 -52.5q0 -46 47 -46q19 0 54 7l-10 -95q-30 -8 -63 -8q-61 0 -99.5 31t-38.5 84q0 54 34 92t97 65q-23 17 -36 47q-49 -77 -143 -77q-72 0 -114.5 45.5t-42.5 120.5q0 87 58.5 133t169.5 46h42v25q0 47 -17 65.5t-60 18.5q-49 0 -125 -27 l-35 99q44 19 94 29t93 10q103 0 152 -46t49 -140v-215q0 -27 7 -40t24 -20l-32 -101q-60 -25 -82.5 -50.5zM263.5 106q17.5 13 28.5 37v99h-28q-47 0 -69 -19.5t-22 -60.5q0 -34 13.5 -51.5t38.5 -17.5q21 0 38.5 13z" />
<glyph unicode="&#x106;" horiz-adv-x="524" d="M424 691q47 -19 89 -57l-76 -89q-27 23 -53.5 34.5t-56.5 11.5q-130 0 -130 -243q0 -241 131 -241q34 0 60.5 13.5t59.5 39.5l72 -88q-37 -39 -88.5 -64t-113.5 -25q-87 0 -151.5 41t-100.5 123t-36 201q0 116 37 197.5t101.5 123t148.5 41.5q60 0 107 -19zM395 950 l58 -113l-219 -86l-39 77z" />
<glyph unicode="&#x107;" horiz-adv-x="436" d="M360 532q40 -16 75 -49l-64 -88q-23 18 -44 26.5t-45 8.5q-46 0 -69 -38t-23 -130q0 -88 23.5 -123t67.5 -35q23 0 42 7.5t45 25.5l67 -91q-69 -63 -163 -63q-114 0 -178.5 73t-64.5 205q0 87 29.5 152t84 100t127.5 35q50 0 90 -16zM331 830l60 -113l-217 -94l-42 76z " />
<glyph unicode="&#x108;" horiz-adv-x="524" d="M424 691q47 -19 89 -57l-76 -89q-27 23 -53.5 34.5t-56.5 11.5q-130 0 -130 -243q0 -241 131 -241q34 0 60.5 13.5t59.5 39.5l72 -88q-37 -39 -88.5 -64t-113.5 -25q-87 0 -151.5 41t-100.5 123t-36 201q0 116 37 197.5t101.5 123t148.5 41.5q60 0 107 -19zM203 758 l-54 58l129 131h92l128 -131l-53 -58l-121 83z" />
<glyph unicode="&#x109;" horiz-adv-x="436" d="M360 532q40 -16 75 -49l-64 -88q-23 18 -44 26.5t-45 8.5q-46 0 -69 -38t-23 -130q0 -88 23.5 -123t67.5 -35q23 0 42 7.5t45 25.5l67 -91q-69 -63 -163 -63q-114 0 -178.5 73t-64.5 205q0 87 29.5 152t84 100t127.5 35q50 0 90 -16zM147 623l-54 59l128 138h93l128 -138 l-54 -59l-120 92z" />
<glyph unicode="&#x10a;" horiz-adv-x="524" d="M424 691q47 -19 89 -57l-76 -89q-27 23 -53.5 34.5t-56.5 11.5q-130 0 -130 -243q0 -241 131 -241q34 0 60.5 13.5t59.5 39.5l72 -88q-37 -39 -88.5 -64t-113.5 -25q-87 0 -151.5 41t-100.5 123t-36 201q0 116 37 197.5t101.5 123t148.5 41.5q60 0 107 -19zM387.5 909 q25.5 -25 25.5 -62q0 -38 -25.5 -63t-64.5 -25t-64 25t-25 63q0 37 25 62t64 25t64.5 -25z" />
<glyph unicode="&#x10b;" horiz-adv-x="436" d="M360 532q40 -16 75 -49l-64 -88q-23 18 -44 26.5t-45 8.5q-46 0 -69 -38t-23 -130q0 -88 23.5 -123t67.5 -35q23 0 42 7.5t45 25.5l67 -91q-69 -63 -163 -63q-114 0 -178.5 73t-64.5 205q0 87 29.5 152t84 100t127.5 35q50 0 90 -16zM331.5 783q25.5 -25 25.5 -62 q0 -38 -25.5 -63t-64.5 -25t-64 25t-25 63q0 37 25 62t64 25t64.5 -25z" />
<glyph unicode="&#x10c;" horiz-adv-x="524" d="M424 691q47 -19 89 -57l-76 -89q-27 23 -53.5 34.5t-56.5 11.5q-130 0 -130 -243q0 -241 131 -241q34 0 60.5 13.5t59.5 39.5l72 -88q-37 -39 -88.5 -64t-113.5 -25q-87 0 -151.5 41t-100.5 123t-36 201q0 116 37 197.5t101.5 123t148.5 41.5q60 0 107 -19zM445 939 l53 -59l-128 -130h-93l-128 130l54 59l121 -83z" />
<glyph unicode="&#x10d;" horiz-adv-x="436" d="M360 532q40 -16 75 -49l-64 -88q-23 18 -44 26.5t-45 8.5q-46 0 -69 -38t-23 -130q0 -88 23.5 -123t67.5 -35q23 0 42 7.5t45 25.5l67 -91q-69 -63 -163 -63q-114 0 -178.5 73t-64.5 205q0 87 29.5 152t84 100t127.5 35q50 0 90 -16zM389 810l53 -60l-128 -138h-93 l-128 138l54 60l121 -92z" />
<glyph unicode="&#x10e;" horiz-adv-x="595" d="M404.5 666q71.5 -27 115.5 -103t44 -213q0 -194 -86 -272t-228 -78h-195v693h182q96 0 167.5 -27zM215 577v-461h45q46 0 76 20t46.5 71.5t16.5 142.5t-17 141t-47.5 68t-75.5 18h-44zM389 939l53 -59l-128 -130h-93l-128 130l54 59l121 -83z" />
<glyph unicode="&#x10f;" horiz-adv-x="635" d="M492 742v-742h-136l-7 59q-51 -76 -135 -76q-89 0 -136 74.5t-47 208.5q0 84 24.5 148t69 99t102.5 35q67 0 111 -49v259zM304 109.5q18 13.5 34 41.5v241q-16 22 -31.5 32.5t-36.5 10.5q-80 0 -80 -169q0 -95 19 -132.5t54 -37.5q23 0 41 13.5zM611 528l50 214l-113 16 l-22 -217z" />
<glyph unicode="&#x110;" horiz-adv-x="611" d="M420.5 666q71.5 -27 115.5 -103t44 -213q0 -194 -86 -272t-228 -78h-195v305h-57v96h57v292h182q96 0 167.5 -27zM352 136q30 20 46.5 71.5t16.5 142.5t-17 141t-47.5 68t-75.5 18h-44v-176h106v-96h-106v-189h45q46 0 76 20z" />
<glyph unicode="&#x111;" horiz-adv-x="551" d="M545 688v-91h-53v-597h-136l-7 59q-51 -76 -135 -76q-89 0 -136 74.5t-47 208.5q0 84 24.5 148t69 99t102.5 35q67 0 111 -49v98h-119v91h119v70l154 -16v-54h53zM304 109.5q18 13.5 34 41.5v241q-16 22 -31.5 32.5t-36.5 10.5q-80 0 -80 -169q0 -95 19 -132.5t54 -37.5 q23 0 41 13.5z" />
<glyph unicode="&#x112;" horiz-adv-x="474" d="M447 693l-17 -114h-215v-171h188v-112h-188v-180h230v-116h-390v693h392zM392 783h-280v105h280v-105z" />
<glyph unicode="&#x113;" horiz-adv-x="507" d="M480 220h-296q6 -70 31 -97t71 -27q30 0 57 11t59 34l63 -85q-82 -73 -191 -73q-120 0 -182.5 74.5t-62.5 205.5q0 128 60 206.5t169 78.5q105 0 165 -70.5t60 -201.5q0 -32 -3 -56zM332 320q0 63 -16.5 94.5t-55.5 31.5q-35 0 -54 -29.5t-23 -103.5h149v7zM400 657h-280 v105h280v-105z" />
<glyph unicode="&#x114;" horiz-adv-x="474" d="M447 693l-17 -114h-215v-171h188v-112h-188v-180h230v-116h-390v693h392zM139.5 795.5q-40.5 44.5 -46.5 115.5l83 15q8 -32 26.5 -50t48.5 -18t49 18.5t27 49.5l83 -15q-6 -70 -47 -115t-112 -45t-111.5 44.5z" />
<glyph unicode="&#x115;" horiz-adv-x="507" d="M480 220h-296q6 -70 31 -97t71 -27q30 0 57 11t59 34l63 -85q-82 -73 -191 -73q-120 0 -182.5 74.5t-62.5 205.5q0 128 60 206.5t169 78.5q105 0 165 -70.5t60 -201.5q0 -32 -3 -56zM332 320q0 63 -16.5 94.5t-55.5 31.5q-35 0 -54 -29.5t-23 -103.5h149v7zM146.5 679.5 q-40.5 46.5 -45.5 123.5l83 15q18 -79 75 -79q30 0 49 20.5t27 58.5l83 -15q-5 -77 -46 -123.5t-113 -46.5t-112.5 46.5z" />
<glyph unicode="&#x116;" horiz-adv-x="474" d="M447 693l-17 -114h-215v-171h188v-112h-188v-180h230v-116h-390v693h392zM315.5 909q25.5 -25 25.5 -62q0 -38 -25.5 -63t-64.5 -25t-64 25t-25 63q0 37 25 62t64 25t64.5 -25z" />
<glyph unicode="&#x117;" horiz-adv-x="507" d="M480 220h-296q6 -70 31 -97t71 -27q30 0 57 11t59 34l63 -85q-82 -73 -191 -73q-120 0 -182.5 74.5t-62.5 205.5q0 128 60 206.5t169 78.5q105 0 165 -70.5t60 -201.5q0 -32 -3 -56zM332 320q0 63 -16.5 94.5t-55.5 31.5q-35 0 -54 -29.5t-23 -103.5h149v7zM323.5 783 q25.5 -25 25.5 -62q0 -38 -25.5 -63t-64.5 -25t-64 25t-25 63q0 37 25 62t64 25t64.5 -25z" />
<glyph unicode="&#x118;" horiz-adv-x="474" d="M215 116h230v-116h-35q-60 -25 -82.5 -50.5t-22.5 -52.5q0 -46 47 -46q19 0 54 7l-10 -95q-30 -8 -63 -8q-61 0 -99.5 31t-38.5 84q0 80 79 130h-219v693h392l-17 -114h-215v-171h188v-112h-188v-180z" />
<glyph unicode="&#x119;" horiz-adv-x="507" d="M480 220h-296q6 -70 31 -97t71 -27q30 0 57 11t59 34l63 -85q-42 -37 -94 -57q-84 -40 -84 -93q0 -22 12 -34t35 -12t55 8l-10 -96q-30 -8 -64 -8q-59 0 -97.5 32t-38.5 84q0 65 64 104q-105 10 -159.5 83.5t-54.5 195.5q0 128 60 206.5t169 78.5q105 0 165 -70.5 t60 -201.5q0 -32 -3 -56zM332 320q0 63 -16.5 94.5t-55.5 31.5q-35 0 -54 -29.5t-23 -103.5h149v7z" />
<glyph unicode="&#x11a;" horiz-adv-x="474" d="M447 693l-17 -114h-215v-171h188v-112h-188v-180h230v-116h-390v693h392zM373 939l53 -59l-128 -130h-93l-128 130l54 59l121 -83z" />
<glyph unicode="&#x11b;" horiz-adv-x="507" d="M480 220h-296q6 -70 31 -97t71 -27q30 0 57 11t59 34l63 -85q-82 -73 -191 -73q-120 0 -182.5 74.5t-62.5 205.5q0 128 60 206.5t169 78.5q105 0 165 -70.5t60 -201.5q0 -32 -3 -56zM332 320q0 63 -16.5 94.5t-55.5 31.5q-35 0 -54 -29.5t-23 -103.5h149v7zM381 810 l53 -60l-128 -138h-93l-128 138l54 60l121 -92z" />
<glyph unicode="&#x11c;" horiz-adv-x="590" d="M547 625l-78 -82q-34 27 -62.5 39t-64.5 12q-70 0 -108 -57.5t-38 -189.5q0 -95 13 -148.5t39 -75.5t69 -22q45 0 80 22v162h-77l-15 113h244v-343q-49 -34 -109 -53t-120 -19q-147 0 -218.5 90.5t-71.5 273.5q0 118 40 200t109 122.5t156 40.5q122 0 212 -85zM199 758 l-54 58l129 131h92l128 -131l-53 -58l-121 83z" />
<glyph unicode="&#x11d;" horiz-adv-x="497" d="M500 500q-46 -20 -137 -20q48 -22 70.5 -54.5t22.5 -83.5t-25 -91.5t-71.5 -63t-109.5 -22.5q-30 0 -54 6q-17 -11 -17 -32q0 -16 11.5 -25t42.5 -9h65q88 0 140 -42.5t52 -109.5q0 -81 -66 -127.5t-189 -46.5q-132 0 -183 43t-51 127h138q0 -37 20 -53t78 -16 q55 0 77 16.5t22 45.5q0 56 -71 56h-57q-80 0 -118 28.5t-38 75.5q0 29 16 55t43 45q-46 27 -66.5 63t-20.5 89q0 90 59.5 142t159.5 51q70 -1 117 15.5t104 49.5zM176 356q0 -46 17.5 -69t49.5 -23q33 0 50 22.5t17 71.5q0 46 -16.5 67t-50.5 21q-67 0 -67 -90zM129 623 l-54 59l128 138h93l128 -138l-54 -59l-120 92z" />
<glyph unicode="&#x11e;" horiz-adv-x="590" d="M547 625l-78 -82q-34 27 -62.5 39t-64.5 12q-70 0 -108 -57.5t-38 -189.5q0 -95 13 -148.5t39 -75.5t69 -22q45 0 80 22v162h-77l-15 113h244v-343q-49 -34 -109 -53t-120 -19q-147 0 -218.5 90.5t-71.5 273.5q0 118 40 200t109 122.5t156 40.5q122 0 212 -85z M207.5 795.5q-40.5 44.5 -46.5 115.5l83 15q8 -32 26.5 -50t48.5 -18t49 18.5t27 49.5l83 -15q-6 -70 -47 -115t-112 -45t-111.5 44.5z" />
<glyph unicode="&#x11f;" horiz-adv-x="497" d="M500 500q-46 -20 -137 -20q48 -22 70.5 -54.5t22.5 -83.5t-25 -91.5t-71.5 -63t-109.5 -22.5q-30 0 -54 6q-17 -11 -17 -32q0 -16 11.5 -25t42.5 -9h65q88 0 140 -42.5t52 -109.5q0 -81 -66 -127.5t-189 -46.5q-132 0 -183 43t-51 127h138q0 -37 20 -53t78 -16 q55 0 77 16.5t22 45.5q0 56 -71 56h-57q-80 0 -118 28.5t-38 75.5q0 29 16 55t43 45q-46 27 -66.5 63t-20.5 89q0 90 59.5 142t159.5 51q70 -1 117 15.5t104 49.5zM176 356q0 -46 17.5 -69t49.5 -23q33 0 50 22.5t17 71.5q0 46 -16.5 67t-50.5 21q-67 0 -67 -90z M136.5 679.5q-40.5 46.5 -45.5 123.5l83 15q18 -79 75 -79q30 0 49 20.5t27 58.5l83 -15q-5 -77 -46 -123.5t-113 -46.5t-112.5 46.5z" />
<glyph unicode="&#x120;" horiz-adv-x="590" d="M547 625l-78 -82q-34 27 -62.5 39t-64.5 12q-70 0 -108 -57.5t-38 -189.5q0 -95 13 -148.5t39 -75.5t69 -22q45 0 80 22v162h-77l-15 113h244v-343q-49 -34 -109 -53t-120 -19q-147 0 -218.5 90.5t-71.5 273.5q0 118 40 200t109 122.5t156 40.5q122 0 212 -85zM383.5 909 q25.5 -25 25.5 -62q0 -38 -25.5 -63t-64.5 -25t-64 25t-25 63q0 37 25 62t64 25t64.5 -25z" />
<glyph unicode="&#x121;" horiz-adv-x="497" d="M500 500q-46 -20 -137 -20q48 -22 70.5 -54.5t22.5 -83.5t-25 -91.5t-71.5 -63t-109.5 -22.5q-30 0 -54 6q-17 -11 -17 -32q0 -16 11.5 -25t42.5 -9h65q88 0 140 -42.5t52 -109.5q0 -81 -66 -127.5t-189 -46.5q-132 0 -183 43t-51 127h138q0 -37 20 -53t78 -16 q55 0 77 16.5t22 45.5q0 56 -71 56h-57q-80 0 -118 28.5t-38 75.5q0 29 16 55t43 45q-46 27 -66.5 63t-20.5 89q0 90 59.5 142t159.5 51q70 -1 117 15.5t104 49.5zM176 356q0 -46 17.5 -69t49.5 -23q33 0 50 22.5t17 71.5q0 46 -16.5 67t-50.5 21q-67 0 -67 -90zM313.5 783 q25.5 -25 25.5 -62q0 -38 -25.5 -63t-64.5 -25t-64 25t-25 63q0 37 25 62t64 25t64.5 -25z" />
<glyph unicode="&#x122;" horiz-adv-x="590" d="M547 625l-78 -82q-34 27 -62.5 39t-64.5 12q-70 0 -108 -57.5t-38 -189.5q0 -95 13 -148.5t39 -75.5t69 -22q45 0 80 22v162h-77l-15 113h244v-343q-49 -34 -109 -53t-120 -19q-147 0 -218.5 90.5t-71.5 273.5q0 118 40 200t109 122.5t156 40.5q122 0 212 -85zM372 -89.5 q21 -21.5 21 -54.5q0 -19 -5 -36.5t-19 -47.5l-42 -95h-76l26 115q-34 24 -34 64q0 31 21.5 53.5t53.5 22.5q33 0 54 -21.5z" />
<glyph unicode="&#x123;" horiz-adv-x="497" d="M500 500q-46 -20 -137 -20q48 -22 70.5 -54.5t22.5 -83.5t-25 -91.5t-71.5 -63t-109.5 -22.5q-30 0 -54 6q-17 -11 -17 -32q0 -16 11.5 -25t42.5 -9h65q88 0 140 -42.5t52 -109.5q0 -81 -66 -127.5t-189 -46.5q-132 0 -183 43t-51 127h138q0 -37 20 -53t78 -16 q55 0 77 16.5t22 45.5q0 56 -71 56h-57q-80 0 -118 28.5t-38 75.5q0 29 16 55t43 45q-46 27 -66.5 63t-20.5 89q0 90 59.5 142t159.5 51q70 -1 117 15.5t104 49.5zM176 356q0 -46 17.5 -69t49.5 -23q33 0 50 22.5t17 71.5q0 46 -16.5 67t-50.5 21q-67 0 -67 -90zM193 598.5 q-21 21.5 -21 54.5q0 19 5 36.5t19 47.5l42 95h76l-26 -115q34 -24 34 -64q0 -31 -21.5 -53.5t-53.5 -22.5q-33 0 -54 21.5z" />
<glyph unicode="&#x124;" horiz-adv-x="602" d="M388 0v298h-173v-298h-160v693h160v-270h173v270h160v-693h-160zM181 758l-54 58l129 131h92l128 -131l-53 -58l-121 83z" />
<glyph unicode="&#x125;" horiz-adv-x="524" d="M439.5 506.5q35.5 -41.5 35.5 -113.5v-393h-154v372q0 33 -10 46.5t-28 13.5q-20 0 -38.5 -16.5t-38.5 -48.5v-367h-154v742l154 16v-285q28 38 61 56.5t75 18.5q62 0 97.5 -41.5zM140 807l-54 58l129 131h92l128 -131l-53 -58l-121 83z" />
<glyph unicode="&#x126;" horiz-adv-x="613" d="M602 591v-90h-48v-501h-160v298h-173v-298h-160v501h-50v90h50v102h160v-102h173v102h160v-102h48zM394 423v78h-173v-78h173z" />
<glyph unicode="&#x127;" horiz-adv-x="530" d="M445.5 506.5q35.5 -41.5 35.5 -113.5v-393h-154v372q0 33 -10 46.5t-28 13.5q-20 0 -38.5 -16.5t-38.5 -48.5v-367h-154v598h-52v90h52v54l154 16v-70h117v-90h-117v-125q28 38 61 56.5t75 18.5q62 0 97.5 -41.5z" />
<glyph unicode="&#x128;" horiz-adv-x="269" d="M215 693v-693h-160v693h160zM154.5 771q-13.5 6 -34.5 19q-13 9 -20.5 13t-16.5 4q-15 0 -25 -9.5t-23 -32.5l-74 35q18 51 49 82.5t70 31.5q20 0 35 -6.5t34 -19.5q2 -1 10 -6t14.5 -7.5t12.5 -2.5q14 0 24.5 9.5t22.5 31.5l74 -35q-18 -52 -49 -82.5t-70 -30.5 q-20 0 -33.5 6z" />
<glyph unicode="&#x129;" horiz-adv-x="259" d="M206 531v-531h-154v531h154zM149.5 645q-13.5 6 -34.5 19q-13 9 -20.5 13t-16.5 4q-15 0 -25 -9.5t-23 -32.5l-74 35q18 51 49 82.5t70 31.5q20 0 35 -6.5t34 -19.5q2 -1 10 -6t14.5 -7.5t12.5 -2.5q14 0 24.5 9.5t22.5 31.5l74 -35q-18 -52 -49 -82.5t-70 -30.5 q-20 0 -33.5 6z" />
<glyph unicode="&#x12a;" horiz-adv-x="269" d="M215 693v-693h-160v693h160zM274 783h-280v105h280v-105z" />
<glyph unicode="&#x12b;" horiz-adv-x="259" d="M206 531v-531h-154v531h154zM269 657h-280v105h280v-105z" />
<glyph unicode="&#x12c;" horiz-adv-x="269" d="M215 693v-693h-160v693h160zM21.5 795.5q-40.5 44.5 -46.5 115.5l83 15q8 -32 26.5 -50t48.5 -18t49 18.5t27 49.5l83 -15q-6 -70 -47 -115t-112 -45t-111.5 44.5z" />
<glyph unicode="&#x12d;" horiz-adv-x="259" d="M206 531v-531h-154v531h154zM15.5 679.5q-40.5 46.5 -45.5 123.5l83 15q18 -79 75 -79q30 0 49 20.5t27 58.5l83 -15q-5 -77 -46 -123.5t-113 -46.5t-112.5 46.5z" />
<glyph unicode="&#x12e;" horiz-adv-x="269" d="M215 693v-693h-34q-60 -25 -82.5 -50.5t-22.5 -52.5q0 -46 47 -46q19 0 54 7l-10 -95q-30 -8 -63 -8q-61 0 -99.5 31t-38.5 84q0 84 89 136v687h160z" />
<glyph unicode="&#x12f;" horiz-adv-x="259" d="M64 658q-25 25 -25 63q0 37 25 62t64 25t64.5 -25t25.5 -62q0 -38 -25.5 -63t-64.5 -25t-64 25zM52 531h154v-531h-26q-60 -25 -82.5 -50.5t-22.5 -52.5q0 -46 47 -46q19 0 54 7l-10 -95q-30 -8 -63 -8q-61 0 -99.5 31t-38.5 84q0 83 87 135v526z" />
<glyph unicode="&#x130;" horiz-adv-x="269" d="M215 693v-693h-160v693h160zM197.5 909q25.5 -25 25.5 -62q0 -38 -25.5 -63t-64.5 -25t-64 25t-25 63q0 37 25 62t64 25t64.5 -25z" />
<glyph unicode="&#x131;" horiz-adv-x="259" d="M206 531v-531h-154v531h154z" />
<glyph unicode="&#x132;" horiz-adv-x="559" d="M215 693v-693h-160v693h160zM507 105q0 -118 -56 -178t-153 -94l-42 113q39 17 58.5 38t26 50t6.5 77v582h160v-588z" />
<glyph unicode="&#x133;" horiz-adv-x="518" d="M206 531v-531h-154v531h154zM192.5 783q25.5 -25 25.5 -62q0 -38 -25.5 -63t-64.5 -25t-64 25t-25 63q0 37 25 62t64 25t64.5 -25zM465 48q0 -77 -25 -128.5t-68.5 -83t-107.5 -57.5l-51 112q35 19 55 36t31.5 44t11.5 71v489h154v-483zM451.5 783q25.5 -25 25.5 -62 q0 -38 -25.5 -63t-64.5 -25t-64 25t-25 63q0 37 25 62t64 25t64.5 -25z" />
<glyph unicode="&#x134;" horiz-adv-x="290" d="M238 105q0 -118 -56 -178t-153 -94l-42 113q39 17 58.5 38t26 50t6.5 77v582h160v-588zM37 758l-54 58l129 131h92l128 -131l-53 -58l-121 83z" />
<glyph unicode="&#x135;" horiz-adv-x="259" d="M206 48q0 -77 -25 -128.5t-68.5 -83t-107.5 -57.5l-51 112q35 19 55 36t31.5 44t11.5 71v489h154v-483zM8 623l-54 59l128 138h93l128 -138l-54 -59l-120 92z" />
<glyph unicode="&#x136;" horiz-adv-x="581" d="M215 693v-693h-160v693h160zM577 693l-194 -311l210 -382h-179l-194 370l194 323h163zM350 -89.5q21 -21.5 21 -54.5q0 -19 -5 -36.5t-19 -47.5l-42 -95h-76l26 115q-34 24 -34 64q0 31 21.5 53.5t53.5 22.5q33 0 54 -21.5z" />
<glyph unicode="&#x137;" horiz-adv-x="509" d="M206 758v-758h-154v742zM506 531l-142 -233l153 -298h-168l-138 290l144 241h151zM309 -89.5q21 -21.5 21 -54.5q0 -19 -5 -36.5t-19 -47.5l-42 -95h-76l26 115q-34 24 -34 64q0 31 21.5 53.5t53.5 22.5q33 0 54 -21.5z" />
<glyph unicode="&#x138;" horiz-adv-x="508" d="M206 531v-531h-154v531h154zM506 531l-142 -240l152 -291h-167l-139 284l144 247h152z" />
<glyph unicode="&#x139;" horiz-adv-x="465" d="M215 693v-566h241l-17 -127h-384v693h160zM206 950l58 -113l-219 -86l-39 77z" />
<glyph unicode="&#x13a;" horiz-adv-x="273" d="M84 21q-37 38 -37 106v615l154 16v-624q0 -29 24 -29q10 0 22 4l29 -107q-40 -19 -89 -19q-66 0 -103 38zM195 999l58 -113l-219 -86l-39 77z" />
<glyph unicode="&#x13b;" horiz-adv-x="465" d="M215 693v-566h241l-17 -127h-384v693h160zM301 -89.5q21 -21.5 21 -54.5q0 -19 -5 -36.5t-19 -47.5l-42 -95h-76l26 115q-34 24 -34 64q0 31 21.5 53.5t53.5 22.5q33 0 54 -21.5z" />
<glyph unicode="&#x13c;" horiz-adv-x="273" d="M84 21q-37 38 -37 106v615l154 16v-624q0 -29 24 -29q10 0 22 4l29 -107q-40 -19 -89 -19q-66 0 -103 38zM222 -89.5q21 -21.5 21 -54.5q0 -19 -5 -36.5t-19 -47.5l-42 -95h-76l26 115q-34 24 -34 64q0 31 21.5 53.5t53.5 22.5q33 0 54 -21.5z" />
<glyph unicode="&#x13d;" horiz-adv-x="465" d="M215 693v-566h241l-17 -127h-384v693h160zM335 479l50 214l-113 16l-22 -217z" />
<glyph unicode="&#x13e;" horiz-adv-x="345" d="M84 21q-37 38 -37 106v615l154 16v-624q0 -29 24 -29q10 0 22 4l29 -107q-40 -19 -89 -19q-66 0 -103 38zM320 528l50 214l-113 16l-22 -217z" />
<glyph unicode="&#x13f;" horiz-adv-x="465" d="M215 693v-566h241l-17 -127h-384v693h160zM426.5 461q25.5 -25 25.5 -62q0 -38 -25.5 -63t-64.5 -25t-64 25t-25 63q0 37 25 62t64 25t64.5 -25z" />
<glyph unicode="&#x140;" horiz-adv-x="416" d="M84 21q-37 38 -37 106v615l154 16v-624q0 -29 24 -29q10 0 22 4l29 -107q-40 -19 -89 -19q-66 0 -103 38zM395.5 439q25.5 -25 25.5 -62q0 -38 -25.5 -63t-64.5 -25t-64 25t-25 63q0 37 25 62t64 25t64.5 -25z" />
<glyph unicode="&#x141;" horiz-adv-x="505" d="M255 127h241l-17 -127h-384v226l-39 -26l-51 85l86 59l4 3v346h160v-240l106 70l51 -84l-157 -105v-207z" />
<glyph unicode="&#x142;" horiz-adv-x="332" d="M278 109l29 -107q-40 -19 -89 -19q-66 0 -103 38t-37 106v142l-35 -23l-50 83l85 57v356l154 16v-273l56 36l50 -82l-106 -69v-236q0 -29 24 -29q10 0 22 4z" />
<glyph unicode="&#x143;" horiz-adv-x="599" d="M544 0h-200l-170 544q2 -12 2 -20q9 -72 14 -130.5t5 -135.5v-258h-140v693h198l173 -545q-22 130 -22 259v286h140v-693zM373 950l58 -113l-219 -86l-39 77z" />
<glyph unicode="&#x144;" horiz-adv-x="524" d="M439.5 506.5q35.5 -41.5 35.5 -113.5v-393h-154v372q0 33 -9.5 46.5t-28.5 13.5q-20 0 -38.5 -16.5t-38.5 -48.5v-367h-154v531h135l11 -63q29 40 64 60t80 20q62 0 97.5 -41.5zM329 830l60 -113l-217 -94l-42 76z" />
<glyph unicode="&#x145;" horiz-adv-x="599" d="M544 0h-200l-170 544q2 -12 2 -20q9 -72 14 -130.5t5 -135.5v-258h-140v693h198l173 -545q-22 130 -22 259v286h140v-693zM354 -89.5q21 -21.5 21 -54.5q0 -19 -5 -36.5t-19 -47.5l-42 -95h-76l26 115q-34 24 -34 64q0 31 21.5 53.5t53.5 22.5q33 0 54 -21.5z" />
<glyph unicode="&#x146;" horiz-adv-x="524" d="M439.5 506.5q35.5 -41.5 35.5 -113.5v-393h-154v372q0 33 -9.5 46.5t-28.5 13.5q-20 0 -38.5 -16.5t-38.5 -48.5v-367h-154v531h135l11 -63q29 40 64 60t80 20q62 0 97.5 -41.5zM316 -89.5q21 -21.5 21 -54.5q0 -19 -5 -36.5t-19 -47.5l-42 -95h-76l26 115q-34 24 -34 64 q0 31 21.5 53.5t53.5 22.5q33 0 54 -21.5z" />
<glyph unicode="&#x147;" horiz-adv-x="599" d="M544 0h-200l-170 544q2 -12 2 -20q9 -72 14 -130.5t5 -135.5v-258h-140v693h198l173 -545q-22 130 -22 259v286h140v-693zM423 939l53 -59l-128 -130h-93l-128 130l54 59l121 -83z" />
<glyph unicode="&#x148;" horiz-adv-x="524" d="M439.5 506.5q35.5 -41.5 35.5 -113.5v-393h-154v372q0 33 -9.5 46.5t-28.5 13.5q-20 0 -38.5 -16.5t-38.5 -48.5v-367h-154v531h135l11 -63q29 40 64 60t80 20q62 0 97.5 -41.5zM387 810l53 -60l-128 -138h-93l-128 138l54 60l121 -92z" />
<glyph unicode="&#x149;" horiz-adv-x="643" d="M145 740.5q18 -18.5 18 -47.5q0 -16 -4.5 -30.5t-17.5 -44.5l-36 -83h-66l21 101q-29 22 -29 57q0 28 18.5 47t47.5 19q30 0 48 -18.5zM559.5 506.5q35.5 -41.5 35.5 -113.5v-393h-154v372q0 33 -9.5 46.5t-28.5 13.5q-20 0 -38.5 -16.5t-38.5 -48.5v-367h-154v531h135 l11 -63q29 40 64 60t80 20q62 0 97.5 -41.5z" />
<glyph unicode="&#x14a;" horiz-adv-x="599" d="M544 693v-734q0 -89 -51 -134.5t-137 -45.5q-78 0 -133 42l53 92q18 -10 31 -14t30 -4q47 0 47 55v50h-40l-170 544q2 -12 2 -20q9 -72 14 -130.5t5 -135.5v-258h-140v693h198l173 -545q-22 130 -22 259v286h140z" />
<glyph unicode="&#x14b;" horiz-adv-x="524" d="M439.5 506.5q35.5 -41.5 35.5 -113.5v-437q0 -86 -50 -131.5t-133 -45.5q-81 0 -135 42l53 88q18 -10 31 -14t31 -4q23 0 36 13.5t13 41.5v426q0 33 -9.5 46.5t-28.5 13.5q-20 0 -38.5 -16.5t-38.5 -48.5v-367h-154v531h135l11 -63q29 40 64 60t80 20q62 0 97.5 -41.5z " />
<glyph unicode="&#x14c;" horiz-adv-x="630" d="M526 617.5q74 -92.5 74 -270.5q0 -176 -74.5 -270t-210.5 -94t-210.5 93t-74.5 271q0 175 74.5 269t210.5 94q137 0 211 -92.5zM225.5 536q-28.5 -57 -28.5 -189q0 -134 29 -190.5t89 -56.5q61 0 89.5 56.5t28.5 190.5q0 132 -28.5 189t-89.5 57t-89.5 -57zM455 783h-280 v105h280v-105z" />
<glyph unicode="&#x14d;" horiz-adv-x="534" d="M442.5 475.5q63.5 -72.5 63.5 -210.5q0 -132 -64 -207t-175 -75q-112 0 -175 73t-63 210q0 133 63.5 207.5t174.5 74.5q112 0 175.5 -72.5zM207 395q-19 -39 -19 -129q0 -92 19 -131t60 -39t60.5 39.5t19.5 129.5q0 92 -19 130.5t-61 38.5q-41 0 -60 -39zM407 657h-280 v105h280v-105z" />
<glyph unicode="&#x14e;" horiz-adv-x="630" d="M526 617.5q74 -92.5 74 -270.5q0 -176 -74.5 -270t-210.5 -94t-210.5 93t-74.5 271q0 175 74.5 269t210.5 94q137 0 211 -92.5zM225.5 536q-28.5 -57 -28.5 -189q0 -134 29 -190.5t89 -56.5q61 0 89.5 56.5t28.5 190.5q0 132 -28.5 189t-89.5 57t-89.5 -57zM202.5 795.5 q-40.5 44.5 -46.5 115.5l83 15q8 -32 26.5 -50t48.5 -18t49 18.5t27 49.5l83 -15q-6 -70 -47 -115t-112 -45t-111.5 44.5z" />
<glyph unicode="&#x14f;" horiz-adv-x="534" d="M442.5 475.5q63.5 -72.5 63.5 -210.5q0 -132 -64 -207t-175 -75q-112 0 -175 73t-63 210q0 133 63.5 207.5t174.5 74.5q112 0 175.5 -72.5zM207 395q-19 -39 -19 -129q0 -92 19 -131t60 -39t60.5 39.5t19.5 129.5q0 92 -19 130.5t-61 38.5q-41 0 -60 -39zM153.5 679.5 q-40.5 46.5 -45.5 123.5l83 15q18 -79 75 -79q30 0 49 20.5t27 58.5l83 -15q-5 -77 -46 -123.5t-113 -46.5t-112.5 46.5z" />
<glyph unicode="&#x150;" horiz-adv-x="630" d="M526 617.5q74 -92.5 74 -270.5q0 -176 -74.5 -270t-210.5 -94t-210.5 93t-74.5 271q0 175 74.5 269t210.5 94q137 0 211 -92.5zM225.5 536q-28.5 -57 -28.5 -189q0 -134 29 -190.5t89 -56.5q61 0 89.5 56.5t28.5 190.5q0 132 -28.5 189t-89.5 57t-89.5 -57zM275 983 l101 -48l-105 -179l-77 32zM437 983l99 -51l-112 -180l-75 36z" />
<glyph unicode="&#x151;" horiz-adv-x="534" d="M442.5 475.5q63.5 -72.5 63.5 -210.5q0 -132 -64 -207t-175 -75q-112 0 -175 73t-63 210q0 133 63.5 207.5t174.5 74.5q112 0 175.5 -72.5zM207 395q-19 -39 -19 -129q0 -92 19 -131t60 -39t60.5 39.5t19.5 129.5q0 92 -19 130.5t-61 38.5q-41 0 -60 -39zM221 857 l101 -48l-105 -179l-77 32zM383 857l99 -51l-112 -180l-75 36z" />
<glyph unicode="&#x152;" horiz-adv-x="820" d="M517 116h274v-116h-402q-40 -17 -89 -17q-83 0 -143.5 42.5t-93.5 124t-33 197.5q0 114 33 195.5t94 124.5t143 43q50 0 92 -17h401l-17 -114h-259q48 -67 61 -170h171v-113h-170q-11 -108 -62 -180zM388 157q27 57 27 190q0 132 -27 189t-82 57t-82 -57t-27 -189 t27.5 -189.5t81.5 -57.5q55 0 82 57z" />
<glyph unicode="&#x153;" horiz-adv-x="824" d="M796 220h-294q6 -69 31.5 -96.5t71.5 -27.5q30 0 57 11t59 34l63 -84q-83 -74 -191 -74q-106 0 -169 79q-62 -79 -160 -79q-110 0 -172.5 73.5t-62.5 209.5q0 86 28.5 149.5t82 98t125.5 34.5q97 0 160 -77q59 77 155 77q101 0 160.5 -71t59.5 -201q0 -24 -4 -56z M649 320q0 63 -16 94t-54 31q-36 0 -55 -30.5t-23 -101.5h148v7zM326 136q19 40 19 130q0 89 -19 128.5t-59 39.5q-41 0 -60 -39t-19 -129q0 -92 19 -131t59 -39q41 0 60 40z" />
<glyph unicode="&#x154;" horiz-adv-x="562" d="M267 266h-52v-266h-160v693h203q136 0 203 -52.5t67 -157.5q0 -133 -117 -187l157 -296h-175zM215 377h49q52 0 76 25.5t24 80.5q0 50 -26 73.5t-82 23.5h-41v-203zM346 950l58 -113l-219 -86l-39 77z" />
<glyph unicode="&#x155;" horiz-adv-x="366" d="M370 538l-25 -148q-21 6 -42 6q-41 0 -63 -31.5t-34 -93.5v-271h-154v531h135l12 -93q18 52 50 80t75 28q26 0 46 -8zM275 830l60 -113l-217 -94l-42 76z" />
<glyph unicode="&#x156;" horiz-adv-x="562" d="M267 266h-52v-266h-160v693h203q136 0 203 -52.5t67 -157.5q0 -133 -117 -187l157 -296h-175zM215 377h49q52 0 76 25.5t24 80.5q0 50 -26 73.5t-82 23.5h-41v-203zM337 -89.5q21 -21.5 21 -54.5q0 -19 -5 -36.5t-19 -47.5l-42 -95h-76l26 115q-34 24 -34 64 q0 31 21.5 53.5t53.5 22.5q33 0 54 -21.5z" />
<glyph unicode="&#x157;" horiz-adv-x="366" d="M370 538l-25 -148q-21 6 -42 6q-41 0 -63 -31.5t-34 -93.5v-271h-154v531h135l12 -93q18 52 50 80t75 28q26 0 46 -8zM183 -89.5q21 -21.5 21 -54.5q0 -19 -5 -36.5t-19 -47.5l-42 -95h-76l26 115q-34 24 -34 64q0 31 21.5 53.5t53.5 22.5q33 0 54 -21.5z" />
<glyph unicode="&#x158;" horiz-adv-x="562" d="M267 266h-52v-266h-160v693h203q136 0 203 -52.5t67 -157.5q0 -133 -117 -187l157 -296h-175zM215 377h49q52 0 76 25.5t24 80.5q0 50 -26 73.5t-82 23.5h-41v-203zM396 939l53 -59l-128 -130h-93l-128 130l54 59l121 -83z" />
<glyph unicode="&#x159;" horiz-adv-x="366" d="M370 538l-25 -148q-21 6 -42 6q-41 0 -63 -31.5t-34 -93.5v-271h-154v531h135l12 -93q18 52 50 80t75 28q26 0 46 -8zM333 810l53 -60l-128 -138h-93l-128 138l54 60l121 -92z" />
<glyph unicode="&#x15a;" horiz-adv-x="519" d="M385.5 687.5q53.5 -22.5 97.5 -66.5l-73 -84q-65 56 -133 56q-38 0 -60 -19t-22 -52q0 -22 10 -37t35 -29t74 -32q64 -24 103.5 -51.5t60.5 -68.5t21 -102q0 -64 -30.5 -113.5t-88 -77.5t-134.5 -28q-145 0 -241 98l78 87q37 -32 74.5 -49t79.5 -17q46 0 71 24t25 64 q0 38 -23 61t-87 46q-104 39 -148 88t-44 125q0 59 30 104.5t82.5 70.5t118.5 25q70 0 123.5 -22.5zM339 950l58 -113l-219 -86l-39 77z" />
<glyph unicode="&#x15b;" horiz-adv-x="438" d="M324 531q46 -17 81 -48l-56 -84q-60 39 -113 39q-28 0 -43 -11.5t-15 -31.5q0 -15 7.5 -25.5t28.5 -21t63 -25.5q74 -25 109.5 -63t35.5 -103q0 -80 -61 -127t-156 -47q-61 0 -113.5 21t-89.5 57l73 82q62 -50 124 -50q31 0 48.5 13.5t17.5 37.5q0 19 -7.5 31t-28 23 t-63.5 26q-73 25 -106.5 63.5t-33.5 97.5q0 46 24 83t69 58.5t106 21.5q53 0 99 -17zM287 830l60 -113l-217 -94l-42 76z" />
<glyph unicode="&#x15c;" horiz-adv-x="519" d="M385.5 687.5q53.5 -22.5 97.5 -66.5l-73 -84q-65 56 -133 56q-38 0 -60 -19t-22 -52q0 -22 10 -37t35 -29t74 -32q64 -24 103.5 -51.5t60.5 -68.5t21 -102q0 -64 -30.5 -113.5t-88 -77.5t-134.5 -28q-145 0 -241 98l78 87q37 -32 74.5 -49t79.5 -17q46 0 71 24t25 64 q0 38 -23 61t-87 46q-104 39 -148 88t-44 125q0 59 30 104.5t82.5 70.5t118.5 25q70 0 123.5 -22.5zM147 758l-54 58l129 131h92l128 -131l-53 -58l-121 83z" />
<glyph unicode="&#x15d;" horiz-adv-x="438" d="M324 531q46 -17 81 -48l-56 -84q-60 39 -113 39q-28 0 -43 -11.5t-15 -31.5q0 -15 7.5 -25.5t28.5 -21t63 -25.5q74 -25 109.5 -63t35.5 -103q0 -80 -61 -127t-156 -47q-61 0 -113.5 21t-89.5 57l73 82q62 -50 124 -50q31 0 48.5 13.5t17.5 37.5q0 19 -7.5 31t-28 23 t-63.5 26q-73 25 -106.5 63.5t-33.5 97.5q0 46 24 83t69 58.5t106 21.5q53 0 99 -17zM103 623l-54 59l128 138h93l128 -138l-54 -59l-120 92z" />
<glyph unicode="&#x15e;" horiz-adv-x="519" d="M445 57.5q-54 -58.5 -148 -71.5v-37q47 -6 71 -30.5t24 -65.5q0 -51 -37 -82.5t-101 -31.5q-61 0 -105 30l35 69q28 -15 58 -15q41 0 41 31q0 18 -20.5 26.5t-63.5 8.5l11 96q-121 11 -205 96l78 87q37 -32 74.5 -49t79.5 -17q46 0 71 24t25 64q0 38 -23 61t-87 46 q-104 39 -148 88t-44 125q0 59 30 104.5t82.5 70.5t118.5 25q70 0 123.5 -22.5t97.5 -66.5l-73 -84q-65 56 -133 56q-38 0 -60 -19t-22 -52q0 -22 10 -37t35 -29t74 -32q64 -24 103.5 -51.5t60.5 -68.5t21 -102q0 -86 -54 -144.5z" />
<glyph unicode="&#x15f;" horiz-adv-x="438" d="M378.5 45.5q-43.5 -44.5 -116.5 -57.5v-39q47 -6 71 -30.5t24 -65.5q0 -51 -37 -82.5t-101 -31.5q-61 0 -105 30l35 69q28 -15 58 -15q41 0 41 31q0 18 -20.5 26.5t-63.5 8.5l11 95q-52 5 -96.5 25.5t-76.5 51.5l73 82q62 -50 124 -50q31 0 48.5 13.5t17.5 37.5 q0 19 -7.5 31t-28 23t-63.5 26q-73 25 -106.5 63.5t-33.5 97.5q0 46 24 83t69 58.5t106 21.5q53 0 99 -17t81 -48l-56 -84q-60 39 -113 39q-28 0 -43 -11.5t-15 -31.5q0 -15 7.5 -25.5t28.5 -21t63 -25.5q74 -25 109.5 -63t35.5 -103q0 -67 -43.5 -111.5z" />
<glyph unicode="&#x160;" horiz-adv-x="519" d="M385.5 687.5q53.5 -22.5 97.5 -66.5l-73 -84q-65 56 -133 56q-38 0 -60 -19t-22 -52q0 -22 10 -37t35 -29t74 -32q64 -24 103.5 -51.5t60.5 -68.5t21 -102q0 -64 -30.5 -113.5t-88 -77.5t-134.5 -28q-145 0 -241 98l78 87q37 -32 74.5 -49t79.5 -17q46 0 71 24t25 64 q0 38 -23 61t-87 46q-104 39 -148 88t-44 125q0 59 30 104.5t82.5 70.5t118.5 25q70 0 123.5 -22.5zM389 939l53 -59l-128 -130h-93l-128 130l54 59l121 -83z" />
<glyph unicode="&#x161;" horiz-adv-x="438" d="M324 531q46 -17 81 -48l-56 -84q-60 39 -113 39q-28 0 -43 -11.5t-15 -31.5q0 -15 7.5 -25.5t28.5 -21t63 -25.5q74 -25 109.5 -63t35.5 -103q0 -80 -61 -127t-156 -47q-61 0 -113.5 21t-89.5 57l73 82q62 -50 124 -50q31 0 48.5 13.5t17.5 37.5q0 19 -7.5 31t-28 23 t-63.5 26q-73 25 -106.5 63.5t-33.5 97.5q0 46 24 83t69 58.5t106 21.5q53 0 99 -17zM345 810l53 -60l-128 -138h-93l-128 138l54 60l121 -92z" />
<glyph unicode="&#x162;" horiz-adv-x="490" d="M397 -80q24 -26 24 -67q0 -51 -37.5 -82.5t-101.5 -31.5q-30 0 -57.5 8.5t-46.5 21.5l35 72q29 -18 55 -18q44 0 44 32q0 17 -20 25.5t-64 8.5l13 111h-76v571h-158v122h484l-17 -122h-149v-620q48 -5 72 -31z" />
<glyph unicode="&#x163;" horiz-adv-x="352" d="M325 -81.5q24 -24.5 24 -65.5q0 -51 -37 -82.5t-101 -31.5q-61 0 -105 30l35 69q28 -15 58 -15q41 0 41 31q0 18 -20.5 26.5t-63.5 8.5l12 102q-52 15 -77.5 58t-25.5 109v266h-64v107h64v115l154 18v-133h109l-16 -107h-93v-264q0 -55 42 -55q23 0 50 15l51 -95 q-42 -32 -108 -41v-35q47 -6 71 -30.5z" />
<glyph unicode="&#x164;" horiz-adv-x="490" d="M491 693l-17 -122h-149v-571h-160v571h-158v122h484zM366 939l53 -59l-128 -130h-93l-128 130l54 59l121 -83z" />
<glyph unicode="&#x165;" horiz-adv-x="352" d="M373 778l-50 -214l-85 13l22 217zM311 120l51 -95q-27 -20 -62.5 -31t-71.5 -11q-81 0 -122 46t-41 129v266h-64v107h64v115l154 18v-133h109l-16 -107h-93v-264q0 -55 42 -55q23 0 50 15z" />
<glyph unicode="&#x166;" horiz-adv-x="490" d="M474 570h-149v-181h101v-91h-101v-299h-160v299h-102v91h102v181h-158v122h484z" />
<glyph unicode="&#x167;" horiz-adv-x="352" d="M362 25q-27 -20 -62.5 -31t-71.5 -11q-81 0 -122 46t-41 129v101h-57v102h57v63h-64v107h64v115l154 18v-133h109l-16 -107h-93v-63h92v-102h-92v-99q0 -55 42 -55q23 0 50 15z" />
<glyph unicode="&#x168;" horiz-adv-x="587" d="M543 214q0 -66 -28 -118.5t-84 -82.5t-137 -30q-122 0 -185.5 63t-63.5 168v479h160v-473q0 -60 21 -88.5t68 -28.5t67.5 28.5t20.5 88.5v473h161v-479zM314.5 771q-13.5 6 -34.5 19q-13 9 -20.5 13t-16.5 4q-15 0 -25 -9.5t-23 -32.5l-74 35q18 51 49 82.5t70 31.5 q20 0 35 -6.5t34 -19.5q2 -1 10 -6t14.5 -7.5t12.5 -2.5q14 0 24.5 9.5t22.5 31.5l74 -35q-18 -52 -49 -82.5t-70 -30.5q-20 0 -33.5 6z" />
<glyph unicode="&#x169;" horiz-adv-x="519" d="M466 0h-134l-7 64q-52 -81 -141 -81q-65 0 -100.5 43t-35.5 116v389h154v-377q0 -57 40 -57q39 0 70 58v376h154v-531zM278.5 645q-13.5 6 -34.5 19q-13 9 -20.5 13t-16.5 4q-15 0 -25 -9.5t-23 -32.5l-74 35q18 51 49 82.5t70 31.5q20 0 35 -6.5t34 -19.5q2 -1 10 -6 t14.5 -7.5t12.5 -2.5q14 0 24.5 9.5t22.5 31.5l74 -35q-18 -52 -49 -82.5t-70 -30.5q-20 0 -33.5 6z" />
<glyph unicode="&#x16a;" horiz-adv-x="587" d="M543 214q0 -66 -28 -118.5t-84 -82.5t-137 -30q-122 0 -185.5 63t-63.5 168v479h160v-473q0 -60 21 -88.5t68 -28.5t67.5 28.5t20.5 88.5v473h161v-479zM434 783h-280v105h280v-105z" />
<glyph unicode="&#x16b;" horiz-adv-x="519" d="M466 0h-134l-7 64q-52 -81 -141 -81q-65 0 -100.5 43t-35.5 116v389h154v-377q0 -57 40 -57q39 0 70 58v376h154v-531zM398 657h-280v105h280v-105z" />
<glyph unicode="&#x16c;" horiz-adv-x="587" d="M543 214q0 -66 -28 -118.5t-84 -82.5t-137 -30q-122 0 -185.5 63t-63.5 168v479h160v-473q0 -60 21 -88.5t68 -28.5t67.5 28.5t20.5 88.5v473h161v-479zM181.5 795.5q-40.5 44.5 -46.5 115.5l83 15q8 -32 26.5 -50t48.5 -18t49 18.5t27 49.5l83 -15q-6 -70 -47 -115 t-112 -45t-111.5 44.5z" />
<glyph unicode="&#x16d;" horiz-adv-x="519" d="M466 0h-134l-7 64q-52 -81 -141 -81q-65 0 -100.5 43t-35.5 116v389h154v-377q0 -57 40 -57q39 0 70 58v376h154v-531zM144.5 679.5q-40.5 46.5 -45.5 123.5l83 15q18 -79 75 -79q30 0 49 20.5t27 58.5l83 -15q-5 -77 -46 -123.5t-113 -46.5t-112.5 46.5z" />
<glyph unicode="&#x16e;" horiz-adv-x="587" d="M543 214q0 -66 -28 -118.5t-84 -82.5t-137 -30q-122 0 -185.5 63t-63.5 168v479h160v-473q0 -60 21 -88.5t68 -28.5t67.5 28.5t20.5 88.5v473h161v-479zM389 954.5q35 -36.5 35 -92.5t-35 -93t-94 -37t-94.5 37t-35.5 93t35.5 92.5t94.5 36.5t94 -36.5zM255 862 q0 -52 40 -52q39 0 39 52q0 51 -39 51q-40 0 -40 -51z" />
<glyph unicode="&#x16f;" horiz-adv-x="519" d="M466 0h-134l-7 64q-52 -81 -141 -81q-65 0 -100.5 43t-35.5 116v389h154v-377q0 -57 40 -57q39 0 70 58v376h154v-531zM352 828.5q35 -36.5 35 -92.5t-35 -93t-94 -37t-94.5 37t-35.5 93t35.5 92.5t94.5 36.5t94 -36.5zM218 736q0 -52 40 -52q39 0 39 52q0 51 -39 51 q-40 0 -40 -51z" />
<glyph unicode="&#x170;" horiz-adv-x="587" d="M543 214q0 -66 -28 -118.5t-84 -82.5t-137 -30q-122 0 -185.5 63t-63.5 168v479h160v-473q0 -60 21 -88.5t68 -28.5t67.5 28.5t20.5 88.5v473h161v-479zM254 983l101 -48l-105 -179l-77 32zM416 983l99 -51l-112 -180l-75 36z" />
<glyph unicode="&#x171;" horiz-adv-x="519" d="M466 0h-134l-7 64q-52 -81 -141 -81q-65 0 -100.5 43t-35.5 116v389h154v-377q0 -57 40 -57q39 0 70 58v376h154v-531zM212 857l101 -48l-105 -179l-77 32zM374 857l99 -51l-112 -180l-75 36z" />
<glyph unicode="&#x172;" horiz-adv-x="587" d="M543 693v-479q0 -77 -37 -134t-109 -81q-102 -45 -102 -102q0 -22 12 -34t35 -12t55 8l-10 -96q-30 -8 -64 -8q-59 0 -97.5 32t-38.5 84q0 73 80 113q-109 7 -165.5 69t-56.5 161v479h160v-473q0 -60 21 -88.5t68 -28.5t67.5 28.5t20.5 88.5v473h161z" />
<glyph unicode="&#x173;" horiz-adv-x="519" d="M383.5 -50.5q-22.5 -25.5 -22.5 -52.5q0 -46 47 -46q19 0 54 7l-10 -95q-30 -8 -63 -8q-61 0 -99.5 31t-38.5 84q0 79 81 131l-7 63q-52 -81 -141 -81q-65 0 -100.5 43t-35.5 116v389h154v-377q0 -57 40 -57q39 0 70 58v376h154v-531q-60 -25 -82.5 -50.5z" />
<glyph unicode="&#x174;" horiz-adv-x="772" d="M763 693l-100 -693h-208l-70 534l-76 -534h-203l-97 693h155l59 -572l81 572h166l76 -572l68 572h149zM267 758l-54 58l129 131h92l128 -131l-53 -58l-121 83z" />
<glyph unicode="&#x175;" horiz-adv-x="687" d="M682 531l-97 -531h-182l-59 393l-59 -393h-180l-100 531h151l48 -415l70 415h147l63 -415l53 415h145zM223 623l-54 59l128 138h93l128 -138l-54 -59l-120 92z" />
<glyph unicode="&#x176;" horiz-adv-x="542" d="M551 693l-200 -433v-260h-160v259l-200 434h171l111 -308l113 308h165zM150 758l-54 58l129 131h92l128 -131l-53 -58l-121 83z" />
<glyph unicode="&#x177;" horiz-adv-x="476" d="M330 -1q-57 -207 -278 -221l-17 107q69 10 103 35.5t54 79.5h-55l-142 531h158l82 -433l91 433h155zM117 623l-54 59l128 138h93l128 -138l-54 -59l-120 92z" />
<glyph unicode="&#x178;" horiz-adv-x="542" d="M551 693l-200 -433v-260h-160v259l-200 434h171l111 -308l113 308h165zM221 901q22 -22 22 -55t-22 -55.5t-55 -22.5q-32 0 -54.5 22.5t-22.5 55.5q0 32 22.5 54.5t54.5 22.5q33 0 55 -22zM433.5 901q22.5 -22 22.5 -55t-22 -55.5t-56 -22.5q-32 0 -54.5 22.5t-22.5 55.5 q0 32 22.5 54.5t54.5 22.5q33 0 55.5 -22z" />
<glyph unicode="&#x179;" horiz-adv-x="492" d="M467 693v-121l-273 -444h279l-16 -128h-443v120l275 449h-249v124h427zM320 950l58 -113l-219 -86l-39 77z" />
<glyph unicode="&#x17a;" horiz-adv-x="418" d="M400 531v-109l-217 -305h222l-14 -117h-380v109l217 306h-199v116h371zM276 830l60 -113l-217 -94l-42 76z" />
<glyph unicode="&#x17b;" horiz-adv-x="492" d="M467 693v-121l-273 -444h279l-16 -128h-443v120l275 449h-249v124h427zM312.5 909q25.5 -25 25.5 -62q0 -38 -25.5 -63t-64.5 -25t-64 25t-25 63q0 37 25 62t64 25t64.5 -25z" />
<glyph unicode="&#x17c;" horiz-adv-x="418" d="M400 531v-109l-217 -305h222l-14 -117h-380v109l217 306h-199v116h371zM276.5 783q25.5 -25 25.5 -62q0 -38 -25.5 -63t-64.5 -25t-64 25t-25 63q0 37 25 62t64 25t64.5 -25z" />
<glyph unicode="&#x17d;" horiz-adv-x="492" d="M467 693v-121l-273 -444h279l-16 -128h-443v120l275 449h-249v124h427zM370 939l53 -59l-128 -130h-93l-128 130l54 59l121 -83z" />
<glyph unicode="&#x17e;" horiz-adv-x="418" d="M400 531v-109l-217 -305h222l-14 -117h-380v109l217 306h-199v116h371zM334 810l53 -60l-128 -138h-93l-128 138l54 60l121 -92z" />
<glyph unicode="&#x17f;" horiz-adv-x="329" d="M396 726l-41 -99q-36 18 -72 18q-30 0 -43 -14.5t-13 -47.5v-583h-154v424h-70v107h70v51q0 79 48.5 127.5t139.5 48.5q74 0 135 -32z" />
<glyph unicode="&#x180;" horiz-adv-x="549" d="M472.5 475.5q45.5 -72.5 45.5 -210.5q0 -84 -23 -148t-66 -99t-102 -35q-38 0 -70 17.5t-55 49.5l-7 -50h-137v597h-52v91h52v54l154 16v-70h117v-91h-117v-118q22 32 56 50.5t74 18.5q85 0 130.5 -72.5zM339 133.5q20 38.5 20 131.5q0 99 -18 134.5t-52 35.5 q-22 0 -41.5 -16t-35.5 -44v-230q28 -50 70 -50q37 0 57 38.5z" />
<glyph unicode="&#x181;" horiz-adv-x="695" d="M634.5 315q40.5 -38 40.5 -113q0 -202 -279 -202h-205v579h-24q-41 0 -41 -42q0 -27 17 -68l-98 -43q-20 31 -31 60t-11 64q0 66 45.5 104.5t126.5 38.5h197q133 0 205 -43.5t72 -133.5q0 -60 -34 -97.5t-87 -51.5q66 -14 106.5 -52zM351 580v-165h44q92 0 92 85 q0 41 -24 60.5t-76 19.5h-36zM482 137q29 21 29 73q0 98 -106 98h-54v-192h46q56 0 85 21z" />
<glyph unicode="&#x182;" d="M463.5 390.5q65.5 -54.5 65.5 -161.5q0 -114 -68 -171.5t-188 -57.5h-218v693h400l-16 -121h-224v-127h61q122 0 187.5 -54.5zM338 142.5q24 26.5 24 84.5q0 54 -24.5 80.5t-77.5 26.5h-45v-218h48q51 0 75 26.5z" />
<glyph unicode="&#x183;" d="M466.5 471q45.5 -72 45.5 -208q0 -83 -23 -146.5t-66 -98.5t-102 -35q-38 0 -70 17.5t-55 49.5l-7 -50h-137v742h350l-17 -110h-179v-158q22 32 56 50.5t73 18.5q86 0 131.5 -72zM333 133.5q20 38.5 20 129.5q0 96 -18 131.5t-52 35.5q-22 0 -41.5 -16t-35.5 -44v-225 q28 -50 70 -50q37 0 57 38.5z" />
<glyph unicode="&#x184;" horiz-adv-x="561" d="M482.5 400q65.5 -55 65.5 -166q0 -118 -67 -176t-187 -58h-220v494l-67 50q53 57 94 149h133v-238h60q123 0 188.5 -55zM357.5 143.5q24.5 27.5 24.5 88.5q0 58 -24.5 85t-78.5 27h-45v-228h50q49 0 73.5 27.5z" />
<glyph unicode="&#x185;" horiz-adv-x="492" d="M424.5 319q55.5 -46 55.5 -137q0 -92 -57 -137t-158 -45h-195v341l-69 51q55 58 95 139h128v-166h26q119 0 174.5 -46zM307.5 121q16.5 19 16.5 64t-16 64t-56 19h-28v-166h33q34 0 50.5 19z" />
<glyph unicode="&#x186;" horiz-adv-x="524" d="M419.5 617.5q74.5 -92.5 74.5 -269.5q0 -119 -35.5 -201t-100 -123t-151.5 -41q-63 0 -114 25t-88 64l72 88q34 -27 60.5 -40t61.5 -13q61 0 94.5 56t33.5 185q0 132 -30.5 187.5t-88.5 55.5q-34 0 -62 -12t-57 -35l-77 90q43 38 92.5 57t113.5 19q127 0 201.5 -92.5z " />
<glyph unicode="&#x187;" horiz-adv-x="524" d="M660 814l-44 -94q-16 9 -29.5 13t-29.5 4q-23 0 -33.5 -13t-10.5 -43v-47l-70 -82q-59 39 -116 39q-130 0 -130 -243q0 -241 132 -241q33 0 59 13.5t60 40.5l72 -89q-37 -39 -88.5 -64t-114.5 -25q-86 0 -150.5 41t-100.5 123t-36 201q0 115 36.5 197t98 123.5 t135.5 41.5q42 0 79 -15q1 74 41.5 115t113.5 41q70 0 126 -37z" />
<glyph unicode="&#x188;" horiz-adv-x="436" d="M582 721l-43 -94q-17 9 -30 13t-29 4q-23 0 -34 -13t-11 -43v-105l-60 -82q-44 29 -92 29q-47 0 -70 -38t-23 -130q0 -88 23.5 -123t67.5 -35q23 0 42 7.5t45 25.5l67 -91q-69 -63 -163 -63q-114 0 -178.5 73t-64.5 205q0 86 28.5 151t79 100.5t114.5 35.5q22 0 50 -7v59 q0 76 41 117t115 41q69 0 125 -37z" />
<glyph unicode="&#x189;" horiz-adv-x="611" d="M420.5 666q71.5 -27 115.5 -103t44 -213q0 -194 -86 -272t-228 -78h-195v305h-57v96h57v292h182q96 0 167.5 -27zM352 136q30 20 46.5 71.5t16.5 142.5t-17 141t-47.5 68t-75.5 18h-44v-176h106v-96h-106v-189h45q46 0 76 20z" />
<glyph unicode="&#x18a;" horiz-adv-x="730" d="M540.5 666q71.5 -27 115.5 -103t44 -213q0 -194 -86 -272t-228 -78h-195v579h-24q-41 0 -41 -42q0 -27 17 -68l-98 -43q-20 31 -31 60t-11 64q0 66 45.5 104.5t126.5 38.5h198q96 0 167.5 -27zM472 136q30 20 46.5 71.5t16.5 142.5t-17 141t-47.5 68t-75.5 18h-44v-461 h45q46 0 76 20z" />
<glyph unicode="&#x18b;" d="M489 0h-218q-121 0 -188.5 55t-67.5 168q0 107 66.5 164.5t189.5 57.5h58v127h-234v121h394v-693zM329 116v218h-43q-55 0 -79.5 -27t-24.5 -84t24.5 -82t76.5 -25h46z" />
<glyph unicode="&#x18c;" horiz-adv-x="545" d="M492 0h-136l-7 59q-51 -76 -135 -76q-90 0 -136.5 73.5t-46.5 203.5q0 81 24.5 143.5t69.5 97.5t104 35q65 0 109 -49v145h-186v110h340v-742zM304 109.5q18 13.5 34 41.5v229q-16 22 -31.5 32.5t-35.5 10.5q-38 0 -59.5 -39t-21.5 -124q0 -91 19 -127.5t54 -36.5 q23 0 41 13.5z" />
<glyph unicode="&#x18d;" horiz-adv-x="528" d="M360 73q53 -31 72 -63.5t19 -77.5q0 -67 -50.5 -111t-149.5 -44q-53 0 -97.5 16.5t-77.5 43.5l67 80q25 -16 48 -24t50 -8q32 0 47.5 13.5t15.5 35.5q0 18 -6 29.5t-24.5 23.5t-56.5 30q-101 46 -144.5 105t-43.5 158q0 126 63 197t172 71q111 0 173 -65.5t62 -189.5 q0 -152 -139 -220zM195.5 204q7.5 -28 27.5 -49t60 -42q33 31 45.5 72t13.5 103q0 80 -18 113.5t-59 33.5q-40 0 -58.5 -35t-18.5 -121q0 -47 7.5 -75z" />
<glyph unicode="&#x18e;" horiz-adv-x="474" d="M34 693h385v-693h-390v116h230v180h-189v112h189v171h-225v114z" />
<glyph unicode="&#x18f;" horiz-adv-x="582" d="M481.5 622q69.5 -88 69.5 -270q0 -186 -70.5 -277.5t-197.5 -91.5q-263 0 -263 355q0 16 5 66h365q-3 102 -34 145.5t-91 43.5q-41 0 -73.5 -15t-65.5 -41l-71 85q48 45 102.5 66.5t122.5 21.5q132 0 201.5 -88zM360 143q26 43 30 150h-216q0 -105 28 -149t80 -44t78 43z " />
<glyph unicode="&#x190;" horiz-adv-x="491" d="M379.5 687.5q51.5 -22.5 95.5 -68.5l-75 -80q-58 55 -116 55q-42 0 -62 -23t-20 -60q0 -42 24 -65t69 -23h65l-18 -115h-48q-53 0 -80 -27t-27 -76q0 -51 26 -77t73 -26q36 0 65 14.5t60 44.5l84 -81q-84 -97 -225 -97q-73 0 -129.5 26t-88.5 74t-32 112q0 77 42.5 120.5 t118.5 52.5q-71 15 -106.5 56.5t-35.5 103.5q0 52 28 93.5t79.5 65t117.5 23.5q64 0 115.5 -22.5z" />
<glyph unicode="&#x191;" horiz-adv-x="441" d="M215 579v-188h178v-114h-178v-277h-1v-41q0 -89 -51 -134.5t-137 -45.5q-78 0 -133 42l53 92q18 -10 31 -14t30 -4q47 0 47 55v51h1v692h380l-17 -114h-203z" />
<glyph unicode="&#x192;" horiz-adv-x="343" d="M243.5 630.5q-13.5 -14.5 -13.5 -47.5v-52h112l-17 -107h-95v-366q0 -81 -25.5 -134.5t-68.5 -86t-107 -58.5l-52 112q35 19 55.5 36t32 46t11.5 76v375h-70v107h70v51q0 80 48.5 128t141.5 48q76 0 145 -32l-42 -99q-42 18 -79 18q-33 0 -46.5 -14.5z" />
<glyph unicode="&#x193;" horiz-adv-x="559" d="M695 814l-44 -94q-17 9 -30 13t-29 4q-23 0 -34 -13t-11 -43v-56l-72 -76q-35 23 -66 34t-67 11q-70 0 -108 -57.5t-38 -189.5q0 -95 13 -148.5t39 -75.5t69 -22q45 0 80 22v162h-77l-15 113h244v-343q-49 -34 -109.5 -53t-121.5 -19q-145 0 -216.5 90.5t-71.5 273.5 q0 117 39.5 199t105 123t144.5 41q54 0 95 -19v2q0 75 40.5 116.5t114.5 41.5q68 0 126 -37z" />
<glyph unicode="&#x194;" horiz-adv-x="524" d="M345 91q32 -57 46.5 -100.5t14.5 -88.5q0 -58 -34 -90.5t-107 -32.5t-107.5 32t-34.5 90q0 40 14 82t48 108l-196 602h164l112 -500l111 500h159zM284 -48.5q-6 21.5 -19 55.5q-26 -63 -26 -96q0 -31 26 -31q25 0 25 31q0 19 -6 40.5z" />
<glyph unicode="&#x195;" horiz-adv-x="786" d="M751 252q0 -95 -33.5 -155.5t-87 -87t-117.5 -26.5q-85 0 -138.5 47.5t-53.5 138.5v203q0 33 -10 46.5t-28 13.5q-20 0 -38.5 -16.5t-38.5 -48.5v-367h-154v742l154 16v-285q28 38 61 56.5t75 18.5q62 0 97.5 -41.5t35.5 -113.5v-226q0 -38 12 -54t36 -16q74 0 74 164 q0 111 -24 270h151q27 -156 27 -279z" />
<glyph unicode="&#x196;" horiz-adv-x="359" d="M366 26q-55 -42 -133 -42q-86 0 -137 45.5t-51 134.5v529h160v-538q0 -55 47 -55q17 0 30 4t31 14z" />
<glyph unicode="&#x197;" horiz-adv-x="303" d="M298 419v-118h-66v-301h-160v301h-67v118h67v274h160v-274h66z" />
<glyph unicode="&#x198;" horiz-adv-x="596" d="M220 370l111 213q34 69 70 98t98 29q60 0 109 -36l-41 -91q-20 13 -42 13q-19 0 -31 -10t-28 -39l-86 -166l213 -381h-179zM215 693v-693h-160v693h160z" />
<glyph unicode="&#x199;" horiz-adv-x="509" d="M219 629q-13 -15 -13 -49v-580h-154v585q0 76 49 124.5t141 48.5q75 0 134 -33l-43 -98q-35 17 -71 17q-30 0 -43 -15zM364 298l153 -298h-168l-138 290l144 241h151z" />
<glyph unicode="&#x19a;" horiz-adv-x="309" d="M303 2q-40 -19 -89 -19q-66 0 -103 38t-37 106v191h-69v108h69v316l154 16v-332h70v-108h-70v-184q0 -29 24 -29q10 0 22 4z" />
<glyph unicode="&#x19b;" horiz-adv-x="484" d="M426.5 192q28.5 -89 75.5 -159l-147 -50q-41 78 -65.5 163t-47.5 236l-84 -399l-151 33l143 478h72q-11 52 -24 79l-52 -52l-78 51l69 66q-34 15 -80 24l17 96q96 -16 150 -49l67 61l62 -68l-62 -56q46 -64 69 -178q38 -187 66.5 -276z" />
<glyph unicode="&#x19c;" horiz-adv-x="825" d="M770 693v-693h-140l-11 61q-32 -41 -65.5 -59.5t-75.5 -18.5q-46 0 -80 24t-52 66q-36 -47 -71 -68.5t-79 -21.5q-70 0 -110.5 51.5t-40.5 131.5v527h160v-519q0 -35 12 -53t35 -18q21 0 38 15t38 47v1v527h159v-519q0 -33 12 -52t34 -19q23 0 40.5 15t36.5 49v526h160z " />
<glyph unicode="&#x19d;" horiz-adv-x="599" d="M544 693v-693h-200l-170 544q2 -12 2 -20q9 -72 14 -130.5t5 -135.5v-299q0 -87 -47.5 -133.5t-126.5 -46.5q-75 0 -130 42l53 86q22 -11 33.5 -15t28.5 -4q49 0 49 59v746h198l173 -545q-22 130 -22 259v286h140z" />
<glyph unicode="&#x19e;" horiz-adv-x="524" d="M439.5 506.5q35.5 -41.5 35.5 -113.5v-614l-154 16v577q0 33 -9.5 46.5t-28.5 13.5q-20 0 -38.5 -16.5t-38.5 -48.5v-367h-154v531h135l11 -63q29 40 64 60t80 20q62 0 97.5 -41.5z" />
<glyph unicode="&#x19f;" horiz-adv-x="630" d="M526 617.5q74 -92.5 74 -270.5q0 -176 -74.5 -270t-210.5 -94t-210.5 93t-74.5 271q0 175 74.5 269t210.5 94q137 0 211 -92.5zM228.5 547q-30.5 -46 -36.5 -150h246q-6 104 -36 150t-87 46q-56 0 -86.5 -46zM404 147.5q30 47.5 34 157.5h-246q4 -110 34.5 -157.5 t88.5 -47.5q59 0 89 47.5z" />
<glyph unicode="&#x1a0;" horiz-adv-x="661" d="M629 604q-25 -30 -70 -40q41 -85 41 -217q0 -176 -74.5 -270t-210.5 -94t-210.5 93t-74.5 271q0 175 74.5 269t210.5 94q124 0 196 -76q21 3 30.5 15.5t9.5 36.5q0 23 -2.5 38t-8.5 34l97 15q17 -40 17 -89q0 -50 -25 -80zM404.5 156.5q28.5 56.5 28.5 190.5 q0 132 -28.5 189t-89.5 57t-89.5 -57t-28.5 -189q0 -134 29 -190.5t89 -56.5q61 0 89.5 56.5z" />
<glyph unicode="&#x1a1;" horiz-adv-x="575" d="M558 439.5q-26 -30.5 -73 -39.5q21 -57 21 -135q0 -132 -64 -207t-175 -75q-112 0 -175 73t-63 210q0 133 63.5 207.5t174.5 74.5q117 0 178 -76q20 4 28.5 16t8.5 35q0 38 -12 72l97 15q17 -42 17 -89q0 -51 -26 -81.5zM327.5 135.5q19.5 39.5 19.5 129.5 q0 92 -19 130.5t-61 38.5q-41 0 -60 -39t-19 -129q0 -92 19 -131t60 -39t60.5 39.5z" />
<glyph unicode="&#x1a2;" horiz-adv-x="873" d="M768 662q51 -48 51 -136v-735h-161v743q0 64 -50 64q-17 0 -30.5 -3.5t-29.5 -11.5q52 -90 52 -236q0 -176 -74.5 -270t-210.5 -94t-210.5 93t-74.5 271q0 175 74.5 269t210.5 94q97 0 164 -49q66 49 151 49q87 0 138 -48zM404.5 156.5q28.5 56.5 28.5 190.5 q0 132 -28.5 189t-89.5 57t-89.5 -57t-28.5 -189q0 -134 29 -190.5t89 -56.5q61 0 89.5 56.5z" />
<glyph unicode="&#x1a3;" horiz-adv-x="755" d="M654.5 501.5q47.5 -46.5 47.5 -137.5v-585l-154 16v583q0 30 -11.5 44t-35.5 14q-15 0 -33 -5q34 -68 34 -166q0 -132 -63.5 -207t-173.5 -75t-173 73t-63 210q0 133 63 207.5t174 74.5q75 0 128 -34q30 18 61 26t69 8q83 0 130.5 -46.5zM324 135.5q19 39.5 19 129.5 q0 92 -18.5 130.5t-58.5 38.5t-59 -39t-19 -129q0 -92 18.5 -131t58.5 -39t59 39.5z" />
<glyph unicode="&#x1a4;" horiz-adv-x="680" d="M593.5 636q71.5 -57 71.5 -168q0 -117 -69.5 -176.5t-191.5 -59.5h-53v-232h-160v579h-24q-41 0 -41 -42q0 -27 17 -68l-98 -43q-20 31 -31 60t-11 64q0 66 45.5 104.5t126.5 38.5h214q133 0 204.5 -57zM474 375.5q27 27.5 27 91.5q0 57 -26.5 84.5t-83.5 27.5h-40v-231 h40q56 0 83 27.5z" />
<glyph unicode="&#x1a5;" d="M467.5 475q44.5 -73 44.5 -208q0 -84 -23.5 -148.5t-66.5 -100t-101 -35.5q-69 0 -115 55v-243l-154 -16v806q0 76 49 124.5t141 48.5q75 0 134 -33l-43 -98q-35 17 -71 17q-30 0 -43 -15t-13 -49v-97q51 65 128 65q89 0 133.5 -73zM353 265q0 97 -17.5 133.5t-52.5 36.5 q-44 0 -77 -59v-235q29 -44 69 -44q78 0 78 168z" />
<glyph unicode="&#x1a6;" horiz-adv-x="565" d="M271 151h-56v-151h-160v693h160v-115h46q270 0 270 -211q0 -133 -117 -186l157 -296h-174zM215 262h52q52 0 76 25t24 80q0 51 -25.5 74.5t-81.5 23.5h-45v-203z" />
<glyph unicode="&#x1a7;" horiz-adv-x="511" d="M384.5 686q51.5 -24 79.5 -68.5t28 -102.5q0 -77 -45 -125t-150 -85q-64 -22 -87.5 -48t-23.5 -68q0 -41 24 -63t67 -22q40 0 76.5 16.5t73.5 47.5l79 -86q-44 -45 -104.5 -72t-137.5 -27q-74 0 -129 27t-85 76t-30 112q0 86 44.5 134.5t140.5 82.5q49 17 74.5 32 t36.5 33t11 44q0 34 -19.5 51.5t-56.5 17.5q-38 0 -71.5 -13.5t-66.5 -41.5l-73 83q94 89 225 89q68 0 119.5 -24z" />
<glyph unicode="&#x1a8;" horiz-adv-x="430" d="M323 527q43 -21 66 -57.5t23 -82.5q0 -63 -35.5 -99t-108.5 -60q-41 -14 -61.5 -25t-27 -23.5t-6.5 -32.5q0 -26 17 -40t46 -14q58 0 119 49l73 -80q-36 -36 -89.5 -57.5t-114.5 -21.5q-92 0 -150 46t-58 124q0 66 36.5 103.5t110.5 60.5q41 13 61.5 24t27.5 23t7 31 q0 20 -14 32t-40 12q-55 0 -115 -39l-56 83q83 65 187 65q59 0 102 -21z" />
<glyph unicode="&#x1a9;" horiz-adv-x="453" d="M437 693v-116h-253l153 -203v-65l-157 -190h257v-119h-421v116l178 224l-178 237v116h421z" />
<glyph unicode="&#x1aa;" horiz-adv-x="383" d="M494 -179q-54 -42 -135 -42q-82 0 -132.5 45.5t-50.5 131.5v476q-25 -11 -55 -11q-67 0 -108 45.5t-41 121.5q0 77 46.5 123.5t127.5 46.5q86 0 135 -48t49 -126v-638q0 -28 13 -41.5t36 -13.5q18 0 31 4t31 14zM176 532v66q0 28 -8.5 40.5t-26.5 12.5q-38 0 -38 -60 q0 -34 11 -48.5t34 -14.5q10 0 28 4z" />
<glyph unicode="&#x1ab;" horiz-adv-x="352" d="M362 25v-68q0 -87 -49 -132.5t-132 -45.5q-79 0 -136 42l53 88q18 -10 34 -14.5t37 -4.5q60 0 60 60v33h-5q-79 0 -119 46t-40 128v267h-64v107h64v115l154 18v-133h109l-16 -107h-93v-273q0 -53 45 -53q24 0 54 10z" />
<glyph unicode="&#x1ac;" d="M528 570h-150v-570h-160v570h-48q-43 0 -43 -40q0 -28 14 -59l-103 -45q-35 61 -35 119q0 69 48 108.5t132 39.5h361z" />
<glyph unicode="&#x1ad;" horiz-adv-x="352" d="M362 25q-27 -20 -62.5 -31t-71.5 -11q-81 0 -122 46t-41 129v266h-64v107h64v56q0 76 45 123.5t128 47.5q69 0 123 -37l-43 -88q-17 10 -29.5 14t-27.5 4q-42 0 -42 -53v-67h109l-16 -107h-93v-264q0 -55 43 -55q23 0 49 16z" />
<glyph unicode="&#x1ae;" horiz-adv-x="495" d="M402 -101q13 4 31 14l53 -92q-55 -42 -133 -42q-86 0 -137 45.5t-51 134.5v612h-158v122h484l-17 -122h-149v-621q0 -55 47 -55q17 0 30 4z" />
<glyph unicode="&#x1af;" horiz-adv-x="666" d="M644 592q-36 -31 -101 -33v-345q0 -66 -28 -118.5t-84 -82.5t-137 -30q-122 0 -185.5 63t-63.5 168v479h160v-473q0 -60 21 -88.5t68 -28.5t67.5 28.5t20.5 88.5v473h161v-57q18 4 26 16t8 34q0 23 -2.5 38t-8.5 34l97 15q17 -40 17 -89q0 -61 -36 -92z" />
<glyph unicode="&#x1b0;" horiz-adv-x="589" d="M604 521q0 -61 -36.5 -92t-101.5 -33v-396h-134l-7 64q-52 -81 -141 -81q-65 0 -100.5 43t-35.5 116v389h154v-377q0 -57 40 -57q39 0 70 58v376h154v-59q19 4 27.5 16t8.5 35q0 38 -12 72l97 15q17 -42 17 -89z" />
<glyph unicode="&#x1b1;" horiz-adv-x="621" d="M157.5 22q-64.5 39 -98 111t-33.5 168q0 101 31 167t88 110h-100v115h218v-109q-37 -50 -53.5 -112.5t-16.5 -170.5q0 -105 28.5 -152.5t89.5 -47.5q60 0 89 47.5t29 152.5q0 107 -17 169.5t-53 113.5v109h218v-115h-101q58 -42 88.5 -108t30.5 -169q0 -95 -34 -166.5 t-98 -111.5t-152 -40q-89 0 -153.5 39z" />
<glyph unicode="&#x1b2;" horiz-adv-x="587" d="M506 671q37 -39 37 -115v-277q0 -92 -33.5 -159t-94 -102t-140.5 -35q-71 0 -123 28t-79.5 77.5t-27.5 112.5v492h160v-495q0 -46 19 -70.5t55 -24.5q47 0 75 42.5t28 127.5v286q0 35 -25 35q-11 0 -23 -5l-24 104q40 17 90 17q69 0 106 -39z" />
<glyph unicode="&#x1b3;" horiz-adv-x="576" d="M191 259l-200 434h171l112 -307l61 183q24 76 61 108.5t101 32.5q34 0 60.5 -9.5t52.5 -26.5l-43 -91q-21 14 -47 14q-20 0 -32 -11.5t-25 -42.5l-112 -283v-260h-160v259z" />
<glyph unicode="&#x1b4;" horiz-adv-x="480" d="M35 -115q69 10 103 35.5t54 79.5h-55l-142 531h158l82 -433l66 350q12 72 43 104t91 32q41 0 79 -15l-25 -100q-12 5 -25 5q-14 0 -22.5 -8t-12.5 -26l-94 -429q-24 -109 -95.5 -167t-187.5 -66z" />
<glyph unicode="&#x1b5;" horiz-adv-x="492" d="M181 128h292l-16 -128h-443v114l114 180h-72v103h137l109 172h-262v124h427v-115l-115 -181h73v-103h-138z" />
<glyph unicode="&#x1b6;" horiz-adv-x="418" d="M172 111h232l-13 -111h-380v103l86 120h-59v93h126l75 105h-210v110h371v-102l-81 -113h59v-93h-126z" />
<glyph unicode="&#x1b7;" horiz-adv-x="495" d="M425.5 347q50.5 -51 50.5 -142q0 -64 -30 -114t-87 -79t-136 -29q-75 0 -128.5 26t-92.5 76l83 76q31 -31 60 -45t67 -14q47 0 73 28.5t26 80.5t-27.5 75t-82.5 23h-87v90l161 178h-236v116h404v-113l-164 -178q96 -4 146.5 -55z" />
<glyph unicode="&#x1b8;" horiz-adv-x="495" d="M493 85q-40 -50 -95 -76t-130 -26q-77 0 -133 28t-86 78t-30 113q0 89 51 141.5t146 58.5l-164 178v113h404v-116h-235l160 -178v-90h-87q-55 0 -82.5 -25.5t-27.5 -78.5q0 -49 25 -76t70 -27q39 0 69 14t62 45z" />
<glyph unicode="&#x1b9;" horiz-adv-x="463" d="M477 -120q-38 -49 -91.5 -75t-127.5 -26q-75 0 -130 29t-84.5 80.5t-29.5 116.5q0 95 51 147t145 59l-166 214v106h396v-115h-230l155 -206v-89h-82q-56 0 -83.5 -26.5t-27.5 -83.5t25.5 -86t71.5 -29q36 0 65 14t63 46z" />
<glyph unicode="&#x1ba;" horiz-adv-x="465" d="M64.5 -160.5q-39.5 38.5 -39.5 89.5q0 54 37 85t115 47q63 13 87 29t24 49q0 26 -17 38.5t-55 12.5h-115v84l144 148h-226v109h395v-100l-155 -151h21q76 0 120.5 -38t44.5 -105q0 -77 -47.5 -116.5t-130.5 -56.5q-43 -9 -64.5 -16t-29.5 -15t-8 -21q0 -24 43 -48 l-35 -86q-69 23 -108.5 61.5z" />
<glyph unicode="&#x1bb;" horiz-adv-x="469" d="M440 119l-16 -119h-404v110q88 97 116 131h-83v103h163q30 43 41.5 76t11.5 68q0 40 -19.5 61.5t-54.5 21.5q-31 0 -55 -15.5t-53 -51.5l-89 70q82 116 214 116q68 0 116.5 -25.5t73.5 -68.5t25 -96q0 -41 -10.5 -77.5t-36.5 -78.5h54v-103h-132q-33 -38 -113 -122h251z " />
<glyph unicode="&#x1bc;" horiz-adv-x="496" d="M422 583h-225v-155q47 25 95 25q78 0 127 -59t49 -166q0 -73 -30.5 -128.5t-86.5 -86t-131 -30.5q-127 0 -209 101l84 77q26 -30 54.5 -46t64.5 -16q47 0 72.5 32t25.5 96q0 66 -21.5 93t-60.5 27q-19 0 -36.5 -5.5t-38.5 -18.5h-104v370h388z" />
<glyph unicode="&#x1bd;" horiz-adv-x="438" d="M363 419h-176v-86q36 15 75 15q42 0 76.5 -20t55 -59t20.5 -94q0 -88 -59 -140t-155 -52q-61 0 -104.5 20.5t-81.5 59.5l78 81q31 -25 52.5 -35t49.5 -10q68 0 68 76q0 69 -53 69q-26 0 -56 -15h-100v302h331z" />
<glyph unicode="&#x1be;" horiz-adv-x="466" d="M401.5 359.5q35.5 -49.5 35.5 -138.5q0 -111 -62.5 -174t-167.5 -63q-62 0 -112.5 22.5t-93.5 68.5l75 76q28 -28 54 -40.5t58 -12.5q43 0 67 31t24 93q0 67 -25.5 102.5t-83.5 51.5l-47 12v142h-63v91h63v121l154 16v-137h84v-91h-84v-92l26 -8q63 -21 98.5 -70.5z" />
<glyph unicode="&#x1bf;" horiz-adv-x="540" d="M431 524.5q38 -23.5 59.5 -68t21.5 -104.5q0 -85 -31 -145t-83 -102t-134 -87l-58 -32v-191l-154 -16v752h137l7 -60q64 77 150 77q47 0 85 -23.5zM324 221q29 55 29 129q0 87 -59 87q-24 0 -45 -12.5t-43 -36.5v-290l32 24q57 44 86 99z" />
<glyph unicode="&#x1c0;" horiz-adv-x="242" d="M187 756v-756h-132v742z" />
<glyph unicode="&#x1c1;" horiz-adv-x="433" d="M187 756v-756h-132v742zM379 756v-756h-132v742z" />
<glyph unicode="&#x1c2;" horiz-adv-x="303" d="M298 398h-80v-63h80v-88h-80v-247h-132v247h-81v88h81v63h-81v88h81v256l132 14v-270h80v-88z" />
<glyph unicode="&#x1c3;" horiz-adv-x="284" d="M208 756v-522h-132v508zM205 134q25 -26 25 -62q0 -37 -25 -63t-63 -26t-62.5 26t-24.5 63q0 36 25 62t62 26q38 0 63 -26z" />
<glyph unicode="&#x1c4;" horiz-adv-x="1062" d="M404.5 666q71.5 -27 115.5 -103t44 -213q0 -194 -86 -272t-228 -78h-195v693h182q96 0 167.5 -27zM215 577v-461h45q46 0 76 20t46.5 71.5t16.5 142.5t-17 141t-47.5 68t-75.5 18h-44zM1037 693v-121l-273 -444h279l-16 -128h-443v120l275 449h-249v124h427zM940 939 l53 -59l-128 -130h-93l-128 130l54 59l121 -83z" />
<glyph unicode="&#x1c5;" horiz-adv-x="1003" d="M404.5 666q71.5 -27 115.5 -103t44 -213q0 -194 -86 -272t-228 -78h-195v693h182q96 0 167.5 -27zM215 577v-461h45q46 0 76 20t46.5 71.5t16.5 142.5t-17 141t-47.5 68t-75.5 18h-44zM985 531v-109l-217 -305h222l-14 -117h-380v109l217 306h-199v116h371zM919 810 l53 -60l-128 -138h-93l-128 138l54 60l121 -92z" />
<glyph unicode="&#x1c6;" horiz-adv-x="963" d="M492 742v-742h-136l-7 59q-51 -76 -135 -76q-89 0 -136 74.5t-47 208.5q0 84 24.5 148t69 99t102.5 35q67 0 111 -49v259zM304 109.5q18 13.5 34 41.5v241q-16 22 -31.5 32.5t-36.5 10.5q-80 0 -80 -169q0 -95 19 -132.5t54 -37.5q23 0 41 13.5zM945 531v-109l-217 -305 h222l-14 -117h-380v109l217 306h-199v116h371zM879 810l53 -60l-128 -138h-93l-128 138l54 60l121 -92z" />
<glyph unicode="&#x1c7;" horiz-adv-x="732" d="M215 693v-566h241l-17 -127h-384v693h160zM680 105q0 -118 -56 -178t-153 -94l-42 113q39 17 58.5 38t26 50t6.5 77v582h160v-588z" />
<glyph unicode="&#x1c8;" horiz-adv-x="709" d="M215 693v-566h241l-17 -127h-384v693h160zM656 48q0 -77 -25 -128.5t-68.5 -83t-107.5 -57.5l-51 112q35 19 55 36t31.5 44t11.5 71v489h154v-483zM642.5 783q25.5 -25 25.5 -62q0 -38 -25.5 -63t-64.5 -25t-64 25t-25 63q0 37 25 62t64 25t64.5 -25z" />
<glyph unicode="&#x1c9;" horiz-adv-x="532" d="M84 21q-37 38 -37 106v615l154 16v-624q0 -29 24 -29q10 0 22 4l29 -107q-40 -19 -89 -19q-66 0 -103 38zM479 48q0 -77 -25 -128.5t-68.5 -83t-107.5 -57.5l-51 112q35 19 55 36t31.5 44t11.5 71v489h154v-483zM465.5 783q25.5 -25 25.5 -62q0 -38 -25.5 -63t-64.5 -25 t-64 25t-25 63q0 37 25 62t64 25t64.5 -25z" />
<glyph unicode="&#x1ca;" horiz-adv-x="889" d="M544 0h-200l-170 544q2 -12 2 -20q9 -72 14 -130.5t5 -135.5v-258h-140v693h198l173 -545q-22 130 -22 259v286h140v-693zM837 105q0 -118 -56 -178t-153 -94l-42 113q39 17 58.5 38t26 50t6.5 77v582h160v-588z" />
<glyph unicode="&#x1cb;" horiz-adv-x="858" d="M544 0h-200l-170 544q2 -12 2 -20q9 -72 14 -130.5t5 -135.5v-258h-140v693h198l173 -545q-22 130 -22 259v286h140v-693zM805 48q0 -77 -25 -128.5t-68.5 -83t-107.5 -57.5l-51 112q35 19 55 36t31.5 44t11.5 71v489h154v-483zM791.5 783q25.5 -25 25.5 -62 q0 -38 -25.5 -63t-64.5 -25t-64 25t-25 63q0 37 25 62t64 25t64.5 -25z" />
<glyph unicode="&#x1cc;" horiz-adv-x="783" d="M439.5 506.5q35.5 -41.5 35.5 -113.5v-393h-154v372q0 33 -9.5 46.5t-28.5 13.5q-20 0 -38.5 -16.5t-38.5 -48.5v-367h-154v531h135l11 -63q29 40 64 60t80 20q62 0 97.5 -41.5zM730 48q0 -77 -25 -128.5t-68.5 -83t-107.5 -57.5l-51 112q35 19 55 36t31.5 44t11.5 71 v489h154v-483zM716.5 783q25.5 -25 25.5 -62q0 -38 -25.5 -63t-64.5 -25t-64 25t-25 63q0 37 25 62t64 25t64.5 -25z" />
<glyph unicode="&#x1cd;" d="M389 0l-31 151h-176l-31 -151h-162l187 693h192l186 -693h-165zM206 266h128l-64 310zM393 939l53 -59l-128 -130h-93l-128 130l54 59l121 -83z" />
<glyph unicode="&#x1ce;" horiz-adv-x="497" d="M450 107q7 -13 24 -20l-32 -101q-46 4 -75 21t-45 53q-49 -77 -143 -77q-72 0 -114.5 45.5t-42.5 120.5q0 87 58.5 133t169.5 46h42v25q0 47 -17 65.5t-60 18.5q-49 0 -125 -27l-35 99q44 19 94 29t93 10q103 0 152 -46t49 -140v-215q0 -27 7 -40zM263.5 106 q17.5 13 28.5 37v99h-28q-47 0 -69 -19.5t-22 -60.5q0 -34 13.5 -51.5t38.5 -17.5q21 0 38.5 13zM367 810l53 -60l-128 -138h-93l-128 138l54 60l121 -92z" />
<glyph unicode="&#x1cf;" horiz-adv-x="269" d="M215 693v-693h-160v693h160zM255 939l53 -59l-128 -130h-93l-128 130l54 59l121 -83z" />
<glyph unicode="&#x1d0;" horiz-adv-x="259" d="M206 531v-531h-154v531h154zM250 810l53 -60l-128 -138h-93l-128 138l54 60l121 -92z" />
<glyph unicode="&#x1d1;" horiz-adv-x="630" d="M526 617.5q74 -92.5 74 -270.5q0 -176 -74.5 -270t-210.5 -94t-210.5 93t-74.5 271q0 175 74.5 269t210.5 94q137 0 211 -92.5zM225.5 536q-28.5 -57 -28.5 -189q0 -134 29 -190.5t89 -56.5q61 0 89.5 56.5t28.5 190.5q0 132 -28.5 189t-89.5 57t-89.5 -57zM436 939 l53 -59l-128 -130h-93l-128 130l54 59l121 -83z" />
<glyph unicode="&#x1d2;" horiz-adv-x="534" d="M442.5 475.5q63.5 -72.5 63.5 -210.5q0 -132 -64 -207t-175 -75q-112 0 -175 73t-63 210q0 133 63.5 207.5t174.5 74.5q112 0 175.5 -72.5zM207 395q-19 -39 -19 -129q0 -92 19 -131t60 -39t60.5 39.5t19.5 129.5q0 92 -19 130.5t-61 38.5q-41 0 -60 -39zM388 810l53 -60 l-128 -138h-93l-128 138l54 60l121 -92z" />
<glyph unicode="&#x1d3;" horiz-adv-x="587" d="M543 214q0 -66 -28 -118.5t-84 -82.5t-137 -30q-122 0 -185.5 63t-63.5 168v479h160v-473q0 -60 21 -88.5t68 -28.5t67.5 28.5t20.5 88.5v473h161v-479zM415 939l53 -59l-128 -130h-93l-128 130l54 59l121 -83z" />
<glyph unicode="&#x1d4;" horiz-adv-x="519" d="M466 0h-134l-7 64q-52 -81 -141 -81q-65 0 -100.5 43t-35.5 116v389h154v-377q0 -57 40 -57q39 0 70 58v376h154v-531zM379 810l53 -60l-128 -138h-93l-128 138l54 60l121 -92z" />
<glyph unicode="&#x1d5;" horiz-adv-x="587" d="M543 214q0 -66 -28 -118.5t-84 -82.5t-137 -30q-122 0 -185.5 63t-63.5 168v479h160v-473q0 -60 21 -88.5t68 -28.5t67.5 28.5t20.5 88.5v473h161v-479zM242 878q22 -22 22 -55t-22 -55.5t-55 -22.5q-32 0 -54.5 22.5t-22.5 55.5q0 32 22.5 54.5t54.5 22.5q33 0 55 -22z M454.5 878q22.5 -22 22.5 -55t-22 -55.5t-56 -22.5q-32 0 -54.5 22.5t-22.5 55.5q0 32 22.5 54.5t54.5 22.5q33 0 55.5 -22zM435 942h-280v105h280v-105z" />
<glyph unicode="&#x1d6;" horiz-adv-x="519" d="M466 0h-134l-7 64q-52 -81 -141 -81q-65 0 -100.5 43t-35.5 116v389h154v-377q0 -57 40 -57q39 0 70 58v376h154v-531zM207 736q22 -22 22 -55t-22 -55.5t-55 -22.5q-32 0 -54.5 22.5t-22.5 55.5q0 32 22.5 54.5t54.5 22.5q33 0 55 -22zM419.5 736q22.5 -22 22.5 -55 t-22 -55.5t-56 -22.5q-32 0 -54.5 22.5t-22.5 55.5q0 32 22.5 54.5t54.5 22.5q33 0 55.5 -22zM398 803h-280v105h280v-105z" />
<glyph unicode="&#x1d7;" horiz-adv-x="587" d="M543 214q0 -66 -28 -118.5t-84 -82.5t-137 -30q-122 0 -185.5 63t-63.5 168v479h160v-473q0 -60 21 -88.5t68 -28.5t67.5 28.5t20.5 88.5v473h161v-479zM361 1091l87 -79l-150 -143l-59 51zM236 881q22 -22 22 -55t-22 -55.5t-55 -22.5t-55 22.5t-22 55.5q0 32 22 54.5 t55 22.5t55 -22zM462 880.5q22 -22.5 22 -54.5q0 -33 -22 -55.5t-55 -22.5t-55.5 22.5t-22.5 55.5q0 32 22.5 54.5t55.5 22.5t55 -22.5z" />
<glyph unicode="&#x1d8;" horiz-adv-x="519" d="M466 0h-134l-7 64q-52 -81 -141 -81q-65 0 -100.5 43t-35.5 116v389h154v-377q0 -57 40 -57q39 0 70 58v376h154v-531zM325 946l87 -79l-150 -143l-59 51zM200 735q22 -22 22 -55t-22 -55.5t-55 -22.5t-55 22.5t-22 55.5q0 32 22 54.5t55 22.5t55 -22zM426 734.5 q22 -22.5 22 -54.5q0 -33 -22 -55.5t-55 -22.5t-55.5 22.5t-22.5 55.5q0 32 22.5 54.5t55.5 22.5t55 -22.5z" />
<glyph unicode="&#x1d9;" horiz-adv-x="587" d="M543 214q0 -66 -28 -118.5t-84 -82.5t-137 -30q-122 0 -185.5 63t-63.5 168v479h160v-473q0 -60 21 -88.5t68 -28.5t67.5 28.5t20.5 88.5v473h161v-479zM415 1092l53 -59l-128 -130h-93l-128 130l54 59l121 -83zM236 880.5q22 -22.5 22 -54.5q0 -33 -22 -55.5t-55 -22.5 t-55.5 22.5t-22.5 55.5q0 32 22.5 54.5t55.5 22.5t55 -22.5zM461 880.5q22 -22.5 22 -54.5q0 -33 -22 -55.5t-55 -22.5t-55 22.5t-22 55.5q0 32 22 54.5t55 22.5t55 -22.5z" />
<glyph unicode="&#x1da;" horiz-adv-x="519" d="M466 0h-134l-7 64q-52 -81 -141 -81q-65 0 -100.5 43t-35.5 116v389h154v-377q0 -57 40 -57q39 0 70 58v376h154v-531zM379 946l53 -59l-128 -130h-93l-128 130l54 59l121 -83zM200 735q22 -22 22 -55t-22 -55.5t-55 -22.5t-55 22.5t-22 55.5q0 32 22 54.5t55 22.5 t55 -22zM425 735q22 -22 22 -55t-22 -55.5t-55 -22.5q-32 0 -54.5 22.5t-22.5 55.5q0 32 22.5 54.5t54.5 22.5q33 0 55 -22z" />
<glyph unicode="&#x1db;" horiz-adv-x="587" d="M543 214q0 -66 -28 -118.5t-84 -82.5t-137 -30q-122 0 -185.5 63t-63.5 168v479h160v-473q0 -60 21 -88.5t68 -28.5t67.5 28.5t20.5 88.5v473h161v-479zM233 1091l123 -171l-60 -51l-150 143zM236 881q22 -22 22 -55t-22 -55.5t-55 -22.5q-32 0 -54.5 22.5t-22.5 55.5 q0 32 22.5 54.5t54.5 22.5q33 0 55 -22zM462 880.5q22 -22.5 22 -54.5q0 -33 -22 -55.5t-55 -22.5t-55.5 22.5t-22.5 55.5q0 32 22.5 54.5t55.5 22.5t55 -22.5z" />
<glyph unicode="&#x1dc;" horiz-adv-x="519" d="M466 0h-134l-7 64q-52 -81 -141 -81q-65 0 -100.5 43t-35.5 116v389h154v-377q0 -57 40 -57q39 0 70 58v376h154v-531zM194 946l123 -171l-60 -51l-150 143zM200 735q22 -22 22 -55t-22 -55.5t-55 -22.5q-32 0 -54.5 22.5t-22.5 55.5q0 32 22.5 54.5t54.5 22.5 q33 0 55 -22zM426 734.5q22 -22.5 22 -54.5q0 -33 -22 -55.5t-55 -22.5t-55.5 22.5t-22.5 55.5q0 32 22.5 54.5t55.5 22.5t55 -22.5z" />
<glyph unicode="&#x1dd;" horiz-adv-x="509" d="M422 474q58 -74 58 -208q0 -130 -60 -206.5t-171 -76.5q-105 0 -165 69.5t-60 202.5q0 32 3 56h306q-3 68 -26 97.5t-67 29.5q-33 0 -61.5 -9.5t-60.5 -32.5l-62 84q79 68 190 68q118 0 176 -74zM310 119.5q20 27.5 24 98.5h-167v-8q1 -118 83 -118q40 0 60 27.5z" />
<glyph unicode="&#x1de;" d="M389 0l-31 151h-176l-31 -151h-162l187 693h192l186 -693h-165zM206 266h128l-64 310zM220 878q22 -22 22 -55t-22 -55.5t-55 -22.5q-32 0 -54.5 22.5t-22.5 55.5q0 32 22.5 54.5t54.5 22.5q33 0 55 -22zM432.5 878q22.5 -22 22.5 -55t-22 -55.5t-56 -22.5 q-32 0 -54.5 22.5t-22.5 55.5q0 32 22.5 54.5t54.5 22.5q33 0 55.5 -22zM413 942h-280v105h280v-105z" />
<glyph unicode="&#x1df;" horiz-adv-x="497" d="M450 107q7 -13 24 -20l-32 -101q-46 4 -75 21t-45 53q-49 -77 -143 -77q-72 0 -114.5 45.5t-42.5 120.5q0 87 58.5 133t169.5 46h42v25q0 47 -17 65.5t-60 18.5q-49 0 -125 -27l-35 99q44 19 94 29t93 10q103 0 152 -46t49 -140v-215q0 -27 7 -40zM263.5 106 q17.5 13 28.5 37v99h-28q-47 0 -69 -19.5t-22 -60.5q0 -34 13.5 -51.5t38.5 -17.5q21 0 38.5 13zM195 736q22 -22 22 -55t-22 -55.5t-55 -22.5q-32 0 -54.5 22.5t-22.5 55.5q0 32 22.5 54.5t54.5 22.5q33 0 55 -22zM407.5 736q22.5 -22 22.5 -55t-22 -55.5t-56 -22.5 q-32 0 -54.5 22.5t-22.5 55.5q0 32 22.5 54.5t54.5 22.5q33 0 55.5 -22zM386 803h-280v105h280v-105z" />
<glyph unicode="&#x1e0;" d="M389 0l-31 151h-176l-31 -151h-162l187 693h192l186 -693h-165zM206 266h128l-64 310zM335.5 887q25.5 -25 25.5 -62q0 -38 -25.5 -63t-64.5 -25t-64 25t-25 63q0 37 25 62t64 25t64.5 -25zM412 942h-280v105h280v-105z" />
<glyph unicode="&#x1e1;" horiz-adv-x="497" d="M450 107q7 -13 24 -20l-32 -101q-46 4 -75 21t-45 53q-49 -77 -143 -77q-72 0 -114.5 45.5t-42.5 120.5q0 87 58.5 133t169.5 46h42v25q0 47 -17 65.5t-60 18.5q-49 0 -125 -27l-35 99q44 19 94 29t93 10q103 0 152 -46t49 -140v-215q0 -27 7 -40zM263.5 106 q17.5 13 28.5 37v99h-28q-47 0 -69 -19.5t-22 -60.5q0 -34 13.5 -51.5t38.5 -17.5q21 0 38.5 13zM309.5 745q25.5 -25 25.5 -62q0 -38 -25.5 -63t-64.5 -25t-64 25t-25 63q0 37 25 62t64 25t64.5 -25zM386 805h-280v105h280v-105z" />
<glyph unicode="&#x1e2;" horiz-adv-x="766" d="M533 116h209v-116h-343l-21 151h-185l-44 -151h-171l245 693h486l-17 -114h-237l29 -172h216v-113h-197zM227 267h134l-44 309zM578 783h-280v105h280v-105z" />
<glyph unicode="&#x1e3;" horiz-adv-x="776" d="M749 220h-295q6 -69 32 -96.5t73 -27.5q27 0 53.5 11t58.5 34l63 -84q-81 -74 -189 -74q-64 0 -112.5 23.5t-79.5 65.5q-62 -89 -168 -89q-75 0 -119 46t-44 120q0 85 60 130.5t174 45.5h42v26q0 48 -17 66.5t-60 18.5q-49 0 -125 -27l-34 100q94 39 183 39q54 0 89 -17 t57 -50q57 67 149 67q97 0 154.5 -71t57.5 -201q0 -32 -3 -56zM603 320q0 125 -73 125q-35 0 -54 -30t-23 -102h150v7zM313 158q-11 38 -12 79v1h-30q-46 0 -68 -19t-22 -60q0 -66 51 -66q45 0 81 65zM528 657h-280v105h280v-105z" />
<glyph unicode="&#x1e4;" horiz-adv-x="607" d="M610 176h-61v-121q-49 -34 -109 -53t-122 -19q-145 0 -216.5 91t-71.5 273q0 116 40 198t108.5 123.5t155.5 41.5q125 0 213 -85l-79 -83q-33 27 -61.5 39t-64.5 12q-146 0 -146 -246q0 -93 13 -146.5t39.5 -76.5t69.5 -23q46 0 92 23v52h-93v89h93v49h-92l-13 99h244 v-148h61v-89z" />
<glyph unicode="&#x1e5;" horiz-adv-x="497" d="M539 -87h-54q-15 -63 -79 -98.5t-171 -35.5q-132 0 -183 43t-51 127h138q0 -27 8 -42.5t30 -22.5t64 -7q48 0 74 8.5t36 27.5h-105v66h103q-19 30 -84 30h-57q-81 0 -118.5 25.5t-37.5 69.5q0 29 16 54t43 44q-46 27 -66.5 63t-20.5 89q0 90 59.5 142t159.5 51 q70 -1 117 15.5t104 49.5l36 -112q-46 -20 -137 -20q48 -22 70.5 -54.5t22.5 -83.5t-25 -91.5t-71.5 -63t-109.5 -22.5q-30 0 -54 6q-17 -11 -17 -32q0 -16 11.5 -24t42.5 -8h65q80 0 130 -35t60 -93h51v-66zM176 356q0 -46 17.5 -69t49.5 -23q33 0 50 22.5t17 71.5 q0 46 -16.5 67t-50.5 21q-67 0 -67 -90z" />
<glyph unicode="&#x1e6;" horiz-adv-x="590" d="M547 625l-78 -82q-34 27 -62.5 39t-64.5 12q-70 0 -108 -57.5t-38 -189.5q0 -95 13 -148.5t39 -75.5t69 -22q45 0 80 22v162h-77l-15 113h244v-343q-49 -34 -109 -53t-120 -19q-147 0 -218.5 90.5t-71.5 273.5q0 118 40 200t109 122.5t156 40.5q122 0 212 -85zM441 939 l53 -59l-128 -130h-93l-128 130l54 59l121 -83z" />
<glyph unicode="&#x1e7;" horiz-adv-x="497" d="M500 500q-46 -20 -137 -20q48 -22 70.5 -54.5t22.5 -83.5t-25 -91.5t-71.5 -63t-109.5 -22.5q-30 0 -54 6q-17 -11 -17 -32q0 -16 11.5 -25t42.5 -9h65q88 0 140 -42.5t52 -109.5q0 -81 -66 -127.5t-189 -46.5q-132 0 -183 43t-51 127h138q0 -37 20 -53t78 -16 q55 0 77 16.5t22 45.5q0 56 -71 56h-57q-80 0 -118 28.5t-38 75.5q0 29 16 55t43 45q-46 27 -66.5 63t-20.5 89q0 90 59.5 142t159.5 51q70 -1 117 15.5t104 49.5zM176 356q0 -46 17.5 -69t49.5 -23q33 0 50 22.5t17 71.5q0 46 -16.5 67t-50.5 21q-67 0 -67 -90zM371 810 l53 -60l-128 -138h-93l-128 138l54 60l121 -92z" />
<glyph unicode="&#x1e8;" horiz-adv-x="581" d="M215 693v-693h-160v693h160zM577 693l-194 -311l210 -382h-179l-194 370l194 323h163zM420 939l53 -59l-128 -130h-93l-128 130l54 59l121 -83z" />
<glyph unicode="&#x1e9;" horiz-adv-x="509" d="M206 758v-758h-154v742zM506 531l-142 -233l153 -298h-168l-138 290l144 241h151zM394 988l53 -59l-128 -130h-93l-128 130l54 59l121 -83z" />
<glyph unicode="&#x1ea;" horiz-adv-x="630" d="M553.5 120.5q-46.5 -88.5 -134.5 -120.5q-60 -25 -82.5 -50.5t-22.5 -52.5q0 -46 47 -46q19 0 54 7l-10 -95q-30 -8 -63 -8q-61 0 -99.5 31t-38.5 84q0 68 60 117q-113 16 -173.5 107.5t-60.5 252.5q0 175 74.5 269t210.5 94q137 0 211 -92.5t74 -270.5 q0 -138 -46.5 -226.5zM404.5 156.5q28.5 56.5 28.5 190.5q0 132 -28.5 189t-89.5 57t-89.5 -57t-28.5 -189q0 -134 29 -190.5t89 -56.5q61 0 89.5 56.5z" />
<glyph unicode="&#x1eb;" horiz-adv-x="534" d="M275.5 -52.5q-20.5 -24.5 -20.5 -50.5q0 -46 47 -46q19 0 54 7l-10 -95q-30 -8 -63 -8q-61 0 -99.5 31t-38.5 84q0 71 63 119q-85 17 -132 88t-47 189q0 133 63.5 207.5t174.5 74.5q112 0 175.5 -72.5t63.5 -210.5q0 -104 -40.5 -173.5t-113.5 -94.5q-56 -25 -76.5 -49.5 zM207 395q-19 -39 -19 -129q0 -92 19 -131t60 -39t60.5 39.5t19.5 129.5q0 92 -19 130.5t-61 38.5q-41 0 -60 -39z" />
<glyph unicode="&#x1ec;" horiz-adv-x="630" d="M455 888v-105h-280v105h280zM553.5 120.5q-46.5 -88.5 -134.5 -120.5q-60 -25 -82.5 -50.5t-22.5 -52.5q0 -46 47 -46q19 0 54 7l-10 -95q-30 -8 -63 -8q-61 0 -99.5 31t-38.5 84q0 68 60 117q-113 16 -173.5 107.5t-60.5 252.5q0 175 74.5 269t210.5 94q137 0 211 -92.5 t74 -270.5q0 -138 -46.5 -226.5zM404.5 156.5q28.5 56.5 28.5 190.5q0 132 -28.5 189t-89.5 57t-89.5 -57t-28.5 -189q0 -134 29 -190.5t89 -56.5q61 0 89.5 56.5z" />
<glyph unicode="&#x1ed;" horiz-adv-x="534" d="M407 762v-105h-280v105h280zM275.5 -52.5q-20.5 -24.5 -20.5 -50.5q0 -46 47 -46q19 0 54 7l-10 -95q-30 -8 -63 -8q-61 0 -99.5 31t-38.5 84q0 71 63 119q-85 17 -132 88t-47 189q0 133 63.5 207.5t174.5 74.5q112 0 175.5 -72.5t63.5 -210.5q0 -104 -40.5 -173.5 t-113.5 -94.5q-56 -25 -76.5 -49.5zM207 395q-19 -39 -19 -129q0 -92 19 -131t60 -39t60.5 39.5t19.5 129.5q0 92 -19 130.5t-61 38.5q-41 0 -60 -39z" />
<glyph unicode="&#x1ee;" horiz-adv-x="495" d="M425.5 347q50.5 -51 50.5 -142q0 -64 -30 -114t-87 -79t-136 -29q-75 0 -128.5 26t-92.5 76l83 76q31 -31 60 -45t67 -14q47 0 73 28.5t26 80.5t-27.5 75t-82.5 23h-87v90l161 178h-236v116h404v-113l-164 -178q96 -4 146.5 -55zM362 939l53 -59l-128 -130h-93l-128 130 l54 59l121 -83z" />
<glyph unicode="&#x1ef;" horiz-adv-x="463" d="M449 9q0 -66 -29.5 -118.5t-85 -82t-131.5 -29.5q-140 0 -217 101l81 77q33 -33 61.5 -47t64.5 -14q47 0 72.5 30t25.5 90q0 56 -27 80.5t-84 24.5h-82v90l154 205h-229v115h396v-106l-166 -214q196 -14 196 -202zM342 810l53 -60l-128 -138h-93l-128 138l54 60l121 -92z " />
<glyph unicode="&#x1f0;" horiz-adv-x="259" d="M206 48q0 -77 -25 -128.5t-68.5 -83t-107.5 -57.5l-51 112q35 19 55 36t31.5 44t11.5 71v489h154v-483zM250 810l53 -60l-128 -138h-93l-128 138l54 60l121 -92z" />
<glyph unicode="&#x1f1;" horiz-adv-x="1062" d="M404.5 666q71.5 -27 115.5 -103t44 -213q0 -194 -86 -272t-228 -78h-195v693h182q96 0 167.5 -27zM215 577v-461h45q46 0 76 20t46.5 71.5t16.5 142.5t-17 141t-47.5 68t-75.5 18h-44zM1037 693v-121l-273 -444h279l-16 -128h-443v120l275 449h-249v124h427z" />
<glyph unicode="&#x1f2;" horiz-adv-x="1003" d="M404.5 666q71.5 -27 115.5 -103t44 -213q0 -194 -86 -272t-228 -78h-195v693h182q96 0 167.5 -27zM215 577v-461h45q46 0 76 20t46.5 71.5t16.5 142.5t-17 141t-47.5 68t-75.5 18h-44zM985 531v-109l-217 -305h222l-14 -117h-380v109l217 306h-199v116h371z" />
<glyph unicode="&#x1f3;" horiz-adv-x="963" d="M492 742v-742h-136l-7 59q-51 -76 -135 -76q-89 0 -136 74.5t-47 208.5q0 84 24.5 148t69 99t102.5 35q67 0 111 -49v259zM304 109.5q18 13.5 34 41.5v241q-16 22 -31.5 32.5t-36.5 10.5q-80 0 -80 -169q0 -95 19 -132.5t54 -37.5q23 0 41 13.5zM945 531v-109l-217 -305 h222l-14 -117h-380v109l217 306h-199v116h371z" />
<glyph unicode="&#x1f4;" horiz-adv-x="590" d="M547 625l-78 -82q-34 27 -62.5 39t-64.5 12q-70 0 -108 -57.5t-38 -189.5q0 -95 13 -148.5t39 -75.5t69 -22q45 0 80 22v162h-77l-15 113h244v-343q-49 -34 -109 -53t-120 -19q-147 0 -218.5 90.5t-71.5 273.5q0 118 40 200t109 122.5t156 40.5q122 0 212 -85zM391 950 l58 -113l-219 -86l-39 77z" />
<glyph unicode="&#x1f5;" horiz-adv-x="497" d="M500 500q-46 -20 -137 -20q48 -22 70.5 -54.5t22.5 -83.5t-25 -91.5t-71.5 -63t-109.5 -22.5q-30 0 -54 6q-17 -11 -17 -32q0 -16 11.5 -25t42.5 -9h65q88 0 140 -42.5t52 -109.5q0 -81 -66 -127.5t-189 -46.5q-132 0 -183 43t-51 127h138q0 -37 20 -53t78 -16 q55 0 77 16.5t22 45.5q0 56 -71 56h-57q-80 0 -118 28.5t-38 75.5q0 29 16 55t43 45q-46 27 -66.5 63t-20.5 89q0 90 59.5 142t159.5 51q70 -1 117 15.5t104 49.5zM176 356q0 -46 17.5 -69t49.5 -23q33 0 50 22.5t17 71.5q0 46 -16.5 67t-50.5 21q-67 0 -67 -90zM313 830 l60 -113l-217 -94l-42 76z" />
<glyph unicode="&#x1f6;" horiz-adv-x="859" d="M816 389.5q7 -65.5 7 -137.5q0 -95 -33.5 -155.5t-87 -87t-117.5 -26.5q-87 0 -142 47.5t-55 138.5v129h-173v-298h-160v693h160v-270h173v270h160v-526q0 -37 12 -53.5t36 -16.5q73 0 73 164q0 117 -23 270h151q12 -76 19 -141.5z" />
<glyph unicode="&#x1f7;" horiz-adv-x="544" d="M443 686.5q40 -23.5 63 -67.5t23 -102q0 -77 -32 -130.5t-85 -88.5t-132 -68l-65 -27v-203h-160v693h160v-40q57 57 140 57q48 0 88 -23.5zM336 405q29 42 29 103q0 44 -18 65t-50 21q-47 0 -82 -37v-242l31 15q61 33 90 75z" />
<glyph unicode="&#x1f8;" horiz-adv-x="599" d="M544 0h-200l-170 544q2 -12 2 -20q9 -72 14 -130.5t5 -135.5v-258h-140v693h198l173 -545q-22 130 -22 259v286h140v-693zM229 949l200 -122l-39 -76l-219 85z" />
<glyph unicode="&#x1f9;" horiz-adv-x="524" d="M439.5 506.5q35.5 -41.5 35.5 -113.5v-393h-154v372q0 33 -9.5 46.5t-28.5 13.5q-20 0 -38.5 -16.5t-38.5 -48.5v-367h-154v531h135l11 -63q29 40 64 60t80 20q62 0 97.5 -41.5zM205 830l199 -131l-42 -76l-217 94z" />
<glyph unicode="&#x1fa;" d="M389 0l-31 151h-176l-31 -151h-162l187 693h192l186 -693h-165zM206 266h128l-64 310zM366 943.5q35 -36.5 35 -92.5t-35 -93t-94 -37t-94.5 37t-35.5 93t35.5 92.5t94.5 36.5t94 -36.5zM232 851q0 -52 40 -52q39 0 39 52q0 51 -39 51q-40 0 -40 -51zM342 1185l58 -113 l-219 -86l-39 77z" />
<glyph unicode="&#x1fb;" horiz-adv-x="497" d="M375 929l-219 -86l-39 77l200 122zM151.5 614q-35.5 37 -35.5 93t35.5 92.5t94.5 36.5t94 -36.5t35 -92.5t-35 -93t-94 -37t-94.5 37zM206 707q0 -52 40 -52q39 0 39 52q0 51 -39 51q-40 0 -40 -51zM450 107q7 -13 24 -20l-32 -101q-46 4 -75 21t-45 53q-49 -77 -143 -77 q-72 0 -114.5 45.5t-42.5 120.5q0 87 58.5 133t169.5 46h42v25q0 47 -17 65.5t-60 18.5q-49 0 -125 -27l-35 99q44 19 94 29t93 10q103 0 152 -46t49 -140v-215q0 -27 7 -40zM263.5 106q17.5 13 28.5 37v99h-28q-47 0 -69 -19.5t-22 -60.5q0 -34 13.5 -51.5t38.5 -17.5 q21 0 38.5 13z" />
<glyph unicode="&#x1fc;" horiz-adv-x="766" d="M533 116h209v-116h-343l-21 151h-185l-44 -151h-171l245 693h486l-17 -114h-237l29 -172h216v-113h-197zM227 267h134l-44 309zM509 950l58 -113l-219 -86l-39 77z" />
<glyph unicode="&#x1fd;" horiz-adv-x="776" d="M749 220h-295q6 -69 32 -96.5t73 -27.5q27 0 53.5 11t58.5 34l63 -84q-81 -74 -189 -74q-64 0 -112.5 23.5t-79.5 65.5q-62 -89 -168 -89q-75 0 -119 46t-44 120q0 85 60 130.5t174 45.5h42v26q0 48 -17 66.5t-60 18.5q-49 0 -125 -27l-34 100q94 39 183 39q54 0 89 -17 t57 -50q57 67 149 67q97 0 154.5 -71t57.5 -201q0 -32 -3 -56zM603 320q0 125 -73 125q-35 0 -54 -30t-23 -102h150v7zM313 158q-11 38 -12 79v1h-30q-46 0 -68 -19t-22 -60q0 -66 51 -66q45 0 81 65zM451 830l60 -113l-217 -94l-42 76z" />
<glyph unicode="&#x1fe;" horiz-adv-x="630" d="M566.5 547q33.5 -81 33.5 -200q0 -175 -74.5 -269.5t-210.5 -94.5q-15 0 -39 2l-33 -119l-118 32l36 126q-64 42 -97.5 123t-33.5 200q0 175 74.5 269t210.5 94q15 0 39 -2l33 119l119 -32l-37 -126q64 -41 97.5 -122zM221.5 537.5q-29.5 -56.5 -29.5 -190.5 q0 -148 32 -204l115 449q-14 2 -24 2q-64 0 -93.5 -56.5zM385.5 123q26.5 24 39 78t13.5 146q0 145 -32 200l-115 -447q8 -1 24 -1q44 0 70.5 24zM385 983l58 -113l-219 -86l-39 77z" />
<glyph unicode="&#x1ff;" horiz-adv-x="534" d="M479 414.5q27 -61.5 27 -149.5q0 -132 -64 -207t-175 -75q-17 0 -26 1l-33 -118l-111 31l36 124q-50 34 -77 96t-27 149q0 133 63.5 207.5t174.5 74.5q19 0 28 -1l35 119l111 -32l-39 -124q50 -34 77 -95.5zM194.5 396.5q-23.5 -39.5 -23.5 -130.5q0 -100 22 -138l86 308 h-12q-49 0 -72.5 -39.5zM340 134q24 40 24 131q0 98 -22 136l-86 -307h11q49 0 73 40zM330 830l60 -113l-217 -94l-42 76z" />
<glyph unicode="&#x200;" d="M389 0l-31 151h-176l-31 -151h-162l187 693h192l186 -693h-165zM206 266h128l-64 310zM151 983l89 -195l-76 -36l-112 180zM313 983l81 -195l-77 -32l-104 179z" />
<glyph unicode="&#x201;" horiz-adv-x="497" d="M450 107q7 -13 24 -20l-32 -101q-46 4 -75 21t-45 53q-49 -77 -143 -77q-72 0 -114.5 45.5t-42.5 120.5q0 87 58.5 133t169.5 46h42v25q0 47 -17 65.5t-60 18.5q-49 0 -125 -27l-35 99q44 19 94 29t93 10q103 0 152 -46t49 -140v-215q0 -27 7 -40zM263.5 106 q17.5 13 28.5 37v99h-28q-47 0 -69 -19.5t-22 -60.5q0 -34 13.5 -51.5t38.5 -17.5q21 0 38.5 13zM136 857l89 -195l-76 -36l-112 180zM298 857l81 -195l-77 -32l-104 179z" />
<glyph unicode="&#x202;" d="M389 0l-31 151h-176l-31 -151h-162l187 693h192l186 -693h-165zM206 266h128l-64 310zM384 903.5q41 -46.5 46 -123.5l-83 -15q-8 38 -27 58.5t-49 20.5q-57 0 -75 -79l-83 15q5 77 45.5 123.5t112.5 46.5t113 -46.5z" />
<glyph unicode="&#x203;" horiz-adv-x="497" d="M450 107q7 -13 24 -20l-32 -101q-46 4 -75 21t-45 53q-49 -77 -143 -77q-72 0 -114.5 45.5t-42.5 120.5q0 87 58.5 133t169.5 46h42v25q0 47 -17 65.5t-60 18.5q-49 0 -125 -27l-35 99q44 19 94 29t93 10q103 0 152 -46t49 -140v-215q0 -27 7 -40zM263.5 106 q17.5 13 28.5 37v99h-28q-47 0 -69 -19.5t-22 -60.5q0 -34 13.5 -51.5t38.5 -17.5q21 0 38.5 13zM358 741.5q41 -46.5 46 -123.5l-83 -15q-8 38 -27 58.5t-49 20.5q-57 0 -75 -79l-83 15q5 77 45.5 123.5t112.5 46.5t113 -46.5z" />
<glyph unicode="&#x204;" horiz-adv-x="474" d="M447 693l-17 -114h-215v-171h188v-112h-188v-180h230v-116h-390v693h392zM131 983l89 -195l-76 -36l-112 180zM293 983l81 -195l-77 -32l-104 179z" />
<glyph unicode="&#x205;" horiz-adv-x="507" d="M480 220h-296q6 -70 31 -97t71 -27q30 0 57 11t59 34l63 -85q-82 -73 -191 -73q-120 0 -182.5 74.5t-62.5 205.5q0 128 60 206.5t169 78.5q105 0 165 -70.5t60 -201.5q0 -32 -3 -56zM332 320q0 63 -16.5 94.5t-55.5 31.5q-35 0 -54 -29.5t-23 -103.5h149v7zM150 857 l89 -195l-76 -36l-112 180zM312 857l81 -195l-77 -32l-104 179z" />
<glyph unicode="&#x206;" horiz-adv-x="474" d="M447 693l-17 -114h-215v-171h188v-112h-188v-180h230v-116h-390v693h392zM364 903.5q41 -46.5 46 -123.5l-83 -15q-8 38 -27 58.5t-49 20.5q-57 0 -75 -79l-83 15q5 77 45.5 123.5t112.5 46.5t113 -46.5z" />
<glyph unicode="&#x207;" horiz-adv-x="507" d="M480 220h-296q6 -70 31 -97t71 -27q30 0 57 11t59 34l63 -85q-82 -73 -191 -73q-120 0 -182.5 74.5t-62.5 205.5q0 128 60 206.5t169 78.5q105 0 165 -70.5t60 -201.5q0 -32 -3 -56zM332 320q0 63 -16.5 94.5t-55.5 31.5q-35 0 -54 -29.5t-23 -103.5h149v7zM372 741.5 q41 -46.5 46 -123.5l-83 -15q-8 38 -27 58.5t-49 20.5q-57 0 -75 -79l-83 15q5 77 45.5 123.5t112.5 46.5t113 -46.5z" />
<glyph unicode="&#x208;" horiz-adv-x="269" d="M215 693v-693h-160v693h160zM13 983l89 -195l-76 -36l-112 180zM175 983l81 -195l-77 -32l-104 179z" />
<glyph unicode="&#x209;" horiz-adv-x="259" d="M206 531v-531h-154v531h154zM19 857l89 -195l-76 -36l-112 180zM181 857l81 -195l-77 -32l-104 179z" />
<glyph unicode="&#x20a;" horiz-adv-x="269" d="M215 693v-693h-160v693h160zM246 903.5q41 -46.5 46 -123.5l-83 -15q-8 38 -27 58.5t-49 20.5q-57 0 -75 -79l-83 15q5 77 45.5 123.5t112.5 46.5t113 -46.5z" />
<glyph unicode="&#x20b;" horiz-adv-x="259" d="M206 531v-531h-154v531h154zM241 741.5q41 -46.5 46 -123.5l-83 -15q-8 38 -27 58.5t-49 20.5q-57 0 -75 -79l-83 15q5 77 45.5 123.5t112.5 46.5t113 -46.5z" />
<glyph unicode="&#x20c;" horiz-adv-x="630" d="M526 617.5q74 -92.5 74 -270.5q0 -176 -74.5 -270t-210.5 -94t-210.5 93t-74.5 271q0 175 74.5 269t210.5 94q137 0 211 -92.5zM225.5 536q-28.5 -57 -28.5 -189q0 -134 29 -190.5t89 -56.5q61 0 89.5 56.5t28.5 190.5q0 132 -28.5 189t-89.5 57t-89.5 -57zM194 983 l89 -195l-76 -36l-112 180zM356 983l81 -195l-77 -32l-104 179z" />
<glyph unicode="&#x20d;" horiz-adv-x="534" d="M442.5 475.5q63.5 -72.5 63.5 -210.5q0 -132 -64 -207t-175 -75q-112 0 -175 73t-63 210q0 133 63.5 207.5t174.5 74.5q112 0 175.5 -72.5zM207 395q-19 -39 -19 -129q0 -92 19 -131t60 -39t60.5 39.5t19.5 129.5q0 92 -19 130.5t-61 38.5q-41 0 -60 -39zM157 857 l89 -195l-76 -36l-112 180zM319 857l81 -195l-77 -32l-104 179z" />
<glyph unicode="&#x20e;" horiz-adv-x="630" d="M526 617.5q74 -92.5 74 -270.5q0 -176 -74.5 -270t-210.5 -94t-210.5 93t-74.5 271q0 175 74.5 269t210.5 94q137 0 211 -92.5zM225.5 536q-28.5 -57 -28.5 -189q0 -134 29 -190.5t89 -56.5q61 0 89.5 56.5t28.5 190.5q0 132 -28.5 189t-89.5 57t-89.5 -57zM427 903.5 q41 -46.5 46 -123.5l-83 -15q-8 38 -27 58.5t-49 20.5q-57 0 -75 -79l-83 15q5 77 45.5 123.5t112.5 46.5t113 -46.5z" />
<glyph unicode="&#x20f;" horiz-adv-x="534" d="M442.5 475.5q63.5 -72.5 63.5 -210.5q0 -132 -64 -207t-175 -75q-112 0 -175 73t-63 210q0 133 63.5 207.5t174.5 74.5q112 0 175.5 -72.5zM207 395q-19 -39 -19 -129q0 -92 19 -131t60 -39t60.5 39.5t19.5 129.5q0 92 -19 130.5t-61 38.5q-41 0 -60 -39zM379 741.5 q41 -46.5 46 -123.5l-83 -15q-8 38 -27 58.5t-49 20.5q-57 0 -75 -79l-83 15q5 77 45.5 123.5t112.5 46.5t113 -46.5z" />
<glyph unicode="&#x210;" horiz-adv-x="562" d="M267 266h-52v-266h-160v693h203q136 0 203 -52.5t67 -157.5q0 -133 -117 -187l157 -296h-175zM215 377h49q52 0 76 25.5t24 80.5q0 50 -26 73.5t-82 23.5h-41v-203zM154 983l89 -195l-76 -36l-112 180zM316 983l81 -195l-77 -32l-104 179z" />
<glyph unicode="&#x211;" horiz-adv-x="366" d="M370 538l-25 -148q-21 6 -42 6q-41 0 -63 -31.5t-34 -93.5v-271h-154v531h135l12 -93q18 52 50 80t75 28q26 0 46 -8zM102 857l89 -195l-76 -36l-112 180zM264 857l81 -195l-77 -32l-104 179z" />
<glyph unicode="&#x212;" horiz-adv-x="562" d="M267 266h-52v-266h-160v693h203q136 0 203 -52.5t67 -157.5q0 -133 -117 -187l157 -296h-175zM215 377h49q52 0 76 25.5t24 80.5q0 50 -26 73.5t-82 23.5h-41v-203zM387 903.5q41 -46.5 46 -123.5l-83 -15q-8 38 -27 58.5t-49 20.5q-57 0 -75 -79l-83 15q5 77 45.5 123.5 t112.5 46.5t113 -46.5z" />
<glyph unicode="&#x213;" horiz-adv-x="366" d="M370 538l-25 -148q-21 6 -42 6q-41 0 -63 -31.5t-34 -93.5v-271h-154v531h135l12 -93q18 52 50 80t75 28q26 0 46 -8zM324 741.5q41 -46.5 46 -123.5l-83 -15q-8 38 -27 58.5t-49 20.5q-57 0 -75 -79l-83 15q5 77 45.5 123.5t112.5 46.5t113 -46.5z" />
<glyph unicode="&#x214;" horiz-adv-x="587" d="M543 214q0 -66 -28 -118.5t-84 -82.5t-137 -30q-122 0 -185.5 63t-63.5 168v479h160v-473q0 -60 21 -88.5t68 -28.5t67.5 28.5t20.5 88.5v473h161v-479zM173 983l89 -195l-76 -36l-112 180zM335 983l81 -195l-77 -32l-104 179z" />
<glyph unicode="&#x215;" horiz-adv-x="519" d="M466 0h-134l-7 64q-52 -81 -141 -81q-65 0 -100.5 43t-35.5 116v389h154v-377q0 -57 40 -57q39 0 70 58v376h154v-531zM148 857l89 -195l-76 -36l-112 180zM310 857l81 -195l-77 -32l-104 179z" />
<glyph unicode="&#x216;" horiz-adv-x="587" d="M543 214q0 -66 -28 -118.5t-84 -82.5t-137 -30q-122 0 -185.5 63t-63.5 168v479h160v-473q0 -60 21 -88.5t68 -28.5t67.5 28.5t20.5 88.5v473h161v-479zM406 903.5q41 -46.5 46 -123.5l-83 -15q-8 38 -27 58.5t-49 20.5q-57 0 -75 -79l-83 15q5 77 45.5 123.5t112.5 46.5 t113 -46.5z" />
<glyph unicode="&#x217;" horiz-adv-x="519" d="M466 0h-134l-7 64q-52 -81 -141 -81q-65 0 -100.5 43t-35.5 116v389h154v-377q0 -57 40 -57q39 0 70 58v376h154v-531zM370 741.5q41 -46.5 46 -123.5l-83 -15q-8 38 -27 58.5t-49 20.5q-57 0 -75 -79l-83 15q5 77 45.5 123.5t112.5 46.5t113 -46.5z" />
<glyph unicode="&#x218;" horiz-adv-x="519" d="M385.5 687.5q53.5 -22.5 97.5 -66.5l-73 -84q-65 56 -133 56q-38 0 -60 -19t-22 -52q0 -22 10 -37t35 -29t74 -32q64 -24 103.5 -51.5t60.5 -68.5t21 -102q0 -64 -30.5 -113.5t-88 -77.5t-134.5 -28q-145 0 -241 98l78 87q37 -32 74.5 -49t79.5 -17q46 0 71 24t25 64 q0 38 -23 61t-87 46q-104 39 -148 88t-44 125q0 59 30 104.5t82.5 70.5t118.5 25q70 0 123.5 -22.5zM311 -89.5q21 -21.5 21 -54.5q0 -19 -5 -36.5t-19 -47.5l-42 -95h-76l26 115q-34 24 -34 64q0 31 21.5 53.5t53.5 22.5q33 0 54 -21.5z" />
<glyph unicode="&#x219;" horiz-adv-x="438" d="M324 531q46 -17 81 -48l-56 -84q-60 39 -113 39q-28 0 -43 -11.5t-15 -31.5q0 -15 7.5 -25.5t28.5 -21t63 -25.5q74 -25 109.5 -63t35.5 -103q0 -80 -61 -127t-156 -47q-61 0 -113.5 21t-89.5 57l73 82q62 -50 124 -50q31 0 48.5 13.5t17.5 37.5q0 19 -7.5 31t-28 23 t-63.5 26q-73 25 -106.5 63.5t-33.5 97.5q0 46 24 83t69 58.5t106 21.5q53 0 99 -17zM273 -89.5q21 -21.5 21 -54.5q0 -19 -5 -36.5t-19 -47.5l-42 -95h-76l26 115q-34 24 -34 64q0 31 21.5 53.5t53.5 22.5q33 0 54 -21.5z" />
<glyph unicode="&#x21a;" horiz-adv-x="490" d="M491 693l-17 -122h-149v-571h-160v571h-158v122h484zM299 -89.5q21 -21.5 21 -54.5q0 -19 -5 -36.5t-19 -47.5l-42 -95h-76l26 115q-34 24 -34 64q0 31 21.5 53.5t53.5 22.5q33 0 54 -21.5z" />
<glyph unicode="&#x21b;" horiz-adv-x="352" d="M362 25q-27 -20 -62.5 -31t-71.5 -11q-81 0 -122 46t-41 129v266h-64v107h64v115l154 18v-133h109l-16 -107h-93v-264q0 -55 42 -55q23 0 50 15zM265 -89.5q21 -21.5 21 -54.5q0 -19 -5 -36.5t-19 -47.5l-42 -95h-76l26 115q-34 24 -34 64q0 31 21.5 53.5t53.5 22.5 q33 0 54 -21.5z" />
<glyph unicode="&#x21c;" horiz-adv-x="471" d="M329.5 686q49.5 -24 76 -66.5t26.5 -96.5q0 -135 -148 -165q82 -9 124.5 -48.5t42.5 -114.5q0 -106 -94 -186.5t-294 -121.5l-13 119q92 27 143 56t71 62t20 78q0 48 -27 72t-83 24h-63l18 115h48q45 0 68.5 23.5t23.5 69.5q0 41 -19 64.5t-59 23.5q-56 0 -123 -55 l-72 80q88 91 217 91q67 0 116.5 -24z" />
<glyph unicode="&#x21d;" horiz-adv-x="437" d="M331 508q54 -40 54 -111q0 -49 -27.5 -79.5t-84.5 -44.5q135 -9 135 -117q0 -88 -92 -156.5t-263 -105.5l-15 101q113 39 162 76t50 88q0 28 -15.5 41t-46.5 13h-80l9 100h43q70 0 70 67q0 61 -60 61q-27 0 -49.5 -8t-50.5 -25l-69 78q80 62 192 62q84 0 138 -40z" />
<glyph unicode="&#x21e;" horiz-adv-x="602" d="M388 0v298h-173v-298h-160v693h160v-270h173v270h160v-693h-160zM423 939l53 -59l-128 -130h-93l-128 130l54 59l121 -83z" />
<glyph unicode="&#x21f;" horiz-adv-x="524" d="M439.5 506.5q35.5 -41.5 35.5 -113.5v-393h-154v372q0 33 -10 46.5t-28 13.5q-20 0 -38.5 -16.5t-38.5 -48.5v-367h-154v742l154 16v-285q28 38 61 56.5t75 18.5q62 0 97.5 -41.5zM382 988l53 -59l-128 -130h-93l-128 130l54 59l121 -83z" />
<glyph unicode="&#x220;" horiz-adv-x="591" d="M500.5 661q41.5 -49 41.5 -130v-741h-161v715q0 45 -13.5 65.5t-44.5 20.5t-55 -16t-53 -49v-526h-160v693h140l11 -63q39 41 80 60.5t93 19.5q80 0 121.5 -49z" />
<glyph unicode="&#x221;" horiz-adv-x="718" d="M694 212.5q31 -30.5 31 -83.5q0 -72 -49 -109t-127 -37q-22 0 -43 3l-29 -70l-72 30l27 62q-45 24 -69 66q-57 -91 -149 -91q-89 0 -136 74.5t-47 208.5q0 84 24.5 148t69.5 99t104 35q65 0 109 -49v259l154 -16v-564q0 -15 2 -33q23 52 51.5 75t70.5 23q47 0 78 -30.5z M339 153q-1 10 -1 29v210q-16 22 -31.5 32.5t-35.5 10.5q-81 0 -81 -169q0 -95 19 -132.5t54 -37.5q44 0 76 57zM620 134q0 26 -21 26q-14 0 -24.5 -13.5t-25.5 -51.5q7 -1 22 -1q49 0 49 40z" />
<glyph unicode="&#x222;" horiz-adv-x="594" d="M533 329.5q31 -45.5 31 -112.5q0 -64 -32.5 -117.5t-93 -85t-141.5 -31.5t-141.5 30.5t-93 83.5t-32.5 120q0 65 31 111t89 69q-84 45 -84 137v159h160v-169q0 -36 16 -56.5t55 -20.5q71 0 71 77v169h160v-159q0 -44 -22 -78.5t-63 -56.5q59 -24 90 -69.5zM372.5 130 q24.5 29 24.5 89q0 56 -25.5 85.5t-74.5 29.5t-74.5 -29.5t-25.5 -85.5q0 -118 100 -118q51 0 75.5 29z" />
<glyph unicode="&#x223;" horiz-adv-x="529" d="M500 220q0 -69 -27.5 -122.5t-80.5 -84t-128 -30.5q-112 0 -173.5 64.5t-61.5 171.5q0 145 107 195q-75 40 -75 132v196h152v-221q0 -64 52 -64q27 0 39.5 16t12.5 48v221h151v-196q0 -43 -19.5 -76t-57.5 -54q109 -48 109 -196zM325 126q18 29 18 99q0 69 -18.5 100 t-60.5 31q-41 0 -59.5 -31t-18.5 -100t19 -98.5t59 -29.5q43 0 61 29z" />
<glyph unicode="&#x224;" horiz-adv-x="486" d="M467 572l-273 -444h272v-169q0 -89 -50.5 -134.5t-136.5 -45.5q-78 0 -135 42l53 93q18 -10 31.5 -14.5t33.5 -4.5q51 0 51 55v50h-299v120l275 449h-249v124h427v-121z" />
<glyph unicode="&#x225;" horiz-adv-x="413" d="M400 422l-217 -305h214v-161q0 -86 -50 -131.5t-133 -45.5q-79 0 -134 42l53 89q18 -10 32 -14.5t34 -4.5q52 0 52 55v54h-240v109l217 306h-199v116h371v-109z" />
<glyph unicode="&#x226;" d="M389 0l-31 151h-176l-31 -151h-162l187 693h192l186 -693h-165zM206 266h128l-64 310zM335.5 909q25.5 -25 25.5 -62q0 -38 -25.5 -63t-64.5 -25t-64 25t-25 63q0 37 25 62t64 25t64.5 -25z" />
<glyph unicode="&#x227;" horiz-adv-x="497" d="M450 107q7 -13 24 -20l-32 -101q-46 4 -75 21t-45 53q-49 -77 -143 -77q-72 0 -114.5 45.5t-42.5 120.5q0 87 58.5 133t169.5 46h42v25q0 47 -17 65.5t-60 18.5q-49 0 -125 -27l-35 99q44 19 94 29t93 10q103 0 152 -46t49 -140v-215q0 -27 7 -40zM263.5 106 q17.5 13 28.5 37v99h-28q-47 0 -69 -19.5t-22 -60.5q0 -34 13.5 -51.5t38.5 -17.5q21 0 38.5 13zM309.5 783q25.5 -25 25.5 -62q0 -38 -25.5 -63t-64.5 -25t-64 25t-25 63q0 37 25 62t64 25t64.5 -25z" />
<glyph unicode="&#x228;" horiz-adv-x="474" d="M215 116h230v-116h-156v-51q47 -6 71 -30.5t24 -65.5q0 -51 -37 -82.5t-101 -31.5q-61 0 -105 30l35 69q28 -15 58 -15q41 0 41 31q0 18 -20.5 26.5t-63.5 8.5l13 111h-149v693h392l-17 -114h-215v-171h188v-112h-188v-180z" />
<glyph unicode="&#x229;" horiz-adv-x="507" d="M480 220h-296q6 -70 31 -97t71 -27q30 0 57 11t59 34l63 -85q-67 -60 -153 -71v-36q47 -6 71 -30.5t24 -65.5q0 -51 -37 -82.5t-101 -31.5q-61 0 -105 30l35 69q28 -15 58 -15q41 0 41 31q0 18 -20.5 26.5t-63.5 8.5l12 98q-97 15 -147 87.5t-50 188.5q0 128 60 206.5 t169 78.5q105 0 165 -70.5t60 -201.5q0 -32 -3 -56zM332 320q0 63 -16.5 94.5t-55.5 31.5q-35 0 -54 -29.5t-23 -103.5h149v7z" />
<glyph unicode="&#x22a;" horiz-adv-x="630" d="M526 617.5q74 -92.5 74 -270.5q0 -176 -74.5 -270t-210.5 -94t-210.5 93t-74.5 271q0 175 74.5 269t210.5 94q137 0 211 -92.5zM225.5 536q-28.5 -57 -28.5 -189q0 -134 29 -190.5t89 -56.5q61 0 89.5 56.5t28.5 190.5q0 132 -28.5 189t-89.5 57t-89.5 -57zM263 878 q22 -22 22 -55t-22 -55.5t-55 -22.5q-32 0 -54.5 22.5t-22.5 55.5q0 32 22.5 54.5t54.5 22.5q33 0 55 -22zM475.5 878q22.5 -22 22.5 -55t-22 -55.5t-56 -22.5q-32 0 -54.5 22.5t-22.5 55.5q0 32 22.5 54.5t54.5 22.5q33 0 55.5 -22zM456 942h-280v105h280v-105z" />
<glyph unicode="&#x22b;" horiz-adv-x="534" d="M442.5 475.5q63.5 -72.5 63.5 -210.5q0 -132 -64 -207t-175 -75q-112 0 -175 73t-63 210q0 133 63.5 207.5t174.5 74.5q112 0 175.5 -72.5zM207 395q-19 -39 -19 -129q0 -92 19 -131t60 -39t60.5 39.5t19.5 129.5q0 92 -19 130.5t-61 38.5q-41 0 -60 -39zM216 736 q22 -22 22 -55t-22 -55.5t-55 -22.5q-32 0 -54.5 22.5t-22.5 55.5q0 32 22.5 54.5t54.5 22.5q33 0 55 -22zM428.5 736q22.5 -22 22.5 -55t-22 -55.5t-56 -22.5q-32 0 -54.5 22.5t-22.5 55.5q0 32 22.5 54.5t54.5 22.5q33 0 55.5 -22zM407 803h-280v105h280v-105z" />
<glyph unicode="&#x22c;" horiz-adv-x="630" d="M526 617.5q74 -92.5 74 -270.5q0 -176 -74.5 -270t-210.5 -94t-210.5 93t-74.5 271q0 175 74.5 269t210.5 94q137 0 211 -92.5zM225.5 536q-28.5 -57 -28.5 -189q0 -134 29 -190.5t89 -56.5q61 0 89.5 56.5t28.5 190.5q0 132 -28.5 189t-89.5 57t-89.5 -57zM335.5 765 q-13.5 6 -34.5 19q-13 9 -20.5 13t-16.5 4q-15 0 -25 -9.5t-23 -32.5l-74 35q18 51 49 82.5t70 31.5q20 0 35 -6.5t34 -19.5q2 -1 10 -6t14.5 -7.5t12.5 -2.5q14 0 24.5 9.5t22.5 31.5l74 -35q-18 -52 -49 -82.5t-70 -30.5q-20 0 -33.5 6zM455 944h-280v105h280v-105z" />
<glyph unicode="&#x22d;" horiz-adv-x="534" d="M442.5 475.5q63.5 -72.5 63.5 -210.5q0 -132 -64 -207t-175 -75q-112 0 -175 73t-63 210q0 133 63.5 207.5t174.5 74.5q112 0 175.5 -72.5zM207 395q-19 -39 -19 -129q0 -92 19 -131t60 -39t60.5 39.5t19.5 129.5q0 92 -19 130.5t-61 38.5q-41 0 -60 -39zM287.5 603 q-13.5 6 -34.5 19q-13 9 -20.5 13t-16.5 4q-15 0 -25 -9.5t-23 -32.5l-74 35q18 51 49 82.5t70 31.5q20 0 35 -6.5t34 -19.5q2 -1 10 -6t14.5 -7.5t12.5 -2.5q14 0 24.5 9.5t22.5 31.5l74 -35q-18 -52 -49 -82.5t-70 -30.5q-20 0 -33.5 6zM407 831h-280v105h280v-105z" />
<glyph unicode="&#x22e;" horiz-adv-x="630" d="M526 617.5q74 -92.5 74 -270.5q0 -176 -74.5 -270t-210.5 -94t-210.5 93t-74.5 271q0 175 74.5 269t210.5 94q137 0 211 -92.5zM225.5 536q-28.5 -57 -28.5 -189q0 -134 29 -190.5t89 -56.5q61 0 89.5 56.5t28.5 190.5q0 132 -28.5 189t-89.5 57t-89.5 -57zM378.5 909 q25.5 -25 25.5 -62q0 -38 -25.5 -63t-64.5 -25t-64 25t-25 63q0 37 25 62t64 25t64.5 -25z" />
<glyph unicode="&#x22f;" horiz-adv-x="534" d="M442.5 475.5q63.5 -72.5 63.5 -210.5q0 -132 -64 -207t-175 -75q-112 0 -175 73t-63 210q0 133 63.5 207.5t174.5 74.5q112 0 175.5 -72.5zM207 395q-19 -39 -19 -129q0 -92 19 -131t60 -39t60.5 39.5t19.5 129.5q0 92 -19 130.5t-61 38.5q-41 0 -60 -39zM330.5 783 q25.5 -25 25.5 -62q0 -38 -25.5 -63t-64.5 -25t-64 25t-25 63q0 37 25 62t64 25t64.5 -25z" />
<glyph unicode="&#x230;" horiz-adv-x="630" d="M526 617.5q74 -92.5 74 -270.5q0 -176 -74.5 -270t-210.5 -94t-210.5 93t-74.5 271q0 175 74.5 269t210.5 94q137 0 211 -92.5zM225.5 536q-28.5 -57 -28.5 -189q0 -134 29 -190.5t89 -56.5q61 0 89.5 56.5t28.5 190.5q0 132 -28.5 189t-89.5 57t-89.5 -57zM378.5 887 q25.5 -25 25.5 -62q0 -38 -25.5 -63t-64.5 -25t-64 25t-25 63q0 37 25 62t64 25t64.5 -25zM455 942h-280v105h280v-105z" />
<glyph unicode="&#x237;" horiz-adv-x="259" d="M206 48q0 -77 -25 -128.5t-68.5 -83t-107.5 -57.5l-51 112q35 19 55 36t31.5 44t11.5 71v489h154v-483z" />
<glyph unicode="&#x259;" horiz-adv-x="509" d="M422 474q58 -74 58 -208q0 -130 -60 -206.5t-171 -76.5q-105 0 -165 69.5t-60 202.5q0 32 3 56h306q-3 68 -26 97.5t-67 29.5q-33 0 -61.5 -9.5t-60.5 -32.5l-62 84q79 68 190 68q118 0 176 -74zM310 119.5q20 27.5 24 98.5h-167v-8q1 -118 83 -118q40 0 60 27.5z" />
<glyph unicode="&#x278;" horiz-adv-x="609" d="M530 81q-56 -65 -148 -75l-1 -211l-154 -16l1 227q-92 11 -148.5 74.5t-56.5 183.5q0 121 56 186.5t148 75.5v216l154 15v-231q92 -11 148.5 -74t56.5 -184q0 -122 -56 -187zM423.5 147q17.5 38 17.5 121q0 82 -18.5 118.5t-55.5 42.5v-326q39 6 56.5 44zM186.5 148 q18.5 -38 55.5 -46v326q-39 -6 -56.5 -43t-17.5 -121q0 -78 18.5 -116z" />
<glyph unicode="&#x292;" horiz-adv-x="463" d="M449 9q0 -66 -29.5 -118.5t-85 -82t-131.5 -29.5q-140 0 -217 101l81 77q33 -33 61.5 -47t64.5 -14q47 0 72.5 30t25.5 90q0 56 -27 80.5t-84 24.5h-82v90l154 205h-229v115h396v-106l-166 -214q196 -14 196 -202z" />
<glyph unicode="&#x2b9;" horiz-adv-x="297" d="M44 415l71 279h138l-108 -279h-101z" />
<glyph unicode="&#x2c6;" horiz-adv-x="409" d="M87 623l-54 59l128 138h93l128 -138l-54 -59l-120 92z" />
<glyph unicode="&#x2c7;" horiz-adv-x="409" d="M329 810l53 -60l-128 -138h-93l-128 138l54 60l121 -92z" />
<glyph unicode="&#x2d8;" horiz-adv-x="377" d="M78.5 679.5q-40.5 46.5 -45.5 123.5l83 15q18 -79 75 -79q30 0 49 20.5t27 58.5l83 -15q-5 -77 -46 -123.5t-113 -46.5t-112.5 46.5z" />
<glyph unicode="&#x2d9;" horiz-adv-x="239" d="M186.5 783q25.5 -25 25.5 -62q0 -38 -25.5 -63t-64.5 -25t-64 25t-25 63q0 37 25 62t64 25t64.5 -25z" />
<glyph unicode="&#x2da;" horiz-adv-x="319" d="M257 828.5q35 -36.5 35 -92.5t-35 -93t-94 -37t-94.5 37t-35.5 93t35.5 92.5t94.5 36.5t94 -36.5zM123 736q0 -52 40 -52q39 0 39 52q0 51 -39 51q-40 0 -40 -51z" />
<glyph unicode="&#x2db;" horiz-adv-x="275" d="M276 0q-60 -25 -82.5 -50.5t-22.5 -52.5q0 -46 47 -46q19 0 54 7l-10 -95q-30 -8 -63 -8q-61 0 -99.5 31t-38.5 84q0 66 50 108t141 71z" />
<glyph unicode="&#x2dc;" horiz-adv-x="406" d="M223.5 645q-13.5 6 -34.5 19q-13 9 -20.5 13t-16.5 4q-15 0 -25 -9.5t-23 -32.5l-74 35q18 51 49 82.5t70 31.5q20 0 35 -6.5t34 -19.5q2 -1 10 -6t14.5 -7.5t12.5 -2.5q14 0 24.5 9.5t22.5 31.5l74 -35q-18 -52 -49 -82.5t-70 -30.5q-20 0 -33.5 6z" />
<glyph unicode="&#x2dd;" horiz-adv-x="402" d="M112 857l101 -48l-105 -179l-77 32zM274 857l99 -51l-112 -180l-75 36z" />
<glyph unicode="&#x300;" horiz-adv-x="0" d="M-229 830l199 -131l-42 -76l-217 94z" />
<glyph unicode="&#x301;" horiz-adv-x="0" d="M-90 830l60 -113l-217 -94l-42 76z" />
<glyph unicode="&#x302;" horiz-adv-x="0" d="M-325 623l-54 59l128 138h93l128 -138l-54 -59l-120 92z" />
<glyph unicode="&#x303;" horiz-adv-x="0" d="M-182.5 645q-13.5 6 -34.5 19q-13 9 -20.5 13t-16.5 4q-15 0 -25 -9.5t-23 -32.5l-74 35q18 51 49 82.5t70 31.5q20 0 35 -6.5t34 -19.5q2 -1 10 -6t14.5 -7.5t12.5 -2.5q14 0 24.5 9.5t22.5 31.5l74 -35q-18 -52 -49 -82.5t-70 -30.5q-20 0 -33.5 6z" />
<glyph unicode="&#x304;" horiz-adv-x="0" d="M-30 657h-280v105h280v-105z" />
<glyph unicode="&#x306;" horiz-adv-x="0" d="M-301.5 679.5q-40.5 46.5 -45.5 123.5l83 15q18 -79 75 -79q30 0 49 20.5t27 58.5l83 -15q-5 -77 -46 -123.5t-113 -46.5t-112.5 46.5z" />
<glyph unicode="&#x307;" horiz-adv-x="0" d="M-55.5 783q25.5 -25 25.5 -62q0 -38 -25.5 -63t-64.5 -25t-64 25t-25 63q0 37 25 62t64 25t64.5 -25z" />
<glyph unicode="&#x308;" horiz-adv-x="0" d="M-265 775q22 -22 22 -55t-22 -55.5t-55 -22.5q-32 0 -54.5 22.5t-22.5 55.5q0 32 22.5 54.5t54.5 22.5q33 0 55 -22zM-52.5 775q22.5 -22 22.5 -55t-22 -55.5t-56 -22.5q-32 0 -54.5 22.5t-22.5 55.5q0 32 22.5 54.5t54.5 22.5q33 0 55.5 -22z" />
<glyph unicode="&#x309;" horiz-adv-x="0" d="M-193 704q35 2 49.5 10.5t14.5 28.5q0 15 -9.5 23t-25.5 8q-15 0 -26.5 -3t-28.5 -9l-24 64q42 25 101 25q54 0 84 -27.5t30 -72.5q0 -39 -19.5 -62.5t-56.5 -30.5v-53h-89v99z" />
<glyph unicode="&#x30a;" horiz-adv-x="0" d="M-65 828.5q35 -36.5 35 -92.5t-35 -93t-94 -37t-94.5 37t-35.5 93t35.5 92.5t94.5 36.5t94 -36.5zM-199 736q0 -52 40 -52q39 0 39 52q0 51 -39 51q-40 0 -40 -51z" />
<glyph unicode="&#x30b;" horiz-adv-x="0" d="M-291 857l101 -48l-105 -179l-77 32zM-129 857l99 -51l-112 -180l-75 36z" />
<glyph unicode="&#x30c;" horiz-adv-x="0" d="M-83 810l53 -60l-128 -138h-93l-128 138l54 60l121 -92z" />
<glyph unicode="&#x30f;" horiz-adv-x="0" d="M-273 857l89 -195l-76 -36l-112 180zM-111 857l81 -195l-77 -32l-104 179z" />
<glyph unicode="&#x311;" horiz-adv-x="0" d="M-76 741.5q41 -46.5 46 -123.5l-83 -15q-8 38 -27 58.5t-49 20.5q-57 0 -75 -79l-83 15q5 77 45.5 123.5t112.5 46.5t113 -46.5z" />
<glyph unicode="&#x312;" horiz-adv-x="0" d="M-160 598.5q-21 21.5 -21 54.5q0 19 5 36.5t19 47.5l42 95h76l-26 -115q34 -24 34 -64q0 -31 -21.5 -53.5t-53.5 -22.5q-33 0 -54 21.5z" />
<glyph unicode="&#x323;" horiz-adv-x="0" d="M-183.5 -212q-25.5 25 -25.5 62q0 38 25.5 63t64.5 25t64 -25t25 -63q0 -37 -25 -62t-64 -25t-64.5 25z" />
<glyph unicode="&#x326;" horiz-adv-x="0" d="M-51 -89.5q21 -21.5 21 -54.5q0 -19 -5 -36.5t-19 -47.5l-42 -95h-76l26 115q-34 24 -34 64q0 31 21.5 53.5t53.5 22.5q33 0 54 -21.5z" />
<glyph unicode="&#x327;" horiz-adv-x="0" d="M-125 -51q47 -6 71 -30.5t24 -65.5q0 -51 -37 -82.5t-101 -31.5q-61 0 -105 30l35 69q28 -15 58 -15q41 0 41 31q0 18 -20.5 26.5t-63.5 8.5l15 127h83v-67z" />
<glyph unicode="&#x328;" horiz-adv-x="0" d="M-30 0q-60 -25 -82.5 -50.5t-22.5 -52.5q0 -46 47 -46q19 0 54 7l-10 -95q-30 -8 -63 -8q-61 0 -99.5 31t-38.5 84q0 66 50 108t141 71z" />
<glyph unicode="&#x32d;" horiz-adv-x="0" d="M-325 -260l-54 59l128 138h93l128 -138l-54 -59l-120 91z" />
<glyph unicode="&#x331;" horiz-adv-x="0" d="M-30 -189h-280v105h280v-105z" />
<glyph unicode="&#x345;" horiz-adv-x="0" d="M-223.5 -169.5q-31.5 33.5 -31.5 88.5v39h107v-36q0 -36 35 -36q21 0 44 14l39 -66q-44 -37 -104 -37q-58 0 -89.5 33.5z" />
<glyph unicode="&#x370;" horiz-adv-x="474" d="M468 298h-253v-298h-160v693h160v-270h253v-125z" />
<glyph unicode="&#x371;" horiz-adv-x="431" d="M415 211h-206v-211h-154v381q0 79 -19 145l141 18q16 -32 24 -73.5t8 -116.5v-24h206v-119z" />
<glyph unicode="&#x372;" horiz-adv-x="599" d="M7 693h585v-313h-135v192h-78v-572h-159v572h-78v-192h-135v313z" />
<glyph unicode="&#x373;" horiz-adv-x="470" d="M315 416v-621l-154 -16v637h-61q-31 0 -45.5 -2t-34.5 -9l-28 104q26 12 56 17t87 5h333l1 -115h-154z" />
<glyph unicode="&#x374;" horiz-adv-x="297" d="M44 415l71 279h138l-108 -279h-101z" />
<glyph unicode="&#x375;" horiz-adv-x="297" d="M253 145l-71 -279h-138l108 279h101z" />
<glyph unicode="&#x376;" horiz-adv-x="599" d="M544 0h-153v264q0 135 20 271l-166 -535h-190v693h152v-268q0 -81 -5 -141t-14 -126l168 535h188v-693z" />
<glyph unicode="&#x377;" horiz-adv-x="535" d="M485 121.5q8 -15.5 30 -26.5l-44 -112q-65 16 -100 54t-35 105q0 44 12 125t24 140l-165 -407h-155v531h147v-195q0 -96 -21 -188l158 383h141v-364q0 -30 8 -45.5z" />
<glyph unicode="&#x37a;" horiz-adv-x="361" d="M61.5 -169.5q-31.5 33.5 -31.5 88.5v39h107v-36q0 -36 35 -36q21 0 44 14l39 -66q-44 -37 -104 -37q-58 0 -89.5 33.5z" />
<glyph unicode="&#x37b;" horiz-adv-x="467" d="M372 473.5q66 -74.5 66 -212.5q0 -134 -69 -206t-188 -72q-56 0 -99 16t-81 47l66 93q31 -19 52.5 -26.5t51.5 -7.5q50 0 78 35t28 122q0 91 -25.5 129t-75.5 38q-59 0 -110 -37l-65 91q42 34 86 49.5t103 15.5q116 0 182 -74.5z" />
<glyph unicode="&#x37c;" horiz-adv-x="467" d="M384 532.5q42 -15.5 82 -49.5l-65 -90q-28 19 -51 27.5t-52 8.5q-53 0 -80.5 -38.5t-27.5 -128.5q0 -86 28 -121.5t78 -35.5q30 0 52 8t51 26l67 -93q-39 -31 -81.5 -47t-99.5 -16q-119 0 -187.5 72t-68.5 206q0 88 32 152.5t90 99.5t133 35q58 0 100 -15.5zM371 318.5 q22 -21.5 22 -54.5t-22 -55t-57 -22q-34 0 -56 22t-22 55q0 32 22 54t56 22q35 0 57 -21.5z" />
<glyph unicode="&#x37d;" horiz-adv-x="467" d="M372 473.5q66 -74.5 66 -212.5q0 -134 -69 -206t-188 -72q-56 0 -99 16t-81 47l66 93q31 -19 52.5 -26.5t51.5 -7.5q50 0 78 35t28 122q0 91 -25.5 129t-75.5 38q-59 0 -110 -37l-65 91q42 34 86 49.5t103 15.5q116 0 182 -74.5zM210 318.5q22 -21.5 22 -54.5t-22 -55 t-57 -22q-34 0 -56 22t-22 55q0 32 22 54t56 22q35 0 57 -21.5z" />
<glyph unicode="&#x37e;" horiz-adv-x="229" d="M174.5 136q24.5 -25 24.5 -63q0 -19 -6.5 -40t-24.5 -65l-58 -144h-83l39 174q-39 28 -39 75q0 38 24.5 63t61.5 25t61.5 -25zM177 480q25 -26 25 -62q0 -37 -25 -63t-63 -26t-62.5 26t-24.5 63q0 36 25 62t62 26q38 0 63 -26z" />
<glyph unicode="&#x384;" horiz-adv-x="210" d="M31 834l149 -11l-44 -227h-98z" />
<glyph unicode="&#x385;" horiz-adv-x="460" d="M182 947l129 -9l-38 -196h-85zM162 735q22 -22 22 -55t-22 -55.5t-55 -22.5t-55 22.5t-22 55.5q0 32 22 54.5t55 22.5t55 -22zM408 734.5q22 -22.5 22 -54.5q0 -33 -22 -55.5t-55 -22.5t-55.5 22.5t-22.5 55.5q0 32 22.5 54.5t55.5 22.5t55 -22.5z" />
<glyph unicode="&#x386;" horiz-adv-x="640" d="M486 0l-31 151h-176l-31 -151h-162l187 693h192l186 -693h-165zM303 266h128l-64 310zM65 704l149 -11l-44 -227h-98z" />
<glyph unicode="&#x388;" horiz-adv-x="660" d="M633 693l-17 -114h-215v-171h188v-112h-188v-180h230v-116h-390v693h392zM62 704l149 -11l-44 -227h-98z" />
<glyph unicode="&#x389;" horiz-adv-x="789" d="M574 0v298h-173v-298h-160v693h160v-270h173v270h160v-693h-160zM62 704l149 -11l-44 -227h-98z" />
<glyph unicode="&#x38a;" horiz-adv-x="456" d="M401 693v-693h-160v693h160zM62 704l149 -11l-44 -227h-98z" />
<glyph unicode="&#x38c;" horiz-adv-x="773" d="M669 617.5q74 -92.5 74 -270.5q0 -176 -74.5 -270t-210.5 -94t-210.5 93t-74.5 271q0 175 74.5 269t210.5 94q137 0 211 -92.5zM368.5 536q-28.5 -57 -28.5 -189q0 -134 29 -190.5t89 -56.5q61 0 89.5 56.5t28.5 190.5q0 132 -28.5 189t-89.5 57t-89.5 -57zM56 704 l149 -11l-44 -227h-98z" />
<glyph unicode="&#x38e;" horiz-adv-x="780" d="M789 693l-200 -433v-260h-160v259l-200 434h171l111 -308l113 308h165zM62 704l149 -11l-44 -227h-98z" />
<glyph unicode="&#x38f;" horiz-adv-x="775" d="M616.5 668q64.5 -42 98 -118t33.5 -174q0 -96 -31 -158.5t-95 -101.5h107v-116h-234v110q37 18 55.5 51t25 82.5t6.5 132.5q0 114 -29 165.5t-89 51.5t-89 -51.5t-29 -165.5q0 -84 6.5 -134t25 -81.5t54.5 -50.5v-110h-234v116h105q-63 37 -93.5 100t-30.5 160t34 173 t98.5 118.5t152.5 42.5t152.5 -42zM53 704l149 -11l-44 -227h-98z" />
<glyph unicode="&#x390;" horiz-adv-x="260" d="M202 167q0 -30 8.5 -45.5t29.5 -27.5l-44 -111q-73 14 -110.5 54.5t-37.5 114.5v379h154v-364zM77 947l129 -9l-38 -196h-85zM57 735q22 -22 22 -55t-22 -55.5t-55 -22.5t-55 22.5t-22 55.5q0 32 22 54.5t55 22.5t55 -22zM303 734.5q22 -22.5 22 -54.5q0 -33 -22 -55.5 t-55 -22.5t-55.5 22.5t-22.5 55.5q0 32 22.5 54.5t55.5 22.5t55 -22.5z" />
<glyph unicode="&#x391;" d="M389 0l-31 151h-176l-31 -151h-162l187 693h192l186 -693h-165zM206 266h128l-64 310z" />
<glyph unicode="&#x392;" horiz-adv-x="559" d="M498.5 315q40.5 -38 40.5 -113q0 -202 -279 -202h-205v693h181q133 0 205 -43.5t72 -133.5q0 -60 -34 -97.5t-87 -51.5q66 -14 106.5 -52zM215 580v-165h44q92 0 92 85q0 41 -24 60.5t-76 19.5h-36zM346 137q29 21 29 73q0 98 -106 98h-54v-192h46q56 0 85 21z" />
<glyph unicode="&#x393;" horiz-adv-x="462" d="M463 693l-16 -126h-232v-567h-160v693h408z" />
<glyph unicode="&#x394;" horiz-adv-x="551" d="M372 693l190 -693h-573l191 693h192zM274 575l-98 -457h195z" />
<glyph unicode="&#x395;" horiz-adv-x="474" d="M447 693l-17 -114h-215v-171h188v-112h-188v-180h230v-116h-390v693h392z" />
<glyph unicode="&#x396;" horiz-adv-x="492" d="M467 693v-121l-273 -444h279l-16 -128h-443v120l275 449h-249v124h427z" />
<glyph unicode="&#x397;" horiz-adv-x="602" d="M388 0v298h-173v-298h-160v693h160v-270h173v270h160v-693h-160z" />
<glyph unicode="&#x398;" horiz-adv-x="630" d="M526 617.5q74 -92.5 74 -270.5q0 -176 -74.5 -270t-210.5 -94t-210.5 93t-74.5 271q0 175 74.5 269t210.5 94q137 0 211 -92.5zM219 536q-31 -57 -31 -189q0 -134 30.5 -190.5t96.5 -56.5q67 0 97 56t30 191q0 132 -30.5 189t-96.5 57q-65 0 -96 -57zM403 398v-92h-176 v92h176z" />
<glyph unicode="&#x399;" horiz-adv-x="269" d="M215 693v-693h-160v693h160z" />
<glyph unicode="&#x39a;" horiz-adv-x="581" d="M215 693v-693h-160v693h160zM577 693l-194 -311l210 -382h-179l-194 370l194 323h163z" />
<glyph unicode="&#x39b;" d="M368 693l186 -693h-167l-117 576l-117 -576h-164l187 693h192z" />
<glyph unicode="&#x39c;" horiz-adv-x="720" d="M690 0h-153l-9 274q-4 120 -4 177q0 70 2 103l-91 -481h-150l-96 481q4 -76 4 -161q0 -38 -2 -122l-9 -271h-152l46 693h200l87 -472l80 472h201z" />
<glyph unicode="&#x39d;" horiz-adv-x="599" d="M544 0h-200l-170 544q2 -12 2 -20q9 -72 14 -130.5t5 -135.5v-258h-140v693h198l173 -545q-22 130 -22 259v286h140v-693z" />
<glyph unicode="&#x39e;" horiz-adv-x="473" d="M451 693l-18 -134h-410v134h428zM390 415v-126h-308v126h308zM450 138v-138h-427v138h427z" />
<glyph unicode="&#x39f;" horiz-adv-x="630" d="M526 617.5q74 -92.5 74 -270.5q0 -176 -74.5 -270t-210.5 -94t-210.5 93t-74.5 271q0 175 74.5 269t210.5 94q137 0 211 -92.5zM225.5 536q-28.5 -57 -28.5 -189q0 -134 29 -190.5t89 -56.5q61 0 89.5 56.5t28.5 190.5q0 132 -28.5 189t-89.5 57t-89.5 -57z" />
<glyph unicode="&#x3a0;" horiz-adv-x="601" d="M547 693v-693h-161v570h-171v-570h-160v693h492z" />
<glyph unicode="&#x3a1;" horiz-adv-x="544" d="M457.5 636q71.5 -57 71.5 -168q0 -117 -69.5 -176.5t-191.5 -59.5h-53v-232h-160v693h198q133 0 204.5 -57zM338 375.5q27 27.5 27 91.5q0 57 -26.5 84.5t-83.5 27.5h-40v-231h40q56 0 83 27.5z" />
<glyph unicode="&#x3a3;" horiz-adv-x="453" d="M437 693v-116h-253l153 -203v-65l-157 -190h257v-119h-421v116l178 224l-178 237v116h421z" />
<glyph unicode="&#x3a4;" horiz-adv-x="490" d="M491 693l-17 -122h-149v-571h-160v571h-158v122h484z" />
<glyph unicode="&#x3a5;" horiz-adv-x="542" d="M551 693l-200 -433v-260h-160v259l-200 434h171l111 -308l113 308h165z" />
<glyph unicode="&#x3a6;" horiz-adv-x="764" d="M673 150.5q-78 -68.5 -214 -75.5v-75h-155v75q-135 8 -213 76t-78 194q0 129 78 197t213 74v77h155v-77q135 -7 213.5 -74.5t78.5 -192.5q0 -130 -78 -198.5zM556.5 222.5q32.5 44.5 32.5 126.5q0 80 -33.5 122.5t-103.5 48.5v-349q72 7 104.5 51.5zM208 221 q33 -43 103 -50v349q-72 -7 -104 -49.5t-32 -125.5q0 -81 33 -124z" />
<glyph unicode="&#x3a7;" horiz-adv-x="530" d="M357 374l179 -374h-171l-104 267l-100 -267h-167l173 368l-160 325h170l86 -225l92 225h166z" />
<glyph unicode="&#x3a8;" horiz-adv-x="661" d="M646 693v-272q0 -102 -59.5 -162.5t-176.5 -75.5v-183h-160v182q-118 16 -176.5 76t-58.5 162v273h152v-276q0 -57 21 -85.5t70 -37.5v399h145v-399q48 10 69.5 39t21.5 84v276h152z" />
<glyph unicode="&#x3a9;" horiz-adv-x="621" d="M463.5 668q64.5 -42 98 -118t33.5 -174q0 -96 -31 -158.5t-95 -101.5h107v-116h-234v110q37 18 55.5 51t25 82.5t6.5 132.5q0 114 -29 165.5t-89 51.5t-89 -51.5t-29 -165.5q0 -84 6.5 -134t25 -81.5t54.5 -50.5v-110h-234v116h105q-63 37 -93.5 100t-30.5 160t34 173 t98.5 118.5t152.5 42.5t152.5 -42z" />
<glyph unicode="&#x3aa;" horiz-adv-x="269" d="M215 693v-693h-160v693h160zM84 901q22 -22 22 -55t-22 -55.5t-55 -22.5q-32 0 -54.5 22.5t-22.5 55.5q0 32 22.5 54.5t54.5 22.5q33 0 55 -22zM296.5 901q22.5 -22 22.5 -55t-22 -55.5t-56 -22.5q-32 0 -54.5 22.5t-22.5 55.5q0 32 22.5 54.5t54.5 22.5q33 0 55.5 -22z " />
<glyph unicode="&#x3ab;" horiz-adv-x="542" d="M551 693l-200 -433v-260h-160v259l-200 434h171l111 -308l113 308h165zM221 901q22 -22 22 -55t-22 -55.5t-55 -22.5q-32 0 -54.5 22.5t-22.5 55.5q0 32 22.5 54.5t54.5 22.5q33 0 55 -22zM433.5 901q22.5 -22 22.5 -55t-22 -55.5t-56 -22.5q-32 0 -54.5 22.5t-22.5 55.5 q0 32 22.5 54.5t54.5 22.5q33 0 55.5 -22z" />
<glyph unicode="&#x3ac;" horiz-adv-x="546" d="M372 413l15 118h127l-65 -272l24 -107q6 -24 18.5 -36t33.5 -18l-49 -115q-92 13 -108 94l-6 35q-21 -64 -56.5 -96.5t-90.5 -32.5q-87 0 -136.5 70.5t-49.5 207.5q0 86 24 151t69 100.5t106 35.5q118 0 144 -135zM183 261q0 -89 17 -127t48 -38q30 0 50.5 38t34.5 138 q-15 93 -33 128t-48 35q-69 0 -69 -174zM202 834l149 -11l-44 -227h-98z" />
<glyph unicode="&#x3ad;" horiz-adv-x="439" d="M425 489l-60 -79q-28 16 -51.5 23.5t-49.5 7.5q-29 0 -45.5 -15t-16.5 -43t17 -44t49 -16h58l-15 -99h-50q-39 0 -56 -16.5t-17 -48.5q0 -66 75 -66q27 0 53 9t59 30l64 -85q-37 -30 -88 -47t-112 -17q-93 0 -151.5 43t-58.5 120q0 59 33.5 92.5t101.5 44.5 q-117 25 -117 119q0 67 54 106.5t141 39.5q106 0 183 -59zM185 834l149 -11l-44 -227h-98z" />
<glyph unicode="&#x3ae;" horiz-adv-x="524" d="M439.5 506q35.5 -42 35.5 -115v-612l-154 16v577q0 32 -9.5 46t-28.5 14q-37 0 -74 -62v-370h-154v381q0 80 -19 145l141 18q15 -29 22 -75q29 39 63.5 59t79.5 20q62 0 97.5 -42zM206 834l149 -11l-44 -227h-98z" />
<glyph unicode="&#x3af;" horiz-adv-x="260" d="M202 167q0 -30 8.5 -45.5t29.5 -27.5l-44 -111q-73 14 -110.5 54.5t-37.5 114.5v379h154v-364zM69 834l149 -11l-44 -227h-98z" />
<glyph unicode="&#x3b0;" horiz-adv-x="514" d="M471 389.5q7 -65.5 7 -137.5q0 -95 -33.5 -155.5t-87 -87t-117.5 -26.5q-85 0 -138.5 47.5t-53.5 138.5v362h154v-364q0 -38 12.5 -54t36.5 -16q73 0 73 164q0 111 -24 270h152q12 -76 19 -141.5zM205 947l129 -9l-38 -196h-85zM185 735q22 -22 22 -55t-22 -55.5 t-55 -22.5t-55 22.5t-22 55.5q0 32 22 54.5t55 22.5t55 -22zM431 734.5q22 -22.5 22 -54.5q0 -33 -22 -55.5t-55 -22.5t-55.5 22.5t-22.5 55.5q0 32 22.5 54.5t55.5 22.5t55 -22.5z" />
<glyph unicode="&#x3b1;" horiz-adv-x="546" d="M372 413l15 118h127l-65 -272l24 -107q6 -24 18.5 -36t33.5 -18l-49 -115q-92 13 -108 94l-6 35q-21 -64 -56.5 -96.5t-90.5 -32.5q-87 0 -136.5 70.5t-49.5 207.5q0 86 24 151t69 100.5t106 35.5q118 0 144 -135zM183 261q0 -89 17 -127t48 -38q30 0 50.5 38t34.5 138 q-15 93 -33 128t-48 35q-69 0 -69 -174z" />
<glyph unicode="&#x3b2;" horiz-adv-x="553" d="M478.5 353.5q51.5 -43.5 51.5 -146.5q0 -67 -26.5 -118t-72.5 -78.5t-104 -27.5q-71 0 -127 40v-224l-148 -21v768q0 102 60 157t157 55q98 0 154 -51.5t56 -137.5q0 -136 -127 -164q75 -8 126.5 -51.5zM349.5 129q25.5 28 25.5 90q0 126 -107 126h-32l9 105h19 q31 0 48.5 26t17.5 80q0 50 -16.5 72t-47.5 22q-33 0 -49.5 -24t-16.5 -79v-424q35 -22 82 -22q42 0 67.5 28z" />
<glyph unicode="&#x3b3;" horiz-adv-x="466" d="M187 403.5q30 -96.5 47 -246.5l87 390l151 -31l-166 -490q-13 -39 -19 -71.5t-6 -66.5q0 -47 8 -95l-122 -15q-29 62 -29 119q0 51 22 114q-37 172 -83.5 298.5t-92.5 189.5l139 48q34 -47 64 -143.5z" />
<glyph unicode="&#x3b4;" horiz-adv-x="528" d="M419 452q41 -35 60.5 -84t19.5 -121q0 -124 -63.5 -194t-171.5 -70q-111 0 -173 66t-62 192q0 152 138 221q-53 31 -71.5 63.5t-18.5 77.5q0 67 50 111t149 44q54 0 98.5 -16.5t76.5 -43.5l-66 -80q-25 17 -48 25t-50 8q-33 0 -48.5 -13.5t-15.5 -36.5q0 -18 6 -29.5 t24.5 -23.5t56.5 -30q68 -31 109 -66zM321.5 130q18.5 33 18.5 114q0 52 -7 82.5t-27 52.5t-61 44q-34 -32 -46.5 -73t-12.5 -107q0 -80 18 -113t59 -33q40 0 58.5 33z" />
<glyph unicode="&#x3b5;" horiz-adv-x="439" d="M425 489l-60 -79q-28 16 -51.5 23.5t-49.5 7.5q-29 0 -45.5 -15t-16.5 -43t17 -44t49 -16h58l-15 -99h-50q-39 0 -56 -16.5t-17 -48.5q0 -66 75 -66q27 0 53 9t59 30l64 -85q-37 -30 -88 -47t-112 -17q-93 0 -151.5 43t-58.5 120q0 59 33.5 92.5t101.5 44.5 q-117 25 -117 119q0 67 54 106.5t141 39.5q106 0 183 -59z" />
<glyph unicode="&#x3b6;" horiz-adv-x="383" d="M406 659q-130 -121 -180 -215.5t-50 -181.5q0 -40 9.5 -65t31.5 -43.5t63 -37.5q62 -30 90 -61t28 -86q0 -61 -41 -106.5t-127 -84.5l-56 92q35 21 51.5 39.5t16.5 45.5q0 24 -14 37.5t-57 33.5q-57 28 -89.5 56.5t-48 68.5t-15.5 101q0 99 67 204.5t192 192.5 q-19 -7 -55 -12t-68 -5h-125l17 110h340z" />
<glyph unicode="&#x3b7;" horiz-adv-x="524" d="M439.5 506q35.5 -42 35.5 -115v-612l-154 16v577q0 32 -9.5 46t-28.5 14q-37 0 -74 -62v-370h-154v381q0 80 -19 145l141 18q15 -29 22 -75q29 39 63.5 59t79.5 20q62 0 97.5 -42z" />
<glyph unicode="&#x3b8;" horiz-adv-x="513" d="M426.5 664q57.5 -94 57.5 -291q0 -199 -57.5 -294.5t-169.5 -95.5q-113 0 -170.5 94.5t-57.5 294.5q0 386 228 386q112 0 169.5 -94zM210.5 627.5q-17.5 -18.5 -27.5 -68t-12 -141.5h169q-2 93 -11 142t-26 67.5t-46 18.5t-46.5 -18.5zM301.5 114q17.5 19 27 69.5 t11.5 144.5h-168q2 -94 12 -145t27.5 -69.5t45.5 -18.5q27 0 44.5 19z" />
<glyph unicode="&#x3b9;" horiz-adv-x="260" d="M202 167q0 -30 8.5 -45.5t29.5 -27.5l-44 -111q-73 14 -110.5 54.5t-37.5 114.5v379h154v-364z" />
<glyph unicode="&#x3ba;" horiz-adv-x="505" d="M370 285l97 -147q11 -16 21.5 -25t24.5 -15l-53 -115q-47 5 -78.5 25.5t-56.5 70.5l-112 202l156 265l130 -56zM201 470.5q8 -41.5 8 -116.5v-354h-154v381q0 79 -19 145l141 18q16 -32 24 -73.5z" />
<glyph unicode="&#x3bb;" horiz-adv-x="484" d="M212 718q53 -26 87.5 -78.5t53.5 -143.5q29 -142 50.5 -223.5t44 -136.5t54.5 -103l-147 -50q-43 79 -67.5 168.5t-47.5 260.5l-82 -429l-151 33l144 515h52q-17 58 -47.5 83.5t-98.5 37.5l17 106q85 -14 138 -40z" />
<glyph unicode="&#x3bc;" horiz-adv-x="527" d="M349 -17q-8 21 -12 38.5t-8 44.5q-41 -74 -96 -74q-23 0 -41 9.5t-34 33.5q20 -37 29.5 -68.5t9.5 -81.5v-90l-145 -15v751h154v-372q0 -55 40 -55q41 0 69 62v365h154v-349q0 -102 21 -182z" />
<glyph unicode="&#x3bd;" horiz-adv-x="466" d="M186 394.5q29 -107.5 46 -270.5l90 423l149 -31l-153 -516h-180q-34 196 -71 321t-83 179l139 48q34 -46 63 -153.5z" />
<glyph unicode="&#x3be;" horiz-adv-x="409" d="M349 743.5q41 -14.5 78 -44.5l-64 -81q-25 17 -43.5 24.5t-41.5 7.5q-32 0 -48.5 -21t-16.5 -58q0 -40 19 -61.5t57 -21.5h49l-15 -104h-40q-48 0 -75 -30t-27 -84q0 -39 11.5 -63.5t36.5 -43t74 -42.5q66 -33 94.5 -65t28.5 -88q0 -61 -40.5 -106t-126.5 -84l-56 92 q35 23 51.5 40.5t16.5 42.5q0 17 -6 28.5t-22.5 22.5t-50.5 28q-60 30 -94 55t-55 66.5t-21 105.5q0 155 159 185q-124 33 -124 146q0 49 25.5 87.5t70.5 59.5t101 21q54 0 95 -14.5z" />
<glyph unicode="&#x3bf;" horiz-adv-x="534" d="M442.5 475.5q63.5 -72.5 63.5 -210.5q0 -132 -64 -207t-175 -75q-112 0 -175 73t-63 210q0 133 63.5 207.5t174.5 74.5q112 0 175.5 -72.5zM207 395q-19 -39 -19 -129q0 -92 19 -131t60 -39t60.5 39.5t19.5 129.5q0 92 -19 130.5t-61 38.5q-41 0 -60 -39z" />
<glyph unicode="&#x3c0;" horiz-adv-x="556" d="M484 416v-249q0 -30 8.5 -45.5t29.5 -27.5l-44 -111q-74 14 -111 54t-37 114v265h-94v-416h-152v416q-19 -1 -30.5 -3t-28.5 -8l-28 104q25 12 55.5 17t86.5 5h399v-115h-54z" />
<glyph unicode="&#x3c1;" horiz-adv-x="536" d="M442.5 477.5q59.5 -70.5 59.5 -210.5q0 -80 -23.5 -145t-67 -102t-100.5 -37q-72 0 -114 57v-245l-154 -17v503q0 267 227 267q113 0 172.5 -70.5zM344 265q0 98 -18.5 134.5t-55.5 36.5q-40 0 -56.5 -37.5t-16.5 -127.5v-127q27 -48 70 -48q77 0 77 169z" />
<glyph unicode="&#x3c2;" horiz-adv-x="434" d="M360 532q40 -16 75 -49l-65 -88q-42 35 -88 35q-45 0 -68.5 -36t-23.5 -118q0 -45 9 -72t31 -46.5t66 -40.5q61 -30 88.5 -61.5t27.5 -86.5q0 -62 -40.5 -107t-127.5 -84l-56 91q36 24 52 41.5t16 43.5q0 23 -15 37.5t-61 37.5q-49 23 -81.5 52t-51 76.5t-18.5 118.5 q0 81 30 142.5t84.5 95.5t126.5 34q50 0 90 -16z" />
<glyph unicode="&#x3c3;" horiz-adv-x="547" d="M540 418l-99 7q34 -25 49.5 -65.5t15.5 -100.5q0 -84 -29 -146.5t-83 -96t-127 -33.5q-112 0 -175 73t-63 210q0 128 65 200.5t193 72.5q99 0 253 -8v-113zM327.5 134.5q19.5 38.5 19.5 124.5q0 125 -32 170q-49 0 -76 -14t-39 -49t-12 -101q0 -92 19 -130.5t60 -38.5 t60.5 38.5z" />
<glyph unicode="&#x3c4;" horiz-adv-x="438" d="M297 416v-249q0 -30 8.5 -46t29.5 -27l-44 -111q-74 14 -111 54t-37 114v265h-41q-32 0 -47 -2t-35 -9l-28 104q26 12 55.5 17t84.5 5h304v-115h-139z" />
<glyph unicode="&#x3c5;" horiz-adv-x="514" d="M471 389.5q7 -65.5 7 -137.5q0 -95 -33.5 -155.5t-87 -87t-117.5 -26.5q-85 0 -138.5 47.5t-53.5 138.5v362h154v-364q0 -38 12.5 -54t36.5 -16q73 0 73 164q0 111 -24 270h152q12 -76 19 -141.5z" />
<glyph unicode="&#x3c6;" horiz-adv-x="690" d="M598 64q-58 -67 -184 -80v-189l-143 -17v207q-240 23 -240 257q0 78 15 148t39 141h144q-24 -78 -37 -143t-13 -135q0 -81 20.5 -117.5t71.5 -45.5v243q0 101 48 158t139 57q100 0 149 -66.5t49 -211.5q0 -139 -58 -206zM472 112.5q20 17.5 28 53.5t8 102 q0 73 -5.5 110.5t-16 51t-28.5 13.5q-23 0 -33.5 -19.5t-10.5 -75.5v-258q38 5 58 22.5z" />
<glyph unicode="&#x3c7;" horiz-adv-x="455" d="M467 -196l-149 -25l-93 285l-87 -285l-153 17l164 387q-53 129 -89 197t-79 118l146 47q33 -55 54 -106t48 -155l65 260l154 -16l-142 -343z" />
<glyph unicode="&#x3c8;" horiz-adv-x="711" d="M610.5 61q-64.5 -65 -180.5 -76v-190l-146 -16v205q-119 9 -179.5 65t-60.5 144v338h150v-330q0 -48 20.5 -74.5t69.5 -33.5v438h146v-436q49 9 72 47t23 110q0 114 -23 279h147q26 -140 26 -283q0 -122 -64.5 -187z" />
<glyph unicode="&#x3c9;" horiz-adv-x="701" d="M670 242q0 -131 -48.5 -195t-131.5 -64q-118 0 -140 115q-14 -60 -47.5 -87.5t-91.5 -27.5q-85 0 -132.5 63.5t-47.5 195.5q0 156 56 289h139q-22 -79 -33.5 -146.5t-11.5 -135.5q0 -84 13.5 -118t41.5 -34q23 0 34 16.5t11 61.5v180l139 19v-199q0 -43 11.5 -60.5 t33.5 -17.5q27 0 41 32.5t14 120.5q0 66 -12 134t-33 147h138q57 -134 57 -289z" />
<glyph unicode="&#x3ca;" horiz-adv-x="260" d="M202 167q0 -30 8.5 -45.5t29.5 -27.5l-44 -111q-73 14 -110.5 54.5t-37.5 114.5v379h154v-364zM73 775q22 -22 22 -55t-22 -55.5t-55 -22.5q-32 0 -54.5 22.5t-22.5 55.5q0 32 22.5 54.5t54.5 22.5q33 0 55 -22zM285.5 775q22.5 -22 22.5 -55t-22 -55.5t-56 -22.5 q-32 0 -54.5 22.5t-22.5 55.5q0 32 22.5 54.5t54.5 22.5q33 0 55.5 -22z" />
<glyph unicode="&#x3cb;" horiz-adv-x="514" d="M471 389.5q7 -65.5 7 -137.5q0 -95 -33.5 -155.5t-87 -87t-117.5 -26.5q-85 0 -138.5 47.5t-53.5 138.5v362h154v-364q0 -38 12.5 -54t36.5 -16q73 0 73 164q0 111 -24 270h152q12 -76 19 -141.5zM201 775q22 -22 22 -55t-22 -55.5t-55 -22.5q-32 0 -54.5 22.5 t-22.5 55.5q0 32 22.5 54.5t54.5 22.5q33 0 55 -22zM413.5 775q22.5 -22 22.5 -55t-22 -55.5t-56 -22.5q-32 0 -54.5 22.5t-22.5 55.5q0 32 22.5 54.5t54.5 22.5q33 0 55.5 -22z" />
<glyph unicode="&#x3cc;" horiz-adv-x="534" d="M442.5 475.5q63.5 -72.5 63.5 -210.5q0 -132 -64 -207t-175 -75q-112 0 -175 73t-63 210q0 133 63.5 207.5t174.5 74.5q112 0 175.5 -72.5zM207 395q-19 -39 -19 -129q0 -92 19 -131t60 -39t60.5 39.5t19.5 129.5q0 92 -19 130.5t-61 38.5q-41 0 -60 -39zM211 834 l149 -11l-44 -227h-98z" />
<glyph unicode="&#x3cd;" horiz-adv-x="514" d="M471 389.5q7 -65.5 7 -137.5q0 -95 -33.5 -155.5t-87 -87t-117.5 -26.5q-85 0 -138.5 47.5t-53.5 138.5v362h154v-364q0 -38 12.5 -54t36.5 -16q73 0 73 164q0 111 -24 270h152q12 -76 19 -141.5zM197 834l149 -11l-44 -227h-98z" />
<glyph unicode="&#x3ce;" horiz-adv-x="701" d="M670 242q0 -131 -48.5 -195t-131.5 -64q-118 0 -140 115q-14 -60 -47.5 -87.5t-91.5 -27.5q-85 0 -132.5 63.5t-47.5 195.5q0 156 56 289h139q-22 -79 -33.5 -146.5t-11.5 -135.5q0 -84 13.5 -118t41.5 -34q23 0 34 16.5t11 61.5v180l139 19v-199q0 -43 11.5 -60.5 t33.5 -17.5q27 0 41 32.5t14 120.5q0 66 -12 134t-33 147h138q57 -134 57 -289zM294 834l149 -11l-44 -227h-98z" />
<glyph unicode="&#x3cf;" horiz-adv-x="618" d="M55 0v693h160v-693h-160zM603 122v-163q0 -89 -51 -134.5t-137 -45.5q-78 0 -133 42l53 92q18 -10 31 -14t30 -4q47 0 47 55v50h-29l-194 370l194 323h163l-194 -311l143 -260h77z" />
<glyph unicode="&#x3d0;" horiz-adv-x="509" d="M450 376q39 -55 39 -146q0 -71 -29 -127t-82.5 -88t-122.5 -32q-118 0 -174 93.5t-56 267.5q0 128 34 221.5t93.5 143t134.5 49.5q79 0 119.5 -41.5t40.5 -100.5q0 -67 -37 -115.5t-119 -78.5q30 9 55 9q65 0 104 -55zM214 599q-26 -51 -33 -165l23 10q57 26 82 64.5 t25 92.5q0 24 -10 36.5t-27 12.5q-34 0 -60 -51zM310.5 129q19.5 33 19.5 96q0 65 -19 99.5t-55 34.5q-25 0 -57 -17l-20 -10q1 -127 20 -181.5t56 -54.5q36 0 55.5 33z" />
<glyph unicode="&#x3d1;" horiz-adv-x="497" d="M486 402h-30v-10q0 -141 -23 -230.5t-74.5 -134t-139.5 -44.5q-83 0 -133.5 47t-50.5 139v184h147v-196q0 -32 10.5 -47t32.5 -15q28 0 44.5 26t24 89.5t7.5 178.5v13h-72q-106 0 -155.5 45t-49.5 126q0 51 24 93t68 67t101 25q99 0 157 -64t75 -188h38zM297 505 q-7 80 -26.5 111.5t-53.5 31.5q-28 0 -43 -19t-15 -53q0 -36 19.5 -53.5t58.5 -17.5h60z" />
<glyph unicode="&#x3d2;" horiz-adv-x="576" d="M191 259l-200 434h171l112 -307l61 183q24 76 61 108.5t101 32.5q34 0 60.5 -9.5t52.5 -26.5l-43 -91q-21 14 -47 14q-20 0 -32 -11.5t-25 -42.5l-112 -283v-260h-160v259z" />
<glyph unicode="&#x3d3;" horiz-adv-x="830" d="M445 259l-200 434h171l112 -307l61 183q24 76 61 108.5t101 32.5q34 0 60.5 -9.5t52.5 -26.5l-43 -91q-21 14 -47 14q-20 0 -32 -11.5t-25 -42.5l-112 -283v-260h-160v259zM211 724l34 -240l-100 -17l-83 226z" />
<glyph unicode="&#x3d4;" horiz-adv-x="576" d="M191 259l-200 434h171l112 -307l61 183q24 76 61 108.5t101 32.5q34 0 60.5 -9.5t52.5 -26.5l-43 -91q-21 14 -47 14q-20 0 -32 -11.5t-25 -42.5l-112 -283v-260h-160v259zM231 901q22 -22 22 -55t-22 -55.5t-55 -22.5q-32 0 -54.5 22.5t-22.5 55.5q0 32 22.5 54.5 t54.5 22.5q33 0 55 -22zM443.5 901q22.5 -22 22.5 -55t-22 -55.5t-56 -22.5q-32 0 -54.5 22.5t-22.5 55.5q0 32 22.5 54.5t54.5 22.5q33 0 55.5 -22z" />
<glyph unicode="&#x3d5;" horiz-adv-x="609" d="M530 81q-56 -65 -148 -75l-1 -211l-154 -16l1 227q-92 11 -148.5 74.5t-56.5 183.5q0 121 56 186.5t148 75.5v216l154 15v-231q92 -11 148.5 -74t56.5 -184q0 -122 -56 -187zM423.5 147q17.5 38 17.5 121q0 82 -18.5 118.5t-55.5 42.5v-326q39 6 56.5 44zM186.5 148 q18.5 -38 55.5 -46v326q-39 -6 -56.5 -43t-17.5 -121q0 -78 18.5 -116z" />
<glyph unicode="&#x3d6;" horiz-adv-x="682" d="M589 422q62 -101 62 -209q0 -110 -47 -170t-124 -60q-57 0 -91 27t-47 84q-15 -58 -47.5 -84.5t-88.5 -26.5q-79 0 -125.5 59t-46.5 171q0 108 62 209q-24 -1 -37 -3t-30 -8l-27 98q25 12 57 17t90 5h523l1 -109h-84zM468 422h-250q-34 -91 -34 -197q0 -70 11.5 -99 t35.5 -29q20 0 30.5 15.5t10.5 58.5v125l141 19v-144q0 -74 40 -74q23 0 35.5 27.5t12.5 101.5q0 103 -33 196z" />
<glyph unicode="&#x3d7;" horiz-adv-x="515" d="M465.5 115.5q8.5 -16.5 30.5 -28.5v-125q0 -93 -48 -140.5t-134 -47.5q-42 0 -77 11.5t-59 29.5l52 91q20 -10 36 -15t38 -5q58 0 58 63l1 83q-47 33 -47 110q0 45 17 125.5t37 139.5l-200 -418l-113 34v340q0 31 -8 46.5t-30 26.5l45 111q134 -31 134 -158 q0 -46 -17 -126.5t-37 -138.5l201 417l112 -34v-343q0 -32 8.5 -48.5z" />
<glyph unicode="&#x3d8;" horiz-adv-x="630" d="M545.5 106q-54.5 -91 -155.5 -115v-201h-149v201q-102 24 -156.5 114t-54.5 242q0 175 74.5 269t210.5 94q137 0 211 -92.5t74 -270.5q0 -150 -54.5 -241zM404.5 156.5q28.5 56.5 28.5 190.5q0 132 -28.5 189t-89.5 57t-89.5 -57t-28.5 -189q0 -134 29 -190.5t89 -56.5 q61 0 89.5 56.5z" />
<glyph unicode="&#x3d9;" horiz-adv-x="534" d="M461.5 84q-44.5 -71 -125.5 -92v-197l-137 -16v212q-81 21 -125.5 91t-44.5 184q0 133 63.5 207.5t174.5 74.5q112 0 175.5 -72.5t63.5 -210.5q0 -110 -44.5 -181zM327.5 135.5q19.5 39.5 19.5 129.5q0 92 -19 130.5t-61 38.5q-41 0 -60 -39t-19 -129q0 -92 19 -131 t60 -39t60.5 39.5z" />
<glyph unicode="&#x3da;" horiz-adv-x="523" d="M269 -131q35 22 51.5 40t16.5 42q0 17 -10 29.5t-34 26t-71 34.5q-59 27 -100.5 62t-66.5 94t-25 148q0 104 40 182.5t116 122t182 43.5h151l-17 -127h-112q-99 0 -144 -56t-45 -160q0 -62 11.5 -98t39.5 -61t83 -52q83 -40 120 -77t37 -98q0 -58 -40.5 -102t-127.5 -84z " />
<glyph unicode="&#x3db;" horiz-adv-x="440" d="M188 -131q36 25 52 42t16 44q0 24 -15.5 37.5t-64.5 38.5q-45 23 -76.5 48.5t-51 68.5t-19.5 107q0 180 161 228l28 8q37 10 55.5 18.5t29 26t10.5 50.5l128 -11q0 -66 -15.5 -100t-40.5 -48.5t-78 -32.5q-42 -15 -66.5 -30t-37.5 -40t-13 -67q0 -52 22.5 -80.5 t83.5 -59.5q40 -20 64 -38t38 -44t14 -65q0 -63 -40.5 -108t-127.5 -84z" />
<glyph unicode="&#x3dc;" horiz-adv-x="470" d="M215 567v-172h92q39 0 65.5 -6t49.5 -20l-37 -104q-39 13 -85 13h-85v-278h-160v693h408l-16 -126h-232z" />
<glyph unicode="&#x3dd;" horiz-adv-x="413" d="M211.5 398q-13.5 -15 -13.5 -48v-97h61q40 0 67 -6.5t48 -21.5l-35 -100q-20 8 -39 11.5t-46 3.5h-56v-340l-150 -22v573q0 82 46.5 131t135.5 49h188l-16 -117h-150q-27 -1 -40.5 -16z" />
<glyph unicode="&#x3de;" horiz-adv-x="454" d="M418 412l25 -126l-165 -286h-174l172 286h-240l-25 126l165 281h174l-169 -281h237z" />
<glyph unicode="&#x3df;" horiz-adv-x="450" d="M447 381l-83 -192q-29 -69 -43 -113.5t-23 -92.5l-136 32q4 52 26.5 108t76.5 158l27 52l-250 -78l-39 103l85 196q30 68 43.5 112t22.5 93l137 -31q-4 -54 -27 -110.5t-77 -155.5l-29 -56l250 78z" />
<glyph unicode="&#x3e0;" horiz-adv-x="554" d="M565 0h-142l-69 229l-55 -229h-100l111 377l-33 110l-150 -487h-138l227 634l-29 59h138z" />
<glyph unicode="&#x3e1;" horiz-adv-x="601" d="M368.5 605.5q101.5 -86.5 152.5 -211.5t51 -303q0 -72 -11 -158.5t-27 -152.5l-122 17q28 147 28 291q0 85 -12 154l-102 -242h-132l185 395q-14 27 -36 56l-216 -451h-137l259 546q-71 57 -190 115l46 97q162 -66 263.5 -152.5z" />
<glyph unicode="&#x3f0;" horiz-adv-x="514" d="M465 121.5q8 -15.5 30 -26.5l-44 -112q-65 16 -100 54t-35 105q0 45 17 125.5t37 139.5l-200 -418l-113 34v340q0 31 -8 46.5t-30 26.5l45 111q134 -31 134 -158q0 -46 -17 -126.5t-37 -138.5l201 417l112 -34v-340q0 -30 8 -45.5z" />
<glyph unicode="&#x3f1;" horiz-adv-x="536" d="M409 -115q33 -26 46 -75l-131 -32q-6 15 -15.5 23.5t-29.5 14t-64 12.5q-88 15 -130 61.5t-42 141.5v250q0 267 227 267q112 0 172 -68t60 -199q0 -75 -23.5 -138t-67 -100t-100.5 -37q-72 0 -114 58v-54q0 -30 9.5 -46t33 -25t71.5 -17q65 -11 98 -37zM214 398.5 q-17 -37.5 -17 -127.5v-103q27 -49 70 -49q36 0 56.5 39t20.5 121q0 89 -18.5 123t-54.5 34q-40 0 -57 -37.5z" />
<glyph unicode="&#x3f2;" horiz-adv-x="467" d="M384 532.5q42 -15.5 82 -49.5l-65 -90q-28 19 -51 27.5t-52 8.5q-53 0 -80.5 -38.5t-27.5 -128.5q0 -86 28 -121.5t78 -35.5q30 0 52 8t51 26l67 -93q-39 -31 -81.5 -47t-99.5 -16q-119 0 -187.5 72t-68.5 206q0 88 32 152.5t90 99.5t133 35q58 0 100 -15.5z" />
<glyph unicode="&#x3f3;" horiz-adv-x="259" d="M206 48q0 -77 -25 -128.5t-68.5 -83t-107.5 -57.5l-51 112q35 19 55 36t31.5 44t11.5 71v489h154v-483zM192.5 783q25.5 -25 25.5 -62q0 -38 -25.5 -63t-64.5 -25t-64 25t-25 63q0 37 25 62t64 25t64.5 -25z" />
<glyph unicode="&#x3f4;" horiz-adv-x="630" d="M526 617.5q74 -92.5 74 -270.5q0 -176 -74.5 -270t-210.5 -94t-210.5 93t-74.5 271q0 175 74.5 269t210.5 94q137 0 211 -92.5zM219 536q-31 -57 -31 -189q0 -134 30.5 -190.5t96.5 -56.5q67 0 97 56t30 191q0 132 -30.5 189t-96.5 57q-65 0 -96 -57zM403 398v-92h-176 v92h176z" />
<glyph unicode="&#x3f5;" horiz-adv-x="443" d="M325.5 105q20.5 8 44.5 26l66 -85q-71 -63 -163 -63q-115 0 -179.5 73t-64.5 206q0 87 29.5 151.5t84 99.5t127.5 35q96 0 166 -65l-64 -83q-24 19 -46 27t-46 8q-43 0 -67.5 -28t-28.5 -91h167v-90h-168q4 -70 29.5 -99.5t68.5 -29.5q24 0 44.5 8z" />
<glyph unicode="&#x3f6;" horiz-adv-x="442" d="M354 478q59 -70 59 -207t-62.5 -212.5t-176.5 -75.5q-50 0 -90.5 15t-76.5 45l67 87q26 -18 46.5 -26t45.5 -8q40 0 65 29.5t29 100.5h-168v90h167q-4 66 -24 93t-56 27q-49 0 -95 -35l-65 85q71 62 172 62q104 0 163 -70z" />
<glyph unicode="&#x3f7;" horiz-adv-x="544" d="M459 526.5q70 -57.5 70 -170.5q0 -121 -68.5 -181t-187.5 -60h-58v-115h-160v693h160v-109h46q128 0 198 -57.5zM339.5 259q26.5 29 26.5 97q0 60 -27 87t-82 27h-42v-240h44q54 0 80.5 29z" />
<glyph unicode="&#x3f8;" d="M467.5 475q44.5 -73 44.5 -208q0 -84 -23.5 -148.5t-66.5 -100t-101 -35.5q-71 0 -115 59v-245l-154 -18v963l154 16v-277q51 67 128 67q89 0 133.5 -73zM353 265q0 97 -17.5 133.5t-53.5 36.5q-43 0 -76 -59v-235q29 -44 69 -44q78 0 78 168z" />
<glyph unicode="&#x3f9;" horiz-adv-x="552" d="M441 691.5q49 -18.5 99 -57.5l-74 -90q-34 25 -64 36t-66 11q-69 0 -104 -56.5t-35 -186.5q0 -128 36 -184.5t106 -56.5q39 0 67.5 12.5t68.5 41.5l72 -89q-46 -40 -99.5 -64.5t-121.5 -24.5q-139 0 -217.5 92.5t-78.5 272.5q0 118 37 199t104 122t155 41q66 0 115 -18.5 z" />
<glyph unicode="&#x3fa;" horiz-adv-x="720" d="M690 0h-153l-9 274q-4 120 -4 177q0 70 2 103l-91 -481h-150l-96 481q4 -76 4 -161q0 -38 -2 -122l-9 -271h-152l46 693h200l87 -472l80 472h201z" />
<glyph unicode="&#x3fb;" horiz-adv-x="609" d="M584 0h-144l-9 194q-1 19 -1 54q0 57 5 149l-72 -343h-125l-71 342q5 -77 5 -128q0 -24 -2 -74l-21 -404l-144 -11l55 752h180l61 -345l61 345h181z" />
<glyph unicode="&#x3fc;" horiz-adv-x="536" d="M197 40v-93h122v-91h-122v-61l-154 -17v78h-50v91h50v334q0 267 227 267q113 0 172.5 -70.5t59.5 -210.5q0 -80 -23.5 -145t-67 -102t-100.5 -37q-72 0 -114 57zM213.5 398.5q-16.5 -37.5 -16.5 -127.5v-127q27 -48 70 -48q77 0 77 169q0 98 -18.5 134.5t-55.5 36.5 q-40 0 -56.5 -37.5z" />
<glyph unicode="&#x3fd;" horiz-adv-x="552" d="M445 617.5q76 -92.5 76 -269.5q0 -180 -78.5 -272.5t-217.5 -92.5q-71 0 -123 23.5t-97 65.5l73 90q34 -27 65.5 -41t73.5 -14q67 0 102.5 56t35.5 185q0 131 -32.5 187t-97.5 56q-39 0 -70 -11.5t-68 -35.5l-75 90q50 38 102.5 57t119.5 19q135 0 211 -92.5z" />
<glyph unicode="&#x3fe;" horiz-adv-x="552" d="M441 691.5q49 -18.5 99 -57.5l-74 -90q-34 25 -64 36t-66 11q-69 0 -104 -56.5t-35 -186.5q0 -128 36 -184.5t106 -56.5q39 0 67.5 12.5t68.5 41.5l72 -89q-46 -40 -99.5 -64.5t-121.5 -24.5q-139 0 -217.5 92.5t-78.5 272.5q0 118 37 199t104 122t155 41q66 0 115 -18.5 zM409 410.5q24 -23.5 24 -58.5t-23.5 -58.5t-60.5 -23.5t-60.5 23.5t-23.5 58.5t24 58.5t60 23.5t60 -23.5z" />
<glyph unicode="&#x3ff;" horiz-adv-x="552" d="M445 617.5q76 -92.5 76 -269.5q0 -180 -78.5 -272.5t-217.5 -92.5q-71 0 -123 23.5t-97 65.5l73 90q34 -27 65.5 -41t73.5 -14q67 0 102.5 56t35.5 185q0 131 -32.5 187t-97.5 56q-39 0 -70 -11.5t-68 -35.5l-75 90q50 38 102.5 57t119.5 19q135 0 211 -92.5zM256 410.5 q24 -23.5 24 -58.5t-23.5 -58.5t-60.5 -23.5t-60.5 23.5t-23.5 58.5t24 58.5t60 23.5t60 -23.5z" />
<glyph unicode="&#x400;" horiz-adv-x="474" d="M447 693l-17 -114h-215v-171h188v-112h-188v-180h230v-116h-390v693h392zM179 949l200 -122l-39 -76l-219 85z" />
<glyph unicode="&#x401;" horiz-adv-x="474" d="M447 693l-17 -114h-215v-171h188v-112h-188v-180h230v-116h-390v693h392zM202 901q22 -22 22 -55t-22 -55.5t-55 -22.5q-32 0 -54.5 22.5t-22.5 55.5q0 32 22.5 54.5t54.5 22.5q33 0 55 -22zM414.5 901q22.5 -22 22.5 -55t-22 -55.5t-56 -22.5q-32 0 -54.5 22.5 t-22.5 55.5q0 32 22.5 54.5t54.5 22.5q33 0 55.5 -22z" />
<glyph unicode="&#x402;" horiz-adv-x="681" d="M608 409.5q52 -59.5 51 -165.5v-139q0 -117 -54.5 -177.5t-152.5 -94.5l-45 111q53 24 72.5 57.5t19.5 96.5v146q0 54 -19.5 80t-60.5 26q-56 0 -94 -43v-307h-160v572h-158v121h484l-17 -121h-149v-158q55 55 139 55q92 0 144 -59.5z" />
<glyph unicode="&#x403;" horiz-adv-x="462" d="M463 693l-16 -126h-232v-567h-160v693h408zM338 950l58 -113l-219 -86l-39 77z" />
<glyph unicode="&#x404;" horiz-adv-x="524" d="M520 72q-37 -39 -89 -64t-117 -25q-84 0 -148 41t-100 123t-36 201q0 117 36.5 198t101.5 122.5t150 41.5q59 0 106 -19t89 -57l-76 -88q-55 47 -111 47q-57 0 -93 -44.5t-41 -137.5h210v-112h-210q4 -99 40 -147.5t95 -48.5q35 0 62 14t60 41z" />
<glyph unicode="&#x405;" horiz-adv-x="519" d="M385.5 687.5q53.5 -22.5 97.5 -66.5l-73 -84q-65 56 -133 56q-38 0 -60 -19t-22 -52q0 -22 10 -37t35 -29t74 -32q64 -24 103.5 -51.5t60.5 -68.5t21 -102q0 -64 -30.5 -113.5t-88 -77.5t-134.5 -28q-145 0 -241 98l78 87q37 -32 74.5 -49t79.5 -17q46 0 71 24t25 64 q0 38 -23 61t-87 46q-104 39 -148 88t-44 125q0 59 30 104.5t82.5 70.5t118.5 25q70 0 123.5 -22.5z" />
<glyph unicode="&#x406;" horiz-adv-x="269" d="M215 693v-693h-160v693h160z" />
<glyph unicode="&#x407;" horiz-adv-x="269" d="M215 693v-693h-160v693h160zM84 901q22 -22 22 -55t-22 -55.5t-55 -22.5q-32 0 -54.5 22.5t-22.5 55.5q0 32 22.5 54.5t54.5 22.5q33 0 55 -22zM296.5 901q22.5 -22 22.5 -55t-22 -55.5t-56 -22.5q-32 0 -54.5 22.5t-22.5 55.5q0 32 22.5 54.5t54.5 22.5q33 0 55.5 -22z " />
<glyph unicode="&#x408;" horiz-adv-x="290" d="M238 105q0 -118 -56 -178t-153 -94l-42 113q39 17 58.5 38t26 50t6.5 77v582h160v-588z" />
<glyph unicode="&#x409;" horiz-adv-x="845" d="M766.5 400q65.5 -55 65.5 -166q0 -118 -68 -176t-187 -58h-210v571h-105l-24 -240q-13 -123 -33.5 -190t-59 -103t-107.5 -55l-38 113q30 14 45.5 36.5t25 67.5t19.5 140l37 354l1 -1h400l-1 -1v-237h50q124 0 189.5 -55zM641 143.5q24 27.5 24 88.5q0 58 -24.5 85 t-78.5 27h-35v-228h40q50 0 74 27.5z" />
<glyph unicode="&#x40a;" horiz-adv-x="859" d="M778.5 386.5q67.5 -54.5 67.5 -160.5q0 -114 -68 -170t-191 -56h-204v327h-168v-327h-160v693h160v-252h168v252h160v-252h48q120 0 187.5 -54.5zM657.5 142.5q23.5 25.5 23.5 81.5q0 53 -23 78t-73 25h-42v-210h44q47 0 70.5 25.5z" />
<glyph unicode="&#x40b;" horiz-adv-x="681" d="M607.5 409.5q51.5 -59.5 51.5 -165.5v-244h-160v244q0 54 -19.5 80t-60.5 26q-56 0 -94 -43v-307h-160v572h-158v121h484l-17 -121h-149v-158q55 55 139 55q92 0 143.5 -59.5z" />
<glyph unicode="&#x40c;" horiz-adv-x="572" d="M561 693l-150 -315l167 -378h-170l-132 303h-61v-303h-160v693h160v-273h65l128 273h153zM357 950l58 -113l-219 -86l-39 77z" />
<glyph unicode="&#x40d;" horiz-adv-x="599" d="M544 0h-153v264q0 135 20 271l-166 -535h-190v693h152v-268q0 -81 -5 -141t-14 -126l168 535h188v-693zM227 949l200 -122l-39 -76l-219 85z" />
<glyph unicode="&#x40e;" horiz-adv-x="524" d="M378 206q-27 -80 -63 -126t-86 -67.5t-127 -29.5l-20 108q61 8 93 28t53 65h-52l-190 509h161l126 -419l110 419h160zM150.5 792q-40.5 41 -46.5 111l83 15q8 -32 26 -46t50 -14q31 0 49.5 14t25.5 46l84 -15q-6 -69 -47 -110.5t-112 -41.5q-72 0 -112.5 41z" />
<glyph unicode="&#x40f;" horiz-adv-x="596" d="M541 693v-693h-180v-165h-109l-17 165h-180v693h160v-568h166v568h160z" />
<glyph unicode="&#x410;" d="M389 0l-31 151h-176l-31 -151h-162l187 693h192l186 -693h-165zM206 266h128l-64 310z" />
<glyph unicode="&#x411;" d="M463.5 390.5q65.5 -54.5 65.5 -161.5q0 -114 -68 -171.5t-188 -57.5h-218v693h400l-16 -121h-224v-127h61q122 0 187.5 -54.5zM338 142.5q24 26.5 24 84.5q0 54 -24.5 80.5t-77.5 26.5h-45v-218h48q51 0 75 26.5z" />
<glyph unicode="&#x412;" horiz-adv-x="559" d="M498.5 315q40.5 -38 40.5 -113q0 -202 -279 -202h-205v693h181q133 0 205 -43.5t72 -133.5q0 -60 -34 -97.5t-87 -51.5q66 -14 106.5 -52zM215 580v-165h44q92 0 92 85q0 41 -24 60.5t-76 19.5h-36zM346 137q29 21 29 73q0 98 -106 98h-54v-192h46q56 0 85 21z" />
<glyph unicode="&#x413;" horiz-adv-x="462" d="M463 693l-16 -126h-232v-567h-160v693h408z" />
<glyph unicode="&#x414;" horiz-adv-x="581" d="M565 122v-287h-109l-17 165h-319l-17 -165h-109v287h41q26 33 41 94t31 202l29 275h373v-571h56zM355 575h-83l-14 -143q-9 -94 -21 -151.5t-29.5 -93.5t-45.5 -65h193v453z" />
<glyph unicode="&#x415;" horiz-adv-x="474" d="M447 693l-17 -114h-215v-171h188v-112h-188v-180h230v-116h-390v693h392z" />
<glyph unicode="&#x416;" horiz-adv-x="823" d="M815 693l-150 -315l166 -378h-170l-124 304h-52v-304h-146v304h-54l-126 -304h-166l165 378l-149 315h154l126 -275h50v275h146v-275h49l128 275h153z" />
<glyph unicode="&#x417;" horiz-adv-x="491" d="M90 7.5q-54 24.5 -94 72.5l83 82q31 -31 60.5 -45.5t64.5 -14.5q46 0 72.5 26.5t26.5 76.5q0 49 -26.5 76t-79.5 27h-67l18 115h52q43 0 65.5 23t22.5 65q0 37 -18.5 60t-58.5 23q-59 0 -123 -55l-73 80q89 91 217 91q67 0 116.5 -23.5t76.5 -65t27 -93.5 q0 -61 -36 -102.5t-108 -57.5q78 -10 120.5 -53t42.5 -118q0 -64 -32 -112.5t-90 -75t-132 -26.5q-73 0 -127 24.5z" />
<glyph unicode="&#x418;" horiz-adv-x="599" d="M544 0h-153v264q0 135 20 271l-166 -535h-190v693h152v-268q0 -81 -5 -141t-14 -126l168 535h188v-693z" />
<glyph unicode="&#x419;" horiz-adv-x="599" d="M544 0h-153v264q0 135 20 271l-166 -535h-190v693h152v-268q0 -81 -5 -141t-14 -126l168 535h188v-693zM187.5 792q-40.5 41 -46.5 111l83 15q8 -32 26 -46t50 -14q31 0 49.5 14t25.5 46l84 -15q-6 -69 -47 -110.5t-112 -41.5q-72 0 -112.5 41z" />
<glyph unicode="&#x41a;" horiz-adv-x="572" d="M561 693l-150 -315l167 -378h-170l-132 303h-61v-303h-160v693h160v-273h65l128 273h153z" />
<glyph unicode="&#x41b;" horiz-adv-x="592" d="M537 693v-693h-160v571h-113l-25 -240q-13 -123 -34 -190t-59 -103t-108 -55l-38 113q30 14 45.5 36.5t25 67.5t19.5 140l37 353h410z" />
<glyph unicode="&#x41c;" horiz-adv-x="720" d="M690 0h-153l-9 274q-4 120 -4 177q0 70 2 103l-91 -481h-150l-96 481q4 -76 4 -161q0 -38 -2 -122l-9 -271h-152l46 693h200l87 -472l80 472h201z" />
<glyph unicode="&#x41d;" horiz-adv-x="602" d="M388 0v298h-173v-298h-160v693h160v-270h173v270h160v-693h-160z" />
<glyph unicode="&#x41e;" horiz-adv-x="630" d="M526 617.5q74 -92.5 74 -270.5q0 -176 -74.5 -270t-210.5 -94t-210.5 93t-74.5 271q0 175 74.5 269t210.5 94q137 0 211 -92.5zM225.5 536q-28.5 -57 -28.5 -189q0 -134 29 -190.5t89 -56.5q61 0 89.5 56.5t28.5 190.5q0 132 -28.5 189t-89.5 57t-89.5 -57z" />
<glyph unicode="&#x41f;" horiz-adv-x="601" d="M547 693v-693h-161v570h-171v-570h-160v693h492z" />
<glyph unicode="&#x420;" horiz-adv-x="544" d="M457.5 636q71.5 -57 71.5 -168q0 -117 -69.5 -176.5t-191.5 -59.5h-53v-232h-160v693h198q133 0 204.5 -57zM338 375.5q27 27.5 27 91.5q0 57 -26.5 84.5t-83.5 27.5h-40v-231h40q56 0 83 27.5z" />
<glyph unicode="&#x421;" horiz-adv-x="524" d="M424 691q47 -19 89 -57l-76 -89q-27 23 -53.5 34.5t-56.5 11.5q-130 0 -130 -243q0 -241 131 -241q34 0 60.5 13.5t59.5 39.5l72 -88q-37 -39 -88.5 -64t-113.5 -25q-87 0 -151.5 41t-100.5 123t-36 201q0 116 37 197.5t101.5 123t148.5 41.5q60 0 107 -19z" />
<glyph unicode="&#x422;" horiz-adv-x="490" d="M491 693l-17 -122h-149v-571h-160v571h-158v122h484z" />
<glyph unicode="&#x423;" horiz-adv-x="524" d="M378 206q-27 -80 -63 -126t-86 -67.5t-127 -29.5l-20 108q61 8 93 28t53 65h-52l-190 509h161l126 -419l110 419h160z" />
<glyph unicode="&#x424;" horiz-adv-x="770" d="M675.5 124.5q-77.5 -75.5 -212.5 -81.5v-82h-156v82q-135 7 -212.5 81.5t-77.5 221.5q0 151 77.5 226.5t212.5 81.5v77h156v-77q135 -7 212.5 -81.5t77.5 -221.5q0 -151 -77.5 -226.5zM560 197.5q32 48.5 32 153.5q0 103 -33 150.5t-104 53.5v-413q73 7 105 55.5z M211.5 195.5q32.5 -47.5 103.5 -53.5v413q-73 -7 -104.5 -55t-31.5 -154q0 -103 32.5 -150.5z" />
<glyph unicode="&#x425;" horiz-adv-x="530" d="M357 374l179 -374h-171l-104 267l-100 -267h-167l173 368l-160 325h170l86 -225l92 225h166z" />
<glyph unicode="&#x426;" horiz-adv-x="622" d="M541 122h72v-287h-109l-17 165h-432v693h160v-568h166v568h160v-571z" />
<glyph unicode="&#x427;" horiz-adv-x="563" d="M508 693v-693h-160v257q-31 -27 -63.5 -40t-74.5 -13q-88 0 -140 57.5t-52 159.5v272h157v-263q0 -58 20 -82.5t62 -24.5q55 0 91 38v332h160z" />
<glyph unicode="&#x428;" horiz-adv-x="821" d="M767 693v-693h-712v693h156v-568h125v568h149v-568h125v568h157z" />
<glyph unicode="&#x429;" horiz-adv-x="847" d="M767 122h72v-287h-109l-17 165h-658v693h156v-568h125v568h149v-568h125v568h157v-571z" />
<glyph unicode="&#x42a;" horiz-adv-x="652" d="M574.5 400q65.5 -55 65.5 -166q0 -118 -67.5 -176t-187.5 -58h-219v573l-1 -1h-158v121h319v-238h59q124 0 189.5 -55zM449 143.5q24 27.5 24 88.5q0 58 -24.5 85t-77.5 27h-45v-228h49q50 0 74 27.5z" />
<glyph unicode="&#x42b;" horiz-adv-x="777" d="M453.5 400q65.5 -55 65.5 -166q0 -117 -67.5 -175.5t-183.5 -58.5h-213v693h160v-238h49q124 0 189.5 -55zM562 693h160v-693h-160v693zM328.5 143.5q24.5 27.5 24.5 88.5q0 58 -24 85t-77 27h-37v-228h39q50 0 74.5 27.5z" />
<glyph unicode="&#x42c;" horiz-adv-x="542" d="M463.5 400q65.5 -55 65.5 -166q0 -118 -67.5 -176t-187.5 -58h-219v693h160v-238h59q124 0 189.5 -55zM338 143.5q24 27.5 24 88.5q0 58 -24.5 85t-77.5 27h-45v-228h49q50 0 74 27.5z" />
<glyph unicode="&#x42d;" horiz-adv-x="492" d="M396 621.5q66 -88.5 66 -270.5t-70.5 -275t-198.5 -93q-110 0 -188 80l71 86q28 -23 52.5 -34t56.5 -11q55 0 83.5 46.5t31.5 148.5h-205v112h205q-4 98 -30 140t-75 42q-32 0 -57 -11t-55 -36l-73 86q42 40 88 59t109 19q123 0 189 -88.5z" />
<glyph unicode="&#x42e;" horiz-adv-x="852" d="M750 617.5q72 -92.5 72 -270.5q0 -176 -72 -270t-205 -94q-123 0 -189.5 79.5t-77.5 233.5h-63v-296h-160v693h160v-272h65q36 289 265 289q133 0 205 -92.5zM628.5 157q26.5 56 26.5 190q0 133 -26.5 189.5t-83.5 56.5q-56 0 -82.5 -57t-26.5 -192q0 -131 26.5 -187 t82.5 -56q57 0 83.5 56z" />
<glyph unicode="&#x42f;" horiz-adv-x="555" d="M501 693v-693h-160v251h-67l-101 -251h-171l134 280q-54 26 -81.5 72.5t-27.5 118.5q0 222 265 222h209zM341 363v217h-44q-53 0 -79 -27.5t-26 -85.5q0 -52 25 -78t68 -26h56z" />
<glyph unicode="&#x430;" horiz-adv-x="497" d="M450 107q7 -13 24 -20l-32 -101q-46 4 -75 21t-45 53q-49 -77 -143 -77q-72 0 -114.5 45.5t-42.5 120.5q0 87 58.5 133t169.5 46h42v25q0 47 -17 65.5t-60 18.5q-49 0 -125 -27l-35 99q44 19 94 29t93 10q103 0 152 -46t49 -140v-215q0 -27 7 -40zM263.5 106 q17.5 13 28.5 37v99h-28q-47 0 -69 -19.5t-22 -60.5q0 -34 13.5 -51.5t38.5 -17.5q21 0 38.5 13z" />
<glyph unicode="&#x431;" horiz-adv-x="524" d="M406.5 466q40.5 -28 64.5 -83.5t24 -134.5q0 -127 -62 -196t-170 -69q-111 0 -172.5 75t-61.5 239q0 117 18 190.5t61.5 120t121.5 74.5q55 20 86.5 34.5t72.5 39.5l56 -96q-33 -22 -67.5 -38.5t-88.5 -36.5q-39 -15 -61.5 -33.5t-35.5 -51t-18 -88.5q50 82 141 82 q51 0 91.5 -28zM317.5 127q18.5 30 18.5 116q0 79 -16 108.5t-49 29.5q-25 0 -47 -16.5t-36 -51.5v-68q0 -81 18.5 -114.5t55.5 -33.5t55.5 30z" />
<glyph unicode="&#x432;" horiz-adv-x="506" d="M477 161q0 -81 -58.5 -121t-161.5 -40h-205v527q119 21 196 21q98 0 153.5 -38t55.5 -106q0 -44 -27 -73t-80 -40q127 -15 127 -130zM206 448v-126h43q28 0 43 14.5t15 49.5q0 36 -14.5 50t-46.5 14q-10 0 -40 -2zM304 116q17 16 17 56q0 38 -15.5 53.5t-50.5 15.5h-49 v-141h48q33 0 50 16z" />
<glyph unicode="&#x433;" horiz-adv-x="393" d="M206 0h-154v531h347l-18 -117h-175v-414z" />
<glyph unicode="&#x434;" horiz-adv-x="507" d="M498 114v-279h-104l-17 165h-258l-17 -165h-104v279h32q15 12 25 32t18 63.5t14 123.5l14 198h346v-417h51zM304 429h-71l-6 -85q-8 -105 -27 -155t-58 -75h162v315z" />
<glyph unicode="&#x435;" horiz-adv-x="507" d="M480 220h-296q6 -70 31 -97t71 -27q30 0 57 11t59 34l63 -85q-82 -73 -191 -73q-120 0 -182.5 74.5t-62.5 205.5q0 128 60 206.5t169 78.5q105 0 165 -70.5t60 -201.5q0 -32 -3 -56zM332 320q0 63 -16.5 94.5t-55.5 31.5q-35 0 -54 -29.5t-23 -103.5h149v7z" />
<glyph unicode="&#x436;" horiz-adv-x="682" d="M674 531l-107 -247l117 -284h-150l-87 228h-39v-228h-134v228h-39l-87 -228h-150l118 284l-108 247h139l86 -209h41v209h134v-209h41l87 209h138z" />
<glyph unicode="&#x437;" horiz-adv-x="452" d="M346 508q54 -40 54 -107q0 -45 -27.5 -74t-84.5 -44q68 -10 101.5 -41t33.5 -89q0 -83 -61 -126.5t-164 -43.5q-118 0 -197 65l71 83q32 -21 58 -29.5t58 -8.5q76 0 76 68q0 33 -20.5 48t-61.5 15h-68l8 99h49q73 0 73 63q0 28 -16.5 41.5t-44.5 13.5q-27 0 -50 -8.5 t-48 -25.5l-70 79q80 62 195 62q82 0 136 -40z" />
<glyph unicode="&#x438;" horiz-adv-x="535" d="M483 0h-142v190q0 110 22 192l-157 -382h-154v531h143v-192q0 -105 -21 -191l154 383h155v-531z" />
<glyph unicode="&#x439;" horiz-adv-x="535" d="M483 0h-142v190q0 110 22 192l-157 -382h-154v531h143v-192q0 -105 -21 -191l154 383h155v-531zM155.5 674q-40.5 41 -46.5 111l83 15q8 -32 26 -46t50 -14q31 0 49.5 14t25.5 46l84 -15q-6 -69 -47 -110.5t-112 -41.5q-72 0 -112.5 41z" />
<glyph unicode="&#x43a;" horiz-adv-x="501" d="M496 531l-123 -246l133 -285h-158l-101 229h-41v-229h-154v531h154v-208h44l102 208h144z" />
<glyph unicode="&#x43b;" horiz-adv-x="515" d="M463 531v-531h-154v418h-81l-10 -127q-8 -114 -23 -170t-48 -86t-101 -48l-38 112q27 13 39.5 29.5t19 53.5t11.5 117l15 232h370z" />
<glyph unicode="&#x43c;" horiz-adv-x="614" d="M589 0h-144l-8 194q-1 23 -1 67q0 69 4 136l-71 -343h-126l-71 343q5 -83 5 -139q0 -42 -1 -64l-7 -194h-144l40 531h180l61 -345l61 345h181z" />
<glyph unicode="&#x43d;" horiz-adv-x="531" d="M325 0v213h-119v-213h-154v531h154v-205h119v205h154v-531h-154z" />
<glyph unicode="&#x43e;" horiz-adv-x="534" d="M442.5 475.5q63.5 -72.5 63.5 -210.5q0 -132 -64 -207t-175 -75q-112 0 -175 73t-63 210q0 133 63.5 207.5t174.5 74.5q112 0 175.5 -72.5zM207 395q-19 -39 -19 -129q0 -92 19 -131t60 -39t60.5 39.5t19.5 129.5q0 92 -19 130.5t-61 38.5q-41 0 -60 -39z" />
<glyph unicode="&#x43f;" horiz-adv-x="528" d="M322 0v417h-116v-417h-154v531h424v-531h-154z" />
<glyph unicode="&#x440;" d="M467.5 475q44.5 -73 44.5 -208q0 -84 -23.5 -148.5t-66.5 -100t-101 -35.5q-69 0 -115 55v-243l-154 -16v752h137l7 -58q54 75 139 75q88 0 132.5 -73zM353 265q0 97 -17.5 133.5t-51.5 36.5q-45 0 -78 -59v-235q29 -44 69 -44q78 0 78 168z" />
<glyph unicode="&#x441;" horiz-adv-x="436" d="M360 532q40 -16 75 -49l-64 -88q-23 18 -44 26.5t-45 8.5q-46 0 -69 -38t-23 -130q0 -88 23.5 -123t67.5 -35q23 0 42 7.5t45 25.5l67 -91q-69 -63 -163 -63q-114 0 -178.5 73t-64.5 205q0 87 29.5 152t84 100t127.5 35q50 0 90 -16z" />
<glyph unicode="&#x442;" horiz-adv-x="430" d="M436 531l-19 -114h-125v-417h-154v417h-136v114h434z" />
<glyph unicode="&#x443;" horiz-adv-x="476" d="M330 -1q-57 -207 -278 -221l-17 107q69 10 103 35.5t54 79.5h-55l-142 531h158l82 -433l91 433h155z" />
<glyph unicode="&#x444;" horiz-adv-x="762" d="M731 265q0 -88 -21 -151.5t-60 -97t-90 -33.5q-62 0 -107 53v-241l-144 -16v259q-46 -55 -109 -55q-51 0 -89 33.5t-59 97t-21 151.5q0 136 44.5 209.5t127.5 73.5q65 0 106 -51v261l144 -16v-247q43 53 112 53q166 0 166 -283zM309 135v262q-26 39 -61 39q-32 0 -47 -38 t-15 -133q0 -92 16 -131t46 -39q35 0 61 40zM561 133.5q15 38.5 15 131.5q0 96 -14 133.5t-45 37.5q-19 0 -34 -10t-30 -31v-260q26 -40 62 -40q31 0 46 38.5z" />
<glyph unicode="&#x445;" horiz-adv-x="469" d="M326 284l153 -284h-167l-82 201l-78 -201h-162l152 279l-138 252h165l65 -172l62 172h159z" />
<glyph unicode="&#x446;" horiz-adv-x="541" d="M470 114h73v-279h-104l-17 165h-370v531h154v-417h110v417h154v-417z" />
<glyph unicode="&#x447;" horiz-adv-x="500" d="M448 531v-531h-154v200q-56 -51 -130 -51q-68 0 -103.5 40.5t-35.5 113.5v228h154v-211q0 -30 11 -43.5t33 -13.5q19 0 38 9.5t33 24.5v234h154z" />
<glyph unicode="&#x448;" horiz-adv-x="706" d="M654 531v-531h-602v531h146v-417h91v417h129v-417h90v417h146z" />
<glyph unicode="&#x449;" horiz-adv-x="724" d="M654 114h72v-279h-104l-17 165h-553v531h146v-417h91v417h129v-417h90v417h146v-417z" />
<glyph unicode="&#x44a;" horiz-adv-x="560" d="M493 319q55 -46 55 -137q0 -92 -56.5 -137t-157.5 -45h-196v421h-136v110h290v-166h27q119 0 174 -46zM376.5 121q16.5 19 16.5 64q0 44 -16 63.5t-56 19.5h-29v-166h34q34 0 50.5 19z" />
<glyph unicode="&#x44b;" horiz-adv-x="697" d="M399 319q55 -46 55 -137q0 -92 -57 -137t-158 -45h-187v531h154v-166h22q116 0 171 -46zM491 531h154v-531h-154v531zM284.5 121q16.5 19 16.5 64t-16 64t-57 19h-22v-166h27q35 0 51.5 19z" />
<glyph unicode="&#x44c;" horiz-adv-x="474" d="M407 319q55 -46 55 -137q0 -92 -56.5 -137t-157.5 -45h-196v531h154v-166h27q119 0 174 -46zM290.5 121q16.5 19 16.5 64q0 44 -16 63.5t-56 19.5h-29v-166h34q34 0 50.5 19z" />
<glyph unicode="&#x44d;" horiz-adv-x="442" d="M354 478q59 -70 59 -207t-62.5 -212.5t-176.5 -75.5q-50 0 -90.5 15t-76.5 45l67 87q26 -18 46.5 -26t45.5 -8q40 0 65 29.5t29 100.5h-168v90h167q-4 66 -24 93t-56 27q-49 0 -95 -35l-65 85q71 62 172 62q104 0 163 -70z" />
<glyph unicode="&#x44e;" horiz-adv-x="737" d="M647.5 475.5q60.5 -72.5 60.5 -210.5q0 -86 -27.5 -150t-78.5 -98t-118 -34q-94 0 -150 59.5t-70 173.5h-58v-216h-154v531h154v-208h59q14 108 70 166.5t149 58.5q103 0 163.5 -72.5zM537 136q16 39 16 129q0 92 -16 130.5t-53 38.5t-53 -38t-16 -130q0 -91 16.5 -130 t52.5 -39q37 0 53 39z" />
<glyph unicode="&#x44f;" horiz-adv-x="505" d="M452 531v-531h-154v186h-54l-83 -186h-159l109 224q-75 41 -75 134q0 85 58.5 129t172.5 44h185zM298 278v154h-33q-38 0 -56 -18.5t-18 -56.5q0 -41 17 -60t54 -19h36z" />
<glyph unicode="&#x450;" horiz-adv-x="507" d="M480 220h-296q6 -70 31 -97t71 -27q30 0 57 11t59 34l63 -85q-82 -73 -191 -73q-120 0 -182.5 74.5t-62.5 205.5q0 128 60 206.5t169 78.5q105 0 165 -70.5t60 -201.5q0 -32 -3 -56zM332 320q0 63 -16.5 94.5t-55.5 31.5q-35 0 -54 -29.5t-23 -103.5h149v7zM199 830 l199 -131l-42 -76l-217 94z" />
<glyph unicode="&#x451;" horiz-adv-x="507" d="M480 220h-296q6 -70 31 -97t71 -27q30 0 57 11t59 34l63 -85q-82 -73 -191 -73q-120 0 -182.5 74.5t-62.5 205.5q0 128 60 206.5t169 78.5q105 0 165 -70.5t60 -201.5q0 -32 -3 -56zM332 320q0 63 -16.5 94.5t-55.5 31.5q-35 0 -54 -29.5t-23 -103.5h149v7zM208 775 q22 -22 22 -55t-22 -55.5t-55 -22.5q-32 0 -54.5 22.5t-22.5 55.5q0 32 22.5 54.5t54.5 22.5q33 0 55 -22zM420.5 775q22.5 -22 22.5 -55t-22 -55.5t-56 -22.5q-32 0 -54.5 22.5t-22.5 55.5q0 32 22.5 54.5t54.5 22.5q33 0 55.5 -22z" />
<glyph unicode="&#x452;" horiz-adv-x="529" d="M445.5 505.5q35.5 -42.5 35.5 -118.5v-329q0 -81 -25.5 -134.5t-68.5 -86t-107 -58.5l-52 112q35 19 55.5 36t32 46t11.5 76v318q0 36 -10 50.5t-29 14.5q-38 0 -76 -65v-367h-154v597h-52v91h52v54l154 16v-70h118v-91h-118v-123q29 38 61.5 56t74.5 18q62 0 97.5 -42.5 z" />
<glyph unicode="&#x453;" horiz-adv-x="393" d="M206 0h-154v531h347l-18 -117h-175v-414zM289 830l60 -113l-217 -94l-42 76z" />
<glyph unicode="&#x454;" horiz-adv-x="443" d="M325.5 105q20.5 8 44.5 26l66 -85q-71 -63 -163 -63q-115 0 -179.5 73t-64.5 206q0 87 29.5 151.5t84 99.5t127.5 35q96 0 166 -65l-64 -83q-24 19 -46 27t-46 8q-43 0 -67.5 -28t-28.5 -91h167v-90h-168q4 -70 29.5 -99.5t68.5 -29.5q24 0 44.5 8z" />
<glyph unicode="&#x455;" horiz-adv-x="438" d="M324 531q46 -17 81 -48l-56 -84q-60 39 -113 39q-28 0 -43 -11.5t-15 -31.5q0 -15 7.5 -25.5t28.5 -21t63 -25.5q74 -25 109.5 -63t35.5 -103q0 -80 -61 -127t-156 -47q-61 0 -113.5 21t-89.5 57l73 82q62 -50 124 -50q31 0 48.5 13.5t17.5 37.5q0 19 -7.5 31t-28 23 t-63.5 26q-73 25 -106.5 63.5t-33.5 97.5q0 46 24 83t69 58.5t106 21.5q53 0 99 -17z" />
<glyph unicode="&#x456;" horiz-adv-x="259" d="M206 531v-531h-154v531h154zM192.5 783q25.5 -25 25.5 -62q0 -38 -25.5 -63t-64.5 -25t-64 25t-25 63q0 37 25 62t64 25t64.5 -25z" />
<glyph unicode="&#x457;" horiz-adv-x="259" d="M206 531v-531h-154v531h154zM77 775q22 -22 22 -55t-22 -55.5t-55 -22.5q-32 0 -54.5 22.5t-22.5 55.5q0 32 22.5 54.5t54.5 22.5q33 0 55 -22zM289.5 775q22.5 -22 22.5 -55t-22 -55.5t-56 -22.5q-32 0 -54.5 22.5t-22.5 55.5q0 32 22.5 54.5t54.5 22.5q33 0 55.5 -22z " />
<glyph unicode="&#x458;" horiz-adv-x="259" d="M206 48q0 -77 -25 -128.5t-68.5 -83t-107.5 -57.5l-51 112q35 19 55 36t31.5 44t11.5 71v489h154v-483zM192.5 783q25.5 -25 25.5 -62q0 -38 -25.5 -63t-64.5 -25t-64 25t-25 63q0 37 25 62t64 25t64.5 -25z" />
<glyph unicode="&#x459;" horiz-adv-x="719" d="M651.5 319q55.5 -46 55.5 -137q0 -92 -57 -137t-158 -45h-189v418h-75l-10 -127q-8 -114 -23 -170t-48 -86t-101 -48l-38 112q27 13 39.5 29.5t19 53.5t11.5 117l15 232h364v-166h20q119 0 174.5 -46zM534.5 121q16.5 19 16.5 64t-16 64t-56 19h-22v-166h27q34 0 50.5 19 z" />
<glyph unicode="&#x45a;" horiz-adv-x="737" d="M725 172q0 -85 -57.5 -128.5t-157.5 -43.5h-186v238h-118v-238h-154v531h154v-187h118v187h154v-187h21q226 0 226 -172zM558.5 118q16.5 17 16.5 57q0 37 -16 54t-57 17h-24v-145h29q35 0 51.5 17z" />
<glyph unicode="&#x45b;" horiz-adv-x="530" d="M445.5 506.5q35.5 -41.5 35.5 -113.5v-393h-154v372q0 33 -10 46.5t-28 13.5q-20 0 -38.5 -16.5t-38.5 -48.5v-367h-154v598h-52v90h52v54l154 16v-70h117v-90h-117v-125q28 38 61 56.5t75 18.5q62 0 97.5 -41.5z" />
<glyph unicode="&#x45c;" horiz-adv-x="501" d="M496 531l-123 -246l133 -285h-158l-101 229h-41v-229h-154v531h154v-208h44l102 208h144zM320 830l60 -113l-217 -94l-42 76z" />
<glyph unicode="&#x45d;" horiz-adv-x="535" d="M483 0h-142v190q0 110 22 192l-157 -382h-154v531h143v-192q0 -105 -21 -191l154 383h155v-531zM207 830l199 -131l-42 -76l-217 94z" />
<glyph unicode="&#x45e;" horiz-adv-x="476" d="M330 -1q-57 -207 -278 -221l-17 107q69 10 103 35.5t54 79.5h-55l-142 531h158l82 -433l91 433h155zM125.5 674q-40.5 41 -46.5 111l83 15q8 -32 26 -46t50 -14q31 0 49.5 14t25.5 46l84 -15q-6 -69 -47 -110.5t-112 -41.5q-72 0 -112.5 41z" />
<glyph unicode="&#x45f;" horiz-adv-x="523" d="M470 531v-531h-145v-165h-104l-17 165h-152v531h154v-417h110v417h154z" />
<glyph unicode="&#x460;" horiz-adv-x="810" d="M749 518q19 -92 19 -216q0 -166 -52 -242.5t-152 -76.5q-64 0 -103 29.5t-56 91.5q-15 -61 -54.5 -91t-98.5 -30q-107 0 -158.5 75t-51.5 244q0 124 19 216t52 175h148q-29 -102 -44 -187t-15 -196q0 -80 7 -125.5t22.5 -64.5t41.5 -19q54 0 54 73v225h158v-225 q0 -39 13.5 -56.5t41.5 -17.5q24 0 38.5 18t22 63.5t7.5 127.5q0 112 -16.5 197.5t-48.5 186.5h154q33 -83 52 -175z" />
<glyph unicode="&#x461;" horiz-adv-x="701" d="M670 242q0 -131 -48.5 -195t-131.5 -64q-118 0 -140 115q-14 -60 -47.5 -87.5t-91.5 -27.5q-85 0 -132.5 63.5t-47.5 195.5q0 156 56 289h139q-22 -79 -33.5 -146.5t-11.5 -135.5q0 -84 13.5 -118t41.5 -34q23 0 34 16.5t11 61.5v180l139 19v-199q0 -43 11.5 -60.5 t33.5 -17.5q27 0 41 32.5t14 120.5q0 66 -12 134t-33 147h138q57 -134 57 -289z" />
<glyph unicode="&#x462;" horiz-adv-x="609" d="M530 391q66 -55 66 -162q0 -114 -67.5 -171.5t-186.5 -57.5h-220v520h-122v97h122v76h160v-76h137v-97h-137v-74h60q122 0 188 -55zM406.5 142.5q24.5 26.5 24.5 84.5q0 54 -24.5 80.5t-79.5 26.5h-45v-218h49q51 0 75.5 26.5z" />
<glyph unicode="&#x463;" horiz-adv-x="481" d="M412.5 319.5q56.5 -45.5 56.5 -136.5q0 -92 -57.5 -137.5t-163.5 -45.5h-188v460h-54v91h54v106l154 16v-122h119l-13 -91h-106v-95h23q119 0 175.5 -45.5zM295.5 121q17.5 19 17.5 64q0 44 -16.5 63.5t-55.5 19.5h-27v-166h29q35 0 52.5 19z" />
<glyph unicode="&#x464;" horiz-adv-x="774" d="M770 72q-37 -39 -89 -64t-117 -25q-119 0 -194.5 79.5t-87.5 232.5h-67v-295h-160v693h160v-279h68q15 144 92 220t193 76q59 0 106 -19t89 -57l-76 -88q-55 47 -111 47q-57 0 -93 -44.5t-41 -137.5h210v-112h-210q4 -99 40 -147.5t95 -48.5q35 0 62 14t60 41z" />
<glyph unicode="&#x465;" horiz-adv-x="679" d="M561.5 105q20.5 8 44.5 26l66 -85q-71 -63 -163 -63q-105 0 -168.5 61t-73.5 174h-61v-218h-154v531h154v-209h63q14 105 77 165.5t160 60.5q96 0 166 -65l-64 -83q-24 19 -46 27t-46 8q-43 0 -67.5 -28t-28.5 -91h167v-90h-168q4 -70 29.5 -99.5t68.5 -29.5q24 0 44.5 8 z" />
<glyph unicode="&#x466;" horiz-adv-x="598" d="M454 0l-70 264h-29v-265h-111v265h-32l-69 -264h-154l218 693h188l214 -693h-155zM241 374h114l-57 218z" />
<glyph unicode="&#x467;" horiz-adv-x="531" d="M395 0l-55 190h-28v-190h-97v190h-26l-54 -190h-140l186 531h170l185 -531h-141zM217 285h95l-48 165z" />
<glyph unicode="&#x468;" horiz-adv-x="850" d="M706 0l-70 264h-29v-265h-111v265h-32l-69 -264h-154l83 263h-109v-264h-160v694h160v-319h144l100 319h188l214 -693h-155zM493 374h114l-57 218z" />
<glyph unicode="&#x469;" horiz-adv-x="723" d="M596 0l-53 198h-21v-198h-91v198h-20l-51 -198h-134l62 198h-82v-198h-154v531h154v-238h112l74 238h171l166 -531h-133zM435 293h82l-42 156z" />
</font>
</defs>
</svg>
