<?xml version="1.0" standalone="no"?>
<!DOCTYPE svg PUBLIC "-//W3C//DTD SVG 1.1//EN" "http://www.w3.org/Graphics/SVG/1.1/DTD/svg11.dtd" >
<svg xmlns="http://www.w3.org/2000/svg" xmlns:xlink="http://www.w3.org/1999/xlink" version="1.1">
<metadata></metadata>
<defs>
<font id="fira_sans_condensedthin" horiz-adv-x="504" >
<font-face units-per-em="1000" ascent="800" descent="-200" />
<missing-glyph horiz-adv-x="265" />
<glyph unicode="&#xfb01;" horiz-adv-x="495" />
<glyph unicode="&#xfb02;" horiz-adv-x="517" />
<glyph horiz-adv-x="0" />
<glyph unicode="&#xd;" horiz-adv-x="265" />
<glyph unicode=" "  horiz-adv-x="265" />
<glyph unicode="&#x09;" horiz-adv-x="265" />
<glyph unicode="&#xa0;" horiz-adv-x="265" />
<glyph unicode="!" horiz-adv-x="226" d="M124 681l-1 -479h-21v479h22zM129.5 30.5q6.5 -6.5 6.5 -16.5q0 -9 -6.5 -15.5t-16.5 -6.5t-16.5 6.5t-6.5 15.5q0 10 6.5 16.5t16.5 6.5t16.5 -6.5z" />
<glyph unicode="&#x22;" horiz-adv-x="315" d="M80 441l-3 240h23l-3 -240h-17zM218 441l-3 240h23l-3 -240h-17z" />
<glyph unicode="#" horiz-adv-x="439" d="M426 459h-73l-31 -239h71v-20h-74l-26 -200h-22l27 200h-190l-27 -200h-21l26 200h-73v20h76l31 239h-74v20h77l24 183h22l-24 -183h190l24 183h21l-24 -183h70v-20zM300 220l32 239h-190l-32 -239h190z" />
<glyph unicode="$" horiz-adv-x="471" d="M363.5 47.5q-46.5 -51.5 -121.5 -56.5v-137h-20v136q-54 1 -96 21t-78 58l14 14q36 -36 74 -54.5t90 -18.5q72 0 117 46t45 119q0 47 -15.5 77.5t-48.5 52.5t-90 42q-62 22 -97.5 45t-51 53t-15.5 73q0 63 42.5 106.5t111.5 46.5v140h20v-140q47 -2 80.5 -19t66.5 -49 l-14 -15q-32 32 -66 47t-79 15q-63 0 -101 -37.5t-38 -94.5q0 -39 14 -65.5t46 -46.5t88 -40q91 -32 130 -73t39 -117q0 -77 -46.5 -128.5z" />
<glyph unicode="%" horiz-adv-x="693" d="M549 695l18 -10l-415 -700l-18 10zM270.5 632q33.5 -41 33.5 -113q0 -74 -32.5 -116t-90.5 -42q-55 0 -88.5 41.5t-33.5 113.5q0 73 32.5 115t89.5 42q56 0 89.5 -41zM107 617q-25 -37 -25 -101q0 -62 25 -99t74 -37q50 0 75 37.5t25 101.5q0 62 -25.5 98.5t-74.5 36.5 t-74 -37zM601 261q33 -41 33 -113q0 -74 -32.5 -116t-89.5 -42q-56 0 -89.5 41.5t-33.5 113.5q0 74 32.5 115.5t90.5 41.5q56 0 89 -41zM436.5 246q-25.5 -37 -25.5 -101q0 -62 25.5 -99t75.5 -37q49 0 74 37.5t25 101.5q0 62 -25 98.5t-74 36.5q-50 0 -75.5 -37z" />
<glyph unicode="&#x26;" horiz-adv-x="645" d="M372 652q37 -40 37 -104q0 -57 -34.5 -97.5t-113.5 -89.5l212 -221q23 50 38 100.5t26 112.5l21 -5q-24 -127 -71 -222l116 -121l-17 -12l-110 114q-37 -56 -85.5 -86.5t-116.5 -30.5q-50 0 -91 22t-64 61.5t-23 91.5q0 66 32.5 111.5t100.5 88.5q-53 57 -73.5 92.5 t-20.5 86.5q0 65 39 106.5t101 41.5q60 0 97 -40zM190 636q-32 -36 -32 -91q0 -30 6.5 -52.5t25 -49t57.5 -67.5q74 44 107 82t33 90q0 58 -31.5 91t-80.5 33q-53 0 -85 -36zM149.5 269q-30.5 -44 -30.5 -104q0 -68 43.5 -111t111.5 -43q63 0 107.5 27.5t79.5 82.5l-218 231 q-63 -39 -93.5 -83z" />
<glyph unicode="'" horiz-adv-x="177" d="M80 441l-3 240h23l-3 -240h-17z" />
<glyph unicode="(" horiz-adv-x="293" d="M232 820q-51 -83 -81 -143.5t-49 -141t-19 -185.5t19 -185.5t49 -141t81 -143.5l-15 -9q-53 82 -84.5 144.5t-51.5 145t-20 189.5t20 189.5t51.5 145t84.5 144.5z" />
<glyph unicode=")" horiz-adv-x="293" d="M159.5 685q31.5 -63 51.5 -145.5t20 -189.5t-20 -189.5t-51.5 -145.5t-83.5 -144l-15 9q51 84 80.5 144t48.5 140.5t19 185.5t-19 185.5t-48.5 140.5t-80.5 144l15 9q52 -81 83.5 -144z" />
<glyph unicode="*" horiz-adv-x="395" d="M348 603l-137 -46l86 -127l-18 -12l-81 128l-83 -128l-17 12l87 126l-138 47l7 20l134 -52l-1 161h21l-1 -160l134 51z" />
<glyph unicode="+" horiz-adv-x="437" d="M230 494v-153h137v-21h-137v-153h-22v153h-138v21h138v153h22z" />
<glyph unicode="," horiz-adv-x="159" d="M98 31q6 -6 6 -16q0 -11 -9 -33l-40 -112h-17l35 124q-7 2 -11 7.5t-4 12.5q0 10 6.5 16.5t16.5 6.5q11 0 17 -6z" />
<glyph unicode="-" horiz-adv-x="359" d="M70 302v21h220v-21h-220z" />
<glyph unicode="." horiz-adv-x="156" d="M95 30.5q6 -6.5 6 -16.5q0 -9 -6 -15.5t-17 -6.5q-10 0 -16.5 6.5t-6.5 15.5q0 10 6.5 16.5t16.5 6.5q11 0 17 -6.5z" />
<glyph unicode="/" horiz-adv-x="468" d="M328 798l20 -6l-209 -887l-20 5z" />
<glyph unicode="0" horiz-adv-x="493" d="M422 330q0 -340 -175 -340q-176 0 -176 342q0 341 176 341q175 0 175 -343zM132.5 574q-38.5 -78 -38.5 -242t38.5 -242.5t114.5 -78.5t114 77.5t38 241.5q0 165 -38 243.5t-114 78.5t-114.5 -78z" />
<glyph unicode="1" horiz-adv-x="355" d="M233 661v-661h-22v634l-155 -109l-11 17l171 119h17z" />
<glyph unicode="2" horiz-adv-x="413" d="M305 627.5q41 -45.5 41 -117.5q0 -67 -24.5 -125.5t-78 -131.5t-180.5 -231h297l-5 -22h-319v21q127 156 183.5 234t80 134.5t23.5 119.5q0 65 -34.5 104t-94.5 39q-46 0 -81 -20.5t-64 -59.5l-17 11q35 46 73.5 68t88.5 22q70 0 111 -45.5z" />
<glyph unicode="3" horiz-adv-x="428" d="M306.5 628.5q41.5 -44.5 41.5 -117.5q0 -70 -35.5 -109.5t-91.5 -48.5q64 -4 103.5 -47t39.5 -123q0 -87 -47.5 -140t-126.5 -53q-53 0 -91.5 20t-73.5 63l16 11q33 -40 67.5 -57t80.5 -17q70 0 111.5 47.5t41.5 124.5q0 80 -42 120t-115 40h-34l2 20h31q36 0 68.5 16 t53 50t20.5 83q0 65 -35.5 103.5t-95.5 38.5q-40 0 -73 -15.5t-67 -49.5l-13 12q33 37 70.5 55t82.5 18q70 0 111.5 -44.5z" />
<glyph unicode="4" horiz-adv-x="454" d="M418 207v-20h-83v-187h-22v187h-267v18l185 468l19 -7l-181 -459h244l3 211h19v-211h83z" />
<glyph unicode="5" horiz-adv-x="427" d="M351 641h-251v-265q48 39 111 39q76 0 119.5 -53t43.5 -148q0 -101 -47.5 -162.5t-130.5 -61.5q-94 0 -158 75l17 13q28 -33 62.5 -50t79.5 -17q72 0 113 55t41 148q0 88 -38 134t-104 46q-34 0 -59.5 -9.5t-53.5 -30.5h-17v307h277z" />
<glyph unicode="6" horiz-adv-x="466" d="M368 375q42 -52 42 -153q0 -112 -43.5 -172t-117.5 -60q-92 0 -135 81.5t-43 216.5q0 120 24.5 206.5t70 132.5t109.5 46q30 0 53.5 -9.5t46.5 -27.5l-13 -16q-20 16 -41 24t-47 8q-84 0 -131.5 -92.5t-49.5 -247.5q65 115 164 115q69 0 111 -52zM352 67q36 56 36 154 q0 92 -35.5 138.5t-95.5 46.5q-52 0 -93 -34t-71 -94q2 -126 39 -196.5t117 -70.5q67 0 103 56z" />
<glyph unicode="7" horiz-adv-x="390" d="M351 661v-18l-247 -649l-21 8l245 639h-294v20h317z" />
<glyph unicode="8" horiz-adv-x="476" d="M387.5 272.5q31.5 -38.5 31.5 -105.5q0 -82 -49.5 -129.5t-131.5 -47.5q-83 0 -132 48t-49 130q0 137 141 194q-61 28 -87.5 62t-26.5 89q0 50 21 86.5t56.5 55t77.5 18.5q65 0 110 -41.5t45 -119.5q0 -55 -27 -93.5t-88 -72.5q77 -35 108.5 -73.5zM130.5 431.5 q24.5 -30.5 90.5 -60.5l41 -18q58 34 83.5 70t25.5 88q0 70 -36.5 106t-95.5 36q-57 0 -95 -37t-38 -104q0 -50 24.5 -80.5zM353.5 51q43.5 40 43.5 116q0 45 -15 74.5t-45 50.5t-83 45l-36 15q-72 -30 -105 -73.5t-33 -110.5q0 -76 43 -116.5t115 -40.5t115.5 40z" />
<glyph unicode="9" horiz-adv-x="459" d="M353 603.5q41 -69.5 41 -206.5q0 -121 -32.5 -200.5t-93.5 -129t-155 -82.5l-7 18q85 31 142 75t88.5 113t35.5 171q-63 -107 -158 -107q-71 0 -115 54.5t-44 149.5q0 101 47 157.5t123 56.5q87 0 128 -69.5zM301.5 305.5q37.5 29.5 70.5 88.5q-1 130 -35 194t-111 64 q-69 0 -108.5 -49.5t-39.5 -144.5q0 -86 37 -134t100 -48q49 0 86.5 29.5z" />
<glyph unicode=":" horiz-adv-x="156" d="M95 30.5q6 -6.5 6 -16.5q0 -9 -6 -15.5t-17 -6.5q-10 0 -16.5 6.5t-6.5 15.5q0 10 6.5 16.5t16.5 6.5q11 0 17 -6.5zM95 445.5q6 -6.5 6 -16.5q0 -9 -6 -15.5t-17 -6.5q-10 0 -16.5 6.5t-6.5 15.5q0 10 6.5 16.5t16.5 6.5q11 0 17 -6.5z" />
<glyph unicode=";" horiz-adv-x="159" d="M98 31q6 -6 6 -16q0 -11 -9 -33l-40 -112h-17l35 124q-7 2 -11 7.5t-4 12.5q0 10 6.5 16.5t16.5 6.5q11 0 17 -6zM95 445.5q6 -6.5 6 -16.5q0 -9 -6 -15.5t-17 -6.5q-10 0 -16.5 6.5t-6.5 15.5q0 10 6.5 16.5t16.5 6.5q11 0 17 -6.5z" />
<glyph unicode="&#x3c;" horiz-adv-x="445" d="M365 503l10 -18l-283 -152l283 -156l-10 -18l-295 166v16z" />
<glyph unicode="=" horiz-adv-x="437" d="M70 399v21h297v-21h-297zM70 241v21h297v-21h-297z" />
<glyph unicode="&#x3e;" horiz-adv-x="445" d="M80 503l295 -162v-16l-295 -166l-10 18l282 156l-282 152z" />
<glyph unicode="?" horiz-adv-x="404" d="M313 652.5q38 -38.5 38 -97.5q0 -34 -11 -58t-26.5 -40.5t-42.5 -38.5q-28 -22 -45 -39.5t-28.5 -44t-11.5 -63.5v-69h-21v71q0 40 12 68.5t29.5 46.5t45.5 40q39 30 58 56.5t19 70.5q0 52 -32.5 84t-85.5 32q-45 0 -77.5 -18.5t-64.5 -58.5l-16 12q34 44 72 64.5 t86 20.5q64 0 102 -38.5zM192.5 30.5q6.5 -6.5 6.5 -16.5q0 -9 -6.5 -15.5t-16.5 -6.5t-16.5 6.5t-6.5 15.5q0 10 6.5 16.5t16.5 6.5t16.5 -6.5z" />
<glyph unicode="@" horiz-adv-x="923" d="M670 640.5q80 -51.5 121 -138.5t41 -193q0 -157 -43 -225.5t-106 -68.5q-43 0 -70.5 31.5t-35.5 86.5q-44 -116 -135 -116q-65 0 -106 55.5t-41 159.5q0 82 24 137t64.5 81.5t90.5 26.5q59 0 119 -33v-260q0 -74 23.5 -112t66.5 -38q55 0 90.5 62.5t35.5 211.5 q0 103 -38.5 185t-113.5 130t-180 48q-106 0 -188.5 -57t-128 -155t-45.5 -217q0 -132 45.5 -226.5t127 -143t187.5 -48.5q89 0 166 32l6 -20q-40 -16 -81 -24.5t-91 -8.5q-111 0 -198 51.5t-136 150.5t-49 237q0 125 48.5 227.5t136 162.5t200.5 60t193 -51.5zM522.5 73 q33.5 36 48.5 95v264q-50 24 -96 24q-71 0 -114 -58.5t-43 -165.5q0 -95 34 -145t91 -50q46 0 79.5 36z" />
<glyph unicode="A" horiz-adv-x="509" d="M458 0l-62 203h-284l-62 -203h-22l212 681h28l213 -681h-23zM119 224h270l-135 439z" />
<glyph unicode="B" horiz-adv-x="529" d="M430.5 312q43.5 -44 43.5 -128q0 -91 -55.5 -137.5t-154.5 -46.5h-154v681h123q101 0 155.5 -43t54.5 -125q0 -64 -33 -102.5t-93 -49.5q70 -5 113.5 -49zM133 660v-290h139q68 0 107.5 39.5t39.5 102.5q0 73 -46.5 110.5t-136.5 37.5h-103zM402 61.5q49 40.5 49 122.5 q0 81 -46.5 123.5t-127.5 42.5h-144v-329h132q88 0 137 40.5z" />
<glyph unicode="C" horiz-adv-x="485" d="M391 676.5q34 -14.5 64 -43.5l-12 -15q-32 27 -61.5 39.5t-70.5 12.5q-98 0 -158 -81.5t-60 -248.5q0 -108 28 -181.5t76.5 -110t111.5 -36.5q46 0 77 14.5t63 42.5l14 -16q-67 -63 -155 -63q-70 0 -124 39.5t-84 118t-30 192.5q0 117 31 196t85 117t124 38 q47 0 81 -14.5z" />
<glyph unicode="D" horiz-adv-x="559" d="M414 609.5q75 -71.5 75 -261.5q0 -193 -76.5 -270.5t-188.5 -77.5h-114v681h110q119 0 194 -71.5zM133 660v-639h92q104 0 172 72.5t68 254.5t-68.5 247t-177.5 65h-86z" />
<glyph unicode="E" horiz-adv-x="446" d="M400 681l-3 -21h-264v-290h228v-21h-228v-328h274v-21h-297v681h290z" />
<glyph unicode="F" horiz-adv-x="425" d="M110 0v681h286l-3 -21h-260v-304h224v-21h-224v-335h-23z" />
<glyph unicode="G" horiz-adv-x="546" d="M395.5 677q35.5 -14 70.5 -45l-14 -16q-33 28 -65 41t-73 13q-58 0 -108 -33t-81.5 -106t-31.5 -186q0 -168 59.5 -250.5t164.5 -82.5q43 0 76.5 10.5t64.5 30.5v280h-130l-3 21h155v-313q-77 -51 -162 -51q-115 0 -181.5 89t-66.5 266q0 117 34.5 195t90 114.5 t119.5 36.5q46 0 81.5 -14z" />
<glyph unicode="H" horiz-adv-x="594" d="M462 0v349h-329v-349h-23v681h23v-311h329v311h22v-681h-22z" />
<glyph unicode="I" horiz-adv-x="243" d="M133 681v-681h-23v681h23z" />
<glyph unicode="J" horiz-adv-x="251" d="M146 87q0 -52 -9.5 -84t-35 -55.5t-74.5 -47.5l-7 16q43 22 64.5 44t30 51.5t8.5 77.5v592h23v-594z" />
<glyph unicode="K" horiz-adv-x="467" d="M133 681v-681h-23v681h23zM444 681l-281 -314l295 -367h-26l-296 367l282 314h26z" />
<glyph unicode="L" horiz-adv-x="411" d="M133 681v-659h259l-4 -22h-278v681h23z" />
<glyph unicode="M" horiz-adv-x="688" d="M617 0h-21l-35 345l-30 315l-176 -576h-23l-179 576q-3 -49 -24 -253q-1 -20 -5 -53l-32 -354h-22l66 681h33l175 -569l173 569h33z" />
<glyph unicode="N" horiz-adv-x="596" d="M486 0h-29l-328 655q3 -51 3 -178v-477h-22v681h29l328 -655q-3 120 -3 179v476h22v-681z" />
<glyph unicode="O" horiz-adv-x="620" d="M486.5 601.5q64.5 -89.5 64.5 -261.5q0 -169 -63.5 -259.5t-177.5 -90.5q-73 0 -127 40t-83.5 118.5t-29.5 190.5q0 113 30 192t84 119.5t126 40.5q112 0 176.5 -89.5zM151.5 585.5q-58.5 -84.5 -58.5 -246.5q0 -160 58.5 -243.5t158.5 -83.5q104 0 160.5 83t56.5 245 q0 164 -57.5 247t-159.5 83q-100 0 -158.5 -84.5z" />
<glyph unicode="P" horiz-adv-x="501" d="M394.5 633.5q57.5 -47.5 57.5 -149.5q0 -105 -61.5 -153.5t-176.5 -48.5h-81v-282h-23v681h108q119 0 176.5 -47.5zM375 345q54 42 54 138q0 94 -51 135.5t-160 41.5h-85v-357h83q105 0 159 42z" />
<glyph unicode="Q" horiz-adv-x="620" d="M483 -11q48 -15 85 -52l-16 -18q-45 42 -99 57.5t-143 15.5q-111 0 -175.5 89t-64.5 258q0 113 30 192t84 119.5t126 40.5q112 0 176.5 -89.5t64.5 -261.5q0 -152 -47.5 -233.5t-130.5 -100.5q62 -2 110 -17zM151.5 95.5q58.5 -83.5 158.5 -83.5q104 0 160.5 83t56.5 245 q0 164 -57.5 247t-159.5 83q-100 0 -158.5 -84.5t-58.5 -246.5q0 -160 58.5 -243.5z" />
<glyph unicode="R" horiz-adv-x="516" d="M451 0l-170 325l-19 -1h-129v-324h-23v681h126q111 0 161.5 -45t50.5 -132q0 -75 -38 -119t-105 -56l172 -329h-26zM378.5 384.5q46.5 39.5 46.5 119.5q0 77 -44 116.5t-148 39.5h-100v-315h115q84 0 130.5 39.5z" />
<glyph unicode="S" horiz-adv-x="483" d="M329.5 673.5q37.5 -17.5 72.5 -51.5l-15 -15q-34 33 -68 48t-80 15q-65 0 -105 -38.5t-40 -97.5q0 -40 14.5 -67.5t47.5 -48t91 -41.5q93 -32 133.5 -74.5t40.5 -120.5q0 -55 -24 -98.5t-67 -68.5t-98 -25q-57 0 -101 21t-83 61l15 14q37 -37 75.5 -55.5t92.5 -18.5 q75 0 121 47t46 122q0 48 -16 80t-49.5 54t-93.5 43q-93 33 -130.5 72t-37.5 104q0 43 21 79t59.5 57t87.5 21q53 0 90.5 -17.5z" />
<glyph unicode="T" horiz-adv-x="429" d="M418 681l-4 -21h-188v-660h-23v660h-188v21h403z" />
<glyph unicode="U" horiz-adv-x="575" d="M475 188q0 -89 -46.5 -143.5t-140.5 -54.5q-95 0 -141.5 54.5t-46.5 143.5v493h23v-491q0 -82 40 -130t125 -48q84 0 124 48.5t40 129.5v491h23v-493z" />
<glyph unicode="V" horiz-adv-x="488" d="M460 681l-202 -681h-28l-202 681h23l194 -659l192 659h23z" />
<glyph unicode="W" horiz-adv-x="717" d="M681 681l-143 -681h-27l-153 659l-152 -659h-27l-143 681h23l134 -657l151 657h28l153 -657l133 657h23z" />
<glyph unicode="X" horiz-adv-x="438" d="M231 370l193 -370h-24l-183 355l-179 -355h-24l189 369l-167 312h25l156 -297l155 297h24z" />
<glyph unicode="Y" horiz-adv-x="446" d="M427 681l-191 -410v-271h-23v270l-194 411h24l182 -389l178 389h24z" />
<glyph unicode="Z" horiz-adv-x="459" d="M414 681v-19l-352 -640h340l-3 -22h-362v21l352 639h-318v21h343z" />
<glyph unicode="[" horiz-adv-x="281" d="M208 796v-18h-96v-866h96v-18h-117v902h117z" />
<glyph unicode="\" horiz-adv-x="468" d="M139 798l209 -888l-20 -5l-209 888z" />
<glyph unicode="]" horiz-adv-x="281" d="M190 796v-902h-116v18h96v866h-96v18h116z" />
<glyph unicode="^" horiz-adv-x="473" d="M243 823l160 -296h-27l-141 269l-141 -269h-27l160 296h16z" />
<glyph unicode="_" horiz-adv-x="471" d="M39 -100v21h393v-21h-393z" />
<glyph unicode="`" horiz-adv-x="229" d="M45 760l158 -91l-9 -15l-161 84z" />
<glyph unicode="a" horiz-adv-x="476" d="M380 36q9 -21 32 -30l-5 -16q-29 10 -42 32.5t-14 66.5q-26 -50 -62.5 -74.5t-87.5 -24.5q-66 0 -104 42.5t-38 111.5q0 79 50.5 121.5t138.5 42.5h101v66q0 67 -27.5 101t-89.5 34q-61 0 -131 -32l-8 18q74 34 139 34q139 0 139 -153v-274q0 -45 9 -66zM349 121v167h-98 q-82 0 -125 -36.5t-43 -107.5q0 -62 31.5 -97.5t86.5 -35.5q99 0 148 110z" />
<glyph unicode="b" horiz-adv-x="511" d="M401.5 462q42.5 -67 42.5 -198q0 -132 -44.5 -203t-127.5 -71q-46 0 -83 25t-62 65l-2 -80h-20v733l22 3v-301q61 94 151 94q81 0 123.5 -67zM383 75.5q38 64.5 38 188.5q0 245 -144 245q-48 0 -82.5 -25t-67.5 -75v-302q59 -96 144 -96q74 0 112 64.5z" />
<glyph unicode="c" horiz-adv-x="415" d="M321.5 517q28.5 -12 55.5 -38l-13 -15q-23 23 -49 34t-59 11q-77 0 -122.5 -64t-45.5 -188q0 -122 45.5 -184t121.5 -62q64 0 114 47l13 -14q-56 -54 -126 -54q-87 0 -139 69t-52 198q0 130 51.5 201t139.5 71q37 0 65.5 -12z" />
<glyph unicode="d" horiz-adv-x="515" d="M410 733v-733h-20l-2 88q-50 -98 -147 -98q-80 0 -127 70.5t-47 197.5q0 124 49 197.5t134 73.5q88 0 138 -83v290zM328 39.5q34 28.5 60 84.5v291q-50 94 -138 94q-73 0 -116.5 -66.5t-43.5 -184.5q1 -119 41 -183t111 -64q52 0 86 28.5z" />
<glyph unicode="e" horiz-adv-x="476" d="M414 246h-326q2 -118 46.5 -176.5t118.5 -58.5q39 0 68.5 13.5t61.5 41.5l13 -15q-33 -30 -66.5 -45.5t-76.5 -15.5q-87 0 -137.5 69t-50.5 196q0 131 49 202.5t132 71.5q84 0 127 -65t43 -180q0 -16 -2 -38zM394 292q0 101 -37 159t-110 58q-70 0 -113.5 -61.5 t-45.5 -182.5h305q1 8 1 27z" />
<glyph unicode="f" horiz-adv-x="277" d="M154.5 692.5q-24.5 -23.5 -24.5 -72.5v-101h132l-3 -20h-129v-499h-22v499h-80v20h80v104q0 54 31 84t82 30q54 0 105 -31l-10 -17q-46 27 -93 27q-44 0 -68.5 -23.5z" />
<glyph unicode="g" horiz-adv-x="440" d="M425 526q-48 -14 -138 -15q45 -16 69.5 -55t24.5 -100q0 -78 -43 -122t-117 -44q-32 0 -67 14q-46 -30 -46 -75q0 -66 94 -66h67q69 0 107 -32.5t38 -87.5q0 -65 -47.5 -102.5t-140.5 -37.5q-99 0 -143 32.5t-44 106.5h21q2 -65 39 -91.5t127 -26.5q84 0 124.5 31 t40.5 87q0 48 -32 74.5t-91 26.5h-68q-56 0 -85 22.5t-29 60.5q0 50 51 86q-79 44 -79 146q0 79 44 125t118 46q92 0 128 4.5t70 16.5zM117 468.5q-36 -40.5 -36 -110.5q0 -71 39.5 -109.5t100.5 -38.5q65 0 101 37.5t36 108.5q0 72 -36.5 112.5t-101.5 40.5 q-67 0 -103 -40.5z" />
<glyph unicode="h" horiz-adv-x="524" d="M391.5 488.5q31.5 -40.5 31.5 -113.5v-375h-22v372q0 67 -26 102t-79 35q-52 0 -93 -32.5t-76 -94.5v-382h-22v733l22 3v-324q70 117 171 117q62 0 93.5 -40.5z" />
<glyph unicode="i" horiz-adv-x="233" d="M127 519v-519h-22v519h22zM130.5 718q5.5 -6 5.5 -14t-5.5 -13.5t-14.5 -5.5t-14.5 5.5t-5.5 13.5t5.5 14t14.5 6t14.5 -6z" />
<glyph unicode="j" horiz-adv-x="233" d="M128 -11q0 -54 -11 -87t-32 -54t-60 -43l-7 16q34 20 52 39.5t27 49.5t9 80v529h22v-530zM130.5 718q5.5 -6 5.5 -14t-5.5 -13.5t-14.5 -5.5t-14.5 5.5t-5.5 13.5t5.5 14t14.5 6t14.5 -6z" />
<glyph unicode="k" horiz-adv-x="418" d="M127 736v-736h-22v733zM380 519l-220 -235l243 -284h-27l-243 284l221 235h26z" />
<glyph unicode="l" horiz-adv-x="249" d="M118 9.5q-18 19.5 -18 56.5v667l22 3v-670q0 -27 12 -41.5t34 -14.5q17 0 35 8l7 -18q-24 -10 -43 -10q-31 0 -49 19.5z" />
<glyph unicode="m" horiz-adv-x="763" d="M632.5 488q30.5 -41 30.5 -113v-375h-22v372q0 66 -24.5 101.5t-71.5 35.5q-87 0 -150 -125v-384h-22v374q0 64 -24.5 99.5t-71.5 35.5q-85 0 -150 -125v-384h-22v519h20l2 -103q28 53 66.5 83t84.5 30q48 0 78 -30.5t37 -85.5q62 116 153 116q56 0 86.5 -41z" />
<glyph unicode="n" horiz-adv-x="524" d="M391.5 489q31.5 -40 31.5 -114v-375h-22v372q0 137 -105 137q-52 0 -93 -33t-76 -94v-382h-22v519h20l2 -106q68 116 171 116q62 0 93.5 -40z" />
<glyph unicode="o" horiz-adv-x="505" d="M390.5 461q49.5 -68 49.5 -199q0 -132 -50 -202t-138 -70t-137.5 70t-49.5 199q0 131 50.5 200.5t137.5 69.5q88 0 137.5 -68zM132 446q-44 -63 -44 -187q0 -121 43 -184.5t121 -63.5t121.5 63.5t43.5 187.5q0 122 -43 184.5t-121 62.5q-77 0 -121 -63z" />
<glyph unicode="p" horiz-adv-x="511" d="M401 462q43 -67 43 -198t-44.5 -202.5t-126.5 -71.5q-47 0 -84 24.5t-62 64.5v-271l-22 -4v715h20l2 -83q59 93 151 93q80 0 123 -67zM382.5 75.5q38.5 64.5 38.5 188.5q0 122 -36.5 183.5t-106.5 61.5q-48 0 -83 -25.5t-68 -74.5v-301q60 -97 145 -97q72 0 110.5 64.5z " />
<glyph unicode="q" horiz-adv-x="515" d="M410 519v-715l-22 4v277q-50 -95 -146 -95q-81 0 -128 70.5t-47 197.5q0 124 48.5 197.5t133.5 73.5q91 0 140 -83l2 73h19zM328 39q35 28 60 81v297q-52 92 -138 92q-73 0 -116.5 -66.5t-43.5 -184.5q1 -118 41.5 -182.5t110.5 -64.5q51 0 86 28z" />
<glyph unicode="r" horiz-adv-x="327" d="M311 523l-4 -19q-18 6 -41 6q-52 0 -84.5 -39.5t-54.5 -124.5v-346h-22v519h20l1 -124q20 69 54 101.5t87 32.5q22 0 44 -6z" />
<glyph unicode="s" horiz-adv-x="414" d="M281 515.5q33 -13.5 65 -41.5l-13 -16q-30 27 -58.5 39t-67.5 12q-53 0 -87 -29.5t-34 -78.5q0 -43 28.5 -68t98.5 -49q81 -27 113.5 -58.5t32.5 -91.5q0 -64 -43.5 -104t-110.5 -40q-51 0 -88 17.5t-70 48.5l13 14q33 -30 65.5 -45t79.5 -15q58 0 94.5 33t36.5 91 q0 36 -12 59t-40.5 39.5t-81.5 34.5q-75 25 -106.5 55t-31.5 79q0 56 41 92t101 36q42 0 75 -13.5z" />
<glyph unicode="t" horiz-adv-x="293" d="M294 20q-44 -30 -91 -30q-48 0 -75.5 30t-27.5 85v394h-77v20h77v131l22 2v-133h129l-3 -20h-126v-392q0 -46 21 -71t61 -25q39 0 80 25z" />
<glyph unicode="u" horiz-adv-x="519" d="M414 0h-20l-1 104q-26 -52 -66 -83t-94 -31q-62 0 -97 39.5t-35 111.5v378h22v-376q0 -65 29 -98.5t83 -33.5q51 0 89 32t68 90v386h22v-519z" />
<glyph unicode="v" horiz-adv-x="409" d="M386 519l-163 -519h-28l-172 519h24l161 -500l155 500h23z" />
<glyph unicode="w" horiz-adv-x="619" d="M587 519l-122 -519h-30l-125 497l-124 -497h-30l-124 519h23l116 -497l126 497h28l125 -498l115 498h22z" />
<glyph unicode="x" horiz-adv-x="396" d="M210 279l168 -279h-26l-155 265l-154 -265h-25l166 278l-143 241h24l132 -228l134 228h24z" />
<glyph unicode="y" horiz-adv-x="405" d="M220 -1q-19 -62 -38 -97t-48 -58t-79 -39l-3 18q46 15 72 36t41.5 52t34.5 89h-9l-168 519h23l160 -501l153 501h24z" />
<glyph unicode="z" horiz-adv-x="370" d="M337 519v-18l-283 -480h277l-2 -21h-301v18l284 481h-260v20h285z" />
<glyph unicode="{" horiz-adv-x="295" d="M220 800q-38 0 -55 -20.5t-17 -65.5v-278q0 -43 -17 -62t-52 -25q36 -5 52.5 -24.5t16.5 -62.5v-278q0 -44 17 -65t55 -21v-18q-93 0 -93 103v283q0 38 -18 55t-52 17v22q34 0 52 17t18 55v284q0 102 93 102v-18z" />
<glyph unicode="|" horiz-adv-x="371" d="M196 801v-899h-21v899h21z" />
<glyph unicode="}" horiz-adv-x="295" d="M167 716v-284q0 -38 18 -55t53 -17v-22q-35 0 -53 -17t-18 -55v-283q0 -103 -92 -103v18q38 0 55 21t17 65v278q0 43 16.5 62.5t52.5 24.5q-35 6 -52 25t-17 62v278q0 45 -17 65.5t-55 20.5v18q92 0 92 -102z" />
<glyph unicode="~" horiz-adv-x="412" d="M242.5 287.5q-16.5 7.5 -39.5 21.5t-36.5 20t-26.5 6q-20 0 -32.5 -10t-29.5 -32l-15 9q16 26 34 40t43 14q17 0 33 -7t39 -21t36.5 -20t27.5 -6q19 0 31.5 10t26.5 31l16 -8q-16 -27 -32.5 -41t-41.5 -14q-17 0 -33.5 7.5z" />
<glyph unicode="&#xa1;" horiz-adv-x="226" d="M129.5 446q6.5 -7 6.5 -16q0 -10 -6.5 -16.5t-16.5 -6.5t-16.5 6.5t-6.5 16.5q0 9 6.5 16t16.5 7t16.5 -7zM123 252l1 -444h-22l1 444h20z" />
<glyph unicode="&#xa2;" horiz-adv-x="415" d="M263 -10v-136h-20v136q-82 5 -130 74t-48 193q0 126 48 196.5t132 75.5v147h19v-147q34 -2 61 -13.5t52 -36.5l-13 -15q-23 23 -49 34t-59 11q-77 0 -122.5 -64t-45.5 -188q0 -122 45.5 -184t121.5 -62q64 0 114 47l13 -14q-53 -51 -119 -54z" />
<glyph unicode="&#xa3;" horiz-adv-x="450" d="M137 64q-15 -25 -51 -43h305l-2 -21h-333v21q41 21 57.5 45t16.5 69v208h-56v21h56v145q0 72 36.5 118t103.5 46q41 0 72.5 -16.5t57.5 -50.5l-15 -13q-24 30 -51 45t-64 15q-57 0 -87.5 -39.5t-30.5 -104.5v-145h194v-21h-194v-206q0 -48 -15 -73z" />
<glyph unicode="&#xa4;" d="M426 120l-71 78q-43 -37 -103 -37q-61 0 -102 38l-71 -79l-15 13l72 79q-41 50 -41 128t40 126l-72 80l15 13l70 -78q42 39 104 39t103 -38l70 77l15 -13l-71 -79q40 -49 40 -127t-40 -127l72 -80zM153 223q36 -43 99 -43q64 0 99.5 43t35.5 117t-35 117.5t-100 43.5 q-64 0 -99.5 -43.5t-35.5 -117.5t36 -117z" />
<glyph unicode="&#xa5;" horiz-adv-x="438" d="M420 661l-180 -332h111v-21h-120v-118h120v-22h-120v-168h-22v168h-119v22h119v118h-119v21h110l-181 332h25l176 -330l175 330h25z" />
<glyph unicode="&#xa6;" horiz-adv-x="371" d="M196 801v-358h-21v358h21zM196 262v-360h-21v360h21z" />
<glyph unicode="&#xa7;" horiz-adv-x="479" d="M357 118.5q12 -22.5 12 -56.5q0 -57 -39 -91.5t-100 -34.5q-42 0 -75 11t-64 33l13 17q53 -40 126 -40q54 0 85.5 29t31.5 75q0 29 -9.5 48t-34.5 35t-73 34q-54 21 -83 38.5t-43.5 42.5t-14.5 63q0 37 18.5 68.5t57.5 60.5q-29 18 -41 40.5t-12 55.5q0 56 38.5 90.5 t96.5 34.5q39 0 68 -10.5t61 -32.5l-11 -17q-29 21 -56.5 30.5t-61.5 9.5q-50 0 -81 -29t-31 -75q0 -29 10 -48t36 -35t77 -35q72 -28 102 -60t30 -84q0 -39 -18 -70t-55 -57q28 -18 40 -40.5zM122 269.5q11 -20.5 37 -37t77 -35.5q44 -17 65 -28q35 24 50.5 51.5t15.5 65.5 q0 44 -24 71.5t-92 53.5q-48 19 -70 31q-37 -27 -53.5 -56t-16.5 -64q0 -32 11 -52.5z" />
<glyph unicode="&#xa8;" horiz-adv-x="250" d="M66.5 706.5q5.5 -5.5 5.5 -14.5q0 -8 -5.5 -13.5t-14.5 -5.5q-8 0 -13.5 5.5t-5.5 13.5t5.5 14t13.5 6q9 0 14.5 -5.5zM217.5 706q5.5 -6 5.5 -14t-5.5 -13.5t-14.5 -5.5t-14.5 5.5t-5.5 13.5t5.5 14t14.5 6t14.5 -6z" />
<glyph unicode="&#xa9;" horiz-adv-x="728" d="M494 687q57 -35 89.5 -100t32.5 -152q0 -86 -32.5 -151.5t-90 -100.5t-129.5 -35t-129 35t-89.5 100t-32.5 152q0 86 32.5 151t89.5 100.5t129 35.5q73 0 130 -35zM245.5 668.5q-52.5 -32.5 -82 -92.5t-29.5 -141q0 -82 29.5 -142.5t82 -92t119.5 -31.5q66 0 118 32.5 t81.5 92.5t29.5 141q0 82 -29 142.5t-81 92t-119 31.5t-119.5 -32.5zM407.5 598.5q18.5 -7.5 35.5 -21.5l-11 -15q-15 12 -30.5 18t-38.5 6q-38 0 -67.5 -35.5t-29.5 -113.5t27 -115t72 -37q25 0 42 7.5t34 20.5l10 -16q-38 -32 -87 -32q-54 0 -87 44t-33 128q0 58 17.5 96 t44.5 55.5t57 17.5q26 0 44.5 -7.5z" />
<glyph unicode="&#xaa;" horiz-adv-x="456" d="M313 517v50q0 47 -21 70.5t-72 23.5q-44 0 -103 -24l-6 19q59 25 110 25q59 0 86.5 -28t27.5 -83v-212q0 -31 7.5 -45t25.5 -21l-5 -15q-25 8 -36 23.5t-11 46.5q-41 -70 -120 -70q-53 0 -83.5 31.5t-30.5 84.5q0 59 40 91.5t108 32.5h83zM265 317q28 20 48 57v122h-81 q-61 0 -93.5 -25.5t-32.5 -77.5q0 -45 24.5 -70.5t66.5 -25.5q40 0 68 20zM82 21h297v-21h-297v21z" />
<glyph unicode="&#xab;" horiz-adv-x="496" d="M219 503l15 -9l-127 -206l128 -205l-15 -9l-137 207v14zM397 503l15 -9l-127 -206l128 -205l-15 -9l-137 207v14z" />
<glyph unicode="&#xac;" horiz-adv-x="446" d="M376 331v-133h-23v112h-283v21h306z" />
<glyph unicode="&#xad;" horiz-adv-x="359" d="M70 302v21h220v-21h-220z" />
<glyph unicode="&#xae;" horiz-adv-x="574" d="M390 694q46 -27 72 -77t26 -115t-25.5 -116t-71.5 -79.5t-104 -28.5q-57 0 -103 27t-72.5 77t-26.5 116q0 64 26 115t72 79.5t104 28.5q57 0 103 -27zM381 323q41 26 64.5 72.5t23.5 106.5t-23.5 105.5t-65 70t-93.5 24.5q-53 0 -94 -26t-64.5 -72t-23.5 -106 q0 -61 23.5 -106.5t65 -70t93.5 -24.5q53 0 94 26zM310 489l67 -120h-25l-63 118h-48v-118h-21v269h55q45 0 68.5 -19.5t23.5 -56.5q0 -60 -57 -73zM241 506h47q58 0 58 56t-68 56h-37v-112z" />
<glyph unicode="&#xaf;" horiz-adv-x="249" d="M222 685h-189v21h189v-21z" />
<glyph unicode="&#xb0;" horiz-adv-x="459" d="M109.5 449q-35.5 38 -35.5 103q0 63 36 101t87 38q55 0 89.5 -38t34.5 -102t-34.5 -102t-89.5 -38q-52 0 -87.5 38zM271.5 463q27.5 32 27.5 88t-27.5 88t-74.5 32q-44 0 -72 -32.5t-28 -86.5q0 -55 28.5 -88t71.5 -33q47 0 74.5 32z" />
<glyph unicode="&#xb1;" horiz-adv-x="437" d="M70 0v21h297v-21h-297zM230 494v-153h137v-21h-137v-153h-22v153h-138v21h138v153h22z" />
<glyph unicode="&#xb2;" horiz-adv-x="360" d="M252 709q27 -29 27 -75q0 -43 -15.5 -78t-48 -76.5t-115.5 -136.5h190l-4 -21h-211v20q82 94 117 139.5t49.5 78.5t14.5 73t-20.5 62.5t-57.5 22.5q-53 0 -91 -48l-16 12q23 29 49 42.5t58 13.5q47 0 74 -29z" />
<glyph unicode="&#xb3;" horiz-adv-x="360" d="M255 712q28 -28 28 -73q0 -42 -23 -67.5t-59 -30.5q39 -2 65 -29.5t26 -75.5q0 -53 -32.5 -87t-85.5 -34q-65 0 -107 53l14 11q21 -24 43 -34t50 -10q46 0 71.5 27.5t25.5 72.5q0 48 -25 71.5t-69 23.5h-23l2 19h19q35 0 60.5 22.5t25.5 66.5q0 38 -22 60t-59 22 q-26 0 -47.5 -9t-43.5 -30l-12 13q23 23 47.5 34.5t56.5 11.5q46 0 74 -28z" />
<glyph unicode="&#xb4;" horiz-adv-x="229" d="M191 760l11 -22l-161 -84l-8 15z" />
<glyph unicode="&#xb5;" horiz-adv-x="525" d="M417 -5q-11 37 -16.5 63.5t-7.5 63.5q-61 -132 -161 -132q-84 0 -108 81q3 -51 3 -135v-128l-22 -2v713h22v-377q0 -68 29.5 -99.5t75.5 -31.5q97 0 158 140v368h22v-349q0 -52 6 -92.5t19 -80.5z" />
<glyph unicode="&#xb6;" horiz-adv-x="619" d="M468 681v-873l-22 -4v857h-127v-853l-22 -4v502q-102 3 -148 54.5t-46 133.5q0 89 52 138t145 49h168z" />
<glyph unicode="&#xb7;" horiz-adv-x="156" d="M95 342.5q6 -6.5 6 -16.5q0 -9 -6 -15.5t-17 -6.5q-10 0 -16.5 6.5t-6.5 15.5q0 10 6.5 16.5t16.5 6.5q11 0 17 -6.5z" />
<glyph unicode="&#xb8;" horiz-adv-x="199" d="M90 -74q82 -6 82 -67q0 -34 -22.5 -52.5t-54.5 -18.5q-35 0 -62 18l10 16q22 -15 52 -15q24 0 39.5 13t15.5 39t-19.5 38t-61.5 13l6 99h16z" />
<glyph unicode="&#xb9;" horiz-adv-x="360" d="M218 732v-410h-21v386l-99 -65l-10 15l113 74h17z" />
<glyph unicode="&#xba;" horiz-adv-x="452" d="M337.5 631q39.5 -50 39.5 -150q0 -99 -41 -151.5t-112 -52.5t-111 52t-40 150t41 150t112 52q72 0 111.5 -50zM130.5 616q-34.5 -45 -34.5 -137q0 -90 34 -136t95 -46q62 0 96 46t34 138q0 90 -33.5 135t-95.5 45q-61 0 -95.5 -45zM77 0v21h297v-21h-297z" />
<glyph unicode="&#xbb;" horiz-adv-x="492" d="M98 503l137 -208v-14l-138 -207l-14 9l127 205l-127 206zM272 503l137 -208v-14l-138 -207l-14 9l127 205l-127 206z" />
<glyph unicode="&#xbc;" horiz-adv-x="804" d="M218 681v-410h-21v386l-99 -65l-10 15l113 74h17zM576 742l18 -8l-366 -800l-18 8zM746 132v-20h-53v-112h-20v112h-173v18l119 288l18 -7l-116 -279h152l2 127h18v-127h53z" />
<glyph unicode="&#xbd;" horiz-adv-x="804" d="M218 681v-410h-21v386l-99 -65l-10 15l113 74h17zM576 742l18 -8l-366 -800l-18 8zM696 387q27 -29 27 -75q0 -43 -15.5 -78t-48 -76.5t-115.5 -136.5h190l-4 -21h-211v20q82 94 117 139.5t49.5 78.5t14.5 73t-20.5 62.5t-57.5 22.5q-53 0 -91 -48l-16 12q23 29 49 42.5 t58 13.5q47 0 74 -29z" />
<glyph unicode="&#xbe;" horiz-adv-x="804" d="M255 661q28 -28 28 -73q0 -42 -23 -67.5t-59 -30.5q39 -2 65 -29.5t26 -75.5q0 -53 -32.5 -87t-85.5 -34q-65 0 -107 53l14 11q21 -24 43 -34t50 -10q46 0 71.5 27.5t25.5 72.5q0 48 -25 71.5t-69 23.5h-23l2 19h19q35 0 60.5 22.5t25.5 66.5q0 38 -22 60t-59 22 q-26 0 -47.5 -9t-43.5 -30l-12 13q23 23 47.5 34.5t56.5 11.5q46 0 74 -28zM576 742l18 -8l-366 -800l-18 8zM746 132v-20h-53v-112h-20v112h-173v18l119 288l18 -7l-116 -279h152l2 127h18v-127h53z" />
<glyph unicode="&#xbf;" horiz-adv-x="404" d="M211.5 413.5q-6.5 6.5 -6.5 16.5q0 9 6.5 16t16.5 7t16.5 -7t6.5 -16q0 -10 -6.5 -16.5t-16.5 -6.5t-16.5 6.5zM91.5 -159q-38.5 38 -38.5 94q0 48 20.5 76.5t60.5 60.5q42 33 63 62.5t21 80.5v37h21v-40q0 -39 -12 -66.5t-29 -45t-45 -39.5q-27 -21 -41.5 -36t-25 -37 t-10.5 -53q0 -48 32.5 -79.5t84.5 -31.5q45 0 78 18t64 59l16 -13q-34 -43 -71.5 -64t-86.5 -21q-63 0 -101.5 38z" />
<glyph unicode="&#xc0;" horiz-adv-x="509" d="M458 0l-62 203h-284l-62 -203h-22l212 681h28l213 -681h-23zM119 224h270l-135 439zM184 859l156 -81l-7 -15l-161 74z" />
<glyph unicode="&#xc1;" horiz-adv-x="509" d="M458 0l-62 203h-284l-62 -203h-22l212 681h28l213 -681h-23zM119 224h270l-135 439zM327 859l11 -22l-161 -73l-7 15z" />
<glyph unicode="&#xc2;" horiz-adv-x="509" d="M458 0l-62 203h-284l-62 -203h-22l212 681h28l213 -681h-23zM119 224h270l-135 439zM151 767l-11 12l108 90h12l109 -90l-11 -12l-104 79z" />
<glyph unicode="&#xc3;" horiz-adv-x="509" d="M458 0l-62 203h-284l-62 -203h-22l212 681h28l213 -681h-23zM119 224h270l-135 439zM280 810q-13 6 -33 18q-15 10 -25 15t-20 5q-15 0 -27 -8t-26 -27l-14 8q16 23 32 34.5t35 11.5q12 0 23.5 -5t29.5 -16q17 -11 28.5 -16.5t24.5 -5.5q15 0 27 9t26 31l14 -7 q-15 -28 -31 -40.5t-36 -12.5q-15 0 -28 6z" />
<glyph unicode="&#xc4;" horiz-adv-x="509" d="M458 0l-62 203h-284l-62 -203h-22l212 681h28l213 -681h-23zM119 224h270l-135 439zM196.5 832.5q5.5 -5.5 5.5 -14.5q0 -8 -5.5 -13.5t-14.5 -5.5q-8 0 -13.5 5.5t-5.5 13.5t5.5 14t13.5 6q9 0 14.5 -5.5zM347.5 832q5.5 -6 5.5 -14t-5.5 -13.5t-14.5 -5.5t-14.5 5.5 t-5.5 13.5t5.5 14t14.5 6t14.5 -6z" />
<glyph unicode="&#xc5;" horiz-adv-x="509" d="M458 0l-62 203h-284l-62 -203h-22l212 681h28l213 -681h-23zM119 224h270l-135 439zM308 906q20 -21 20 -57q0 -37 -20 -58t-53 -21t-52.5 21t-19.5 57q0 37 19.5 58t52.5 21t53 -21zM216.5 893.5q-13.5 -15.5 -13.5 -45.5t13.5 -45t38.5 -15q26 0 39.5 15.5t13.5 45.5 q0 60 -53 60q-25 0 -38.5 -15.5z" />
<glyph unicode="&#xc6;" horiz-adv-x="682" d="M435 21h208v-21h-226l-46 196h-271l-67 -196h-22l237 681h347l-3 -21h-308l69 -290h235v-21h-231zM108 218h258l-105 445z" />
<glyph unicode="&#xc7;" horiz-adv-x="485" d="M391 -141q0 -34 -22.5 -52.5t-54.5 -18.5q-35 0 -62 18l10 16q23 -15 52 -15q24 0 39.5 13t15.5 39t-19.5 38t-61.5 13l5 80q-66 5 -116.5 46t-78.5 118t-28 186q0 117 31 196t85 117t124 38q47 0 81 -14.5t64 -43.5l-12 -15q-32 27 -61.5 39.5t-70.5 12.5 q-98 0 -158 -81.5t-60 -248.5q0 -108 28 -181.5t76.5 -110t111.5 -36.5q46 0 77 14.5t63 42.5l14 -16q-31 -29 -68 -46t-85 -17l-1 -64q82 -6 82 -67z" />
<glyph unicode="&#xc8;" horiz-adv-x="446" d="M400 681l-3 -21h-264v-290h228v-21h-228v-328h274v-21h-297v681h290zM187 859l156 -81l-7 -15l-161 74z" />
<glyph unicode="&#xc9;" horiz-adv-x="446" d="M400 681l-3 -21h-264v-290h228v-21h-228v-328h274v-21h-297v681h290zM330 859l11 -22l-161 -73l-7 15z" />
<glyph unicode="&#xca;" horiz-adv-x="446" d="M400 681l-3 -21h-264v-290h228v-21h-228v-328h274v-21h-297v681h290zM154 767l-11 12l108 90h12l109 -90l-11 -12l-104 79z" />
<glyph unicode="&#xcb;" horiz-adv-x="446" d="M400 681l-3 -21h-264v-290h228v-21h-228v-328h274v-21h-297v681h290zM199.5 832.5q5.5 -5.5 5.5 -14.5q0 -8 -5.5 -13.5t-14.5 -5.5q-8 0 -13.5 5.5t-5.5 13.5t5.5 14t13.5 6q9 0 14.5 -5.5zM350.5 832q5.5 -6 5.5 -14t-5.5 -13.5t-14.5 -5.5t-14.5 5.5t-5.5 13.5t5.5 14 t14.5 6t14.5 -6z" />
<glyph unicode="&#xcc;" horiz-adv-x="243" d="M133 681v-681h-23v681h23zM50 859l156 -81l-7 -15l-161 74z" />
<glyph unicode="&#xcd;" horiz-adv-x="243" d="M133 681v-681h-23v681h23zM193 859l11 -22l-161 -73l-7 15z" />
<glyph unicode="&#xce;" horiz-adv-x="243" d="M133 681v-681h-23v681h23zM17 767l-11 12l108 90h12l109 -90l-11 -12l-104 79z" />
<glyph unicode="&#xcf;" horiz-adv-x="243" d="M133 681v-681h-23v681h23zM62.5 832.5q5.5 -5.5 5.5 -14.5q0 -8 -5.5 -13.5t-14.5 -5.5q-8 0 -13.5 5.5t-5.5 13.5t5.5 14t13.5 6q9 0 14.5 -5.5zM213.5 832q5.5 -6 5.5 -14t-5.5 -13.5t-14.5 -5.5t-14.5 5.5t-5.5 13.5t5.5 14t14.5 6t14.5 -6z" />
<glyph unicode="&#xd0;" horiz-adv-x="557" d="M412 609.5q75 -71.5 75 -261.5q0 -193 -76.5 -270.5t-188.5 -77.5h-114v341h-84v22h84v318h110q119 0 194 -71.5zM395 93.5q68 72.5 68 254.5t-68.5 247t-177.5 65h-86v-297h171v-22h-171v-320h92q104 0 172 72.5z" />
<glyph unicode="&#xd1;" horiz-adv-x="596" d="M486 0h-29l-328 655q3 -51 3 -178v-477h-22v681h29l328 -655q-3 120 -3 179v476h22v-681zM329 810q-13 6 -33 18q-15 10 -25 15t-20 5q-15 0 -27 -8t-26 -27l-14 8q16 23 32 34.5t35 11.5q12 0 23.5 -5t29.5 -16q17 -11 28.5 -16.5t24.5 -5.5q15 0 27 9t26 31l14 -7 q-15 -28 -31 -40.5t-36 -12.5q-15 0 -28 6z" />
<glyph unicode="&#xd2;" horiz-adv-x="620" d="M486.5 601.5q64.5 -89.5 64.5 -261.5q0 -169 -63.5 -259.5t-177.5 -90.5q-73 0 -127 40t-83.5 118.5t-29.5 190.5q0 113 30 192t84 119.5t126 40.5q112 0 176.5 -89.5zM151.5 585.5q-58.5 -84.5 -58.5 -246.5q0 -160 58.5 -243.5t158.5 -83.5q104 0 160.5 83t56.5 245 q0 164 -57.5 247t-159.5 83q-100 0 -158.5 -84.5zM239 859l156 -81l-7 -15l-161 74z" />
<glyph unicode="&#xd3;" horiz-adv-x="620" d="M486.5 601.5q64.5 -89.5 64.5 -261.5q0 -169 -63.5 -259.5t-177.5 -90.5q-73 0 -127 40t-83.5 118.5t-29.5 190.5q0 113 30 192t84 119.5t126 40.5q112 0 176.5 -89.5zM151.5 585.5q-58.5 -84.5 -58.5 -246.5q0 -160 58.5 -243.5t158.5 -83.5q104 0 160.5 83t56.5 245 q0 164 -57.5 247t-159.5 83q-100 0 -158.5 -84.5zM382 859l11 -22l-161 -73l-7 15z" />
<glyph unicode="&#xd4;" horiz-adv-x="620" d="M486.5 601.5q64.5 -89.5 64.5 -261.5q0 -169 -63.5 -259.5t-177.5 -90.5q-73 0 -127 40t-83.5 118.5t-29.5 190.5q0 113 30 192t84 119.5t126 40.5q112 0 176.5 -89.5zM151.5 585.5q-58.5 -84.5 -58.5 -246.5q0 -160 58.5 -243.5t158.5 -83.5q104 0 160.5 83t56.5 245 q0 164 -57.5 247t-159.5 83q-100 0 -158.5 -84.5zM206 767l-11 12l108 90h12l109 -90l-11 -12l-104 79z" />
<glyph unicode="&#xd5;" horiz-adv-x="620" d="M486.5 601.5q64.5 -89.5 64.5 -261.5q0 -169 -63.5 -259.5t-177.5 -90.5q-73 0 -127 40t-83.5 118.5t-29.5 190.5q0 113 30 192t84 119.5t126 40.5q112 0 176.5 -89.5zM151.5 585.5q-58.5 -84.5 -58.5 -246.5q0 -160 58.5 -243.5t158.5 -83.5q104 0 160.5 83t56.5 245 q0 164 -57.5 247t-159.5 83q-100 0 -158.5 -84.5zM335 810q-13 6 -33 18q-15 10 -25 15t-20 5q-15 0 -27 -8t-26 -27l-14 8q16 23 32 34.5t35 11.5q12 0 23.5 -5t29.5 -16q17 -11 28.5 -16.5t24.5 -5.5q15 0 27 9t26 31l14 -7q-15 -28 -31 -40.5t-36 -12.5q-15 0 -28 6z" />
<glyph unicode="&#xd6;" horiz-adv-x="620" d="M486.5 601.5q64.5 -89.5 64.5 -261.5q0 -169 -63.5 -259.5t-177.5 -90.5q-73 0 -127 40t-83.5 118.5t-29.5 190.5q0 113 30 192t84 119.5t126 40.5q112 0 176.5 -89.5zM151.5 585.5q-58.5 -84.5 -58.5 -246.5q0 -160 58.5 -243.5t158.5 -83.5q104 0 160.5 83t56.5 245 q0 164 -57.5 247t-159.5 83q-100 0 -158.5 -84.5zM251.5 832.5q5.5 -5.5 5.5 -14.5q0 -8 -5.5 -13.5t-14.5 -5.5q-8 0 -13.5 5.5t-5.5 13.5t5.5 14t13.5 6q9 0 14.5 -5.5zM402.5 832q5.5 -6 5.5 -14t-5.5 -13.5t-14.5 -5.5t-14.5 5.5t-5.5 13.5t5.5 14t14.5 6t14.5 -6z" />
<glyph unicode="&#xd7;" horiz-adv-x="437" d="M334 455l16 -14l-117 -133l117 -134l-16 -14l-116 134l-115 -134l-17 14l117 133l-117 134l17 14l115 -134z" />
<glyph unicode="&#xd8;" horiz-adv-x="620" d="M513 553.5q38 -83.5 38 -213.5q0 -169 -63.5 -259.5t-177.5 -90.5q-41 0 -80 14l-29 -115l-22 7l33 116q-67 34 -104.5 117t-37.5 210q0 113 30 192t84 119.5t126 40.5q44 0 79 -13l31 120l22 -6l-35 -122q68 -33 106 -116.5zM126 142q33 -77 94 -109l164 624 q-32 13 -74 13q-100 0 -158.5 -84.5t-58.5 -246.5q0 -120 33 -197zM470.5 95q56.5 83 56.5 245q0 123 -32.5 200.5t-93.5 108.5l-165 -623q32 -14 74 -14q104 0 160.5 83z" />
<glyph unicode="&#xd9;" horiz-adv-x="575" d="M475 188q0 -89 -46.5 -143.5t-140.5 -54.5q-95 0 -141.5 54.5t-46.5 143.5v493h23v-491q0 -82 40 -130t125 -48q84 0 124 48.5t40 129.5v491h23v-493zM217 859l156 -81l-7 -15l-161 74z" />
<glyph unicode="&#xda;" horiz-adv-x="575" d="M475 188q0 -89 -46.5 -143.5t-140.5 -54.5q-95 0 -141.5 54.5t-46.5 143.5v493h23v-491q0 -82 40 -130t125 -48q84 0 124 48.5t40 129.5v491h23v-493zM360 859l11 -22l-161 -73l-7 15z" />
<glyph unicode="&#xdb;" horiz-adv-x="575" d="M475 188q0 -89 -46.5 -143.5t-140.5 -54.5q-95 0 -141.5 54.5t-46.5 143.5v493h23v-491q0 -82 40 -130t125 -48q84 0 124 48.5t40 129.5v491h23v-493zM184 767l-11 12l108 90h12l109 -90l-11 -12l-104 79z" />
<glyph unicode="&#xdc;" horiz-adv-x="575" d="M475 188q0 -89 -46.5 -143.5t-140.5 -54.5q-95 0 -141.5 54.5t-46.5 143.5v493h23v-491q0 -82 40 -130t125 -48q84 0 124 48.5t40 129.5v491h23v-493zM229.5 832.5q5.5 -5.5 5.5 -14.5q0 -8 -5.5 -13.5t-14.5 -5.5q-8 0 -13.5 5.5t-5.5 13.5t5.5 14t13.5 6q9 0 14.5 -5.5 zM380.5 832q5.5 -6 5.5 -14t-5.5 -13.5t-14.5 -5.5t-14.5 5.5t-5.5 13.5t5.5 14t14.5 6t14.5 -6z" />
<glyph unicode="&#xdd;" horiz-adv-x="446" d="M427 681l-191 -410v-271h-23v270l-194 411h24l182 -389l178 389h24zM295 859l11 -22l-161 -73l-7 15z" />
<glyph unicode="&#xde;" horiz-adv-x="501" d="M395 506q57 -48 57 -151q0 -109 -60.5 -158.5t-174.5 -49.5h-84v-147h-23v681h23v-127h87q118 0 175 -48zM375.5 211q53.5 43 53.5 144q0 95 -50.5 136.5t-158.5 41.5h-87v-365h85q104 0 157.5 43z" />
<glyph unicode="&#xdf;" horiz-adv-x="516" d="M359.5 702q37.5 -35 37.5 -91q0 -39 -16 -63.5t-47 -54.5q-24 -22 -35 -37t-11 -36q0 -25 15.5 -42.5t49.5 -42.5q35 -26 57 -47.5t38 -56t16 -83.5q0 -71 -35.5 -114.5t-96.5 -43.5q-26 0 -45 5.5t-38 15.5l9 17q32 -17 73 -17q51 0 80.5 36t29.5 101q0 45 -14.5 77 t-35.5 52.5t-54 44.5q-36 27 -53.5 47.5t-17.5 50.5q0 24 12 41.5t36 39.5q30 28 45 51t15 59q0 49 -30.5 77t-81.5 28q-60 0 -97.5 -41.5t-37.5 -119.5v-555h-22v558q0 83 44 131t113 48q60 0 97.5 -35z" />
<glyph unicode="&#xe0;" horiz-adv-x="476" d="M380 36q9 -21 32 -30l-5 -16q-29 10 -42 32.5t-14 66.5q-26 -50 -62.5 -74.5t-87.5 -24.5q-66 0 -104 42.5t-38 111.5q0 79 50.5 121.5t138.5 42.5h101v66q0 67 -27.5 101t-89.5 34q-61 0 -131 -32l-8 18q74 34 139 34q139 0 139 -153v-274q0 -45 9 -66zM349 121v167h-98 q-82 0 -125 -36.5t-43 -107.5q0 -62 31.5 -97.5t86.5 -35.5q99 0 148 110zM160 760l158 -91l-9 -15l-161 84z" />
<glyph unicode="&#xe1;" horiz-adv-x="476" d="M380 36q9 -21 32 -30l-5 -16q-29 10 -42 32.5t-14 66.5q-26 -50 -62.5 -74.5t-87.5 -24.5q-66 0 -104 42.5t-38 111.5q0 79 50.5 121.5t138.5 42.5h101v66q0 67 -27.5 101t-89.5 34q-61 0 -131 -32l-8 18q74 34 139 34q139 0 139 -153v-274q0 -45 9 -66zM349 121v167h-98 q-82 0 -125 -36.5t-43 -107.5q0 -62 31.5 -97.5t86.5 -35.5q99 0 148 110zM297 760l11 -22l-161 -84l-8 15z" />
<glyph unicode="&#xe2;" horiz-adv-x="476" d="M380 36q9 -21 32 -30l-5 -16q-29 10 -42 32.5t-14 66.5q-26 -50 -62.5 -74.5t-87.5 -24.5q-66 0 -104 42.5t-38 111.5q0 79 50.5 121.5t138.5 42.5h101v66q0 67 -27.5 101t-89.5 34q-61 0 -131 -32l-8 18q74 34 139 34q139 0 139 -153v-274q0 -45 9 -66zM349 121v167h-98 q-82 0 -125 -36.5t-43 -107.5q0 -62 31.5 -97.5t86.5 -35.5q99 0 148 110zM127 654l-11 12l108 96h13l108 -96l-12 -12l-103 85z" />
<glyph unicode="&#xe3;" horiz-adv-x="476" d="M380 36q9 -21 32 -30l-5 -16q-29 10 -42 32.5t-14 66.5q-26 -50 -62.5 -74.5t-87.5 -24.5q-66 0 -104 42.5t-38 111.5q0 79 50.5 121.5t138.5 42.5h101v66q0 67 -27.5 101t-89.5 34q-61 0 -131 -32l-8 18q74 34 139 34q139 0 139 -153v-274q0 -45 9 -66zM349 121v167h-98 q-82 0 -125 -36.5t-43 -107.5q0 -62 31.5 -97.5t86.5 -35.5q99 0 148 110zM256 684q-13 6 -33 18q-15 10 -25 15t-20 5q-15 0 -27 -8t-26 -27l-14 8q16 23 32 34.5t35 11.5q12 0 23.5 -5t29.5 -16q17 -11 28.5 -16.5t24.5 -5.5q15 0 27 9t26 31l14 -7q-15 -28 -31 -40.5 t-36 -12.5q-15 0 -28 6z" />
<glyph unicode="&#xe4;" horiz-adv-x="476" d="M380 36q9 -21 32 -30l-5 -16q-29 10 -42 32.5t-14 66.5q-26 -50 -62.5 -74.5t-87.5 -24.5q-66 0 -104 42.5t-38 111.5q0 79 50.5 121.5t138.5 42.5h101v66q0 67 -27.5 101t-89.5 34q-61 0 -131 -32l-8 18q74 34 139 34q139 0 139 -153v-274q0 -45 9 -66zM349 121v167h-98 q-82 0 -125 -36.5t-43 -107.5q0 -62 31.5 -97.5t86.5 -35.5q99 0 148 110zM169.5 706.5q5.5 -5.5 5.5 -14.5q0 -8 -5.5 -13.5t-14.5 -5.5q-8 0 -13.5 5.5t-5.5 13.5t5.5 14t13.5 6q9 0 14.5 -5.5zM320.5 706q5.5 -6 5.5 -14t-5.5 -13.5t-14.5 -5.5t-14.5 5.5t-5.5 13.5 t5.5 14t14.5 6t14.5 -6z" />
<glyph unicode="&#xe5;" horiz-adv-x="476" d="M380 36q9 -21 32 -30l-5 -16q-29 10 -42 32.5t-14 66.5q-26 -50 -62.5 -74.5t-87.5 -24.5q-66 0 -104 42.5t-38 111.5q0 79 50.5 121.5t138.5 42.5h101v66q0 67 -27.5 101t-89.5 34q-61 0 -131 -32l-8 18q74 34 139 34q139 0 139 -153v-274q0 -45 9 -66zM349 121v167h-98 q-82 0 -125 -36.5t-43 -107.5q0 -62 31.5 -97.5t86.5 -35.5q99 0 148 110zM284 780q20 -21 20 -57q0 -37 -20 -58t-53 -21t-52.5 21t-19.5 57q0 37 19.5 58t52.5 21t53 -21zM192.5 767.5q-13.5 -15.5 -13.5 -45.5t13.5 -45t38.5 -15q26 0 39.5 15.5t13.5 45.5q0 60 -53 60 q-25 0 -38.5 -15.5z" />
<glyph unicode="&#xe6;" horiz-adv-x="759" d="M698 246h-327q3 -117 47.5 -176t117.5 -59q40 0 69.5 13.5t61.5 41.5l13 -15q-34 -31 -67.5 -46t-76.5 -15q-57 0 -98.5 30.5t-64.5 89.5q-40 -65 -80 -92.5t-93 -27.5q-66 0 -103.5 42t-37.5 112q0 78 50.5 121t137.5 43h102v62q0 70 -27.5 104.5t-91.5 34.5 q-55 0 -129 -32l-7 18q74 34 136 34q69 0 102 -35t37 -105q22 69 63 104.5t99 35.5q83 0 125.5 -64.5t42.5 -180.5q0 -27 -1 -38zM677 292q0 102 -36 159.5t-109 57.5q-71 0 -115 -62t-46 -182h306v27zM289.5 40q38.5 29 75.5 92q-16 56 -16 123v33h-101q-78 0 -122 -37 t-44 -107q0 -62 32 -97.5t87 -35.5q50 0 88.5 29z" />
<glyph unicode="&#xe7;" horiz-adv-x="415" d="M340 -141q0 -34 -22.5 -52.5t-54.5 -18.5q-35 0 -62 18l10 16q23 -15 52 -15q24 0 39.5 13t15.5 39t-19.5 38t-61.5 13l5 80q-81 6 -129 74.5t-48 192.5q0 130 51.5 201t139.5 71q37 0 65.5 -12t55.5 -38l-13 -15q-23 23 -49 34t-59 11q-77 0 -122.5 -64t-45.5 -188 q0 -122 45.5 -184t121.5 -62q64 0 114 47l13 -14q-54 -53 -123 -54l-1 -64q82 -6 82 -67z" />
<glyph unicode="&#xe8;" horiz-adv-x="476" d="M414 246h-326q2 -118 46.5 -176.5t118.5 -58.5q39 0 68.5 13.5t61.5 41.5l13 -15q-33 -30 -66.5 -45.5t-76.5 -15.5q-87 0 -137.5 69t-50.5 196q0 131 49 202.5t132 71.5q84 0 127 -65t43 -180q0 -16 -2 -38zM394 292q0 101 -37 159t-110 58q-70 0 -113.5 -61.5 t-45.5 -182.5h305q1 8 1 27zM176 760l158 -91l-9 -15l-161 84z" />
<glyph unicode="&#xe9;" horiz-adv-x="476" d="M414 246h-326q2 -118 46.5 -176.5t118.5 -58.5q39 0 68.5 13.5t61.5 41.5l13 -15q-33 -30 -66.5 -45.5t-76.5 -15.5q-87 0 -137.5 69t-50.5 196q0 131 49 202.5t132 71.5q84 0 127 -65t43 -180q0 -16 -2 -38zM394 292q0 101 -37 159t-110 58q-70 0 -113.5 -61.5 t-45.5 -182.5h305q1 8 1 27zM313 760l11 -22l-161 -84l-8 15z" />
<glyph unicode="&#xea;" horiz-adv-x="476" d="M414 246h-326q2 -118 46.5 -176.5t118.5 -58.5q39 0 68.5 13.5t61.5 41.5l13 -15q-33 -30 -66.5 -45.5t-76.5 -15.5q-87 0 -137.5 69t-50.5 196q0 131 49 202.5t132 71.5q84 0 127 -65t43 -180q0 -16 -2 -38zM394 292q0 101 -37 159t-110 58q-70 0 -113.5 -61.5 t-45.5 -182.5h305q1 8 1 27zM143 654l-11 12l108 96h13l108 -96l-12 -12l-103 85z" />
<glyph unicode="&#xeb;" horiz-adv-x="476" d="M414 246h-326q2 -118 46.5 -176.5t118.5 -58.5q39 0 68.5 13.5t61.5 41.5l13 -15q-33 -30 -66.5 -45.5t-76.5 -15.5q-87 0 -137.5 69t-50.5 196q0 131 49 202.5t132 71.5q84 0 127 -65t43 -180q0 -16 -2 -38zM394 292q0 101 -37 159t-110 58q-70 0 -113.5 -61.5 t-45.5 -182.5h305q1 8 1 27zM185.5 706.5q5.5 -5.5 5.5 -14.5q0 -8 -5.5 -13.5t-14.5 -5.5q-8 0 -13.5 5.5t-5.5 13.5t5.5 14t13.5 6q9 0 14.5 -5.5zM336.5 706q5.5 -6 5.5 -14t-5.5 -13.5t-14.5 -5.5t-14.5 5.5t-5.5 13.5t5.5 14t14.5 6t14.5 -6z" />
<glyph unicode="&#xec;" horiz-adv-x="233" d="M127 519v-519h-22v519h22zM45 760l158 -91l-9 -15l-161 84z" />
<glyph unicode="&#xed;" horiz-adv-x="233" d="M127 519v-519h-22v519h22zM182 760l11 -22l-161 -84l-8 15z" />
<glyph unicode="&#xee;" horiz-adv-x="233" d="M127 519v-519h-22v519h22zM12 654l-11 12l108 96h13l108 -96l-12 -12l-103 85z" />
<glyph unicode="&#xef;" horiz-adv-x="233" d="M127 519v-519h-22v519h22zM54.5 706.5q5.5 -5.5 5.5 -14.5q0 -8 -5.5 -13.5t-14.5 -5.5q-8 0 -13.5 5.5t-5.5 13.5t5.5 14t13.5 6q9 0 14.5 -5.5zM205.5 706q5.5 -6 5.5 -14t-5.5 -13.5t-14.5 -5.5t-14.5 5.5t-5.5 13.5t5.5 14t14.5 6t14.5 -6z" />
<glyph unicode="&#xf0;" horiz-adv-x="490" d="M383.5 519q36.5 -87 36.5 -218q0 -157 -47 -234t-132 -77q-83 0 -129.5 64.5t-46.5 175.5q0 63 20 116t58.5 84t91.5 31q90 0 160 -97q-7 94 -38.5 164t-93.5 123l-75 -85l-17 7l78 89q-25 19 -57 34t-63 22l5 20q70 -18 128 -62l60 70l15 -11l-61 -70q71 -59 107.5 -146 zM356.5 84q40.5 73 40.5 219q0 25 -1 33q-72 105 -160 105q-69 0 -108.5 -60t-39.5 -152q0 -102 40.5 -160t112.5 -58q75 0 115.5 73z" />
<glyph unicode="&#xf1;" horiz-adv-x="524" d="M391.5 489q31.5 -40 31.5 -114v-375h-22v372q0 137 -105 137q-52 0 -93 -33t-76 -94v-382h-22v519h20l2 -106q68 116 171 116q62 0 93.5 -40zM292 684q-13 6 -33 18q-15 10 -25 15t-20 5q-15 0 -27 -8t-26 -27l-14 8q16 23 32 34.5t35 11.5q12 0 23.5 -5t29.5 -16 q17 -11 28.5 -16.5t24.5 -5.5q15 0 27 9t26 31l14 -7q-15 -28 -31 -40.5t-36 -12.5q-15 0 -28 6z" />
<glyph unicode="&#xf2;" horiz-adv-x="505" d="M390.5 461q49.5 -68 49.5 -199q0 -132 -50 -202t-138 -70t-137.5 70t-49.5 199q0 131 50.5 200.5t137.5 69.5q88 0 137.5 -68zM132 446q-44 -63 -44 -187q0 -121 43 -184.5t121 -63.5t121.5 63.5t43.5 187.5q0 122 -43 184.5t-121 62.5q-77 0 -121 -63zM182 760l158 -91 l-9 -15l-161 84z" />
<glyph unicode="&#xf3;" horiz-adv-x="505" d="M390.5 461q49.5 -68 49.5 -199q0 -132 -50 -202t-138 -70t-137.5 70t-49.5 199q0 131 50.5 200.5t137.5 69.5q88 0 137.5 -68zM132 446q-44 -63 -44 -187q0 -121 43 -184.5t121 -63.5t121.5 63.5t43.5 187.5q0 122 -43 184.5t-121 62.5q-77 0 -121 -63zM319 760l11 -22 l-161 -84l-8 15z" />
<glyph unicode="&#xf4;" horiz-adv-x="505" d="M390.5 461q49.5 -68 49.5 -199q0 -132 -50 -202t-138 -70t-137.5 70t-49.5 199q0 131 50.5 200.5t137.5 69.5q88 0 137.5 -68zM132 446q-44 -63 -44 -187q0 -121 43 -184.5t121 -63.5t121.5 63.5t43.5 187.5q0 122 -43 184.5t-121 62.5q-77 0 -121 -63zM149 654l-11 12 l108 96h13l108 -96l-12 -12l-103 85z" />
<glyph unicode="&#xf5;" horiz-adv-x="505" d="M390.5 461q49.5 -68 49.5 -199q0 -132 -50 -202t-138 -70t-137.5 70t-49.5 199q0 131 50.5 200.5t137.5 69.5q88 0 137.5 -68zM132 446q-44 -63 -44 -187q0 -121 43 -184.5t121 -63.5t121.5 63.5t43.5 187.5q0 122 -43 184.5t-121 62.5q-77 0 -121 -63zM278 684 q-13 6 -33 18q-15 10 -25 15t-20 5q-15 0 -27 -8t-26 -27l-14 8q16 23 32 34.5t35 11.5q12 0 23.5 -5t29.5 -16q17 -11 28.5 -16.5t24.5 -5.5q15 0 27 9t26 31l14 -7q-15 -28 -31 -40.5t-36 -12.5q-15 0 -28 6z" />
<glyph unicode="&#xf6;" horiz-adv-x="505" d="M390.5 461q49.5 -68 49.5 -199q0 -132 -50 -202t-138 -70t-137.5 70t-49.5 199q0 131 50.5 200.5t137.5 69.5q88 0 137.5 -68zM132 446q-44 -63 -44 -187q0 -121 43 -184.5t121 -63.5t121.5 63.5t43.5 187.5q0 122 -43 184.5t-121 62.5q-77 0 -121 -63zM191.5 706.5 q5.5 -5.5 5.5 -14.5q0 -8 -5.5 -13.5t-14.5 -5.5q-8 0 -13.5 5.5t-5.5 13.5t5.5 14t13.5 6q9 0 14.5 -5.5zM342.5 706q5.5 -6 5.5 -14t-5.5 -13.5t-14.5 -5.5t-14.5 5.5t-5.5 13.5t5.5 14t14.5 6t14.5 -6z" />
<glyph unicode="&#xf7;" horiz-adv-x="437" d="M235 139.5q6 -6.5 6 -16.5q0 -9 -6 -15.5t-17 -6.5q-10 0 -16.5 6.5t-6.5 15.5q0 10 6.5 16.5t16.5 6.5q11 0 17 -6.5zM235 553.5q6 -6.5 6 -16.5q0 -9 -6 -15.5t-17 -6.5q-10 0 -16.5 6.5t-6.5 15.5q0 10 6.5 16.5t16.5 6.5q11 0 17 -6.5zM70 320v21h297v-21h-297z" />
<glyph unicode="&#xf8;" horiz-adv-x="505" d="M413.5 419.5q26.5 -62.5 26.5 -157.5q0 -132 -50 -202t-138 -70q-36 0 -66 12l-37 -120l-20 5l39 124q-50 28 -76.5 91t-26.5 157q0 131 50.5 200.5t137.5 69.5q36 0 66 -12l37 122l19 -6l-38 -124q50 -27 76.5 -89.5zM110.5 113.5q22.5 -57.5 64.5 -82.5l139 467 q-30 11 -61 11q-77 0 -121 -63t-44 -187q0 -88 22.5 -145.5zM373.5 74.5q43.5 63.5 43.5 187.5q0 88 -22.5 145t-64.5 82l-137 -467q27 -11 59 -11q78 0 121.5 63.5z" />
<glyph unicode="&#xf9;" horiz-adv-x="519" d="M414 0h-20l-1 104q-26 -52 -66 -83t-94 -31q-62 0 -97 39.5t-35 111.5v378h22v-376q0 -65 29 -98.5t83 -33.5q51 0 89 32t68 90v386h22v-519zM187 760l158 -91l-9 -15l-161 84z" />
<glyph unicode="&#xfa;" horiz-adv-x="519" d="M414 0h-20l-1 104q-26 -52 -66 -83t-94 -31q-62 0 -97 39.5t-35 111.5v378h22v-376q0 -65 29 -98.5t83 -33.5q51 0 89 32t68 90v386h22v-519zM324 760l11 -22l-161 -84l-8 15z" />
<glyph unicode="&#xfb;" horiz-adv-x="519" d="M414 0h-20l-1 104q-26 -52 -66 -83t-94 -31q-62 0 -97 39.5t-35 111.5v378h22v-376q0 -65 29 -98.5t83 -33.5q51 0 89 32t68 90v386h22v-519zM154 654l-11 12l108 96h13l108 -96l-12 -12l-103 85z" />
<glyph unicode="&#xfc;" horiz-adv-x="519" d="M414 0h-20l-1 104q-26 -52 -66 -83t-94 -31q-62 0 -97 39.5t-35 111.5v378h22v-376q0 -65 29 -98.5t83 -33.5q51 0 89 32t68 90v386h22v-519zM196.5 706.5q5.5 -5.5 5.5 -14.5q0 -8 -5.5 -13.5t-14.5 -5.5q-8 0 -13.5 5.5t-5.5 13.5t5.5 14t13.5 6q9 0 14.5 -5.5z M347.5 706q5.5 -6 5.5 -14t-5.5 -13.5t-14.5 -5.5t-14.5 5.5t-5.5 13.5t5.5 14t14.5 6t14.5 -6z" />
<glyph unicode="&#xfd;" horiz-adv-x="405" d="M220 -1q-19 -62 -38 -97t-48 -58t-79 -39l-3 18q46 15 72 36t41.5 52t34.5 89h-9l-168 519h23l160 -501l153 501h24zM270 760l11 -22l-161 -84l-8 15z" />
<glyph unicode="&#xfe;" horiz-adv-x="511" d="M401 462q43 -67 43 -198t-44.5 -202.5t-126.5 -71.5q-47 0 -84 24.5t-62 64.5v-271l-22 -4v929l22 3v-299q61 92 151 92q80 0 123 -67zM382.5 75.5q38.5 64.5 38.5 188.5q0 122 -36.5 183.5t-106.5 61.5q-48 0 -83 -25.5t-68 -74.5v-301q60 -97 145 -97q72 0 110.5 64.5z " />
<glyph unicode="&#xff;" horiz-adv-x="405" d="M220 -1q-19 -62 -38 -97t-48 -58t-79 -39l-3 18q46 15 72 36t41.5 52t34.5 89h-9l-168 519h23l160 -501l153 501h24zM142.5 706.5q5.5 -5.5 5.5 -14.5q0 -8 -5.5 -13.5t-14.5 -5.5q-8 0 -13.5 5.5t-5.5 13.5t5.5 14t13.5 6q9 0 14.5 -5.5zM293.5 706q5.5 -6 5.5 -14 t-5.5 -13.5t-14.5 -5.5t-14.5 5.5t-5.5 13.5t5.5 14t14.5 6t14.5 -6z" />
<glyph unicode="&#x100;" horiz-adv-x="509" d="M458 0l-62 203h-284l-62 -203h-22l212 681h28l213 -681h-23zM119 224h270l-135 439zM350 811h-189v21h189v-21z" />
<glyph unicode="&#x101;" horiz-adv-x="476" d="M380 36q9 -21 32 -30l-5 -16q-29 10 -42 32.5t-14 66.5q-26 -50 -62.5 -74.5t-87.5 -24.5q-66 0 -104 42.5t-38 111.5q0 79 50.5 121.5t138.5 42.5h101v66q0 67 -27.5 101t-89.5 34q-61 0 -131 -32l-8 18q74 34 139 34q139 0 139 -153v-274q0 -45 9 -66zM349 121v167h-98 q-82 0 -125 -36.5t-43 -107.5q0 -62 31.5 -97.5t86.5 -35.5q99 0 148 110zM326 685h-189v21h189v-21z" />
<glyph unicode="&#x102;" horiz-adv-x="509" d="M458 0l-62 203h-284l-62 -203h-22l212 681h28l213 -681h-23zM119 224h270l-135 439zM189 792.5q-27 21.5 -33 54.5l16 4q9 -27 30.5 -43t52.5 -16q30 0 52 16t31 43l15 -4q-6 -33 -32.5 -54.5t-65.5 -21.5t-66 21.5z" />
<glyph unicode="&#x103;" horiz-adv-x="476" d="M380 36q9 -21 32 -30l-5 -16q-29 10 -42 32.5t-14 66.5q-26 -50 -62.5 -74.5t-87.5 -24.5q-66 0 -104 42.5t-38 111.5q0 79 50.5 121.5t138.5 42.5h101v66q0 67 -27.5 101t-89.5 34q-61 0 -131 -32l-8 18q74 34 139 34q139 0 139 -153v-274q0 -45 9 -66zM349 121v167h-98 q-82 0 -125 -36.5t-43 -107.5q0 -62 31.5 -97.5t86.5 -35.5q99 0 148 110zM164.5 685.5q-26.5 23.5 -32.5 62.5l16 4q16 -69 83 -69q32 0 53 17.5t29 51.5l16 -4q-6 -39 -32.5 -62.5t-65.5 -23.5q-40 0 -66.5 23.5z" />
<glyph unicode="&#x104;" horiz-adv-x="509" d="M384 -166q16 -15 47 -15q23 0 50 7l-2 -22q-27 -7 -49 -7q-41 0 -63 22t-22 58q0 41 28.5 71t82.5 57l-60 198h-284l-62 -203h-22l212 681h28l213 -681q-56 -27 -84.5 -54.5t-28.5 -68.5q0 -28 16 -43zM119 224h270l-135 439z" />
<glyph unicode="&#x105;" horiz-adv-x="476" d="M322.5 -64.5q-28.5 -27.5 -28.5 -68.5q0 -28 16 -43t47 -15q23 0 50 7l-2 -22q-27 -7 -49 -7q-41 0 -63 22t-22 58q0 42 30 73t88 58q-20 12 -28.5 33t-9.5 58q-26 -50 -62.5 -74.5t-87.5 -24.5q-66 0 -104 42.5t-38 111.5q0 79 50.5 121.5t138.5 42.5h101v66 q0 67 -27.5 101t-89.5 34q-61 0 -131 -32l-8 18q74 34 139 34q139 0 139 -153v-274q0 -45 9 -66t32 -30l-5 -16q-56 -27 -84.5 -54.5zM349 121v167h-98q-82 0 -125 -36.5t-43 -107.5q0 -62 31.5 -97.5t86.5 -35.5q99 0 148 110z" />
<glyph unicode="&#x106;" horiz-adv-x="485" d="M391 676.5q34 -14.5 64 -43.5l-12 -15q-32 27 -61.5 39.5t-70.5 12.5q-98 0 -158 -81.5t-60 -248.5q0 -108 28 -181.5t76.5 -110t111.5 -36.5q46 0 77 14.5t63 42.5l14 -16q-67 -63 -155 -63q-70 0 -124 39.5t-84 118t-30 192.5q0 117 31 196t85 117t124 38 q47 0 81 -14.5zM380 859l11 -22l-161 -73l-7 15z" />
<glyph unicode="&#x107;" horiz-adv-x="415" d="M321.5 517q28.5 -12 55.5 -38l-13 -15q-23 23 -49 34t-59 11q-77 0 -122.5 -64t-45.5 -188q0 -122 45.5 -184t121.5 -62q64 0 114 47l13 -14q-56 -54 -126 -54q-87 0 -139 69t-52 198q0 130 51.5 201t139.5 71q37 0 65.5 -12zM319 760l11 -22l-161 -84l-8 15z" />
<glyph unicode="&#x108;" horiz-adv-x="485" d="M391 676.5q34 -14.5 64 -43.5l-12 -15q-32 27 -61.5 39.5t-70.5 12.5q-98 0 -158 -81.5t-60 -248.5q0 -108 28 -181.5t76.5 -110t111.5 -36.5q46 0 77 14.5t63 42.5l14 -16q-67 -63 -155 -63q-70 0 -124 39.5t-84 118t-30 192.5q0 117 31 196t85 117t124 38 q47 0 81 -14.5zM204 767l-11 12l108 90h12l109 -90l-11 -12l-104 79z" />
<glyph unicode="&#x109;" horiz-adv-x="415" d="M321.5 517q28.5 -12 55.5 -38l-13 -15q-23 23 -49 34t-59 11q-77 0 -122.5 -64t-45.5 -188q0 -122 45.5 -184t121.5 -62q64 0 114 47l13 -14q-56 -54 -126 -54q-87 0 -139 69t-52 198q0 130 51.5 201t139.5 71q37 0 65.5 -12zM149 654l-11 12l108 96h13l108 -96l-12 -12 l-103 85z" />
<glyph unicode="&#x10a;" horiz-adv-x="485" d="M391 676.5q34 -14.5 64 -43.5l-12 -15q-32 27 -61.5 39.5t-70.5 12.5q-98 0 -158 -81.5t-60 -248.5q0 -108 28 -181.5t76.5 -110t111.5 -36.5q46 0 77 14.5t63 42.5l14 -16q-67 -63 -155 -63q-70 0 -124 39.5t-84 118t-30 192.5q0 117 31 196t85 117t124 38 q47 0 81 -14.5zM323.5 844q5.5 -6 5.5 -14t-5.5 -13.5t-14.5 -5.5t-14.5 5.5t-5.5 13.5t5.5 14t14.5 6t14.5 -6z" />
<glyph unicode="&#x10b;" horiz-adv-x="415" d="M321.5 517q28.5 -12 55.5 -38l-13 -15q-23 23 -49 34t-59 11q-77 0 -122.5 -64t-45.5 -188q0 -122 45.5 -184t121.5 -62q64 0 114 47l13 -14q-56 -54 -126 -54q-87 0 -139 69t-52 198q0 130 51.5 201t139.5 71q37 0 65.5 -12zM267.5 718q5.5 -6 5.5 -14t-5.5 -13.5 t-14.5 -5.5t-14.5 5.5t-5.5 13.5t5.5 14t14.5 6t14.5 -6z" />
<glyph unicode="&#x10c;" horiz-adv-x="485" d="M391 676.5q34 -14.5 64 -43.5l-12 -15q-32 27 -61.5 39.5t-70.5 12.5q-98 0 -158 -81.5t-60 -248.5q0 -108 28 -181.5t76.5 -110t111.5 -36.5q46 0 77 14.5t63 42.5l14 -16q-67 -63 -155 -63q-70 0 -124 39.5t-84 118t-30 192.5q0 117 31 196t85 117t124 38 q47 0 81 -14.5zM411 863l11 -12l-109 -91h-12l-108 91l10 12l104 -80z" />
<glyph unicode="&#x10d;" horiz-adv-x="415" d="M321.5 517q28.5 -12 55.5 -38l-13 -15q-23 23 -49 34t-59 11q-77 0 -122.5 -64t-45.5 -188q0 -122 45.5 -184t121.5 -62q64 0 114 47l13 -14q-56 -54 -126 -54q-87 0 -139 69t-52 198q0 130 51.5 201t139.5 71q37 0 65.5 -12zM356 749l12 -12l-109 -96h-12l-108 96l11 12 l103 -85z" />
<glyph unicode="&#x10e;" horiz-adv-x="559" d="M414 609.5q75 -71.5 75 -261.5q0 -193 -76.5 -270.5t-188.5 -77.5h-114v681h110q119 0 194 -71.5zM133 660v-639h92q104 0 172 72.5t68 254.5t-68.5 247t-177.5 65h-86zM368 863l11 -12l-109 -91h-12l-108 91l10 12l104 -80z" />
<glyph unicode="&#x10f;" horiz-adv-x="515" d="M410 733v-733h-20l-2 88q-50 -98 -147 -98q-80 0 -127 70.5t-47 197.5q0 124 49 197.5t134 73.5q88 0 138 -83v290zM328 39.5q34 28.5 60 84.5v291q-50 94 -138 94q-73 0 -116.5 -66.5t-43.5 -184.5q1 -119 41 -183t111 -64q52 0 86 28.5zM491 588l25 145l-23 2l-17 -144 z" />
<glyph unicode="&#x110;" horiz-adv-x="557" d="M412 609.5q75 -71.5 75 -261.5q0 -193 -76.5 -270.5t-188.5 -77.5h-114v341h-84v22h84v318h110q119 0 194 -71.5zM395 93.5q68 72.5 68 254.5t-68.5 247t-177.5 65h-86v-297h171v-22h-171v-320h92q104 0 172 72.5z" />
<glyph unicode="&#x111;" horiz-adv-x="520" d="M478 649v-20h-68v-629h-20l-2 88q-50 -98 -147 -98q-80 0 -127 70.5t-47 197.5q0 124 49 197.5t134 73.5q88 0 138 -83v183h-155v20h155v87l22 -3v-84h68zM328 39.5q34 28.5 60 84.5v291q-50 94 -138 94q-73 0 -116.5 -66.5t-43.5 -184.5q1 -119 41 -183t111 -64 q52 0 86 28.5z" />
<glyph unicode="&#x112;" horiz-adv-x="446" d="M400 681l-3 -21h-264v-290h228v-21h-228v-328h274v-21h-297v681h290zM353 811h-189v21h189v-21z" />
<glyph unicode="&#x113;" horiz-adv-x="476" d="M414 246h-326q2 -118 46.5 -176.5t118.5 -58.5q39 0 68.5 13.5t61.5 41.5l13 -15q-33 -30 -66.5 -45.5t-76.5 -15.5q-87 0 -137.5 69t-50.5 196q0 131 49 202.5t132 71.5q84 0 127 -65t43 -180q0 -16 -2 -38zM394 292q0 101 -37 159t-110 58q-70 0 -113.5 -61.5 t-45.5 -182.5h305q1 8 1 27zM342 685h-189v21h189v-21z" />
<glyph unicode="&#x114;" horiz-adv-x="446" d="M400 681l-3 -21h-264v-290h228v-21h-228v-328h274v-21h-297v681h290zM192 792.5q-27 21.5 -33 54.5l16 4q9 -27 30.5 -43t52.5 -16q30 0 52 16t31 43l15 -4q-6 -33 -32.5 -54.5t-65.5 -21.5t-66 21.5z" />
<glyph unicode="&#x115;" horiz-adv-x="476" d="M414 246h-326q2 -118 46.5 -176.5t118.5 -58.5q39 0 68.5 13.5t61.5 41.5l13 -15q-33 -30 -66.5 -45.5t-76.5 -15.5q-87 0 -137.5 69t-50.5 196q0 131 49 202.5t132 71.5q84 0 127 -65t43 -180q0 -16 -2 -38zM394 292q0 101 -37 159t-110 58q-70 0 -113.5 -61.5 t-45.5 -182.5h305q1 8 1 27zM180.5 685.5q-26.5 23.5 -32.5 62.5l16 4q16 -69 83 -69q32 0 53 17.5t29 51.5l16 -4q-6 -39 -32.5 -62.5t-65.5 -23.5q-40 0 -66.5 23.5z" />
<glyph unicode="&#x116;" horiz-adv-x="446" d="M400 681l-3 -21h-264v-290h228v-21h-228v-328h274v-21h-297v681h290zM273.5 844q5.5 -6 5.5 -14t-5.5 -13.5t-14.5 -5.5t-14.5 5.5t-5.5 13.5t5.5 14t14.5 6t14.5 -6z" />
<glyph unicode="&#x117;" horiz-adv-x="476" d="M414 246h-326q2 -118 46.5 -176.5t118.5 -58.5q39 0 68.5 13.5t61.5 41.5l13 -15q-33 -30 -66.5 -45.5t-76.5 -15.5q-87 0 -137.5 69t-50.5 196q0 131 49 202.5t132 71.5q84 0 127 -65t43 -180q0 -16 -2 -38zM394 292q0 101 -37 159t-110 58q-70 0 -113.5 -61.5 t-45.5 -182.5h305q1 8 1 27zM261.5 718q5.5 -6 5.5 -14t-5.5 -13.5t-14.5 -5.5t-14.5 5.5t-5.5 13.5t5.5 14t14.5 6t14.5 -6z" />
<glyph unicode="&#x118;" horiz-adv-x="446" d="M407 21v-21h-24q-56 -27 -84.5 -54.5t-28.5 -68.5q0 -28 16 -43t47 -15q23 0 50 7l-2 -22q-27 -7 -49 -7q-41 0 -63 22t-22 58q0 39 25.5 68t75.5 55h-238v681h290l-3 -21h-264v-290h228v-21h-228v-328h274z" />
<glyph unicode="&#x119;" horiz-adv-x="476" d="M414 246h-326q2 -118 46.5 -176.5t118.5 -58.5q39 0 68.5 13.5t61.5 41.5l13 -15q-41 -38 -81 -51q-50 -26 -76 -52t-26 -64q0 -28 17 -44t48 -16q21 0 48 7l-2 -22q-27 -7 -49 -7q-41 0 -63 22.5t-22 59.5q0 33 20 59t58 48q-5 -1 -15 -1q-87 0 -137.5 69t-50.5 196 q0 131 49 202.5t132 71.5q84 0 127 -65t43 -180q0 -16 -2 -38zM394 292q0 101 -37 159t-110 58q-70 0 -113.5 -61.5t-45.5 -182.5h305q1 8 1 27z" />
<glyph unicode="&#x11a;" horiz-adv-x="446" d="M400 681l-3 -21h-264v-290h228v-21h-228v-328h274v-21h-297v681h290zM361 863l11 -12l-109 -91h-12l-108 91l10 12l104 -80z" />
<glyph unicode="&#x11b;" horiz-adv-x="476" d="M414 246h-326q2 -118 46.5 -176.5t118.5 -58.5q39 0 68.5 13.5t61.5 41.5l13 -15q-33 -30 -66.5 -45.5t-76.5 -15.5q-87 0 -137.5 69t-50.5 196q0 131 49 202.5t132 71.5q84 0 127 -65t43 -180q0 -16 -2 -38zM394 292q0 101 -37 159t-110 58q-70 0 -113.5 -61.5 t-45.5 -182.5h305q1 8 1 27zM350 749l12 -12l-109 -96h-12l-108 96l11 12l103 -85z" />
<glyph unicode="&#x11c;" horiz-adv-x="546" d="M395.5 677q35.5 -14 70.5 -45l-14 -16q-33 28 -65 41t-73 13q-58 0 -108 -33t-81.5 -106t-31.5 -186q0 -168 59.5 -250.5t164.5 -82.5q43 0 76.5 10.5t64.5 30.5v280h-130l-3 21h155v-313q-77 -51 -162 -51q-115 0 -181.5 89t-66.5 266q0 117 34.5 195t90 114.5 t119.5 36.5q46 0 81.5 -14zM207 767l-11 12l108 90h12l109 -90l-11 -12l-104 79z" />
<glyph unicode="&#x11d;" horiz-adv-x="440" d="M425 526q-48 -14 -138 -15q45 -16 69.5 -55t24.5 -100q0 -78 -43 -122t-117 -44q-32 0 -67 14q-46 -30 -46 -75q0 -66 94 -66h67q69 0 107 -32.5t38 -87.5q0 -65 -47.5 -102.5t-140.5 -37.5q-99 0 -143 32.5t-44 106.5h21q2 -65 39 -91.5t127 -26.5q84 0 124.5 31 t40.5 87q0 48 -32 74.5t-91 26.5h-68q-56 0 -85 22.5t-29 60.5q0 50 51 86q-79 44 -79 146q0 79 44 125t118 46q92 0 128 4.5t70 16.5zM117 468.5q-36 -40.5 -36 -110.5q0 -71 39.5 -109.5t100.5 -38.5q65 0 101 37.5t36 108.5q0 72 -36.5 112.5t-101.5 40.5 q-67 0 -103 -40.5zM117 654l-11 12l108 96h13l108 -96l-12 -12l-103 85z" />
<glyph unicode="&#x11e;" horiz-adv-x="546" d="M395.5 677q35.5 -14 70.5 -45l-14 -16q-33 28 -65 41t-73 13q-58 0 -108 -33t-81.5 -106t-31.5 -186q0 -168 59.5 -250.5t164.5 -82.5q43 0 76.5 10.5t64.5 30.5v280h-130l-3 21h155v-313q-77 -51 -162 -51q-115 0 -181.5 89t-66.5 266q0 117 34.5 195t90 114.5 t119.5 36.5q46 0 81.5 -14zM245 792.5q-27 21.5 -33 54.5l16 4q9 -27 30.5 -43t52.5 -16q30 0 52 16t31 43l15 -4q-6 -33 -32.5 -54.5t-65.5 -21.5t-66 21.5z" />
<glyph unicode="&#x11f;" horiz-adv-x="440" d="M425 526q-48 -14 -138 -15q45 -16 69.5 -55t24.5 -100q0 -78 -43 -122t-117 -44q-32 0 -67 14q-46 -30 -46 -75q0 -66 94 -66h67q69 0 107 -32.5t38 -87.5q0 -65 -47.5 -102.5t-140.5 -37.5q-99 0 -143 32.5t-44 106.5h21q2 -65 39 -91.5t127 -26.5q84 0 124.5 31 t40.5 87q0 48 -32 74.5t-91 26.5h-68q-56 0 -85 22.5t-29 60.5q0 50 51 86q-79 44 -79 146q0 79 44 125t118 46q92 0 128 4.5t70 16.5zM117 468.5q-36 -40.5 -36 -110.5q0 -71 39.5 -109.5t100.5 -38.5q65 0 101 37.5t36 108.5q0 72 -36.5 112.5t-101.5 40.5 q-67 0 -103 -40.5zM154.5 685.5q-26.5 23.5 -32.5 62.5l16 4q16 -69 83 -69q32 0 53 17.5t29 51.5l16 -4q-6 -39 -32.5 -62.5t-65.5 -23.5q-40 0 -66.5 23.5z" />
<glyph unicode="&#x120;" horiz-adv-x="546" d="M395.5 677q35.5 -14 70.5 -45l-14 -16q-33 28 -65 41t-73 13q-58 0 -108 -33t-81.5 -106t-31.5 -186q0 -168 59.5 -250.5t164.5 -82.5q43 0 76.5 10.5t64.5 30.5v280h-130l-3 21h155v-313q-77 -51 -162 -51q-115 0 -181.5 89t-66.5 266q0 117 34.5 195t90 114.5 t119.5 36.5q46 0 81.5 -14zM326.5 844q5.5 -6 5.5 -14t-5.5 -13.5t-14.5 -5.5t-14.5 5.5t-5.5 13.5t5.5 14t14.5 6t14.5 -6z" />
<glyph unicode="&#x121;" horiz-adv-x="440" d="M425 526q-48 -14 -138 -15q45 -16 69.5 -55t24.5 -100q0 -78 -43 -122t-117 -44q-32 0 -67 14q-46 -30 -46 -75q0 -66 94 -66h67q69 0 107 -32.5t38 -87.5q0 -65 -47.5 -102.5t-140.5 -37.5q-99 0 -143 32.5t-44 106.5h21q2 -65 39 -91.5t127 -26.5q84 0 124.5 31 t40.5 87q0 48 -32 74.5t-91 26.5h-68q-56 0 -85 22.5t-29 60.5q0 50 51 86q-79 44 -79 146q0 79 44 125t118 46q92 0 128 4.5t70 16.5zM117 468.5q-36 -40.5 -36 -110.5q0 -71 39.5 -109.5t100.5 -38.5q65 0 101 37.5t36 108.5q0 72 -36.5 112.5t-101.5 40.5 q-67 0 -103 -40.5zM235.5 718q5.5 -6 5.5 -14t-5.5 -13.5t-14.5 -5.5t-14.5 5.5t-5.5 13.5t5.5 14t14.5 6t14.5 -6z" />
<glyph unicode="&#x122;" horiz-adv-x="546" d="M395.5 677q35.5 -14 70.5 -45l-14 -16q-33 28 -65 41t-73 13q-58 0 -108 -33t-81.5 -106t-31.5 -186q0 -168 59.5 -250.5t164.5 -82.5q43 0 76.5 10.5t64.5 30.5v280h-130l-3 21h155v-313q-77 -51 -162 -51q-115 0 -181.5 89t-66.5 266q0 117 34.5 195t90 114.5 t119.5 36.5q46 0 81.5 -14zM319.5 -102.5q6.5 -6.5 6.5 -16.5t-5.5 -24t-7.5 -20l-32 -95h-15l28 116q-16 6 -16 23q0 10 6.5 16.5t17.5 6.5t17.5 -6.5z" />
<glyph unicode="&#x123;" horiz-adv-x="440" d="M425 526q-48 -14 -138 -15q45 -16 69.5 -55t24.5 -100q0 -78 -43 -122t-117 -44q-32 0 -67 14q-46 -30 -46 -75q0 -66 94 -66h67q69 0 107 -32.5t38 -87.5q0 -65 -47.5 -102.5t-140.5 -37.5q-99 0 -143 32.5t-44 106.5h21q2 -65 39 -91.5t127 -26.5q84 0 124.5 31 t40.5 87q0 48 -32 74.5t-91 26.5h-68q-56 0 -85 22.5t-29 60.5q0 50 51 86q-79 44 -79 146q0 79 44 125t118 46q92 0 128 4.5t70 16.5zM117 468.5q-36 -40.5 -36 -110.5q0 -71 39.5 -109.5t100.5 -38.5q65 0 101 37.5t36 108.5q0 72 -36.5 112.5t-101.5 40.5 q-67 0 -103 -40.5zM200.5 601.5q-6.5 6.5 -6.5 16.5t5.5 24t7.5 20l32 95h15l-28 -116q16 -6 16 -23q0 -10 -6.5 -16.5t-17.5 -6.5t-17.5 6.5z" />
<glyph unicode="&#x124;" horiz-adv-x="594" d="M462 0v349h-329v-349h-23v681h23v-311h329v311h22v-681h-22zM192 767l-11 12l108 90h12l109 -90l-11 -12l-104 79z" />
<glyph unicode="&#x125;" horiz-adv-x="524" d="M391.5 488.5q31.5 -40.5 31.5 -113.5v-375h-22v372q0 67 -26 102t-79 35q-52 0 -93 -32.5t-76 -94.5v-382h-22v733l22 3v-324q70 117 171 117q62 0 93.5 -40.5zM162 818l-11 12l108 90h12l109 -90l-11 -12l-104 79z" />
<glyph unicode="&#x126;" horiz-adv-x="598" d="M540 538v-18h-54v-520h-22v349h-329v-349h-23v520h-54v18h54v143h23v-143h329v143h22v-143h54zM464 370v150h-329v-150h329z" />
<glyph unicode="&#x127;" horiz-adv-x="528" d="M395.5 488.5q31.5 -40.5 31.5 -113.5v-375h-22v372q0 67 -26 102t-79 35q-52 0 -93 -32.5t-76 -94.5v-382h-22v629h-67v20h67v84l22 3v-87h164v-20h-164v-217q70 117 171 117q62 0 93.5 -40.5z" />
<glyph unicode="&#x128;" horiz-adv-x="243" d="M133 681v-681h-23v681h23zM146 810q-13 6 -33 18q-15 10 -25 15t-20 5q-15 0 -27 -8t-26 -27l-14 8q16 23 32 34.5t35 11.5q12 0 23.5 -5t29.5 -16q17 -11 28.5 -16.5t24.5 -5.5q15 0 27 9t26 31l14 -7q-15 -28 -31 -40.5t-36 -12.5q-15 0 -28 6z" />
<glyph unicode="&#x129;" horiz-adv-x="233" d="M127 519v-519h-22v519h22zM141 684q-13 6 -33 18q-15 10 -25 15t-20 5q-15 0 -27 -8t-26 -27l-14 8q16 23 32 34.5t35 11.5q12 0 23.5 -5t29.5 -16q17 -11 28.5 -16.5t24.5 -5.5q15 0 27 9t26 31l14 -7q-15 -28 -31 -40.5t-36 -12.5q-15 0 -28 6z" />
<glyph unicode="&#x12a;" horiz-adv-x="243" d="M133 681v-681h-23v681h23zM216 811h-189v21h189v-21z" />
<glyph unicode="&#x12b;" horiz-adv-x="233" d="M127 519v-519h-22v519h22zM211 685h-189v21h189v-21z" />
<glyph unicode="&#x12c;" horiz-adv-x="243" d="M133 681v-681h-23v681h23zM55 792.5q-27 21.5 -33 54.5l16 4q9 -27 30.5 -43t52.5 -16q30 0 52 16t31 43l15 -4q-6 -33 -32.5 -54.5t-65.5 -21.5t-66 21.5z" />
<glyph unicode="&#x12d;" horiz-adv-x="233" d="M127 519v-519h-22v519h22zM49.5 685.5q-26.5 23.5 -32.5 62.5l16 4q16 -69 83 -69q32 0 53 17.5t29 51.5l16 -4q-6 -39 -32.5 -62.5t-65.5 -23.5q-40 0 -66.5 23.5z" />
<glyph unicode="&#x12e;" horiz-adv-x="243" d="M48.5 -54.5q-28.5 -27.5 -28.5 -68.5q0 -28 16 -43t47 -15q23 0 50 7l-2 -22q-27 -7 -49 -7q-41 0 -63 22t-22 58q0 42 28.5 72t84.5 57v675h23v-681q-56 -27 -84.5 -54.5z" />
<glyph unicode="&#x12f;" horiz-adv-x="233" d="M130.5 718q5.5 -6 5.5 -14t-5.5 -13.5t-14.5 -5.5t-14.5 5.5t-5.5 13.5t5.5 14t14.5 6t14.5 -6zM105 519h22v-519q-56 -27 -84.5 -54.5t-28.5 -68.5q0 -28 16 -43t47 -15q23 0 50 7l-2 -22q-27 -7 -49 -7q-41 0 -63 22t-22 58q0 42 29 72t85 57v513z" />
<glyph unicode="&#x130;" horiz-adv-x="243" d="M133 681v-681h-23v681h23zM136.5 844q5.5 -6 5.5 -14t-5.5 -13.5t-14.5 -5.5t-14.5 5.5t-5.5 13.5t5.5 14t14.5 6t14.5 -6z" />
<glyph unicode="&#x131;" horiz-adv-x="233" d="M127 519v-519h-22v519h22z" />
<glyph unicode="&#x132;" horiz-adv-x="494" d="M133 681v-681h-23v681h23zM389 87q0 -52 -9.5 -84t-35 -55.5t-74.5 -47.5l-7 16q43 22 64.5 44t30 51.5t8.5 77.5v592h23v-594z" />
<glyph unicode="&#x133;" horiz-adv-x="466" d="M127 519v-519h-22v519h22zM130.5 718q5.5 -6 5.5 -14t-5.5 -13.5t-14.5 -5.5t-14.5 5.5t-5.5 13.5t5.5 14t14.5 6t14.5 -6zM361 -11q0 -54 -11 -87t-32 -54t-60 -43l-7 16q34 20 52 39.5t27 49.5t9 80v529h22v-530zM363.5 718q5.5 -6 5.5 -14t-5.5 -13.5t-14.5 -5.5 t-14.5 5.5t-5.5 13.5t5.5 14t14.5 6t14.5 -6z" />
<glyph unicode="&#x134;" horiz-adv-x="251" d="M146 87q0 -52 -9.5 -84t-35 -55.5t-74.5 -47.5l-7 16q43 22 64.5 44t30 51.5t8.5 77.5v592h23v-594zM30 767l-11 12l108 90h12l109 -90l-11 -12l-104 79z" />
<glyph unicode="&#x135;" horiz-adv-x="233" d="M128 -11q0 -54 -11 -87t-32 -54t-60 -43l-7 16q34 20 52 39.5t27 49.5t9 80v529h22v-530zM12 654l-11 12l108 96h13l108 -96l-12 -12l-103 85z" />
<glyph unicode="&#x136;" horiz-adv-x="467" d="M133 681v-681h-23v681h23zM444 681l-281 -314l295 -367h-26l-296 367l282 314h26zM282.5 -102.5q6.5 -6.5 6.5 -16.5t-5.5 -24t-7.5 -20l-32 -95h-15l28 116q-16 6 -16 23q0 10 6.5 16.5t17.5 6.5t17.5 -6.5z" />
<glyph unicode="&#x137;" horiz-adv-x="418" d="M127 736v-736h-22v733zM380 519l-220 -235l243 -284h-27l-243 284l221 235h26zM257.5 -102.5q6.5 -6.5 6.5 -16.5t-5.5 -24t-7.5 -20l-32 -95h-15l28 116q-16 6 -16 23q0 10 6.5 16.5t17.5 6.5t17.5 -6.5z" />
<glyph unicode="&#x138;" horiz-adv-x="418" d="M127 519v-519h-22v519h22zM380 519l-221 -245l244 -274h-27l-243 274l220 245h27z" />
<glyph unicode="&#x139;" horiz-adv-x="411" d="M133 681v-659h259l-4 -22h-278v681h23zM194 859l11 -22l-161 -73l-7 15z" />
<glyph unicode="&#x13a;" horiz-adv-x="249" d="M118 9.5q-18 19.5 -18 56.5v667l22 3v-670q0 -27 12 -41.5t34 -14.5q17 0 35 8l7 -18q-24 -10 -43 -10q-31 0 -49 19.5zM183 911l11 -22l-161 -73l-7 15z" />
<glyph unicode="&#x13b;" horiz-adv-x="411" d="M133 681v-659h259l-4 -22h-278v681h23zM267.5 -102.5q6.5 -6.5 6.5 -16.5t-5.5 -24t-7.5 -20l-32 -95h-15l28 116q-16 6 -16 23q0 10 6.5 16.5t17.5 6.5t17.5 -6.5z" />
<glyph unicode="&#x13c;" horiz-adv-x="249" d="M118 9.5q-18 19.5 -18 56.5v667l22 3v-670q0 -27 12 -41.5t34 -14.5q17 0 35 8l7 -18q-24 -10 -43 -10q-31 0 -49 19.5zM175.5 -102.5q6.5 -6.5 6.5 -16.5t-5.5 -24t-7.5 -20l-32 -95h-15l28 116q-16 6 -16 23q0 10 6.5 16.5t17.5 6.5t17.5 -6.5z" />
<glyph unicode="&#x13d;" horiz-adv-x="411" d="M133 681v-659h259l-4 -22h-278v681h23zM215 537l25 145l-23 2l-17 -144z" />
<glyph unicode="&#x13e;" horiz-adv-x="249" d="M118 9.5q-18 19.5 -18 56.5v667l22 3v-670q0 -27 12 -41.5t34 -14.5q17 0 35 8l7 -18q-24 -10 -43 -10q-31 0 -49 19.5zM207 588l25 145l-23 2l-17 -144z" />
<glyph unicode="&#x13f;" horiz-adv-x="411" d="M133 681v-659h259l-4 -22h-278v681h23zM332.5 368q5.5 -6 5.5 -14t-5.5 -13.5t-14.5 -5.5t-14.5 5.5t-5.5 13.5t5.5 14t14.5 6t14.5 -6z" />
<glyph unicode="&#x140;" horiz-adv-x="249" d="M118 9.5q-18 19.5 -18 56.5v667l22 3v-670q0 -27 12 -41.5t34 -14.5q17 0 35 8l7 -18q-24 -10 -43 -10q-31 0 -49 19.5zM249.5 389q5.5 -6 5.5 -14t-5.5 -13.5t-14.5 -5.5t-14.5 5.5t-5.5 13.5t5.5 14t14.5 6t14.5 -6z" />
<glyph unicode="&#x141;" horiz-adv-x="416" d="M138 22h259l-4 -22h-278v308l-66 -46l-9 17l75 51v351h23v-335l179 124l9 -17l-188 -130v-301z" />
<glyph unicode="&#x142;" horiz-adv-x="261" d="M209 18l7 -18q-24 -10 -43 -10q-31 0 -49 19.5t-18 56.5v279l-57 -39l-10 15l67 46v366l22 3v-354l95 65l9 -16l-104 -71v-294q0 -27 12 -41.5t34 -14.5q17 0 35 8z" />
<glyph unicode="&#x143;" horiz-adv-x="596" d="M486 0h-29l-328 655q3 -51 3 -178v-477h-22v681h29l328 -655q-3 120 -3 179v476h22v-681zM376 859l11 -22l-161 -73l-7 15z" />
<glyph unicode="&#x144;" horiz-adv-x="524" d="M391.5 489q31.5 -40 31.5 -114v-375h-22v372q0 137 -105 137q-52 0 -93 -33t-76 -94v-382h-22v519h20l2 -106q68 116 171 116q62 0 93.5 -40zM333 760l11 -22l-161 -84l-8 15z" />
<glyph unicode="&#x145;" horiz-adv-x="596" d="M486 0h-29l-328 655q3 -51 3 -178v-477h-22v681h29l328 -655q-3 120 -3 179v476h22v-681zM312.5 -102.5q6.5 -6.5 6.5 -16.5t-5.5 -24t-7.5 -20l-32 -95h-15l28 116q-16 6 -16 23q0 10 6.5 16.5t17.5 6.5t17.5 -6.5z" />
<glyph unicode="&#x146;" horiz-adv-x="524" d="M391.5 489q31.5 -40 31.5 -114v-375h-22v372q0 137 -105 137q-52 0 -93 -33t-76 -94v-382h-22v519h20l2 -106q68 116 171 116q62 0 93.5 -40zM276.5 -102.5q6.5 -6.5 6.5 -16.5t-5.5 -24t-7.5 -20l-32 -95h-15l28 116q-16 6 -16 23q0 10 6.5 16.5t17.5 6.5t17.5 -6.5z " />
<glyph unicode="&#x147;" horiz-adv-x="596" d="M486 0h-29l-328 655q3 -51 3 -178v-477h-22v681h29l328 -655q-3 120 -3 179v476h22v-681zM407 863l11 -12l-109 -91h-12l-108 91l10 12l104 -80z" />
<glyph unicode="&#x148;" horiz-adv-x="524" d="M391.5 489q31.5 -40 31.5 -114v-375h-22v372q0 137 -105 137q-52 0 -93 -33t-76 -94v-382h-22v519h20l2 -106q68 116 171 116q62 0 93.5 -40zM370 749l12 -12l-109 -96h-12l-108 96l11 12l103 -85z" />
<glyph unicode="&#x149;" horiz-adv-x="581" d="M105.5 730q6.5 -7 6.5 -17q0 -8 -6 -23l-7 -21l-28 -99h-15l24 120q-16 6 -16 23q0 10 6.5 17t17.5 7t17.5 -7zM449.5 489q31.5 -40 31.5 -114v-375h-22v372q0 137 -105 137q-52 0 -93 -33t-76 -94v-382h-22v519h20l2 -106q68 116 171 116q62 0 93.5 -40z" />
<glyph unicode="&#x14a;" horiz-adv-x="596" d="M486 0h-1v-95q0 -50 -24 -76t-64 -26q-47 0 -81 30l11 16q15 -12 31 -18.5t38 -6.5q30 0 48.5 19.5t18.5 61.5v95h-6l-328 655q3 -51 3 -178v-477h-22v681h29l328 -655q-3 120 -3 179v476h22v-681z" />
<glyph unicode="&#x14b;" horiz-adv-x="524" d="M423 0h-1v-95q0 -50 -24 -76t-64 -26q-47 0 -81 30l11 15q15 -12 31 -18.5t38 -6.5q30 0 48.5 19.5t18.5 62.5v96h1v371q0 137 -105 137q-52 0 -93 -33t-76 -94v-382h-22v519h20l2 -106q68 116 171 116q62 0 93.5 -40t31.5 -114v-375z" />
<glyph unicode="&#x14c;" horiz-adv-x="620" d="M486.5 601.5q64.5 -89.5 64.5 -261.5q0 -169 -63.5 -259.5t-177.5 -90.5q-73 0 -127 40t-83.5 118.5t-29.5 190.5q0 113 30 192t84 119.5t126 40.5q112 0 176.5 -89.5zM151.5 585.5q-58.5 -84.5 -58.5 -246.5q0 -160 58.5 -243.5t158.5 -83.5q104 0 160.5 83t56.5 245 q0 164 -57.5 247t-159.5 83q-100 0 -158.5 -84.5zM405 811h-189v21h189v-21z" />
<glyph unicode="&#x14d;" horiz-adv-x="505" d="M390.5 461q49.5 -68 49.5 -199q0 -132 -50 -202t-138 -70t-137.5 70t-49.5 199q0 131 50.5 200.5t137.5 69.5q88 0 137.5 -68zM132 446q-44 -63 -44 -187q0 -121 43 -184.5t121 -63.5t121.5 63.5t43.5 187.5q0 122 -43 184.5t-121 62.5q-77 0 -121 -63zM348 685h-189v21 h189v-21z" />
<glyph unicode="&#x14e;" horiz-adv-x="620" d="M486.5 601.5q64.5 -89.5 64.5 -261.5q0 -169 -63.5 -259.5t-177.5 -90.5q-73 0 -127 40t-83.5 118.5t-29.5 190.5q0 113 30 192t84 119.5t126 40.5q112 0 176.5 -89.5zM151.5 585.5q-58.5 -84.5 -58.5 -246.5q0 -160 58.5 -243.5t158.5 -83.5q104 0 160.5 83t56.5 245 q0 164 -57.5 247t-159.5 83q-100 0 -158.5 -84.5zM244 792.5q-27 21.5 -33 54.5l16 4q9 -27 30.5 -43t52.5 -16q30 0 52 16t31 43l15 -4q-6 -33 -32.5 -54.5t-65.5 -21.5t-66 21.5z" />
<glyph unicode="&#x14f;" horiz-adv-x="505" d="M390.5 461q49.5 -68 49.5 -199q0 -132 -50 -202t-138 -70t-137.5 70t-49.5 199q0 131 50.5 200.5t137.5 69.5q88 0 137.5 -68zM132 446q-44 -63 -44 -187q0 -121 43 -184.5t121 -63.5t121.5 63.5t43.5 187.5q0 122 -43 184.5t-121 62.5q-77 0 -121 -63zM186.5 685.5 q-26.5 23.5 -32.5 62.5l16 4q16 -69 83 -69q32 0 53 17.5t29 51.5l16 -4q-6 -39 -32.5 -62.5t-65.5 -23.5q-40 0 -66.5 23.5z" />
<glyph unicode="&#x150;" horiz-adv-x="620" d="M486.5 601.5q64.5 -89.5 64.5 -261.5q0 -169 -63.5 -259.5t-177.5 -90.5q-73 0 -127 40t-83.5 118.5t-29.5 190.5q0 113 30 192t84 119.5t126 40.5q112 0 176.5 -89.5zM151.5 585.5q-58.5 -84.5 -58.5 -246.5q0 -160 58.5 -243.5t158.5 -83.5q104 0 160.5 83t56.5 245 q0 164 -57.5 247t-159.5 83q-100 0 -158.5 -84.5zM406 917l21 -10l-70 -129l-16 8zM306 916l21 -11l-65 -123l-15 7z" />
<glyph unicode="&#x151;" horiz-adv-x="505" d="M390.5 461q49.5 -68 49.5 -199q0 -132 -50 -202t-138 -70t-137.5 70t-49.5 199q0 131 50.5 200.5t137.5 69.5q88 0 137.5 -68zM132 446q-44 -63 -44 -187q0 -121 43 -184.5t121 -63.5t121.5 63.5t43.5 187.5q0 122 -43 184.5t-121 62.5q-77 0 -121 -63zM352 791l21 -10 l-70 -129l-16 8zM252 790l21 -11l-65 -123l-15 7z" />
<glyph unicode="&#x152;" horiz-adv-x="763" d="M724 0h-366q-27 -10 -59 -10q-68 0 -119.5 41t-80.5 119.5t-29 188.5t29 189.5t81 121t119 41.5q37 0 64 -10h354l-3 -21h-310q58 -35 91 -109t36 -181h147v-21h-147q-1 -128 -35 -211t-96 -117h324v-21zM119 161.5q26 -73.5 72.5 -111.5t107.5 -38q98 0 153 87t55 253 q0 101 -26 172.5t-73 108.5t-109 37q-61 0 -107.5 -38.5t-72.5 -113t-26 -179.5q0 -104 26 -177.5z" />
<glyph unicode="&#x153;" horiz-adv-x="828" d="M766 246h-326q3 -116 47.5 -175.5t117.5 -59.5q39 0 69 13.5t62 41.5l12 -15q-34 -30 -67.5 -45.5t-75.5 -15.5q-67 0 -113 44t-64 123q-19 -79 -64.5 -123t-111.5 -44q-88 0 -137.5 70.5t-49.5 198.5q0 130 50.5 200t137.5 70q67 0 112.5 -44t63.5 -124q19 79 63 123.5 t107 44.5q83 0 126 -65.5t43 -179.5q0 -16 -2 -38zM373 76.5q44 65.5 44 185.5q0 118 -43.5 182.5t-120.5 64.5t-121 -63.5t-44 -186.5q0 -121 43 -184.5t121 -63.5q77 0 121 65.5zM746 292q0 101 -37 159t-110 58q-69 0 -113 -62.5t-46 -181.5h306v27z" />
<glyph unicode="&#x154;" horiz-adv-x="516" d="M451 0l-170 325l-19 -1h-129v-324h-23v681h126q111 0 161.5 -45t50.5 -132q0 -75 -38 -119t-105 -56l172 -329h-26zM378.5 384.5q46.5 39.5 46.5 119.5q0 77 -44 116.5t-148 39.5h-100v-315h115q84 0 130.5 39.5zM328 859l11 -22l-161 -73l-7 15z" />
<glyph unicode="&#x155;" horiz-adv-x="327" d="M311 523l-4 -19q-18 6 -41 6q-52 0 -84.5 -39.5t-54.5 -124.5v-346h-22v519h20l1 -124q20 69 54 101.5t87 32.5q22 0 44 -6zM273 760l11 -22l-161 -84l-8 15z" />
<glyph unicode="&#x156;" horiz-adv-x="516" d="M451 0l-170 325l-19 -1h-129v-324h-23v681h126q111 0 161.5 -45t50.5 -132q0 -75 -38 -119t-105 -56l172 -329h-26zM378.5 384.5q46.5 39.5 46.5 119.5q0 77 -44 116.5t-148 39.5h-100v-315h115q84 0 130.5 39.5zM289.5 -102.5q6.5 -6.5 6.5 -16.5t-5.5 -24t-7.5 -20 l-32 -95h-15l28 116q-16 6 -16 23q0 10 6.5 16.5t17.5 6.5t17.5 -6.5z" />
<glyph unicode="&#x157;" horiz-adv-x="327" d="M311 523l-4 -19q-18 6 -41 6q-52 0 -84.5 -39.5t-54.5 -124.5v-346h-22v519h20l1 -124q20 69 54 101.5t87 32.5q22 0 44 -6zM132.5 -102.5q6.5 -6.5 6.5 -16.5t-5.5 -24t-7.5 -20l-32 -95h-15l28 116q-16 6 -16 23q0 10 6.5 16.5t17.5 6.5t17.5 -6.5z" />
<glyph unicode="&#x158;" horiz-adv-x="516" d="M451 0l-170 325l-19 -1h-129v-324h-23v681h126q111 0 161.5 -45t50.5 -132q0 -75 -38 -119t-105 -56l172 -329h-26zM378.5 384.5q46.5 39.5 46.5 119.5q0 77 -44 116.5t-148 39.5h-100v-315h115q84 0 130.5 39.5zM359 863l11 -12l-109 -91h-12l-108 91l10 12l104 -80z " />
<glyph unicode="&#x159;" horiz-adv-x="327" d="M311 523l-4 -19q-18 6 -41 6q-52 0 -84.5 -39.5t-54.5 -124.5v-346h-22v519h20l1 -124q20 69 54 101.5t87 32.5q22 0 44 -6zM310 749l12 -12l-109 -96h-12l-108 96l11 12l103 -85z" />
<glyph unicode="&#x15a;" horiz-adv-x="483" d="M329.5 673.5q37.5 -17.5 72.5 -51.5l-15 -15q-34 33 -68 48t-80 15q-65 0 -105 -38.5t-40 -97.5q0 -40 14.5 -67.5t47.5 -48t91 -41.5q93 -32 133.5 -74.5t40.5 -120.5q0 -55 -24 -98.5t-67 -68.5t-98 -25q-57 0 -101 21t-83 61l15 14q37 -37 75.5 -55.5t92.5 -18.5 q75 0 121 47t46 122q0 48 -16 80t-49.5 54t-93.5 43q-93 33 -130.5 72t-37.5 104q0 43 21 79t59.5 57t87.5 21q53 0 90.5 -17.5zM315 859l11 -22l-161 -73l-7 15z" />
<glyph unicode="&#x15b;" horiz-adv-x="414" d="M281 515.5q33 -13.5 65 -41.5l-13 -16q-30 27 -58.5 39t-67.5 12q-53 0 -87 -29.5t-34 -78.5q0 -43 28.5 -68t98.5 -49q81 -27 113.5 -58.5t32.5 -91.5q0 -64 -43.5 -104t-110.5 -40q-51 0 -88 17.5t-70 48.5l13 14q33 -30 65.5 -45t79.5 -15q58 0 94.5 33t36.5 91 q0 36 -12 59t-40.5 39.5t-81.5 34.5q-75 25 -106.5 55t-31.5 79q0 56 41 92t101 36q42 0 75 -13.5zM278 760l11 -22l-161 -84l-8 15z" />
<glyph unicode="&#x15c;" horiz-adv-x="483" d="M329.5 673.5q37.5 -17.5 72.5 -51.5l-15 -15q-34 33 -68 48t-80 15q-65 0 -105 -38.5t-40 -97.5q0 -40 14.5 -67.5t47.5 -48t91 -41.5q93 -32 133.5 -74.5t40.5 -120.5q0 -55 -24 -98.5t-67 -68.5t-98 -25q-57 0 -101 21t-83 61l15 14q37 -37 75.5 -55.5t92.5 -18.5 q75 0 121 47t46 122q0 48 -16 80t-49.5 54t-93.5 43q-93 33 -130.5 72t-37.5 104q0 43 21 79t59.5 57t87.5 21q53 0 90.5 -17.5zM139 767l-11 12l108 90h12l109 -90l-11 -12l-104 79z" />
<glyph unicode="&#x15d;" horiz-adv-x="414" d="M281 515.5q33 -13.5 65 -41.5l-13 -16q-30 27 -58.5 39t-67.5 12q-53 0 -87 -29.5t-34 -78.5q0 -43 28.5 -68t98.5 -49q81 -27 113.5 -58.5t32.5 -91.5q0 -64 -43.5 -104t-110.5 -40q-51 0 -88 17.5t-70 48.5l13 14q33 -30 65.5 -45t79.5 -15q58 0 94.5 33t36.5 91 q0 36 -12 59t-40.5 39.5t-81.5 34.5q-75 25 -106.5 55t-31.5 79q0 56 41 92t101 36q42 0 75 -13.5zM108 654l-11 12l108 96h13l108 -96l-12 -12l-103 85z" />
<glyph unicode="&#x15e;" horiz-adv-x="483" d="M398 85q-23 -43 -64.5 -68.5t-94.5 -26.5l-1 -64q82 -6 82 -67q0 -34 -22.5 -52.5t-54.5 -18.5q-35 0 -62 18l10 16q22 -15 52 -15q24 0 39.5 13t15.5 39t-19.5 38t-61.5 13l5 80q-54 2 -95.5 23t-78.5 59l15 14q37 -37 75.5 -55.5t92.5 -18.5q75 0 121 47t46 122 q0 48 -16 80t-49.5 54t-93.5 43q-93 33 -130.5 72t-37.5 104q0 43 21 79t59.5 57t87.5 21q53 0 90.5 -17.5t72.5 -51.5l-15 -15q-34 33 -68 48t-80 15q-65 0 -105 -38.5t-40 -97.5q0 -40 14.5 -67.5t47.5 -48t91 -41.5q93 -32 133.5 -74.5t40.5 -120.5q0 -54 -23 -97z" />
<glyph unicode="&#x15f;" horiz-adv-x="414" d="M317.5 32q-41.5 -40 -106.5 -42l-1 -64q82 -6 82 -67q0 -34 -22.5 -52.5t-54.5 -18.5q-35 0 -62 18l10 16q23 -15 52 -15q24 0 39.5 13t15.5 39t-19.5 38t-61.5 13l5 80q-47 2 -81.5 19t-65.5 47l13 14q33 -30 65.5 -45t79.5 -15q58 0 94.5 33t36.5 91q0 36 -12 59 t-40.5 39.5t-81.5 34.5q-75 25 -106.5 55t-31.5 79q0 56 41 92t101 36q42 0 75 -13.5t65 -41.5l-13 -16q-30 27 -58.5 39t-67.5 12q-53 0 -87 -29.5t-34 -78.5q0 -43 28.5 -68t98.5 -49q81 -27 113.5 -58.5t32.5 -91.5q0 -62 -41.5 -102z" />
<glyph unicode="&#x160;" horiz-adv-x="483" d="M329.5 673.5q37.5 -17.5 72.5 -51.5l-15 -15q-34 33 -68 48t-80 15q-65 0 -105 -38.5t-40 -97.5q0 -40 14.5 -67.5t47.5 -48t91 -41.5q93 -32 133.5 -74.5t40.5 -120.5q0 -55 -24 -98.5t-67 -68.5t-98 -25q-57 0 -101 21t-83 61l15 14q37 -37 75.5 -55.5t92.5 -18.5 q75 0 121 47t46 122q0 48 -16 80t-49.5 54t-93.5 43q-93 33 -130.5 72t-37.5 104q0 43 21 79t59.5 57t87.5 21q53 0 90.5 -17.5zM346 863l11 -12l-109 -91h-12l-108 91l10 12l104 -80z" />
<glyph unicode="&#x161;" horiz-adv-x="414" d="M281 515.5q33 -13.5 65 -41.5l-13 -16q-30 27 -58.5 39t-67.5 12q-53 0 -87 -29.5t-34 -78.5q0 -43 28.5 -68t98.5 -49q81 -27 113.5 -58.5t32.5 -91.5q0 -64 -43.5 -104t-110.5 -40q-51 0 -88 17.5t-70 48.5l13 14q33 -30 65.5 -45t79.5 -15q58 0 94.5 33t36.5 91 q0 36 -12 59t-40.5 39.5t-81.5 34.5q-75 25 -106.5 55t-31.5 79q0 56 41 92t101 36q42 0 75 -13.5zM315 749l12 -12l-109 -96h-12l-108 96l11 12l103 -85z" />
<glyph unicode="&#x162;" horiz-adv-x="429" d="M225 -74q82 -5 82 -66q0 -34 -22.5 -53t-54.5 -19q-35 0 -62 18l9 17q22 -15 53 -15q23 0 39 13t16 39q0 25 -19.5 37t-61.5 13l5 90h-6v660h-188v21h403l-4 -21h-188v-660z" />
<glyph unicode="&#x163;" horiz-adv-x="293" d="M286 -141q0 -34 -22.5 -52.5t-54.5 -18.5q-35 0 -62 18l10 16q23 -15 52 -15q24 0 39.5 13t15.5 39t-19.5 38t-61.5 13l5 81q-41 5 -64.5 34.5t-23.5 79.5v394h-77v20h77v131l22 2v-133h129l-3 -20h-126v-392q0 -46 21 -71t61 -25q39 0 80 25l10 -16q-44 -30 -89 -30 l-1 -64q82 -6 82 -67z" />
<glyph unicode="&#x164;" horiz-adv-x="429" d="M418 681l-4 -21h-188v-660h-23v660h-188v21h403zM318 863l11 -12l-109 -91h-12l-108 91l10 12l104 -80z" />
<glyph unicode="&#x165;" horiz-adv-x="293" d="M294 20q-44 -30 -91 -30q-48 0 -75.5 30t-27.5 85v394h-77v20h77v131l22 2v-133h129l-3 -20h-126v-392q0 -46 21 -71t61 -25q39 0 80 25zM192 590l25 145l-23 2l-17 -144z" />
<glyph unicode="&#x166;" horiz-adv-x="429" d="M414 660h-188v-280h112v-20h-112v-360h-23v360h-111v20h111v280h-188v21h403z" />
<glyph unicode="&#x167;" horiz-adv-x="293" d="M294 20q-44 -30 -91 -30q-48 0 -75.5 30t-27.5 85v217h-76v19h76v158h-77v20h77v131l22 2v-133h129l-3 -20h-126v-158h124v-19h-124v-215q0 -46 21 -71t61 -25q39 0 80 25z" />
<glyph unicode="&#x168;" horiz-adv-x="575" d="M475 188q0 -89 -46.5 -143.5t-140.5 -54.5q-95 0 -141.5 54.5t-46.5 143.5v493h23v-491q0 -82 40 -130t125 -48q84 0 124 48.5t40 129.5v491h23v-493zM313 810q-13 6 -33 18q-15 10 -25 15t-20 5q-15 0 -27 -8t-26 -27l-14 8q16 23 32 34.5t35 11.5q12 0 23.5 -5 t29.5 -16q17 -11 28.5 -16.5t24.5 -5.5q15 0 27 9t26 31l14 -7q-15 -28 -31 -40.5t-36 -12.5q-15 0 -28 6z" />
<glyph unicode="&#x169;" horiz-adv-x="519" d="M414 0h-20l-1 104q-26 -52 -66 -83t-94 -31q-62 0 -97 39.5t-35 111.5v378h22v-376q0 -65 29 -98.5t83 -33.5q51 0 89 32t68 90v386h22v-519zM283 684q-13 6 -33 18q-15 10 -25 15t-20 5q-15 0 -27 -8t-26 -27l-14 8q16 23 32 34.5t35 11.5q12 0 23.5 -5t29.5 -16 q17 -11 28.5 -16.5t24.5 -5.5q15 0 27 9t26 31l14 -7q-15 -28 -31 -40.5t-36 -12.5q-15 0 -28 6z" />
<glyph unicode="&#x16a;" horiz-adv-x="575" d="M475 188q0 -89 -46.5 -143.5t-140.5 -54.5q-95 0 -141.5 54.5t-46.5 143.5v493h23v-491q0 -82 40 -130t125 -48q84 0 124 48.5t40 129.5v491h23v-493zM383 811h-189v21h189v-21z" />
<glyph unicode="&#x16b;" horiz-adv-x="519" d="M414 0h-20l-1 104q-26 -52 -66 -83t-94 -31q-62 0 -97 39.5t-35 111.5v378h22v-376q0 -65 29 -98.5t83 -33.5q51 0 89 32t68 90v386h22v-519zM353 685h-189v21h189v-21z" />
<glyph unicode="&#x16c;" horiz-adv-x="575" d="M475 188q0 -89 -46.5 -143.5t-140.5 -54.5q-95 0 -141.5 54.5t-46.5 143.5v493h23v-491q0 -82 40 -130t125 -48q84 0 124 48.5t40 129.5v491h23v-493zM222 792.5q-27 21.5 -33 54.5l16 4q9 -27 30.5 -43t52.5 -16q30 0 52 16t31 43l15 -4q-6 -33 -32.5 -54.5t-65.5 -21.5 t-66 21.5z" />
<glyph unicode="&#x16d;" horiz-adv-x="519" d="M414 0h-20l-1 104q-26 -52 -66 -83t-94 -31q-62 0 -97 39.5t-35 111.5v378h22v-376q0 -65 29 -98.5t83 -33.5q51 0 89 32t68 90v386h22v-519zM191.5 685.5q-26.5 23.5 -32.5 62.5l16 4q16 -69 83 -69q32 0 53 17.5t29 51.5l16 -4q-6 -39 -32.5 -62.5t-65.5 -23.5 q-40 0 -66.5 23.5z" />
<glyph unicode="&#x16e;" horiz-adv-x="575" d="M475 188q0 -89 -46.5 -143.5t-140.5 -54.5q-95 0 -141.5 54.5t-46.5 143.5v493h23v-491q0 -82 40 -130t125 -48q84 0 124 48.5t40 129.5v491h23v-493zM341 906q20 -21 20 -57q0 -37 -20 -58t-53 -21t-52.5 21t-19.5 57q0 37 19.5 58t52.5 21t53 -21zM249.5 893.5 q-13.5 -15.5 -13.5 -45.5t13.5 -45t38.5 -15q26 0 39.5 15.5t13.5 45.5q0 60 -53 60q-25 0 -38.5 -15.5z" />
<glyph unicode="&#x16f;" horiz-adv-x="519" d="M414 0h-20l-1 104q-26 -52 -66 -83t-94 -31q-62 0 -97 39.5t-35 111.5v378h22v-376q0 -65 29 -98.5t83 -33.5q51 0 89 32t68 90v386h22v-519zM311 780q20 -21 20 -57q0 -37 -20 -58t-53 -21t-52.5 21t-19.5 57q0 37 19.5 58t52.5 21t53 -21zM219.5 767.5 q-13.5 -15.5 -13.5 -45.5t13.5 -45t38.5 -15q26 0 39.5 15.5t13.5 45.5q0 60 -53 60q-25 0 -38.5 -15.5z" />
<glyph unicode="&#x170;" horiz-adv-x="575" d="M475 188q0 -89 -46.5 -143.5t-140.5 -54.5q-95 0 -141.5 54.5t-46.5 143.5v493h23v-491q0 -82 40 -130t125 -48q84 0 124 48.5t40 129.5v491h23v-493zM384 917l21 -10l-70 -129l-16 8zM284 916l21 -11l-65 -123l-15 7z" />
<glyph unicode="&#x171;" horiz-adv-x="519" d="M414 0h-20l-1 104q-26 -52 -66 -83t-94 -31q-62 0 -97 39.5t-35 111.5v378h22v-376q0 -65 29 -98.5t83 -33.5q51 0 89 32t68 90v386h22v-519zM357 791l21 -10l-70 -129l-16 8zM257 790l21 -11l-65 -123l-15 7z" />
<glyph unicode="&#x172;" horiz-adv-x="575" d="M475 681v-493q0 -72 -31 -122.5t-94 -67.5q-54 -26 -81 -53t-27 -66q0 -28 17 -44t48 -16q21 0 48 7l-2 -22q-27 -7 -49 -7q-41 0 -63 22.5t-22 59.5q0 35 22.5 62t65.5 50q-6 -1 -19 -1q-95 0 -141.5 54.5t-46.5 143.5v493h23v-491q0 -82 40 -130t125 -48q84 0 124 48.5 t40 129.5v491h23z" />
<glyph unicode="&#x173;" horiz-adv-x="519" d="M414 519v-519h-1q-56 -27 -84.5 -54.5t-28.5 -68.5q0 -28 16 -43t47 -15q23 0 50 7l-2 -22q-27 -7 -49 -7q-41 0 -63 22t-22 58q0 42 29.5 72.5t87.5 58.5l-1 96q-26 -52 -66 -83t-94 -31q-62 0 -97 39.5t-35 111.5v378h22v-376q0 -65 29 -98.5t83 -33.5q51 0 89 32 t68 90v386h22z" />
<glyph unicode="&#x174;" horiz-adv-x="717" d="M681 681l-143 -681h-27l-153 659l-152 -659h-27l-143 681h23l134 -657l151 657h28l153 -657l133 657h23zM254 767l-11 12l108 90h12l109 -90l-11 -12l-104 79z" />
<glyph unicode="&#x175;" horiz-adv-x="619" d="M587 519l-122 -519h-30l-125 497l-124 -497h-30l-124 519h23l116 -497l126 497h28l125 -498l115 498h22zM206 654l-11 12l108 96h13l108 -96l-12 -12l-103 85z" />
<glyph unicode="&#x176;" horiz-adv-x="446" d="M427 681l-191 -410v-271h-23v270l-194 411h24l182 -389l178 389h24zM119 767l-11 12l108 90h12l109 -90l-11 -12l-104 79z" />
<glyph unicode="&#x177;" horiz-adv-x="405" d="M220 -1q-19 -62 -38 -97t-48 -58t-79 -39l-3 18q46 15 72 36t41.5 52t34.5 89h-9l-168 519h23l160 -501l153 501h24zM100 654l-11 12l108 96h13l108 -96l-12 -12l-103 85z" />
<glyph unicode="&#x178;" horiz-adv-x="446" d="M427 681l-191 -410v-271h-23v270l-194 411h24l182 -389l178 389h24zM164.5 832.5q5.5 -5.5 5.5 -14.5q0 -8 -5.5 -13.5t-14.5 -5.5q-8 0 -13.5 5.5t-5.5 13.5t5.5 14t13.5 6q9 0 14.5 -5.5zM315.5 832q5.5 -6 5.5 -14t-5.5 -13.5t-14.5 -5.5t-14.5 5.5t-5.5 13.5t5.5 14 t14.5 6t14.5 -6z" />
<glyph unicode="&#x179;" horiz-adv-x="459" d="M414 681v-19l-352 -640h340l-3 -22h-362v21l352 639h-318v21h343zM302 859l11 -22l-161 -73l-7 15z" />
<glyph unicode="&#x17a;" horiz-adv-x="370" d="M337 519v-18l-283 -480h277l-2 -21h-301v18l284 481h-260v20h285zM259 760l11 -22l-161 -84l-8 15z" />
<glyph unicode="&#x17b;" horiz-adv-x="459" d="M414 681v-19l-352 -640h340l-3 -22h-362v21l352 639h-318v21h343zM245.5 844q5.5 -6 5.5 -14t-5.5 -13.5t-14.5 -5.5t-14.5 5.5t-5.5 13.5t5.5 14t14.5 6t14.5 -6z" />
<glyph unicode="&#x17c;" horiz-adv-x="370" d="M337 519v-18l-283 -480h277l-2 -21h-301v18l284 481h-260v20h285zM207.5 718q5.5 -6 5.5 -14t-5.5 -13.5t-14.5 -5.5t-14.5 5.5t-5.5 13.5t5.5 14t14.5 6t14.5 -6z" />
<glyph unicode="&#x17d;" horiz-adv-x="459" d="M414 681v-19l-352 -640h340l-3 -22h-362v21l352 639h-318v21h343zM333 863l11 -12l-109 -91h-12l-108 91l10 12l104 -80z" />
<glyph unicode="&#x17e;" horiz-adv-x="370" d="M337 519v-18l-283 -480h277l-2 -21h-301v18l284 481h-260v20h285zM296 749l12 -12l-109 -96h-12l-108 96l11 12l103 -85z" />
<glyph unicode="&#x17f;" horiz-adv-x="277" d="M326 706l-10 -17q-46 27 -93 27q-44 0 -68.5 -23.5t-24.5 -72.5v-620h-22v499h-80v20h80v104q0 54 31 84t82 30q54 0 105 -31z" />
<glyph unicode="&#x180;" horiz-adv-x="515" d="M405.5 462q42.5 -67 42.5 -198q0 -132 -44.5 -203t-127.5 -71q-46 0 -83 25t-62 65l-2 -80h-20v629h-67v20h67v84l22 3v-87h164v-20h-164v-194q61 94 151 94q81 0 123.5 -67zM387 75.5q38 64.5 38 188.5q0 245 -144 245q-48 0 -82.5 -25t-67.5 -75v-302q59 -96 144 -96 q74 0 112 64.5z" />
<glyph unicode="&#x181;" horiz-adv-x="568" d="M469.5 312q43.5 -44 43.5 -128q0 -91 -55.5 -137.5t-154.5 -46.5h-154v661h-27q-40 0 -60 -20.5t-20 -55.5q0 -23 6 -40.5t18 -36.5l-17 -10q-14 22 -21.5 40.5t-7.5 46.5q0 45 26.5 70.5t77.5 25.5h148q101 0 155.5 -43t54.5 -125q0 -64 -33 -102.5t-93 -49.5 q70 -5 113.5 -49zM172 660v-290h139q68 0 107.5 39.5t39.5 102.5q0 73 -46.5 110.5t-136.5 37.5h-103zM441 61.5q49 40.5 49 122.5q0 81 -46.5 123.5t-127.5 42.5h-144v-329h132q88 0 137 40.5z" />
<glyph unicode="&#x182;" horiz-adv-x="508" d="M399 356q54 -49 54 -145q0 -106 -55.5 -158.5t-153.5 -52.5h-134v681h286l-4 -21h-259v-255h110q102 0 156 -49zM382 68q47 47 47 143q0 87 -47 130t-137 43h-112v-363h116q86 0 133 47z" />
<glyph unicode="&#x183;" horiz-adv-x="511" d="M401.5 462q42.5 -67 42.5 -198q0 -132 -44.5 -203t-127.5 -71q-46 0 -83 25t-62 65l-2 -80h-20v732h242l-5 -21h-215v-276q61 94 151 94q81 0 123.5 -67zM383 75.5q38 64.5 38 188.5q0 245 -144 245q-48 0 -82.5 -25t-67.5 -75v-302q59 -96 144 -96q74 0 112 64.5z" />
<glyph unicode="&#x184;" horiz-adv-x="496" d="M398.5 359q54.5 -49 54.5 -147q0 -107 -55.5 -159.5t-156.5 -52.5h-131v587l-30 22q25 31 33 72h20v-273h107q104 0 158.5 -49zM382 68.5q47 47.5 47 144.5q0 174 -187 174h-109v-366h113q89 0 136 47.5z" />
<glyph unicode="&#x185;" horiz-adv-x="444" d="M404 174q0 -87 -46 -130.5t-128 -43.5h-124v434l-30 22q21 24 33 63h19v-184h98q178 0 178 -161zM343 58q39 37 39 116q0 69 -36.5 105t-118.5 36h-99v-294h100q76 0 115 37z" />
<glyph unicode="&#x186;" horiz-adv-x="485" d="M355 603.5q61 -87.5 61 -263.5q0 -113 -30.5 -192t-83.5 -118.5t-121 -39.5q-51 0 -89 17t-69 47l13 15q33 -28 66 -42.5t78 -14.5q61 0 109 36.5t75.5 110t27.5 181.5q0 169 -54.5 249.5t-148.5 80.5q-44 0 -78.5 -13t-68.5 -40l-12 16q70 58 160 58q104 0 165 -87.5z " />
<glyph unicode="&#x187;" horiz-adv-x="485" d="M603 784l-11 -15q-17 12 -32.5 18.5t-36.5 6.5q-31 0 -49.5 -20.5t-18.5 -65.5v-75l-13 -14q-31 26 -60.5 38.5t-70.5 12.5q-98 0 -158 -81.5t-60 -248.5q0 -108 28 -181.5t76.5 -110t111.5 -36.5q46 0 77 14.5t63 42.5l14 -16q-67 -63 -155 -63q-70 0 -124 39.5t-84 118 t-30 192.5q0 117 31 196t85 117t124 38q73 0 123 -42v60q0 51 24.5 78t65.5 27q44 0 80 -30z" />
<glyph unicode="&#x188;" horiz-adv-x="415" d="M524 706l-11 -14q-15 12 -31.5 18.5t-37.5 6.5q-31 0 -49 -20.5t-18 -65.5v-151l-2 1l2 -2l-12 -13q-25 21 -51 32t-58 11q-77 0 -122.5 -64t-45.5 -188q0 -122 45.5 -184t121.5 -62q64 0 114 47l13 -14q-56 -54 -126 -54q-87 0 -139 69t-52 198q0 130 51.5 201t139.5 71 q55 0 99 -32v134q0 51 24 78.5t65 27.5q45 0 80 -31z" />
<glyph unicode="&#x189;" horiz-adv-x="557" d="M412 609.5q75 -71.5 75 -261.5q0 -193 -76.5 -270.5t-188.5 -77.5h-114v341h-84v22h84v318h110q119 0 194 -71.5zM395 93.5q68 72.5 68 254.5t-68.5 247t-177.5 65h-86v-297h171v-22h-171v-320h92q104 0 172 72.5z" />
<glyph unicode="&#x18a;" horiz-adv-x="598" d="M453 609.5q75 -71.5 75 -261.5q0 -193 -76.5 -270.5t-188.5 -77.5h-114v661h-27q-40 0 -60 -20.5t-20 -55.5q0 -23 6 -40.5t18 -36.5l-17 -10q-14 22 -21.5 40.5t-7.5 46.5q0 45 26.5 70.5t77.5 25.5h135q119 0 194 -71.5zM436 93.5q68 72.5 68 254.5t-68.5 247 t-177.5 65h-86v-639h92q104 0 172 72.5z" />
<glyph unicode="&#x18b;" horiz-adv-x="508" d="M397 680v-680h-136q-97 0 -151.5 50t-54.5 149q0 100 56.5 153t161.5 53h102v255h-262v21h285zM375 21v363h-102q-96 0 -145.5 -47t-49.5 -138q0 -90 47.5 -134t136.5 -44h113z" />
<glyph unicode="&#x18c;" horiz-adv-x="515" d="M410 0h-20l-2 88q-50 -98 -147 -98q-80 0 -127 70.5t-47 197.5q0 124 49 197.5t134 73.5q88 0 138 -83v265h-218v21h240v-732zM328 39.5q34 28.5 60 84.5v292q-50 93 -138 93q-73 0 -116.5 -66.5t-43.5 -184.5q1 -119 41 -183t110 -64q53 0 87 28.5z" />
<glyph unicode="&#x18d;" horiz-adv-x="502" d="M363.5 -9q24.5 -29 25.5 -74q0 -53 -39 -88t-102 -35q-40 0 -71 11t-63 34l13 15q29 -21 56.5 -30t63.5 -9q55 0 87 28t32 74q0 29 -11 49.5t-37.5 38.5t-77.5 39q-64 26 -101.5 58t-55.5 79t-18 116q0 110 50 171t139 61q86 0 134.5 -60.5t48.5 -171.5 q0 -94 -40.5 -156.5t-114.5 -94.5q57 -26 81.5 -55zM104 188q16 -43 53 -74t104 -59q70 28 111.5 88t41.5 154q0 102 -42.5 156.5t-117.5 54.5q-80 0 -123 -54.5t-43 -156.5q0 -66 16 -109z" />
<glyph unicode="&#x18e;" horiz-adv-x="446" d="M46 681h290v-681h-297v21h274v328h-228v21h228v290h-267v21z" />
<glyph unicode="&#x18f;" horiz-adv-x="581" d="M453.5 607.5q57.5 -83.5 57.5 -270.5q0 -177 -60.5 -262t-165.5 -85q-106 0 -165.5 84.5t-59.5 250.5q0 21 1 34h427q-4 166 -55 238.5t-145 72.5q-51 0 -91.5 -17t-82.5 -56l-14 15q43 41 87.5 60t100.5 19q108 0 165.5 -83.5zM433 90.5q54 78.5 55 248.5h-404 q-1 -166 52 -246.5t150 -80.5q93 0 147 78.5z" />
<glyph unicode="&#x190;" horiz-adv-x="464" d="M335 670q42 -21 80 -62l-14 -14q-35 37 -73.5 56.5t-85.5 19.5q-67 0 -106 -39t-39 -103q0 -71 42 -109.5t111 -38.5h50l-3 -21l-51 1q-79 1 -123.5 -43t-44.5 -123q0 -86 47 -134t124 -48q52 0 93 21t77 63l16 -13q-79 -93 -186 -93q-87 0 -140.5 54.5t-53.5 150.5 q0 79 40.5 124.5t102.5 51.5q-55 10 -89.5 49t-34.5 107q0 74 45 119t122 45q52 0 94 -21z" />
<glyph unicode="&#x191;" horiz-adv-x="425" d="M133 660v-304h224v-21h-224v-335h-1v-95q0 -50 -24 -76t-64 -26q-47 0 -81 30l11 16q15 -12 31 -18.5t38 -6.5q30 0 48.5 19.5t18.5 61.5v776h286l-3 -21h-260z" />
<glyph unicode="&#x192;" horiz-adv-x="275" d="M153.5 692.5q-24.5 -23.5 -24.5 -72.5v-101h132l-4 -20h-128v-493q0 -62 -11 -99t-32 -58.5t-60 -43.5l-7 17q34 20 52 40t27 53.5t9 91.5v492h-81v20h81v104q0 54 31 84t82 30q54 0 104 -30l-9 -17q-49 26 -94 26q-43 0 -67.5 -23.5z" />
<glyph unicode="&#x193;" horiz-adv-x="496" d="M614 784l-12 -15q-32 25 -68 25q-31 0 -49.5 -20.5t-18.5 -65.5v-76l-13 -14q-33 27 -65.5 39.5t-73.5 12.5q-57 0 -107.5 -33.5t-82 -106.5t-31.5 -185q0 -167 59.5 -250t165.5 -83q42 0 75.5 10.5t64.5 30.5v280h-130l-3 21h155v-313q-77 -51 -162 -51 q-115 0 -181.5 89.5t-66.5 265.5q0 116 34.5 194t90 115t119.5 37q38 0 69.5 -10.5t60.5 -31.5v60q0 51 24.5 78t65.5 27q44 0 80 -30z" />
<glyph unicode="&#x194;" horiz-adv-x="488" d="M258 54q30 -76 41 -110.5t11 -67.5t-17 -53t-48 -20q-30 0 -47.5 20t-17.5 53q0 32 10.5 65.5t40.5 112.5l-203 627h23l194 -610l192 610h23zM280 -67.5q-8 28.5 -28 85.5q-1 4 -3 8.5t-4 10.5l-8 -22q-20 -57 -27.5 -84t-7.5 -54q0 -54 43 -54t43 54q0 27 -8 55.5z" />
<glyph unicode="&#x195;" horiz-adv-x="803" d="M718 260q0 -136 -49 -203t-128 -67q-62 0 -101 40.5t-39 113.5v228q0 67 -26 102t-79 35q-52 0 -93 -32.5t-76 -94.5v-382h-22v733l22 3v-324q70 117 171 117q62 0 93.5 -40.5t31.5 -113.5v-230q0 -66 32.5 -100t85.5 -34q68 0 111.5 59t43.5 190q0 111 -24 259h22 q24 -137 24 -259z" />
<glyph unicode="&#x196;" horiz-adv-x="293" d="M269 20q-34 -30 -81 -30q-40 0 -64 26t-24 76v589h23v-494h-1v-95q0 -42 18.5 -61.5t48.5 -19.5q22 0 38 6.5t31 18.5z" />
<glyph unicode="&#x197;" horiz-adv-x="281" d="M251 371v-21h-99v-350h-23v350h-98v21h98v310h23v-310h99z" />
<glyph unicode="&#x198;" horiz-adv-x="498" d="M136 367l182 261q23 34 45 48.5t52 14.5q41 0 74 -35l-13 -13q-14 14 -28 21.5t-33 7.5q-23 0 -40.5 -11.5t-40.5 -44.5l-171 -249l295 -367h-26zM133 681v-681h-23v681h23z" />
<glyph unicode="&#x199;" horiz-adv-x="418" d="M152.5 691.5q-24.5 -24.5 -24.5 -74.5v-99h-1v-518h-22v519h1v100q0 57 30.5 87.5t81.5 30.5q56 0 105 -31l-9 -17q-51 27 -94 27t-67.5 -24.5zM160 284l243 -284h-27l-243 284l221 235h26z" />
<glyph unicode="&#x19a;" horiz-adv-x="252" d="M122 360v-294q0 -27 12 -41.5t34 -14.5q17 0 35 8l7 -18q-24 -10 -43 -10q-31 0 -49 19.5t-18 56.5v294h-84v21h84v352l22 3v-355h114v-21h-114z" />
<glyph unicode="&#x19b;" horiz-adv-x="407" d="M290.5 254.5q28.5 -95.5 54 -143.5t65.5 -107l-20 -9q-39 57 -65 106.5t-54 144t-56 251.5l-157 -502l-21 5l165 519h9q-16 86 -38 126l-70 -80l-17 8l77 88q-29 42 -88 58l3 17q66 -18 99 -61l61 71l14 -11l-65 -75q15 -24 25.5 -59.5t20.5 -89.5q29 -161 57.5 -256.5z " />
<glyph unicode="&#x19c;" horiz-adv-x="830" d="M720 681v-681h-20l-2 108q-29 -54 -70 -86t-92 -32q-53 0 -87 32t-45 90q-31 -56 -73 -89t-94 -33q-64 0 -100.5 46.5t-36.5 128.5v516h23v-519q0 -71 30 -111t85 -40q51 0 90 34.5t72 97.5q-1 7 -1 23v515h23v-519q0 -71 30 -111t85 -40q96 0 160 133v537h23z" />
<glyph unicode="&#x19d;" horiz-adv-x="596" d="M486 681v-681h-29l-328 655q3 -51 3 -178v-572q0 -50 -24.5 -76t-64.5 -26q-45 0 -81 30l12 15q31 -25 69 -25q30 0 48.5 19.5t18.5 62.5v776h29l328 -655q-3 120 -3 179v476h22z" />
<glyph unicode="&#x19e;" horiz-adv-x="524" d="M391.5 489q31.5 -40 31.5 -114v-571l-22 4v564q0 137 -105 137q-52 0 -93 -33t-76 -94v-382h-22v519h20l2 -106q68 116 171 116q62 0 93.5 -40z" />
<glyph unicode="&#x19f;" horiz-adv-x="620" d="M486.5 601.5q64.5 -89.5 64.5 -261.5q0 -169 -63.5 -259.5t-177.5 -90.5q-73 0 -127 39.5t-83.5 118t-29.5 191.5t30 192t84 119.5t126 40.5q112 0 176.5 -89.5zM155 590q-58 -80 -62 -233h434q-3 155 -60.5 234t-156.5 79q-97 0 -155 -80zM470 94q56 82 57 243h-434 q1 -159 59 -242t158 -83q104 0 160 82z" />
<glyph unicode="&#x1a0;" horiz-adv-x="620" d="M551 340q0 -169 -63.5 -259.5t-177.5 -90.5q-73 0 -127 40t-83.5 118.5t-29.5 190.5q0 113 30 192t84 119.5t126 40.5q97 0 158 -66q29 4 41.5 18.5t12.5 42.5q0 33 -13 72l17 7q16 -40 16 -79q0 -35 -15.5 -53t-46.5 -23q71 -92 71 -270zM470.5 95q56.5 83 56.5 245 q0 164 -57.5 247t-159.5 83q-100 0 -158.5 -84.5t-58.5 -246.5q0 -160 58.5 -243.5t158.5 -83.5q104 0 160.5 83z" />
<glyph unicode="&#x1a1;" horiz-adv-x="505" d="M450 469q-16 -18 -50 -23q40 -68 40 -184q0 -132 -50 -202t-138 -70t-137.5 70t-49.5 199q0 131 50.5 200.5t137.5 69.5q89 0 137 -68q30 4 43.5 18t13.5 44q0 33 -13 72l17 6q15 -36 15 -78q0 -36 -16 -54zM373.5 74.5q43.5 63.5 43.5 187.5q0 122 -43 184.5t-121 62.5 q-77 0 -121 -63t-44 -187q0 -121 43 -184.5t121 -63.5t121.5 63.5z" />
<glyph unicode="&#x1a2;" horiz-adv-x="794" d="M657 661q28 -30 28 -90v-763h-23v762q0 102 -85 102q-32 0 -59.5 -10t-57.5 -29q44 -44 67.5 -117.5t23.5 -175.5q0 -169 -63.5 -259.5t-177.5 -90.5q-73 0 -127 40t-83.5 118.5t-29.5 190.5q0 113 30 192t84 119.5t126 40.5q79 0 136 -45q32 21 63.5 33t67.5 12 q52 0 80 -30zM469.5 587q-57.5 83 -159.5 83q-100 0 -158.5 -84.5t-58.5 -246.5q0 -160 58.5 -243.5t158.5 -83.5q104 0 160.5 83t56.5 245q0 164 -57.5 247z" />
<glyph unicode="&#x1a3;" horiz-adv-x="668" d="M533.5 498q28.5 -31 28.5 -91v-604l-22 5v598q0 103 -88 103q-44 0 -87 -20q75 -66 75 -227q0 -132 -50 -202t-138 -70t-137.5 70t-49.5 199q0 131 50.5 200.5t137.5 69.5q55 0 96 -27q51 27 103 27q53 0 81.5 -31zM374 446.5q-43 62.5 -121 62.5q-77 0 -121 -63 t-44 -187q0 -121 43 -184.5t121 -63.5t121.5 63.5t43.5 187.5q0 122 -43 184.5z" />
<glyph unicode="&#x1a4;" horiz-adv-x="540" d="M433.5 633.5q57.5 -47.5 57.5 -149.5q0 -105 -61.5 -153.5t-176.5 -48.5h-81v-282h-23v661h-27q-40 0 -60 -20.5t-20 -55.5q0 -23 6 -40.5t18 -36.5l-17 -10q-14 22 -21.5 40.5t-7.5 46.5q0 45 26.5 70.5t77.5 25.5h133q119 0 176.5 -47.5zM414 345q54 42 54 138 q0 94 -51 135.5t-160 41.5h-85v-357h83q105 0 159 42z" />
<glyph unicode="&#x1a5;" horiz-adv-x="511" d="M401 462q43 -67 43 -198t-44.5 -202.5t-126.5 -71.5q-47 0 -84 24.5t-62 64.5v-271l-22 -4v715h1v100q0 57 30.5 87.5t81.5 30.5q56 0 105 -31l-9 -17q-51 27 -94 27t-67.5 -24.5t-24.5 -74.5v-99h-1v-81q61 92 151 92q80 0 123 -67zM382.5 75.5q38.5 64.5 38.5 188.5 q0 122 -36.5 183.5t-106.5 61.5q-48 0 -83 -25.5t-68 -74.5v-301q60 -97 145 -97q72 0 110.5 64.5z" />
<glyph unicode="&#x1a6;" horiz-adv-x="516" d="M451 -132l-170 325l-19 -1h-129v-192h-23v681h23v-132h103q111 0 161.5 -45.5t50.5 -132.5q0 -75 -38 -118.5t-105 -55.5l172 -329h-26zM378.5 252q46.5 39 46.5 119q0 78 -44 118t-148 39l-100 -1v-314h115q84 0 130.5 39z" />
<glyph unicode="&#x1a7;" horiz-adv-x="477" d="M368.5 649q42.5 -42 42.5 -109q0 -47 -16 -78.5t-52 -55t-100 -47.5q-60 -22 -93.5 -45.5t-49 -56t-15.5 -82.5q0 -75 44 -119t114 -44q56 0 95.5 19t75.5 56l15 -15q-39 -40 -83 -61t-103 -21q-52 0 -93.5 23t-65 65t-23.5 97q0 80 40.5 124.5t133.5 78.5q59 21 91.5 42 t47 49t14.5 71q0 59 -36 94.5t-99 35.5q-48 0 -84.5 -15.5t-73.5 -48.5l-14 16q40 35 79 52t93 17q73 0 115.5 -42z" />
<glyph unicode="&#x1a8;" horiz-adv-x="407" d="M312 495q39 -34 39 -88q0 -53 -32 -83.5t-108 -55.5q-53 -17 -81 -35t-40 -42t-12 -62q0 -55 35 -86.5t90 -31.5q45 0 78.5 15t65.5 45l14 -15q-33 -31 -70.5 -48.5t-87.5 -17.5q-64 0 -105.5 38.5t-41.5 100.5t32.5 95.5t112.5 59.5q71 24 99 50t28 73t-32 74.5 t-84 27.5q-38 0 -68.5 -12t-62.5 -37l-13 14q33 28 67.5 41.5t76.5 13.5q61 0 100 -34z" />
<glyph unicode="&#x1a9;" horiz-adv-x="437" d="M390 681v-21h-311l207 -316v-10l-207 -313h311v-21h-343v12l215 327l-215 330v12h343z" />
<glyph unicode="&#x1aa;" horiz-adv-x="238" d="M280 -167q-34 -30 -81 -30q-40 0 -64 26t-24 76v95h-1v539q-26 -18 -60 -18q-40 0 -64 26.5t-24 78.5t24 81.5t64 29.5q39 0 60.5 -26.5t21.5 -70.5v-639h1v-96q0 -43 18.5 -62.5t48.5 -19.5q22 0 38 6.5t31 18.5zM110 559v81q0 37 -15.5 57t-44.5 20q-31 0 -48.5 -23.5 t-17.5 -66.5q0 -86 66 -86q34 0 60 18z" />
<glyph unicode="&#x1ab;" horiz-adv-x="293" d="M294 20v-115q0 -50 -24.5 -76t-65.5 -26q-45 0 -80 29l12 15q15 -11 30.5 -17.5t37.5 -6.5q31 0 49.5 19.5t18.5 62.5v103q-33 -18 -69 -18q-48 0 -75.5 30t-27.5 85v394h-77v20h77v131l22 2v-133h129l-3 -20h-126v-392q0 -46 21 -71t61 -25q41 0 82 22z" />
<glyph unicode="&#x1ac;" horiz-adv-x="448" d="M433 659h-188v-659h-23v659h-99q-41 0 -61 -19.5t-20 -54.5q0 -23 6 -40.5t18 -36.5l-17 -10q-14 22 -21.5 40.5t-7.5 46.5q0 45 27 70.5t81 25.5h309z" />
<glyph unicode="&#x1ad;" horiz-adv-x="293" d="M284 36l10 -16q-44 -30 -91 -30q-48 0 -75.5 30t-27.5 85v394h-77v20h77v102q0 54 28 85t76 31q46 0 90 -30l-11 -16q-38 26 -79 26q-40 0 -61 -25t-21 -71v-102h129l-3 -20h-126v-392q0 -46 21 -71t61 -25q39 0 80 25z" />
<glyph unicode="&#x1ae;" horiz-adv-x="429" d="M244.5 -156.5q18.5 -19.5 48.5 -19.5q22 0 38 6.5t31 18.5l11 -16q-34 -30 -81 -30q-40 0 -64 26t-24 76v95h-1v660h-188v21h403l-4 -21h-188v-755q0 -42 18.5 -61.5z" />
<glyph unicode="&#x1af;" horiz-adv-x="575" d="M529 630.5q-18 -18.5 -54 -21.5v-421q0 -89 -46.5 -143.5t-140.5 -54.5q-95 0 -141.5 54.5t-46.5 143.5v493h23v-491q0 -82 40 -130t125 -48q84 0 124 48.5t40 129.5v491h23v-56q28 5 40 19t12 42q0 33 -13 72l17 7q16 -40 16 -79q0 -37 -18 -55.5z" />
<glyph unicode="&#x1b0;" horiz-adv-x="519" d="M467.5 467.5q-17.5 -18.5 -53.5 -22.5v-445h-20l-1 104q-26 -52 -66 -83t-94 -31q-62 0 -97 39.5t-35 111.5v378h22v-376q0 -65 29 -98.5t83 -33.5q51 0 89 32t68 90v386h22v-57q27 4 39.5 18t12.5 43q0 33 -13 72l17 6q15 -36 15 -78q0 -37 -17.5 -55.5z" />
<glyph unicode="&#x1b1;" horiz-adv-x="620" d="M183 28q-54 38 -83.5 111t-29.5 175q0 236 133 346h-112v21h146v-20q-65 -45 -104.5 -129t-39.5 -218q0 -146 58.5 -224.5t158.5 -78.5t158.5 78.5t58.5 225.5q0 134 -39.5 217.5t-103.5 128.5v20h146v-21h-112q60 -48 96.5 -129.5t36.5 -215.5q0 -103 -30 -176t-84 -111 t-127 -38t-127 38z" />
<glyph unicode="&#x1b2;" horiz-adv-x="575" d="M475 607v-336q0 -137 -57.5 -209t-152.5 -72q-76 0 -120.5 47t-44.5 127v517h23v-515q0 -73 37.5 -113.5t104.5 -40.5q86 0 136.5 66t50.5 195v334q0 65 -48 65q-23 0 -40 -11l-9 17q23 13 50 13q70 0 70 -84z" />
<glyph unicode="&#x1b3;" horiz-adv-x="464" d="M213 270l-194 411h24l182 -390l136 328q16 37 35.5 54.5t50.5 17.5q23 0 40.5 -9.5t33.5 -26.5l-12 -13q-16 16 -29 23t-33 7q-24 0 -38.5 -13.5t-29.5 -49.5l-143 -339v-270h-23v270z" />
<glyph unicode="&#x1b4;" horiz-adv-x="408" d="M52 -177q46 15 72.5 36t42 52.5t33.5 88.5h-9l-168 519h23l160 -503l139 483q11 36 27.5 52t43.5 16q22 0 42 -10l-6 -17q-18 8 -35 8q-20 0 -30.5 -12t-19.5 -39l-147 -498q-18 -61 -37 -96.5t-48.5 -58.5t-79.5 -39z" />
<glyph unicode="&#x1b5;" horiz-adv-x="459" d="M414 681v-19l-170 -309h105v-21h-116l-171 -310h340l-3 -22h-362v21l171 311h-101v21h113l169 307h-318v21h343z" />
<glyph unicode="&#x1b6;" horiz-adv-x="370" d="M337 519v-18l-131 -222h92v-21h-104l-140 -237h277l-2 -21h-301v18l142 240h-92v21h104l130 220h-260v20h285z" />
<glyph unicode="&#x1b7;" horiz-adv-x="426" d="M331 325q50 -48 50 -143q0 -86 -49 -139t-136 -53q-58 0 -100 20.5t-76 61.5l15 13q34 -39 71.5 -56t89.5 -17q78 0 120 46.5t42 122.5q0 88 -44.5 129.5t-130.5 41.5h-67v21l214 288h-297v20h325v-19l-217 -289h43q97 0 147 -48z" />
<glyph unicode="&#x1b8;" horiz-adv-x="426" d="M406 72q-36 -41 -78.5 -61.5t-102.5 -20.5q-83 0 -131.5 51t-48.5 136q0 95 50.5 145.5t147.5 50.5h42l-217 289v19h325v-20h-297l214 -288v-21h-67q-85 0 -130 -43.5t-45 -131.5q0 -77 41.5 -121t116.5 -44q54 0 91.5 17t72.5 56z" />
<glyph unicode="&#x1b9;" horiz-adv-x="400" d="M380 -115q-34 -41 -74 -61.5t-95 -20.5q-82 0 -130 52.5t-48 139.5q0 93 51 146t154 53h22l-204 307v18h309v-20h-282l201 -305v-21h-47q-181 0 -181 -179q0 -78 40.5 -124t113.5 -46q49 0 85.5 17.5t70.5 55.5z" />
<glyph unicode="&#x1ba;" horiz-adv-x="399" d="M58.5 -151q-23.5 25 -23.5 62q0 44 36.5 67.5t118.5 35.5q83 12 117.5 40.5t34.5 89.5q0 54 -30.5 78.5t-92.5 24.5h-114v20l203 232h-273v20h302v-18l-207 -234h89q72 0 108.5 -31t36.5 -92q0 -69 -39.5 -102t-129.5 -47q-74 -12 -105 -30t-31 -54q0 -31 18 -51t59 -39 l-8 -17q-46 20 -69.5 45z" />
<glyph unicode="&#x1bb;" horiz-adv-x="413" d="M256 271q-49 -71 -193 -249h297l-5 -22h-319v21q62 76 113.5 141.5t81.5 108.5h-151v21h165q44 65 61 113.5t17 103.5q0 65 -34.5 104t-94.5 39q-46 0 -81 -20.5t-64 -59.5l-17 11q35 46 73.5 68t88.5 22q70 0 111 -45.5t41 -117.5q0 -57 -17 -106t-59 -112h96v-21h-110z " />
<glyph unicode="&#x1bc;" horiz-adv-x="436" d="M360 661h-261v-275q25 19 52.5 29t63.5 10q79 0 123.5 -54t44.5 -152q0 -104 -48.5 -166.5t-132.5 -62.5q-52 0 -91.5 19.5t-72.5 57.5l17 13q29 -35 64.5 -52t83.5 -17q73 0 115 56t42 152q0 91 -39 138t-108 47q-35 0 -61 -9.5t-57 -30.5h-17v317h286z" />
<glyph unicode="&#x1bd;" horiz-adv-x="380" d="M308 499h-208v-203q43 30 96 30q61 0 96 -41.5t35 -117.5q0 -82 -40 -129.5t-111 -47.5q-75 0 -132 60l14 14q27 -27 54.5 -40t63.5 -13q61 0 94 41t33 115q0 70 -29 104t-80 34q-29 0 -51.5 -7.5t-47.5 -22.5h-17v244h233z" />
<glyph unicode="&#x1be;" horiz-adv-x="439" d="M329.5 344q45.5 -46 45.5 -142q0 -95 -48 -151t-131 -56q-51 0 -88.5 20t-74.5 59l15 13q33 -34 67 -52t80 -18q74 0 115 49t41 136q0 86 -39.5 127.5t-103.5 57.5l-58 15v170h-59v20h59v141l23 3v-144h110v-20h-110v-155l37 -9q74 -18 119.5 -64z" />
<glyph unicode="&#x1bf;" horiz-adv-x="509" d="M403 483.5q41 -45.5 41 -124.5q0 -107 -62 -184.5t-196 -153.5l-59 -33v-180l-22 -4v715h20l2 -83q34 45 74 69t92 24q69 0 110 -45.5zM364 187q57 72 57 171q0 71 -35 111t-94 40q-50 0 -90 -26t-75 -73v-400l52 30q128 75 185 147z" />
<glyph unicode="&#x1c0;" horiz-adv-x="241" d="M131 736v-736h-21v733z" />
<glyph unicode="&#x1c1;" horiz-adv-x="375" d="M131 736v-736h-21v733zM265 736v-736h-21v733z" />
<glyph unicode="&#x1c2;" horiz-adv-x="281" d="M251 429h-100v-129h100v-20h-100v-280h-21v280h-99v20h99v129h-99v20h99v284l21 3v-287h100v-20z" />
<glyph unicode="&#x1c3;" horiz-adv-x="266" d="M143 736v-544h-21v541zM149.5 31q6.5 -7 6.5 -16q0 -10 -6.5 -16.5t-16.5 -6.5t-16.5 6.5t-6.5 16.5q0 9 6.5 16t16.5 7t16.5 -7z" />
<glyph unicode="&#x1c4;" horiz-adv-x="993" d="M414 609.5q75 -71.5 75 -261.5q0 -193 -76.5 -270.5t-188.5 -77.5h-114v681h110q119 0 194 -71.5zM133 660v-639h92q104 0 172 72.5t68 254.5t-68.5 247t-177.5 65h-86zM948 681v-19l-352 -640h340l-3 -22h-362v21l352 639h-318v21h343zM867 863l11 -12l-109 -91h-12 l-108 91l10 12l104 -80z" />
<glyph unicode="&#x1c5;" horiz-adv-x="919" d="M414 609.5q75 -71.5 75 -261.5q0 -193 -76.5 -270.5t-188.5 -77.5h-114v681h110q119 0 194 -71.5zM133 660v-639h92q104 0 172 72.5t68 254.5t-68.5 247t-177.5 65h-86zM886 519v-18l-283 -480h277l-2 -21h-301v18l284 481h-260v20h285zM845 749l12 -12l-109 -96h-12 l-108 96l11 12l103 -85z" />
<glyph unicode="&#x1c6;" horiz-adv-x="885" d="M410 733v-733h-20l-2 88q-50 -98 -147 -98q-80 0 -127 70.5t-47 197.5q0 124 49 197.5t134 73.5q88 0 138 -83v290zM328 39.5q34 28.5 60 84.5v291q-50 94 -138 94q-73 0 -116.5 -66.5t-43.5 -184.5q1 -119 41 -183t111 -64q52 0 86 28.5zM852 519v-18l-283 -480h277 l-2 -21h-301v18l284 481h-260v20h285zM811 749l12 -12l-109 -96h-12l-108 96l11 12l103 -85z" />
<glyph unicode="&#x1c7;" horiz-adv-x="647" d="M133 681v-659h259l-4 -22h-278v681h23zM542 87q0 -52 -9.5 -84t-35 -55.5t-74.5 -47.5l-7 16q43 22 64.5 44t30 51.5t8.5 77.5v592h23v-594z" />
<glyph unicode="&#x1c8;" horiz-adv-x="629" d="M133 681v-659h259l-4 -22h-278v681h23zM524 -11q0 -54 -11 -87t-32 -54t-60 -43l-7 16q34 20 52 39.5t27 49.5t9 80v529h22v-530zM526.5 718q5.5 -6 5.5 -14t-5.5 -13.5t-14.5 -5.5t-14.5 5.5t-5.5 13.5t5.5 14t14.5 6t14.5 -6z" />
<glyph unicode="&#x1c9;" horiz-adv-x="482" d="M118 9.5q-18 19.5 -18 56.5v667l22 3v-670q0 -27 12 -41.5t34 -14.5q17 0 35 8l7 -18q-24 -10 -43 -10q-31 0 -49 19.5zM377 -11q0 -54 -11 -87t-32 -54t-60 -43l-7 16q34 20 52 39.5t27 49.5t9 80v529h22v-530zM379.5 718q5.5 -6 5.5 -14t-5.5 -13.5t-14.5 -5.5 t-14.5 5.5t-5.5 13.5t5.5 14t14.5 6t14.5 -6z" />
<glyph unicode="&#x1ca;" horiz-adv-x="847" d="M486 0h-29l-328 655q3 -51 3 -178v-477h-22v681h29l328 -655q-3 120 -3 179v476h22v-681zM742 87q0 -52 -9.5 -84t-35 -55.5t-74.5 -47.5l-7 16q43 22 64.5 44t30 51.5t8.5 77.5v592h23v-594z" />
<glyph unicode="&#x1cb;" horiz-adv-x="829" d="M486 0h-29l-328 655q3 -51 3 -178v-477h-22v681h29l328 -655q-3 120 -3 179v476h22v-681zM724 -11q0 -54 -11 -87t-32 -54t-60 -43l-7 16q34 20 52 39.5t27 49.5t9 80v529h22v-530zM726.5 718q5.5 -6 5.5 -14t-5.5 -13.5t-14.5 -5.5t-14.5 5.5t-5.5 13.5t5.5 14t14.5 6 t14.5 -6z" />
<glyph unicode="&#x1cc;" horiz-adv-x="757" d="M391.5 489q31.5 -40 31.5 -114v-375h-22v372q0 137 -105 137q-52 0 -93 -33t-76 -94v-382h-22v519h20l2 -106q68 116 171 116q62 0 93.5 -40zM652 -11q0 -54 -11 -87t-32 -54t-60 -43l-7 16q34 20 52 39.5t27 49.5t9 80v529h22v-530zM654.5 718q5.5 -6 5.5 -14 t-5.5 -13.5t-14.5 -5.5t-14.5 5.5t-5.5 13.5t5.5 14t14.5 6t14.5 -6z" />
<glyph unicode="&#x1cd;" horiz-adv-x="509" d="M458 0l-62 203h-284l-62 -203h-22l212 681h28l213 -681h-23zM119 224h270l-135 439zM358 863l11 -12l-109 -91h-12l-108 91l10 12l104 -80z" />
<glyph unicode="&#x1ce;" horiz-adv-x="476" d="M380 36q9 -21 32 -30l-5 -16q-29 10 -42 32.5t-14 66.5q-26 -50 -62.5 -74.5t-87.5 -24.5q-66 0 -104 42.5t-38 111.5q0 79 50.5 121.5t138.5 42.5h101v66q0 67 -27.5 101t-89.5 34q-61 0 -131 -32l-8 18q74 34 139 34q139 0 139 -153v-274q0 -45 9 -66zM349 121v167h-98 q-82 0 -125 -36.5t-43 -107.5q0 -62 31.5 -97.5t86.5 -35.5q99 0 148 110zM334 749l12 -12l-109 -96h-12l-108 96l11 12l103 -85z" />
<glyph unicode="&#x1cf;" horiz-adv-x="243" d="M133 681v-681h-23v681h23zM224 863l11 -12l-109 -91h-12l-108 91l10 12l104 -80z" />
<glyph unicode="&#x1d0;" horiz-adv-x="233" d="M127 519v-519h-22v519h22zM219 749l12 -12l-109 -96h-12l-108 96l11 12l103 -85z" />
<glyph unicode="&#x1d1;" horiz-adv-x="620" d="M486.5 601.5q64.5 -89.5 64.5 -261.5q0 -169 -63.5 -259.5t-177.5 -90.5q-73 0 -127 40t-83.5 118.5t-29.5 190.5q0 113 30 192t84 119.5t126 40.5q112 0 176.5 -89.5zM151.5 585.5q-58.5 -84.5 -58.5 -246.5q0 -160 58.5 -243.5t158.5 -83.5q104 0 160.5 83t56.5 245 q0 164 -57.5 247t-159.5 83q-100 0 -158.5 -84.5zM413 863l11 -12l-109 -91h-12l-108 91l10 12l104 -80z" />
<glyph unicode="&#x1d2;" horiz-adv-x="505" d="M390.5 461q49.5 -68 49.5 -199q0 -132 -50 -202t-138 -70t-137.5 70t-49.5 199q0 131 50.5 200.5t137.5 69.5q88 0 137.5 -68zM132 446q-44 -63 -44 -187q0 -121 43 -184.5t121 -63.5t121.5 63.5t43.5 187.5q0 122 -43 184.5t-121 62.5q-77 0 -121 -63zM356 749l12 -12 l-109 -96h-12l-108 96l11 12l103 -85z" />
<glyph unicode="&#x1d3;" horiz-adv-x="575" d="M475 188q0 -89 -46.5 -143.5t-140.5 -54.5q-95 0 -141.5 54.5t-46.5 143.5v493h23v-491q0 -82 40 -130t125 -48q84 0 124 48.5t40 129.5v491h23v-493zM391 863l11 -12l-109 -91h-12l-108 91l10 12l104 -80z" />
<glyph unicode="&#x1d4;" horiz-adv-x="519" d="M414 0h-20l-1 104q-26 -52 -66 -83t-94 -31q-62 0 -97 39.5t-35 111.5v378h22v-376q0 -65 29 -98.5t83 -33.5q51 0 89 32t68 90v386h22v-519zM361 749l12 -12l-109 -96h-12l-108 96l11 12l103 -85z" />
<glyph unicode="&#x1d5;" horiz-adv-x="575" d="M475 188q0 -89 -46.5 -143.5t-140.5 -54.5q-95 0 -141.5 54.5t-46.5 143.5v493h23v-491q0 -82 40 -130t125 -48q84 0 124 48.5t40 129.5v491h23v-493zM226.5 775.5q5.5 -5.5 5.5 -14.5q0 -8 -5.5 -13.5t-14.5 -5.5q-8 0 -13.5 5.5t-5.5 13.5t5.5 14t13.5 6q9 0 14.5 -5.5 zM377.5 775q5.5 -6 5.5 -14t-5.5 -13.5t-14.5 -5.5t-14.5 5.5t-5.5 13.5t5.5 14t14.5 6t14.5 -6zM383 850h-189v21h189v-21z" />
<glyph unicode="&#x1d6;" horiz-adv-x="519" d="M414 0h-20l-1 104q-26 -52 -66 -83t-94 -31q-62 0 -97 39.5t-35 111.5v378h22v-376q0 -65 29 -98.5t83 -33.5q51 0 89 32t68 90v386h22v-519zM197.5 676.5q5.5 -5.5 5.5 -14.5q0 -8 -5.5 -13.5t-14.5 -5.5q-8 0 -13.5 5.5t-5.5 13.5t5.5 14t13.5 6q9 0 14.5 -5.5z M348.5 676q5.5 -6 5.5 -14t-5.5 -13.5t-14.5 -5.5t-14.5 5.5t-5.5 13.5t5.5 14t14.5 6t14.5 -6zM353 753h-189v21h189v-21z" />
<glyph unicode="&#x1d7;" horiz-adv-x="575" d="M475 188q0 -89 -46.5 -143.5t-140.5 -54.5q-95 0 -141.5 54.5t-46.5 143.5v493h23v-491q0 -82 40 -130t125 -48q84 0 124 48.5t40 129.5v491h23v-493zM357 921l19 -15l-94 -114l-13 10zM226.5 775.5q5.5 -5.5 5.5 -13.5q0 -9 -5.5 -14.5t-14.5 -5.5q-8 0 -13.5 6t-5.5 14 t5.5 13.5t13.5 5.5q9 0 14.5 -5.5zM377.5 775.5q5.5 -5.5 5.5 -13.5t-5.5 -14t-14.5 -6t-14.5 6t-5.5 14t5.5 13.5t14.5 5.5t14.5 -5.5z" />
<glyph unicode="&#x1d8;" horiz-adv-x="519" d="M414 0h-20l-1 104q-26 -52 -66 -83t-94 -31q-62 0 -97 39.5t-35 111.5v378h22v-376q0 -65 29 -98.5t83 -33.5q51 0 89 32t68 90v386h22v-519zM327 821l19 -15l-94 -114l-13 10zM196.5 676.5q5.5 -5.5 5.5 -14.5q0 -8 -5 -13.5t-15 -5.5q-8 0 -13.5 5.5t-5.5 13.5t5.5 14 t13.5 6q9 0 14.5 -5.5zM347.5 676q5.5 -6 5.5 -14t-5.5 -13.5t-14.5 -5.5t-14.5 5.5t-5.5 13.5t5.5 14t14.5 6t14.5 -6z" />
<glyph unicode="&#x1d9;" horiz-adv-x="575" d="M475 188q0 -89 -46.5 -143.5t-140.5 -54.5q-95 0 -141.5 54.5t-46.5 143.5v493h23v-491q0 -82 40 -130t125 -48q84 0 124 48.5t40 129.5v491h23v-493zM390 894l11 -12l-109 -91h-12l-108 91l10 12l104 -80zM226.5 775.5q5.5 -5.5 5.5 -13.5q0 -9 -5.5 -14.5t-14.5 -5.5 q-8 0 -13.5 6t-5.5 14t5.5 13.5t13.5 5.5q9 0 14.5 -5.5zM377 775.5q5 -5.5 5 -13.5q0 -9 -5 -14.5t-14 -5.5t-14.5 6t-5.5 14t5.5 13.5t14.5 5.5t14 -5.5z" />
<glyph unicode="&#x1da;" horiz-adv-x="519" d="M414 0h-20l-1 104q-26 -52 -66 -83t-94 -31q-62 0 -97 39.5t-35 111.5v378h22v-376q0 -65 29 -98.5t83 -33.5q51 0 89 32t68 90v386h22v-519zM360 794l11 -12l-109 -91h-12l-108 91l10 12l104 -80zM196.5 676q5.5 -6 5.5 -14t-5.5 -13.5t-14.5 -5.5t-14 5.5t-5 13.5 q0 9 5 14.5t14 5.5t14.5 -6zM346.5 676q5.5 -6 5.5 -14t-5.5 -13.5t-13.5 -5.5q-9 0 -14.5 5.5t-5.5 13.5q0 9 5.5 14.5t14.5 5.5q8 0 13.5 -6z" />
<glyph unicode="&#x1db;" horiz-adv-x="575" d="M475 188q0 -89 -46.5 -143.5t-140.5 -54.5q-95 0 -141.5 54.5t-46.5 143.5v493h23v-491q0 -82 40 -130t125 -48q84 0 124 48.5t40 129.5v491h23v-493zM224 921l89 -119l-13 -10l-94 114zM226.5 775.5q5.5 -5.5 5.5 -13.5q0 -9 -5.5 -14.5t-14.5 -5.5q-8 0 -13.5 6 t-5.5 14t5.5 13.5t13.5 5.5q9 0 14.5 -5.5zM377.5 775.5q5.5 -5.5 5.5 -13.5t-5.5 -14t-14.5 -6t-14.5 6t-5.5 14t5.5 13.5t14.5 5.5t14.5 -5.5z" />
<glyph unicode="&#x1dc;" horiz-adv-x="519" d="M414 0h-20l-1 104q-26 -52 -66 -83t-94 -31q-62 0 -97 39.5t-35 111.5v378h22v-376q0 -65 29 -98.5t83 -33.5q51 0 89 32t68 90v386h22v-519zM192 821l89 -119l-13 -10l-94 114zM196.5 676.5q5.5 -5.5 5.5 -14.5q0 -8 -5 -13.5t-15 -5.5q-8 0 -13.5 5.5t-5.5 13.5t5.5 14 t13.5 6q9 0 14.5 -5.5zM347.5 676q5.5 -6 5.5 -14t-5.5 -13.5t-14.5 -5.5t-14.5 5.5t-5.5 13.5t5.5 14t14.5 6t14.5 -6z" />
<glyph unicode="&#x1dd;" horiz-adv-x="479" d="M368.5 463.5q45.5 -65.5 45.5 -199.5q0 -142 -47 -208t-132 -66q-82 0 -128.5 66t-46.5 187q0 12 2 30h329q-1 120 -41 178t-111 58q-39 0 -71 -13t-66 -39l-12 15q68 57 149 57q84 0 129.5 -65.5zM350 68q40 57 41 185h-308v-10q0 -114 39.5 -173t112.5 -59q75 0 115 57 z" />
<glyph unicode="&#x1de;" horiz-adv-x="509" d="M458 0l-62 203h-284l-62 -203h-22l212 681h28l213 -681h-23zM119 224h270l-135 439zM193.5 775.5q5.5 -5.5 5.5 -14.5q0 -8 -5.5 -13.5t-14.5 -5.5q-8 0 -13.5 5.5t-5.5 13.5t5.5 14t13.5 6q9 0 14.5 -5.5zM344.5 775q5.5 -6 5.5 -14t-5.5 -13.5t-14.5 -5.5t-14.5 5.5 t-5.5 13.5t5.5 14t14.5 6t14.5 -6zM350 850h-189v21h189v-21z" />
<glyph unicode="&#x1df;" horiz-adv-x="476" d="M380 36q9 -21 32 -30l-5 -16q-29 10 -42 32.5t-14 66.5q-26 -50 -62.5 -74.5t-87.5 -24.5q-66 0 -104 42.5t-38 111.5q0 79 50.5 121.5t138.5 42.5h101v66q0 67 -27.5 101t-89.5 34q-61 0 -131 -32l-8 18q74 34 139 34q139 0 139 -153v-274q0 -45 9 -66zM349 121v167h-98 q-82 0 -125 -36.5t-43 -107.5q0 -62 31.5 -97.5t86.5 -35.5q99 0 148 110zM170.5 676.5q5.5 -5.5 5.5 -14.5q0 -8 -5.5 -13.5t-14.5 -5.5q-8 0 -13.5 5.5t-5.5 13.5t5.5 14t13.5 6q9 0 14.5 -5.5zM321.5 676q5.5 -6 5.5 -14t-5.5 -13.5t-14.5 -5.5t-14.5 5.5t-5.5 13.5 t5.5 14t14.5 6t14.5 -6zM326 753h-189v21h189v-21z" />
<glyph unicode="&#x1e0;" horiz-adv-x="509" d="M458 0l-62 203h-284l-62 -203h-22l212 681h28l213 -681h-23zM119 224h270l-135 439zM269.5 780q5.5 -6 5.5 -14t-5.5 -13.5t-14.5 -5.5t-14.5 5.5t-5.5 13.5t5.5 14t14.5 6t14.5 -6zM350 849h-189v21h189v-21z" />
<glyph unicode="&#x1e1;" horiz-adv-x="476" d="M380 36q9 -21 32 -30l-5 -16q-29 10 -42 32.5t-14 66.5q-26 -50 -62.5 -74.5t-87.5 -24.5q-66 0 -104 42.5t-38 111.5q0 79 50.5 121.5t138.5 42.5h101v66q0 67 -27.5 101t-89.5 34q-61 0 -131 -32l-8 18q74 34 139 34q139 0 139 -153v-274q0 -45 9 -66zM349 121v167h-98 q-82 0 -125 -36.5t-43 -107.5q0 -62 31.5 -97.5t86.5 -35.5q99 0 148 110zM246.5 665q5.5 -6 5.5 -14t-5.5 -13.5t-14.5 -5.5t-14.5 5.5t-5.5 13.5t5.5 14t14.5 6t14.5 -6zM326 745h-189v21h189v-21z" />
<glyph unicode="&#x1e2;" horiz-adv-x="682" d="M435 21h208v-21h-226l-46 196h-271l-67 -196h-22l237 681h347l-3 -21h-308l69 -290h235v-21h-231zM108 218h258l-105 445zM498 811h-189v21h189v-21z" />
<glyph unicode="&#x1e3;" horiz-adv-x="759" d="M698 246h-327q3 -117 47.5 -176t117.5 -59q40 0 69.5 13.5t61.5 41.5l13 -15q-34 -31 -67.5 -46t-76.5 -15q-57 0 -98.5 30.5t-64.5 89.5q-40 -65 -80 -92.5t-93 -27.5q-66 0 -103.5 42t-37.5 112q0 78 50.5 121t137.5 43h102v62q0 70 -27.5 104.5t-91.5 34.5 q-55 0 -129 -32l-7 18q74 34 136 34q69 0 102 -35t37 -105q22 69 63 104.5t99 35.5q83 0 125.5 -64.5t42.5 -180.5q0 -27 -1 -38zM677 292q0 102 -36 159.5t-109 57.5q-71 0 -115 -62t-46 -182h306v27zM289.5 40q38.5 29 75.5 92q-16 56 -16 123v33h-101q-78 0 -122 -37 t-44 -107q0 -62 32 -97.5t87 -35.5q50 0 88.5 29zM476 685h-189v21h189v-21z" />
<glyph unicode="&#x1e4;" horiz-adv-x="558" d="M548 212h-68v-171q-77 -51 -162 -51q-115 0 -181.5 89t-66.5 266q0 117 34.5 195t89.5 114.5t119 36.5q46 0 82 -14t71 -45l-14 -15q-33 28 -65.5 40.5t-73.5 12.5q-57 0 -107 -33t-81.5 -106t-31.5 -186q0 -168 59.5 -250.5t164.5 -82.5q43 0 76.5 10.5t64.5 30.5v159 h-130v21h130v100h-130l-3 21h155v-121h68v-21z" />
<glyph unicode="&#x1e5;" horiz-adv-x="440" d="M472 -69h-58q-5 -60 -52 -94t-136 -34q-99 0 -143 32.5t-44 106.5h21q2 -65 39 -91.5t127 -26.5q80 0 121 28t45 79h-140v21h140q-4 43 -36 67t-88 24h-68q-56 0 -85 22.5t-29 60.5q0 50 51 86q-79 44 -79 146q0 79 44 125t118 46q92 0 128 4.5t70 16.5l7 -24 q-48 -14 -138 -15q45 -15 69.5 -54.5t24.5 -100.5q0 -78 -43 -122t-117 -44q-32 0 -67 14q-46 -30 -46 -75q0 -66 94 -66h67q66 0 104 -30t41 -81h58v-21zM120.5 248.5q39.5 -38.5 100.5 -38.5q65 0 101 37.5t36 108.5q0 72 -36.5 112.5t-101.5 40.5q-67 0 -103 -40.5 t-36 -110.5q0 -71 39.5 -109.5z" />
<glyph unicode="&#x1e6;" horiz-adv-x="546" d="M395.5 677q35.5 -14 70.5 -45l-14 -16q-33 28 -65 41t-73 13q-58 0 -108 -33t-81.5 -106t-31.5 -186q0 -168 59.5 -250.5t164.5 -82.5q43 0 76.5 10.5t64.5 30.5v280h-130l-3 21h155v-313q-77 -51 -162 -51q-115 0 -181.5 89t-66.5 266q0 117 34.5 195t90 114.5 t119.5 36.5q46 0 81.5 -14zM414 863l11 -12l-109 -91h-12l-108 91l10 12l104 -80z" />
<glyph unicode="&#x1e7;" horiz-adv-x="440" d="M425 526q-48 -14 -138 -15q45 -16 69.5 -55t24.5 -100q0 -78 -43 -122t-117 -44q-32 0 -67 14q-46 -30 -46 -75q0 -66 94 -66h67q69 0 107 -32.5t38 -87.5q0 -65 -47.5 -102.5t-140.5 -37.5q-99 0 -143 32.5t-44 106.5h21q2 -65 39 -91.5t127 -26.5q84 0 124.5 31 t40.5 87q0 48 -32 74.5t-91 26.5h-68q-56 0 -85 22.5t-29 60.5q0 50 51 86q-79 44 -79 146q0 79 44 125t118 46q92 0 128 4.5t70 16.5zM117 468.5q-36 -40.5 -36 -110.5q0 -71 39.5 -109.5t100.5 -38.5q65 0 101 37.5t36 108.5q0 72 -36.5 112.5t-101.5 40.5 q-67 0 -103 -40.5zM324 749l12 -12l-109 -96h-12l-108 96l11 12l103 -85z" />
<glyph unicode="&#x1e8;" horiz-adv-x="467" d="M133 681v-681h-23v681h23zM444 681l-281 -314l295 -367h-26l-296 367l282 314h26zM364 863l11 -12l-109 -91h-12l-108 91l10 12l104 -80z" />
<glyph unicode="&#x1e9;" horiz-adv-x="418" d="M127 736v-736h-22v733zM380 519l-220 -235l243 -284h-27l-243 284l221 235h26zM338 914l11 -12l-109 -91h-12l-108 91l10 12l104 -80z" />
<glyph unicode="&#x1ea;" horiz-adv-x="620" d="M293 -55q-28 -27 -28 -68q0 -28 16 -43t47 -15q23 0 50 7l-2 -22q-27 -7 -49 -7q-41 0 -63 22t-22 58t21.5 63t62.5 50h-16q-73 0 -127 40t-83.5 118.5t-29.5 190.5q0 113 30 192t84 119.5t126 40.5q112 0 176.5 -89.5t64.5 -261.5q0 -143 -46 -230t-130 -111 q-54 -27 -82 -54zM151.5 95.5q58.5 -83.5 158.5 -83.5q104 0 160.5 83t56.5 245q0 164 -57.5 247t-159.5 83q-100 0 -158.5 -84.5t-58.5 -246.5q0 -160 58.5 -243.5z" />
<glyph unicode="&#x1eb;" horiz-adv-x="505" d="M225.5 -55q-27.5 -27 -27.5 -68q0 -28 16 -43t47 -15q23 0 50 7l-2 -22q-27 -7 -49 -7q-41 0 -63 22t-22 58t21 63t62 50h-6q-88 0 -137.5 70t-49.5 199q0 131 50.5 200.5t137.5 69.5q88 0 137.5 -68t49.5 -199q0 -110 -35 -177t-98 -87q-54 -26 -81.5 -53zM131 74.5 q43 -63.5 121 -63.5t121.5 63.5t43.5 187.5q0 122 -43 184.5t-121 62.5q-77 0 -121 -63t-44 -187q0 -121 43 -184.5z" />
<glyph unicode="&#x1ec;" horiz-adv-x="620" d="M405 832v-21h-189v21h189zM293 -55q-28 -27 -28 -68q0 -28 16 -43t47 -15q23 0 50 7l-2 -22q-27 -7 -49 -7q-41 0 -63 22t-22 58t21.5 63t62.5 50h-16q-73 0 -127 40t-83.5 118.5t-29.5 190.5q0 113 30 192t84 119.5t126 40.5q112 0 176.5 -89.5t64.5 -261.5 q0 -143 -46 -230t-130 -111q-54 -27 -82 -54zM151.5 95.5q58.5 -83.5 158.5 -83.5q104 0 160.5 83t56.5 245q0 164 -57.5 247t-159.5 83q-100 0 -158.5 -84.5t-58.5 -246.5q0 -160 58.5 -243.5z" />
<glyph unicode="&#x1ed;" horiz-adv-x="505" d="M348 706v-21h-189v21h189zM225.5 -55q-27.5 -27 -27.5 -68q0 -28 16 -43t47 -15q23 0 50 7l-2 -22q-27 -7 -49 -7q-41 0 -63 22t-22 58t21 63t62 50h-6q-88 0 -137.5 70t-49.5 199q0 131 50.5 200.5t137.5 69.5q88 0 137.5 -68t49.5 -199q0 -110 -35 -177t-98 -87 q-54 -26 -81.5 -53zM131 74.5q43 -63.5 121 -63.5t121.5 63.5t43.5 187.5q0 122 -43 184.5t-121 62.5q-77 0 -121 -63t-44 -187q0 -121 43 -184.5z" />
<glyph unicode="&#x1ee;" horiz-adv-x="426" d="M331 325q50 -48 50 -143q0 -86 -49 -139t-136 -53q-58 0 -100 20.5t-76 61.5l15 13q34 -39 71.5 -56t89.5 -17q78 0 120 46.5t42 122.5q0 88 -44.5 129.5t-130.5 41.5h-67v21l214 288h-297v20h325v-19l-217 -289h43q97 0 147 -48zM299 863l11 -12l-109 -91h-12l-108 91 l10 12l104 -80z" />
<glyph unicode="&#x1ef;" horiz-adv-x="400" d="M368 2q0 -89 -49 -144t-133 -55q-53 0 -92.5 20.5t-73.5 61.5l15 12q33 -38 68.5 -55.5t82.5 -17.5q76 0 117.5 48.5t41.5 129.5q0 89 -44.5 130t-136.5 41h-47v21l201 305h-282v20h308v-18l-203 -307h22q205 0 205 -192zM293 749l12 -12l-109 -96h-12l-108 96l11 12 l103 -85z" />
<glyph unicode="&#x1f0;" horiz-adv-x="233" d="M128 -11q0 -54 -11 -87t-32 -54t-60 -43l-7 16q34 20 52 39.5t27 49.5t9 80v529h22v-530zM219 749l12 -12l-109 -96h-12l-108 96l11 12l103 -85z" />
<glyph unicode="&#x1f1;" horiz-adv-x="993" d="M414 609.5q75 -71.5 75 -261.5q0 -193 -76.5 -270.5t-188.5 -77.5h-114v681h110q119 0 194 -71.5zM133 660v-639h92q104 0 172 72.5t68 254.5t-68.5 247t-177.5 65h-86zM948 681v-19l-352 -640h340l-3 -22h-362v21l352 639h-318v21h343z" />
<glyph unicode="&#x1f2;" horiz-adv-x="919" d="M414 609.5q75 -71.5 75 -261.5q0 -193 -76.5 -270.5t-188.5 -77.5h-114v681h110q119 0 194 -71.5zM133 660v-639h92q104 0 172 72.5t68 254.5t-68.5 247t-177.5 65h-86zM886 519v-18l-283 -480h277l-2 -21h-301v18l284 481h-260v20h285z" />
<glyph unicode="&#x1f3;" horiz-adv-x="885" d="M410 733v-733h-20l-2 88q-50 -98 -147 -98q-80 0 -127 70.5t-47 197.5q0 124 49 197.5t134 73.5q88 0 138 -83v290zM328 39.5q34 28.5 60 84.5v291q-50 94 -138 94q-73 0 -116.5 -66.5t-43.5 -184.5q1 -119 41 -183t111 -64q52 0 86 28.5zM852 519v-18l-283 -480h277 l-2 -21h-301v18l284 481h-260v20h285z" />
<glyph unicode="&#x1f4;" horiz-adv-x="546" d="M395.5 677q35.5 -14 70.5 -45l-14 -16q-33 28 -65 41t-73 13q-58 0 -108 -33t-81.5 -106t-31.5 -186q0 -168 59.5 -250.5t164.5 -82.5q43 0 76.5 10.5t64.5 30.5v280h-130l-3 21h155v-313q-77 -51 -162 -51q-115 0 -181.5 89t-66.5 266q0 117 34.5 195t90 114.5 t119.5 36.5q46 0 81.5 -14zM383 859l11 -22l-161 -73l-7 15z" />
<glyph unicode="&#x1f5;" horiz-adv-x="440" d="M425 526q-48 -14 -138 -15q45 -16 69.5 -55t24.5 -100q0 -78 -43 -122t-117 -44q-32 0 -67 14q-46 -30 -46 -75q0 -66 94 -66h67q69 0 107 -32.5t38 -87.5q0 -65 -47.5 -102.5t-140.5 -37.5q-99 0 -143 32.5t-44 106.5h21q2 -65 39 -91.5t127 -26.5q84 0 124.5 31 t40.5 87q0 48 -32 74.5t-91 26.5h-68q-56 0 -85 22.5t-29 60.5q0 50 51 86q-79 44 -79 146q0 79 44 125t118 46q92 0 128 4.5t70 16.5zM117 468.5q-36 -40.5 -36 -110.5q0 -71 39.5 -109.5t100.5 -38.5q65 0 101 37.5t36 108.5q0 72 -36.5 112.5t-101.5 40.5 q-67 0 -103 -40.5zM287 760l11 -22l-161 -84l-8 15z" />
<glyph unicode="&#x1f6;" horiz-adv-x="865" d="M780 260q0 -136 -49 -203t-128 -67q-62 0 -101.5 40.5t-39.5 113.5v205h-329v-349h-23v681h23v-310h329v310h22v-536q0 -66 32.5 -100t86.5 -34q68 0 111 59t43 190q0 117 -23 259h22q24 -148 24 -259z" />
<glyph unicode="&#x1f7;" horiz-adv-x="501" d="M408.5 644q43.5 -47 43.5 -128q0 -100 -57 -156.5t-164 -97.5l-98 -38v-224h-23v681h23v-63q34 34 72 53.5t88 19.5q72 0 115.5 -47zM378.5 372q50.5 52 50.5 144q0 73 -37 113.5t-99 40.5q-51 0 -88.5 -20t-71.5 -55v-350l100 39q95 36 145.5 88z" />
<glyph unicode="&#x1f8;" horiz-adv-x="596" d="M486 0h-29l-328 655q3 -51 3 -178v-477h-22v681h29l328 -655q-3 120 -3 179v476h22v-681zM233 859l156 -81l-7 -15l-161 74z" />
<glyph unicode="&#x1f9;" horiz-adv-x="524" d="M391.5 489q31.5 -40 31.5 -114v-375h-22v372q0 137 -105 137q-52 0 -93 -33t-76 -94v-382h-22v519h20l2 -106q68 116 171 116q62 0 93.5 -40zM196 760l158 -91l-9 -15l-161 84z" />
<glyph unicode="&#x1fa;" horiz-adv-x="509" d="M458 0l-62 203h-284l-62 -203h-22l212 681h28l213 -681h-23zM119 224h270l-135 439zM310 866q20 -21 20 -57q0 -37 -20 -58t-53 -21t-52.5 21t-19.5 57q0 37 19.5 58t52.5 21t53 -21zM218.5 853.5q-13.5 -15.5 -13.5 -45.5t13.5 -45t38.5 -15q26 0 39.5 15.5t13.5 45.5 q0 60 -53 60q-25 0 -38.5 -15.5zM330 1002l11 -22l-161 -73l-7 15z" />
<glyph unicode="&#x1fb;" horiz-adv-x="476" d="M315 833l-161 -73l-7 15l157 80zM178.5 724q19.5 21 52.5 21t53 -21t20 -57q0 -37 -20 -58t-53 -21t-52.5 21t-19.5 57q0 37 19.5 58zM231 727q-25 0 -38.5 -15.5t-13.5 -45.5t13.5 -45t38.5 -15q26 0 39.5 15.5t13.5 45.5q0 60 -53 60zM380 36q9 -21 32 -30l-5 -16 q-29 10 -42 32.5t-14 66.5q-26 -50 -62.5 -74.5t-87.5 -24.5q-66 0 -104 42.5t-38 111.5q0 79 50.5 121.5t138.5 42.5h101v66q0 67 -27.5 101t-89.5 34q-61 0 -131 -32l-8 18q74 34 139 34q139 0 139 -153v-274q0 -45 9 -66zM349 121v167h-98q-82 0 -125 -36.5t-43 -107.5 q0 -62 31.5 -97.5t86.5 -35.5q99 0 148 110z" />
<glyph unicode="&#x1fc;" horiz-adv-x="682" d="M435 21h208v-21h-226l-46 196h-271l-67 -196h-22l237 681h347l-3 -21h-308l69 -290h235v-21h-231zM108 218h258l-105 445zM475 859l11 -22l-161 -73l-7 15z" />
<glyph unicode="&#x1fd;" horiz-adv-x="759" d="M698 246h-327q3 -117 47.5 -176t117.5 -59q40 0 69.5 13.5t61.5 41.5l13 -15q-34 -31 -67.5 -46t-76.5 -15q-57 0 -98.5 30.5t-64.5 89.5q-40 -65 -80 -92.5t-93 -27.5q-66 0 -103.5 42t-37.5 112q0 78 50.5 121t137.5 43h102v62q0 70 -27.5 104.5t-91.5 34.5 q-55 0 -129 -32l-7 18q74 34 136 34q69 0 102 -35t37 -105q22 69 63 104.5t99 35.5q83 0 125.5 -64.5t42.5 -180.5q0 -27 -1 -38zM677 292q0 102 -36 159.5t-109 57.5q-71 0 -115 -62t-46 -182h306v27zM289.5 40q38.5 29 75.5 92q-16 56 -16 123v33h-101q-78 0 -122 -37 t-44 -107q0 -62 32 -97.5t87 -35.5q50 0 88.5 29zM447 760l11 -22l-161 -84l-8 15z" />
<glyph unicode="&#x1fe;" horiz-adv-x="620" d="M513 553.5q38 -83.5 38 -213.5q0 -169 -63.5 -259.5t-177.5 -90.5q-41 0 -80 14l-29 -115l-22 7l33 116q-67 34 -104.5 117t-37.5 210q0 113 30 192t84 119.5t126 40.5q44 0 79 -13l31 120l22 -6l-35 -122q68 -33 106 -116.5zM126 142q33 -77 94 -109l164 624 q-32 13 -74 13q-100 0 -158.5 -84.5t-58.5 -246.5q0 -120 33 -197zM470.5 95q56.5 83 56.5 245q0 123 -32.5 200.5t-93.5 108.5l-165 -623q32 -14 74 -14q104 0 160.5 83zM375 869l11 -22l-161 -73l-7 15z" />
<glyph unicode="&#x1ff;" horiz-adv-x="505" d="M413.5 419.5q26.5 -62.5 26.5 -157.5q0 -132 -50 -202t-138 -70q-36 0 -66 12l-37 -120l-20 5l39 124q-50 28 -76.5 91t-26.5 157q0 131 50.5 200.5t137.5 69.5q36 0 66 -12l37 122l19 -6l-38 -124q50 -27 76.5 -89.5zM110.5 113.5q22.5 -57.5 64.5 -82.5l139 467 q-30 11 -61 11q-77 0 -121 -63t-44 -187q0 -88 22.5 -145.5zM373.5 74.5q43.5 63.5 43.5 187.5q0 88 -22.5 145t-64.5 82l-137 -467q27 -11 59 -11q78 0 121.5 63.5zM319 760l11 -22l-161 -84l-8 15z" />
<glyph unicode="&#x200;" horiz-adv-x="509" d="M458 0l-62 203h-284l-62 -203h-22l212 681h28l213 -681h-23zM119 224h270l-135 439zM149 917l65 -131l-16 -8l-70 129zM249 916l59 -127l-15 -7l-65 123z" />
<glyph unicode="&#x201;" horiz-adv-x="476" d="M380 36q9 -21 32 -30l-5 -16q-29 10 -42 32.5t-14 66.5q-26 -50 -62.5 -74.5t-87.5 -24.5q-66 0 -104 42.5t-38 111.5q0 79 50.5 121.5t138.5 42.5h101v66q0 67 -27.5 101t-89.5 34q-61 0 -131 -32l-8 18q74 34 139 34q139 0 139 -153v-274q0 -45 9 -66zM349 121v167h-98 q-82 0 -125 -36.5t-43 -107.5q0 -62 31.5 -97.5t86.5 -35.5q99 0 148 110zM131 791l65 -131l-16 -8l-70 129zM231 790l59 -127l-15 -7l-65 123z" />
<glyph unicode="&#x202;" horiz-adv-x="509" d="M458 0l-62 203h-284l-62 -203h-22l212 681h28l213 -681h-23zM119 224h270l-135 439zM320.5 863.5q26.5 -23.5 32.5 -62.5l-16 -4q-8 34 -29 51.5t-53 17.5q-67 0 -83 -69l-16 4q6 39 32.5 62.5t66.5 23.5q39 0 65.5 -23.5z" />
<glyph unicode="&#x203;" horiz-adv-x="476" d="M380 36q9 -21 32 -30l-5 -16q-29 10 -42 32.5t-14 66.5q-26 -50 -62.5 -74.5t-87.5 -24.5q-66 0 -104 42.5t-38 111.5q0 79 50.5 121.5t138.5 42.5h101v66q0 67 -27.5 101t-89.5 34q-61 0 -131 -32l-8 18q74 34 139 34q139 0 139 -153v-274q0 -45 9 -66zM349 121v167h-98 q-82 0 -125 -36.5t-43 -107.5q0 -62 31.5 -97.5t86.5 -35.5q99 0 148 110zM296.5 701.5q26.5 -23.5 32.5 -62.5l-16 -4q-8 34 -29 51.5t-53 17.5q-67 0 -83 -69l-16 4q6 39 32.5 62.5t66.5 23.5q39 0 65.5 -23.5z" />
<glyph unicode="&#x204;" horiz-adv-x="446" d="M400 681l-3 -21h-264v-290h228v-21h-228v-328h274v-21h-297v681h290zM152 917l65 -131l-16 -8l-70 129zM252 916l59 -127l-15 -7l-65 123z" />
<glyph unicode="&#x205;" horiz-adv-x="476" d="M414 246h-326q2 -118 46.5 -176.5t118.5 -58.5q39 0 68.5 13.5t61.5 41.5l13 -15q-33 -30 -66.5 -45.5t-76.5 -15.5q-87 0 -137.5 69t-50.5 196q0 131 49 202.5t132 71.5q84 0 127 -65t43 -180q0 -16 -2 -38zM394 292q0 101 -37 159t-110 58q-70 0 -113.5 -61.5 t-45.5 -182.5h305q1 8 1 27zM147 791l65 -131l-16 -8l-70 129zM247 790l59 -127l-15 -7l-65 123z" />
<glyph unicode="&#x206;" horiz-adv-x="446" d="M400 681l-3 -21h-264v-290h228v-21h-228v-328h274v-21h-297v681h290zM323.5 863.5q26.5 -23.5 32.5 -62.5l-16 -4q-8 34 -29 51.5t-53 17.5q-67 0 -83 -69l-16 4q6 39 32.5 62.5t66.5 23.5q39 0 65.5 -23.5z" />
<glyph unicode="&#x207;" horiz-adv-x="476" d="M414 246h-326q2 -118 46.5 -176.5t118.5 -58.5q39 0 68.5 13.5t61.5 41.5l13 -15q-33 -30 -66.5 -45.5t-76.5 -15.5q-87 0 -137.5 69t-50.5 196q0 131 49 202.5t132 71.5q84 0 127 -65t43 -180q0 -16 -2 -38zM394 292q0 101 -37 159t-110 58q-70 0 -113.5 -61.5 t-45.5 -182.5h305q1 8 1 27zM312.5 701.5q26.5 -23.5 32.5 -62.5l-16 -4q-8 34 -29 51.5t-53 17.5q-67 0 -83 -69l-16 4q6 39 32.5 62.5t66.5 23.5q39 0 65.5 -23.5z" />
<glyph unicode="&#x208;" horiz-adv-x="243" d="M133 681v-681h-23v681h23zM15 917l65 -131l-16 -8l-70 129zM115 916l59 -127l-15 -7l-65 123z" />
<glyph unicode="&#x209;" horiz-adv-x="233" d="M127 519v-519h-22v519h22zM16 791l65 -131l-16 -8l-70 129zM116 790l59 -127l-15 -7l-65 123z" />
<glyph unicode="&#x20a;" horiz-adv-x="243" d="M133 681v-681h-23v681h23zM186.5 863.5q26.5 -23.5 32.5 -62.5l-16 -4q-8 34 -29 51.5t-53 17.5q-67 0 -83 -69l-16 4q6 39 32.5 62.5t66.5 23.5q39 0 65.5 -23.5z" />
<glyph unicode="&#x20b;" horiz-adv-x="233" d="M127 519v-519h-22v519h22zM181.5 701.5q26.5 -23.5 32.5 -62.5l-16 -4q-8 34 -29 51.5t-53 17.5q-67 0 -83 -69l-16 4q6 39 32.5 62.5t66.5 23.5q39 0 65.5 -23.5z" />
<glyph unicode="&#x20c;" horiz-adv-x="620" d="M486.5 601.5q64.5 -89.5 64.5 -261.5q0 -169 -63.5 -259.5t-177.5 -90.5q-73 0 -127 40t-83.5 118.5t-29.5 190.5q0 113 30 192t84 119.5t126 40.5q112 0 176.5 -89.5zM151.5 585.5q-58.5 -84.5 -58.5 -246.5q0 -160 58.5 -243.5t158.5 -83.5q104 0 160.5 83t56.5 245 q0 164 -57.5 247t-159.5 83q-100 0 -158.5 -84.5zM204 917l65 -131l-16 -8l-70 129zM304 916l59 -127l-15 -7l-65 123z" />
<glyph unicode="&#x20d;" horiz-adv-x="505" d="M390.5 461q49.5 -68 49.5 -199q0 -132 -50 -202t-138 -70t-137.5 70t-49.5 199q0 131 50.5 200.5t137.5 69.5q88 0 137.5 -68zM132 446q-44 -63 -44 -187q0 -121 43 -184.5t121 -63.5t121.5 63.5t43.5 187.5q0 122 -43 184.5t-121 62.5q-77 0 -121 -63zM153 791l65 -131 l-16 -8l-70 129zM253 790l59 -127l-15 -7l-65 123z" />
<glyph unicode="&#x20e;" horiz-adv-x="620" d="M486.5 601.5q64.5 -89.5 64.5 -261.5q0 -169 -63.5 -259.5t-177.5 -90.5q-73 0 -127 40t-83.5 118.5t-29.5 190.5q0 113 30 192t84 119.5t126 40.5q112 0 176.5 -89.5zM151.5 585.5q-58.5 -84.5 -58.5 -246.5q0 -160 58.5 -243.5t158.5 -83.5q104 0 160.5 83t56.5 245 q0 164 -57.5 247t-159.5 83q-100 0 -158.5 -84.5zM375.5 863.5q26.5 -23.5 32.5 -62.5l-16 -4q-8 34 -29 51.5t-53 17.5q-67 0 -83 -69l-16 4q6 39 32.5 62.5t66.5 23.5q39 0 65.5 -23.5z" />
<glyph unicode="&#x20f;" horiz-adv-x="505" d="M390.5 461q49.5 -68 49.5 -199q0 -132 -50 -202t-138 -70t-137.5 70t-49.5 199q0 131 50.5 200.5t137.5 69.5q88 0 137.5 -68zM132 446q-44 -63 -44 -187q0 -121 43 -184.5t121 -63.5t121.5 63.5t43.5 187.5q0 122 -43 184.5t-121 62.5q-77 0 -121 -63zM318.5 701.5 q26.5 -23.5 32.5 -62.5l-16 -4q-8 34 -29 51.5t-53 17.5q-67 0 -83 -69l-16 4q6 39 32.5 62.5t66.5 23.5q39 0 65.5 -23.5z" />
<glyph unicode="&#x210;" horiz-adv-x="516" d="M451 0l-170 325l-19 -1h-129v-324h-23v681h126q111 0 161.5 -45t50.5 -132q0 -75 -38 -119t-105 -56l172 -329h-26zM378.5 384.5q46.5 39.5 46.5 119.5q0 77 -44 116.5t-148 39.5h-100v-315h115q84 0 130.5 39.5zM150 917l65 -131l-16 -8l-70 129zM250 916l59 -127 l-15 -7l-65 123z" />
<glyph unicode="&#x211;" horiz-adv-x="327" d="M311 523l-4 -19q-18 6 -41 6q-52 0 -84.5 -39.5t-54.5 -124.5v-346h-22v519h20l1 -124q20 69 54 101.5t87 32.5q22 0 44 -6zM107 791l65 -131l-16 -8l-70 129zM207 790l59 -127l-15 -7l-65 123z" />
<glyph unicode="&#x212;" horiz-adv-x="516" d="M451 0l-170 325l-19 -1h-129v-324h-23v681h126q111 0 161.5 -45t50.5 -132q0 -75 -38 -119t-105 -56l172 -329h-26zM378.5 384.5q46.5 39.5 46.5 119.5q0 77 -44 116.5t-148 39.5h-100v-315h115q84 0 130.5 39.5zM321.5 863.5q26.5 -23.5 32.5 -62.5l-16 -4 q-8 34 -29 51.5t-53 17.5q-67 0 -83 -69l-16 4q6 39 32.5 62.5t66.5 23.5q39 0 65.5 -23.5z" />
<glyph unicode="&#x213;" horiz-adv-x="327" d="M311 523l-4 -19q-18 6 -41 6q-52 0 -84.5 -39.5t-54.5 -124.5v-346h-22v519h20l1 -124q20 69 54 101.5t87 32.5q22 0 44 -6zM272.5 701.5q26.5 -23.5 32.5 -62.5l-16 -4q-8 34 -29 51.5t-53 17.5q-67 0 -83 -69l-16 4q6 39 32.5 62.5t66.5 23.5q39 0 65.5 -23.5z" />
<glyph unicode="&#x214;" horiz-adv-x="575" d="M475 188q0 -89 -46.5 -143.5t-140.5 -54.5q-95 0 -141.5 54.5t-46.5 143.5v493h23v-491q0 -82 40 -130t125 -48q84 0 124 48.5t40 129.5v491h23v-493zM182 917l65 -131l-16 -8l-70 129zM282 916l59 -127l-15 -7l-65 123z" />
<glyph unicode="&#x215;" horiz-adv-x="519" d="M414 0h-20l-1 104q-26 -52 -66 -83t-94 -31q-62 0 -97 39.5t-35 111.5v378h22v-376q0 -65 29 -98.5t83 -33.5q51 0 89 32t68 90v386h22v-519zM158 791l65 -131l-16 -8l-70 129zM258 790l59 -127l-15 -7l-65 123z" />
<glyph unicode="&#x216;" horiz-adv-x="575" d="M475 188q0 -89 -46.5 -143.5t-140.5 -54.5q-95 0 -141.5 54.5t-46.5 143.5v493h23v-491q0 -82 40 -130t125 -48q84 0 124 48.5t40 129.5v491h23v-493zM353.5 863.5q26.5 -23.5 32.5 -62.5l-16 -4q-8 34 -29 51.5t-53 17.5q-67 0 -83 -69l-16 4q6 39 32.5 62.5t66.5 23.5 q39 0 65.5 -23.5z" />
<glyph unicode="&#x217;" horiz-adv-x="519" d="M414 0h-20l-1 104q-26 -52 -66 -83t-94 -31q-62 0 -97 39.5t-35 111.5v378h22v-376q0 -65 29 -98.5t83 -33.5q51 0 89 32t68 90v386h22v-519zM323.5 701.5q26.5 -23.5 32.5 -62.5l-16 -4q-8 34 -29 51.5t-53 17.5q-67 0 -83 -69l-16 4q6 39 32.5 62.5t66.5 23.5 q39 0 65.5 -23.5z" />
<glyph unicode="&#x218;" horiz-adv-x="483" d="M329.5 673.5q37.5 -17.5 72.5 -51.5l-15 -15q-34 33 -68 48t-80 15q-65 0 -105 -38.5t-40 -97.5q0 -40 14.5 -67.5t47.5 -48t91 -41.5q93 -32 133.5 -74.5t40.5 -120.5q0 -55 -24 -98.5t-67 -68.5t-98 -25q-57 0 -101 21t-83 61l15 14q37 -37 75.5 -55.5t92.5 -18.5 q75 0 121 47t46 122q0 48 -16 80t-49.5 54t-93.5 43q-93 33 -130.5 72t-37.5 104q0 43 21 79t59.5 57t87.5 21q53 0 90.5 -17.5zM251.5 -102.5q6.5 -6.5 6.5 -16.5t-5.5 -24t-7.5 -20l-32 -95h-15l28 116q-16 6 -16 23q0 10 6.5 16.5t17.5 6.5t17.5 -6.5z" />
<glyph unicode="&#x219;" horiz-adv-x="414" d="M281 515.5q33 -13.5 65 -41.5l-13 -16q-30 27 -58.5 39t-67.5 12q-53 0 -87 -29.5t-34 -78.5q0 -43 28.5 -68t98.5 -49q81 -27 113.5 -58.5t32.5 -91.5q0 -64 -43.5 -104t-110.5 -40q-51 0 -88 17.5t-70 48.5l13 14q33 -30 65.5 -45t79.5 -15q58 0 94.5 33t36.5 91 q0 36 -12 59t-40.5 39.5t-81.5 34.5q-75 25 -106.5 55t-31.5 79q0 56 41 92t101 36q42 0 75 -13.5zM223.5 -102.5q6.5 -6.5 6.5 -16.5t-5.5 -24t-7.5 -20l-32 -95h-15l28 116q-16 6 -16 23q0 10 6.5 16.5t17.5 6.5t17.5 -6.5z" />
<glyph unicode="&#x21a;" horiz-adv-x="429" d="M418 681l-4 -21h-188v-660h-23v660h-188v21h403zM230.5 -102.5q6.5 -6.5 6.5 -16.5t-5.5 -24t-7.5 -20l-32 -95h-15l28 116q-16 6 -16 23q0 10 6.5 16.5t17.5 6.5t17.5 -6.5z" />
<glyph unicode="&#x21b;" horiz-adv-x="293" d="M294 20q-44 -30 -91 -30q-48 0 -75.5 30t-27.5 85v394h-77v20h77v131l22 2v-133h129l-3 -20h-126v-392q0 -46 21 -71t61 -25q39 0 80 25zM217.5 -102.5q6.5 -6.5 6.5 -16.5t-5.5 -24t-7.5 -20l-32 -95h-15l28 116q-16 6 -16 23q0 10 6.5 16.5t17.5 6.5t17.5 -6.5z" />
<glyph unicode="&#x21c;" horiz-adv-x="444" d="M326.5 644q44.5 -47 44.5 -124q0 -69 -34.5 -109t-92.5 -50q66 -6 106 -46t40 -111q0 -69 -31.5 -120.5t-103.5 -92t-195 -71.5l-2 22q115 29 182.5 66t96.5 84.5t29 111.5q0 69 -44 108t-125 38l-52 -1l3 21h45q70 0 112 39t42 112q0 68 -37.5 108.5t-104.5 40.5 q-48 0 -86 -19.5t-76 -57.5l-14 15q41 42 82.5 62.5t94.5 20.5q76 0 120.5 -47z" />
<glyph unicode="&#x21d;" horiz-adv-x="407" d="M281 492.5q38 -36.5 38 -100.5q0 -107 -99 -126q56 -2 89 -31.5t33 -86.5q0 -80 -67 -138.5t-211 -96.5l-3 19q137 39 197.5 90.5t60.5 125.5q0 55 -34 81t-102 26h-60l3 19h44q63 0 94.5 30.5t31.5 87.5q0 54 -30.5 85.5t-86.5 31.5q-42 0 -71 -11t-66 -36l-13 15 q35 26 70.5 39t80.5 13q63 0 101 -36.5z" />
<glyph unicode="&#x21e;" horiz-adv-x="594" d="M462 0v349h-329v-349h-23v681h23v-311h329v311h22v-681h-22zM399 863l11 -12l-109 -91h-12l-108 91l10 12l104 -80z" />
<glyph unicode="&#x21f;" horiz-adv-x="524" d="M391.5 488.5q31.5 -40.5 31.5 -113.5v-375h-22v372q0 67 -26 102t-79 35q-52 0 -93 -32.5t-76 -94.5v-382h-22v733l22 3v-324q70 117 171 117q62 0 93.5 -40.5zM369 914l11 -12l-109 -91h-12l-108 91l10 12l104 -80z" />
<glyph unicode="&#x220;" horiz-adv-x="585" d="M443 644.5q40 -46.5 40 -135.5v-701h-23v697q0 83 -34 124t-96 41t-109 -34t-88 -93v-543h-23v681h20l2 -108q84 118 199 118q72 0 112 -46.5z" />
<glyph unicode="&#x221;" horiz-adv-x="589" d="M597 158q22 -24 22 -60q0 -48 -33.5 -78t-84.5 -30q-58 0 -89 39l-38 -84l-18 9l45 93q-11 23 -12 43q-50 -100 -148 -100q-80 0 -127 70.5t-47 197.5q0 124 49 197.5t134 73.5q88 0 138 -83v290l22 -3v-627q0 -19 4 -32q25 53 53.5 80.5t70.5 27.5q37 0 59 -24z M328 39.5q34 28.5 60 84.5v291q-50 94 -138 94q-73 0 -116.5 -66.5t-43.5 -184.5q1 -119 41 -183t110 -64q53 0 87 28.5zM571 34.5q27 23.5 27 63.5q0 29 -16.5 46.5t-44.5 17.5q-38 0 -62.5 -26t-51.5 -85q22 -40 78 -40q43 0 70 23.5z" />
<glyph unicode="&#x222;" horiz-adv-x="567" d="M461.5 316.5q36.5 -50.5 36.5 -125.5q0 -90 -55 -145.5t-159 -55.5q-103 0 -158.5 55t-55.5 144q0 73 37.5 124.5t105.5 69.5q-99 30 -99 154v144h22v-144q0 -144 148 -144q150 0 150 144v144h22v-144q0 -55 -24 -96t-76 -57q69 -17 105.5 -67.5zM426.5 60.5 q47.5 48.5 47.5 130.5q0 86 -47.5 133.5t-142.5 47.5q-92 0 -141.5 -49t-49.5 -134q0 -81 49 -129t142 -48q95 0 142.5 48.5z" />
<glyph unicode="&#x223;" horiz-adv-x="501" d="M404 340.5q32 -53.5 32 -136.5q0 -100 -48.5 -157t-137.5 -57q-86 0 -135.5 56t-49.5 156q0 81 33 135.5t94 72.5q-92 30 -92 145v177h22v-177q0 -61 30 -98.5t98 -37.5q69 0 100.5 38.5t31.5 97.5v177h22v-177q0 -52 -23 -90.5t-71 -54.5q62 -16 94 -69.5zM371.5 60.5 q41.5 49.5 41.5 143.5t-40.5 144.5t-122.5 50.5q-78 0 -120 -52.5t-42 -144.5t42.5 -141.5t119.5 -49.5q80 0 121.5 49.5z" />
<glyph unicode="&#x224;" horiz-adv-x="459" d="M414 662l-352 -640h339v-117q0 -50 -24.5 -76t-64.5 -26q-45 0 -81 30l11 16q15 -12 31.5 -18.5t38.5 -6.5q30 0 48 19.5t18 61.5v95h-341v21l352 639h-318v21h343v-19z" />
<glyph unicode="&#x225;" horiz-adv-x="370" d="M337 501l-283 -480h276v-116q0 -50 -24.5 -76t-64.5 -26q-45 0 -81 30l11 15q15 -12 31 -18.5t38 -6.5q31 0 49.5 19.5t18.5 62.5v95h-280v18l284 481h-260v20h285v-18z" />
<glyph unicode="&#x226;" horiz-adv-x="509" d="M458 0l-62 203h-284l-62 -203h-22l212 681h28l213 -681h-23zM119 224h270l-135 439zM270.5 844q5.5 -6 5.5 -14t-5.5 -13.5t-14.5 -5.5t-14.5 5.5t-5.5 13.5t5.5 14t14.5 6t14.5 -6z" />
<glyph unicode="&#x227;" horiz-adv-x="476" d="M380 36q9 -21 32 -30l-5 -16q-29 10 -42 32.5t-14 66.5q-26 -50 -62.5 -74.5t-87.5 -24.5q-66 0 -104 42.5t-38 111.5q0 79 50.5 121.5t138.5 42.5h101v66q0 67 -27.5 101t-89.5 34q-61 0 -131 -32l-8 18q74 34 139 34q139 0 139 -153v-274q0 -45 9 -66zM349 121v167h-98 q-82 0 -125 -36.5t-43 -107.5q0 -62 31.5 -97.5t86.5 -35.5q99 0 148 110zM245.5 718q5.5 -6 5.5 -14t-5.5 -13.5t-14.5 -5.5t-14.5 5.5t-5.5 13.5t5.5 14t14.5 6t14.5 -6z" />
<glyph unicode="&#x228;" horiz-adv-x="446" d="M258 0l-1 -74q82 -6 82 -67q0 -34 -22.5 -52.5t-54.5 -18.5q-35 0 -62 18l10 16q23 -15 52 -15q24 0 39.5 13t15.5 39t-19.5 38t-61.5 13l5 90h-131v681h290l-3 -21h-264v-290h228v-21h-228v-328h274v-21h-149z" />
<glyph unicode="&#x229;" horiz-adv-x="476" d="M414 246h-326q2 -118 46.5 -176.5t118.5 -58.5q39 0 68.5 13.5t61.5 41.5l13 -15q-32 -29 -64 -44.5t-73 -16.5l-1 -64q82 -6 82 -67q0 -34 -22.5 -52.5t-54.5 -18.5q-35 0 -62 18l10 16q23 -15 52 -15q24 0 39.5 13t15.5 39t-19.5 38t-61.5 13l5 80q-82 5 -129.5 73.5 t-47.5 191.5q0 131 49 202.5t132 71.5q84 0 127 -65t43 -180q0 -16 -2 -38zM394 292q0 101 -37 159t-110 58q-70 0 -113.5 -61.5t-45.5 -182.5h305q1 8 1 27z" />
<glyph unicode="&#x22a;" horiz-adv-x="620" d="M486.5 601.5q64.5 -89.5 64.5 -261.5q0 -169 -63.5 -259.5t-177.5 -90.5q-73 0 -127 40t-83.5 118.5t-29.5 190.5q0 113 30 192t84 119.5t126 40.5q112 0 176.5 -89.5zM151.5 585.5q-58.5 -84.5 -58.5 -246.5q0 -160 58.5 -243.5t158.5 -83.5q104 0 160.5 83t56.5 245 q0 164 -57.5 247t-159.5 83q-100 0 -158.5 -84.5zM248.5 775.5q5.5 -5.5 5.5 -14.5q0 -8 -5.5 -13.5t-14.5 -5.5q-8 0 -13.5 5.5t-5.5 13.5t5.5 14t13.5 6q9 0 14.5 -5.5zM399.5 775q5.5 -6 5.5 -14t-5.5 -13.5t-14.5 -5.5t-14.5 5.5t-5.5 13.5t5.5 14t14.5 6t14.5 -6z M405 850h-189v21h189v-21z" />
<glyph unicode="&#x22b;" horiz-adv-x="505" d="M390.5 461q49.5 -68 49.5 -199q0 -132 -50 -202t-138 -70t-137.5 70t-49.5 199q0 131 50.5 200.5t137.5 69.5q88 0 137.5 -68zM132 446q-44 -63 -44 -187q0 -121 43 -184.5t121 -63.5t121.5 63.5t43.5 187.5q0 122 -43 184.5t-121 62.5q-77 0 -121 -63zM192.5 676.5 q5.5 -5.5 5.5 -14.5q0 -8 -5.5 -13.5t-14.5 -5.5q-8 0 -13.5 5.5t-5.5 13.5t5.5 14t13.5 6q9 0 14.5 -5.5zM343.5 676q5.5 -6 5.5 -14t-5.5 -13.5t-14.5 -5.5t-14.5 5.5t-5.5 13.5t5.5 14t14.5 6t14.5 -6zM348 753h-189v21h189v-21z" />
<glyph unicode="&#x22c;" horiz-adv-x="620" d="M486.5 601.5q64.5 -89.5 64.5 -261.5q0 -169 -63.5 -259.5t-177.5 -90.5q-73 0 -127 40t-83.5 118.5t-29.5 190.5q0 113 30 192t84 119.5t126 40.5q112 0 176.5 -89.5zM151.5 585.5q-58.5 -84.5 -58.5 -246.5q0 -160 58.5 -243.5t158.5 -83.5q104 0 160.5 83t56.5 245 q0 164 -57.5 247t-159.5 83q-100 0 -158.5 -84.5zM335 763q-13 6 -33 18q-15 10 -25 15t-20 5q-15 0 -27 -8t-26 -27l-14 8q16 23 32 34.5t35 11.5q12 0 23.5 -5t29.5 -16q17 -11 28.5 -16.5t24.5 -5.5q15 0 27 9t26 31l14 -7q-15 -28 -31 -40.5t-36 -12.5q-15 0 -28 6z M402 878h-189v21h189v-21z" />
<glyph unicode="&#x22d;" horiz-adv-x="505" d="M390.5 461q49.5 -68 49.5 -199q0 -132 -50 -202t-138 -70t-137.5 70t-49.5 199q0 131 50.5 200.5t137.5 69.5q88 0 137.5 -68zM132 446q-44 -63 -44 -187q0 -121 43 -184.5t121 -63.5t121.5 63.5t43.5 187.5q0 122 -43 184.5t-121 62.5q-77 0 -121 -63zM278 611 q-13 6 -33 18q-15 10 -25 15t-20 5q-15 0 -27 -8t-26 -27l-14 8q16 23 32 34.5t35 11.5q12 0 23.5 -5t29.5 -16q17 -11 28.5 -16.5t24.5 -5.5q15 0 27 9t26 31l14 -7q-15 -28 -31 -40.5t-36 -12.5q-15 0 -28 6zM348 728h-189v21h189v-21z" />
<glyph unicode="&#x22e;" horiz-adv-x="620" d="M486.5 601.5q64.5 -89.5 64.5 -261.5q0 -169 -63.5 -259.5t-177.5 -90.5q-73 0 -127 40t-83.5 118.5t-29.5 190.5q0 113 30 192t84 119.5t126 40.5q112 0 176.5 -89.5zM151.5 585.5q-58.5 -84.5 -58.5 -246.5q0 -160 58.5 -243.5t158.5 -83.5q104 0 160.5 83t56.5 245 q0 164 -57.5 247t-159.5 83q-100 0 -158.5 -84.5zM325.5 844q5.5 -6 5.5 -14t-5.5 -13.5t-14.5 -5.5t-14.5 5.5t-5.5 13.5t5.5 14t14.5 6t14.5 -6z" />
<glyph unicode="&#x22f;" horiz-adv-x="505" d="M390.5 461q49.5 -68 49.5 -199q0 -132 -50 -202t-138 -70t-137.5 70t-49.5 199q0 131 50.5 200.5t137.5 69.5q88 0 137.5 -68zM132 446q-44 -63 -44 -187q0 -121 43 -184.5t121 -63.5t121.5 63.5t43.5 187.5q0 122 -43 184.5t-121 62.5q-77 0 -121 -63zM267.5 718 q5.5 -6 5.5 -14t-5.5 -13.5t-14.5 -5.5t-14.5 5.5t-5.5 13.5t5.5 14t14.5 6t14.5 -6z" />
<glyph unicode="&#x230;" horiz-adv-x="620" d="M486.5 601.5q64.5 -89.5 64.5 -261.5q0 -169 -63.5 -259.5t-177.5 -90.5q-73 0 -127 40t-83.5 118.5t-29.5 190.5q0 113 30 192t84 119.5t126 40.5q112 0 176.5 -89.5zM151.5 585.5q-58.5 -84.5 -58.5 -246.5q0 -160 58.5 -243.5t158.5 -83.5q104 0 160.5 83t56.5 245 q0 164 -57.5 247t-159.5 83q-100 0 -158.5 -84.5zM324.5 780q5.5 -6 5.5 -14t-5.5 -13.5t-14.5 -5.5t-14.5 5.5t-5.5 13.5t5.5 14t14.5 6t14.5 -6zM405 849h-189v21h189v-21z" />
<glyph unicode="&#x237;" horiz-adv-x="233" d="M128 -11q0 -54 -11 -87t-32 -54t-60 -43l-7 16q34 20 52 39.5t27 49.5t9 80v529h22v-530z" />
<glyph unicode="&#x259;" horiz-adv-x="479" d="M368.5 463.5q45.5 -65.5 45.5 -199.5q0 -142 -47 -208t-132 -66q-82 0 -128.5 66t-46.5 187q0 12 2 30h329q-1 120 -41 178t-111 58q-39 0 -71 -13t-66 -39l-12 15q68 57 149 57q84 0 129.5 -65.5zM350 68q40 57 41 185h-308v-10q0 -114 39.5 -173t112.5 -59q75 0 115 57 z" />
<glyph unicode="&#x278;" horiz-adv-x="558" d="M451.5 75q-54.5 -64 -161.5 -68v-199l-22 -4v203q-105 3 -160.5 67.5t-55.5 185.5q0 119 55 184t161 68v221l22 3v-224q104 -3 160 -67t56 -184q0 -122 -54.5 -186zM483 261q0 113 -50 171t-144 61v-466q194 6 194 234zM125.5 88q50.5 -59 142.5 -61v466q-95 -4 -144 -62 t-49 -171t50.5 -172z" />
<glyph unicode="&#x292;" horiz-adv-x="400" d="M368 2q0 -89 -49 -144t-133 -55q-53 0 -92.5 20.5t-73.5 61.5l15 12q33 -38 68.5 -55.5t82.5 -17.5q76 0 117.5 48.5t41.5 129.5q0 89 -44.5 130t-136.5 41h-47v21l201 305h-282v20h308v-18l-203 -307h22q205 0 205 -192z" />
<glyph unicode="&#x2b9;" horiz-adv-x="256" d="M77 441l78 240h23l-84 -240h-17z" />
<glyph unicode="&#x2c6;" horiz-adv-x="289" d="M44 654l-11 12l108 96h13l108 -96l-12 -12l-103 85z" />
<glyph unicode="&#x2c7;" horiz-adv-x="289" d="M250 749l12 -12l-109 -96h-12l-108 96l11 12l103 -85z" />
<glyph unicode="&#x2d8;" horiz-adv-x="257" d="M65.5 685.5q-26.5 23.5 -32.5 62.5l16 4q16 -69 83 -69q32 0 53 17.5t29 51.5l16 -4q-6 -39 -32.5 -62.5t-65.5 -23.5q-40 0 -66.5 23.5z" />
<glyph unicode="&#x2d9;" horiz-adv-x="100" d="M67.5 718q5.5 -6 5.5 -14t-5.5 -13.5t-14.5 -5.5t-14.5 5.5t-5.5 13.5t5.5 14t14.5 6t14.5 -6z" />
<glyph unicode="&#x2da;" horiz-adv-x="205" d="M158 780q20 -21 20 -57q0 -37 -20 -58t-53 -21t-52.5 21t-19.5 57q0 37 19.5 58t52.5 21t53 -21zM66.5 767.5q-13.5 -15.5 -13.5 -45.5t13.5 -45t38.5 -15q26 0 39.5 15.5t13.5 45.5q0 60 -53 60q-25 0 -38.5 -15.5z" />
<glyph unicode="&#x2db;" horiz-adv-x="198" d="M201 0q-56 -27 -84.5 -54.5t-28.5 -68.5q0 -28 16 -43t47 -15q23 0 50 7l-2 -22q-27 -7 -49 -7q-41 0 -63 22t-22 58q0 44 32.5 75.5t95.5 60.5z" />
<glyph unicode="&#x2dc;" horiz-adv-x="300" d="M175 684q-13 6 -33 18q-15 10 -25 15t-20 5q-15 0 -27 -8t-26 -27l-14 8q16 23 32 34.5t35 11.5q12 0 23.5 -5t29.5 -16q17 -11 28.5 -16.5t24.5 -5.5q15 0 27 9t26 31l14 -7q-15 -28 -31 -40.5t-36 -12.5q-15 0 -28 6z" />
<glyph unicode="&#x2dd;" horiz-adv-x="240" d="M191 791l21 -10l-70 -129l-16 8zM91 790l21 -11l-65 -123l-15 7z" />
<glyph unicode="&#x300;" horiz-adv-x="0" d="M-187 760l158 -91l-9 -15l-161 84z" />
<glyph unicode="&#x301;" horiz-adv-x="0" d="M-41 760l11 -22l-161 -84l-8 15z" />
<glyph unicode="&#x302;" horiz-adv-x="0" d="M-248 654l-11 12l108 96h13l108 -96l-12 -12l-103 85z" />
<glyph unicode="&#x303;" horiz-adv-x="0" d="M-125 684q-13 6 -33 18q-15 10 -25 15t-20 5q-15 0 -27 -8t-26 -27l-14 8q16 23 32 34.5t35 11.5q12 0 23.5 -5t29.5 -16q17 -11 28.5 -16.5t24.5 -5.5q15 0 27 9t26 31l14 -7q-15 -28 -31 -40.5t-36 -12.5q-15 0 -28 6z" />
<glyph unicode="&#x304;" horiz-adv-x="0" d="M-30 685h-189v21h189v-21z" />
<glyph unicode="&#x306;" horiz-adv-x="0" d="M-194.5 685.5q-26.5 23.5 -32.5 62.5l16 4q16 -69 83 -69q32 0 53 17.5t29 51.5l16 -4q-6 -39 -32.5 -62.5t-65.5 -23.5q-40 0 -66.5 23.5z" />
<glyph unicode="&#x307;" horiz-adv-x="0" d="M-35.5 718q5.5 -6 5.5 -14t-5.5 -13.5t-14.5 -5.5t-14.5 5.5t-5.5 13.5t5.5 14t14.5 6t14.5 -6z" />
<glyph unicode="&#x308;" horiz-adv-x="0" d="M-186.5 706.5q5.5 -5.5 5.5 -14.5q0 -8 -5.5 -13.5t-14.5 -5.5q-8 0 -13.5 5.5t-5.5 13.5t5.5 14t13.5 6q9 0 14.5 -5.5zM-35.5 706q5.5 -6 5.5 -14t-5.5 -13.5t-14.5 -5.5t-14.5 5.5t-5.5 13.5t5.5 14t14.5 6t14.5 -6z" />
<glyph unicode="&#x309;" horiz-adv-x="0" d="M-113 692q60 4 60 52q0 23 -12.5 35t-34.5 12q-25 0 -50 -15l-9 16q29 19 61 19q31 0 49.5 -18t18.5 -48q0 -59 -62 -67v-56h-21v70z" />
<glyph unicode="&#x30a;" horiz-adv-x="0" d="M-50 780q20 -21 20 -57q0 -37 -20 -58t-53 -21t-52.5 21t-19.5 57q0 37 19.5 58t52.5 21t53 -21zM-141.5 767.5q-13.5 -15.5 -13.5 -45.5t13.5 -45t38.5 -15q26 0 39.5 15.5t13.5 45.5q0 60 -53 60q-25 0 -38.5 -15.5z" />
<glyph unicode="&#x30b;" horiz-adv-x="0" d="M-51 791l21 -10l-70 -129l-16 8zM-151 790l21 -11l-65 -123l-15 7z" />
<glyph unicode="&#x30c;" horiz-adv-x="0" d="M-42 749l12 -12l-109 -96h-12l-108 96l11 12l103 -85z" />
<glyph unicode="&#x30f;" horiz-adv-x="0" d="M-189 791l65 -131l-16 -8l-70 129zM-89 790l59 -127l-15 -7l-65 123z" />
<glyph unicode="&#x311;" horiz-adv-x="0" d="M-62.5 701.5q26.5 -23.5 32.5 -62.5l-16 -4q-8 34 -29 51.5t-53 17.5q-67 0 -83 -69l-16 4q6 39 32.5 62.5t66.5 23.5q39 0 65.5 -23.5z" />
<glyph unicode="&#x312;" horiz-adv-x="0" d="M-83.5 601.5q-6.5 6.5 -6.5 16.5t5.5 24t7.5 20l32 95h15l-28 -116q16 -6 16 -23q0 -10 -6.5 -16.5t-17.5 -6.5t-17.5 6.5z" />
<glyph unicode="&#x323;" horiz-adv-x="0" d="M-64.5 -132q-5.5 6 -5.5 14t5.5 13.5t14.5 5.5t14.5 -5.5t5.5 -13.5t-5.5 -14t-14.5 -6t-14.5 6z" />
<glyph unicode="&#x326;" horiz-adv-x="0" d="M-36.5 -102.5q6.5 -6.5 6.5 -16.5t-5.5 -24t-7.5 -20l-32 -95h-15l28 116q-16 6 -16 23q0 10 6.5 16.5t17.5 6.5t17.5 -6.5z" />
<glyph unicode="&#x327;" horiz-adv-x="0" d="M-112 -74q82 -6 82 -67q0 -34 -22.5 -52.5t-54.5 -18.5q-35 0 -62 18l10 16q22 -15 52 -15q24 0 39.5 13t15.5 39t-19.5 38t-61.5 13l6 99h16z" />
<glyph unicode="&#x328;" horiz-adv-x="0" d="M-32 0q-56 -27 -84.5 -54.5t-28.5 -68.5q0 -28 16 -43t47 -15q23 0 50 7l-2 -22q-27 -7 -49 -7q-41 0 -63 22t-22 58q0 44 32.5 75.5t95.5 60.5z" />
<glyph unicode="&#x32d;" horiz-adv-x="0" d="M-248 -183l-11 12l108 96h13l108 -96l-12 -12l-103 85z" />
<glyph unicode="&#x331;" horiz-adv-x="0" d="M-30 -139h-189v21h189v-21z" />
<glyph unicode="&#x345;" horiz-adv-x="0" d="M-131.5 -136.5q-15.5 17.5 -15.5 47.5v40h22v-40q0 -45 39 -45q13 0 22.5 4t21.5 12l12 -13q-26 -23 -57 -23q-29 0 -44.5 17.5z" />
<glyph unicode="&#x370;" horiz-adv-x="466" d="M436 349h-303v-349h-23v681h23v-310h303v-22z" />
<glyph unicode="&#x371;" horiz-adv-x="418" d="M386 262h-258v-262h-22v363q0 90 -19 157l21 3q20 -69 20 -161v-79h258v-21z" />
<glyph unicode="&#x372;" horiz-adv-x="449" d="M15 681h419v-217h-21v195h-177v-659h-23v659h-177v-195h-21v217z" />
<glyph unicode="&#x373;" horiz-adv-x="417" d="M403 498h-186v-690l-22 -5v695h-120q-24 0 -35.5 -1.5t-26.5 -7.5l-7 19q14 7 28.5 9t38.5 2h330v-21z" />
<glyph unicode="&#x374;" horiz-adv-x="256" d="M77 441l78 240h23l-84 -240h-17z" />
<glyph unicode="&#x375;" horiz-adv-x="256" d="M179 99l-78 -240h-23l84 240h17z" />
<glyph unicode="&#x376;" horiz-adv-x="596" d="M486 0h-23v456q0 144 3 199l-328 -655h-28v681h23v-462q0 -55 -3 -193l328 655h28v-681z" />
<glyph unicode="&#x377;" horiz-adv-x="529" d="M430.5 44q9.5 -19 35.5 -30l-7 -19q-34 13 -47 36.5t-13 68.5l1 294q1 47 1 98l-270 -492h-26v519h22v-373q0 -73 -1 -119l270 492h25v-419q0 -37 9.5 -56z" />
<glyph unicode="&#x37a;" horiz-adv-x="209" d="M45.5 -136.5q-15.5 17.5 -15.5 47.5v40h22v-40q0 -45 39 -45q13 0 22.5 4t21.5 12l12 -13q-26 -23 -57 -23q-29 0 -44.5 17.5z" />
<glyph unicode="&#x37b;" horiz-adv-x="451" d="M333.5 459.5q52.5 -69.5 52.5 -202.5q0 -130 -57 -198.5t-152 -68.5q-43 0 -76 13.5t-68 40.5l13 15q33 -25 62 -36.5t70 -11.5q83 0 133.5 62t50.5 184q0 127 -46.5 189.5t-128.5 62.5q-41 0 -72 -10.5t-65 -34.5l-12 15q37 27 71 38.5t78 11.5q94 0 146.5 -69.5z" />
<glyph unicode="&#x37c;" horiz-adv-x="451" d="M347.5 517.5q31.5 -11.5 64.5 -38.5l-12 -15q-30 23 -58.5 34t-67.5 11q-85 0 -135.5 -64t-50.5 -188q0 -122 50.5 -184t132.5 -62q41 0 71 12t63 36l12 -15q-34 -27 -67.5 -40.5t-77.5 -13.5q-94 0 -150.5 68.5t-56.5 198.5t56.5 201t151.5 71q43 0 74.5 -11.5z M289.5 273q5.5 -6 5.5 -14t-5.5 -13.5t-14.5 -5.5t-14.5 5.5t-5.5 13.5t5.5 14t14.5 6t14.5 -6z" />
<glyph unicode="&#x37d;" horiz-adv-x="451" d="M333.5 459.5q52.5 -69.5 52.5 -202.5q0 -130 -57 -198.5t-152 -68.5q-43 0 -76 13.5t-68 40.5l13 15q33 -25 62 -36.5t70 -11.5q83 0 133.5 62t50.5 184q0 127 -46.5 189.5t-128.5 62.5q-41 0 -72 -10.5t-65 -34.5l-12 15q37 27 71 38.5t78 11.5q94 0 146.5 -69.5z M189.5 273q5.5 -6 5.5 -14t-5.5 -13.5t-14.5 -5.5t-14.5 5.5t-5.5 13.5t5.5 14t14.5 6t14.5 -6z" />
<glyph unicode="&#x37e;" horiz-adv-x="159" d="M98 31q6 -6 6 -16q0 -11 -9 -33l-40 -112h-17l35 124q-7 2 -11 7.5t-4 12.5q0 10 6.5 16.5t16.5 6.5q11 0 17 -6zM95 445.5q6 -6.5 6 -16.5q0 -9 -6 -15.5t-17 -6.5q-10 0 -16.5 6.5t-6.5 15.5q0 10 6.5 16.5t16.5 6.5q11 0 17 -6.5z" />
<glyph unicode="&#x384;" horiz-adv-x="87" d="M31 734l26 -1l-11 -130h-16z" />
<glyph unicode="&#x385;" horiz-adv-x="250" d="M121 818l23 -1l-10 -117h-14zM63.5 676.5q5.5 -5.5 5.5 -14.5q0 -8 -5 -13.5t-15 -5.5q-8 0 -13.5 5.5t-5.5 13.5t5.5 14t13.5 6q9 0 14.5 -5.5zM214.5 676q5.5 -6 5.5 -14t-5.5 -13.5t-14.5 -5.5t-14.5 5.5t-5.5 13.5t5.5 14t14.5 6t14.5 -6z" />
<glyph unicode="&#x386;" horiz-adv-x="509" d="M458 0l-62 203h-284l-62 -203h-22l212 681h28l213 -681h-23zM119 224h270l-135 439zM107 683l27 -2l-11 -139h-17z" />
<glyph unicode="&#x388;" horiz-adv-x="462" d="M416 681l-3 -21h-264v-290h228v-21h-228v-328h274v-21h-297v681h290zM44 683l27 -2l-11 -139h-17z" />
<glyph unicode="&#x389;" horiz-adv-x="611" d="M478 0v349h-329v-349h-23v681h23v-311h329v311h22v-681h-22zM44 683l27 -2l-11 -139h-17z" />
<glyph unicode="&#x38a;" horiz-adv-x="259" d="M149 681v-681h-23v681h23zM44 683l27 -2l-11 -139h-17z" />
<glyph unicode="&#x38c;" horiz-adv-x="628" d="M493.5 601.5q64.5 -89.5 64.5 -261.5q0 -169 -63.5 -259.5t-177.5 -90.5q-73 0 -127 40t-83.5 118.5t-29.5 190.5q0 113 30 192t84 119.5t126 40.5q112 0 176.5 -89.5zM158.5 585.5q-58.5 -84.5 -58.5 -246.5q0 -160 58.5 -243.5t158.5 -83.5q104 0 160.5 83t56.5 245 q0 164 -57.5 247t-159.5 83q-100 0 -158.5 -84.5zM50 683l27 -2l-11 -139h-17z" />
<glyph unicode="&#x38e;" horiz-adv-x="528" d="M509 681l-191 -410v-271h-23v270l-194 411h24l182 -389l178 389h24zM40 683l27 -2l-11 -139h-17z" />
<glyph unicode="&#x38f;" horiz-adv-x="623" d="M489.5 601.5q64.5 -89.5 64.5 -261.5q0 -130 -36.5 -206t-108.5 -112h123v-22h-158v22q78 34 117 111t39 207q0 163 -57.5 246.5t-159.5 83.5q-100 0 -158.5 -85t-58.5 -246q0 -128 39.5 -204t116.5 -113v-22h-158v22h123q-73 39 -108.5 114t-35.5 203q0 112 30 191.5 t84 120t126 40.5q112 0 176.5 -89.5zM51 683l27 -2l-11 -139h-17z" />
<glyph unicode="&#x390;" horiz-adv-x="231" d="M123 101q0 -38 9.5 -57t34.5 -30l-6 -19q-34 14 -47 37.5t-13 68.5v418h22v-418zM108 818l23 -1l-10 -117h-14zM50.5 676.5q5.5 -5.5 5.5 -14.5q0 -8 -5 -13.5t-15 -5.5q-8 0 -13.5 5.5t-5.5 13.5t5.5 14t13.5 6q9 0 14.5 -5.5zM201.5 676q5.5 -6 5.5 -14t-5.5 -13.5 t-14.5 -5.5t-14.5 5.5t-5.5 13.5t5.5 14t14.5 6t14.5 -6z" />
<glyph unicode="&#x391;" horiz-adv-x="509" d="M458 0l-62 203h-284l-62 -203h-22l212 681h28l213 -681h-23zM119 224h270l-135 439z" />
<glyph unicode="&#x392;" horiz-adv-x="529" d="M430.5 312q43.5 -44 43.5 -128q0 -91 -55.5 -137.5t-154.5 -46.5h-154v681h123q101 0 155.5 -43t54.5 -125q0 -64 -33 -102.5t-93 -49.5q70 -5 113.5 -49zM133 660v-290h139q68 0 107.5 39.5t39.5 102.5q0 73 -46.5 110.5t-136.5 37.5h-103zM402 61.5q49 40.5 49 122.5 q0 81 -46.5 123.5t-127.5 42.5h-144v-329h132q88 0 137 40.5z" />
<glyph unicode="&#x393;" horiz-adv-x="461" d="M449 681l-3 -22h-313v-659h-23v681h339z" />
<glyph unicode="&#x394;" horiz-adv-x="518" d="M274 681l216 -681h-462l217 681h29zM260 663l-203 -642h404z" />
<glyph unicode="&#x395;" horiz-adv-x="446" d="M400 681l-3 -21h-264v-290h228v-21h-228v-328h274v-21h-297v681h290z" />
<glyph unicode="&#x396;" horiz-adv-x="459" d="M414 681v-19l-352 -640h340l-3 -22h-362v21l352 639h-318v21h343z" />
<glyph unicode="&#x397;" horiz-adv-x="594" d="M462 0v349h-329v-349h-23v681h23v-311h329v311h22v-681h-22z" />
<glyph unicode="&#x398;" horiz-adv-x="620" d="M486.5 601.5q64.5 -89.5 64.5 -261.5q0 -169 -63.5 -259.5t-177.5 -90.5q-73 0 -127 40t-83.5 118.5t-29.5 190.5q0 113 30 192t84 119.5t126 40.5q112 0 176.5 -89.5zM151.5 585.5q-58.5 -84.5 -58.5 -246.5q0 -160 58.5 -243.5t158.5 -83.5q104 0 160.5 83t56.5 245 q0 164 -57.5 247t-159.5 83q-100 0 -158.5 -84.5zM434 361v-21h-247v21h247z" />
<glyph unicode="&#x399;" horiz-adv-x="243" d="M133 681v-681h-23v681h23z" />
<glyph unicode="&#x39a;" horiz-adv-x="467" d="M133 681v-681h-23v681h23zM444 681l-281 -314l295 -367h-26l-296 367l282 314h26z" />
<glyph unicode="&#x39b;" horiz-adv-x="509" d="M268 681l213 -681h-23l-204 663l-204 -663h-22l212 681h28z" />
<glyph unicode="&#x39c;" horiz-adv-x="688" d="M617 0h-21l-35 345l-30 315l-176 -576h-23l-179 576q-3 -49 -24 -253q-1 -20 -5 -53l-32 -354h-22l66 681h33l175 -569l173 569h33z" />
<glyph unicode="&#x39d;" horiz-adv-x="596" d="M486 0h-29l-328 655q3 -51 3 -178v-477h-22v681h29l328 -655q-3 120 -3 179v476h22v-681z" />
<glyph unicode="&#x39e;" horiz-adv-x="432" d="M374 681l-2 -21h-323v21h325zM333 371v-22h-233v22h233zM383 23v-23h-334v23h334z" />
<glyph unicode="&#x39f;" horiz-adv-x="620" d="M486.5 601.5q64.5 -89.5 64.5 -261.5q0 -169 -63.5 -259.5t-177.5 -90.5q-73 0 -127 40t-83.5 118.5t-29.5 190.5q0 113 30 192t84 119.5t126 40.5q112 0 176.5 -89.5zM151.5 585.5q-58.5 -84.5 -58.5 -246.5q0 -160 58.5 -243.5t158.5 -83.5q104 0 160.5 83t56.5 245 q0 164 -57.5 247t-159.5 83q-100 0 -158.5 -84.5z" />
<glyph unicode="&#x3a0;" horiz-adv-x="591" d="M481 681v-681h-22v660h-326v-660h-23v681h371z" />
<glyph unicode="&#x3a1;" horiz-adv-x="501" d="M394.5 633.5q57.5 -47.5 57.5 -149.5q0 -105 -61.5 -153.5t-176.5 -48.5h-81v-282h-23v681h108q119 0 176.5 -47.5zM375 345q54 42 54 138q0 94 -51 135.5t-160 41.5h-85v-357h83q105 0 159 42z" />
<glyph unicode="&#x3a3;" horiz-adv-x="437" d="M390 681v-21h-311l207 -316v-10l-207 -313h311v-21h-343v12l215 327l-215 330v12h343z" />
<glyph unicode="&#x3a4;" horiz-adv-x="429" d="M418 681l-4 -21h-188v-660h-23v660h-188v21h403z" />
<glyph unicode="&#x3a5;" horiz-adv-x="446" d="M427 681l-191 -410v-271h-23v270l-194 411h24l182 -389l178 389h24z" />
<glyph unicode="&#x3a6;" horiz-adv-x="691" d="M357 73v-73h-23v73q-146 4 -219 74t-73 195q0 256 292 269v70h23v-70q146 -4 218.5 -74.5t72.5 -194.5q0 -256 -291 -269zM559 161.5q66 60.5 66 180.5q0 117 -67.5 181t-201.5 67v-497q137 8 203 68.5zM133.5 161q67.5 -64 201.5 -68v497q-136 -7 -202.5 -67.5 t-66.5 -180.5q0 -117 67.5 -181z" />
<glyph unicode="&#x3a7;" horiz-adv-x="438" d="M231 370l193 -370h-24l-183 355l-179 -355h-24l189 369l-167 312h25l156 -297l155 297h24z" />
<glyph unicode="&#x3a8;" horiz-adv-x="584" d="M541 681v-266q0 -97 -61 -149.5t-177 -55.5v-210h-23v210q-115 3 -176.5 55.5t-61.5 149.5v266h23v-264q0 -89 55 -136t160 -50v450h23v-450q106 3 161 50t55 136v264h22z" />
<glyph unicode="&#x3a9;" horiz-adv-x="620" d="M486.5 601.5q64.5 -89.5 64.5 -261.5q0 -130 -36.5 -206t-108.5 -112h123v-22h-158v22q78 34 117 111t39 207q0 163 -57.5 246.5t-159.5 83.5q-100 0 -158.5 -85t-58.5 -246q0 -128 39.5 -204t116.5 -113v-22h-158v22h123q-73 39 -108.5 114t-35.5 203q0 112 30 191.5 t84 120t126 40.5q112 0 176.5 -89.5z" />
<glyph unicode="&#x3aa;" horiz-adv-x="243" d="M133 681v-681h-23v681h23zM62.5 832.5q5.5 -5.5 5.5 -14.5q0 -8 -5.5 -13.5t-14.5 -5.5q-8 0 -13.5 5.5t-5.5 13.5t5.5 14t13.5 6q9 0 14.5 -5.5zM213.5 832q5.5 -6 5.5 -14t-5.5 -13.5t-14.5 -5.5t-14.5 5.5t-5.5 13.5t5.5 14t14.5 6t14.5 -6z" />
<glyph unicode="&#x3ab;" horiz-adv-x="446" d="M427 681l-191 -410v-271h-23v270l-194 411h24l182 -389l178 389h24zM164.5 832.5q5.5 -5.5 5.5 -14.5q0 -8 -5.5 -13.5t-14.5 -5.5q-8 0 -13.5 5.5t-5.5 13.5t5.5 14t13.5 6q9 0 14.5 -5.5zM315.5 832q5.5 -6 5.5 -14t-5.5 -13.5t-14.5 -5.5t-14.5 5.5t-5.5 13.5t5.5 14 t14.5 6t14.5 -6z" />
<glyph unicode="&#x3ac;" horiz-adv-x="525" d="M305.5 508q30.5 -21 51.5 -70.5t35 -136.5l42 218h23l-54 -249l29 -201q4 -25 13 -36.5t23 -16.5l-8 -19q-21 6 -33 19.5t-16 44.5l-22 164q-21 -125 -61.5 -180t-105.5 -55q-76 0 -116.5 67t-40.5 205q0 123 44.5 195t122.5 72q43 0 73.5 -21zM128 444.5 q-40 -64.5 -40 -182.5q0 -251 134 -251q59 0 97.5 57.5t61.5 199.5q-16 93 -35.5 145t-46.5 74t-67 22q-64 0 -104 -64.5zM246 734l26 -1l-11 -130h-16z" />
<glyph unicode="&#x3ad;" horiz-adv-x="406" d="M367 484l-12 -16q-27 20 -56 30.5t-66 10.5q-59 0 -93 -31t-34 -83q0 -49 34 -80.5t93 -31.5h52l-3 -20h-52q-70 0 -106 -32t-36 -94q0 -60 37.5 -93t101.5 -33q46 0 76.5 13.5t60.5 41.5l13 -14q-31 -30 -66.5 -46t-84.5 -16q-71 0 -116 39.5t-45 107.5q0 63 33.5 97 t90.5 40q-51 10 -78 41.5t-27 79.5q0 62 41 98t107 36q75 0 135 -45zM224 734l26 -1l-11 -130h-16z" />
<glyph unicode="&#x3ae;" horiz-adv-x="524" d="M392.5 489q31.5 -40 31.5 -114v-571l-22 4v564q0 137 -105 137q-52 0 -93 -33t-76 -94v-382h-22v363q0 90 -19 157l21 3q14 -41 19 -112q68 118 172 118q62 0 93.5 -40zM248 734l26 -1l-11 -130h-16z" />
<glyph unicode="&#x3af;" horiz-adv-x="231" d="M123 101q0 -38 9.5 -57t34.5 -30l-6 -19q-34 14 -47 37.5t-13 68.5v418h22v-418zM105 734l26 -1l-11 -130h-16z" />
<glyph unicode="&#x3b0;" horiz-adv-x="503" d="M418 260q0 -136 -49 -203t-128 -67q-62 0 -101 40.5t-39 113.5v375h22v-374q0 -66 32.5 -100t85.5 -34q68 0 111 59t43 190q0 117 -23 259h22q24 -137 24 -259zM244 818l23 -1l-10 -117h-14zM186.5 676.5q5.5 -5.5 5.5 -14.5q0 -8 -5 -13.5t-15 -5.5q-8 0 -13.5 5.5 t-5.5 13.5t5.5 14t13.5 6q9 0 14.5 -5.5zM337.5 676q5.5 -6 5.5 -14t-5.5 -13.5t-14.5 -5.5t-14.5 5.5t-5.5 13.5t5.5 14t14.5 6t14.5 -6z" />
<glyph unicode="&#x3b1;" horiz-adv-x="525" d="M305.5 508q30.5 -21 51.5 -70.5t35 -136.5l42 218h23l-54 -249l29 -201q4 -25 13 -36.5t23 -16.5l-8 -19q-21 6 -33 19.5t-16 44.5l-22 164q-21 -125 -61.5 -180t-105.5 -55q-76 0 -116.5 67t-40.5 205q0 123 44.5 195t122.5 72q43 0 73.5 -21zM128 444.5 q-40 -64.5 -40 -182.5q0 -251 134 -251q59 0 97.5 57.5t61.5 199.5q-16 93 -35.5 145t-46.5 74t-67 22q-64 0 -104 -64.5z" />
<glyph unicode="&#x3b2;" horiz-adv-x="517" d="M412.5 345.5q52.5 -51.5 52.5 -145.5q0 -65 -24 -112.5t-64 -72.5t-89 -25q-51 0 -90 19.5t-70 61.5v-263l-23 -5v738q0 95 45 145.5t120 50.5q67 0 110 -43.5t44 -123.5q0 -77 -39 -120.5t-109 -50.5q84 -2 136.5 -53.5zM367 34q35 23 55.5 65t20.5 99q-1 92 -54 141.5 t-146 49.5h-46l3 20h44q64 0 111 37.5t47 121.5q0 74 -36 111t-96 37q-65 0 -103.5 -43.5t-38.5 -132.5v-444q36 -45 72.5 -65t87.5 -20q44 0 79 23z" />
<glyph unicode="&#x3b3;" horiz-adv-x="400" d="M119.5 349.5q40.5 -111.5 81.5 -310.5l154 485l23 -6l-166 -503q-21 -66 -21 -116q0 -38 13 -93l-19 -2q-17 56 -17 99q0 48 19 108q-45 208 -86.5 324.5t-85.5 181.5l22 7q42 -63 82.5 -174.5z" />
<glyph unicode="&#x3b4;" horiz-adv-x="502" d="M363.5 428q37.5 -32 55.5 -79t18 -118q0 -123 -47.5 -182t-137.5 -59q-88 0 -137.5 61.5t-49.5 181.5q0 95 41 157.5t115 93.5q-58 26 -83 55t-25 75q0 53 39 88t102 35q39 0 71 -11t62 -34l-13 -16q-30 21 -57 30.5t-62 9.5q-55 0 -87 -28.5t-32 -74.5q0 -29 11 -49 t37.5 -38t77.5 -39q64 -27 101.5 -59zM373 64q41 53 41 167q0 68 -16 111.5t-53 74.5t-104 59q-70 -28 -111.5 -88t-41.5 -155q0 -111 43 -166.5t121 -55.5q80 0 121 53z" />
<glyph unicode="&#x3b5;" horiz-adv-x="406" d="M367 484l-12 -16q-27 20 -56 30.5t-66 10.5q-59 0 -93 -31t-34 -83q0 -49 34 -80.5t93 -31.5h52l-3 -20h-52q-70 0 -106 -32t-36 -94q0 -60 37.5 -93t101.5 -33q46 0 76.5 13.5t60.5 41.5l13 -14q-31 -30 -66.5 -46t-84.5 -16q-71 0 -116 39.5t-45 107.5q0 63 33.5 97 t90.5 40q-51 10 -78 41.5t-27 79.5q0 62 41 98t107 36q75 0 135 -45z" />
<glyph unicode="&#x3b6;" horiz-adv-x="322" d="M339 712q-130 -120 -199.5 -231.5t-69.5 -229.5q0 -55 12.5 -89.5t40 -57t76.5 -42.5q75 -31 103.5 -58t28.5 -69q0 -40 -26 -71.5t-80 -59.5l-9 16q45 24 68.5 51t23.5 64q0 23 -10 39.5t-35.5 33t-75.5 37.5t-79.5 44.5t-45 62t-15.5 99.5q0 121 70 234.5t196 226.5 q-27 -1 -101 -1h-171l3 21h291z" />
<glyph unicode="&#x3b7;" horiz-adv-x="524" d="M392.5 489q31.5 -40 31.5 -114v-571l-22 4v564q0 137 -105 137q-52 0 -93 -33t-76 -94v-382h-22v363q0 90 -19 157l21 3q14 -41 19 -112q68 118 172 118q62 0 93.5 -40z" />
<glyph unicode="&#x3b8;" horiz-adv-x="497" d="M387 648q45 -89 45 -279q0 -199 -45 -289t-140 -90q-93 0 -137.5 89.5t-44.5 288.5q0 191 46.5 280t138.5 89t137 -89zM128.5 636q-39.5 -80 -40.5 -257h321q-1 177 -40 257t-119 80q-82 0 -121.5 -80zM368.5 93q39.5 82 40.5 266h-321q0 -182 39 -265t120 -83 q82 0 121.5 82z" />
<glyph unicode="&#x3b9;" horiz-adv-x="231" d="M123 101q0 -38 9.5 -57t34.5 -30l-6 -19q-34 14 -47 37.5t-13 68.5v418h22v-418z" />
<glyph unicode="&#x3ba;" horiz-adv-x="432" d="M161 267l207 -222q16 -17 26 -24t23 -11l-7 -17q-17 3 -28.5 11t-28.5 28l-218 235l239 260l17 -10zM128 362v-362h-22v363q0 90 -19 157l21 3q20 -69 20 -161z" />
<glyph unicode="&#x3bb;" horiz-adv-x="407" d="M157.5 696.5q29.5 -26.5 46 -70t29.5 -115.5q29 -161 57.5 -256.5t54 -143.5t65.5 -107l-20 -9q-40 57 -65.5 106t-53.5 143.5t-56 251.5l-157 -501l-21 5l165 519h9q-12 63 -26.5 101t-40 62.5t-69.5 36.5l3 17q50 -13 79.5 -39.5z" />
<glyph unicode="&#x3bc;" horiz-adv-x="525" d="M417 -5q-11 37 -16.5 63.5t-7.5 63.5q-61 -132 -161 -132q-84 0 -108 81q3 -51 3 -135v-128l-22 -2v713h22v-377q0 -68 29.5 -99.5t75.5 -31.5q97 0 158 140v368h22v-349q0 -52 6 -92.5t19 -80.5z" />
<glyph unicode="&#x3bd;" horiz-adv-x="400" d="M196 19l160 504l22 -5l-169 -518h-27q-44 213 -84 334t-83 183l22 7q85 -123 159 -505z" />
<glyph unicode="&#x3be;" horiz-adv-x="368" d="M310 724q30 -11 61 -33l-12 -16q-29 20 -55.5 29.5t-63.5 9.5q-63 0 -95 -36.5t-32 -95.5q0 -62 35 -96t101 -34h43l-2 -20h-46q-81 0 -124 -47.5t-43 -125.5q0 -55 15 -88.5t46.5 -55.5t88.5 -46q74 -31 101.5 -59.5t27.5 -71.5t-25.5 -74.5t-79.5 -59.5l-10 16 q45 24 68.5 51.5t23.5 66.5q0 24 -9 41t-34 34.5t-73 38.5q-60 25 -92.5 47t-51 59.5t-18.5 100.5q0 84 42.5 131.5t107.5 52.5q-56 10 -85.5 45t-29.5 94q0 68 40.5 110.5t108.5 42.5q41 0 71 -11z" />
<glyph unicode="&#x3bf;" horiz-adv-x="505" d="M390.5 461q49.5 -68 49.5 -199q0 -132 -50 -202t-138 -70t-137.5 70t-49.5 199q0 131 50.5 200.5t137.5 69.5q88 0 137.5 -68zM132 446q-44 -63 -44 -187q0 -121 43 -184.5t121 -63.5t121.5 63.5t43.5 187.5q0 122 -43 184.5t-121 62.5q-77 0 -121 -63z" />
<glyph unicode="&#x3c0;" horiz-adv-x="518" d="M393 498v-397q0 -38 9.5 -57t35.5 -30l-7 -19q-34 14 -47 37.5t-13 68.5v397h-223v-498h-22v498h-24q-24 0 -36.5 -1.5t-26.5 -7.5l-6 19q14 6 28.5 8.5t37.5 2.5h369v-21h-75z" />
<glyph unicode="&#x3c1;" d="M390.5 460q43.5 -69 43.5 -196q0 -136 -46 -205t-125 -69q-92 0 -145 94v-276l-22 -4v499q0 104 43 165t125 61q83 0 126.5 -69zM370.5 73.5q39.5 62.5 39.5 190.5q0 122 -37 183.5t-110 61.5q-71 0 -108 -54.5t-37 -154.5v-184q54 -105 144 -105q69 0 108.5 62.5z" />
<glyph unicode="&#x3c2;" horiz-adv-x="404" d="M321.5 517q28.5 -12 55.5 -38l-13 -14q-23 22 -49 33t-59 11q-77 0 -122.5 -62.5t-45.5 -179.5q0 -88 35 -135t114 -78q67 -27 92.5 -50.5t25.5 -64.5q0 -43 -26 -75t-80 -60l-9 16q45 24 68.5 51.5t23.5 66.5q0 23 -9 38.5t-31.5 29t-67.5 31.5q-82 33 -120.5 84 t-38.5 146q0 123 51.5 192.5t139.5 69.5q37 0 65.5 -12z" />
<glyph unicode="&#x3c3;" horiz-adv-x="511" d="M457 501l-126 7q51 -30 80 -91.5t29 -154.5q0 -131 -50 -201.5t-138 -70.5t-137.5 70t-49.5 199q0 128 54 198t168 70q62 0 170 -8v-18zM385.5 419.5q-31.5 61.5 -86.5 90.5h-1q-111 1 -160.5 -63t-49.5 -188q0 -120 43.5 -184t120.5 -64t121 64t44 187q0 96 -31.5 157.5 z" />
<glyph unicode="&#x3c4;" horiz-adv-x="393" d="M201 498v-397q0 -38 10 -57t35 -30l-7 -19q-33 14 -46.5 37.5t-13.5 68.5v397h-104q-24 0 -35.5 -1.5t-26.5 -7.5l-7 19q14 7 28.5 9t38.5 2h306v-21h-178z" />
<glyph unicode="&#x3c5;" horiz-adv-x="503" d="M418 260q0 -136 -49 -203t-128 -67q-62 0 -101 40.5t-39 113.5v375h22v-374q0 -66 32.5 -100t85.5 -34q68 0 111 59t43 190q0 117 -23 259h22q24 -137 24 -259z" />
<glyph unicode="&#x3c6;" horiz-adv-x="635" d="M541.5 108q-23.5 -58 -75.5 -86t-140 -32v-182l-22 -4v186q-79 5 -127.5 31t-72.5 80t-24 143q0 79 13.5 144.5t36.5 130.5h22q-22 -62 -36 -128.5t-14 -146.5q0 -86 22.5 -135.5t66 -71.5t113.5 -27v350q0 169 124 169q68 0 102.5 -59t34.5 -206q0 -98 -23.5 -156z M452 37.5q47 24.5 69 78.5t22 148q0 136 -28.5 191t-86.5 55q-49 0 -75.5 -35t-26.5 -120v-345q79 3 126 27.5z" />
<glyph unicode="&#x3c7;" horiz-adv-x="378" d="M364 -188l-21 -6l-155 357l-154 -357l-22 3l165 374q-54 140 -90.5 211t-77.5 122l21 8q41 -53 75.5 -121.5t83.5 -200.5l133 319l22 -2l-144 -337z" />
<glyph unicode="&#x3c8;" horiz-adv-x="662" d="M519 58q-58 -62 -178 -68v-182l-22 -4v186q-111 2 -169 52t-58 146l1 331h22l-1 -332q0 -173 205 -176v508h22v-508q74 3 120.5 27.5t70 79t23.5 145.5q0 70 -5.5 127t-18.5 129h23q12 -73 17.5 -129.5t5.5 -125.5q0 -144 -58 -206z" />
<glyph unicode="&#x3c9;" horiz-adv-x="693" d="M600 391.5q14 -73.5 14 -156.5q0 -245 -149 -245q-52 0 -82.5 31t-35.5 93q-8 -62 -39.5 -93t-81.5 -31q-69 0 -107.5 59t-38.5 187q0 142 49 283h23q-50 -141 -50 -284q0 -224 124 -224q50 0 79.5 38t29.5 121v180l23 4v-185q0 -158 106 -158q127 0 127 222 q0 140 -48 286h23q20 -54 34 -127.5z" />
<glyph unicode="&#x3ca;" horiz-adv-x="231" d="M123 101q0 -38 9.5 -57t34.5 -30l-6 -19q-34 14 -47 37.5t-13 68.5v418h22v-418zM50.5 706.5q5.5 -5.5 5.5 -14.5q0 -8 -5.5 -13.5t-14.5 -5.5q-8 0 -13.5 5.5t-5.5 13.5t5.5 14t13.5 6q9 0 14.5 -5.5zM201.5 706q5.5 -6 5.5 -14t-5.5 -13.5t-14.5 -5.5t-14.5 5.5 t-5.5 13.5t5.5 14t14.5 6t14.5 -6z" />
<glyph unicode="&#x3cb;" horiz-adv-x="503" d="M418 260q0 -136 -49 -203t-128 -67q-62 0 -101 40.5t-39 113.5v375h22v-374q0 -66 32.5 -100t85.5 -34q68 0 111 59t43 190q0 117 -23 259h22q24 -137 24 -259zM186.5 706.5q5.5 -5.5 5.5 -14.5q0 -8 -5.5 -13.5t-14.5 -5.5q-8 0 -13.5 5.5t-5.5 13.5t5.5 14t13.5 6 q9 0 14.5 -5.5zM337.5 706q5.5 -6 5.5 -14t-5.5 -13.5t-14.5 -5.5t-14.5 5.5t-5.5 13.5t5.5 14t14.5 6t14.5 -6z" />
<glyph unicode="&#x3cc;" horiz-adv-x="505" d="M390.5 461q49.5 -68 49.5 -199q0 -132 -50 -202t-138 -70t-137.5 70t-49.5 199q0 131 50.5 200.5t137.5 69.5q88 0 137.5 -68zM132 446q-44 -63 -44 -187q0 -121 43 -184.5t121 -63.5t121.5 63.5t43.5 187.5q0 122 -43 184.5t-121 62.5q-77 0 -121 -63zM246 734l26 -1 l-11 -130h-16z" />
<glyph unicode="&#x3cd;" horiz-adv-x="503" d="M418 260q0 -136 -49 -203t-128 -67q-62 0 -101 40.5t-39 113.5v375h22v-374q0 -66 32.5 -100t85.5 -34q68 0 111 59t43 190q0 117 -23 259h22q24 -137 24 -259zM241 734l26 -1l-11 -130h-16z" />
<glyph unicode="&#x3ce;" horiz-adv-x="693" d="M600 391.5q14 -73.5 14 -156.5q0 -245 -149 -245q-52 0 -82.5 31t-35.5 93q-8 -62 -39.5 -93t-81.5 -31q-69 0 -107.5 59t-38.5 187q0 142 49 283h23q-50 -141 -50 -284q0 -224 124 -224q50 0 79.5 38t29.5 121v180l23 4v-185q0 -158 106 -158q127 0 127 222 q0 140 -48 286h23q20 -54 34 -127.5zM342 734l26 -1l-11 -130h-16z" />
<glyph unicode="&#x3cf;" horiz-adv-x="497" d="M110 0v681h23v-681h-23zM488 21v-116q0 -50 -24 -76t-64 -26q-47 0 -81 30l11 16q15 -12 31 -18.5t38 -6.5q30 0 48.5 19.5t18.5 61.5v95h-34l-296 367l282 314h26l-281 -314l278 -346h47z" />
<glyph unicode="&#x3d0;" horiz-adv-x="512" d="M406 372.5q46 -50.5 46 -149.5q0 -69 -24 -122t-66.5 -82t-97.5 -29q-100 0 -149.5 90t-49.5 271q0 126 34 213t88.5 130t115.5 43q51 0 82.5 -33.5t31.5 -85.5q0 -70 -41 -114.5t-140 -86.5q28 6 45 6q79 0 125 -50.5zM202 680q-48 -36 -79.5 -115t-33.5 -200l73 32 q99 43 149 77.5t66.5 66.5t16.5 76q0 43 -24.5 71t-67.5 28q-52 0 -100 -36zM383 68q45 57 45 154q0 88 -41 136t-108 48q-31 0 -56.5 -7t-59.5 -22l-74 -33q0 -170 42.5 -251.5t132.5 -81.5q74 0 119 57z" />
<glyph unicode="&#x3d1;" horiz-adv-x="477" d="M451 419h-38v-25q0 -208 -50.5 -306t-149.5 -98q-62 0 -99.5 40t-37.5 112v196h22v-195q0 -65 31.5 -98.5t83.5 -33.5q89 0 133 92t44 291v25h-143q-97 0 -142.5 41t-45.5 116q0 44 18.5 81t54 58.5t82.5 21.5q92 0 141.5 -76t56.5 -221h39v-21zM389 440 q-12 276 -175 276q-62 0 -97 -39.5t-35 -100.5q0 -136 165 -136h142z" />
<glyph unicode="&#x3d2;" horiz-adv-x="464" d="M213 270l-194 411h24l182 -390l136 328q16 37 35.5 54.5t50.5 17.5q23 0 40.5 -9.5t33.5 -26.5l-12 -13q-16 16 -29 23t-33 7q-24 0 -38.5 -13.5t-29.5 -49.5l-143 -339v-270h-23v270z" />
<glyph unicode="&#x3d3;" horiz-adv-x="558" d="M307 270l-194 411h24l182 -390l136 328q16 37 35.5 54.5t50.5 17.5q23 0 40.5 -9.5t33.5 -26.5l-12 -13q-16 16 -29 23t-33 7q-24 0 -38.5 -13.5t-29.5 -49.5l-143 -339v-270h-23v270zM66 687l31 -137l-17 -3l-41 134z" />
<glyph unicode="&#x3d4;" horiz-adv-x="464" d="M213 270l-194 411h24l182 -390l136 328q16 37 35.5 54.5t50.5 17.5q23 0 40.5 -9.5t33.5 -26.5l-12 -13q-16 16 -29 23t-33 7q-24 0 -38.5 -13.5t-29.5 -49.5l-143 -339v-270h-23v270zM173.5 832.5q5.5 -5.5 5.5 -14.5q0 -8 -5.5 -13.5t-14.5 -5.5q-8 0 -13.5 5.5 t-5.5 13.5t5.5 14t13.5 6q9 0 14.5 -5.5zM324.5 832q5.5 -6 5.5 -14t-5.5 -13.5t-14.5 -5.5t-14.5 5.5t-5.5 13.5t5.5 14t14.5 6t14.5 -6z" />
<glyph unicode="&#x3d5;" horiz-adv-x="558" d="M451.5 75q-54.5 -64 -161.5 -68v-199l-22 -4v203q-105 3 -160.5 67.5t-55.5 185.5q0 119 55 184t161 68v221l22 3v-224q104 -3 160 -67t56 -184q0 -122 -54.5 -186zM483 261q0 113 -50 171t-144 61v-466q194 6 194 234zM125.5 88q50.5 -59 142.5 -61v466q-95 -4 -144 -62 t-49 -171t50.5 -172z" />
<glyph unicode="&#x3d6;" horiz-adv-x="657" d="M597 499h-96q34 -51 55.5 -123t21.5 -161q0 -123 -38.5 -174t-97.5 -51q-48 0 -78.5 31.5t-34.5 91.5q-7 -60 -38 -91.5t-77 -31.5q-62 0 -98 55t-36 171q0 161 78 283h-29q-23 0 -35.5 -2t-27.5 -7l-6 18q15 7 27.5 9t38.5 2h471v-20zM535 367.5q-20 69.5 -57 131.5 h-296q-80 -127 -80 -284q0 -110 31 -157t80 -47q46 0 75 38t29 120v141l23 4v-147q0 -82 28 -119t73 -37q50 0 82 45t32 157q0 85 -20 154.5z" />
<glyph unicode="&#x3d7;" horiz-adv-x="528" d="M431 44.5q10 -19.5 34 -30.5v-100q0 -54 -24.5 -82.5t-66.5 -28.5q-43 0 -80 29l12 15q15 -11 30.5 -17.5t37.5 -6.5q31 0 50 22t19 69v89q-24 13 -34 36.5t-10 65.5q0 306 2 390l-268 -501l-25 6v413q0 42 -10 61.5t-35 30.5l7 19q34 -13 47 -37.5t13 -73.5 q0 -303 -2 -389l268 502l25 -7v-414q0 -41 10 -60.5z" />
<glyph unicode="&#x3d8;" horiz-adv-x="620" d="M491 85q-60 -90 -169 -95v-182h-23v182q-106 5 -167.5 95t-61.5 254q0 113 30 192t84 119.5t126 40.5q112 0 176.5 -89.5t64.5 -261.5q0 -165 -60 -255zM470.5 95q56.5 83 56.5 245q0 164 -57.5 247t-159.5 83q-100 0 -158.5 -84.5t-58.5 -246.5q0 -160 58.5 -243.5 t158.5 -83.5q104 0 160.5 83z" />
<glyph unicode="&#x3d9;" horiz-adv-x="505" d="M393 64.5q-47 -69.5 -130 -74.5v-182l-21 -4v186q-83 5 -130 74.5t-47 194.5q0 131 50.5 200.5t137.5 69.5q88 0 137.5 -68t49.5 -199q0 -128 -47 -197.5zM373.5 74.5q43.5 63.5 43.5 187.5q0 122 -43 184.5t-121 62.5q-77 0 -121 -63t-44 -187q0 -121 43 -184.5 t121 -63.5t121.5 63.5z" />
<glyph unicode="&#x3da;" horiz-adv-x="492" d="M309 -180q45 24 68 51t23 65q0 37 -28.5 61t-105.5 53q-68 25 -109.5 57t-64 91t-22.5 159q0 145 71.5 234.5t214.5 89.5h113l-4 -22h-109q-131 0 -197 -82.5t-66 -220.5q0 -92 20 -147t58.5 -85.5t104.5 -54.5q81 -30 114.5 -58.5t33.5 -74.5q0 -41 -26 -72.5t-80 -59.5 z" />
<glyph unicode="&#x3db;" horiz-adv-x="390" d="M239 -180q45 24 68.5 51.5t23.5 66.5q0 25 -10 40.5t-31 27.5t-67 31q-81 33 -119.5 81t-38.5 136q0 168 151 212l39 11q35 9 51.5 16.5t26 25t9.5 52.5l21 -3q0 -40 -12.5 -61.5t-32.5 -31t-59 -19.5l-33 -9q-67 -20 -102.5 -66t-35.5 -127t35 -124t113 -76 q47 -20 71.5 -34t35.5 -32.5t11 -47.5q0 -44 -26 -76t-80 -60z" />
<glyph unicode="&#x3dc;" horiz-adv-x="479" d="M133 659v-294h181q26 0 43 -4.5t34 -13.5l-8 -19q-16 8 -31.5 11.5t-37.5 3.5h-181v-343h-23v681h339l-3 -22h-313z" />
<glyph unicode="&#x3dd;" horiz-adv-x="375" d="M144.5 475q-21.5 -24 -21.5 -72v-165h135q40 0 72 -16l-8 -18q-29 13 -65 13h-134v-409l-22 -5v601q0 55 27 85t77 30h157l-1 -20h-156q-39 0 -60.5 -24z" />
<glyph unicode="&#x3de;" horiz-adv-x="395" d="M356 355l7 -22l-173 -333h-25l173 333h-299l-7 22l172 326h26l-171 -326h297z" />
<glyph unicode="&#x3df;" horiz-adv-x="365" d="M345 411l-101 -239q-25 -60 -35 -95.5t-15 -82.5l-22 3q5 51 15.5 88t36.5 98l94 219l-291 -90l-7 21l96 225q25 57 35 92.5t16 85.5l21 -3q-5 -50 -16 -87.5t-37 -98.5l-88 -206l289 90z" />
<glyph unicode="&#x3e0;" horiz-adv-x="499" d="M471 0h-23l-118 343l-105 -343h-22l117 373l-69 199l-201 -572h-22l214 599l-31 82h20z" />
<glyph unicode="&#x3e1;" horiz-adv-x="530" d="M308 568.5q79 -91.5 118 -211.5t39 -283q0 -130 -26 -274l-19 3q24 155 24 271q0 179 -48 308l-161 -382h-22l172 408q-33 77 -92 147l-252 -555h-23l262 570q-73 79 -188 154l10 17q127 -81 206 -172.5z" />
<glyph unicode="&#x3f0;" horiz-adv-x="529" d="M431 44q10 -19 35 -30l-7 -19q-34 13 -47 36.5t-13 68.5q0 313 2 395l-268 -501l-25 6v419q0 37 -10 56t-35 30l7 19q34 -13 47 -36.5t13 -68.5q0 -309 -2 -395l268 502l25 -6v-420q0 -37 10 -56z" />
<glyph unicode="&#x3f1;" d="M338 -144.5q27 -16.5 39 -45.5l-21 -7q-12 25 -35 37.5t-82 23.5q-78 14 -110.5 46t-32.5 98v295q0 104 43 165t125 61t126 -66.5t44 -183.5q0 -125 -46.5 -191t-124.5 -66q-92 0 -145 94v-109q0 -58 29 -84.5t102 -39.5q62 -11 89 -27.5zM155 454.5 q-37 -54.5 -37 -154.5v-152q55 -106 144 -106q69 0 108.5 60.5t39.5 176.5q0 112 -37.5 171t-109.5 59q-71 0 -108 -54.5z" />
<glyph unicode="&#x3f2;" horiz-adv-x="451" d="M347.5 517.5q31.5 -11.5 64.5 -38.5l-12 -15q-30 23 -58.5 34t-67.5 11q-85 0 -135.5 -64t-50.5 -188q0 -122 50.5 -184t132.5 -62q41 0 71 12t63 36l12 -15q-34 -27 -67.5 -40.5t-77.5 -13.5q-94 0 -150.5 68.5t-56.5 198.5t56.5 201t151.5 71q43 0 74.5 -11.5z" />
<glyph unicode="&#x3f3;" horiz-adv-x="233" d="M128 -11q0 -54 -11 -87t-32 -54t-60 -43l-7 16q34 20 52 39.5t27 49.5t9 80v529h22v-530zM130.5 718q5.5 -6 5.5 -14t-5.5 -13.5t-14.5 -5.5t-14.5 5.5t-5.5 13.5t5.5 14t14.5 6t14.5 -6z" />
<glyph unicode="&#x3f4;" horiz-adv-x="620" d="M486.5 601.5q64.5 -89.5 64.5 -261.5q0 -169 -63.5 -259.5t-177.5 -90.5q-73 0 -127 40t-83.5 118.5t-29.5 190.5q0 113 30 192t84 119.5t126 40.5q112 0 176.5 -89.5zM151.5 585.5q-58.5 -84.5 -58.5 -246.5q0 -160 58.5 -243.5t158.5 -83.5q104 0 160.5 83t56.5 245 q0 164 -57.5 247t-159.5 83q-100 0 -158.5 -84.5zM434 361v-21h-247v21h247z" />
<glyph unicode="&#x3f5;" horiz-adv-x="426" d="M383 43q-60 -53 -129 -53q-87 0 -138 69.5t-51 201.5q0 128 52 198t140 70q36 0 64.5 -12t57.5 -38l-13 -15q-26 23 -51.5 34t-57.5 11q-74 0 -119.5 -59t-49.5 -172h238v-20h-238q1 -123 45.5 -185t119.5 -62q35 0 62 11.5t55 34.5z" />
<glyph unicode="&#x3f6;" horiz-adv-x="421" d="M314.5 467.5q41.5 -61.5 41.5 -202.5q0 -134 -44 -204.5t-128 -70.5q-45 0 -78 15t-63 43l13 15q28 -25 57.5 -39t69.5 -14q149 0 151 249h-226v20h226q-2 124 -38 177t-101 53q-39 0 -69 -12.5t-58 -36.5l-12 16q61 53 138 53q79 0 120.5 -61.5z" />
<glyph unicode="&#x3f7;" horiz-adv-x="501" d="M395 506q57 -48 57 -151q0 -109 -60.5 -158.5t-174.5 -49.5h-84v-147h-23v681h23v-127h87q118 0 175 -48zM375.5 211q53.5 43 53.5 144q0 95 -50.5 136.5t-158.5 41.5h-87v-365h85q104 0 157.5 43z" />
<glyph unicode="&#x3f8;" horiz-adv-x="511" d="M401 462q43 -67 43 -198t-44.5 -202.5t-126.5 -71.5q-47 0 -84 24.5t-62 64.5v-271l-22 -4v929l22 3v-299q61 92 151 92q80 0 123 -67zM382.5 75.5q38.5 64.5 38.5 188.5q0 122 -36.5 183.5t-106.5 61.5q-48 0 -83 -25.5t-68 -74.5v-301q60 -97 145 -97q72 0 110.5 64.5z " />
<glyph unicode="&#x3f9;" horiz-adv-x="512" d="M407 677q36 -14 75 -44l-12 -16q-40 28 -72 40.5t-78 12.5q-105 0 -166 -80t-61 -250q0 -163 60.5 -245.5t163.5 -82.5q51 0 84.5 14.5t74.5 43.5l14 -16q-41 -31 -80 -47.5t-94 -16.5q-113 0 -179.5 89t-66.5 261q0 176 67.5 263.5t180.5 87.5q53 0 89 -14z" />
<glyph unicode="&#x3fa;" horiz-adv-x="688" d="M617 0h-21l-35 345l-30 315l-176 -576h-23l-179 576q-3 -49 -24 -253q-1 -20 -5 -53l-32 -354h-22l66 681h33l175 -569l173 569h33z" />
<glyph unicode="&#x3fb;" horiz-adv-x="583" d="M473 519l41 -519h-22l-29 389l-7 105l-155 -421h-21l-153 422l-7 -106l-44 -581l-22 -5l56 716h28l153 -422l155 422h27z" />
<glyph unicode="&#x3fc;" d="M118 84v-168h155v-19h-155v-89l-22 -4v93h-68v19h68v387q0 104 43 165t125 61q83 0 126.5 -69t43.5 -196q0 -136 -46 -205t-125 -69q-92 0 -145 94zM155 454.5q-37 -54.5 -37 -154.5v-184q54 -105 144 -105q69 0 108.5 62.5t39.5 190.5q0 122 -37 183.5t-110 61.5 q-71 0 -108 -54.5z" />
<glyph unicode="&#x3fd;" horiz-adv-x="512" d="M380.5 604.5q62.5 -86.5 62.5 -264.5q0 -172 -66.5 -261t-179.5 -89q-57 0 -97.5 17t-76.5 47l14 15q34 -27 71 -42t88 -15q102 0 162.5 82.5t60.5 245.5q0 330 -214 330q-49 0 -87 -13t-76 -40l-12 16q40 28 81 43t94 15q113 0 175.5 -86.5z" />
<glyph unicode="&#x3fe;" horiz-adv-x="512" d="M407 677q36 -14 75 -44l-12 -16q-40 28 -72 40.5t-78 12.5q-105 0 -166 -80t-61 -250q0 -163 60.5 -245.5t163.5 -82.5q51 0 84.5 14.5t74.5 43.5l14 -16q-41 -31 -80 -47.5t-94 -16.5q-113 0 -179.5 89t-66.5 261q0 176 67.5 263.5t180.5 87.5q53 0 89 -14zM327.5 357 q5.5 -6 5.5 -14t-5.5 -13.5t-14.5 -5.5t-14.5 5.5t-5.5 13.5t5.5 14t14.5 6t14.5 -6z" />
<glyph unicode="&#x3ff;" horiz-adv-x="512" d="M380.5 604.5q62.5 -86.5 62.5 -264.5q0 -172 -66.5 -261t-179.5 -89q-57 0 -97.5 17t-76.5 47l14 15q34 -27 71 -42t88 -15q102 0 162.5 82.5t60.5 245.5q0 330 -214 330q-49 0 -87 -13t-76 -40l-12 16q40 28 81 43t94 15q113 0 175.5 -86.5zM211.5 357q5.5 -6 5.5 -14 t-5.5 -13.5t-14.5 -5.5t-14.5 5.5t-5.5 13.5t5.5 14t14.5 6t14.5 -6z" />
<glyph unicode="&#x400;" horiz-adv-x="446" d="M400 681l-3 -21h-264v-290h228v-21h-228v-328h274v-21h-297v681h290zM187 859l156 -81l-7 -15l-161 74z" />
<glyph unicode="&#x401;" horiz-adv-x="446" d="M400 681l-3 -21h-264v-290h228v-21h-228v-328h274v-21h-297v681h290zM199.5 832.5q5.5 -5.5 5.5 -14.5q0 -8 -5.5 -13.5t-14.5 -5.5q-8 0 -13.5 5.5t-5.5 13.5t5.5 14t13.5 6q9 0 14.5 -5.5zM350.5 832q5.5 -6 5.5 -14t-5.5 -13.5t-14.5 -5.5t-14.5 5.5t-5.5 13.5t5.5 14 t14.5 6t14.5 -6z" />
<glyph unicode="&#x402;" horiz-adv-x="621" d="M524 375.5q41 -44.5 41 -123.5v-176q0 -47 -9.5 -76.5t-35 -52.5t-74.5 -47l-8 16q43 22 65 43t30.5 48t8.5 70v174q0 69 -34 108.5t-104 39.5q-56 0 -98 -25t-80 -76v-298h-23v659h-188v22h403l-4 -22h-188v-332q35 45 78 69t100 24q79 0 120 -44.5z" />
<glyph unicode="&#x403;" horiz-adv-x="461" d="M449 681l-3 -22h-313v-659h-23v681h339zM368 859l11 -22l-161 -73l-7 15z" />
<glyph unicode="&#x404;" horiz-adv-x="485" d="M463 54q-33 -31 -70 -47.5t-85 -16.5q-71 0 -124.5 39.5t-83.5 120.5t-30 201q0 112 31 188.5t85.5 114t123.5 37.5q47 0 81 -14.5t64 -43.5l-12 -15q-32 27 -61.5 39.5t-70.5 12.5q-95 0 -154.5 -75.5t-63.5 -227.5h255v-22h-255q1 -166 59.5 -249.5t155.5 -83.5 q46 0 76.5 14.5t64.5 43.5z" />
<glyph unicode="&#x405;" horiz-adv-x="483" d="M329.5 673.5q37.5 -17.5 72.5 -51.5l-15 -15q-34 33 -68 48t-80 15q-65 0 -105 -38.5t-40 -97.5q0 -40 14.5 -67.5t47.5 -48t91 -41.5q93 -32 133.5 -74.5t40.5 -120.5q0 -55 -24 -98.5t-67 -68.5t-98 -25q-57 0 -101 21t-83 61l15 14q37 -37 75.5 -55.5t92.5 -18.5 q75 0 121 47t46 122q0 48 -16 80t-49.5 54t-93.5 43q-93 33 -130.5 72t-37.5 104q0 43 21 79t59.5 57t87.5 21q53 0 90.5 -17.5z" />
<glyph unicode="&#x406;" horiz-adv-x="243" d="M133 681v-681h-23v681h23z" />
<glyph unicode="&#x407;" horiz-adv-x="243" d="M133 681v-681h-23v681h23zM62.5 832.5q5.5 -5.5 5.5 -14.5q0 -8 -5.5 -13.5t-14.5 -5.5q-8 0 -13.5 5.5t-5.5 13.5t5.5 14t13.5 6q9 0 14.5 -5.5zM213.5 832q5.5 -6 5.5 -14t-5.5 -13.5t-14.5 -5.5t-14.5 5.5t-5.5 13.5t5.5 14t14.5 6t14.5 -6z" />
<glyph unicode="&#x408;" horiz-adv-x="251" d="M146 87q0 -52 -9.5 -84t-35 -55.5t-74.5 -47.5l-7 16q43 22 64.5 44t30 51.5t8.5 77.5v592h23v-594z" />
<glyph unicode="&#x409;" horiz-adv-x="795" d="M697 352.5q54 -48.5 54 -144.5q0 -104 -55 -156t-154 -52h-124v660h-232l-39 -369q-14 -129 -23 -181t-25 -75.5t-52 -39.5l-6 20q28 13 41 34t21.5 71.5t20.5 172.5l41 388h275v-280h101q102 0 156 -48.5zM681 67.5q47 46.5 47 141.5q0 86 -47.5 128.5t-137.5 42.5h-103 v-359h107q87 0 134 46.5z" />
<glyph unicode="&#x40a;" horiz-adv-x="831" d="M734.5 336q52.5 -47 52.5 -139q0 -97 -54 -147t-146 -50h-133v361h-321v-361h-23v681h23v-298h321v298h22v-298h111q95 0 147.5 -47zM718 65.5q46 44.5 46 132.5q0 82 -46.5 122.5t-129.5 40.5h-112v-340h116q80 0 126 44.5z" />
<glyph unicode="&#x40b;" horiz-adv-x="621" d="M524.5 375.5q40.5 -44.5 40.5 -123.5v-252h-23v251q0 69 -34 108.5t-104 39.5q-55 0 -97.5 -24.5t-80.5 -75.5v-299h-23v660h-188v21h403l-4 -21h-188v-332q36 45 78.5 68.5t99.5 23.5q80 0 120.5 -44.5z" />
<glyph unicode="&#x40c;" horiz-adv-x="491" d="M452 681l-190 -320l204 -361h-26l-198 350h-109v-350h-23v681h23v-311h110l184 311h25zM346 859l11 -22l-161 -73l-7 15z" />
<glyph unicode="&#x40d;" horiz-adv-x="596" d="M486 0h-23v456q0 144 3 199l-328 -655h-28v681h23v-462q0 -55 -3 -193l328 655h28v-681zM229 859l156 -81l-7 -15l-161 74z" />
<glyph unicode="&#x40e;" horiz-adv-x="446" d="M251 194q-31 -82 -48.5 -117t-40.5 -53.5t-68 -32.5l-6 18q39 13 59.5 29t37 49t44.5 107h-5l-210 487h24l199 -468l177 468h23zM166 790q-26 19 -33 51l16 3q17 -51 83 -51q32 0 53.5 13t29.5 38l16 -3q-7 -32 -33.5 -51t-65.5 -19q-40 0 -66 19z" />
<glyph unicode="&#x40f;" horiz-adv-x="588" d="M478 681v-681h-173v-138h-16l-8 138h-171v681h23v-660h322v660h23z" />
<glyph unicode="&#x410;" horiz-adv-x="509" d="M458 0l-62 203h-284l-62 -203h-22l212 681h28l213 -681h-23zM119 224h270l-135 439z" />
<glyph unicode="&#x411;" horiz-adv-x="508" d="M399 356q54 -49 54 -145q0 -106 -55.5 -158.5t-153.5 -52.5h-134v681h286l-4 -21h-259v-255h110q102 0 156 -49zM382 68q47 47 47 143q0 87 -47 130t-137 43h-112v-363h116q86 0 133 47z" />
<glyph unicode="&#x412;" horiz-adv-x="529" d="M430.5 312q43.5 -44 43.5 -128q0 -91 -55.5 -137.5t-154.5 -46.5h-154v681h123q101 0 155.5 -43t54.5 -125q0 -64 -33 -102.5t-93 -49.5q70 -5 113.5 -49zM133 660v-290h139q68 0 107.5 39.5t39.5 102.5q0 73 -46.5 110.5t-136.5 37.5h-103zM402 61.5q49 40.5 49 122.5 q0 81 -46.5 123.5t-127.5 42.5h-144v-329h132q88 0 137 40.5z" />
<glyph unicode="&#x413;" horiz-adv-x="461" d="M449 681l-3 -22h-313v-659h-23v681h339z" />
<glyph unicode="&#x414;" horiz-adv-x="531" d="M463 21v-159h-16l-8 138h-416l-8 -138h-16v159h32q23 23 38 52.5t27.5 87.5t23.5 160l41 360h260v-660h42zM399 660h-218l-38 -338q-11 -101 -23.5 -159.5t-28 -89t-38.5 -52.5h346v639z" />
<glyph unicode="&#x415;" horiz-adv-x="446" d="M400 681l-3 -21h-264v-290h228v-21h-228v-328h274v-21h-297v681h290z" />
<glyph unicode="&#x416;" horiz-adv-x="655" d="M622 681l-168 -320l182 -361h-25l-176 350h-97v-350h-22v350h-95l-177 -350h-24l182 361l-168 320h25l163 -311h94v311h22v-311h97l163 311h24z" />
<glyph unicode="&#x417;" horiz-adv-x="464" d="M114.5 13q-45.5 23 -85.5 70l16 13q36 -42 76.5 -63t93.5 -21q77 0 124 48t47 135q0 78 -44.5 122t-123.5 43l-53 -1l2 21h48q68 0 110 38.5t42 109.5q0 65 -36.5 103.5t-103.5 38.5q-48 0 -86 -19.5t-76 -57.5l-15 15q41 42 83 62.5t95 20.5q76 0 119 -44.5t43 -118.5 q0 -69 -34 -108t-91 -49q64 -6 104 -51t40 -124q0 -97 -53.5 -151.5t-140.5 -54.5q-55 0 -100.5 23z" />
<glyph unicode="&#x418;" horiz-adv-x="596" d="M486 0h-23v456q0 144 3 199l-328 -655h-28v681h23v-462q0 -55 -3 -193l328 655h28v-681z" />
<glyph unicode="&#x419;" horiz-adv-x="596" d="M486 0h-23v456q0 144 3 199l-328 -655h-28v681h23v-462q0 -55 -3 -193l328 655h28v-681zM234 790q-26 19 -33 51l16 3q17 -51 83 -51q32 0 53.5 13t29.5 38l16 -3q-7 -32 -33.5 -51t-65.5 -19q-40 0 -66 19z" />
<glyph unicode="&#x41a;" horiz-adv-x="491" d="M452 681l-190 -320l204 -361h-26l-198 350h-109v-350h-23v681h23v-311h110l184 311h25z" />
<glyph unicode="&#x41b;" horiz-adv-x="572" d="M462 681v-681h-22v660h-254l-39 -369q-14 -128 -23 -180.5t-25 -76t-52 -39.5l-6 20q28 13 40.5 33.5t21 70.5t21.5 174l41 388h297z" />
<glyph unicode="&#x41c;" horiz-adv-x="688" d="M617 0h-21l-35 345l-30 315l-176 -576h-23l-179 576q-3 -49 -24 -253q-1 -20 -5 -53l-32 -354h-22l66 681h33l175 -569l173 569h33z" />
<glyph unicode="&#x41d;" horiz-adv-x="594" d="M462 0v349h-329v-349h-23v681h23v-311h329v311h22v-681h-22z" />
<glyph unicode="&#x41e;" horiz-adv-x="620" d="M486.5 601.5q64.5 -89.5 64.5 -261.5q0 -169 -63.5 -259.5t-177.5 -90.5q-73 0 -127 40t-83.5 118.5t-29.5 190.5q0 113 30 192t84 119.5t126 40.5q112 0 176.5 -89.5zM151.5 585.5q-58.5 -84.5 -58.5 -246.5q0 -160 58.5 -243.5t158.5 -83.5q104 0 160.5 83t56.5 245 q0 164 -57.5 247t-159.5 83q-100 0 -158.5 -84.5z" />
<glyph unicode="&#x41f;" horiz-adv-x="591" d="M481 681v-681h-22v660h-326v-660h-23v681h371z" />
<glyph unicode="&#x420;" horiz-adv-x="501" d="M394.5 633.5q57.5 -47.5 57.5 -149.5q0 -105 -61.5 -153.5t-176.5 -48.5h-81v-282h-23v681h108q119 0 176.5 -47.5zM375 345q54 42 54 138q0 94 -51 135.5t-160 41.5h-85v-357h83q105 0 159 42z" />
<glyph unicode="&#x421;" horiz-adv-x="485" d="M391 676.5q34 -14.5 64 -43.5l-12 -15q-32 27 -61.5 39.5t-70.5 12.5q-98 0 -158 -81.5t-60 -248.5q0 -108 28 -181.5t76.5 -110t111.5 -36.5q46 0 77 14.5t63 42.5l14 -16q-67 -63 -155 -63q-70 0 -124 39.5t-84 118t-30 192.5q0 117 31 196t85 117t124 38 q47 0 81 -14.5z" />
<glyph unicode="&#x422;" horiz-adv-x="429" d="M418 681l-4 -21h-188v-660h-23v660h-188v21h403z" />
<glyph unicode="&#x423;" horiz-adv-x="446" d="M251 194q-31 -82 -48.5 -117t-40.5 -53.5t-68 -32.5l-6 18q39 13 59.5 29t37 49t44.5 107h-5l-210 487h24l199 -468l177 468h23z" />
<glyph unicode="&#x424;" horiz-adv-x="701" d="M581.5 126.5q-71.5 -73.5 -219.5 -78.5v-66h-23v66q-292 7 -292 299q0 148 72 221.5t220 79.5v64h23v-64q291 -7 291 -299q0 -149 -71.5 -222.5zM564.5 140.5q65.5 66.5 65.5 208.5q0 137 -66.5 206t-202.5 73v-560q138 6 203.5 72.5zM137.5 140q66.5 -69 202.5 -72v560 q-138 -7 -203.5 -73t-65.5 -208q0 -138 66.5 -207z" />
<glyph unicode="&#x425;" horiz-adv-x="438" d="M231 370l193 -370h-24l-183 355l-179 -355h-24l189 369l-167 312h25l156 -297l155 297h24z" />
<glyph unicode="&#x426;" horiz-adv-x="588" d="M478 21h55v-159h-16l-8 138h-399v681h23v-660h322v660h23v-660z" />
<glyph unicode="&#x427;" horiz-adv-x="519" d="M409 681v-681h-22v318q-70 -87 -172 -87q-76 0 -122 45.5t-46 126.5v278h23v-277q0 -73 39.5 -112.5t107.5 -39.5q52 0 96.5 25t73.5 68v336h22z" />
<glyph unicode="&#x428;" horiz-adv-x="808" d="M698 682v-682h-588v682h23v-661h260v661h22v-661h260v661h23z" />
<glyph unicode="&#x429;" horiz-adv-x="808" d="M698 21h55v-159h-16l-8 138h-619v682h23v-661h260v661h22v-661h260v661h23v-661z" />
<glyph unicode="&#x42a;" horiz-adv-x="590" d="M491.5 359q54.5 -49 54.5 -147q0 -107 -55.5 -159.5t-156.5 -52.5h-131v660h-188v21h211v-273h107q104 0 158.5 -49zM475 68.5q47 47.5 47 144.5q0 174 -187 174h-109v-366h113q89 0 136 47.5z" />
<glyph unicode="&#x42b;" horiz-adv-x="698" d="M389.5 359q54.5 -49 54.5 -147q0 -107 -55.5 -159.5t-155.5 -52.5h-123v681h23v-273h99q103 0 157.5 -49zM565 681h23v-681h-23v681zM373 68.5q47 47.5 47 144.5q0 174 -186 174h-101v-366h105q88 0 135 47.5z" />
<glyph unicode="&#x42c;" horiz-adv-x="496" d="M398.5 359q54.5 -49 54.5 -147q0 -107 -55.5 -159.5t-156.5 -52.5h-131v681h23v-273h107q104 0 158.5 -49zM382 68.5q47 47.5 47 144.5q0 174 -187 174h-109v-366h113q89 0 136 47.5z" />
<glyph unicode="&#x42d;" horiz-adv-x="463" d="M343 611.5q50 -79.5 50 -265.5q0 -356 -208 -356q-51 0 -89 18.5t-73 52.5l14 16q36 -32 69 -48.5t79 -16.5q93 0 139 82t46 251h-263v22h263q-4 165 -47.5 234t-122.5 69q-45 0 -79 -13.5t-75 -45.5l-13 15q39 33 78.5 49t89.5 16q92 0 142 -79.5z" />
<glyph unicode="&#x42e;" horiz-adv-x="772" d="M642 602q61 -89 61 -262q0 -170 -60 -260t-172 -90q-108 0 -169.5 89.5t-62.5 265.5h-106v-345h-23v681h23v-315h106q4 155 66.5 240t165.5 85q110 0 171 -89zM625.5 94.5q53.5 82.5 53.5 245.5q0 164 -54.5 247t-153.5 83q-96 0 -152 -83.5t-56 -238.5q0 -169 55 -252.5 t153 -83.5q101 0 154.5 82.5z" />
<glyph unicode="&#x42f;" horiz-adv-x="527" d="M417 681v-681h-23v300h-179l-140 -300h-26l143 303q-134 34 -134 182q0 97 55.5 146.5t174.5 49.5h129zM394 322v338h-106q-107 0 -156.5 -43t-49.5 -132q0 -79 42 -121t110 -42h160z" />
<glyph unicode="&#x430;" horiz-adv-x="476" d="M380 36q9 -21 32 -30l-5 -16q-29 10 -42 32.5t-14 66.5q-26 -50 -62.5 -74.5t-87.5 -24.5q-66 0 -104 42.5t-38 111.5q0 79 50.5 121.5t138.5 42.5h101v66q0 67 -27.5 101t-89.5 34q-61 0 -131 -32l-8 18q74 34 139 34q139 0 139 -153v-274q0 -45 9 -66zM349 121v167h-98 q-82 0 -125 -36.5t-43 -107.5q0 -62 31.5 -97.5t86.5 -35.5q99 0 148 110z" />
<glyph unicode="&#x431;" horiz-adv-x="497" d="M389 427.5q43 -61.5 43 -176.5q0 -261 -180 -261q-89 0 -138 72.5t-49 222.5q0 117 13 186.5t47.5 114t102.5 73.5q52 22 83 38t57 35l11 -16q-42 -33 -141 -74q-51 -22 -81 -52.5t-47 -84.5t-22 -145q25 56 70 92.5t108 36.5q80 0 123 -61.5zM368 66q41 55 41 183 q0 110 -37 165t-107 55q-61 0 -106 -40t-70 -105l-1 -41q-1 -136 41 -204t124 -68q74 0 115 55z" />
<glyph unicode="&#x432;" horiz-adv-x="483" d="M386.5 245q31.5 -33 31.5 -93q0 -74 -49 -113t-131 -39h-133v515q76 14 133 14q75 0 114 -36.5t39 -95.5q0 -49 -24.5 -78.5t-68.5 -37.5q57 -3 88.5 -36zM127 498v-208h134q51 0 79.5 28.5t28.5 78.5q0 51 -32.5 82t-98.5 31q-47 0 -111 -12zM352.5 52q43.5 32 43.5 100 q0 118 -130 118h-139v-250h110q72 0 115.5 32z" />
<glyph unicode="&#x433;" horiz-adv-x="376" d="M127 0h-22v519h261l-3 -20h-236v-499z" />
<glyph unicode="&#x434;" horiz-adv-x="495" d="M427 21v-159h-16l-7 138h-370l-7 -138h-16v159h27q26 20 41 44.5t25.5 76.5t16.5 147l13 230h252v-498h41zM363 499h-207l-12 -207q-6 -95 -16.5 -148.5t-26 -80t-39.5 -42.5h301v478z" />
<glyph unicode="&#x435;" horiz-adv-x="476" d="M414 246h-326q2 -118 46.5 -176.5t118.5 -58.5q39 0 68.5 13.5t61.5 41.5l13 -15q-33 -30 -66.5 -45.5t-76.5 -15.5q-87 0 -137.5 69t-50.5 196q0 131 49 202.5t132 71.5q84 0 127 -65t43 -180q0 -16 -2 -38zM394 292q0 101 -37 159t-110 58q-70 0 -113.5 -61.5 t-45.5 -182.5h305q1 8 1 27z" />
<glyph unicode="&#x436;" horiz-adv-x="587" d="M536 519l-119 -241l143 -278h-23l-138 267h-95v-267h-20v267h-97l-138 -267h-22l143 278l-119 241h23l114 -232h96v232h20v-232h95l116 232h21z" />
<glyph unicode="&#x437;" horiz-adv-x="421" d="M295 493q38 -36 38 -96q0 -52 -27.5 -82.5t-77.5 -38.5q61 -6 94.5 -36.5t33.5 -93.5q0 -73 -44 -114.5t-116 -41.5q-55 0 -94 18.5t-73 51.5l14 13q33 -30 67.5 -46t84.5 -16q64 0 101 34t37 101q0 62 -37.5 90.5t-113.5 28.5h-50l3 19h44q66 0 98.5 30t32.5 83 q0 51 -31 81.5t-86 30.5q-42 0 -72.5 -11t-66.5 -36l-11 15q35 26 70.5 39t79.5 13q64 0 102 -36z" />
<glyph unicode="&#x438;" horiz-adv-x="527" d="M421 0h-22v394q0 47 3 98l-271 -492h-26v519h22v-373q0 -73 -1 -119l270 492h25v-519z" />
<glyph unicode="&#x439;" horiz-adv-x="527" d="M421 0h-22v394q0 47 3 98l-271 -492h-26v519h22v-373q0 -73 -1 -119l270 492h25v-519zM197 681q-26 19 -33 51l16 3q16 -51 83 -51q32 0 53.5 13t29.5 38l16 -3q-7 -32 -33.5 -51t-65.5 -19q-40 0 -66 19z" />
<glyph unicode="&#x43a;" horiz-adv-x="429" d="M379 519l-153 -240l180 -279h-25l-173 268h-81v-268h-22v519h22v-232h81l148 232h23z" />
<glyph unicode="&#x43b;" d="M398 519v-519h-22v499h-217l-17 -248q-7 -106 -14 -150.5t-23.5 -68t-52.5 -37.5l-6 19q28 11 41 32t19.5 63.5t13.5 142.5l18 267h260z" />
<glyph unicode="&#x43c;" horiz-adv-x="583" d="M473 519l41 -519h-22l-29 389l-7 105l-155 -421h-21l-153 421l-7 -105l-29 -389h-21l40 519h28l153 -422l155 422h27z" />
<glyph unicode="&#x43d;" horiz-adv-x="525" d="M397 0v262h-270v-262h-22v519h22v-237h270v237h22v-519h-22z" />
<glyph unicode="&#x43e;" horiz-adv-x="505" d="M390.5 461q49.5 -68 49.5 -199q0 -132 -50 -202t-138 -70t-137.5 70t-49.5 199q0 131 50.5 200.5t137.5 69.5q88 0 137.5 -68zM132 446q-44 -63 -44 -187q0 -121 43 -184.5t121 -63.5t121.5 63.5t43.5 187.5q0 122 -43 184.5t-121 62.5q-77 0 -121 -63z" />
<glyph unicode="&#x43f;" horiz-adv-x="521" d="M394 0v499h-267v-499h-22v519h311v-519h-22z" />
<glyph unicode="&#x440;" horiz-adv-x="511" d="M401 462q43 -67 43 -198t-44.5 -202.5t-126.5 -71.5q-47 0 -84 24.5t-62 64.5v-271l-22 -4v715h20l2 -83q59 93 151 93q80 0 123 -67zM382.5 75.5q38.5 64.5 38.5 188.5q0 122 -36.5 183.5t-106.5 61.5q-48 0 -83 -25.5t-68 -74.5v-301q60 -97 145 -97q72 0 110.5 64.5z " />
<glyph unicode="&#x441;" horiz-adv-x="415" d="M321.5 517q28.5 -12 55.5 -38l-13 -15q-23 23 -49 34t-59 11q-77 0 -122.5 -64t-45.5 -188q0 -122 45.5 -184t121.5 -62q64 0 114 47l13 -14q-56 -54 -126 -54q-87 0 -139 69t-52 198q0 130 51.5 201t139.5 71q37 0 65.5 -12z" />
<glyph unicode="&#x442;" horiz-adv-x="375" d="M365 519l-3 -21h-163v-498h-22v498h-167v21h355z" />
<glyph unicode="&#x443;" horiz-adv-x="405" d="M220 -1q-19 -62 -38 -97t-48 -58t-79 -39l-3 18q46 15 72 36t41.5 52t34.5 89h-9l-168 519h23l160 -501l153 501h24z" />
<glyph unicode="&#x444;" horiz-adv-x="700" d="M600 463q32 -66 32 -199q0 -132 -36 -203t-108 -71q-40 0 -69.5 19.5t-57.5 58.5v-67l-1 -193l-21 75v186q-26 -41 -55.5 -60t-68.5 -19q-72 0 -110 72t-38 202q0 129 38.5 197t111.5 68q39 0 68.5 -20.5t53.5 -62.5v75l1 215l21 -90v-199q53 82 131 82q76 0 108 -66z M283.5 33q29.5 22 55.5 67v314q-26 49 -55 72t-66 23q-62 0 -95 -61.5t-33 -183.5q0 -124 32 -188.5t94 -64.5q38 0 67.5 22zM610 264q0 126 -27.5 185.5t-90.5 59.5q-80 0 -131 -95v-315q29 -45 59 -66.5t69 -21.5q121 0 121 253z" />
<glyph unicode="&#x445;" horiz-adv-x="396" d="M210 279l168 -279h-26l-155 265l-154 -265h-25l166 278l-143 241h24l132 -228l134 228h24z" />
<glyph unicode="&#x446;" horiz-adv-x="516" d="M410 21h53v-159h-16l-7 138h-335v519h22v-498h261v498h22v-498z" />
<glyph unicode="&#x447;" horiz-adv-x="475" d="M369 519v-519h-22v265q-61 -80 -155 -80q-59 0 -95.5 33t-36.5 100v201h22v-199q0 -114 112 -114q50 0 89 24t64 63v226h22z" />
<glyph unicode="&#x448;" horiz-adv-x="718" d="M613 519v-519h-508v519h22v-498h221v498h21v-498h222v498h22z" />
<glyph unicode="&#x449;" horiz-adv-x="718" d="M613 21h53v-159h-16l-7 138h-538v519h22v-498h221v498h21v-498h222v498h22v-498z" />
<glyph unicode="&#x44a;" horiz-adv-x="515" d="M476 174q0 -86 -46.5 -130t-128.5 -44h-124v499h-167v20h189v-184h98q179 0 179 -161zM414 58q39 37 39 116q0 69 -36.5 105t-118.5 36h-99v-294h100q76 0 115 37z" />
<glyph unicode="&#x44b;" horiz-adv-x="626" d="M395 174q0 -86 -46.5 -130t-128.5 -44h-115v519h22v-184h89q179 0 179 -161zM498 519h22v-519h-22v519zM333 58q39 37 39 116q0 69 -36 105t-119 36h-90v-294h91q76 0 115 37z" />
<glyph unicode="&#x44c;" horiz-adv-x="443" d="M404 174q0 -86 -46.5 -130t-128.5 -44h-124v519h22v-184h98q179 0 179 -161zM342 58q39 37 39 116q0 69 -36.5 105t-118.5 36h-99v-294h100q76 0 115 37z" />
<glyph unicode="&#x44d;" horiz-adv-x="421" d="M314.5 467.5q41.5 -61.5 41.5 -202.5q0 -134 -44 -204.5t-128 -70.5q-45 0 -78 15t-63 43l13 15q28 -25 57.5 -39t69.5 -14q149 0 151 249h-226v20h226q-2 124 -38 177t-101 53q-39 0 -69 -12.5t-58 -36.5l-12 16q61 53 138 53q79 0 120.5 -61.5z" />
<glyph unicode="&#x44e;" horiz-adv-x="669" d="M557.5 461q46.5 -68 46.5 -199q0 -132 -47 -202t-132 -70q-84 0 -130 69t-47 200h-121v-259h-22v519h22v-239h121q4 122 51.5 185.5t126.5 63.5q85 0 131.5 -68zM540.5 73.5q40.5 62.5 40.5 188.5q0 123 -40 185t-115 62q-73 0 -114 -62.5t-41 -186.5t40 -186.5 t114 -62.5q75 0 115.5 62.5z" />
<glyph unicode="&#x44f;" horiz-adv-x="481" d="M376 519v-519h-22v230h-149l-118 -230h-24l120 234q-51 11 -78 47.5t-27 91.5q0 71 42 108.5t124 37.5h132zM354 250v249h-111q-70 1 -106.5 -30.5t-36.5 -95.5q0 -60 33.5 -91.5t89.5 -31.5h131z" />
<glyph unicode="&#x450;" horiz-adv-x="476" d="M414 246h-326q2 -118 46.5 -176.5t118.5 -58.5q39 0 68.5 13.5t61.5 41.5l13 -15q-33 -30 -66.5 -45.5t-76.5 -15.5q-87 0 -137.5 69t-50.5 196q0 131 49 202.5t132 71.5q84 0 127 -65t43 -180q0 -16 -2 -38zM394 292q0 101 -37 159t-110 58q-70 0 -113.5 -61.5 t-45.5 -182.5h305q1 8 1 27zM176 760l158 -91l-9 -15l-161 84z" />
<glyph unicode="&#x451;" horiz-adv-x="476" d="M414 246h-326q2 -118 46.5 -176.5t118.5 -58.5q39 0 68.5 13.5t61.5 41.5l13 -15q-33 -30 -66.5 -45.5t-76.5 -15.5q-87 0 -137.5 69t-50.5 196q0 131 49 202.5t132 71.5q84 0 127 -65t43 -180q0 -16 -2 -38zM394 292q0 101 -37 159t-110 58q-70 0 -113.5 -61.5 t-45.5 -182.5h305q1 8 1 27zM185.5 706.5q5.5 -5.5 5.5 -14.5q0 -8 -5.5 -13.5t-14.5 -5.5q-8 0 -13.5 5.5t-5.5 13.5t5.5 14t13.5 6q9 0 14.5 -5.5zM336.5 706q5.5 -6 5.5 -14t-5.5 -13.5t-14.5 -5.5t-14.5 5.5t-5.5 13.5t5.5 14t14.5 6t14.5 -6z" />
<glyph unicode="&#x452;" horiz-adv-x="528" d="M396 487.5q31 -41.5 31 -118.5v-363q0 -63 -10.5 -99.5t-32 -58t-60.5 -43.5l-7 16q34 20 52.5 40t27 53.5t8.5 91.5v361q0 142 -104 142q-52 0 -93.5 -33t-75.5 -94v-382h-22v629h-68v20h68v84l22 3v-87h163v-20h-163v-216q68 116 170 116q63 0 94 -41.5z" />
<glyph unicode="&#x453;" horiz-adv-x="376" d="M127 0h-22v519h261l-3 -20h-236v-499zM302 760l11 -22l-161 -84l-8 15z" />
<glyph unicode="&#x454;" horiz-adv-x="426" d="M383 43q-60 -53 -129 -53q-87 0 -138 69.5t-51 201.5q0 128 52 198t140 70q36 0 64.5 -12t57.5 -38l-13 -15q-26 23 -51.5 34t-57.5 11q-74 0 -119.5 -59t-49.5 -172h238v-20h-238q1 -123 45.5 -185t119.5 -62q35 0 62 11.5t55 34.5z" />
<glyph unicode="&#x455;" horiz-adv-x="414" d="M281 515.5q33 -13.5 65 -41.5l-13 -16q-30 27 -58.5 39t-67.5 12q-53 0 -87 -29.5t-34 -78.5q0 -43 28.5 -68t98.5 -49q81 -27 113.5 -58.5t32.5 -91.5q0 -64 -43.5 -104t-110.5 -40q-51 0 -88 17.5t-70 48.5l13 14q33 -30 65.5 -45t79.5 -15q58 0 94.5 33t36.5 91 q0 36 -12 59t-40.5 39.5t-81.5 34.5q-75 25 -106.5 55t-31.5 79q0 56 41 92t101 36q42 0 75 -13.5z" />
<glyph unicode="&#x456;" horiz-adv-x="233" d="M127 519v-519h-22v519h22zM130.5 718q5.5 -6 5.5 -14t-5.5 -13.5t-14.5 -5.5t-14.5 5.5t-5.5 13.5t5.5 14t14.5 6t14.5 -6z" />
<glyph unicode="&#x457;" horiz-adv-x="233" d="M127 519v-519h-22v519h22zM54.5 706.5q5.5 -5.5 5.5 -14.5q0 -8 -5.5 -13.5t-14.5 -5.5q-8 0 -13.5 5.5t-5.5 13.5t5.5 14t13.5 6q9 0 14.5 -5.5zM205.5 706q5.5 -6 5.5 -14t-5.5 -13.5t-14.5 -5.5t-14.5 5.5t-5.5 13.5t5.5 14t14.5 6t14.5 -6z" />
<glyph unicode="&#x458;" horiz-adv-x="233" d="M128 -11q0 -54 -11 -87t-32 -54t-60 -43l-7 16q34 20 52 39.5t27 49.5t9 80v529h22v-530zM130.5 718q5.5 -6 5.5 -14t-5.5 -13.5t-14.5 -5.5t-14.5 5.5t-5.5 13.5t5.5 14t14.5 6t14.5 -6z" />
<glyph unicode="&#x459;" horiz-adv-x="689" d="M650 174q0 -86 -46 -130t-128 -44h-115v501h-202l-17 -250q-8 -107 -14.5 -151t-23 -67.5t-52.5 -37.5l-6 19q28 11 41 32t19.5 63.5t13.5 142.5l18 267h245v-184h88q179 0 179 -161zM627 174q0 69 -36 105t-119 36h-89v-294h91q153 0 153 153z" />
<glyph unicode="&#x45a;" horiz-adv-x="717" d="M635 275.5q43 -40.5 43 -111.5q0 -80 -46.5 -122t-128.5 -42h-115v295l-261 1v-296h-22v519h22v-203h261v203h22v-203h89q93 0 136 -40.5zM615.5 56.5q39.5 35.5 39.5 107.5q0 131 -155 131h-90v-274h91q75 0 114.5 35.5z" />
<glyph unicode="&#x45b;" horiz-adv-x="528" d="M395.5 488.5q31.5 -40.5 31.5 -113.5v-375h-22v372q0 67 -26 102t-79 35q-52 0 -93 -32.5t-76 -94.5v-382h-22v629h-67v20h67v84l22 3v-87h164v-20h-164v-217q70 117 171 117q62 0 93.5 -40.5z" />
<glyph unicode="&#x45c;" horiz-adv-x="429" d="M379 519l-153 -240l180 -279h-25l-173 268h-81v-268h-22v519h22v-232h81l148 232h23zM312 760l11 -22l-161 -84l-8 15z" />
<glyph unicode="&#x45d;" horiz-adv-x="527" d="M421 0h-22v394q0 47 3 98l-271 -492h-26v519h22v-373q0 -73 -1 -119l270 492h25v-519zM192 760l158 -91l-9 -15l-161 84z" />
<glyph unicode="&#x45e;" horiz-adv-x="405" d="M220 -1q-19 -62 -38 -97t-48 -58t-79 -39l-3 18q46 15 72 36t41.5 52t34.5 89h-9l-168 519h23l160 -501l153 501h24zM138 681q-26 19 -33 51l16 3q16 -51 83 -51q32 0 53.5 13t29.5 38l16 -3q-7 -32 -33.5 -51t-65.5 -19q-40 0 -66 19z" />
<glyph unicode="&#x45f;" horiz-adv-x="516" d="M410 519v-519h-141v-138h-16l-7 138h-141v519h22v-498h261v498h22z" />
<glyph unicode="&#x460;" horiz-adv-x="757" d="M665.5 485q15.5 -88 15.5 -200q0 -164 -44.5 -229.5t-124.5 -65.5q-58 0 -90.5 31t-43.5 94q-12 -63 -45.5 -94t-90.5 -31q-83 0 -124.5 68t-41.5 228q0 111 16 197.5t51 197.5h24q-35 -108 -51.5 -197.5t-16.5 -197.5q0 -106 17.5 -166.5t48.5 -84t77 -23.5 q59 0 91.5 39.5t32.5 132.5v212h24v-213q0 -93 32 -132t90 -39q70 0 108 60t38 213q0 109 -16 199t-50 197h24q34 -108 49.5 -196z" />
</font>
</defs>
</svg>
