<?xml version="1.0" standalone="no"?>
<!DOCTYPE svg PUBLIC "-//W3C//DTD SVG 1.1//EN" "http://www.w3.org/Graphics/SVG/1.1/DTD/svg11.dtd" >
<svg xmlns="http://www.w3.org/2000/svg" xmlns:xlink="http://www.w3.org/1999/xlink" version="1.1">
<metadata></metadata>
<defs>
<font id="fira_sans_condensedLtIt" horiz-adv-x="504" >
<font-face units-per-em="1000" ascent="800" descent="-200" />
<missing-glyph horiz-adv-x="246" />
<glyph unicode="&#xfb01;" horiz-adv-x="514" />
<glyph unicode="&#xfb02;" horiz-adv-x="532" />
<glyph horiz-adv-x="0" />
<glyph unicode="&#xd;" horiz-adv-x="246" />
<glyph unicode=" "  horiz-adv-x="246" />
<glyph unicode="&#x09;" horiz-adv-x="246" />
<glyph unicode="&#xa0;" horiz-adv-x="246" />
<glyph unicode="!" horiz-adv-x="226" d="M79 217l61 468h59l-70 -468h-50zM48.5 1q-11.5 12 -11.5 30q0 21 14 35.5t35 14.5q20 0 31 -11.5t11 -29.5q0 -21 -14 -36t-35 -15q-19 0 -30.5 12z" />
<glyph unicode="&#x22;" horiz-adv-x="347" d="M98 434l27 251h58l-43 -251h-42zM256 434l27 251h58l-43 -251h-42z" />
<glyph unicode="#" horiz-adv-x="453" d="M467 452h-71l-59 -226h65l-7 -45h-69l-47 -181h-51l47 181h-158l-47 -181h-50l47 181h-65l7 45h69l59 226h-63l6 46h69l43 167h51l-43 -167h157l43 167h51l-43 -167h65zM286 226l59 226h-157l-59 -226h157z" />
<glyph unicode="$" horiz-adv-x="473" d="M397 649.5q33 -18.5 62 -49.5l-35 -33q-29 31 -61.5 45.5t-71.5 14.5q-63 0 -101.5 -35t-38.5 -95q0 -44 25.5 -70.5t89.5 -50.5q75 -28 111.5 -67t36.5 -104q0 -51 -21.5 -97.5t-65.5 -78t-109 -38.5l-21 -141h-48l20 139q-100 6 -167 84l37 32q59 -67 148 -67 q81 0 125 47.5t44 116.5q0 47 -26.5 75.5t-91.5 54.5q-76 30 -110 67t-34 95q0 48 22.5 88t64 64.5t95.5 27.5l20 144h48l-21 -145q41 -5 74 -23.5z" />
<glyph unicode="%" horiz-adv-x="723" d="M617 703l-520 -700l38 -27l519 700zM118.5 386.5q-31.5 35.5 -31.5 94.5q0 45 17.5 90t53 75t87.5 30q54 0 85.5 -35t31.5 -94q0 -45 -17 -90t-53 -75.5t-89 -30.5t-84.5 35.5zM268 419q24 26 34 62t10 68q0 39 -16 62.5t-51 23.5q-40 0 -64 -25.5t-34 -61t-10 -68.5 q0 -87 67 -87q40 0 64 26zM413.5 24.5q-31.5 35.5 -31.5 94.5q0 45 17.5 90t53 75t87.5 30q53 0 84.5 -35t31.5 -94q0 -45 -17 -90t-52.5 -75.5t-88.5 -30.5t-84.5 35.5zM562.5 57q24.5 26 34.5 62t10 68q0 39 -16.5 62.5t-51.5 23.5q-39 0 -63.5 -25.5t-34.5 -61.5t-10 -69 q0 -39 16.5 -62.5t51.5 -23.5q39 0 63.5 26z" />
<glyph unicode="&#x26;" horiz-adv-x="656" d="M437 659.5q39 -36.5 39 -92.5q0 -63 -38.5 -107t-132.5 -97l152 -192q46 79 85 174l48 -19q-49 -112 -103 -191l90 -113l-46 -32l-80 104q-45 -52 -95.5 -78.5t-113.5 -26.5q-77 0 -122.5 45t-45.5 116q0 66 34.5 118.5t122.5 104.5q-33 42 -49 78.5t-16 74.5 q0 46 19.5 84.5t57.5 62t91 23.5q64 0 103 -36.5zM250 615q-28 -36 -28 -88q0 -31 12.5 -62t41.5 -69q83 47 114 84t31 86q0 39 -24 62t-63 23q-56 0 -84 -36zM159 251q-27 -45 -27 -101q0 -51 30 -82.5t84 -31.5q99 0 175 93l-163 210q-72 -43 -99 -88z" />
<glyph unicode="'" horiz-adv-x="189" d="M98 434l27 251h58l-43 -251h-42z" />
<glyph unicode="(" horiz-adv-x="290" d="M321 812q-112 -149 -163.5 -284.5t-51.5 -303.5q0 -99 21 -174t63 -165l-38 -21q-35 71 -55 119.5t-33.5 109t-13.5 133.5q0 125 26.5 225.5t76.5 189.5t134 197z" />
<glyph unicode=")" horiz-adv-x="290" d="M218 716q20 -48 33.5 -108.5t13.5 -132.5q0 -125 -26.5 -226t-77 -190t-134.5 -197l-34 25q113 151 164.5 286.5t51.5 304.5q0 98 -21 172.5t-64 165.5l38 20q36 -72 56 -120z" />
<glyph unicode="*" horiz-adv-x="402" d="M413 581l-143 -40l73 -125l-48 -29l-58 132l-94 -132l-41 30l108 125l-131 41l20 47l126 -55l15 161h55l-31 -160l138 56z" />
<glyph unicode="+" horiz-adv-x="449" d="M286 508l-21 -153h133l-6 -49h-135l-21 -152h-53l22 152h-134l6 49h135l22 153h52z" />
<glyph unicode="," horiz-adv-x="194" d="M99 69.5q11 -11.5 11 -29.5q0 -13 -4.5 -26t-16.5 -34l-70 -130h-39l57 147q-17 11 -17 34q0 21 14 35.5t35 14.5q19 0 30 -11.5z" />
<glyph unicode="-" horiz-adv-x="361" d="M64 288l7 50h239l-6 -50h-240z" />
<glyph unicode="." horiz-adv-x="195" d="M31.5 1q-11.5 12 -11.5 30q0 21 14 35.5t35 14.5q20 0 31 -11.5t11 -29.5q0 -21 -14 -36t-35 -15q-19 0 -30.5 12z" />
<glyph unicode="/" horiz-adv-x="472" d="M392 803l46 -12l-333 -890l-46 13z" />
<glyph unicode="0" horiz-adv-x="509" d="M173 602.5q-57 -73.5 -83 -182t-26 -214.5q0 -107 38 -162t111 -55q86 0 143 73.5t83 182t26 214.5q0 107 -37.5 162t-111.5 55q-86 0 -143 -73.5zM385.5 589.5q23.5 -39.5 23.5 -122.5q0 -97 -22 -197t-66 -167t-106 -67q-95 0 -95 162q0 97 22 197t66 167t106 67 q48 0 71.5 -39.5z" />
<glyph unicode="1" horiz-adv-x="376" d="M319 665l-93 -665h-57l84 598l-158 -100l-22 43l198 124h48z" />
<glyph unicode="2" horiz-adv-x="431" d="M360.5 634q40.5 -42 40.5 -111q0 -58 -25 -112t-94.5 -135.5t-212.5 -226.5l282 1l-16 -50h-338l7 49q154 159 224 241t92.5 130t22.5 101q0 51 -26 79t-72 28q-41 0 -74.5 -19t-67.5 -57l-35 32q43 48 86.5 70t93.5 22q72 0 112.5 -42z" />
<glyph unicode="3" horiz-adv-x="443" d="M367 636q39 -40 39 -104q0 -68 -39 -117t-111 -62q53 -5 84 -39t31 -97q0 -54 -24 -106.5t-74.5 -87t-124.5 -34.5q-105 0 -161 88l39 28q25 -37 54.5 -52.5t69.5 -15.5q55 0 92 26.5t54.5 69t17.5 89.5q0 106 -112 106h-42l15 46h27q46 0 79.5 22t50.5 58t17 77 q0 47 -25 73t-69 26q-38 0 -71.5 -15t-70.5 -49l-28 35q43 38 85 56.5t89 18.5q69 0 108 -40z" />
<glyph unicode="4" horiz-adv-x="467" d="M430 222l-7 -47h-79l-25 -175h-56l26 175h-262l7 43l243 458l47 -20l-229 -434h201l33 196h49l-28 -196h80z" />
<glyph unicode="5" horiz-adv-x="440" d="M419 618h-241l-32 -228q53 31 104 31q66 0 104 -44.5t38 -122.5q0 -61 -24.5 -122t-76 -102t-129.5 -41q-54 0 -92.5 21t-67.5 60l39 31q24 -33 53 -48.5t70 -15.5q58 0 96.5 33.5t56.5 83.5t18 99q0 60 -27 91t-73 31q-29 0 -52.5 -7.5t-52.5 -24.5h-44l45 322h303z" />
<glyph unicode="6" horiz-adv-x="481" d="M395 391.5q38 -41.5 38 -118.5q0 -64 -23.5 -130t-72.5 -110t-119 -44q-81 0 -119 55t-38 151q0 114 34.5 225.5t99 183.5t150.5 72q63 0 109 -40l-29 -37q-38 31 -82 31q-73 0 -130.5 -81.5t-82.5 -213.5q73 98 166 98q61 0 99 -41.5zM308.5 74.5q35.5 38.5 51.5 93.5 t16 105q0 57 -24 85t-66 28q-45 0 -87 -31t-78 -86q-4 -39 -4 -77q0 -78 24.5 -117t77.5 -39q54 0 89.5 38.5z" />
<glyph unicode="7" horiz-adv-x="393" d="M419 665l-6 -44l-321 -629l-50 17l311 607l-276 1l7 48h335z" />
<glyph unicode="8" horiz-adv-x="490" d="M403.5 288.5q26.5 -35.5 26.5 -86.5q0 -63 -29 -111.5t-79.5 -75t-113.5 -26.5q-80 0 -126.5 44.5t-46.5 115.5q0 144 162 209q-82 46 -82 133q0 55 26.5 97t70 65t94.5 23q66 0 109.5 -37.5t43.5 -103.5q0 -63 -31.5 -105t-104.5 -79q54 -27 80.5 -62.5zM207 591.5 q-37 -39.5 -37 -99.5q0 -40 20 -66t67 -46l27 -12q66 35 93 74t27 92q0 46 -26.5 71.5t-73.5 25.5q-60 0 -97 -39.5zM326 81q46 45 46 123q0 43 -24 70.5t-82 52.5l-28 12q-84 -35 -114.5 -83t-30.5 -107q0 -53 31 -83t86 -30q70 0 116 45z" />
<glyph unicode="9" horiz-adv-x="470" d="M401 625.5q39 -50.5 39 -139.5q0 -175 -79.5 -309.5t-297.5 -196.5l-11 43q134 44 212 117.5t107 201.5q-71 -93 -161 -93q-63 0 -101 46t-38 123q0 62 24 121.5t72 98t117 38.5q78 0 117 -50.5zM378 399q6 51 6 87q0 72 -25 108t-77 36q-54 0 -89 -33.5t-50.5 -82.5 t-15.5 -98q0 -57 24.5 -88.5t68.5 -31.5q80 0 158 103z" />
<glyph unicode=":" horiz-adv-x="195" d="M31.5 1q-11.5 12 -11.5 30q0 21 14 35.5t35 14.5q20 0 31 -11.5t11 -29.5q0 -21 -14 -36t-35 -15q-19 0 -30.5 12zM86.5 392q-11.5 12 -11.5 30q0 21 14 35.5t35 14.5q20 0 31 -11.5t11 -29.5q0 -21 -14 -36t-35 -15q-19 0 -30.5 12z" />
<glyph unicode=";" horiz-adv-x="197" d="M99 69.5q11 -11.5 11 -29.5q0 -13 -4.5 -26t-16.5 -34l-70 -130h-39l57 147q-17 11 -17 34q0 21 14 35.5t35 14.5q19 0 30 -11.5zM88.5 392q-11.5 12 -11.5 30q0 21 14 35.5t35 14.5q20 0 31 -11.5t11 -29.5q0 -21 -14 -36t-35 -15q-19 0 -30.5 12z" />
<glyph unicode="&#x3c;" horiz-adv-x="452" d="M409 527l16 -46l-308 -152l265 -148l-28 -45l-290 169l8 53z" />
<glyph unicode="=" horiz-adv-x="450" d="M84 393l6 49h321l-7 -49h-320zM59 219l6 49h321l-7 -49h-320z" />
<glyph unicode="&#x3e;" horiz-adv-x="452" d="M118 527l290 -168l-8 -52l-337 -171l-17 46l309 154l-265 146z" />
<glyph unicode="?" horiz-adv-x="409" d="M374 660.5q37 -35.5 37 -91.5q0 -44 -16 -75t-39.5 -51t-61.5 -46q-33 -22 -52 -38.5t-32 -39.5t-13 -53q0 -24 4 -40l-51 -10q-8 27 -8 53q0 38 15 66t36 46.5t57 43.5q35 23 55 40.5t34 42.5t14 60q0 38 -23 59t-64 21q-39 0 -73.5 -18.5t-70.5 -56.5l-35 32 q43 47 87 69t96 22q67 0 104 -35.5zM132.5 0q-11.5 12 -11.5 30q0 21 14 35.5t35 14.5q20 0 31 -11.5t11 -29.5q0 -21 -14 -36t-35 -15q-19 0 -30.5 12z" />
<glyph unicode="@" horiz-adv-x="927" d="M711 653.5q73 -42.5 110 -116.5t37 -168q0 -82 -22.5 -164.5t-70 -137.5t-117.5 -55q-47 0 -71.5 30t-26.5 77q-59 -105 -145 -105q-56 0 -91 42.5t-35 118.5q0 71 24 142t76 119t130 48q63 0 122 -34l-36 -272q-4 -30 -4 -44q0 -76 56 -76q51 0 86.5 49t52.5 121t17 142 q0 128 -70.5 202.5t-200.5 74.5q-139 0 -230 -76t-133.5 -188t-42.5 -220q0 -96 35 -168t101 -111.5t154 -39.5q91 0 177 33l9 -46q-49 -18 -92 -27t-97 -9q-101 0 -179 45.5t-121 129t-43 193.5q0 119 49 242.5t154 207t262 83.5q103 0 176 -42.5zM489.5 93 q34.5 34 52.5 78l36 253q-34 16 -69 16q-63 0 -102.5 -42.5t-56.5 -104t-17 -121.5q0 -56 21 -84.5t59 -28.5q42 0 76.5 34z" />
<glyph unicode="A" horiz-adv-x="514" d="M400 0l-27 188h-254l-79 -188h-60l300 685h73l107 -685h-60zM140 237h226l-57 400z" />
<glyph unicode="B" horiz-adv-x="544" d="M487 223q0 -58 -24.5 -108t-82 -82.5t-149.5 -32.5h-170l96 685h163q89 0 139 -38t50 -110q0 -70 -40.5 -116t-107.5 -59q126 -20 126 -139zM208 636l-35 -252h118q76 0 117.5 42t41.5 109q0 53 -33.5 77t-95.5 24h-113zM383.5 99.5q43.5 50.5 43.5 123.5q0 114 -133 114 h-128l-40 -288h111q103 0 146.5 50.5z" />
<glyph unicode="C" horiz-adv-x="498" d="M459.5 680q35.5 -16 67.5 -48l-35 -34q-28 25 -55 36.5t-62 11.5q-86 0 -143 -62t-83 -154.5t-26 -184.5q0 -102 40.5 -153.5t108.5 -51.5q43 0 75.5 14.5t68.5 42.5l28 -39q-82 -69 -176 -69t-149.5 67.5t-55.5 190.5q0 105 33 208.5t103 172t175 68.5q50 0 85.5 -16z " />
<glyph unicode="D" horiz-adv-x="577" d="M469.5 631q67.5 -54 67.5 -188q0 -119 -34.5 -219t-110.5 -162t-195 -62h-136l96 685h133q112 0 179.5 -54zM208 636l-82 -587h80q97 0 158 57.5t87.5 147t26.5 190.5q0 110 -50 151t-135 41h-85z" />
<glyph unicode="E" horiz-adv-x="458" d="M472 685l-14 -49h-250l-35 -257h216l-7 -48h-216l-40 -282h263l-8 -49h-320l96 685h315z" />
<glyph unicode="F" horiz-adv-x="430" d="M466 685l-14 -49h-244l-37 -269h211l-7 -48h-211l-45 -319h-58l96 685h309z" />
<glyph unicode="G" horiz-adv-x="558" d="M471.5 679q39.5 -17 73.5 -52l-37 -33q-29 28 -59 40t-70 12q-84 0 -141.5 -59t-86 -152.5t-28.5 -196.5q0 -100 40 -149.5t115 -49.5q68 0 135 36l34 244h-117v50h182l-45 -322q-92 -58 -194 -58q-99 0 -154.5 65t-55.5 189q0 114 36 218t108 169.5t173 65.5 q52 0 91.5 -17z" />
<glyph unicode="H" horiz-adv-x="601" d="M119 0h-58l96 685h58l-42 -300h290l42 300h58l-97 -685h-58l48 336h-290z" />
<glyph unicode="I" horiz-adv-x="254" d="M215 685l-96 -685h-58l96 685h58z" />
<glyph unicode="J" horiz-adv-x="265" d="M147 89q-8 -61 -27.5 -98.5t-52.5 -61.5t-90 -48l-13 43q45 22 69.5 43t37 50.5t19.5 77.5l83 590h58z" />
<glyph unicode="K" horiz-adv-x="498" d="M61 0l96 685h58l-96 -685h-58zM391 0l-217 367l298 318h67l-300 -320l218 -365h-66z" />
<glyph unicode="L" horiz-adv-x="423" d="M215 685l-89 -632h257l-16 -53h-306l96 685h58z" />
<glyph unicode="M" horiz-adv-x="697" d="M597 0h-56l18 328q10 191 20 301l-227 -548h-57l-81 547q-12 -79 -60 -299l-72 -329h-56l155 685h75l77 -536l218 536h83z" />
<glyph unicode="N" horiz-adv-x="603" d="M468 0h-75l-198 632q-5 -93 -26 -248l-53 -384h-55l96 685h76l199 -631q3 88 20 214l58 417h55z" />
<glyph unicode="O" horiz-adv-x="624" d="M528 630q55 -66 55 -190q0 -104 -31.5 -207.5t-102 -173.5t-178.5 -70q-97 0 -152.5 67t-55.5 190q0 101 32.5 204.5t103 174.5t177.5 71q97 0 152 -66zM229 582q-56 -65 -81 -157.5t-25 -180.5q0 -102 39.5 -153.5t110.5 -51.5q91 0 147 65t79.5 158t23.5 181 q0 102 -38.5 153t-111.5 51q-88 0 -144 -65z" />
<glyph unicode="P" horiz-adv-x="510" d="M455 642.5q53 -42.5 53 -127.5q0 -66 -25.5 -121.5t-85 -91t-155.5 -35.5h-86l-37 -267h-58l96 685h146q99 0 152 -42.5zM402.5 373q45.5 57 45.5 142q0 65 -37.5 93.5t-112.5 28.5h-90l-45 -321h83q111 0 156.5 57z" />
<glyph unicode="Q" horiz-adv-x="620" d="M539 -48l-45 -45q-41 48 -90 65t-134 17q-96 0 -151.5 67t-55.5 190q0 101 32.5 204.5t103 174.5t177.5 71q97 0 152 -66t55 -190q0 -84 -21 -169.5t-67.5 -153.5t-118.5 -96q103 -6 163 -69zM162.5 90q39.5 -51 110.5 -51q91 0 147 65.5t79.5 158.5t23.5 183 q0 100 -39 150.5t-111 50.5q-88 0 -144 -65t-81 -158t-25 -182q0 -101 39.5 -152z" />
<glyph unicode="R" horiz-adv-x="531" d="M465 398q-40 -58 -124 -80l123 -318h-62l-117 308h-123l-43 -308h-58l96 685h152q99 0 147.5 -40t48.5 -116q0 -73 -40 -131zM269 356q94 0 135 50.5t41 120.5q0 57 -32.5 83.5t-105.5 26.5h-99l-39 -281h100z" />
<glyph unicode="S" horiz-adv-x="485" d="M399 676.5q41 -19.5 74 -57.5l-36 -34q-31 33 -62.5 47.5t-71.5 14.5q-64 0 -105.5 -38.5t-41.5 -97.5q0 -44 25.5 -70t93.5 -53q78 -30 115 -70t37 -108q0 -56 -27 -106.5t-80.5 -82.5t-128.5 -32q-61 0 -106.5 23t-81.5 65l38 33q31 -35 66 -53t85 -18q56 0 95.5 23 t59.5 61.5t20 83.5q0 51 -26.5 80.5t-94.5 56.5q-81 33 -115 68.5t-34 96.5q0 47 25 90t72.5 70t109.5 27q54 0 95 -19.5z" />
<glyph unicode="T" horiz-adv-x="446" d="M496 685l-14 -52h-178l-89 -633h-58l89 633h-181l7 52h424z" />
<glyph unicode="U" horiz-adv-x="583" d="M485 192q-13 -90 -73 -146.5t-157 -56.5q-88 0 -133.5 46.5t-45.5 122.5q0 19 3 38l69 489h57l-68 -489q-3 -19 -3 -36q0 -57 30.5 -88.5t93.5 -31.5q74 0 117 44t53 116l68 485h58z" />
<glyph unicode="V" horiz-adv-x="497" d="M540 685l-295 -685h-67l-102 685h60l84 -624l259 624h61z" />
<glyph unicode="W" horiz-adv-x="732" d="M762 685l-230 -685h-72l-44 620l-218 -620h-72l-37 685h55l27 -629l221 629h66l44 -630l205 630h55z" />
<glyph unicode="X" horiz-adv-x="462" d="M489 685l-212 -315l140 -370h-62l-115 328l-205 -328h-64l238 368l-123 317h63l98 -278l178 278h64z" />
<glyph unicode="Y" horiz-adv-x="471" d="M519 685l-253 -417l-38 -268h-59l38 267l-136 418h60l111 -364l213 364h64z" />
<glyph unicode="Z" horiz-adv-x="462" d="M-7 0l7 48l409 586h-294l8 51h357l-7 -48l-407 -586l320 1l-15 -52h-378z" />
<glyph unicode="[" horiz-adv-x="284" d="M303 806l-7 -46h-100l-116 -826h100l-6 -46h-153l129 918h153z" />
<glyph unicode="\" horiz-adv-x="471" d="M231 800l83 -890l-49 -9l-82 890z" />
<glyph unicode="]" horiz-adv-x="285" d="M288 806l-129 -918h-153l7 46h100l116 826h-100l6 46h153z" />
<glyph unicode="^" horiz-adv-x="483" d="M346 832l122 -305h-60l-93 249l-162 -249h-63l208 305h48z" />
<glyph unicode="_" horiz-adv-x="473" d="M-25 -121l7 50h416l-7 -50h-416z" />
<glyph unicode="`" horiz-adv-x="253" d="M126 780l155 -103l-20 -32l-165 85z" />
<glyph unicode="a" horiz-adv-x="511" d="M383 524q35 -10 71 -30l-54 -380q-4 -30 -4 -38q0 -18 6.5 -29t21.5 -18l-18 -40q-31 9 -46.5 29.5t-14.5 61.5q-64 -91 -148 -91q-69 0 -108 51t-39 139q0 83 27 164.5t84.5 136t144.5 54.5q42 0 77 -10zM194.5 441q-44.5 -47 -65.5 -118t-21 -143q0 -71 25 -107.5 t73 -36.5q41 0 75.5 27.5t66.5 79.5l46 324q-39 21 -88 21q-67 0 -111.5 -47z" />
<glyph unicode="b" horiz-adv-x="519" d="M432.5 486q37.5 -48 37.5 -137q0 -85 -25.5 -167t-82.5 -137.5t-146 -55.5q-40 0 -75.5 8t-80.5 26l101 713l57 7l-40 -287q71 78 151 78q66 0 103.5 -48zM241 463.5q-36 -23.5 -72 -65.5l-48 -342q24 -10 47 -15t52 -5q68 0 111 49.5t62 121.5t20 144q0 136 -95 136 q-41 0 -77 -23.5z" />
<glyph unicode="c" horiz-adv-x="422" d="M367 521q31 -13 58 -41l-32 -34q-21 20 -44 30t-53 10q-65 0 -106.5 -46.5t-60.5 -115.5t-19 -138q0 -74 29 -111t82 -37q31 0 58 11t57 33l24 -39q-66 -54 -143 -54t-121.5 52.5t-44.5 147.5q0 80 26 159.5t81.5 132.5t138.5 53q39 0 70 -13z" />
<glyph unicode="d" horiz-adv-x="523" d="M496 736l-104 -736h-48l8 104q-65 -115 -160 -115q-67 0 -104.5 51.5t-37.5 141.5q0 80 25 161.5t77 136t129 54.5q80 0 121 -70l38 279zM186 439q-40 -48 -59 -119t-19 -140q0 -70 24.5 -107t69.5 -37q47 0 84 37t76 108l32 228q-17 37 -42.5 57.5t-65.5 20.5 q-60 0 -100 -48z" />
<glyph unicode="e" horiz-adv-x="467" d="M354.5 267.5q-87.5 -47.5 -245.5 -61.5v-18q0 -77 30 -113.5t83 -36.5q36 0 67 12.5t67 38.5l25 -38q-39 -31 -78.5 -46.5t-84.5 -15.5q-80 0 -123.5 52t-43.5 146q0 84 27.5 164t84 131.5t139.5 51.5q66 0 103 -34.5t37 -88.5q0 -96 -87.5 -143.5zM172.5 418 q-46.5 -69 -59.5 -167q137 12 204 49t67 109q0 35 -21 56.5t-64 21.5q-80 0 -126.5 -69z" />
<glyph unicode="f" horiz-adv-x="287" d="M236.5 674q-23.5 -22 -30.5 -68l-12 -83h124l-14 -46h-116l-65 -465q-9 -66 -28 -105t-48 -62t-81 -48l-16 42q38 19 59.5 37.5t36 51t22.5 87.5l64 462h-81l7 46h81l12 88q9 62 48 97t101 35q29 0 55 -9t53 -26l-23 -38q-41 26 -83 26t-65.5 -22z" />
<glyph unicode="g" horiz-adv-x="513" d="M385.5 524q35.5 -10 71.5 -30l-71 -494q-30 -206 -203 -206q-42 0 -82.5 13t-72.5 35l23 41q66 -41 131 -41q127 0 149 158l12 87q-63 -87 -144 -87q-69 0 -108.5 50.5t-39.5 138.5q0 81 27 160.5t85 132t145 52.5q42 0 77.5 -10zM196.5 442.5q-44.5 -45.5 -66 -114 t-21.5 -138.5t25.5 -106.5t73.5 -36.5q76 0 143 107l46 313q-40 21 -89 21q-67 0 -111.5 -45.5z" />
<glyph unicode="h" horiz-adv-x="523" d="M423.5 501.5q29.5 -32.5 29.5 -90.5q0 -16 -3 -36l-53 -375h-56l53 372q3 20 3 35q0 79 -66 79q-47 0 -91 -46t-83 -122l-44 -318h-56l104 736l56 7l-48 -342q74 133 172 133q53 0 82.5 -32.5z" />
<glyph unicode="i" horiz-adv-x="243" d="M187 523l-74 -523h-56l74 523h56zM152.5 680q-10.5 10 -10.5 27q0 19 13 32t32 13q17 0 27 -10.5t10 -26.5q0 -19 -12.5 -32t-31.5 -13q-17 0 -27.5 10z" />
<glyph unicode="j" horiz-adv-x="244" d="M-58 -161q37 18 59 37t36.5 51t22.5 88l71 508h56l-72 -511q-9 -66 -28 -105t-48 -62t-81 -48zM153.5 680q-10.5 10 -10.5 27q0 19 13 32t32 13q17 0 27 -10.5t10 -26.5q0 -19 -12.5 -32t-31.5 -13q-17 0 -27.5 10z" />
<glyph unicode="k" horiz-adv-x="476" d="M168 396q76 138 177 138q50 0 80 -30t30 -78q0 -64 -41 -111.5t-119 -76.5l104 -238h-61l-108 254q85 26 126 67t41 101q0 31 -16 48.5t-48 17.5q-47 0 -92.5 -47.5t-85.5 -135.5l-42 -305h-56l104 736l56 7z" />
<glyph unicode="l" horiz-adv-x="255" d="M119 84q-1 -5 -1 -14q0 -17 7 -24.5t23 -7.5q12 0 34 6l12 -41q-28 -14 -57 -14q-35 0 -54.5 19.5t-19.5 56.5q0 8 2 24l91 647l56 7z" />
<glyph unicode="m" horiz-adv-x="764" d="M667 501q27 -33 27 -90q0 -18 -3 -38l-53 -373h-56l52 370q3 21 3 38q0 78 -58 78q-41 0 -79.5 -44.5t-78.5 -122.5l-46 -319h-56l52 370q3 21 3 39q0 77 -58 77q-42 0 -80.5 -45.5t-78.5 -125.5l-44 -315h-56l74 523h47l-13 -126q73 137 164 137q47 0 74.5 -33.5 t27.5 -94.5q74 128 162 128q47 0 74 -33z" />
<glyph unicode="n" horiz-adv-x="523" d="M423.5 501.5q29.5 -32.5 29.5 -91.5q0 -16 -3 -36l-53 -374h-56l53 372q3 20 3 35q0 79 -66 79q-47 0 -91 -46t-83 -122l-44 -318h-56l74 523h47l-13 -125q80 136 177 136q52 0 81.5 -32.5z" />
<glyph unicode="o" horiz-adv-x="515" d="M94.5 42q-43.5 53 -43.5 147q0 78 25 157.5t80.5 133.5t140.5 54q80 0 123.5 -52.5t43.5 -146.5q0 -77 -25 -157t-80 -134.5t-141 -54.5q-80 0 -123.5 53zM327.5 85.5q41.5 48.5 60 118t18.5 135.5q0 73 -28 110.5t-82 37.5q-67 0 -109 -49t-60 -118t-18 -135 q0 -73 28.5 -110.5t82.5 -37.5q66 0 107.5 48.5z" />
<glyph unicode="p" horiz-adv-x="517" d="M131 523h48l-6 -70q71 81 154 81q67 0 104 -48t37 -137q0 -85 -25 -167t-81.5 -137.5t-144.5 -55.5q-52 0 -103 21l-30 -209l-56 -7zM329 85.5q43 49.5 62.5 121.5t19.5 144q0 136 -95 136q-76 0 -147 -89l-48 -341q24 -11 46 -16t51 -5q68 0 111 49.5z" />
<glyph unicode="q" horiz-adv-x="513" d="M342 75q-27 -39 -63.5 -62.5t-81.5 -23.5q-69 0 -108 51t-39 139q0 83 27 164.5t85 136t145 54.5q41 0 76.5 -10t73.5 -30l-98 -693l-56 -7zM350 144l47 323q-40 21 -90 21q-67 0 -112 -47t-66 -118t-21 -143q0 -71 25.5 -107.5t72.5 -36.5q78 0 144 108z" />
<glyph unicode="r" horiz-adv-x="336" d="M362 527l-17 -53q-22 6 -37 6q-50 0 -85.5 -45t-68.5 -136l-41 -299h-56l74 523h48l-14 -122q28 65 65 99t87 34q17 0 45 -7z" />
<glyph unicode="s" horiz-adv-x="418" d="M389 475l-30 -34q-27 23 -55 34.5t-62 11.5q-50 0 -80.5 -25.5t-30.5 -67.5q0 -34 21.5 -54.5t77.5 -40.5q67 -25 96.5 -59t29.5 -87q0 -75 -52 -119.5t-136 -44.5q-99 0 -167 70l34 33q28 -27 60 -41t74 -14q61 0 95 30t34 82q0 39 -22 62.5t-81 45.5q-67 24 -94 54.5 t-27 79.5q0 39 21 72t59 52t88 19q85 0 147 -59z" />
<glyph unicode="t" horiz-adv-x="309" d="M131 119q-2 -18 -2 -24q0 -58 54 -58q35 0 76 24l19 -40q-50 -32 -102 -32q-48 0 -75.5 27.5t-27.5 77.5q0 7 2 27l50 356h-79l7 46h80l28 127l45 5l-18 -132h119l-13 -46h-113z" />
<glyph unicode="u" horiz-adv-x="519" d="M99.5 21q-29.5 32 -29.5 90q0 22 2 33l54 379h56l-53 -380q-3 -18 -3 -33q0 -74 65 -74q92 0 170 162l45 325h56l-74 -523h-46l14 127q-34 -65 -76.5 -101.5t-97.5 -36.5q-53 0 -82.5 32z" />
<glyph unicode="v" horiz-adv-x="428" d="M449 523l-235 -523h-69l-92 523h59l74 -473l202 473h61z" />
<glyph unicode="w" horiz-adv-x="635" d="M646 523l-187 -523h-74l-36 470l-169 -470h-74l-43 523h55l32 -479l174 479h65l38 -480l165 480h54z" />
<glyph unicode="x" horiz-adv-x="417" d="M423 523l-179 -247l125 -276h-61l-102 243l-169 -243h-63l203 281l-109 242h61l86 -210l144 210h64z" />
<glyph unicode="y" horiz-adv-x="426" d="M216 -4q-28 -64 -57.5 -103t-68.5 -61.5t-99 -35.5l-3 44q49 13 78.5 31t50.5 47t45 82h-22l-87 523h58l72 -481l205 481h59z" />
<glyph unicode="z" horiz-adv-x="379" d="M386 523l-6 -44l-319 -430h257l-13 -49h-318l6 44l319 430h-237l8 49h303z" />
<glyph unicode="{" horiz-adv-x="293" d="M311 784q-42 0 -63 -20t-27 -63l-36 -254q-6 -48 -25 -68t-58 -31q29 -8 43 -23.5t14 -48.5q0 -19 -2 -30l-35 -252q-2 -18 -2 -24q0 -29 16 -42t51 -14l-4 -43q-115 0 -115 98q0 8 2 28l36 257q2 16 2 22q0 27 -14.5 38t-46.5 11l6 48q36 0 55.5 17.5t25.5 56.5l36 259 q9 65 43 93.5t102 28.5z" />
<glyph unicode="|" horiz-adv-x="369" d="M287 804l-127 -904h-52l126 904h53z" />
<glyph unicode="}" horiz-adv-x="293" d="M7 -86q42 0 63 20t27 64l35 254q7 48 26 68.5t58 30.5q-30 8 -43.5 23.5t-13.5 47.5q0 19 2 31l35 252q2 18 2 23q0 30 -16 43t-51 13l4 44q55 0 84.5 -24.5t29.5 -74.5q0 -7 -2 -27l-36 -257q-1 -7 -1 -20q0 -28 14.5 -39.5t46.5 -11.5l-7 -48q-35 0 -54.5 -17.5 t-25.5 -56.5l-36 -259q-9 -65 -43.5 -93.5t-101.5 -28.5z" />
<glyph unicode="~" horiz-adv-x="431" d="M252.5 272q-15.5 8 -39.5 24q-17 13 -30 19.5t-26 6.5q-22 0 -37.5 -12t-34.5 -35l-32 21q24 35 49.5 54.5t59.5 19.5q20 0 35.5 -8t37.5 -23q18 -13 30.5 -19.5t25.5 -6.5q21 0 37 11.5t33 32.5l33 -21q-25 -34 -49.5 -53t-56.5 -19q-20 0 -35.5 8z" />
<glyph unicode="&#xa1;" horiz-adv-x="226" d="M104.5 393q-11.5 12 -11.5 30q0 21 14 35.5t35 14.5q20 0 31 -11.5t11 -29.5q0 -21 -14 -36t-35 -15q-19 0 -30.5 12zM138 249l-58 -446h-59l67 446h50z" />
<glyph unicode="&#xa2;" horiz-adv-x="422" d="M189.5 439.5q-41.5 -46.5 -60.5 -115.5t-19 -138q0 -74 29 -111t82 -37q31 0 58 11t57 33l24 -39q-60 -49 -126 -53l-19 -140h-48l20 141q-64 10 -100 61.5t-36 136.5q0 74 22.5 149t70.5 129t120 65l21 148h47l-21 -146q34 -2 61.5 -15.5t52.5 -38.5l-32 -34 q-21 20 -44 30t-53 10q-65 0 -106.5 -46.5z" />
<glyph unicode="&#xa3;" horiz-adv-x="459" d="M413.5 657q33.5 -19 58.5 -57l-39 -27q-19 29 -42 42t-57 13q-50 0 -82.5 -35t-40.5 -95l-17 -125h190l-6 -41h-190l-22 -164q-7 -49 -24 -74.5t-54 -44.5h295l-15 -49h-357l6 48q47 21 66.5 46t26.5 77l23 161h-59l6 41h59l18 129q11 77 57.5 125.5t119.5 48.5 q46 0 79.5 -19z" />
<glyph unicode="&#xa4;" d="M435 103l-71 77q-43 -34 -106 -34q-60 0 -105 35l-70 -78l-34 32l73 80q-36 52 -36 126q0 72 35 123l-74 82l35 32l71 -78q45 35 105 35q63 0 106 -34l70 77l35 -32l-73 -79q36 -52 36 -126q0 -75 -35 -125l74 -81zM348.5 231q30.5 39 30.5 110t-30.5 110t-89.5 39 t-90 -39t-31 -110t31 -110t90 -39t89.5 39z" />
<glyph unicode="&#xa5;" horiz-adv-x="460" d="M506 665l-219 -327h104l-6 -43h-121l-14 -103h120l-6 -42h-120l-21 -150h-58l21 150h-121l6 42h122l14 103h-121l6 43h105l-129 327h61l114 -315l202 315h61z" />
<glyph unicode="&#xa6;" horiz-adv-x="369" d="M287 804l-51 -361h-52l50 361h53zM211 262l-51 -362h-52l50 362h53z" />
<glyph unicode="&#xa7;" horiz-adv-x="492" d="M231.5 602q-27.5 -27 -27.5 -67q0 -34 20.5 -55t77.5 -45q62 -24 89 -55.5t27 -75.5t-22 -77t-73 -64q39 -34 39 -89q0 -60 -45 -101t-129 -41q-82 0 -146 47l27 38q53 -39 122 -39q58 0 86 27t28 68q0 35 -20 55.5t-75 42.5q-65 26 -93 56t-28 76q0 44 23.5 78.5 t72.5 64.5q-19 18 -28 38.5t-9 47.5q0 63 47 103t120 40q80 0 142 -50l-26 -35q-29 20 -55.5 29.5t-59.5 9.5q-57 0 -84.5 -27zM217 423q-41 -28 -57 -54.5t-16 -61.5q0 -32 19 -53t69 -41q37 -14 60 -28q41 30 56 56.5t15 57.5q0 30 -18.5 52.5t-67.5 42.5q-41 17 -60 29z " />
<glyph unicode="&#xa8;" horiz-adv-x="307" d="M101 673.5q-9 9.5 -9 23.5q0 19 12 31t29 12q15 0 25 -9.5t10 -24.5q0 -18 -12 -30t-30 -12q-16 0 -25 9.5zM272.5 673.5q-9.5 9.5 -9.5 23.5q0 19 12 31t30 12q15 0 24.5 -10t9.5 -24q0 -18 -12 -30t-30 -12q-15 0 -24.5 9.5z" />
<glyph unicode="&#xa9;" horiz-adv-x="729" d="M526 698q61 -37 96 -105t35 -158t-35 -158t-96 -105.5t-137 -37.5t-137 37t-96.5 105.5t-35.5 158.5q0 89 35.5 157.5t96.5 105.5t137 37t137 -37zM272 665q-52 -32 -81 -91.5t-29 -138.5q0 -80 29 -139.5t81 -91t118 -31.5q65 0 116 32t80.5 91.5t29.5 138.5 q0 80 -29.5 139.5t-80.5 91t-116 31.5q-66 0 -118 -32zM441 606.5q22 -8.5 42 -25.5l-23 -31q-32 24 -68 24t-61.5 -33t-25.5 -105q0 -71 23.5 -104.5t64.5 -33.5q23 0 40 7t34 21l22 -32q-43 -39 -98 -39q-61 0 -98 47t-37 134q0 88 39 133.5t96 45.5q28 0 50 -8.5z" />
<glyph unicode="&#xaa;" horiz-adv-x="457" d="M116.5 303.5q-28.5 29.5 -28.5 77.5q0 62 44 101t132 39h68l4 33q2 18 2 24q0 32 -16.5 46.5t-51.5 14.5q-46 0 -104 -21l-13 41q67 26 126 26q56 0 85 -26.5t29 -77.5q0 -7 -2 -25l-25 -183q-3 -13 -3 -25q0 -25 23 -36l-16 -38q-25 6 -38.5 20.5t-16.5 41.5 q-50 -62 -120 -62q-50 0 -78.5 29.5zM265.5 336q27.5 18 47.5 51l13 94h-62q-63 0 -91.5 -27.5t-28.5 -70.5q0 -30 15.5 -47.5t45.5 -17.5q33 0 60.5 18zM32 0l6 49h321l-7 -49h-320z" />
<glyph unicode="&#xab;" horiz-adv-x="513" d="M247 519l34 -24l-153 -209l94 -206l-37 -23l-118 211l5 39zM447 519l34 -24l-153 -209l94 -206l-37 -23l-118 211l5 39z" />
<glyph unicode="&#xac;" horiz-adv-x="454" d="M402 345l-25 -175h-54l17 126h-271l7 49h326z" />
<glyph unicode="&#xad;" horiz-adv-x="361" d="M64 288l7 50h239l-6 -50h-240z" />
<glyph unicode="&#xae;" horiz-adv-x="575" d="M431 706q50 -30 78.5 -84t28.5 -124q0 -69 -28.5 -124t-78.5 -86t-111 -31q-60 0 -109.5 30t-78.5 84.5t-29 123.5t29 124t78.5 86t109.5 31q61 0 111 -30zM412.5 318.5q41.5 25.5 65 72t23.5 107.5t-23.5 107t-64.5 71t-93 25q-50 0 -91 -26t-64.5 -72.5t-23.5 -107.5 t23.5 -106.5t64.5 -70.5t91 -25q51 0 92.5 25.5zM354 482l66 -118h-46l-58 112h-32v-112h-39v272h62q103 0 103 -80q0 -58 -56 -74zM284 509h34q53 0 53 47q0 46 -57 46h-30v-93z" />
<glyph unicode="&#xaf;" horiz-adv-x="278" d="M306 676h-218l7 46h218z" />
<glyph unicode="&#xb0;" horiz-adv-x="466" d="M135 429q-33 33 -33 92q0 49 20.5 89t56.5 63t78 23q51 0 84 -33t33 -92q0 -49 -20.5 -89t-56 -63t-77.5 -23q-52 0 -85 33zM297 476q29 37 29 95q0 40 -18.5 61t-52.5 21q-47 0 -75.5 -37t-28.5 -95q0 -40 18.5 -61t51.5 -21q47 0 76 37z" />
<glyph unicode="&#xb1;" horiz-adv-x="450" d="M29 0l6 49h321l-7 -49h-320zM288 518l-21 -153h133l-6 -49h-135l-21 -152h-53l22 152h-134l6 49h135l22 153h52z" />
<glyph unicode="&#xb2;" horiz-adv-x="362" d="M314 714q27 -28 27 -72q0 -42 -23 -82.5t-59.5 -78t-105.5 -99.5l-18 -16h179l-13 -43h-227l5 42l32 30q69 65 103 100.5t56 72.5t22 73q0 29 -15 44.5t-42 15.5q-25 0 -47 -12t-43 -34l-30 27q56 60 125 60q47 0 74 -28z" />
<glyph unicode="&#xb3;" horiz-adv-x="362" d="M317.5 719q26.5 -25 26.5 -66q0 -44 -25.5 -73t-68.5 -38q34 -2 54.5 -23.5t20.5 -58.5q0 -63 -41.5 -104t-105.5 -41q-72 0 -111 58l32 23q31 -40 79 -40q46 0 72.5 30.5t26.5 75.5q0 59 -70 59h-29l12 39h18q39 0 63.5 26.5t24.5 64.5q0 26 -15 39.5t-42 13.5 q-25 0 -46.5 -8.5t-45.5 -27.5l-23 29q56 47 119 47q48 0 74.5 -25z" />
<glyph unicode="&#xb4;" horiz-adv-x="256" d="M269 781l23 -51l-188 -85l-17 32z" />
<glyph unicode="&#xb5;" horiz-adv-x="526" d="M405 81q0 -40 7 -82l-52 -7q-9 47 -9 79l1 26q-33 -50 -71 -79t-85 -29q-63 0 -86 52q1 -45 -10 -122l-16 -116l-56 -6l103 726h55l-52 -375q-2 -11 -2 -30q0 -43 19.5 -62t51.5 -19q41 0 79.5 31t71.5 91l52 364h55l-49 -348q-7 -50 -7 -94z" />
<glyph unicode="&#xb6;" horiz-adv-x="638" d="M567 685l-124 -882l-52 -9l117 843h-114l-116 -834l-53 -9l71 501q-90 4 -132 47t-42 113q0 106 64.5 168t173.5 62h207z" />
<glyph unicode="&#xb7;" horiz-adv-x="195" d="M71.5 284q-11.5 12 -11.5 30q0 21 14 35.5t35 14.5q20 0 31 -11.5t11 -29.5q0 -21 -14 -36t-35 -15q-19 0 -30.5 12z" />
<glyph unicode="&#xb8;" horiz-adv-x="230" d="M68 -65q38 -4 56.5 -22t18.5 -49q0 -40 -29 -65.5t-76 -25.5q-42 0 -73 23l20 33q24 -15 53 -15q24 0 40 12.5t16 35.5t-16 32.5t-57 9.5l24 112h37z" />
<glyph unicode="&#xb9;" horiz-adv-x="362" d="M297 737l-59 -414h-47l50 360l-98 -59l-19 34l131 79h42z" />
<glyph unicode="&#xba;" horiz-adv-x="453" d="M388 643.5q36 -41.5 36 -116.5q0 -63 -22 -121t-65.5 -95t-106.5 -37q-67 0 -103.5 41.5t-36.5 116.5q0 63 22 121t66 95t107 37q67 0 103 -41.5zM205.5 608.5q-31.5 -31.5 -45.5 -79.5t-14 -99q0 -55 22 -83t63 -28q47 0 78 32t45 80.5t14 99.5q0 54 -21.5 81.5 t-62.5 27.5q-47 0 -78.5 -31.5zM30 0l6 49h321l-7 -49h-320z" />
<glyph unicode="&#xbb;" horiz-adv-x="513" d="M135 519l119 -212l-5 -39l-176 -211l-33 23l153 209l-95 207zM335 519l119 -212l-5 -39l-176 -211l-33 23l153 209l-95 207z" />
<glyph unicode="&#xbc;" horiz-adv-x="827" d="M290 685l-59 -414h-47l50 360l-98 -59l-19 34l131 79h42zM641 747l35 -19l-476 -799l-37 20zM762 145l-6 -42h-49l-15 -103h-46l14 103h-169l5 37l155 281l39 -16l-143 -260h120l21 115h41l-16 -115h49z" />
<glyph unicode="&#xbd;" horiz-adv-x="827" d="M290 685l-59 -414h-47l50 360l-98 -59l-19 34l131 79h42zM641 747l35 -19l-476 -799l-37 20zM734 391q27 -28 27 -72q0 -42 -23 -82.5t-59.5 -78t-105.5 -99.5l-18 -16h179l-13 -43h-227l5 42l32 30q69 65 103 100.5t56 72.5t22 73q0 29 -15 44.5t-42 15.5q-25 0 -47 -12 t-43 -34l-30 27q56 60 125 60q47 0 74 -28z" />
<glyph unicode="&#xbe;" horiz-adv-x="827" d="M310.5 667q26.5 -25 26.5 -66q0 -44 -25.5 -73t-68.5 -38q34 -2 54.5 -23.5t20.5 -58.5q0 -63 -41.5 -104t-105.5 -41q-72 0 -111 58l32 23q31 -40 79 -40q46 0 72.5 30.5t26.5 75.5q0 59 -70 59h-29l12 39h18q39 0 63.5 26.5t24.5 64.5q0 26 -15 39.5t-42 13.5 q-25 0 -46.5 -8.5t-45.5 -27.5l-23 29q56 47 119 47q48 0 74.5 -25zM641 747l35 -19l-476 -799l-37 20zM762 145l-6 -42h-49l-15 -103h-46l14 103h-169l5 37l155 281l39 -16l-143 -260h120l21 115h41l-16 -115h49z" />
<glyph unicode="&#xbf;" horiz-adv-x="408" d="M271.5 493q11.5 -12 11.5 -30q0 -21 -14 -35.5t-35 -14.5q-20 0 -31 11.5t-11 29.5q0 21 14 36t35 15q19 0 30.5 -12zM30 -170.5q-37 35.5 -37 91.5q0 43 16 74t39.5 51t61.5 46q34 23 53 39t32 39t13 53q0 22 -5 40l51 10q8 -26 8 -53q0 -38 -15 -66t-36 -46.5 t-58 -43.5q-35 -24 -54.5 -41t-33.5 -42t-14 -59q0 -39 23 -60t64 -21q39 0 74 19t70 57l35 -33q-43 -46 -87 -68t-96 -22q-67 0 -104 35.5z" />
<glyph unicode="&#xc0;" horiz-adv-x="514" d="M400 0l-27 188h-254l-79 -188h-60l300 685h73l107 -685h-60zM140 237h226l-57 400zM274 883l156 -93l-20 -32l-165 75z" />
<glyph unicode="&#xc1;" horiz-adv-x="514" d="M400 0l-27 188h-254l-79 -188h-60l300 685h73l107 -685h-60zM140 237h226l-57 400zM409 884l22 -51l-188 -75l-15 32z" />
<glyph unicode="&#xc2;" horiz-adv-x="514" d="M400 0l-27 188h-254l-79 -188h-60l300 685h73l107 -685h-60zM140 237h226l-57 400zM215 762l-24 29l132 102h34l102 -103l-26 -28l-97 80z" />
<glyph unicode="&#xc3;" horiz-adv-x="514" d="M400 0l-27 188h-254l-79 -188h-60l300 685h73l107 -685h-60zM140 237h226l-57 400zM357 800q-14 7 -29 19q-13 10 -22.5 14.5t-19.5 4.5q-16 0 -27.5 -9.5t-28.5 -31.5l-31 21q42 65 88 65q17 0 30 -6.5t29 -18.5q15 -11 23.5 -15.5t19.5 -4.5q14 0 27 10t29 33l32 -19 q-39 -69 -88 -69q-18 0 -32 7z" />
<glyph unicode="&#xc4;" horiz-adv-x="514" d="M400 0l-27 188h-254l-79 -188h-60l300 685h73l107 -685h-60zM140 237h226l-57 400zM222 799.5q-9 9.5 -9 23.5q0 19 12 31t29 12q15 0 25 -9.5t10 -24.5q0 -18 -12 -30t-30 -12q-16 0 -25 9.5zM393.5 799.5q-9.5 9.5 -9.5 23.5q0 19 12 31t30 12q15 0 24.5 -10t9.5 -24 q0 -18 -12 -30t-30 -12q-15 0 -24.5 9.5z" />
<glyph unicode="&#xc5;" horiz-adv-x="514" d="M400 0l-27 188h-254l-79 -188h-60l300 685h73l107 -685h-60zM140 237h226l-57 400zM408.5 923q22.5 -23 22.5 -59q0 -46 -29 -75.5t-72 -29.5q-36 0 -58.5 23t-22.5 59q0 46 29 75.5t72 29.5q36 0 58.5 -23zM305.5 891.5q-15.5 -19.5 -15.5 -49.5q0 -23 11 -35.5 t31 -12.5q27 0 42.5 20t15.5 50q0 23 -11 35t-31 12q-27 0 -42.5 -19.5z" />
<glyph unicode="&#xc6;" horiz-adv-x="708" d="M670 636h-288l22 -257h231l-7 -49h-219l24 -281h205l-8 -49h-248l-15 184h-253l-88 -184h-60l336 685h382zM137 233h226l-33 405z" />
<glyph unicode="&#xc7;" horiz-adv-x="498" d="M232 584q-57 -62 -83 -154.5t-26 -184.5q0 -102 40.5 -153.5t108.5 -51.5q43 0 75.5 14.5t68.5 42.5l28 -39q-77 -64 -162 -69l-9 -54q38 -4 56.5 -22t18.5 -49q0 -40 -29 -65.5t-76 -25.5q-42 0 -73 23l20 33q24 -15 53 -15q24 0 40 12.5t16 35.5t-16 32.5t-57 9.5 l18 86q-84 8 -132.5 75t-48.5 182q0 105 33 208.5t103 172t175 68.5q50 0 85.5 -16t67.5 -48l-35 -34q-28 25 -55 36.5t-62 11.5q-86 0 -143 -62z" />
<glyph unicode="&#xc8;" horiz-adv-x="458" d="M472 685l-14 -49h-250l-35 -257h216l-7 -48h-216l-40 -282h263l-8 -49h-320l96 685h315zM276 883l156 -93l-20 -32l-165 75z" />
<glyph unicode="&#xc9;" horiz-adv-x="458" d="M472 685l-14 -49h-250l-35 -257h216l-7 -48h-216l-40 -282h263l-8 -49h-320l96 685h315zM411 884l22 -51l-188 -75l-15 32z" />
<glyph unicode="&#xca;" horiz-adv-x="458" d="M472 685l-14 -49h-250l-35 -257h216l-7 -48h-216l-40 -282h263l-8 -49h-320l96 685h315zM217 762l-24 29l132 102h34l102 -103l-26 -28l-97 80z" />
<glyph unicode="&#xcb;" horiz-adv-x="458" d="M472 685l-14 -49h-250l-35 -257h216l-7 -48h-216l-40 -282h263l-8 -49h-320l96 685h315zM224 799.5q-9 9.5 -9 23.5q0 19 12 31t29 12q15 0 25 -9.5t10 -24.5q0 -18 -12 -30t-30 -12q-16 0 -25 9.5zM395.5 799.5q-9.5 9.5 -9.5 23.5q0 19 12 31t30 12q15 0 24.5 -10 t9.5 -24q0 -18 -12 -30t-30 -12q-15 0 -24.5 9.5z" />
<glyph unicode="&#xcc;" horiz-adv-x="254" d="M215 685l-96 -685h-58l96 685h58zM145 883l156 -93l-20 -32l-165 75z" />
<glyph unicode="&#xcd;" horiz-adv-x="254" d="M215 685l-96 -685h-58l96 685h58zM280 884l22 -51l-188 -75l-15 32z" />
<glyph unicode="&#xce;" horiz-adv-x="254" d="M215 685l-96 -685h-58l96 685h58zM86 762l-24 29l132 102h34l102 -103l-26 -28l-97 80z" />
<glyph unicode="&#xcf;" horiz-adv-x="254" d="M215 685l-96 -685h-58l96 685h58zM93 799.5q-9 9.5 -9 23.5q0 19 12 31t29 12q15 0 25 -9.5t10 -24.5q0 -18 -12 -30t-30 -12q-16 0 -25 9.5zM264.5 799.5q-9.5 9.5 -9.5 23.5q0 19 12 31t30 12q15 0 24.5 -10t9.5 -24q0 -18 -12 -30t-30 -12q-15 0 -24.5 9.5z" />
<glyph unicode="&#xd0;" horiz-adv-x="582" d="M474.5 631q67.5 -54 67.5 -188q0 -119 -34.5 -219t-110.5 -162t-195 -62h-136l46 330h-78l6 46h79l43 309h133q112 0 179.5 -54zM369 106.5q61 57.5 87.5 147t26.5 190.5q0 110 -50 151t-135 41h-85l-36 -260h157l-7 -46h-157l-39 -281h80q97 0 158 57.5z" />
<glyph unicode="&#xd1;" horiz-adv-x="603" d="M468 0h-75l-198 632q-5 -93 -26 -248l-53 -384h-55l96 685h76l199 -631q3 88 20 214l58 417h55zM410 800q-14 7 -29 19q-13 10 -22.5 14.5t-19.5 4.5q-16 0 -27.5 -9.5t-28.5 -31.5l-31 21q42 65 88 65q17 0 30 -6.5t29 -18.5q15 -11 23.5 -15.5t19.5 -4.5q14 0 27 10 t29 33l32 -19q-39 -69 -88 -69q-18 0 -32 7z" />
<glyph unicode="&#xd2;" horiz-adv-x="624" d="M528 630q55 -66 55 -190q0 -104 -31.5 -207.5t-102 -173.5t-178.5 -70q-97 0 -152.5 67t-55.5 190q0 101 32.5 204.5t103 174.5t177.5 71q97 0 152 -66zM229 582q-56 -65 -81 -157.5t-25 -180.5q0 -102 39.5 -153.5t110.5 -51.5q91 0 147 65t79.5 158t23.5 181 q0 102 -38.5 153t-111.5 51q-88 0 -144 -65zM335 883l156 -93l-20 -32l-165 75z" />
<glyph unicode="&#xd3;" horiz-adv-x="624" d="M528 630q55 -66 55 -190q0 -104 -31.5 -207.5t-102 -173.5t-178.5 -70q-97 0 -152.5 67t-55.5 190q0 101 32.5 204.5t103 174.5t177.5 71q97 0 152 -66zM229 582q-56 -65 -81 -157.5t-25 -180.5q0 -102 39.5 -153.5t110.5 -51.5q91 0 147 65t79.5 158t23.5 181 q0 102 -38.5 153t-111.5 51q-88 0 -144 -65zM470 884l22 -51l-188 -75l-15 32z" />
<glyph unicode="&#xd4;" horiz-adv-x="624" d="M528 630q55 -66 55 -190q0 -104 -31.5 -207.5t-102 -173.5t-178.5 -70q-97 0 -152.5 67t-55.5 190q0 101 32.5 204.5t103 174.5t177.5 71q97 0 152 -66zM229 582q-56 -65 -81 -157.5t-25 -180.5q0 -102 39.5 -153.5t110.5 -51.5q91 0 147 65t79.5 158t23.5 181 q0 102 -38.5 153t-111.5 51q-88 0 -144 -65zM276 762l-24 29l132 102h34l102 -103l-26 -28l-97 80z" />
<glyph unicode="&#xd5;" horiz-adv-x="624" d="M528 630q55 -66 55 -190q0 -104 -31.5 -207.5t-102 -173.5t-178.5 -70q-97 0 -152.5 67t-55.5 190q0 101 32.5 204.5t103 174.5t177.5 71q97 0 152 -66zM229 582q-56 -65 -81 -157.5t-25 -180.5q0 -102 39.5 -153.5t110.5 -51.5q91 0 147 65t79.5 158t23.5 181 q0 102 -38.5 153t-111.5 51q-88 0 -144 -65zM418 800q-14 7 -29 19q-13 10 -22.5 14.5t-19.5 4.5q-16 0 -27.5 -9.5t-28.5 -31.5l-31 21q42 65 88 65q17 0 30 -6.5t29 -18.5q15 -11 23.5 -15.5t19.5 -4.5q14 0 27 10t29 33l32 -19q-39 -69 -88 -69q-18 0 -32 7z" />
<glyph unicode="&#xd6;" horiz-adv-x="624" d="M528 630q55 -66 55 -190q0 -104 -31.5 -207.5t-102 -173.5t-178.5 -70q-97 0 -152.5 67t-55.5 190q0 101 32.5 204.5t103 174.5t177.5 71q97 0 152 -66zM229 582q-56 -65 -81 -157.5t-25 -180.5q0 -102 39.5 -153.5t110.5 -51.5q91 0 147 65t79.5 158t23.5 181 q0 102 -38.5 153t-111.5 51q-88 0 -144 -65zM283 799.5q-9 9.5 -9 23.5q0 19 12 31t29 12q15 0 25 -9.5t10 -24.5q0 -18 -12 -30t-30 -12q-16 0 -25 9.5zM454.5 799.5q-9.5 9.5 -9.5 23.5q0 19 12 31t30 12q15 0 24.5 -10t9.5 -24q0 -18 -12 -30t-30 -12q-15 0 -24.5 9.5z " />
<glyph unicode="&#xd7;" horiz-adv-x="450" d="M364 470l33 -34l-131 -129l99 -130l-40 -32l-97 127l-129 -127l-33 34l131 128l-99 131l41 32l95 -129z" />
<glyph unicode="&#xd8;" horiz-adv-x="624" d="M557 581q26 -58 26 -141q0 -104 -31.5 -207.5t-102 -173.5t-178.5 -70q-35 0 -63 9l-47 -118l-47 15l50 122q-48 29 -74.5 87.5t-26.5 141.5q0 101 32.5 204.5t103 174.5t177.5 71q34 0 64 -9l48 123l48 -14l-53 -128q48 -29 74 -87zM191 62l233 578q-21 7 -51 7 q-88 0 -144 -65t-81 -158t-25 -182q0 -134 68 -180zM420 104.5q56 65.5 79.5 158.5t23.5 183q0 133 -66 178l-233 -578q21 -7 49 -7q91 0 147 65.5z" />
<glyph unicode="&#xd9;" horiz-adv-x="583" d="M485 192q-13 -90 -73 -146.5t-157 -56.5q-88 0 -133.5 46.5t-45.5 122.5q0 19 3 38l69 489h57l-68 -489q-3 -19 -3 -36q0 -57 30.5 -88.5t93.5 -31.5q74 0 117 44t53 116l68 485h58zM309 883l156 -93l-20 -32l-165 75z" />
<glyph unicode="&#xda;" horiz-adv-x="583" d="M485 192q-13 -90 -73 -146.5t-157 -56.5q-88 0 -133.5 46.5t-45.5 122.5q0 19 3 38l69 489h57l-68 -489q-3 -19 -3 -36q0 -57 30.5 -88.5t93.5 -31.5q74 0 117 44t53 116l68 485h58zM444 884l22 -51l-188 -75l-15 32z" />
<glyph unicode="&#xdb;" horiz-adv-x="583" d="M485 192q-13 -90 -73 -146.5t-157 -56.5q-88 0 -133.5 46.5t-45.5 122.5q0 19 3 38l69 489h57l-68 -489q-3 -19 -3 -36q0 -57 30.5 -88.5t93.5 -31.5q74 0 117 44t53 116l68 485h58zM250 762l-24 29l132 102h34l102 -103l-26 -28l-97 80z" />
<glyph unicode="&#xdc;" horiz-adv-x="583" d="M485 192q-13 -90 -73 -146.5t-157 -56.5q-88 0 -133.5 46.5t-45.5 122.5q0 19 3 38l69 489h57l-68 -489q-3 -19 -3 -36q0 -57 30.5 -88.5t93.5 -31.5q74 0 117 44t53 116l68 485h58zM257 799.5q-9 9.5 -9 23.5q0 19 12 31t29 12q15 0 25 -9.5t10 -24.5q0 -18 -12 -30 t-30 -12q-16 0 -25 9.5zM428.5 799.5q-9.5 9.5 -9.5 23.5q0 19 12 31t30 12q15 0 24.5 -10t9.5 -24q0 -18 -12 -30t-30 -12q-15 0 -24.5 9.5z" />
<glyph unicode="&#xdd;" horiz-adv-x="471" d="M519 685l-253 -417l-38 -268h-59l38 267l-136 418h60l111 -364l213 364h64zM386 884l22 -51l-188 -75l-15 32z" />
<glyph unicode="&#xde;" horiz-adv-x="509" d="M436.5 519q52.5 -43 52.5 -131q0 -66 -25.5 -122.5t-84.5 -92.5t-156 -36h-85l-19 -137h-58l96 685h58l-17 -123h87q99 0 151.5 -43zM383 243q46 58 46 144q0 68 -37 97.5t-112 29.5h-89l-46 -329h82q110 0 156 58z" />
<glyph unicode="&#xdf;" horiz-adv-x="523" d="M-58 -161q38 19 59.5 37.5t36 51t22.5 87.5l74 527q13 97 65.5 149t131.5 52q60 0 96.5 -33t36.5 -84q0 -48 -20.5 -76.5t-57.5 -58.5q-28 -22 -41 -38t-13 -39q0 -20 12 -36t38 -39q27 -24 44.5 -44t30 -51t12.5 -72q0 -42 -19 -84.5t-58.5 -70.5t-95.5 -28 q-29 0 -56 8.5t-45 19.5l22 40q37 -20 75 -20q41 0 68 21t39.5 52t12.5 60q0 46 -19 75.5t-55 63.5q-30 27 -45 48.5t-15 51.5q0 33 16 55t47 47q33 26 50.5 50.5t17.5 63.5q0 34 -21.5 53t-58.5 19q-54 0 -91 -40.5t-49 -120.5l-74 -524q-9 -67 -28 -105.5t-48 -61.5 t-81 -48z" />
<glyph unicode="&#xe0;" horiz-adv-x="511" d="M383 524q35 -10 71 -30l-54 -380q-4 -30 -4 -38q0 -18 6.5 -29t21.5 -18l-18 -40q-31 9 -46.5 29.5t-14.5 61.5q-64 -91 -148 -91q-69 0 -108 51t-39 139q0 83 27 164.5t84.5 136t144.5 54.5q42 0 77 -10zM194.5 441q-44.5 -47 -65.5 -118t-21 -143q0 -71 25 -107.5 t73 -36.5q41 0 75.5 27.5t66.5 79.5l46 324q-39 21 -88 21q-67 0 -111.5 -47zM285 780l155 -103l-20 -32l-165 85z" />
<glyph unicode="&#xe1;" horiz-adv-x="511" d="M383 524q35 -10 71 -30l-54 -380q-4 -30 -4 -38q0 -18 6.5 -29t21.5 -18l-18 -40q-31 9 -46.5 29.5t-14.5 61.5q-64 -91 -148 -91q-69 0 -108 51t-39 139q0 83 27 164.5t84.5 136t144.5 54.5q42 0 77 -10zM194.5 441q-44.5 -47 -65.5 -118t-21 -143q0 -71 25 -107.5 t73 -36.5q41 0 75.5 27.5t66.5 79.5l46 324q-39 21 -88 21q-67 0 -111.5 -47zM417 781l23 -51l-188 -85l-17 32z" />
<glyph unicode="&#xe2;" horiz-adv-x="511" d="M383 524q35 -10 71 -30l-54 -380q-4 -30 -4 -38q0 -18 6.5 -29t21.5 -18l-18 -40q-31 9 -46.5 29.5t-14.5 61.5q-64 -91 -148 -91q-69 0 -108 51t-39 139q0 83 27 164.5t84.5 136t144.5 54.5q42 0 77 -10zM194.5 441q-44.5 -47 -65.5 -118t-21 -143q0 -71 25 -107.5 t73 -36.5q41 0 75.5 27.5t66.5 79.5l46 324q-39 21 -88 21q-67 0 -111.5 -47zM222 644l-25 29l132 106h35l102 -107l-28 -28l-96 84z" />
<glyph unicode="&#xe3;" horiz-adv-x="511" d="M383 524q35 -10 71 -30l-54 -380q-4 -30 -4 -38q0 -18 6.5 -29t21.5 -18l-18 -40q-31 9 -46.5 29.5t-14.5 61.5q-64 -91 -148 -91q-69 0 -108 51t-39 139q0 83 27 164.5t84.5 136t144.5 54.5q42 0 77 -10zM194.5 441q-44.5 -47 -65.5 -118t-21 -143q0 -71 25 -107.5 t73 -36.5q41 0 75.5 27.5t66.5 79.5l46 324q-39 21 -88 21q-67 0 -111.5 -47zM358 674q-14 7 -29 19q-13 10 -22.5 14.5t-19.5 4.5q-16 0 -27.5 -9.5t-28.5 -31.5l-31 21q42 65 88 65q17 0 30 -6.5t29 -18.5q15 -11 23.5 -15.5t19.5 -4.5q14 0 27 10t29 33l32 -19 q-39 -69 -88 -69q-18 0 -32 7z" />
<glyph unicode="&#xe4;" horiz-adv-x="511" d="M383 524q35 -10 71 -30l-54 -380q-4 -30 -4 -38q0 -18 6.5 -29t21.5 -18l-18 -40q-31 9 -46.5 29.5t-14.5 61.5q-64 -91 -148 -91q-69 0 -108 51t-39 139q0 83 27 164.5t84.5 136t144.5 54.5q42 0 77 -10zM194.5 441q-44.5 -47 -65.5 -118t-21 -143q0 -71 25 -107.5 t73 -36.5q41 0 75.5 27.5t66.5 79.5l46 324q-39 21 -88 21q-67 0 -111.5 -47zM223 673.5q-9 9.5 -9 23.5q0 19 12 31t29 12q15 0 25 -9.5t10 -24.5q0 -18 -12 -30t-30 -12q-16 0 -25 9.5zM394.5 673.5q-9.5 9.5 -9.5 23.5q0 19 12 31t30 12q15 0 24.5 -10t9.5 -24 q0 -18 -12 -30t-30 -12q-15 0 -24.5 9.5z" />
<glyph unicode="&#xe5;" horiz-adv-x="511" d="M383 524q35 -10 71 -30l-54 -380q-4 -30 -4 -38q0 -18 6.5 -29t21.5 -18l-18 -40q-31 9 -46.5 29.5t-14.5 61.5q-64 -91 -148 -91q-69 0 -108 51t-39 139q0 83 27 164.5t84.5 136t144.5 54.5q42 0 77 -10zM194.5 441q-44.5 -47 -65.5 -118t-21 -143q0 -71 25 -107.5 t73 -36.5q41 0 75.5 27.5t66.5 79.5l46 324q-39 21 -88 21q-67 0 -111.5 -47zM408.5 797q22.5 -23 22.5 -59q0 -46 -29 -75.5t-72 -29.5q-36 0 -58.5 23t-22.5 59q0 46 29 75.5t72 29.5q36 0 58.5 -23zM305.5 765.5q-15.5 -19.5 -15.5 -49.5q0 -23 11 -35.5t31 -12.5 q27 0 42.5 20t15.5 50q0 23 -11 35t-31 12q-27 0 -42.5 -19.5z" />
<glyph unicode="&#xe6;" horiz-adv-x="743" d="M399 436q28 43 74 70.5t103 27.5q66 0 103 -34.5t37 -88.5q0 -96 -87.5 -143.5t-245.5 -60.5q-2 -82 27 -125.5t87 -43.5q36 0 67 12.5t66 38.5l26 -38q-39 -31 -78.5 -46.5t-84.5 -15.5q-55 0 -93.5 25.5t-56.5 74.5q-43 -54 -87 -77t-93 -23q-64 0 -100 36.5t-36 97.5 q0 77 53.5 128.5t167.5 51.5h92q9 43 24 79q-5 48 -34 76t-77 28q-32 0 -61.5 -7t-67.5 -22l-12 44q83 33 147 33q109 0 140 -98zM446.5 418.5q-46.5 -68.5 -59.5 -167.5q138 12 205 49t67 109q0 35 -21.5 56.5t-63.5 21.5q-81 0 -127.5 -68.5zM252 262q-85 0 -125 -37 t-40 -102q0 -42 22 -65t61 -23q43 0 81 24t79 78q-4 19 -4 51q0 34 6 74h-80z" />
<glyph unicode="&#xe7;" horiz-adv-x="422" d="M189.5 439.5q-41.5 -46.5 -60.5 -115.5t-19 -138q0 -74 29 -111t82 -37q31 0 58 11t57 33l24 -39q-62 -51 -134 -54l-9 -54q38 -4 56.5 -22t18.5 -49q0 -40 -29 -65.5t-76 -25.5q-42 0 -73 23l20 33q24 -15 53 -15q24 0 40 12.5t16 35.5t-16 32.5t-57 9.5l19 87 q-65 9 -101.5 60.5t-36.5 137.5q0 80 26 159.5t81.5 132.5t138.5 53q39 0 70 -13t58 -41l-32 -34q-21 20 -44 30t-53 10q-65 0 -106.5 -46.5z" />
<glyph unicode="&#xe8;" horiz-adv-x="467" d="M354.5 267.5q-87.5 -47.5 -245.5 -61.5v-18q0 -77 30 -113.5t83 -36.5q36 0 67 12.5t67 38.5l25 -38q-39 -31 -78.5 -46.5t-84.5 -15.5q-80 0 -123.5 52t-43.5 146q0 84 27.5 164t84 131.5t139.5 51.5q66 0 103 -34.5t37 -88.5q0 -96 -87.5 -143.5zM172.5 418 q-46.5 -69 -59.5 -167q137 12 204 49t67 109q0 35 -21 56.5t-64 21.5q-80 0 -126.5 -69zM265 780l155 -103l-20 -32l-165 85z" />
<glyph unicode="&#xe9;" horiz-adv-x="467" d="M354.5 267.5q-87.5 -47.5 -245.5 -61.5v-18q0 -77 30 -113.5t83 -36.5q36 0 67 12.5t67 38.5l25 -38q-39 -31 -78.5 -46.5t-84.5 -15.5q-80 0 -123.5 52t-43.5 146q0 84 27.5 164t84 131.5t139.5 51.5q66 0 103 -34.5t37 -88.5q0 -96 -87.5 -143.5zM172.5 418 q-46.5 -69 -59.5 -167q137 12 204 49t67 109q0 35 -21 56.5t-64 21.5q-80 0 -126.5 -69zM397 781l23 -51l-188 -85l-17 32z" />
<glyph unicode="&#xea;" horiz-adv-x="467" d="M354.5 267.5q-87.5 -47.5 -245.5 -61.5v-18q0 -77 30 -113.5t83 -36.5q36 0 67 12.5t67 38.5l25 -38q-39 -31 -78.5 -46.5t-84.5 -15.5q-80 0 -123.5 52t-43.5 146q0 84 27.5 164t84 131.5t139.5 51.5q66 0 103 -34.5t37 -88.5q0 -96 -87.5 -143.5zM172.5 418 q-46.5 -69 -59.5 -167q137 12 204 49t67 109q0 35 -21 56.5t-64 21.5q-80 0 -126.5 -69zM202 644l-25 29l132 106h35l102 -107l-28 -28l-96 84z" />
<glyph unicode="&#xeb;" horiz-adv-x="467" d="M354.5 267.5q-87.5 -47.5 -245.5 -61.5v-18q0 -77 30 -113.5t83 -36.5q36 0 67 12.5t67 38.5l25 -38q-39 -31 -78.5 -46.5t-84.5 -15.5q-80 0 -123.5 52t-43.5 146q0 84 27.5 164t84 131.5t139.5 51.5q66 0 103 -34.5t37 -88.5q0 -96 -87.5 -143.5zM172.5 418 q-46.5 -69 -59.5 -167q137 12 204 49t67 109q0 35 -21 56.5t-64 21.5q-80 0 -126.5 -69zM203 673.5q-9 9.5 -9 23.5q0 19 12 31t29 12q15 0 25 -9.5t10 -24.5q0 -18 -12 -30t-30 -12q-16 0 -25 9.5zM374.5 673.5q-9.5 9.5 -9.5 23.5q0 19 12 31t30 12q15 0 24.5 -10t9.5 -24 q0 -18 -12 -30t-30 -12q-15 0 -24.5 9.5z" />
<glyph unicode="&#xec;" horiz-adv-x="243" d="M187 523l-74 -523h-56l74 523h56zM131 780l155 -103l-20 -32l-165 85z" />
<glyph unicode="&#xed;" horiz-adv-x="243" d="M187 523l-74 -523h-56l74 523h56zM263 781l23 -51l-188 -85l-17 32z" />
<glyph unicode="&#xee;" horiz-adv-x="243" d="M187 523l-74 -523h-56l74 523h56zM68 644l-25 29l132 106h35l102 -107l-28 -28l-96 84z" />
<glyph unicode="&#xef;" horiz-adv-x="243" d="M187 523l-74 -523h-56l74 523h56zM69 673.5q-9 9.5 -9 23.5q0 19 12 31t29 12q15 0 25 -9.5t10 -24.5q0 -18 -12 -30t-30 -12q-16 0 -25 9.5zM240.5 673.5q-9.5 9.5 -9.5 23.5q0 19 12 31t30 12q15 0 24.5 -10t9.5 -24q0 -18 -12 -30t-30 -12q-15 0 -24.5 9.5z" />
<glyph unicode="&#xf0;" horiz-adv-x="514" d="M429.5 553q24.5 -62 24.5 -150q0 -107 -26.5 -201.5t-82 -153.5t-136.5 -59q-76 0 -118.5 49t-42.5 136q0 71 24 138.5t73 111.5t118 44q85 0 136 -75q1 81 -17.5 135t-62.5 100l-80 -75l-38 18l86 84q-48 33 -101 45l16 43q66 -16 119 -54l77 72l28 -30l-72 -69 q51 -47 75.5 -109zM336 120.5q45 84.5 59 209.5q-45 91 -126 91q-57 0 -94 -37t-53.5 -93.5t-16.5 -117.5q0 -67 27 -102t78 -35q81 0 126 84.5z" />
<glyph unicode="&#xf1;" horiz-adv-x="523" d="M423.5 501.5q29.5 -32.5 29.5 -91.5q0 -16 -3 -36l-53 -374h-56l53 372q3 20 3 35q0 79 -66 79q-47 0 -91 -46t-83 -122l-44 -318h-56l74 523h47l-13 -125q80 136 177 136q52 0 81.5 -32.5zM345 674q-14 7 -29 19q-13 10 -22.5 14.5t-19.5 4.5q-16 0 -27.5 -9.5 t-28.5 -31.5l-31 21q42 65 88 65q17 0 30 -6.5t29 -18.5q15 -11 23.5 -15.5t19.5 -4.5q14 0 27 10t29 33l32 -19q-39 -69 -88 -69q-18 0 -32 7z" />
<glyph unicode="&#xf2;" horiz-adv-x="515" d="M94.5 42q-43.5 53 -43.5 147q0 78 25 157.5t80.5 133.5t140.5 54q80 0 123.5 -52.5t43.5 -146.5q0 -77 -25 -157t-80 -134.5t-141 -54.5q-80 0 -123.5 53zM327.5 85.5q41.5 48.5 60 118t18.5 135.5q0 73 -28 110.5t-82 37.5q-67 0 -109 -49t-60 -118t-18 -135 q0 -73 28.5 -110.5t82.5 -37.5q66 0 107.5 48.5zM270 780l155 -103l-20 -32l-165 85z" />
<glyph unicode="&#xf3;" horiz-adv-x="515" d="M94.5 42q-43.5 53 -43.5 147q0 78 25 157.5t80.5 133.5t140.5 54q80 0 123.5 -52.5t43.5 -146.5q0 -77 -25 -157t-80 -134.5t-141 -54.5q-80 0 -123.5 53zM327.5 85.5q41.5 48.5 60 118t18.5 135.5q0 73 -28 110.5t-82 37.5q-67 0 -109 -49t-60 -118t-18 -135 q0 -73 28.5 -110.5t82.5 -37.5q66 0 107.5 48.5zM402 781l23 -51l-188 -85l-17 32z" />
<glyph unicode="&#xf4;" horiz-adv-x="515" d="M94.5 42q-43.5 53 -43.5 147q0 78 25 157.5t80.5 133.5t140.5 54q80 0 123.5 -52.5t43.5 -146.5q0 -77 -25 -157t-80 -134.5t-141 -54.5q-80 0 -123.5 53zM327.5 85.5q41.5 48.5 60 118t18.5 135.5q0 73 -28 110.5t-82 37.5q-67 0 -109 -49t-60 -118t-18 -135 q0 -73 28.5 -110.5t82.5 -37.5q66 0 107.5 48.5zM207 644l-25 29l132 106h35l102 -107l-28 -28l-96 84z" />
<glyph unicode="&#xf5;" horiz-adv-x="515" d="M94.5 42q-43.5 53 -43.5 147q0 78 25 157.5t80.5 133.5t140.5 54q80 0 123.5 -52.5t43.5 -146.5q0 -77 -25 -157t-80 -134.5t-141 -54.5q-80 0 -123.5 53zM327.5 85.5q41.5 48.5 60 118t18.5 135.5q0 73 -28 110.5t-82 37.5q-67 0 -109 -49t-60 -118t-18 -135 q0 -73 28.5 -110.5t82.5 -37.5q66 0 107.5 48.5zM343 674q-14 7 -29 19q-13 10 -22.5 14.5t-19.5 4.5q-16 0 -27.5 -9.5t-28.5 -31.5l-31 21q42 65 88 65q17 0 30 -6.5t29 -18.5q15 -11 23.5 -15.5t19.5 -4.5q14 0 27 10t29 33l32 -19q-39 -69 -88 -69q-18 0 -32 7z" />
<glyph unicode="&#xf6;" horiz-adv-x="515" d="M94.5 42q-43.5 53 -43.5 147q0 78 25 157.5t80.5 133.5t140.5 54q80 0 123.5 -52.5t43.5 -146.5q0 -77 -25 -157t-80 -134.5t-141 -54.5q-80 0 -123.5 53zM327.5 85.5q41.5 48.5 60 118t18.5 135.5q0 73 -28 110.5t-82 37.5q-67 0 -109 -49t-60 -118t-18 -135 q0 -73 28.5 -110.5t82.5 -37.5q66 0 107.5 48.5zM208 673.5q-9 9.5 -9 23.5q0 19 12 31t29 12q15 0 25 -9.5t10 -24.5q0 -18 -12 -30t-30 -12q-16 0 -25 9.5zM379.5 673.5q-9.5 9.5 -9.5 23.5q0 19 12 31t30 12q15 0 24.5 -10t9.5 -24q0 -18 -12 -30t-30 -12 q-15 0 -24.5 9.5z" />
<glyph unicode="&#xf7;" horiz-adv-x="449" d="M171.5 78q-11.5 12 -11.5 30q0 21 14 35.5t35 14.5q20 0 31 -11.5t11 -29.5q0 -21 -14 -36t-35 -15q-19 0 -30.5 12zM232.5 515q-11.5 12 -11.5 30q0 21 14 35.5t35 14.5q20 0 31 -11.5t11 -29.5q0 -21 -14 -36t-35 -15q-19 0 -30.5 12zM71 307l6 49h321l-7 -49h-320z " />
<glyph unicode="&#xf8;" horiz-adv-x="515" d="M446 438q18 -44 18 -103q0 -77 -25 -157t-80 -134.5t-141 -54.5q-30 0 -52 7l-53 -121l-44 14l55 127q-35 24 -54 68.5t-19 104.5q0 78 25 157.5t80.5 133.5t140.5 54q26 0 54 -7l52 121l45 -14l-55 -127q35 -25 53 -69zM187 438q-42 -49 -60 -118t-18 -135 q0 -93 42 -127l184 423q-18 6 -39 6q-67 0 -109 -49zM327.5 85.5q41.5 48.5 60 118t18.5 135.5q0 90 -40 125l-183 -422q18 -5 37 -5q66 0 107.5 48.5z" />
<glyph unicode="&#xf9;" horiz-adv-x="519" d="M99.5 21q-29.5 32 -29.5 90q0 22 2 33l54 379h56l-53 -380q-3 -18 -3 -33q0 -74 65 -74q92 0 170 162l45 325h56l-74 -523h-46l14 127q-34 -65 -76.5 -101.5t-97.5 -36.5q-53 0 -82.5 32zM267 780l155 -103l-20 -32l-165 85z" />
<glyph unicode="&#xfa;" horiz-adv-x="519" d="M99.5 21q-29.5 32 -29.5 90q0 22 2 33l54 379h56l-53 -380q-3 -18 -3 -33q0 -74 65 -74q92 0 170 162l45 325h56l-74 -523h-46l14 127q-34 -65 -76.5 -101.5t-97.5 -36.5q-53 0 -82.5 32zM399 781l23 -51l-188 -85l-17 32z" />
<glyph unicode="&#xfb;" horiz-adv-x="519" d="M99.5 21q-29.5 32 -29.5 90q0 22 2 33l54 379h56l-53 -380q-3 -18 -3 -33q0 -74 65 -74q92 0 170 162l45 325h56l-74 -523h-46l14 127q-34 -65 -76.5 -101.5t-97.5 -36.5q-53 0 -82.5 32zM204 644l-25 29l132 106h35l102 -107l-28 -28l-96 84z" />
<glyph unicode="&#xfc;" horiz-adv-x="519" d="M99.5 21q-29.5 32 -29.5 90q0 22 2 33l54 379h56l-53 -380q-3 -18 -3 -33q0 -74 65 -74q92 0 170 162l45 325h56l-74 -523h-46l14 127q-34 -65 -76.5 -101.5t-97.5 -36.5q-53 0 -82.5 32zM205 673.5q-9 9.5 -9 23.5q0 19 12 31t29 12q15 0 25 -9.5t10 -24.5 q0 -18 -12 -30t-30 -12q-16 0 -25 9.5zM376.5 673.5q-9.5 9.5 -9.5 23.5q0 19 12 31t30 12q15 0 24.5 -10t9.5 -24q0 -18 -12 -30t-30 -12q-15 0 -24.5 9.5z" />
<glyph unicode="&#xfd;" horiz-adv-x="426" d="M216 -4q-28 -64 -57.5 -103t-68.5 -61.5t-99 -35.5l-3 44q49 13 78.5 31t50.5 47t45 82h-22l-87 523h58l72 -481l205 481h59zM351 781l23 -51l-188 -85l-17 32z" />
<glyph unicode="&#xfe;" horiz-adv-x="518" d="M431.5 486q36.5 -48 36.5 -137q0 -85 -25 -167.5t-81.5 -137.5t-144.5 -55q-53 0 -103 22l-29 -210l-58 -8l134 943l56 7l-40 -287q71 78 151 78q67 0 103.5 -48zM330.5 86.5q43.5 50.5 62 124t18.5 145.5q0 66 -24.5 98.5t-70.5 32.5q-40 0 -76 -23.5t-71 -65.5 l-48 -341q26 -11 48 -16t50 -5q68 0 111.5 50.5z" />
<glyph unicode="&#xff;" horiz-adv-x="426" d="M216 -4q-28 -64 -57.5 -103t-68.5 -61.5t-99 -35.5l-3 44q49 13 78.5 31t50.5 47t45 82h-22l-87 523h58l72 -481l205 481h59zM157 673.5q-9 9.5 -9 23.5q0 19 12 31t29 12q15 0 25 -9.5t10 -24.5q0 -18 -12 -30t-30 -12q-16 0 -25 9.5zM328.5 673.5q-9.5 9.5 -9.5 23.5 q0 19 12 31t30 12q15 0 24.5 -10t9.5 -24q0 -18 -12 -30t-30 -12q-15 0 -24.5 9.5z" />
<glyph unicode="&#x100;" horiz-adv-x="514" d="M400 0l-27 188h-254l-79 -188h-60l300 685h73l107 -685h-60zM140 237h226l-57 400zM441 802h-218l7 46h218z" />
<glyph unicode="&#x101;" horiz-adv-x="511" d="M383 524q35 -10 71 -30l-54 -380q-4 -30 -4 -38q0 -18 6.5 -29t21.5 -18l-18 -40q-31 9 -46.5 29.5t-14.5 61.5q-64 -91 -148 -91q-69 0 -108 51t-39 139q0 83 27 164.5t84.5 136t144.5 54.5q42 0 77 -10zM194.5 441q-44.5 -47 -65.5 -118t-21 -143q0 -71 25 -107.5 t73 -36.5q41 0 75.5 27.5t66.5 79.5l46 324q-39 21 -88 21q-67 0 -111.5 -47zM442 676h-218l7 46h218z" />
<glyph unicode="&#x102;" horiz-adv-x="514" d="M400 0l-27 188h-254l-79 -188h-60l300 685h73l107 -685h-60zM140 237h226l-57 400zM248 793.5q-29 28.5 -28 72.5l36 5q12 -60 71 -60q32 0 55 17t36 46l38 -12q-12 -43 -47.5 -70t-82.5 -27q-49 0 -78 28.5z" />
<glyph unicode="&#x103;" horiz-adv-x="511" d="M383 524q35 -10 71 -30l-54 -380q-4 -30 -4 -38q0 -18 6.5 -29t21.5 -18l-18 -40q-31 9 -46.5 29.5t-14.5 61.5q-64 -91 -148 -91q-69 0 -108 51t-39 139q0 83 27 164.5t84.5 136t144.5 54.5q42 0 77 -10zM194.5 441q-44.5 -47 -65.5 -118t-21 -143q0 -71 25 -107.5 t73 -36.5q41 0 75.5 27.5t66.5 79.5l46 324q-39 21 -88 21q-67 0 -111.5 -47zM251.5 684q-28.5 31 -27.5 81l39 5q4 -35 20 -52.5t47 -17.5q32 0 56.5 19t37.5 54l37 -12q-13 -50 -48.5 -79t-83.5 -29q-49 0 -77.5 31z" />
<glyph unicode="&#x104;" horiz-adv-x="514" d="M345 -61.5q-29 -29.5 -29 -65.5q0 -21 12.5 -32t36.5 -11q22 0 53 6l-11 -47q-27 -6 -50 -6q-43 0 -67.5 22.5t-24.5 60.5q0 46 31 81t102 65l-25 176h-254l-79 -188h-60l300 685h73l107 -685h-16q-70 -32 -99 -61.5zM140 237h226l-57 400z" />
<glyph unicode="&#x105;" horiz-adv-x="511" d="M396 76q0 -18 6.5 -29t21.5 -18l-17 -39v-1q-70 -32 -99 -61.5t-29 -65.5q0 -21 12.5 -32t36.5 -11q21 0 53 6l-11 -47q-27 -6 -50 -6q-43 0 -67.5 22.5t-24.5 60.5q0 48 33 83.5t111 66.5q-28 22 -27 75q-64 -91 -148 -91q-69 0 -108 51t-39 139q0 83 27 164.5t84.5 136 t144.5 54.5q42 0 77 -10t71 -30l-54 -380q-4 -30 -4 -38zM394 467q-39 21 -88 21q-67 0 -111.5 -47t-65.5 -118t-21 -143q0 -71 25 -107.5t73 -36.5q41 0 75.5 27.5t66.5 79.5z" />
<glyph unicode="&#x106;" horiz-adv-x="498" d="M459.5 680q35.5 -16 67.5 -48l-35 -34q-28 25 -55 36.5t-62 11.5q-86 0 -143 -62t-83 -154.5t-26 -184.5q0 -102 40.5 -153.5t108.5 -51.5q43 0 75.5 14.5t68.5 42.5l28 -39q-82 -69 -176 -69t-149.5 67.5t-55.5 190.5q0 105 33 208.5t103 172t175 68.5q50 0 85.5 -16z M466 884l22 -51l-188 -75l-15 32z" />
<glyph unicode="&#x107;" horiz-adv-x="422" d="M367 521q31 -13 58 -41l-32 -34q-21 20 -44 30t-53 10q-65 0 -106.5 -46.5t-60.5 -115.5t-19 -138q0 -74 29 -111t82 -37q31 0 58 11t57 33l24 -39q-66 -54 -143 -54t-121.5 52.5t-44.5 147.5q0 80 26 159.5t81.5 132.5t138.5 53q39 0 70 -13zM401 781l23 -51l-188 -85 l-17 32z" />
<glyph unicode="&#x108;" horiz-adv-x="498" d="M459.5 680q35.5 -16 67.5 -48l-35 -34q-28 25 -55 36.5t-62 11.5q-86 0 -143 -62t-83 -154.5t-26 -184.5q0 -102 40.5 -153.5t108.5 -51.5q43 0 75.5 14.5t68.5 42.5l28 -39q-82 -69 -176 -69t-149.5 67.5t-55.5 190.5q0 105 33 208.5t103 172t175 68.5q50 0 85.5 -16z M272 762l-24 29l132 102h34l102 -103l-26 -28l-97 80z" />
<glyph unicode="&#x109;" horiz-adv-x="422" d="M367 521q31 -13 58 -41l-32 -34q-21 20 -44 30t-53 10q-65 0 -106.5 -46.5t-60.5 -115.5t-19 -138q0 -74 29 -111t82 -37q31 0 58 11t57 33l24 -39q-66 -54 -143 -54t-121.5 52.5t-44.5 147.5q0 80 26 159.5t81.5 132.5t138.5 53q39 0 70 -13zM206 644l-25 29l132 106h35 l102 -107l-28 -28l-96 84z" />
<glyph unicode="&#x10a;" horiz-adv-x="498" d="M459.5 680q35.5 -16 67.5 -48l-35 -34q-28 25 -55 36.5t-62 11.5q-86 0 -143 -62t-83 -154.5t-26 -184.5q0 -102 40.5 -153.5t108.5 -51.5q43 0 75.5 14.5t68.5 42.5l28 -39q-82 -69 -176 -69t-149.5 67.5t-55.5 190.5q0 105 33 208.5t103 172t175 68.5q50 0 85.5 -16z M363.5 806q-10.5 10 -10.5 27q0 19 13 32t32 13q17 0 27 -10.5t10 -26.5q0 -19 -12.5 -32t-31.5 -13q-17 0 -27.5 10z" />
<glyph unicode="&#x10b;" horiz-adv-x="422" d="M367 521q31 -13 58 -41l-32 -34q-21 20 -44 30t-53 10q-65 0 -106.5 -46.5t-60.5 -115.5t-19 -138q0 -74 29 -111t82 -37q31 0 58 11t57 33l24 -39q-66 -54 -143 -54t-121.5 52.5t-44.5 147.5q0 80 26 159.5t81.5 132.5t138.5 53q39 0 70 -13zM290.5 680 q-10.5 10 -10.5 27q0 19 13 32t32 13q17 0 27 -10.5t10 -26.5q0 -19 -12.5 -32t-31.5 -13q-17 0 -27.5 10z" />
<glyph unicode="&#x10c;" horiz-adv-x="498" d="M459.5 680q35.5 -16 67.5 -48l-35 -34q-28 25 -55 36.5t-62 11.5q-86 0 -143 -62t-83 -154.5t-26 -184.5q0 -102 40.5 -153.5t108.5 -51.5q43 0 75.5 14.5t68.5 42.5l28 -39q-82 -69 -176 -69t-149.5 67.5t-55.5 190.5q0 105 33 208.5t103 172t175 68.5q50 0 85.5 -16z M508 886l24 -28l-131 -102h-35l-102 103l26 27l98 -79z" />
<glyph unicode="&#x10d;" horiz-adv-x="422" d="M367 521q31 -13 58 -41l-32 -34q-21 20 -44 30t-53 10q-65 0 -106.5 -46.5t-60.5 -115.5t-19 -138q0 -74 29 -111t82 -37q31 0 58 11t57 33l24 -39q-66 -54 -143 -54t-121.5 52.5t-44.5 147.5q0 80 26 159.5t81.5 132.5t138.5 53q39 0 70 -13zM435 767l23 -28l-131 -106 h-35l-102 106l27 28l96 -83z" />
<glyph unicode="&#x10e;" horiz-adv-x="577" d="M469.5 631q67.5 -54 67.5 -188q0 -119 -34.5 -219t-110.5 -162t-195 -62h-136l96 685h133q112 0 179.5 -54zM208 636l-82 -587h80q97 0 158 57.5t87.5 147t26.5 190.5q0 110 -50 151t-135 41h-85zM476 886l24 -28l-131 -102h-35l-102 103l26 27l98 -79z" />
<glyph unicode="&#x10f;" horiz-adv-x="535" d="M496 736l-104 -736h-48l8 104q-65 -115 -160 -115q-67 0 -104.5 51.5t-37.5 141.5q0 80 25 161.5t77 136t129 54.5q80 0 121 -70l38 279zM186 439q-40 -48 -59 -119t-19 -140q0 -70 24.5 -107t69.5 -37q47 0 84 37t76 108l32 228q-17 37 -42.5 57.5t-65.5 20.5 q-60 0 -100 -48zM575 742l52 -7l-57 -162l-33 5z" />
<glyph unicode="&#x110;" horiz-adv-x="582" d="M474.5 631q67.5 -54 67.5 -188q0 -119 -34.5 -219t-110.5 -162t-195 -62h-136l46 330h-78l6 46h79l43 309h133q112 0 179.5 -54zM369 106.5q61 57.5 87.5 147t26.5 190.5q0 110 -50 151t-135 41h-85l-36 -260h157l-7 -46h-157l-39 -281h80q97 0 158 57.5z" />
<glyph unicode="&#x111;" horiz-adv-x="530" d="M547 617h-68l-87 -617h-48l8 104q-65 -115 -160 -115q-67 0 -104.5 51.5t-37.5 141.5q0 80 25 161.5t77 136t129 54.5q80 0 121 -70l21 153h-142l1 45h147l11 81l56 -7l-10 -74h68zM394 409q-17 37 -42.5 57.5t-65.5 20.5q-60 0 -100 -48t-59 -119t-19 -140 q0 -70 24.5 -107t69.5 -37q47 0 84 37t76 108z" />
<glyph unicode="&#x112;" horiz-adv-x="458" d="M472 685l-14 -49h-250l-35 -257h216l-7 -48h-216l-40 -282h263l-8 -49h-320l96 685h315zM443 802h-218l7 46h218z" />
<glyph unicode="&#x113;" horiz-adv-x="467" d="M354.5 267.5q-87.5 -47.5 -245.5 -61.5v-18q0 -77 30 -113.5t83 -36.5q36 0 67 12.5t67 38.5l25 -38q-39 -31 -78.5 -46.5t-84.5 -15.5q-80 0 -123.5 52t-43.5 146q0 84 27.5 164t84 131.5t139.5 51.5q66 0 103 -34.5t37 -88.5q0 -96 -87.5 -143.5zM172.5 418 q-46.5 -69 -59.5 -167q137 12 204 49t67 109q0 35 -21 56.5t-64 21.5q-80 0 -126.5 -69zM422 676h-218l7 46h218z" />
<glyph unicode="&#x114;" horiz-adv-x="458" d="M472 685l-14 -49h-250l-35 -257h216l-7 -48h-216l-40 -282h263l-8 -49h-320l96 685h315zM250 793.5q-29 28.5 -28 72.5l36 5q12 -60 71 -60q32 0 55 17t36 46l38 -12q-12 -43 -47.5 -70t-82.5 -27q-49 0 -78 28.5z" />
<glyph unicode="&#x115;" horiz-adv-x="467" d="M354.5 267.5q-87.5 -47.5 -245.5 -61.5v-18q0 -77 30 -113.5t83 -36.5q36 0 67 12.5t67 38.5l25 -38q-39 -31 -78.5 -46.5t-84.5 -15.5q-80 0 -123.5 52t-43.5 146q0 84 27.5 164t84 131.5t139.5 51.5q66 0 103 -34.5t37 -88.5q0 -96 -87.5 -143.5zM172.5 418 q-46.5 -69 -59.5 -167q137 12 204 49t67 109q0 35 -21 56.5t-64 21.5q-80 0 -126.5 -69zM231.5 684q-28.5 31 -27.5 81l39 5q4 -35 20 -52.5t47 -17.5q32 0 56.5 19t37.5 54l37 -12q-13 -50 -48.5 -79t-83.5 -29q-49 0 -77.5 31z" />
<glyph unicode="&#x116;" horiz-adv-x="458" d="M472 685l-14 -49h-250l-35 -257h216l-7 -48h-216l-40 -282h263l-8 -49h-320l96 685h315zM308.5 806q-10.5 10 -10.5 27q0 19 13 32t32 13q17 0 27 -10.5t10 -26.5q0 -19 -12.5 -32t-31.5 -13q-17 0 -27.5 10z" />
<glyph unicode="&#x117;" horiz-adv-x="467" d="M354.5 267.5q-87.5 -47.5 -245.5 -61.5v-18q0 -77 30 -113.5t83 -36.5q36 0 67 12.5t67 38.5l25 -38q-39 -31 -78.5 -46.5t-84.5 -15.5q-80 0 -123.5 52t-43.5 146q0 84 27.5 164t84 131.5t139.5 51.5q66 0 103 -34.5t37 -88.5q0 -96 -87.5 -143.5zM172.5 418 q-46.5 -69 -59.5 -167q137 12 204 49t67 109q0 35 -21 56.5t-64 21.5q-80 0 -126.5 -69zM286.5 680q-10.5 10 -10.5 27q0 19 13 32t32 13q17 0 27 -10.5t10 -26.5q0 -19 -12.5 -32t-31.5 -13q-17 0 -27.5 10z" />
<glyph unicode="&#x118;" horiz-adv-x="458" d="M208 636l-35 -257h216l-7 -48h-216l-40 -282h263l-8 -49h-27q-70 -32 -99 -61.5t-29 -65.5q0 -21 12.5 -32t36.5 -11q22 0 53 6l-11 -47q-27 -6 -50 -6q-43 0 -67.5 22.5t-24.5 60.5q0 42 25 74t82 60h-221l96 685h315l-14 -49h-250z" />
<glyph unicode="&#x119;" horiz-adv-x="467" d="M354.5 267.5q-87.5 -47.5 -245.5 -61.5v-18q0 -77 30 -113.5t83 -36.5q36 0 67 12.5t67 38.5l25 -38q-42 -33 -86 -49q-58 -30 -82 -55.5t-24 -60.5q0 -24 14.5 -37.5t42.5 -13.5q21 0 51 6l-6 -47q-27 -6 -53 -6q-48 0 -74 25t-26 64q0 69 79 112q-79 0 -122.5 52 t-43.5 146q0 84 27.5 164t84 131.5t139.5 51.5q66 0 103 -34.5t37 -88.5q0 -96 -87.5 -143.5zM172.5 418q-46.5 -69 -59.5 -167q137 12 204 49t67 109q0 35 -21 56.5t-64 21.5q-80 0 -126.5 -69z" />
<glyph unicode="&#x11a;" horiz-adv-x="458" d="M472 685l-14 -49h-250l-35 -257h216l-7 -48h-216l-40 -282h263l-8 -49h-320l96 685h315zM453 886l24 -28l-131 -102h-35l-102 103l26 27l98 -79z" />
<glyph unicode="&#x11b;" horiz-adv-x="467" d="M354.5 267.5q-87.5 -47.5 -245.5 -61.5v-18q0 -77 30 -113.5t83 -36.5q36 0 67 12.5t67 38.5l25 -38q-39 -31 -78.5 -46.5t-84.5 -15.5q-80 0 -123.5 52t-43.5 146q0 84 27.5 164t84 131.5t139.5 51.5q66 0 103 -34.5t37 -88.5q0 -96 -87.5 -143.5zM172.5 418 q-46.5 -69 -59.5 -167q137 12 204 49t67 109q0 35 -21 56.5t-64 21.5q-80 0 -126.5 -69zM431 767l23 -28l-131 -106h-35l-102 106l27 28l96 -83z" />
<glyph unicode="&#x11c;" horiz-adv-x="558" d="M471.5 679q39.5 -17 73.5 -52l-37 -33q-29 28 -59 40t-70 12q-84 0 -141.5 -59t-86 -152.5t-28.5 -196.5q0 -100 40 -149.5t115 -49.5q68 0 135 36l34 244h-117v50h182l-45 -322q-92 -58 -194 -58q-99 0 -154.5 65t-55.5 189q0 114 36 218t108 169.5t173 65.5 q52 0 91.5 -17zM279 762l-24 29l132 102h34l102 -103l-26 -28l-97 80z" />
<glyph unicode="&#x11d;" horiz-adv-x="513" d="M385.5 524q35.5 -10 71.5 -30l-71 -494q-30 -206 -203 -206q-42 0 -82.5 13t-72.5 35l23 41q66 -41 131 -41q127 0 149 158l12 87q-63 -87 -144 -87q-69 0 -108.5 50.5t-39.5 138.5q0 81 27 160.5t85 132t145 52.5q42 0 77.5 -10zM196.5 442.5q-44.5 -45.5 -66 -114 t-21.5 -138.5t25.5 -106.5t73.5 -36.5q76 0 143 107l46 313q-40 21 -89 21q-67 0 -111.5 -45.5zM213 644l-25 29l132 106h35l102 -107l-28 -28l-96 84z" />
<glyph unicode="&#x11e;" horiz-adv-x="558" d="M471.5 679q39.5 -17 73.5 -52l-37 -33q-29 28 -59 40t-70 12q-84 0 -141.5 -59t-86 -152.5t-28.5 -196.5q0 -100 40 -149.5t115 -49.5q68 0 135 36l34 244h-117v50h182l-45 -322q-92 -58 -194 -58q-99 0 -154.5 65t-55.5 189q0 114 36 218t108 169.5t173 65.5 q52 0 91.5 -17zM312 793.5q-29 28.5 -28 72.5l36 5q12 -60 71 -60q32 0 55 17t36 46l38 -12q-12 -43 -47.5 -70t-82.5 -27q-49 0 -78 28.5z" />
<glyph unicode="&#x11f;" horiz-adv-x="513" d="M385.5 524q35.5 -10 71.5 -30l-71 -494q-30 -206 -203 -206q-42 0 -82.5 13t-72.5 35l23 41q66 -41 131 -41q127 0 149 158l12 87q-63 -87 -144 -87q-69 0 -108.5 50.5t-39.5 138.5q0 81 27 160.5t85 132t145 52.5q42 0 77.5 -10zM196.5 442.5q-44.5 -45.5 -66 -114 t-21.5 -138.5t25.5 -106.5t73.5 -36.5q76 0 143 107l46 313q-40 21 -89 21q-67 0 -111.5 -45.5zM242.5 684q-28.5 31 -27.5 81l39 5q4 -35 20 -52.5t47 -17.5q32 0 56.5 19t37.5 54l37 -12q-13 -50 -48.5 -79t-83.5 -29q-49 0 -77.5 31z" />
<glyph unicode="&#x120;" horiz-adv-x="558" d="M471.5 679q39.5 -17 73.5 -52l-37 -33q-29 28 -59 40t-70 12q-84 0 -141.5 -59t-86 -152.5t-28.5 -196.5q0 -100 40 -149.5t115 -49.5q68 0 135 36l34 244h-117v50h182l-45 -322q-92 -58 -194 -58q-99 0 -154.5 65t-55.5 189q0 114 36 218t108 169.5t173 65.5 q52 0 91.5 -17zM370.5 806q-10.5 10 -10.5 27q0 19 13 32t32 13q17 0 27 -10.5t10 -26.5q0 -19 -12.5 -32t-31.5 -13q-17 0 -27.5 10z" />
<glyph unicode="&#x121;" horiz-adv-x="513" d="M385.5 524q35.5 -10 71.5 -30l-71 -494q-30 -206 -203 -206q-42 0 -82.5 13t-72.5 35l23 41q66 -41 131 -41q127 0 149 158l12 87q-63 -87 -144 -87q-69 0 -108.5 50.5t-39.5 138.5q0 81 27 160.5t85 132t145 52.5q42 0 77.5 -10zM196.5 442.5q-44.5 -45.5 -66 -114 t-21.5 -138.5t25.5 -106.5t73.5 -36.5q76 0 143 107l46 313q-40 21 -89 21q-67 0 -111.5 -45.5zM297.5 680q-10.5 10 -10.5 27q0 19 13 32t32 13q17 0 27 -10.5t10 -26.5q0 -19 -12.5 -32t-31.5 -13q-17 0 -27.5 10z" />
<glyph unicode="&#x122;" horiz-adv-x="558" d="M471.5 679q39.5 -17 73.5 -52l-37 -33q-29 28 -59 40t-70 12q-84 0 -141.5 -59t-86 -152.5t-28.5 -196.5q0 -100 40 -149.5t115 -49.5q68 0 135 36l34 244h-117v50h182l-45 -322q-92 -58 -194 -58q-99 0 -154.5 65t-55.5 189q0 114 36 218t108 169.5t173 65.5 q52 0 91.5 -17zM285.5 -96q10.5 -11 10.5 -27q0 -14 -5.5 -27t-21.5 -40l-51 -88h-34l46 115q-17 12 -17 33q0 19 12.5 32t31.5 13q18 0 28.5 -11z" />
<glyph unicode="&#x123;" horiz-adv-x="513" d="M385.5 524q35.5 -10 71.5 -30l-71 -494q-30 -206 -203 -206q-42 0 -82.5 13t-72.5 35l23 41q66 -41 131 -41q127 0 149 158l12 87q-63 -87 -144 -87q-69 0 -108.5 50.5t-39.5 138.5q0 81 27 160.5t85 132t145 52.5q42 0 77.5 -10zM196.5 442.5q-44.5 -45.5 -66 -114 t-21.5 -138.5t25.5 -106.5t73.5 -36.5q76 0 143 107l46 313q-40 21 -89 21q-67 0 -111.5 -45.5zM285.5 600q-10.5 11 -10.5 27q0 14 5.5 27t21.5 40l51 88h34l-46 -115q17 -12 17 -33q0 -19 -12.5 -32t-31.5 -13q-18 0 -28.5 11z" />
<glyph unicode="&#x124;" horiz-adv-x="601" d="M119 0h-58l96 685h58l-42 -300h290l42 300h58l-97 -685h-58l48 336h-290zM258 762l-24 29l132 102h34l102 -103l-26 -28l-97 80z" />
<glyph unicode="&#x125;" horiz-adv-x="523" d="M423.5 501.5q29.5 -32.5 29.5 -90.5q0 -16 -3 -36l-53 -375h-56l53 372q3 20 3 35q0 79 -66 79q-47 0 -91 -46t-83 -122l-44 -318h-56l104 736l56 7l-48 -342q74 133 172 133q53 0 82.5 -32.5zM230 813l-24 29l132 102h34l102 -103l-26 -28l-97 80z" />
<glyph unicode="&#x126;" horiz-adv-x="601" d="M602 557l-6 -43h-56l-73 -514h-58l48 336h-290l-47 -336h-58l72 514h-58l6 43h58l18 128h58l-18 -128h290l18 128h58l-18 -128h56zM464 385l18 129h-290l-18 -129h290z" />
<glyph unicode="&#x127;" horiz-adv-x="529" d="M429.5 501.5q29.5 -32.5 29.5 -90.5q0 -16 -3 -36l-53 -375h-56l53 372q3 20 3 35q0 79 -66 79q-47 0 -91 -46t-83 -122l-44 -318h-56l87 617h-68l7 45h68l10 74l56 7l-11 -81h151l-14 -45h-144l-30 -216q74 133 172 133q53 0 82.5 -32.5z" />
<glyph unicode="&#x128;" horiz-adv-x="254" d="M215 685l-96 -685h-58l96 685h58zM228 800q-14 7 -29 19q-13 10 -22.5 14.5t-19.5 4.5q-16 0 -27.5 -9.5t-28.5 -31.5l-31 21q42 65 88 65q17 0 30 -6.5t29 -18.5q15 -11 23.5 -15.5t19.5 -4.5q14 0 27 10t29 33l32 -19q-39 -69 -88 -69q-18 0 -32 7z" />
<glyph unicode="&#x129;" horiz-adv-x="243" d="M187 523l-74 -523h-56l74 523h56zM204 674q-14 7 -29 19q-13 10 -22.5 14.5t-19.5 4.5q-16 0 -27.5 -9.5t-28.5 -31.5l-31 21q42 65 88 65q17 0 30 -6.5t29 -18.5q15 -11 23.5 -15.5t19.5 -4.5q14 0 27 10t29 33l32 -19q-39 -69 -88 -69q-18 0 -32 7z" />
<glyph unicode="&#x12a;" horiz-adv-x="254" d="M215 685l-96 -685h-58l96 685h58zM312 802h-218l7 46h218z" />
<glyph unicode="&#x12b;" horiz-adv-x="243" d="M187 523l-74 -523h-56l74 523h56zM288 676h-218l7 46h218z" />
<glyph unicode="&#x12c;" horiz-adv-x="254" d="M215 685l-96 -685h-58l96 685h58zM119 793.5q-29 28.5 -28 72.5l36 5q12 -60 71 -60q32 0 55 17t36 46l38 -12q-12 -43 -47.5 -70t-82.5 -27q-49 0 -78 28.5z" />
<glyph unicode="&#x12d;" horiz-adv-x="243" d="M187 523l-74 -523h-56l74 523h56zM97.5 684q-28.5 31 -27.5 81l39 5q4 -35 20 -52.5t47 -17.5q32 0 56.5 19t37.5 54l37 -12q-13 -50 -48.5 -79t-83.5 -29q-49 0 -77.5 31z" />
<glyph unicode="&#x12e;" horiz-adv-x="254" d="M215 685l-96 -685h-8q-70 -32 -99 -61.5t-29 -65.5q0 -21 12.5 -32t36.5 -11q22 0 53 6l-11 -47q-27 -6 -50 -6q-43 0 -67.5 22.5t-24.5 60.5q0 45 30 80t100 65l95 674h58z" />
<glyph unicode="&#x12f;" horiz-adv-x="243" d="M214 741.5q10 -10.5 10 -26.5q0 -19 -12.5 -32t-31.5 -13q-17 0 -27.5 10t-10.5 27q0 19 13 32t32 13q17 0 27 -10.5zM131 523h56l-74 -523h-11q-70 -32 -99 -61.5t-29 -65.5q0 -21 12.5 -32t36.5 -11q22 0 53 6l-11 -47q-27 -6 -50 -6q-43 0 -67.5 22.5t-24.5 60.5 q0 46 31.5 81.5t104.5 65.5z" />
<glyph unicode="&#x130;" horiz-adv-x="254" d="M215 685l-96 -685h-58l96 685h58zM177.5 806q-10.5 10 -10.5 27q0 19 13 32t32 13q17 0 27 -10.5t10 -26.5q0 -19 -12.5 -32t-31.5 -13q-17 0 -27.5 10z" />
<glyph unicode="&#x131;" horiz-adv-x="243" d="M187 523l-74 -523h-56l74 523h56z" />
<glyph unicode="&#x132;" horiz-adv-x="519" d="M215 685l-96 -685h-58l96 685h58zM401 89q-8 -61 -27.5 -98.5t-52.5 -61.5t-90 -48l-13 43q45 22 69.5 43t37 50.5t19.5 77.5l83 590h58z" />
<glyph unicode="&#x133;" horiz-adv-x="487" d="M187 523l-74 -523h-56l74 523h56zM152.5 680q-10.5 10 -10.5 27q0 19 13 32t32 13q17 0 27 -10.5t10 -26.5q0 -19 -12.5 -32t-31.5 -13q-17 0 -27.5 10zM185 -161q37 18 59 37t36.5 51t22.5 88l71 508h56l-72 -511q-9 -66 -28 -105t-48 -62t-81 -48zM397.5 680 q-10.5 10 -10.5 27q0 19 13 32t32 13q17 0 27 -10.5t10 -26.5q0 -19 -12.5 -32t-31.5 -13q-17 0 -27.5 10z" />
<glyph unicode="&#x134;" horiz-adv-x="265" d="M147 89q-8 -61 -27.5 -98.5t-52.5 -61.5t-90 -48l-13 43q45 22 69.5 43t37 50.5t19.5 77.5l83 590h58zM100 762l-24 29l132 102h34l102 -103l-26 -28l-97 80z" />
<glyph unicode="&#x135;" horiz-adv-x="244" d="M-58 -161q37 18 59 37t36.5 51t22.5 88l71 508h56l-72 -511q-9 -66 -28 -105t-48 -62t-81 -48zM69 644l-25 29l132 106h35l102 -107l-28 -28l-96 84z" />
<glyph unicode="&#x136;" horiz-adv-x="498" d="M61 0l96 685h58l-96 -685h-58zM391 0l-217 367l298 318h67l-300 -320l218 -365h-66zM256.5 -96q10.5 -11 10.5 -27q0 -14 -5.5 -27t-21.5 -40l-51 -88h-34l46 115q-17 12 -17 33q0 19 12.5 32t31.5 13q18 0 28.5 -11z" />
<glyph unicode="&#x137;" horiz-adv-x="476" d="M168 396q76 138 177 138q50 0 80 -30t30 -78q0 -64 -41 -111.5t-119 -76.5l104 -238h-61l-108 254q85 26 126 67t41 101q0 31 -16 48.5t-48 17.5q-47 0 -92.5 -47.5t-85.5 -135.5l-42 -305h-56l104 736l56 7zM236.5 -96q10.5 -11 10.5 -27q0 -14 -5.5 -27t-21.5 -40 l-51 -88h-34l46 115q-17 12 -17 33q0 19 12.5 32t31.5 13q18 0 28.5 -11z" />
<glyph unicode="&#x138;" horiz-adv-x="443" d="M187 523l-74 -523h-56l74 523h56zM450 523l-230 -248l175 -275h-63l-176 276l227 247h67z" />
<glyph unicode="&#x139;" horiz-adv-x="423" d="M215 685l-89 -632h257l-16 -53h-306l96 685h58zM280 884l22 -51l-188 -75l-15 32z" />
<glyph unicode="&#x13a;" horiz-adv-x="255" d="M119 84q-1 -5 -1 -14q0 -17 7 -24.5t23 -7.5q12 0 34 6l12 -41q-28 -14 -57 -14q-35 0 -54.5 19.5t-19.5 56.5q0 8 2 24l91 647l56 7zM276 935l22 -51l-188 -75l-15 32z" />
<glyph unicode="&#x13b;" horiz-adv-x="423" d="M215 685l-89 -632h257l-16 -53h-306l96 685h58zM231.5 -96q10.5 -11 10.5 -27q0 -14 -5.5 -27t-21.5 -40l-51 -88h-34l46 115q-17 12 -17 33q0 19 12.5 32t31.5 13q18 0 28.5 -11z" />
<glyph unicode="&#x13c;" horiz-adv-x="255" d="M119 84q-1 -5 -1 -14q0 -17 7 -24.5t23 -7.5q12 0 34 6l12 -41q-28 -14 -57 -14q-35 0 -54.5 19.5t-19.5 56.5q0 8 2 24l91 647l56 7zM145.5 -96q10.5 -11 10.5 -27q0 -14 -5.5 -27t-21.5 -40l-51 -88h-34l46 115q-17 12 -17 33q0 19 12.5 32t31.5 13q18 0 28.5 -11z" />
<glyph unicode="&#x13d;" horiz-adv-x="423" d="M215 685l-89 -632h257l-16 -53h-306l96 685h58zM293 691l52 -7l-57 -162l-33 5z" />
<glyph unicode="&#x13e;" horiz-adv-x="255" d="M119 84q-1 -5 -1 -14q0 -17 7 -24.5t23 -7.5q12 0 34 6l12 -41q-28 -14 -57 -14q-35 0 -54.5 19.5t-19.5 56.5q0 8 2 24l91 647l56 7zM278 742l52 -7l-57 -162l-33 5z" />
<glyph unicode="&#x13f;" horiz-adv-x="423" d="M215 685l-89 -632h257l-16 -53h-306l96 685h58zM314.5 337q-10.5 10 -10.5 27q0 19 13 32t32 13q17 0 27 -10.5t10 -26.5q0 -19 -12.5 -32t-31.5 -13q-17 0 -27.5 10z" />
<glyph unicode="&#x140;" horiz-adv-x="273" d="M119 84q-1 -5 -1 -14q0 -17 7 -24.5t23 -7.5q12 0 34 6l12 -41q-28 -14 -57 -14q-35 0 -54.5 19.5t-19.5 56.5q0 8 2 24l91 647l56 7zM235.5 345q-10.5 10 -10.5 27q0 19 13 32t32 13q17 0 27 -10.5t10 -26.5q0 -19 -12.5 -32t-31.5 -13q-17 0 -27.5 10z" />
<glyph unicode="&#x141;" horiz-adv-x="437" d="M141 53h257l-16 -53h-306l39 281l-61 -39l-20 37l89 56l49 350h58l-44 -310l173 109l21 -37l-201 -126z" />
<glyph unicode="&#x142;" horiz-adv-x="263" d="M183 44l12 -41q-28 -14 -57 -14q-35 0 -54.5 19.5t-19.5 56.5q0 8 2 24l33 236l-47 -29l-17 38l72 44l50 358l56 7l-46 -328l93 57l17 -38l-118 -72l-39 -278q-1 -5 -1 -14q0 -17 7 -24.5t23 -7.5q12 0 34 6z" />
<glyph unicode="&#x143;" horiz-adv-x="603" d="M468 0h-75l-198 632q-5 -93 -26 -248l-53 -384h-55l96 685h76l199 -631q3 88 20 214l58 417h55zM462 884l22 -51l-188 -75l-15 32z" />
<glyph unicode="&#x144;" horiz-adv-x="523" d="M423.5 501.5q29.5 -32.5 29.5 -91.5q0 -16 -3 -36l-53 -374h-56l53 372q3 20 3 35q0 79 -66 79q-47 0 -91 -46t-83 -122l-44 -318h-56l74 523h47l-13 -125q80 136 177 136q52 0 81.5 -32.5zM404 781l23 -51l-188 -85l-17 32z" />
<glyph unicode="&#x145;" horiz-adv-x="603" d="M468 0h-75l-198 632q-5 -93 -26 -248l-53 -384h-55l96 685h76l199 -631q3 88 20 214l58 417h55zM282.5 -96q10.5 -11 10.5 -27q0 -14 -5.5 -27t-21.5 -40l-51 -88h-34l46 115q-17 12 -17 33q0 19 12.5 32t31.5 13q18 0 28.5 -11z" />
<glyph unicode="&#x146;" horiz-adv-x="523" d="M423.5 501.5q29.5 -32.5 29.5 -91.5q0 -16 -3 -36l-53 -374h-56l53 372q3 20 3 35q0 79 -66 79q-47 0 -91 -46t-83 -122l-44 -318h-56l74 523h47l-13 -125q80 136 177 136q52 0 81.5 -32.5zM241.5 -96q10.5 -11 10.5 -27q0 -14 -5.5 -27t-21.5 -40l-51 -88h-34l46 115 q-17 12 -17 33q0 19 12.5 32t31.5 13q18 0 28.5 -11z" />
<glyph unicode="&#x147;" horiz-adv-x="603" d="M468 0h-75l-198 632q-5 -93 -26 -248l-53 -384h-55l96 685h76l199 -631q3 88 20 214l58 417h55zM504 886l24 -28l-131 -102h-35l-102 103l26 27l98 -79z" />
<glyph unicode="&#x148;" horiz-adv-x="523" d="M423.5 501.5q29.5 -32.5 29.5 -91.5q0 -16 -3 -36l-53 -374h-56l53 372q3 20 3 35q0 79 -66 79q-47 0 -91 -46t-83 -122l-44 -318h-56l74 523h47l-13 -125q80 136 177 136q52 0 81.5 -32.5zM438 767l23 -28l-131 -106h-35l-102 106l27 28l96 -83z" />
<glyph unicode="&#x149;" horiz-adv-x="601" d="M185.5 734q10.5 -11 10.5 -27q0 -13 -5 -25.5t-21 -41.5l-50 -92h-34l45 119q-18 11 -18 32q0 20 12.5 33t31.5 13q18 0 28.5 -11zM501.5 501.5q29.5 -32.5 29.5 -91.5q0 -16 -3 -36l-53 -374h-56l53 372q3 20 3 35q0 79 -66 79q-47 0 -91 -46t-83 -122l-44 -318h-56 l74 523h47l-13 -125q80 136 177 136q52 0 81.5 -32.5z" />
<glyph unicode="&#x14a;" horiz-adv-x="603" d="M565 685l-97 -685l-12 -79q-9 -62 -44 -94t-86 -32q-52 0 -91 35l27 36q16 -11 29.5 -16.5t32.5 -5.5q29 0 49 19.5t26 60.5l11 76h-17l-198 632q-5 -93 -26 -248l-53 -384h-55l96 685h76l199 -631q3 88 20 214l58 417h55z" />
<glyph unicode="&#x14b;" horiz-adv-x="523" d="M423.5 501.5q29.5 -32.5 29.5 -91.5q0 -16 -3 -36l-53 -374l-11 -80q-9 -62 -44.5 -93.5t-86.5 -31.5t-90 35l28 34q15 -11 28.5 -16.5t32.5 -5.5q29 0 49 19t26 60l12 79l53 372q3 20 3 35q0 79 -66 79q-47 0 -91 -46t-83 -122l-44 -318h-56l74 523h47l-13 -125 q80 136 177 136q52 0 81.5 -32.5z" />
<glyph unicode="&#x14c;" horiz-adv-x="624" d="M528 630q55 -66 55 -190q0 -104 -31.5 -207.5t-102 -173.5t-178.5 -70q-97 0 -152.5 67t-55.5 190q0 101 32.5 204.5t103 174.5t177.5 71q97 0 152 -66zM229 582q-56 -65 -81 -157.5t-25 -180.5q0 -102 39.5 -153.5t110.5 -51.5q91 0 147 65t79.5 158t23.5 181 q0 102 -38.5 153t-111.5 51q-88 0 -144 -65zM502 802h-218l7 46h218z" />
<glyph unicode="&#x14d;" horiz-adv-x="515" d="M94.5 42q-43.5 53 -43.5 147q0 78 25 157.5t80.5 133.5t140.5 54q80 0 123.5 -52.5t43.5 -146.5q0 -77 -25 -157t-80 -134.5t-141 -54.5q-80 0 -123.5 53zM327.5 85.5q41.5 48.5 60 118t18.5 135.5q0 73 -28 110.5t-82 37.5q-67 0 -109 -49t-60 -118t-18 -135 q0 -73 28.5 -110.5t82.5 -37.5q66 0 107.5 48.5zM427 676h-218l7 46h218z" />
<glyph unicode="&#x14e;" horiz-adv-x="624" d="M528 630q55 -66 55 -190q0 -104 -31.5 -207.5t-102 -173.5t-178.5 -70q-97 0 -152.5 67t-55.5 190q0 101 32.5 204.5t103 174.5t177.5 71q97 0 152 -66zM229 582q-56 -65 -81 -157.5t-25 -180.5q0 -102 39.5 -153.5t110.5 -51.5q91 0 147 65t79.5 158t23.5 181 q0 102 -38.5 153t-111.5 51q-88 0 -144 -65zM309 793.5q-29 28.5 -28 72.5l36 5q12 -60 71 -60q32 0 55 17t36 46l38 -12q-12 -43 -47.5 -70t-82.5 -27q-49 0 -78 28.5z" />
<glyph unicode="&#x14f;" horiz-adv-x="515" d="M94.5 42q-43.5 53 -43.5 147q0 78 25 157.5t80.5 133.5t140.5 54q80 0 123.5 -52.5t43.5 -146.5q0 -77 -25 -157t-80 -134.5t-141 -54.5q-80 0 -123.5 53zM327.5 85.5q41.5 48.5 60 118t18.5 135.5q0 73 -28 110.5t-82 37.5q-67 0 -109 -49t-60 -118t-18 -135 q0 -73 28.5 -110.5t82.5 -37.5q66 0 107.5 48.5zM236.5 684q-28.5 31 -27.5 81l39 5q4 -35 20 -52.5t47 -17.5q32 0 56.5 19t37.5 54l37 -12q-13 -50 -48.5 -79t-83.5 -29q-49 0 -77.5 31z" />
<glyph unicode="&#x150;" horiz-adv-x="624" d="M528 630q55 -66 55 -190q0 -104 -31.5 -207.5t-102 -173.5t-178.5 -70q-97 0 -152.5 67t-55.5 190q0 101 32.5 204.5t103 174.5t177.5 71q97 0 152 -66zM229 582q-56 -65 -81 -157.5t-25 -180.5q0 -102 39.5 -153.5t110.5 -51.5q91 0 147 65t79.5 158t23.5 181 q0 102 -38.5 153t-111.5 51q-88 0 -144 -65zM394 936l45 -27l-96 -136l-33 17zM512 936l45 -26l-104 -141l-34 17z" />
<glyph unicode="&#x151;" horiz-adv-x="515" d="M94.5 42q-43.5 53 -43.5 147q0 78 25 157.5t80.5 133.5t140.5 54q80 0 123.5 -52.5t43.5 -146.5q0 -77 -25 -157t-80 -134.5t-141 -54.5q-80 0 -123.5 53zM327.5 85.5q41.5 48.5 60 118t18.5 135.5q0 73 -28 110.5t-82 37.5q-67 0 -109 -49t-60 -118t-18 -135 q0 -73 28.5 -110.5t82.5 -37.5q66 0 107.5 48.5zM322 810l45 -27l-96 -136l-33 17zM440 810l45 -26l-104 -141l-34 17z" />
<glyph unicode="&#x152;" horiz-adv-x="780" d="M780 636h-283q66 -63 66 -197q0 -28 -3 -60h150l-6 -48h-150q-14 -87 -49 -162t-92 -120h298l-8 -49h-374q-33 -11 -67 -11q-92 0 -145.5 67t-53.5 189q0 100 32 204.5t99.5 175.5t168.5 71q33 0 63 -11h367zM466.5 596.5q-37.5 50.5 -104.5 50.5q-83 0 -136.5 -65.5 t-78 -159t-24.5 -180.5q0 -101 38 -152t103 -51q85 0 139 66t77.5 160t23.5 182q0 99 -37.5 149.5z" />
<glyph unicode="&#x153;" horiz-adv-x="809" d="M696.5 267.5q-87.5 -47.5 -245.5 -61.5v-18q0 -77 30 -113.5t83 -36.5q36 0 67 12.5t67 38.5l25 -38q-39 -31 -78.5 -46.5t-84.5 -15.5q-61 0 -100 32.5t-54 94.5q-65 -127 -188 -127q-80 0 -123.5 53t-43.5 147q0 78 25 157.5t80.5 133.5t140.5 54q62 0 101 -33t54 -94 q64 127 190 127q67 0 104.5 -34.5t37.5 -88.5q0 -96 -87.5 -143.5zM327.5 85.5q41.5 48.5 60 118t18.5 135.5q0 73 -28 110.5t-82 37.5q-67 0 -109 -49t-60 -118t-18 -135q0 -73 28.5 -110.5t82.5 -37.5q66 0 107.5 48.5zM512 419q-46 -68 -57 -169q137 12 204 49.5 t67 109.5q0 35 -21.5 56.5t-65.5 21.5q-81 0 -127 -68z" />
<glyph unicode="&#x154;" horiz-adv-x="531" d="M465 398q-40 -58 -124 -80l123 -318h-62l-117 308h-123l-43 -308h-58l96 685h152q99 0 147.5 -40t48.5 -116q0 -73 -40 -131zM269 356q94 0 135 50.5t41 120.5q0 57 -32.5 83.5t-105.5 26.5h-99l-39 -281h100zM416 884l22 -51l-188 -75l-15 32z" />
<glyph unicode="&#x155;" horiz-adv-x="336" d="M362 527l-17 -53q-22 6 -37 6q-50 0 -85.5 -45t-68.5 -136l-41 -299h-56l74 523h48l-14 -122q28 65 65 99t87 34q17 0 45 -7zM347 781l23 -51l-188 -85l-17 32z" />
<glyph unicode="&#x156;" horiz-adv-x="531" d="M465 398q-40 -58 -124 -80l123 -318h-62l-117 308h-123l-43 -308h-58l96 685h152q99 0 147.5 -40t48.5 -116q0 -73 -40 -131zM269 356q94 0 135 50.5t41 120.5q0 57 -32.5 83.5t-105.5 26.5h-99l-39 -281h100zM266.5 -96q10.5 -11 10.5 -27q0 -14 -5.5 -27t-21.5 -40 l-51 -88h-34l46 115q-17 12 -17 33q0 19 12.5 32t31.5 13q18 0 28.5 -11z" />
<glyph unicode="&#x157;" horiz-adv-x="336" d="M362 527l-17 -53q-22 6 -37 6q-50 0 -85.5 -45t-68.5 -136l-41 -299h-56l74 523h48l-14 -122q28 65 65 99t87 34q17 0 45 -7zM97.5 -96q10.5 -11 10.5 -27q0 -14 -5.5 -27t-21.5 -40l-51 -88h-34l46 115q-17 12 -17 33q0 19 12.5 32t31.5 13q18 0 28.5 -11z" />
<glyph unicode="&#x158;" horiz-adv-x="531" d="M465 398q-40 -58 -124 -80l123 -318h-62l-117 308h-123l-43 -308h-58l96 685h152q99 0 147.5 -40t48.5 -116q0 -73 -40 -131zM269 356q94 0 135 50.5t41 120.5q0 57 -32.5 83.5t-105.5 26.5h-99l-39 -281h100zM458 886l24 -28l-131 -102h-35l-102 103l26 27l98 -79z" />
<glyph unicode="&#x159;" horiz-adv-x="336" d="M362 527l-17 -53q-22 6 -37 6q-50 0 -85.5 -45t-68.5 -136l-41 -299h-56l74 523h48l-14 -122q28 65 65 99t87 34q17 0 45 -7zM381 767l23 -28l-131 -106h-35l-102 106l27 28l96 -83z" />
<glyph unicode="&#x15a;" horiz-adv-x="485" d="M399 676.5q41 -19.5 74 -57.5l-36 -34q-31 33 -62.5 47.5t-71.5 14.5q-64 0 -105.5 -38.5t-41.5 -97.5q0 -44 25.5 -70t93.5 -53q78 -30 115 -70t37 -108q0 -56 -27 -106.5t-80.5 -82.5t-128.5 -32q-61 0 -106.5 23t-81.5 65l38 33q31 -35 66 -53t85 -18q56 0 95.5 23 t59.5 61.5t20 83.5q0 51 -26.5 80.5t-94.5 56.5q-81 33 -115 68.5t-34 96.5q0 47 25 90t72.5 70t109.5 27q54 0 95 -19.5zM399 884l22 -51l-188 -75l-15 32z" />
<glyph unicode="&#x15b;" horiz-adv-x="418" d="M389 475l-30 -34q-27 23 -55 34.5t-62 11.5q-50 0 -80.5 -25.5t-30.5 -67.5q0 -34 21.5 -54.5t77.5 -40.5q67 -25 96.5 -59t29.5 -87q0 -75 -52 -119.5t-136 -44.5q-99 0 -167 70l34 33q28 -27 60 -41t74 -14q61 0 95 30t34 82q0 39 -22 62.5t-81 45.5q-67 24 -94 54.5 t-27 79.5q0 39 21 72t59 52t88 19q85 0 147 -59zM352 781l23 -51l-188 -85l-17 32z" />
<glyph unicode="&#x15c;" horiz-adv-x="485" d="M399 676.5q41 -19.5 74 -57.5l-36 -34q-31 33 -62.5 47.5t-71.5 14.5q-64 0 -105.5 -38.5t-41.5 -97.5q0 -44 25.5 -70t93.5 -53q78 -30 115 -70t37 -108q0 -56 -27 -106.5t-80.5 -82.5t-128.5 -32q-61 0 -106.5 23t-81.5 65l38 33q31 -35 66 -53t85 -18q56 0 95.5 23 t59.5 61.5t20 83.5q0 51 -26.5 80.5t-94.5 56.5q-81 33 -115 68.5t-34 96.5q0 47 25 90t72.5 70t109.5 27q54 0 95 -19.5zM205 762l-24 29l132 102h34l102 -103l-26 -28l-97 80z" />
<glyph unicode="&#x15d;" horiz-adv-x="418" d="M389 475l-30 -34q-27 23 -55 34.5t-62 11.5q-50 0 -80.5 -25.5t-30.5 -67.5q0 -34 21.5 -54.5t77.5 -40.5q67 -25 96.5 -59t29.5 -87q0 -75 -52 -119.5t-136 -44.5q-99 0 -167 70l34 33q28 -27 60 -41t74 -14q61 0 95 30t34 82q0 39 -22 62.5t-81 45.5q-67 24 -94 54.5 t-27 79.5q0 39 21 72t59 52t88 19q85 0 147 -59zM157 644l-25 29l132 106h35l102 -107l-28 -28l-96 84z" />
<glyph unicode="&#x15e;" horiz-adv-x="485" d="M399 676.5q41 -19.5 74 -57.5l-36 -34q-31 33 -62.5 47.5t-71.5 14.5q-64 0 -105.5 -38.5t-41.5 -97.5q0 -44 25.5 -70t93.5 -53q78 -30 115 -70t37 -108q0 -52 -23.5 -100t-70.5 -81t-113 -39l-10 -55q38 -4 56.5 -22t18.5 -49q0 -40 -29 -65.5t-76 -25.5q-42 0 -73 23 l20 33q24 -15 53 -15q24 0 40 12.5t16 35.5t-16 32.5t-57 9.5l18 85q-107 4 -178 88l38 33q31 -35 66 -53t85 -18q56 0 95.5 23t59.5 61.5t20 83.5q0 51 -26.5 80.5t-94.5 56.5q-81 33 -115 68.5t-34 96.5q0 47 25 90t72.5 70t109.5 27q54 0 95 -19.5z" />
<glyph unicode="&#x15f;" horiz-adv-x="418" d="M161.5 461.5q-30.5 -25.5 -30.5 -67.5q0 -34 21.5 -54.5t77.5 -40.5q67 -25 96.5 -59t29.5 -87q0 -70 -46.5 -114t-123.5 -49l-9 -55q38 -4 56.5 -22t18.5 -49q0 -40 -29 -65.5t-76 -25.5q-42 0 -73 23l20 33q24 -15 53 -15q24 0 40 12.5t16 35.5t-16 32.5t-57 9.5l18 86 q-86 6 -147 69l34 33q28 -27 60 -41t74 -14q61 0 95 30t34 82q0 39 -22 62.5t-81 45.5q-67 24 -94 54.5t-27 79.5q0 39 21 72t59 52t88 19q85 0 147 -59l-30 -34q-27 23 -55 34.5t-62 11.5q-50 0 -80.5 -25.5z" />
<glyph unicode="&#x160;" horiz-adv-x="485" d="M399 676.5q41 -19.5 74 -57.5l-36 -34q-31 33 -62.5 47.5t-71.5 14.5q-64 0 -105.5 -38.5t-41.5 -97.5q0 -44 25.5 -70t93.5 -53q78 -30 115 -70t37 -108q0 -56 -27 -106.5t-80.5 -82.5t-128.5 -32q-61 0 -106.5 23t-81.5 65l38 33q31 -35 66 -53t85 -18q56 0 95.5 23 t59.5 61.5t20 83.5q0 51 -26.5 80.5t-94.5 56.5q-81 33 -115 68.5t-34 96.5q0 47 25 90t72.5 70t109.5 27q54 0 95 -19.5zM441 886l24 -28l-131 -102h-35l-102 103l26 27l98 -79z" />
<glyph unicode="&#x161;" horiz-adv-x="418" d="M389 475l-30 -34q-27 23 -55 34.5t-62 11.5q-50 0 -80.5 -25.5t-30.5 -67.5q0 -34 21.5 -54.5t77.5 -40.5q67 -25 96.5 -59t29.5 -87q0 -75 -52 -119.5t-136 -44.5q-99 0 -167 70l34 33q28 -27 60 -41t74 -14q61 0 95 30t34 82q0 39 -22 62.5t-81 45.5q-67 24 -94 54.5 t-27 79.5q0 39 21 72t59 52t88 19q85 0 147 -59zM386 767l23 -28l-131 -106h-35l-102 106l27 28l96 -83z" />
<glyph unicode="&#x162;" horiz-adv-x="446" d="M496 685l-14 -52h-178l-89 -633h-1l-10 -65q37 -3 55.5 -20.5t18.5 -46.5q0 -39 -29.5 -67t-76.5 -28q-43 0 -72 23l21 34q21 -16 50 -16q24 0 41 14t17 38q0 20 -16.5 29t-56.5 9l21 96h-20l89 633h-181l7 52h424z" />
<glyph unicode="&#x163;" horiz-adv-x="309" d="M131 119q-2 -18 -2 -24q0 -58 54 -58q35 0 76 24l19 -40q-42 -28 -89 -31l-9 -55q38 -4 56.5 -22t18.5 -49q0 -40 -29 -65.5t-76 -25.5q-42 0 -73 23l20 33q24 -15 53 -15q24 0 40 12.5t16 35.5t-16 32.5t-57 9.5l19 87q-37 7 -58 33.5t-21 68.5q0 8 2 28l50 356h-79 l7 46h80l28 127l45 5l-18 -132h119l-13 -46h-113z" />
<glyph unicode="&#x164;" horiz-adv-x="446" d="M496 685l-14 -52h-178l-89 -633h-58l89 633h-181l7 52h424zM417 886l24 -28l-131 -102h-35l-102 103l26 27l98 -79z" />
<glyph unicode="&#x165;" horiz-adv-x="309" d="M131 119q-2 -18 -2 -24q0 -58 54 -58q35 0 76 24l19 -40q-50 -32 -102 -32q-48 0 -75.5 27.5t-27.5 77.5q0 7 2 27l50 356h-79l7 46h80l28 127l45 5l-18 -132h119l-13 -46h-113zM293 745l52 -7l-57 -162l-33 5z" />
<glyph unicode="&#x166;" horiz-adv-x="446" d="M482 633h-178l-35 -248h109l-6 -46h-109l-48 -339h-58l48 339h-109l6 46h109l35 248h-181l7 52h424z" />
<glyph unicode="&#x167;" horiz-adv-x="309" d="M181 477l-18 -127h112l-13 -46h-105l-26 -185q-2 -18 -2 -24q0 -58 54 -58q35 0 76 24l19 -40q-50 -32 -102 -32q-48 0 -75.5 27.5t-27.5 77.5q0 7 2 27l26 183h-72l7 46h71l18 127h-79l7 46h80l28 127l45 5l-18 -132h119l-13 -46h-113z" />
<glyph unicode="&#x168;" horiz-adv-x="583" d="M485 192q-13 -90 -73 -146.5t-157 -56.5q-88 0 -133.5 46.5t-45.5 122.5q0 19 3 38l69 489h57l-68 -489q-3 -19 -3 -36q0 -57 30.5 -88.5t93.5 -31.5q74 0 117 44t53 116l68 485h58zM392 800q-14 7 -29 19q-13 10 -22.5 14.5t-19.5 4.5q-16 0 -27.5 -9.5t-28.5 -31.5 l-31 21q42 65 88 65q17 0 30 -6.5t29 -18.5q15 -11 23.5 -15.5t19.5 -4.5q14 0 27 10t29 33l32 -19q-39 -69 -88 -69q-18 0 -32 7z" />
<glyph unicode="&#x169;" horiz-adv-x="519" d="M99.5 21q-29.5 32 -29.5 90q0 22 2 33l54 379h56l-53 -380q-3 -18 -3 -33q0 -74 65 -74q92 0 170 162l45 325h56l-74 -523h-46l14 127q-34 -65 -76.5 -101.5t-97.5 -36.5q-53 0 -82.5 32zM340 674q-14 7 -29 19q-13 10 -22.5 14.5t-19.5 4.5q-16 0 -27.5 -9.5 t-28.5 -31.5l-31 21q42 65 88 65q17 0 30 -6.5t29 -18.5q15 -11 23.5 -15.5t19.5 -4.5q14 0 27 10t29 33l32 -19q-39 -69 -88 -69q-18 0 -32 7z" />
<glyph unicode="&#x16a;" horiz-adv-x="583" d="M485 192q-13 -90 -73 -146.5t-157 -56.5q-88 0 -133.5 46.5t-45.5 122.5q0 19 3 38l69 489h57l-68 -489q-3 -19 -3 -36q0 -57 30.5 -88.5t93.5 -31.5q74 0 117 44t53 116l68 485h58zM476 802h-218l7 46h218z" />
<glyph unicode="&#x16b;" horiz-adv-x="519" d="M99.5 21q-29.5 32 -29.5 90q0 22 2 33l54 379h56l-53 -380q-3 -18 -3 -33q0 -74 65 -74q92 0 170 162l45 325h56l-74 -523h-46l14 127q-34 -65 -76.5 -101.5t-97.5 -36.5q-53 0 -82.5 32zM424 676h-218l7 46h218z" />
<glyph unicode="&#x16c;" horiz-adv-x="583" d="M485 192q-13 -90 -73 -146.5t-157 -56.5q-88 0 -133.5 46.5t-45.5 122.5q0 19 3 38l69 489h57l-68 -489q-3 -19 -3 -36q0 -57 30.5 -88.5t93.5 -31.5q74 0 117 44t53 116l68 485h58zM283 793.5q-29 28.5 -28 72.5l36 5q12 -60 71 -60q32 0 55 17t36 46l38 -12 q-12 -43 -47.5 -70t-82.5 -27q-49 0 -78 28.5z" />
<glyph unicode="&#x16d;" horiz-adv-x="519" d="M99.5 21q-29.5 32 -29.5 90q0 22 2 33l54 379h56l-53 -380q-3 -18 -3 -33q0 -74 65 -74q92 0 170 162l45 325h56l-74 -523h-46l14 127q-34 -65 -76.5 -101.5t-97.5 -36.5q-53 0 -82.5 32zM233.5 684q-28.5 31 -27.5 81l39 5q4 -35 20 -52.5t47 -17.5q32 0 56.5 19 t37.5 54l37 -12q-13 -50 -48.5 -79t-83.5 -29q-49 0 -77.5 31z" />
<glyph unicode="&#x16e;" horiz-adv-x="583" d="M485 192q-13 -90 -73 -146.5t-157 -56.5q-88 0 -133.5 46.5t-45.5 122.5q0 19 3 38l69 489h57l-68 -489q-3 -19 -3 -36q0 -57 30.5 -88.5t93.5 -31.5q74 0 117 44t53 116l68 485h58zM443.5 923q22.5 -23 22.5 -59q0 -46 -29 -75.5t-72 -29.5q-36 0 -58.5 23t-22.5 59 q0 46 29 75.5t72 29.5q36 0 58.5 -23zM340.5 891.5q-15.5 -19.5 -15.5 -49.5q0 -23 11 -35.5t31 -12.5q27 0 42.5 20t15.5 50q0 23 -11 35t-31 12q-27 0 -42.5 -19.5z" />
<glyph unicode="&#x16f;" horiz-adv-x="519" d="M99.5 21q-29.5 32 -29.5 90q0 22 2 33l54 379h56l-53 -380q-3 -18 -3 -33q0 -74 65 -74q92 0 170 162l45 325h56l-74 -523h-46l14 127q-34 -65 -76.5 -101.5t-97.5 -36.5q-53 0 -82.5 32zM390.5 797q22.5 -23 22.5 -59q0 -46 -29 -75.5t-72 -29.5q-36 0 -58.5 23 t-22.5 59q0 46 29 75.5t72 29.5q36 0 58.5 -23zM287.5 765.5q-15.5 -19.5 -15.5 -49.5q0 -23 11 -35.5t31 -12.5q27 0 42.5 20t15.5 50q0 23 -11 35t-31 12q-27 0 -42.5 -19.5z" />
<glyph unicode="&#x170;" horiz-adv-x="583" d="M485 192q-13 -90 -73 -146.5t-157 -56.5q-88 0 -133.5 46.5t-45.5 122.5q0 19 3 38l69 489h57l-68 -489q-3 -19 -3 -36q0 -57 30.5 -88.5t93.5 -31.5q74 0 117 44t53 116l68 485h58zM368 936l45 -27l-96 -136l-33 17zM486 936l45 -26l-104 -141l-34 17z" />
<glyph unicode="&#x171;" horiz-adv-x="519" d="M99.5 21q-29.5 32 -29.5 90q0 22 2 33l54 379h56l-53 -380q-3 -18 -3 -33q0 -74 65 -74q92 0 170 162l45 325h56l-74 -523h-46l14 127q-34 -65 -76.5 -101.5t-97.5 -36.5q-53 0 -82.5 32zM319 810l45 -27l-96 -136l-33 17zM437 810l45 -26l-104 -141l-34 17z" />
<glyph unicode="&#x172;" horiz-adv-x="583" d="M554 685l-69 -493q-10 -72 -51.5 -124t-108.5 -70q-59 -30 -83.5 -56t-24.5 -61q0 -24 14.5 -37.5t42.5 -13.5q21 0 51 6l-6 -47q-27 -6 -53 -6q-48 0 -74 25t-26 64q0 72 89 117q-88 0 -133.5 46.5t-45.5 122.5q0 19 3 38l69 489h57l-68 -489q-3 -19 -3 -36 q0 -57 30.5 -88.5t93.5 -31.5q74 0 117 44t53 116l68 485h58z" />
<glyph unicode="&#x173;" horiz-adv-x="519" d="M290 -61.5q-29 -29.5 -29 -65.5q0 -21 12.5 -32t36.5 -11q22 0 53 6l-11 -47q-27 -6 -50 -6q-43 0 -67.5 22.5t-24.5 60.5q0 46 31 81t102 65l13 115q-34 -65 -76.5 -101.5t-97.5 -36.5q-53 0 -82.5 32t-29.5 90q0 22 2 33l54 379h56l-53 -380q-3 -18 -3 -33 q0 -74 65 -74q92 0 170 162l45 325h56l-74 -521l1 -2q-70 -32 -99 -61.5z" />
<glyph unicode="&#x174;" horiz-adv-x="732" d="M762 685l-230 -685h-72l-44 620l-218 -620h-72l-37 685h55l27 -629l221 629h66l44 -630l205 630h55zM324 762l-24 29l132 102h34l102 -103l-26 -28l-97 80z" />
<glyph unicode="&#x175;" horiz-adv-x="635" d="M646 523l-187 -523h-74l-36 470l-169 -470h-74l-43 523h55l32 -479l174 479h65l38 -480l165 480h54zM265 644l-25 29l132 106h35l102 -107l-28 -28l-96 84z" />
<glyph unicode="&#x176;" horiz-adv-x="471" d="M519 685l-253 -417l-38 -268h-59l38 267l-136 418h60l111 -364l213 364h64zM192 762l-24 29l132 102h34l102 -103l-26 -28l-97 80z" />
<glyph unicode="&#x177;" horiz-adv-x="426" d="M216 -4q-28 -64 -57.5 -103t-68.5 -61.5t-99 -35.5l-3 44q49 13 78.5 31t50.5 47t45 82h-22l-87 523h58l72 -481l205 481h59zM156 644l-25 29l132 106h35l102 -107l-28 -28l-96 84z" />
<glyph unicode="&#x178;" horiz-adv-x="471" d="M519 685l-253 -417l-38 -268h-59l38 267l-136 418h60l111 -364l213 364h64zM199 799.5q-9 9.5 -9 23.5q0 19 12 31t29 12q15 0 25 -9.5t10 -24.5q0 -18 -12 -30t-30 -12q-16 0 -25 9.5zM370.5 799.5q-9.5 9.5 -9.5 23.5q0 19 12 31t30 12q15 0 24.5 -10t9.5 -24 q0 -18 -12 -30t-30 -12q-15 0 -24.5 9.5z" />
<glyph unicode="&#x179;" horiz-adv-x="462" d="M-7 0l7 48l409 586h-294l8 51h357l-7 -48l-407 -586l320 1l-15 -52h-378zM388 884l22 -51l-188 -75l-15 32z" />
<glyph unicode="&#x17a;" horiz-adv-x="379" d="M386 523l-6 -44l-319 -430h257l-13 -49h-318l6 44l319 430h-237l8 49h303zM339 781l23 -51l-188 -85l-17 32z" />
<glyph unicode="&#x17b;" horiz-adv-x="462" d="M-7 0l7 48l409 586h-294l8 51h357l-7 -48l-407 -586l320 1l-15 -52h-378zM285.5 806q-10.5 10 -10.5 27q0 19 13 32t32 13q17 0 27 -10.5t10 -26.5q0 -19 -12.5 -32t-31.5 -13q-17 0 -27.5 10z" />
<glyph unicode="&#x17c;" horiz-adv-x="379" d="M386 523l-6 -44l-319 -430h257l-13 -49h-318l6 44l319 430h-237l8 49h303zM228.5 680q-10.5 10 -10.5 27q0 19 13 32t32 13q17 0 27 -10.5t10 -26.5q0 -19 -12.5 -32t-31.5 -13q-17 0 -27.5 10z" />
<glyph unicode="&#x17d;" horiz-adv-x="462" d="M-7 0l7 48l409 586h-294l8 51h357l-7 -48l-407 -586l320 1l-15 -52h-378zM430 886l24 -28l-131 -102h-35l-102 103l26 27l98 -79z" />
<glyph unicode="&#x17e;" horiz-adv-x="379" d="M386 523l-6 -44l-319 -430h257l-13 -49h-318l6 44l319 430h-237l8 49h303zM373 767l23 -28l-131 -106h-35l-102 106l27 28l96 -83z" />
<glyph unicode="&#x17f;" horiz-adv-x="287" d="M355 734q26 -9 53 -26l-23 -38q-22 14 -42 20t-43 6q-81 0 -94 -90l-84 -606h-56l66 477h-81l7 46h81l12 88q9 62 48 97t101 35q29 0 55 -9z" />
<glyph unicode="&#x180;" horiz-adv-x="525" d="M438.5 486q37.5 -48 37.5 -137q0 -85 -25.5 -167t-82.5 -137.5t-146 -55.5q-40 0 -75.5 8t-80.5 26l84 594h-68l7 46h68l10 73l57 7l-11 -80h150l-13 -46h-144l-22 -161q71 78 151 78q66 0 103.5 -48zM337 85.5q43 49.5 62 121.5t20 144q0 136 -95 136q-41 0 -77 -23.5 t-72 -65.5l-48 -342q24 -10 47 -15t52 -5q68 0 111 49.5z" />
<glyph unicode="&#x181;" horiz-adv-x="601" d="M545 223q0 -58 -24.5 -108t-82 -82.5t-149.5 -32.5h-170l89 637h-24q-37 0 -55.5 -21t-18.5 -57q0 -29 13 -62l-44 -19q-22 40 -22 83q0 55 34.5 89.5t97.5 34.5h189q89 0 139 -38t50 -110q0 -70 -40.5 -116t-107.5 -59q126 -20 126 -139zM266 636l-35 -252h118 q76 0 117.5 42t41.5 109q0 53 -33.5 77t-95.5 24h-113zM441.5 99.5q43.5 50.5 43.5 123.5q0 114 -133 114h-128l-40 -288h111q103 0 146.5 50.5z" />
<glyph unicode="&#x182;" horiz-adv-x="513" d="M418 373q52 -44 52 -129q0 -63 -24.5 -118t-81.5 -90.5t-147 -35.5h-156l96 685h314l-15 -50h-247l-31 -218h93q95 0 147 -44zM366.5 107.5q42.5 58.5 42.5 135.5q0 126 -139 126h-99l-45 -320h101q97 0 139.5 58.5z" />
<glyph unicode="&#x183;" horiz-adv-x="519" d="M433 486q37 -48 37 -137q0 -85 -25.5 -167.5t-82.5 -137.5t-146 -55q-40 0 -75.5 8t-80.5 26l101 713h267l-15 -46h-202l-33 -234q71 78 151 78q67 0 104 -48zM331 85.5q43 49.5 62 122t20 144.5q0 135 -95 135q-41 0 -77 -23.5t-71 -65.5l-49 -342q24 -10 47 -15t52 -5 q68 0 111 49.5z" />
<glyph unicode="&#x184;" horiz-adv-x="508" d="M421 377.5q52 -44.5 52 -132.5q0 -63 -25 -118.5t-82 -91t-147 -35.5h-155l78 550l-43 35q41 38 70 100h50l-37 -263h92q95 0 147 -44.5zM370 108q42 59 42 136q0 68 -35 99t-103 31h-99l-46 -325h102q97 0 139 59z" />
<glyph unicode="&#x185;" horiz-adv-x="451" d="M366.5 306.5q42.5 -39.5 42.5 -108.5q0 -53 -21.5 -100.5t-68 -78t-117.5 -30.5q-69 0 -143 27l54 382l-43 35q41 38 69 90h48l-25 -177h75q87 0 129.5 -39.5zM316 84q36 48 36 115q0 101 -118 101h-79l-35 -251q45 -13 81 -13q79 0 115 48z" />
<glyph unicode="&#x186;" horiz-adv-x="501" d="M408 630.5q52 -65.5 52 -188.5q1 -119 -36 -223t-107.5 -167t-164.5 -63q-54 0 -92 19t-69 53l34 35q32 -28 59 -42t69 -14q78 0 134.5 58t85 150.5t28.5 194.5q0 104 -37.5 153.5t-101.5 49.5q-41 0 -75 -12.5t-72 -38.5l-27 39q40 31 82.5 46.5t96.5 15.5 q89 0 141 -65.5z" />
<glyph unicode="&#x187;" horiz-adv-x="493" d="M699 789l-27 -35q-16 12 -29.5 17.5t-33.5 5.5q-29 0 -48.5 -19.5t-24.5 -59.5l-9 -66l-31 -31q-30 23 -58 34t-63 11q-86 0 -143 -62t-83 -154.5t-26 -184.5q0 -102 40.5 -153.5t108.5 -51.5q43 0 75.5 15t68.5 43l28 -40q-82 -69 -176 -69t-149.5 67.5t-55.5 190.5 q0 105 33 208.5t103 172t173 68.5q60 0 104 -29l5 36q8 58 41 89.5t85 31.5q50 0 92 -35z" />
<glyph unicode="&#x188;" horiz-adv-x="422" d="M607 708l-26 -35q-16 12 -30 17.5t-34 5.5q-29 0 -48.5 -19.5t-25.5 -61.5l-18 -135l-27 -29q-25 17 -48.5 26t-53.5 9q-65 0 -106.5 -46.5t-60.5 -115.5t-19 -138q0 -74 29 -111t82 -37q31 0 58 11t57 33l24 -39q-66 -54 -143 -54t-121.5 52.5t-44.5 147.5 q0 79 26 158.5t81 133t136 53.5q46 0 80 -21l15 104q9 62 42 94t85 32t91 -35z" />
<glyph unicode="&#x189;" horiz-adv-x="582" d="M474.5 631q67.5 -54 67.5 -188q0 -119 -34.5 -219t-110.5 -162t-195 -62h-136l46 330h-78l6 46h79l43 309h133q112 0 179.5 -54zM369 106.5q61 57.5 87.5 147t26.5 190.5q0 110 -50 151t-135 41h-85l-36 -260h157l-7 -46h-157l-39 -281h80q97 0 158 57.5z" />
<glyph unicode="&#x18a;" horiz-adv-x="635" d="M527.5 631q67.5 -54 67.5 -188q0 -119 -34.5 -219t-110.5 -162t-195 -62h-136l89 637h-24q-37 0 -55.5 -21t-18.5 -57q0 -29 13 -62l-44 -19q-22 40 -22 83q0 55 34.5 89.5t97.5 34.5h159q112 0 179.5 -54zM422 106.5q61 57.5 87.5 147t26.5 190.5q0 110 -50 151t-135 41 h-85l-82 -587h80q97 0 158 57.5z" />
<glyph unicode="&#x18b;" horiz-adv-x="513" d="M379 0h-147q-95 0 -148.5 45t-53.5 139q0 110 68 171.5t185 61.5h96l31 218h-253l6 50h312zM328 49l45 320h-95q-90 0 -139 -48.5t-49 -136.5q0 -70 36 -102.5t111 -32.5h91z" />
<glyph unicode="&#x18c;" horiz-adv-x="523" d="M392 0h-48l8 104q-65 -115 -160 -115q-67 0 -104.5 51.5t-37.5 141.5q0 80 25 161.5t77 136t129 54.5q80 0 121 -70l32 226h-208l6 46h264zM394 409q-17 37 -42.5 57.5t-65.5 20.5q-60 0 -100 -48t-59 -119t-19 -140q0 -70 24.5 -107t69.5 -37q47 0 84 37t76 108z" />
<glyph unicode="&#x18d;" horiz-adv-x="512" d="M36 -148l32 33q26 -24 52.5 -34.5t60.5 -10.5q55 0 83 24.5t28 63.5q0 31 -20.5 52.5t-74.5 46.5q-75 35 -108.5 80.5t-33.5 118.5q0 66 24 137t78 121t137 50q78 0 122.5 -53t44.5 -142q0 -106 -43 -179t-147 -118q41 -25 59.5 -51t18.5 -61q0 -36 -19 -67t-57 -50 t-92 -19q-87 0 -145 58zM366.5 176.5q36.5 67.5 36.5 165.5q0 67 -29 105.5t-82 38.5q-65 0 -105.5 -43.5t-57 -103.5t-16.5 -114q0 -59 26.5 -96t93.5 -68q97 48 133.5 115.5z" />
<glyph unicode="&#x18e;" horiz-adv-x="459" d="M105 685h315l-96 -685h-321l7 49h263l40 282h-218l7 48h217l36 257h-257z" />
<glyph unicode="&#x18f;" horiz-adv-x="583" d="M493 637.5q51 -58.5 51 -177.5q0 -121 -33.5 -229t-101.5 -175t-167 -67q-91 0 -141.5 62t-50.5 177q0 35 5 75.5t12 71.5l413 -1q5 41 5 87q0 97 -35.5 141t-104.5 44q-48 0 -90 -17t-87 -52l-28 38q51 42 101 61.5t108 19.5q93 0 144 -58.5zM385.5 106 q59.5 68 86.5 217h-358q-8 -56 -8 -97q0 -188 137 -188q83 0 142.5 68z" />
<glyph unicode="&#x190;" horiz-adv-x="471" d="M414 675q42 -21 78 -64l-37 -33q-30 34 -63.5 51t-76.5 17q-66 0 -105.5 -41.5t-39.5 -106.5q0 -51 31.5 -78.5t87.5 -27.5h51l-14 -50h-45q-84 1 -133 -46.5t-49 -129.5q0 -61 33 -93.5t92 -32.5q90 0 169 76l32 -36q-91 -91 -205 -91q-82 0 -132 47.5t-50 128.5 q0 86 49 141.5t126 63.5q-48 12 -75 44.5t-27 83.5q0 57 26.5 102t73 70.5t104.5 25.5q57 0 99 -21z" />
<glyph unicode="&#x191;" horiz-adv-x="430" d="M208 636l-37 -269h211l-7 -48h-211l-45 -319l-12 -79q-9 -62 -44 -94t-86 -32q-52 0 -91 35l27 36q16 -11 29.5 -16.5t32.5 -5.5q29 0 49 19.5t26 60.5l11 76l96 685h309l-14 -49h-244z" />
<glyph unicode="&#x192;" horiz-adv-x="287" d="M236.5 674q-23.5 -22 -30.5 -68l-12 -83h124l-14 -46h-116l-65 -465q-9 -67 -28 -105.5t-48 -61.5t-81 -48l-16 42q38 19 59.5 37.5t36 51t22.5 87.5l64 462h-81l7 46h81l12 88q8 62 47.5 97t100.5 35q30 0 55.5 -8.5t52.5 -26.5l-22 -38q-23 14 -42.5 20t-42.5 6 q-40 0 -63.5 -22z" />
<glyph unicode="&#x193;" horiz-adv-x="513" d="M719 789l-27 -35q-15 11 -29 17t-34 6q-29 0 -48.5 -20t-25.5 -63l-9 -67l-33 -29q-32 25 -63 36.5t-71 11.5q-84 0 -141.5 -59t-86 -152.5t-28.5 -196.5q0 -100 40 -149.5t116 -49.5q67 0 134 36l34 244h-117l1 50h181l-45 -322q-92 -58 -193 -58q-100 0 -155.5 65 t-55.5 189q0 114 36 218t107.5 169.5t172.5 65.5q67 0 116 -33l5 36q9 61 42 93t85 32q50 0 92 -35z" />
<glyph unicode="&#x194;" horiz-adv-x="497" d="M253 59q18 -56 25 -88.5t7 -63.5q0 -52 -27.5 -82t-72.5 -30q-37 0 -57 21t-20 57t18.5 78t60.5 111l-111 623h60l89 -581l254 581h61zM228 -45q-4 25 -14 66q-27 -48 -40.5 -83t-13.5 -62q0 -34 28 -34q21 0 32.5 17t11.5 47q0 24 -4 49z" />
<glyph unicode="&#x195;" horiz-adv-x="796" d="M396 25.5q-35 36.5 -35 96.5q0 9 2 29l31 221q3 20 3 35q0 79 -66 79q-47 0 -91 -46t-83 -122l-44 -318h-56l104 736l56 7l-48 -342q74 133 172 133q53 0 82.5 -32.5t29.5 -90.5q0 -16 -3 -36l-31 -224q-2 -18 -2 -27q0 -43 21.5 -65t61.5 -22q102 0 141 117t39 277 q0 53 -4 92h54q5 -52 5 -95q0 -189 -54 -314t-185 -125q-65 0 -100 36.5z" />
<glyph unicode="&#x196;" horiz-adv-x="300" d="M263 22q-45 -33 -96 -33q-47 0 -74 26t-27 75q0 8 2 28l10 76l70 491h57l-69 -491l-11 -81q-1 -7 -1 -20q0 -55 48 -55q21 0 36.5 5.5t32.5 16.5z" />
<glyph unicode="&#x197;" horiz-adv-x="284" d="M278 385l-6 -49h-88l-47 -336h-58l47 336h-94l7 49h94l42 300h58l-42 -300h87z" />
<glyph unicode="&#x198;" horiz-adv-x="529" d="M174 367l204 253q34 43 60 59.5t61 16.5q27 0 45.5 -10t36.5 -29l-32 -32q-13 12 -23.5 17t-25.5 5q-21 0 -37.5 -11.5t-46.5 -48.5l-177 -220l218 -367h-67zM61 0l96 685h58l-96 -685h-58z" />
<glyph unicode="&#x199;" horiz-adv-x="476" d="M414.5 314.5q-40.5 -47.5 -119.5 -76.5l104 -238h-61l-108 254q85 26 126 67t41 101q0 31 -16 48.5t-47 17.5q-48 0 -93.5 -47.5t-85.5 -135.5l-42 -305h-56l73 522l13 91q8 61 47 95.5t100 34.5q59 0 109 -29l-22 -40q-41 21 -85 21q-81 0 -94 -89l-12 -84l-17 -127 q74 139 176 139q50 0 80 -30t30 -78q0 -64 -40.5 -111.5z" />
<glyph unicode="&#x19a;" horiz-adv-x="267" d="M136 84q-1 -5 -1 -14q0 -17 7 -24.5t23 -7.5q12 0 34 6l12 -41q-28 -14 -57 -14q-35 0 -54.5 19.5t-19.5 56.5q0 8 2 24l36 259h-92l7 48h92l48 340l56 7l-49 -347h92l-6 -48h-93z" />
<glyph unicode="&#x19b;" horiz-adv-x="423" d="M320.5 251q13.5 -88 31 -137.5t46.5 -102.5l-53 -19q-28 56 -45.5 107t-30.5 137t-17 221l-206 -466l-54 14l235 510l22 -4q-3 71 -17 110l-72 -71l-36 20l88 89q-26 31 -79 44l11 41q68 -18 102 -55l71 72l29 -30l-77 -78q14 -28 21.5 -68.5t10.5 -101.5 q6 -144 19.5 -232z" />
<glyph unicode="&#x19c;" horiz-adv-x="831" d="M792 685l-96 -685h-50l7 88q-34 -47 -75.5 -73t-87.5 -26q-51 0 -82 28t-39 79q-78 -107 -173 -107q-59 0 -91 37.5t-32 102.5q0 21 3 43l72 513h58l-73 -518q-3 -19 -3 -37q0 -45 19.5 -68t57.5 -23q46 0 84 29.5t76 86.5q0 6 2 20l72 510h58l-72 -516q-3 -21 -3 -38 q0 -45 19.5 -68.5t57.5 -23.5q45 0 83.5 29.5t75.5 85.5l75 531h57z" />
<glyph unicode="&#x19d;" horiz-adv-x="603" d="M565 685l-97 -685h-75l-198 632q-5 -93 -26 -248l-53 -384l-12 -80q-9 -61 -43.5 -93t-84.5 -32t-89 35l27 35q15 -11 28.5 -16.5t33.5 -5.5q29 0 48.5 20t25.5 61l11 76l96 685h76l199 -631q3 88 20 214l58 417h55z" />
<glyph unicode="&#x19e;" horiz-adv-x="523" d="M423.5 501.5q29.5 -32.5 29.5 -91.5q0 -16 -3 -36l-81 -573l-57 -7l82 578q3 20 3 35q0 79 -67 79q-46 0 -90 -46t-83 -122l-44 -318h-56l74 523h47l-13 -125q80 136 177 136q52 0 81.5 -32.5z" />
<glyph unicode="&#x19f;" horiz-adv-x="624" d="M528 630q55 -66 55 -190q0 -104 -31.5 -207.5t-102 -173.5t-178.5 -70q-97 0 -152.5 67t-55.5 190q0 101 32 205t102.5 174.5t178.5 70.5q97 0 152 -66zM216 568q-58 -79 -81 -195h386q4 33 4 70q0 103 -39 153.5t-113 50.5q-99 0 -157 -79zM436 122q59 83 79 205h-388 q-5 -48 -5 -83q0 -103 39.5 -154t111.5 -51q104 0 163 83z" />
<glyph unicode="&#x1a0;" horiz-adv-x="630" d="M550 597q33 -63 33 -157q0 -104 -31.5 -207.5t-102 -173.5t-178.5 -70q-97 0 -152.5 67t-55.5 190q0 101 32.5 204.5t103 174.5t177.5 71q98 0 152 -66q35 7 49.5 26.5t14.5 55.5q0 29 -6 47l43 9q9 -23 9 -57q0 -95 -88 -114zM420 104q56 65 79.5 158t23.5 181 q0 102 -38.5 153t-111.5 51q-88 0 -144 -65t-81 -157.5t-25 -180.5q0 -102 39.5 -153.5t110.5 -51.5q91 0 147 65z" />
<glyph unicode="&#x1a1;" horiz-adv-x="527" d="M449 430q15 -40 15 -95q0 -77 -25 -157t-80 -134.5t-141 -54.5q-80 0 -123.5 53t-43.5 147q0 78 25 157.5t80.5 133.5t140.5 54q92 0 136 -70q35 7 50 26.5t15 55.5q0 25 -6 49l43 9q9 -29 9 -59q0 -97 -95 -115zM327.5 85.5q41.5 48.5 60 118t18.5 135.5q0 73 -28 110.5 t-82 37.5q-67 0 -109 -49t-60 -118t-18 -135q0 -73 28.5 -110.5t82.5 -37.5q66 0 107.5 48.5z" />
<glyph unicode="&#x1a2;" horiz-adv-x="814" d="M731.5 668.5q28.5 -28.5 28.5 -78.5q0 -19 -2 -29l-106 -758h-58l107 759q2 18 2 25q0 63 -64 63q-47 0 -102 -32q46 -68 46 -178q0 -104 -31.5 -207.5t-102 -173.5t-178.5 -70q-97 0 -152.5 67t-55.5 190q0 101 32.5 204.5t103 174.5t177.5 71q80 0 132 -46 q71 47 138 47q57 0 85.5 -28.5zM420 104q56 65 79.5 158t23.5 181q0 102 -38.5 153t-111.5 51q-88 0 -144 -65t-81 -157.5t-25 -180.5q0 -102 39.5 -153.5t110.5 -51.5q91 0 147 65z" />
<glyph unicode="&#x1a3;" horiz-adv-x="685" d="M588.5 504.5q28.5 -29.5 28.5 -79.5q0 -8 -2 -28l-84 -596l-57 -7l85 607q2 18 2 24q0 62 -62 62q-37 0 -74 -16q36 -53 36 -136q0 -77 -25 -157t-79.5 -134.5t-139.5 -54.5q-79 0 -122.5 53t-43.5 147q0 78 25 157.5t80.5 133.5t139.5 54q58 0 97 -30q57 30 112 30 t83.5 -29.5zM324.5 85.5q41.5 48.5 60 118t18.5 135.5q0 73 -28 110.5t-81 37.5q-66 0 -107.5 -49t-59.5 -118.5t-18 -134.5q0 -73 28 -110.5t81 -37.5q65 0 106.5 48.5z" />
<glyph unicode="&#x1a4;" horiz-adv-x="567" d="M512 642.5q53 -42.5 53 -127.5q0 -66 -25.5 -121.5t-85 -91t-155.5 -35.5h-86l-37 -267h-58l89 637h-23q-37 0 -55.5 -21t-18.5 -57q0 -29 13 -62l-44 -19q-22 40 -22 83q0 55 34.5 89.5t97.5 34.5h171q99 0 152 -42.5zM459.5 373q45.5 57 45.5 142q0 65 -37.5 93.5 t-112.5 28.5h-90l-45 -321h83q111 0 156.5 57z" />
<glyph unicode="&#x1a5;" horiz-adv-x="518" d="M431.5 486q36.5 -48 36.5 -137q0 -85 -25 -167t-81.5 -137.5t-144.5 -55.5q-52 0 -103 21l-29 -209l-57 -7l102 728l13 91q8 61 47 95.5t100 34.5q59 0 109 -29l-22 -40q-41 21 -85 21q-81 0 -94 -89l-12 -84h1l-9 -68q33 40 69.5 60t79.5 20q68 0 104.5 -48zM329 85.5 q43 49.5 62.5 122t19.5 144.5q0 135 -95 135q-40 0 -76 -23.5t-71 -65.5l-48 -341q47 -21 97 -21q68 0 111 49.5z" />
<glyph unicode="&#x1a6;" horiz-adv-x="529" d="M446.5 271.5q-40.5 -58.5 -124.5 -80.5l124 -318h-62l-118 308h-122l-25 -181h-58l96 685h58l-18 -127h91q199 0 199 -155q0 -73 -40.5 -131.5zM250 229q94 0 135 51t41 122q0 56 -32.5 82t-105.5 26h-98l-39 -281h99z" />
<glyph unicode="&#x1a7;" horiz-adv-x="473" d="M433.5 657.5q41.5 -38.5 41.5 -102.5q0 -58 -23.5 -97t-68 -65.5t-115.5 -51.5q-64 -22 -101 -46.5t-54.5 -58.5t-17.5 -85q0 -54 31.5 -83t85.5 -29q50 0 92.5 19t82.5 53l30 -38q-92 -84 -209 -84q-78 0 -125.5 44t-47.5 117q0 92 52 147.5t160 91.5q61 20 96.5 40 t54 49.5t18.5 75.5q0 45 -26 68.5t-74 23.5q-45 0 -82 -14.5t-79 -46.5l-29 37q47 38 92.5 56t101.5 18q72 0 113.5 -38.5z" />
<glyph unicode="&#x1a8;" horiz-adv-x="420" d="M349 500.5q38 -33.5 38 -85.5q0 -54 -32.5 -93.5t-126.5 -68.5q-61 -18 -92.5 -38.5t-41 -42.5t-9.5 -52q0 -39 26 -60.5t68 -21.5q43 0 80 14t73 42l27 -38q-82 -67 -182 -67q-67 0 -109.5 35t-42.5 95t39 102.5t139 73.5q54 16 81.5 34.5t36 38.5t8.5 46q0 34 -23 53.5 t-60 19.5q-33 0 -64 -12t-65 -37l-24 37q75 59 157 59q61 0 99 -33.5z" />
<glyph unicode="&#x1a9;" horiz-adv-x="449" d="M465 685l-6 -50h-295l151 -283l-3 -33l-226 -269h290l-7 -50h-362l5 42l249 298l-164 303l5 42h363z" />
<glyph unicode="&#x1aa;" horiz-adv-x="266" d="M264 -172q-40 -33 -95 -33q-48 0 -75 26.5t-27 75.5q0 8 2 28l10 75l72 514q-28 -13 -55 -13q-39 0 -64.5 26.5t-25.5 71.5q0 42 16.5 75t45 51t62.5 18q43 0 68 -25.5t25 -70.5q0 -8 -2 -28l-86 -619l-11 -82q-1 -7 -1 -20q0 -56 51 -56q20 0 35 5.5t33 16.5zM157 559 l10 69q1 7 1 20q0 49 -40 49q-30 0 -48.5 -27.5t-18.5 -69.5q0 -53 45 -53q25 0 51 12z" />
<glyph unicode="&#x1ab;" horiz-adv-x="309" d="M131 119q-2 -16 -2 -23q0 -59 55 -59q34 0 77 19l17 -35l-14 -102q-9 -62 -44 -93t-86 -31t-90 35l27 34q16 -12 29.5 -17.5t33.5 -5.5q30 0 50.5 19.5t26.5 60.5l11 76q-24 -8 -48 -8q-47 0 -74 27t-27 77q0 8 2 28l50 356h-79l7 46h80l28 127l45 5l-18 -132h119 l-13 -46h-113z" />
<glyph unicode="&#x1ac;" horiz-adv-x="473" d="M510 633h-179l-88 -633h-58l89 633h-90q-37 0 -55.5 -20t-18.5 -54q0 -29 13 -62l-44 -19q-22 40 -22 83q0 55 34.5 89.5t96.5 34.5h336z" />
<glyph unicode="&#x1ad;" horiz-adv-x="309" d="M188 524v-1h119l-13 -46h-113l-50 -358q-2 -16 -2 -23q0 -59 55 -59q34 0 75 24l19 -40q-50 -32 -103 -32q-48 0 -75 27t-27 77q0 8 2 28l50 356h-79l7 46h79v1l12 86q9 66 44.5 99.5t90.5 33.5q52 0 95 -34l-26 -35q-34 22 -67 22q-68 0 -81 -88z" />
<glyph unicode="&#x1ae;" horiz-adv-x="446" d="M203 -81q-1 -7 -1 -20q0 -55 48 -55q21 0 36.5 5.5t32.5 16.5l22 -38q-45 -33 -96 -33q-47 0 -74 26t-27 75q0 8 2 28l10 76h1l89 633h-181l7 52h424l-14 -52h-178l-89 -633h-1z" />
<glyph unicode="&#x1af;" horiz-adv-x="591" d="M541 594l-56 -402q-13 -90 -73 -146.5t-157 -56.5q-88 0 -133.5 46.5t-45.5 122.5q0 19 3 38l69 489h57l-68 -489q-3 -19 -3 -36q0 -57 30.5 -88.5t93.5 -31.5q74 0 117 44t53 116l68 485h58l-7 -52q29 7 41.5 26t12.5 53q0 29 -6 47l43 9q9 -23 9 -57q0 -104 -106 -117z " />
<glyph unicode="&#x1b0;" horiz-adv-x="539" d="M449 428l-61 -428h-46l14 127q-34 -65 -76.5 -101.5t-97.5 -36.5q-53 0 -82.5 32t-29.5 90q0 22 2 33l54 379h56l-53 -380q-3 -18 -3 -33q0 -74 65 -74q92 0 170 162l45 325h56l-8 -57q30 8 42.5 27t12.5 53q0 25 -6 49l43 9q9 -29 9 -59q0 -102 -106 -117z" />
<glyph unicode="&#x1b1;" horiz-adv-x="632" d="M122.5 55.5q-55.5 66.5 -55.5 185.5q0 125 44.5 231t138.5 164h-111l7 49h175l-7 -50q-99 -52 -143.5 -162.5t-44.5 -233.5q0 -99 39.5 -150t112.5 -51q83 0 139.5 59t83 148.5t26.5 181.5q0 77 -24.5 126.5t-72.5 82.5l7 49h174l-7 -50h-111q46 -35 69.5 -84.5 t23.5 -123.5q0 -107 -35 -207.5t-105.5 -165.5t-169.5 -65q-98 0 -153.5 66.5z" />
<glyph unicode="&#x1b2;" horiz-adv-x="574" d="M522 674.5q21 -21.5 21 -60.5q0 -6 -2 -22l-44 -314q-20 -138 -91 -213.5t-171 -75.5q-74 0 -117 44t-43 116q0 22 2 34l70 502h58l-70 -502q-2 -12 -2 -33q0 -53 27.5 -81.5t77.5 -28.5q77 0 131 63t71 184l43 310q1 5 1 14q0 37 -31 37q-16 0 -38 -9l-13 40 q29 17 62 17q37 0 58 -21.5z" />
<glyph unicode="&#x1b3;" horiz-adv-x="492" d="M207 267l-136 418h61l111 -364l158 290q25 47 51 66t64 19q50 0 87 -41l-28 -31q-15 12 -28 18.5t-28 6.5q-22 0 -37 -12t-33 -43l-183 -326l-38 -268h-59z" />
<glyph unicode="&#x1b4;" horiz-adv-x="423" d="M-12 -161q49 13 79 31.5t51 48t44 81.5h-22l-87 523h58l72 -480l175 448q17 42 39 61t57 19q26 0 54 -15l-20 -40q-14 8 -30 8q-18 0 -29.5 -10.5t-20.5 -34.5l-193 -480q-26 -65 -55 -104.5t-69 -62.5t-100 -36z" />
<glyph unicode="&#x1b5;" horiz-adv-x="462" d="M480 685l-7 -48l-187 -269h92l-8 -47h-117l-188 -270l321 1l-15 -52h-378l7 48l191 273h-96l8 47h120l186 266h-294l8 51h357z" />
<glyph unicode="&#x1b6;" horiz-adv-x="379" d="M386 523l-6 -44l-141 -189h79l-7 -46h-106l-146 -195h259l-13 -49h-318l6 44l149 200h-82l7 46h110l137 184h-239l8 49h303z" />
<glyph unicode="&#x1b7;" horiz-adv-x="443" d="M432 637l-237 -251h14q93 0 139.5 -42t46.5 -119q0 -69 -30 -122.5t-83 -83.5t-119 -30q-62 0 -103.5 22t-72.5 66l38 30q28 -36 59.5 -52t78.5 -16q78 0 125 51t47 134q0 61 -34 88t-100 27h-78l1 1l6 45l231 251h-275l7 49h345z" />
<glyph unicode="&#x1b8;" horiz-adv-x="444" d="M461 636h-280l165 -251l-6 -46h-74q-84 0 -131 -47.5t-47 -128.5q0 -59 31.5 -91.5t89.5 -32.5q50 0 87.5 16.5t76.5 52.5l32 -34q-43 -43 -90 -64t-109 -21q-81 0 -129 47.5t-48 125.5q0 67 29 118t81.5 78.5t121.5 27.5h28l-172 251l7 48h344z" />
<glyph unicode="&#x1b9;" horiz-adv-x="418" d="M415 475h-272l155 -276l-6 -44l-3 2l2 -2h-56q-89 0 -137 -49t-48 -136q0 -60 30 -93.5t87 -33.5q45 0 82.5 16.5t73.5 52.5l32 -32q-41 -43 -87 -64t-103 -21q-81 0 -127.5 48t-46.5 127q0 70 30 122t84.5 80t127.5 28h11l-161 279l6 44h333z" />
<glyph unicode="&#x1ba;" horiz-adv-x="408" d="M-22 -94q0 52 40.5 79.5t130.5 45.5q56 11 89 23.5t51 36t18 63.5q0 37 -20 54t-60 17h-132l6 45l210 205h-256l7 48h330l-6 -44l-219 -209h67q64 0 98 -29.5t34 -85.5q0 -74 -49.5 -112.5t-147.5 -57.5q-77 -15 -106 -32.5t-29 -48.5q0 -21 13.5 -37t43.5 -35l-23 -37 q-90 46 -90 111z" />
<glyph unicode="&#x1bb;" horiz-adv-x="431" d="M271 263q-62 -73 -202 -214l282 1l-16 -50h-338l7 49q136 141 200 214h-116l7 47h150q60 72 79 116.5t19 94.5q0 51 -26 79t-72 28q-41 0 -74.5 -19t-67.5 -57l-35 32q43 48 86.5 70t93.5 22q72 0 112.5 -42t40.5 -111q0 -52 -19 -99.5t-72 -113.5h96l-7 -47h-128z" />
<glyph unicode="&#x1bc;" horiz-adv-x="448" d="M3 73l38 31q24 -35 54.5 -51t72.5 -16q62 0 101.5 35.5t57 88t17.5 104.5q0 61 -27 90.5t-76 29.5q-30 0 -56.5 -8t-57.5 -24h-46l47 332h312l-15 -47h-250l-33 -240q54 33 113 33q70 0 108.5 -43.5t38.5 -122.5q0 -64 -24 -127.5t-77 -106t-135 -42.5q-106 0 -163 84z " />
<glyph unicode="&#x1bd;" horiz-adv-x="391" d="M347 475h-196l-23 -163q40 23 86 23q57 0 89.5 -36t33.5 -99q0 -60 -25 -108t-69 -75.5t-99 -27.5q-47 0 -80 17t-60 50l36 31q24 -26 47 -37t59 -11q57 0 94.5 45t37.5 115q0 44 -21 66.5t-58 22.5q-25 0 -45 -6t-46 -20l-41 1l37 260h260z" />
<glyph unicode="&#x1be;" horiz-adv-x="448" d="M386 243q0 -70 -28.5 -127.5t-79 -90t-113.5 -32.5q-54 0 -92.5 20.5t-72.5 61.5l34 29q29 -32 59 -47.5t72 -15.5q49 0 86 26.5t57 72.5t20 103q0 62 -28 93t-78 45l-59 16l23 161h-60l7 46h59l19 132l56 7l-19 -139h108l-6 -46h-109l-18 -131l28 -8q135 -37 135 -176z " />
<glyph unicode="&#x1bf;" horiz-adv-x="519" d="M440 494.5q37 -39.5 37 -109.5q0 -84 -38.5 -149t-101 -113t-153.5 -96l-73 -38l-27 -187l-56 -8l103 729h48l-6 -74q37 41 77.5 63t90.5 22q62 0 99 -39.5zM355.5 209.5q61.5 71.5 61.5 175.5q0 50 -22.5 75.5t-64.5 25.5q-45 0 -84.5 -23.5t-77.5 -67.5l-50 -355l60 34 q116 64 177.5 135.5z" />
<glyph unicode="&#x1c0;" horiz-adv-x="249" d="M218 743l-105 -743h-52l104 736z" />
<glyph unicode="&#x1c1;" horiz-adv-x="401" d="M218 743l-105 -743h-52l104 736zM371 743l-105 -743h-52l104 736z" />
<glyph unicode="&#x1c2;" horiz-adv-x="284" d="M285 419h-96l-15 -107h95l-6 -42h-95l-38 -270h-52l38 270h-92l5 42h93l15 107h-92l6 42h92l39 275l53 7l-40 -282h95z" />
<glyph unicode="&#x1c3;" horiz-adv-x="287" d="M237 743l-76 -543h-52l76 536zM77.5 1q-11.5 12 -11.5 30q0 21 14 35.5t35 14.5q20 0 31 -11.5t11 -29.5q0 -21 -14 -36t-35 -15q-19 0 -30.5 12z" />
<glyph unicode="&#x1c4;" horiz-adv-x="1014" d="M469.5 631q67.5 -54 67.5 -188q0 -119 -34.5 -219t-110.5 -162t-195 -62h-136l96 685h133q112 0 179.5 -54zM208 636l-82 -587h80q97 0 158 57.5t87.5 147t26.5 190.5q0 110 -50 151t-135 41h-85zM545 0l7 48l409 586h-294l8 51h357l-7 -48l-407 -586l320 1l-15 -52h-378 zM982 886l24 -28l-131 -102h-35l-102 103l26 27l98 -79z" />
<glyph unicode="&#x1c5;" horiz-adv-x="946" d="M469.5 631q67.5 -54 67.5 -188q0 -119 -34.5 -219t-110.5 -162t-195 -62h-136l96 685h133q112 0 179.5 -54zM208 636l-82 -587h80q97 0 158 57.5t87.5 147t26.5 190.5q0 110 -50 151t-135 41h-85zM953 523l-6 -44l-319 -430h257l-13 -49h-318l6 44l319 430h-237l8 49h303 zM940 767l23 -28l-131 -106h-35l-102 106l27 28l96 -83z" />
<glyph unicode="&#x1c6;" horiz-adv-x="902" d="M496 736l-104 -736h-48l8 104q-65 -115 -160 -115q-67 0 -104.5 51.5t-37.5 141.5q0 80 25 161.5t77 136t129 54.5q80 0 121 -70l38 279zM186 439q-40 -48 -59 -119t-19 -140q0 -70 24.5 -107t69.5 -37q47 0 84 37t76 108l32 228q-17 37 -42.5 57.5t-65.5 20.5 q-60 0 -100 -48zM909 523l-6 -44l-319 -430h257l-13 -49h-318l6 44l319 430h-237l8 49h303zM896 767l23 -28l-131 -106h-35l-102 106l27 28l96 -83z" />
<glyph unicode="&#x1c7;" horiz-adv-x="671" d="M215 685l-89 -632h257l-16 -53h-306l96 685h58zM553 89q-8 -61 -27.5 -98.5t-52.5 -61.5t-90 -48l-13 43q45 22 69.5 43t37 50.5t19.5 77.5l83 590h58z" />
<glyph unicode="&#x1c8;" horiz-adv-x="652" d="M215 685l-89 -632h257l-16 -53h-306l96 685h58zM350 -161q37 18 59 37t36.5 51t22.5 88l71 508h56l-72 -511q-9 -66 -28 -105t-48 -62t-81 -48zM562.5 680q-10.5 10 -10.5 27q0 19 13 32t32 13q17 0 27 -10.5t10 -26.5q0 -19 -12.5 -32t-31.5 -13q-17 0 -27.5 10z" />
<glyph unicode="&#x1c9;" horiz-adv-x="499" d="M119 84q-1 -5 -1 -14q0 -17 7 -24.5t23 -7.5q12 0 34 6l12 -41q-28 -14 -57 -14q-35 0 -54.5 19.5t-19.5 56.5q0 8 2 24l91 647l56 7zM197 -161q37 18 59 37t36.5 51t22.5 88l71 508h56l-72 -511q-9 -66 -28 -105t-48 -62t-81 -48zM408.5 680q-10.5 10 -10.5 27 q0 19 13 32t32 13q17 0 27 -10.5t10 -26.5q0 -19 -12.5 -32t-31.5 -13q-17 0 -27.5 10z" />
<glyph unicode="&#x1ca;" horiz-adv-x="868" d="M468 0h-75l-198 632q-5 -93 -26 -248l-53 -384h-55l96 685h76l199 -631q3 88 20 214l58 417h55zM750 89q-8 -61 -27.5 -98.5t-52.5 -61.5t-90 -48l-13 43q45 22 69.5 43t37 50.5t19.5 77.5l83 590h58z" />
<glyph unicode="&#x1cb;" horiz-adv-x="847" d="M468 0h-75l-198 632q-5 -93 -26 -248l-53 -384h-55l96 685h76l199 -631q3 88 20 214l58 417h55zM545 -161q37 18 59 37t36.5 51t22.5 88l71 508h56l-72 -511q-9 -66 -28 -105t-48 -62t-81 -48zM757.5 680q-10.5 10 -10.5 27q0 19 13 32t32 13q17 0 27 -10.5t10 -26.5 q0 -19 -12.5 -32t-31.5 -13q-17 0 -27.5 10z" />
<glyph unicode="&#x1cc;" horiz-adv-x="767" d="M423.5 501.5q29.5 -32.5 29.5 -91.5q0 -16 -3 -36l-53 -374h-56l53 372q3 20 3 35q0 79 -66 79q-47 0 -91 -46t-83 -122l-44 -318h-56l74 523h47l-13 -125q80 136 177 136q52 0 81.5 -32.5zM465 -161q37 18 59 37t36.5 51t22.5 88l71 508h56l-72 -511q-9 -66 -28 -105 t-48 -62t-81 -48zM676.5 680q-10.5 10 -10.5 27q0 19 13 32t32 13q17 0 27 -10.5t10 -26.5q0 -19 -12.5 -32t-31.5 -13q-17 0 -27.5 10z" />
<glyph unicode="&#x1cd;" horiz-adv-x="514" d="M400 0l-27 188h-254l-79 -188h-60l300 685h73l107 -685h-60zM140 237h226l-57 400zM451 886l24 -28l-131 -102h-35l-102 103l26 27l98 -79z" />
<glyph unicode="&#x1ce;" horiz-adv-x="511" d="M383 524q35 -10 71 -30l-54 -380q-4 -30 -4 -38q0 -18 6.5 -29t21.5 -18l-18 -40q-31 9 -46.5 29.5t-14.5 61.5q-64 -91 -148 -91q-69 0 -108 51t-39 139q0 83 27 164.5t84.5 136t144.5 54.5q42 0 77 -10zM194.5 441q-44.5 -47 -65.5 -118t-21 -143q0 -71 25 -107.5 t73 -36.5q41 0 75.5 27.5t66.5 79.5l46 324q-39 21 -88 21q-67 0 -111.5 -47zM451 767l23 -28l-131 -106h-35l-102 106l27 28l96 -83z" />
<glyph unicode="&#x1cf;" horiz-adv-x="254" d="M215 685l-96 -685h-58l96 685h58zM322 886l24 -28l-131 -102h-35l-102 103l26 27l98 -79z" />
<glyph unicode="&#x1d0;" horiz-adv-x="243" d="M187 523l-74 -523h-56l74 523h56zM297 767l23 -28l-131 -106h-35l-102 106l27 28l96 -83z" />
<glyph unicode="&#x1d1;" horiz-adv-x="624" d="M528 630q55 -66 55 -190q0 -104 -31.5 -207.5t-102 -173.5t-178.5 -70q-97 0 -152.5 67t-55.5 190q0 101 32.5 204.5t103 174.5t177.5 71q97 0 152 -66zM229 582q-56 -65 -81 -157.5t-25 -180.5q0 -102 39.5 -153.5t110.5 -51.5q91 0 147 65t79.5 158t23.5 181 q0 102 -38.5 153t-111.5 51q-88 0 -144 -65zM512 886l24 -28l-131 -102h-35l-102 103l26 27l98 -79z" />
<glyph unicode="&#x1d2;" horiz-adv-x="515" d="M94.5 42q-43.5 53 -43.5 147q0 78 25 157.5t80.5 133.5t140.5 54q80 0 123.5 -52.5t43.5 -146.5q0 -77 -25 -157t-80 -134.5t-141 -54.5q-80 0 -123.5 53zM327.5 85.5q41.5 48.5 60 118t18.5 135.5q0 73 -28 110.5t-82 37.5q-67 0 -109 -49t-60 -118t-18 -135 q0 -73 28.5 -110.5t82.5 -37.5q66 0 107.5 48.5zM436 767l23 -28l-131 -106h-35l-102 106l27 28l96 -83z" />
<glyph unicode="&#x1d3;" horiz-adv-x="583" d="M485 192q-13 -90 -73 -146.5t-157 -56.5q-88 0 -133.5 46.5t-45.5 122.5q0 19 3 38l69 489h57l-68 -489q-3 -19 -3 -36q0 -57 30.5 -88.5t93.5 -31.5q74 0 117 44t53 116l68 485h58zM486 886l24 -28l-131 -102h-35l-102 103l26 27l98 -79z" />
<glyph unicode="&#x1d4;" horiz-adv-x="519" d="M99.5 21q-29.5 32 -29.5 90q0 22 2 33l54 379h56l-53 -380q-3 -18 -3 -33q0 -74 65 -74q92 0 170 162l45 325h56l-74 -523h-46l14 127q-34 -65 -76.5 -101.5t-97.5 -36.5q-53 0 -82.5 32zM433 767l23 -28l-131 -106h-35l-102 106l27 28l96 -83z" />
<glyph unicode="&#x1d5;" horiz-adv-x="583" d="M485 192q-13 -90 -73 -146.5t-157 -56.5q-88 0 -133.5 46.5t-45.5 122.5q0 19 3 38l69 489h57l-68 -489q-3 -19 -3 -36q0 -57 30.5 -88.5t93.5 -31.5q74 0 117 44t53 116l68 485h58zM246 754.5q-9 9.5 -9 23.5q0 19 12 31t29 12q15 0 25 -9.5t10 -24.5q0 -18 -12 -30 t-30 -12q-16 0 -25 9.5zM417.5 754.5q-9.5 9.5 -9.5 23.5q0 19 12 31t30 12q15 0 24.5 -10t9.5 -24q0 -18 -12 -30t-30 -12q-15 0 -24.5 9.5zM480 877h-218l7 46h218z" />
<glyph unicode="&#x1d6;" horiz-adv-x="519" d="M99.5 21q-29.5 32 -29.5 90q0 22 2 33l54 379h56l-53 -380q-3 -18 -3 -33q0 -74 65 -74q92 0 170 162l45 325h56l-74 -523h-46l14 127q-34 -65 -76.5 -101.5t-97.5 -36.5q-53 0 -82.5 32zM197 643.5q-9 9.5 -9 23.5q0 19 12 31t29 12q15 0 25 -9.5t10 -24.5 q0 -18 -12 -30t-30 -12q-16 0 -25 9.5zM368.5 643.5q-9.5 9.5 -9.5 23.5q0 19 12 31t30 12q15 0 24.5 -10t9.5 -24q0 -18 -12 -30t-30 -12q-15 0 -24.5 9.5zM430 772h-218l7 46h218z" />
<glyph unicode="&#x1d7;" horiz-adv-x="583" d="M485 192q-13 -90 -73 -146.5t-157 -56.5q-88 0 -133.5 46.5t-45.5 122.5q0 19 3 38l69 489h57l-68 -489q-3 -19 -3 -36q0 -57 30.5 -88.5t93.5 -31.5q74 0 117 44t53 116l68 485h58zM457 970l34 -35l-127 -121l-23 22zM246.5 754.5q-9.5 9.5 -9.5 24.5q0 18 12 30t30 12 q15 0 24.5 -9.5t9.5 -23.5q0 -19 -12 -31t-30 -12q-15 0 -24.5 9.5zM417.5 754.5q-9.5 9.5 -9.5 24.5q0 18 12 30t30 12q15 0 24.5 -9.5t9.5 -23.5q0 -19 -12 -31t-30 -12q-15 0 -24.5 9.5z" />
<glyph unicode="&#x1d8;" horiz-adv-x="519" d="M99.5 21q-29.5 32 -29.5 90q0 22 2 33l54 379h56l-53 -380q-3 -18 -3 -33q0 -74 65 -74q92 0 170 162l45 325h56l-74 -523h-46l14 127q-34 -65 -76.5 -101.5t-97.5 -36.5q-53 0 -82.5 32zM405 859l34 -35l-127 -121l-23 22zM196.5 643.5q-9.5 9.5 -9.5 24.5q0 18 12 30 t29 12q16 0 25.5 -9.5t9.5 -23.5q0 -19 -12 -31t-30 -12q-15 0 -24.5 9.5zM367.5 644q-9.5 10 -9.5 24q0 18 12 30t30 12q15 0 24.5 -9.5t9.5 -23.5q0 -19 -12 -31t-30 -12q-15 0 -24.5 10z" />
<glyph unicode="&#x1d9;" horiz-adv-x="583" d="M485 192q-13 -90 -73 -146.5t-157 -56.5q-88 0 -133.5 46.5t-45.5 122.5q0 19 3 38l69 489h57l-68 -489q-3 -19 -3 -36q0 -57 30.5 -88.5t93.5 -31.5q74 0 117 44t53 116l68 485h58zM490 958l24 -28l-131 -102h-35l-102 103l26 27l98 -79zM247.5 754.5 q-9.5 9.5 -9.5 24.5q0 18 12 30t30 12q15 0 24.5 -9.5t9.5 -23.5q0 -19 -12 -31t-30 -12q-15 0 -24.5 9.5zM418.5 754.5q-9.5 9.5 -9.5 24.5q0 18 12 30t30 12q16 0 25 -9t9 -24q0 -19 -11.5 -31t-29.5 -12q-16 0 -25.5 9.5z" />
<glyph unicode="&#x1da;" horiz-adv-x="519" d="M99.5 21q-29.5 32 -29.5 90q0 22 2 33l54 379h56l-53 -380q-3 -18 -3 -33q0 -74 65 -74q92 0 170 162l45 325h56l-74 -523h-46l14 127q-34 -65 -76.5 -101.5t-97.5 -36.5q-53 0 -82.5 32zM438 847l24 -28l-131 -102h-35l-102 103l26 27l98 -79zM196.5 644 q-9.5 10 -9.5 24q0 18 12 30t30 12q15 0 24.5 -9.5t9.5 -23.5q0 -19 -12 -31t-30 -12q-15 0 -24.5 10zM368 644q-10 10 -10 24q0 18 12 30t30 12q16 0 25 -9t9 -24q0 -19 -11.5 -31t-29.5 -12q-15 0 -25 10z" />
<glyph unicode="&#x1db;" horiz-adv-x="583" d="M485 192q-13 -90 -73 -146.5t-157 -56.5q-88 0 -133.5 46.5t-45.5 122.5q0 19 3 38l69 489h57l-68 -489q-3 -19 -3 -36q0 -57 30.5 -88.5t93.5 -31.5q74 0 117 44t53 116l68 485h58zM308 969l80 -136l-27 -19l-94 124zM247.5 754.5q-9.5 9.5 -9.5 24.5q0 18 12 30t30 12 q15 0 24.5 -9.5t9.5 -23.5q0 -19 -12 -31t-30 -12q-15 0 -24.5 9.5zM418.5 754.5q-9.5 9.5 -9.5 24.5q0 18 12 30t30 12q15 0 24.5 -9.5t9.5 -23.5q0 -19 -12 -31t-30 -12q-15 0 -24.5 9.5z" />
<glyph unicode="&#x1dc;" horiz-adv-x="519" d="M99.5 21q-29.5 32 -29.5 90q0 22 2 33l54 379h56l-53 -380q-3 -18 -3 -33q0 -74 65 -74q92 0 170 162l45 325h56l-74 -523h-46l14 127q-34 -65 -76.5 -101.5t-97.5 -36.5q-53 0 -82.5 32zM258 858l80 -136l-27 -19l-94 124zM199.5 644q-9.5 10 -9.5 24q0 18 12 30t30 12 q15 0 24.5 -9.5t9.5 -23.5q0 -19 -12 -31t-30 -12q-15 0 -24.5 10zM370.5 644q-9.5 10 -9.5 24q0 18 12 30t30 12q15 0 24.5 -9.5t9.5 -23.5q0 -19 -12 -31t-30 -12q-15 0 -24.5 10z" />
<glyph unicode="&#x1dd;" horiz-adv-x="467" d="M372.5 482q43.5 -52 43.5 -146q0 -84 -27.5 -164t-84 -131.5t-139.5 -51.5q-66 0 -103 34.5t-37 88.5q0 96 87.5 143.5t245.5 61.5v18q0 77 -30 113.5t-83 36.5q-36 0 -67 -12.5t-67 -38.5l-25 38q39 31 78.5 46.5t84.5 15.5q80 0 123.5 -52zM294.5 105q46.5 69 59.5 167 q-137 -12 -204 -49t-67 -109q0 -35 21 -56.5t64 -21.5q80 0 126.5 69z" />
<glyph unicode="&#x1de;" horiz-adv-x="514" d="M400 0l-27 188h-254l-79 -188h-60l300 685h73l107 -685h-60zM140 237h226l-57 400zM211 754.5q-9 9.5 -9 23.5q0 19 12 31t29 12q15 0 25 -9.5t10 -24.5q0 -18 -12 -30t-30 -12q-16 0 -25 9.5zM382.5 754.5q-9.5 9.5 -9.5 23.5q0 19 12 31t30 12q15 0 24.5 -10t9.5 -24 q0 -18 -12 -30t-30 -12q-15 0 -24.5 9.5zM445 877h-218l7 46h218z" />
<glyph unicode="&#x1df;" horiz-adv-x="511" d="M383 524q35 -10 71 -30l-54 -380q-4 -30 -4 -38q0 -18 6.5 -29t21.5 -18l-18 -40q-31 9 -46.5 29.5t-14.5 61.5q-64 -91 -148 -91q-69 0 -108 51t-39 139q0 83 27 164.5t84.5 136t144.5 54.5q42 0 77 -10zM194.5 441q-44.5 -47 -65.5 -118t-21 -143q0 -71 25 -107.5 t73 -36.5q41 0 75.5 27.5t66.5 79.5l46 324q-39 21 -88 21q-67 0 -111.5 -47zM215 643.5q-9 9.5 -9 23.5q0 19 12 31t29 12q15 0 25 -9.5t10 -24.5q0 -18 -12 -30t-30 -12q-16 0 -25 9.5zM386.5 643.5q-9.5 9.5 -9.5 23.5q0 19 12 31t30 12q15 0 24.5 -10t9.5 -24 q0 -18 -12 -30t-30 -12q-15 0 -24.5 9.5zM448 772h-218l7 46h218z" />
<glyph unicode="&#x1e0;" horiz-adv-x="514" d="M400 0l-27 188h-254l-79 -188h-60l300 685h73l107 -685h-60zM140 237h226l-57 400zM296.5 753q-10.5 10 -10.5 27q0 19 13 32t32 13q17 0 27 -10.5t10 -26.5q0 -19 -12.5 -32t-31.5 -13q-17 0 -27.5 10zM446 877h-218l7 46h218z" />
<glyph unicode="&#x1e1;" horiz-adv-x="511" d="M383 524q35 -10 71 -30l-54 -380q-4 -30 -4 -38q0 -18 6.5 -29t21.5 -18l-18 -40q-31 9 -46.5 29.5t-14.5 61.5q-64 -91 -148 -91q-69 0 -108 51t-39 139q0 83 27 164.5t84.5 136t144.5 54.5q42 0 77 -10zM194.5 441q-44.5 -47 -65.5 -118t-21 -143q0 -71 25 -107.5 t73 -36.5q41 0 75.5 27.5t66.5 79.5l46 324q-39 21 -88 21q-67 0 -111.5 -47zM299.5 630q-10.5 10 -10.5 27q0 19 13 32t32 13q17 0 27 -10.5t10 -26.5q0 -19 -12.5 -32t-31.5 -13q-17 0 -27.5 10zM452 757h-218l7 46h218z" />
<glyph unicode="&#x1e2;" horiz-adv-x="708" d="M670 636h-288l22 -257h231l-7 -49h-219l24 -281h205l-8 -49h-248l-15 184h-253l-88 -184h-60l336 685h382zM137 233h226l-33 405zM598 802h-218l7 46h218z" />
<glyph unicode="&#x1e3;" horiz-adv-x="743" d="M399 436q28 43 74 70.5t103 27.5q66 0 103 -34.5t37 -88.5q0 -96 -87.5 -143.5t-245.5 -60.5q-2 -82 27 -125.5t87 -43.5q36 0 67 12.5t66 38.5l26 -38q-39 -31 -78.5 -46.5t-84.5 -15.5q-55 0 -93.5 25.5t-56.5 74.5q-43 -54 -87 -77t-93 -23q-64 0 -100 36.5t-36 97.5 q0 77 53.5 128.5t167.5 51.5h92q9 43 24 79q-5 48 -34 76t-77 28q-32 0 -61.5 -7t-67.5 -22l-12 44q83 33 147 33q109 0 140 -98zM446.5 418.5q-46.5 -68.5 -59.5 -167.5q138 12 205 49t67 109q0 35 -21.5 56.5t-63.5 21.5q-81 0 -127.5 -68.5zM252 262q-85 0 -125 -37 t-40 -102q0 -42 22 -65t61 -23q43 0 81 24t79 78q-4 19 -4 51q0 34 6 74h-80zM537 676h-218l7 46h218z" />
<glyph unicode="&#x1e4;" horiz-adv-x="566" d="M554 192h-67l-20 -145q-92 -58 -194 -58q-99 0 -154.5 65t-55.5 189q0 114 36 218t108 169.5t173 65.5q52 0 91.5 -17t73.5 -52l-37 -33q-29 28 -59 40t-70 12q-84 0 -141.5 -59t-86 -152.5t-28.5 -196.5q0 -100 40 -149.5t115 -49.5q69 0 135 37l16 116h-114l7 49h114 l11 78h-117v50h182l-18 -128h67z" />
<glyph unicode="&#x1e5;" horiz-adv-x="485" d="M378 -41h63l-6 -43h-70q-49 -122 -182 -122q-42 0 -82.5 13t-72.5 35l23 40q65 -40 133 -40q87 0 124 74h-121l5 43h131q6 23 8 40l13 93q-63 -88 -144 -88q-69 0 -108.5 50.5t-40.5 137.5q0 79 27 158t85 131.5t145 52.5q41 0 76 -10t73 -30l-71 -494q-2 -15 -8 -41z M352 158l45 309q-40 21 -89 21q-67 0 -112 -45.5t-66 -114t-20 -136.5q0 -68 25.5 -104t72.5 -36q78 0 144 106z" />
<glyph unicode="&#x1e6;" horiz-adv-x="558" d="M471.5 679q39.5 -17 73.5 -52l-37 -33q-29 28 -59 40t-70 12q-84 0 -141.5 -59t-86 -152.5t-28.5 -196.5q0 -100 40 -149.5t115 -49.5q68 0 135 36l34 244h-117v50h182l-45 -322q-92 -58 -194 -58q-99 0 -154.5 65t-55.5 189q0 114 36 218t108 169.5t173 65.5 q52 0 91.5 -17zM515 886l24 -28l-131 -102h-35l-102 103l26 27l98 -79z" />
<glyph unicode="&#x1e7;" horiz-adv-x="513" d="M385.5 524q35.5 -10 71.5 -30l-71 -494q-30 -206 -203 -206q-42 0 -82.5 13t-72.5 35l23 41q66 -41 131 -41q127 0 149 158l12 87q-63 -87 -144 -87q-69 0 -108.5 50.5t-39.5 138.5q0 81 27 160.5t85 132t145 52.5q42 0 77.5 -10zM196.5 442.5q-44.5 -45.5 -66 -114 t-21.5 -138.5t25.5 -106.5t73.5 -36.5q76 0 143 107l46 313q-40 21 -89 21q-67 0 -111.5 -45.5zM442 767l23 -28l-131 -106h-35l-102 106l27 28l96 -83z" />
<glyph unicode="&#x1e8;" horiz-adv-x="498" d="M61 0l96 685h58l-96 -685h-58zM391 0l-217 367l298 318h67l-300 -320l218 -365h-66zM470 886l24 -28l-131 -102h-35l-102 103l26 27l98 -79z" />
<glyph unicode="&#x1e9;" horiz-adv-x="476" d="M168 396q76 138 177 138q50 0 80 -30t30 -78q0 -64 -41 -111.5t-119 -76.5l104 -238h-61l-108 254q85 26 126 67t41 101q0 31 -16 48.5t-48 17.5q-47 0 -92.5 -47.5t-85.5 -135.5l-42 -305h-56l104 736l56 7zM464 937l24 -28l-131 -102h-35l-102 103l26 27l98 -79z" />
<glyph unicode="&#x1ea;" horiz-adv-x="624" d="M249 -62q-29 -29 -29 -65q0 -21 12.5 -32t36.5 -11q21 0 53 6l-11 -47q-27 -6 -50 -6q-43 0 -67.5 22.5t-24.5 60.5t20.5 67.5t66.5 55.5q-90 5 -141.5 72t-51.5 185q0 101 32.5 204.5t103 174.5t177.5 71q97 0 152 -66t55 -190q0 -90 -24 -182t-77 -163.5t-135 -95.5 q-69 -32 -98 -61zM162.5 90.5q39.5 -51.5 110.5 -51.5q91 0 147 65t79.5 158t23.5 181q0 102 -38.5 153t-111.5 51q-88 0 -144 -65t-81 -157.5t-25 -180.5q0 -102 39.5 -153.5z" />
<glyph unicode="&#x1eb;" horiz-adv-x="515" d="M446 201q-18 -69 -58 -124.5t-101 -76.5q-70 -32 -99 -61.5t-29 -65.5q0 -21 12.5 -32t36.5 -11q22 0 53 6l-11 -47q-27 -6 -50 -6q-43 0 -67.5 22.5t-24.5 60.5t20.5 68t67.5 56q-69 7 -107 59.5t-38 139.5q0 78 25 157.5t80.5 133.5t140.5 54q80 0 123.5 -52.5 t43.5 -146.5q0 -65 -18 -134zM327.5 85.5q41.5 48.5 60 118t18.5 135.5q0 73 -28 110.5t-82 37.5q-67 0 -109 -49t-60 -118t-18 -135q0 -73 28.5 -110.5t82.5 -37.5q66 0 107.5 48.5z" />
<glyph unicode="&#x1ec;" horiz-adv-x="624" d="M509 848l-7 -46h-218l7 46h218zM249 -62q-29 -29 -29 -65q0 -21 12.5 -32t36.5 -11q21 0 53 6l-11 -47q-27 -6 -50 -6q-43 0 -67.5 22.5t-24.5 60.5t20.5 67.5t66.5 55.5q-90 5 -141.5 72t-51.5 185q0 101 32.5 204.5t103 174.5t177.5 71q97 0 152 -66t55 -190 q0 -90 -24 -182t-77 -163.5t-135 -95.5q-69 -32 -98 -61zM162.5 90.5q39.5 -51.5 110.5 -51.5q91 0 147 65t79.5 158t23.5 181q0 102 -38.5 153t-111.5 51q-88 0 -144 -65t-81 -157.5t-25 -180.5q0 -102 39.5 -153.5z" />
<glyph unicode="&#x1ed;" horiz-adv-x="515" d="M434 722l-7 -46h-218l7 46h218zM446 201q-18 -69 -58 -124.5t-101 -76.5q-70 -32 -99 -61.5t-29 -65.5q0 -21 12.5 -32t36.5 -11q22 0 53 6l-11 -47q-27 -6 -50 -6q-43 0 -67.5 22.5t-24.5 60.5t20.5 68t67.5 56q-69 7 -107 59.5t-38 139.5q0 78 25 157.5t80.5 133.5 t140.5 54q80 0 123.5 -52.5t43.5 -146.5q0 -65 -18 -134zM327.5 85.5q41.5 48.5 60 118t18.5 135.5q0 73 -28 110.5t-82 37.5q-67 0 -109 -49t-60 -118t-18 -135q0 -73 28.5 -110.5t82.5 -37.5q66 0 107.5 48.5z" />
<glyph unicode="&#x1ee;" horiz-adv-x="443" d="M432 637l-237 -251h14q93 0 139.5 -42t46.5 -119q0 -69 -30 -122.5t-83 -83.5t-119 -30q-62 0 -103.5 22t-72.5 66l38 30q28 -36 59.5 -52t78.5 -16q78 0 125 51t47 134q0 61 -34 88t-100 27h-78l1 1l6 45l231 251h-275l7 49h345zM401 886l24 -28l-131 -102h-35l-102 103 l26 27l98 -79z" />
<glyph unicode="&#x1ef;" horiz-adv-x="416" d="M395 479l-236 -280h6q95 0 141.5 -41t46.5 -119q0 -72 -29 -127t-81.5 -86t-118.5 -31q-57 0 -97 22t-71 65l37 29q29 -36 59.5 -52t71.5 -16q79 0 124.5 55t45.5 141q0 62 -33.5 89t-105.5 27h-61l1 1l6 43l227 276h-268l7 48h334zM373 767l23 -28l-131 -106h-35 l-102 106l27 28l96 -83z" />
<glyph unicode="&#x1f0;" horiz-adv-x="244" d="M-58 -161q37 18 59 37t36.5 51t22.5 88l71 508h56l-72 -511q-9 -66 -28 -105t-48 -62t-81 -48zM298 767l23 -28l-131 -106h-35l-102 106l27 28l96 -83z" />
<glyph unicode="&#x1f1;" horiz-adv-x="1014" d="M469.5 631q67.5 -54 67.5 -188q0 -119 -34.5 -219t-110.5 -162t-195 -62h-136l96 685h133q112 0 179.5 -54zM208 636l-82 -587h80q97 0 158 57.5t87.5 147t26.5 190.5q0 110 -50 151t-135 41h-85zM545 0l7 48l409 586h-294l8 51h357l-7 -48l-407 -586l320 1l-15 -52h-378 z" />
<glyph unicode="&#x1f2;" horiz-adv-x="946" d="M469.5 631q67.5 -54 67.5 -188q0 -119 -34.5 -219t-110.5 -162t-195 -62h-136l96 685h133q112 0 179.5 -54zM208 636l-82 -587h80q97 0 158 57.5t87.5 147t26.5 190.5q0 110 -50 151t-135 41h-85zM953 523l-6 -44l-319 -430h257l-13 -49h-318l6 44l319 430h-237l8 49h303 z" />
<glyph unicode="&#x1f3;" horiz-adv-x="902" d="M496 736l-104 -736h-48l8 104q-65 -115 -160 -115q-67 0 -104.5 51.5t-37.5 141.5q0 80 25 161.5t77 136t129 54.5q80 0 121 -70l38 279zM186 439q-40 -48 -59 -119t-19 -140q0 -70 24.5 -107t69.5 -37q47 0 84 37t76 108l32 228q-17 37 -42.5 57.5t-65.5 20.5 q-60 0 -100 -48zM909 523l-6 -44l-319 -430h257l-13 -49h-318l6 44l319 430h-237l8 49h303z" />
<glyph unicode="&#x1f4;" horiz-adv-x="558" d="M471.5 679q39.5 -17 73.5 -52l-37 -33q-29 28 -59 40t-70 12q-84 0 -141.5 -59t-86 -152.5t-28.5 -196.5q0 -100 40 -149.5t115 -49.5q68 0 135 36l34 244h-117v50h182l-45 -322q-92 -58 -194 -58q-99 0 -154.5 65t-55.5 189q0 114 36 218t108 169.5t173 65.5 q52 0 91.5 -17zM473 884l22 -51l-188 -75l-15 32z" />
<glyph unicode="&#x1f5;" horiz-adv-x="513" d="M385.5 524q35.5 -10 71.5 -30l-71 -494q-30 -206 -203 -206q-42 0 -82.5 13t-72.5 35l23 41q66 -41 131 -41q127 0 149 158l12 87q-63 -87 -144 -87q-69 0 -108.5 50.5t-39.5 138.5q0 81 27 160.5t85 132t145 52.5q42 0 77.5 -10zM196.5 442.5q-44.5 -45.5 -66 -114 t-21.5 -138.5t25.5 -106.5t73.5 -36.5q76 0 143 107l46 313q-40 21 -89 21q-67 0 -111.5 -45.5zM408 781l23 -51l-188 -85l-17 32z" />
<glyph unicode="&#x1f6;" horiz-adv-x="865" d="M463.5 27q-35.5 38 -35.5 97q0 9 2 27l26 185h-290l-47 -336h-58l96 685h58l-42 -300h290l42 300h58l-75 -534q-2 -20 -2 -27q0 -42 21.5 -64.5t61.5 -22.5q102 0 140.5 116.5t38.5 277.5q0 49 -3 92h54q4 -62 4 -95q0 -189 -53.5 -314t-184.5 -125q-66 0 -101.5 38z" />
<glyph unicode="&#x1f7;" horiz-adv-x="509" d="M471 655q40 -41 40 -113q0 -112 -70.5 -178.5t-197.5 -115.5l-94 -36l-30 -212h-58l96 685h58l-7 -52q74 63 157 63q66 0 106 -41zM396 394.5q54 56.5 54 145.5q0 52 -25 79t-71 27q-81 0 -154 -66l-44 -318l88 36q98 40 152 96.5z" />
<glyph unicode="&#x1f8;" horiz-adv-x="603" d="M468 0h-75l-198 632q-5 -93 -26 -248l-53 -384h-55l96 685h76l199 -631q3 88 20 214l58 417h55zM327 883l156 -93l-20 -32l-165 75z" />
<glyph unicode="&#x1f9;" horiz-adv-x="523" d="M423.5 501.5q29.5 -32.5 29.5 -91.5q0 -16 -3 -36l-53 -374h-56l53 372q3 20 3 35q0 79 -66 79q-47 0 -91 -46t-83 -122l-44 -318h-56l74 523h47l-13 -125q80 136 177 136q52 0 81.5 -32.5zM272 780l155 -103l-20 -32l-165 85z" />
<glyph unicode="&#x1fa;" horiz-adv-x="514" d="M400 0l-27 188h-254l-79 -188h-60l300 685h73l107 -685h-60zM140 237h226l-57 400zM397.5 892q22.5 -23 22.5 -59q0 -46 -29 -75.5t-72 -29.5q-36 0 -58.5 23t-22.5 59q0 46 29 75.5t72 29.5q36 0 58.5 -23zM294.5 860.5q-15.5 -19.5 -15.5 -49.5q0 -23 11 -35.5 t31 -12.5q27 0 42.5 20t15.5 50q0 23 -11 35t-31 12q-27 0 -42.5 -19.5zM425 1047l22 -51l-188 -75l-15 32z" />
<glyph unicode="&#x1fb;" horiz-adv-x="511" d="M383 524q35 -10 71 -30l-54 -380q-4 -30 -4 -38q0 -18 6.5 -29t21.5 -18l-18 -40q-31 9 -46.5 29.5t-14.5 61.5q-64 -91 -148 -91q-69 0 -108 51t-39 139q0 83 27 164.5t84.5 136t144.5 54.5q42 0 77 -10zM194.5 441q-44.5 -47 -65.5 -118t-21 -143q0 -71 25 -107.5 t73 -36.5q41 0 75.5 27.5t66.5 79.5l46 324q-39 21 -88 21q-67 0 -111.5 -47zM401.5 751q22.5 -23 22.5 -59q0 -46 -29 -75.5t-72 -29.5q-36 0 -58.5 23t-22.5 59q0 46 29 75.5t72 29.5q36 0 58.5 -23zM298.5 719.5q-15.5 -19.5 -15.5 -49.5q0 -23 11 -35.5t31 -12.5 q27 0 42.5 20t15.5 50q0 23 -11 35t-31 12q-27 0 -42.5 -19.5zM424 909l22 -51l-188 -75l-15 32z" />
<glyph unicode="&#x1fc;" horiz-adv-x="708" d="M670 636h-288l22 -257h231l-7 -49h-219l24 -281h205l-8 -49h-248l-15 184h-253l-88 -184h-60l336 685h382zM137 233h226l-33 405zM566 884l22 -51l-188 -75l-15 32z" />
<glyph unicode="&#x1fd;" horiz-adv-x="743" d="M399 436q28 43 74 70.5t103 27.5q66 0 103 -34.5t37 -88.5q0 -96 -87.5 -143.5t-245.5 -60.5q-2 -82 27 -125.5t87 -43.5q36 0 67 12.5t66 38.5l26 -38q-39 -31 -78.5 -46.5t-84.5 -15.5q-55 0 -93.5 25.5t-56.5 74.5q-43 -54 -87 -77t-93 -23q-64 0 -100 36.5t-36 97.5 q0 77 53.5 128.5t167.5 51.5h92q9 43 24 79q-5 48 -34 76t-77 28q-32 0 -61.5 -7t-67.5 -22l-12 44q83 33 147 33q109 0 140 -98zM446.5 418.5q-46.5 -68.5 -59.5 -167.5q138 12 205 49t67 109q0 35 -21.5 56.5t-63.5 21.5q-81 0 -127.5 -68.5zM252 262q-85 0 -125 -37 t-40 -102q0 -42 22 -65t61 -23q43 0 81 24t79 78q-4 19 -4 51q0 34 6 74h-80zM512 781l23 -51l-188 -85l-17 32z" />
<glyph unicode="&#x1fe;" horiz-adv-x="624" d="M557 581q26 -58 26 -141q0 -104 -31.5 -207.5t-102 -173.5t-178.5 -70q-35 0 -63 9l-47 -118l-47 15l50 122q-48 29 -74.5 87.5t-26.5 141.5q0 101 32.5 204.5t103 174.5t177.5 71q34 0 64 -9l48 123l48 -14l-53 -128q48 -29 74 -87zM191 62l233 578q-21 7 -51 7 q-88 0 -144 -65t-81 -158t-25 -182q0 -134 68 -180zM420 104.5q56 65.5 79.5 158.5t23.5 183q0 133 -66 178l-233 -578q21 -7 49 -7q91 0 147 65.5zM467 890l22 -51l-188 -75l-15 32z" />
<glyph unicode="&#x1ff;" horiz-adv-x="515" d="M446 438q18 -44 18 -103q0 -77 -25 -157t-80 -134.5t-141 -54.5q-30 0 -52 7l-53 -121l-44 14l55 127q-35 24 -54 68.5t-19 104.5q0 78 25 157.5t80.5 133.5t140.5 54q26 0 54 -7l52 121l45 -14l-55 -127q35 -25 53 -69zM187 438q-42 -49 -60 -118t-18 -135 q0 -93 42 -127l184 423q-18 6 -39 6q-67 0 -109 -49zM327.5 85.5q41.5 48.5 60 118t18.5 135.5q0 90 -40 125l-183 -422q18 -5 37 -5q66 0 107.5 48.5zM402 781l23 -51l-188 -85l-17 32z" />
<glyph unicode="&#x200;" horiz-adv-x="514" d="M400 0l-27 188h-254l-79 -188h-60l300 685h73l107 -685h-60zM140 237h226l-57 400zM241 936l51 -152l-39 -15l-66 143zM358 936l45 -148l-39 -15l-60 138z" />
<glyph unicode="&#x201;" horiz-adv-x="511" d="M383 524q35 -10 71 -30l-54 -380q-4 -30 -4 -38q0 -18 6.5 -29t21.5 -18l-18 -40q-31 9 -46.5 29.5t-14.5 61.5q-64 -91 -148 -91q-69 0 -108 51t-39 139q0 83 27 164.5t84.5 136t144.5 54.5q42 0 77 -10zM194.5 441q-44.5 -47 -65.5 -118t-21 -143q0 -71 25 -107.5 t73 -36.5q41 0 75.5 27.5t66.5 79.5l46 324q-39 21 -88 21q-67 0 -111.5 -47zM245 810l51 -152l-39 -15l-66 143zM362 810l45 -148l-39 -15l-60 138z" />
<glyph unicode="&#x202;" horiz-adv-x="514" d="M400 0l-27 188h-254l-79 -188h-60l300 685h73l107 -685h-60zM140 237h226l-57 400zM210 796q13 50 48.5 79t82.5 29q49 0 78 -31t28 -81l-38 -5q-7 70 -70 70q-65 0 -93 -73z" />
<glyph unicode="&#x203;" horiz-adv-x="511" d="M383 524q35 -10 71 -30l-54 -380q-4 -30 -4 -38q0 -18 6.5 -29t21.5 -18l-18 -40q-31 9 -46.5 29.5t-14.5 61.5q-64 -91 -148 -91q-69 0 -108 51t-39 139q0 83 27 164.5t84.5 136t144.5 54.5q42 0 77 -10zM194.5 441q-44.5 -47 -65.5 -118t-21 -143q0 -71 25 -107.5 t73 -36.5q41 0 75.5 27.5t66.5 79.5l46 324q-39 21 -88 21q-67 0 -111.5 -47zM206 634q13 50 48.5 79t82.5 29q49 0 78 -31t28 -81l-38 -5q-7 70 -70 70q-65 0 -93 -73z" />
<glyph unicode="&#x204;" horiz-adv-x="458" d="M472 685l-14 -49h-250l-35 -257h216l-7 -48h-216l-40 -282h263l-8 -49h-320l96 685h315zM243 936l51 -152l-39 -15l-66 143zM360 936l45 -148l-39 -15l-60 138z" />
<glyph unicode="&#x205;" horiz-adv-x="467" d="M354.5 267.5q-87.5 -47.5 -245.5 -61.5v-18q0 -77 30 -113.5t83 -36.5q36 0 67 12.5t67 38.5l25 -38q-39 -31 -78.5 -46.5t-84.5 -15.5q-80 0 -123.5 52t-43.5 146q0 84 27.5 164t84 131.5t139.5 51.5q66 0 103 -34.5t37 -88.5q0 -96 -87.5 -143.5zM172.5 418 q-46.5 -69 -59.5 -167q137 12 204 49t67 109q0 35 -21 56.5t-64 21.5q-80 0 -126.5 -69zM225 810l51 -152l-39 -15l-66 143zM342 810l45 -148l-39 -15l-60 138z" />
<glyph unicode="&#x206;" horiz-adv-x="458" d="M472 685l-14 -49h-250l-35 -257h216l-7 -48h-216l-40 -282h263l-8 -49h-320l96 685h315zM212 796q13 50 48.5 79t82.5 29q49 0 78 -31t28 -81l-38 -5q-7 70 -70 70q-65 0 -93 -73z" />
<glyph unicode="&#x207;" horiz-adv-x="467" d="M354.5 267.5q-87.5 -47.5 -245.5 -61.5v-18q0 -77 30 -113.5t83 -36.5q36 0 67 12.5t67 38.5l25 -38q-39 -31 -78.5 -46.5t-84.5 -15.5q-80 0 -123.5 52t-43.5 146q0 84 27.5 164t84 131.5t139.5 51.5q66 0 103 -34.5t37 -88.5q0 -96 -87.5 -143.5zM172.5 418 q-46.5 -69 -59.5 -167q137 12 204 49t67 109q0 35 -21 56.5t-64 21.5q-80 0 -126.5 -69zM186 634q13 50 48.5 79t82.5 29q49 0 78 -31t28 -81l-38 -5q-7 70 -70 70q-65 0 -93 -73z" />
<glyph unicode="&#x208;" horiz-adv-x="254" d="M215 685l-96 -685h-58l96 685h58zM112 936l51 -152l-39 -15l-66 143zM229 936l45 -148l-39 -15l-60 138z" />
<glyph unicode="&#x209;" horiz-adv-x="243" d="M187 523l-74 -523h-56l74 523h56zM91 810l51 -152l-39 -15l-66 143zM208 810l45 -148l-39 -15l-60 138z" />
<glyph unicode="&#x20a;" horiz-adv-x="254" d="M215 685l-96 -685h-58l96 685h58zM81 796q13 50 48.5 79t82.5 29q49 0 78 -31t28 -81l-38 -5q-7 70 -70 70q-65 0 -93 -73z" />
<glyph unicode="&#x20b;" horiz-adv-x="243" d="M187 523l-74 -523h-56l74 523h56zM52 634q13 50 48.5 79t82.5 29q49 0 78 -31t28 -81l-38 -5q-7 70 -70 70q-65 0 -93 -73z" />
<glyph unicode="&#x20c;" horiz-adv-x="624" d="M528 630q55 -66 55 -190q0 -104 -31.5 -207.5t-102 -173.5t-178.5 -70q-97 0 -152.5 67t-55.5 190q0 101 32.5 204.5t103 174.5t177.5 71q97 0 152 -66zM229 582q-56 -65 -81 -157.5t-25 -180.5q0 -102 39.5 -153.5t110.5 -51.5q91 0 147 65t79.5 158t23.5 181 q0 102 -38.5 153t-111.5 51q-88 0 -144 -65zM302 936l51 -152l-39 -15l-66 143zM419 936l45 -148l-39 -15l-60 138z" />
<glyph unicode="&#x20d;" horiz-adv-x="515" d="M94.5 42q-43.5 53 -43.5 147q0 78 25 157.5t80.5 133.5t140.5 54q80 0 123.5 -52.5t43.5 -146.5q0 -77 -25 -157t-80 -134.5t-141 -54.5q-80 0 -123.5 53zM327.5 85.5q41.5 48.5 60 118t18.5 135.5q0 73 -28 110.5t-82 37.5q-67 0 -109 -49t-60 -118t-18 -135 q0 -73 28.5 -110.5t82.5 -37.5q66 0 107.5 48.5zM230 810l51 -152l-39 -15l-66 143zM347 810l45 -148l-39 -15l-60 138z" />
<glyph unicode="&#x20e;" horiz-adv-x="624" d="M528 630q55 -66 55 -190q0 -104 -31.5 -207.5t-102 -173.5t-178.5 -70q-97 0 -152.5 67t-55.5 190q0 101 32.5 204.5t103 174.5t177.5 71q97 0 152 -66zM229 582q-56 -65 -81 -157.5t-25 -180.5q0 -102 39.5 -153.5t110.5 -51.5q91 0 147 65t79.5 158t23.5 181 q0 102 -38.5 153t-111.5 51q-88 0 -144 -65zM271 796q13 50 48.5 79t82.5 29q49 0 78 -31t28 -81l-38 -5q-7 70 -70 70q-65 0 -93 -73z" />
<glyph unicode="&#x20f;" horiz-adv-x="515" d="M94.5 42q-43.5 53 -43.5 147q0 78 25 157.5t80.5 133.5t140.5 54q80 0 123.5 -52.5t43.5 -146.5q0 -77 -25 -157t-80 -134.5t-141 -54.5q-80 0 -123.5 53zM327.5 85.5q41.5 48.5 60 118t18.5 135.5q0 73 -28 110.5t-82 37.5q-67 0 -109 -49t-60 -118t-18 -135 q0 -73 28.5 -110.5t82.5 -37.5q66 0 107.5 48.5zM191 634q13 50 48.5 79t82.5 29q49 0 78 -31t28 -81l-38 -5q-7 70 -70 70q-65 0 -93 -73z" />
<glyph unicode="&#x210;" horiz-adv-x="531" d="M465 398q-40 -58 -124 -80l123 -318h-62l-117 308h-123l-43 -308h-58l96 685h152q99 0 147.5 -40t48.5 -116q0 -73 -40 -131zM269 356q94 0 135 50.5t41 120.5q0 57 -32.5 83.5t-105.5 26.5h-99l-39 -281h100zM248 936l51 -152l-39 -15l-66 143zM365 936l45 -148l-39 -15 l-60 138z" />
<glyph unicode="&#x211;" horiz-adv-x="336" d="M362 527l-17 -53q-22 6 -37 6q-50 0 -85.5 -45t-68.5 -136l-41 -299h-56l74 523h48l-14 -122q28 65 65 99t87 34q17 0 45 -7zM175 810l51 -152l-39 -15l-66 143zM292 810l45 -148l-39 -15l-60 138z" />
<glyph unicode="&#x212;" horiz-adv-x="531" d="M465 398q-40 -58 -124 -80l123 -318h-62l-117 308h-123l-43 -308h-58l96 685h152q99 0 147.5 -40t48.5 -116q0 -73 -40 -131zM269 356q94 0 135 50.5t41 120.5q0 57 -32.5 83.5t-105.5 26.5h-99l-39 -281h100zM217 796q13 50 48.5 79t82.5 29q49 0 78 -31t28 -81l-38 -5 q-7 70 -70 70q-65 0 -93 -73z" />
<glyph unicode="&#x213;" horiz-adv-x="336" d="M362 527l-17 -53q-22 6 -37 6q-50 0 -85.5 -45t-68.5 -136l-41 -299h-56l74 523h48l-14 -122q28 65 65 99t87 34q17 0 45 -7zM136 634q13 50 48.5 79t82.5 29q49 0 78 -31t28 -81l-38 -5q-7 70 -70 70q-65 0 -93 -73z" />
<glyph unicode="&#x214;" horiz-adv-x="583" d="M485 192q-13 -90 -73 -146.5t-157 -56.5q-88 0 -133.5 46.5t-45.5 122.5q0 19 3 38l69 489h57l-68 -489q-3 -19 -3 -36q0 -57 30.5 -88.5t93.5 -31.5q74 0 117 44t53 116l68 485h58zM276 936l51 -152l-39 -15l-66 143zM393 936l45 -148l-39 -15l-60 138z" />
<glyph unicode="&#x215;" horiz-adv-x="519" d="M99.5 21q-29.5 32 -29.5 90q0 22 2 33l54 379h56l-53 -380q-3 -18 -3 -33q0 -74 65 -74q92 0 170 162l45 325h56l-74 -523h-46l14 127q-34 -65 -76.5 -101.5t-97.5 -36.5q-53 0 -82.5 32zM227 810l51 -152l-39 -15l-66 143zM344 810l45 -148l-39 -15l-60 138z" />
<glyph unicode="&#x216;" horiz-adv-x="583" d="M485 192q-13 -90 -73 -146.5t-157 -56.5q-88 0 -133.5 46.5t-45.5 122.5q0 19 3 38l69 489h57l-68 -489q-3 -19 -3 -36q0 -57 30.5 -88.5t93.5 -31.5q74 0 117 44t53 116l68 485h58zM245 796q13 50 48.5 79t82.5 29q49 0 78 -31t28 -81l-38 -5q-7 70 -70 70 q-65 0 -93 -73z" />
<glyph unicode="&#x217;" horiz-adv-x="519" d="M99.5 21q-29.5 32 -29.5 90q0 22 2 33l54 379h56l-53 -380q-3 -18 -3 -33q0 -74 65 -74q92 0 170 162l45 325h56l-74 -523h-46l14 127q-34 -65 -76.5 -101.5t-97.5 -36.5q-53 0 -82.5 32zM188 634q13 50 48.5 79t82.5 29q49 0 78 -31t28 -81l-38 -5q-7 70 -70 70 q-65 0 -93 -73z" />
<glyph unicode="&#x218;" horiz-adv-x="485" d="M399 676.5q41 -19.5 74 -57.5l-36 -34q-31 33 -62.5 47.5t-71.5 14.5q-64 0 -105.5 -38.5t-41.5 -97.5q0 -44 25.5 -70t93.5 -53q78 -30 115 -70t37 -108q0 -56 -27 -106.5t-80.5 -82.5t-128.5 -32q-61 0 -106.5 23t-81.5 65l38 33q31 -35 66 -53t85 -18q56 0 95.5 23 t59.5 61.5t20 83.5q0 51 -26.5 80.5t-94.5 56.5q-81 33 -115 68.5t-34 96.5q0 47 25 90t72.5 70t109.5 27q54 0 95 -19.5zM220.5 -96q10.5 -11 10.5 -27q0 -14 -5.5 -27t-21.5 -40l-51 -88h-34l46 115q-17 12 -17 33q0 19 12.5 32t31.5 13q18 0 28.5 -11z" />
<glyph unicode="&#x219;" horiz-adv-x="418" d="M389 475l-30 -34q-27 23 -55 34.5t-62 11.5q-50 0 -80.5 -25.5t-30.5 -67.5q0 -34 21.5 -54.5t77.5 -40.5q67 -25 96.5 -59t29.5 -87q0 -75 -52 -119.5t-136 -44.5q-99 0 -167 70l34 33q28 -27 60 -41t74 -14q61 0 95 30t34 82q0 39 -22 62.5t-81 45.5q-67 24 -94 54.5 t-27 79.5q0 39 21 72t59 52t88 19q85 0 147 -59zM186.5 -96q10.5 -11 10.5 -27q0 -14 -5.5 -27t-21.5 -40l-51 -88h-34l46 115q-17 12 -17 33q0 19 12.5 32t31.5 13q18 0 28.5 -11z" />
<glyph unicode="&#x21a;" horiz-adv-x="446" d="M496 685l-14 -52h-178l-89 -633h-58l89 633h-181l7 52h424zM203.5 -96q10.5 -11 10.5 -27q0 -14 -5.5 -27t-21.5 -40l-51 -88h-34l46 115q-17 12 -17 33q0 19 12.5 32t31.5 13q18 0 28.5 -11z" />
<glyph unicode="&#x21b;" horiz-adv-x="309" d="M131 119q-2 -18 -2 -24q0 -58 54 -58q35 0 76 24l19 -40q-50 -32 -102 -32q-48 0 -75.5 27.5t-27.5 77.5q0 7 2 27l50 356h-79l7 46h80l28 127l45 5l-18 -132h119l-13 -46h-113zM189.5 -96q10.5 -11 10.5 -27q0 -14 -5.5 -27t-21.5 -40l-51 -88h-34l46 115q-17 12 -17 33 q0 19 12.5 32t31.5 13q18 0 28.5 -11z" />
<glyph unicode="&#x21c;" horiz-adv-x="447" d="M380 655.5q42 -40.5 42 -109.5q0 -76 -39.5 -122t-110.5 -65q55 -7 87 -39t32 -91q0 -129 -105.5 -204.5t-284.5 -113.5l-1 48q155 38 242 100t87 168q0 54 -32.5 80t-99.5 25h-56l15 50h45q71 0 116 44t45 115q0 51 -26 78t-75 27q-44 0 -82.5 -17.5t-81.5 -51.5l-28 36 q48 42 95.5 62.5t101.5 20.5q72 0 114 -40.5z" />
<glyph unicode="&#x21d;" horiz-adv-x="423" d="M328.5 499q39.5 -35 39.5 -94q0 -55 -32 -89.5t-90 -46.5q54 -1 83 -26t29 -71q0 -100 -93.5 -166t-239.5 -102l-4 44q134 40 206 92t72 130q0 39 -25 55.5t-77 16.5h-72l11 45h37q62 0 99.5 31t37.5 86q0 40 -24 61.5t-66 21.5q-38 0 -69 -11t-67 -33l-23 36 q39 28 78.5 41.5t84.5 13.5q65 0 104.5 -35z" />
<glyph unicode="&#x21e;" horiz-adv-x="601" d="M119 0h-58l96 685h58l-42 -300h290l42 300h58l-97 -685h-58l48 336h-290zM494 886l24 -28l-131 -102h-35l-102 103l26 27l98 -79z" />
<glyph unicode="&#x21f;" horiz-adv-x="523" d="M423.5 501.5q29.5 -32.5 29.5 -90.5q0 -16 -3 -36l-53 -375h-56l53 372q3 20 3 35q0 79 -66 79q-47 0 -91 -46t-83 -122l-44 -318h-56l104 736l56 7l-48 -342q74 133 172 133q53 0 82.5 -32.5zM466 937l24 -28l-131 -102h-35l-102 103l26 27l98 -79z" />
<glyph unicode="&#x220;" horiz-adv-x="593" d="M502 656q37 -40 37 -109q0 -19 -3 -40l-99 -704h-57l98 700q3 21 3 39q0 104 -94 104q-54 0 -100 -29t-93 -81l-75 -536h-58l96 685h51l-8 -88q92 99 196 99q69 0 106 -40z" />
<glyph unicode="&#x221;" horiz-adv-x="623" d="M601 177.5q23 -22.5 23 -60.5q0 -58 -43.5 -93t-107.5 -35q-45 0 -73 17l-44 -72l-35 18l51 80q-19 28 -19 72q-68 -115 -161 -115q-67 0 -104.5 51.5t-37.5 141.5q0 80 25 161.5t77 136t129 54.5q80 0 121 -70l38 279l56 -7l-87 -611q-2 -13 -2 -33q31 56 62 82t71 26 q38 0 61 -22.5zM286 73q37 37 76 108l32 228q-17 37 -42.5 57.5t-65.5 20.5q-60 0 -100 -48t-59 -119t-19 -140q0 -70 24.5 -107t69.5 -37q47 0 84 37zM548 58.5q27 20.5 27 57.5q0 19 -10.5 30t-28.5 11q-27 0 -50 -22t-59 -86q16 -11 53 -11q41 0 68 20.5z" />
<glyph unicode="&#x222;" horiz-adv-x="576" d="M479 438.5q-28 -38.5 -80 -57.5q54 -18 82.5 -57.5t28.5 -96.5q0 -69 -32 -123t-90.5 -84.5t-135.5 -30.5q-99 0 -151.5 49t-52.5 129q0 79 43.5 135.5t119.5 79.5q-74 32 -74 120q0 18 3 39l20 144h58l-21 -145q-3 -21 -3 -37q0 -51 27.5 -75t84.5 -24q72 0 107.5 37 t45.5 102l20 142h58l-21 -147q-9 -61 -37 -99.5zM413 321q-36 33 -110 33q-89 0 -142 -50.5t-53 -135.5q0 -62 36.5 -95.5t109.5 -33.5q91 0 143 50t52 137q0 62 -36 95z" />
<glyph unicode="&#x223;" horiz-adv-x="509" d="M426.5 464q-27.5 -38 -73.5 -56q47 -17 71 -56.5t24 -97.5q0 -75 -28.5 -135.5t-80.5 -95t-120 -34.5q-81 0 -126.5 49.5t-45.5 130.5q0 88 40 152t110 87q-67 33 -67 115q0 16 3 34l25 179h56l-26 -182q-2 -12 -2 -33q0 -93 91 -93q58 0 90.5 36.5t39.5 92.5l25 179h56 l-26 -182q-8 -52 -35.5 -90zM274 383q-53 0 -91.5 -29t-58 -77.5t-19.5 -107.5q0 -64 30 -98t86 -34q82 0 125.5 60.5t43.5 153.5q0 132 -116 132z" />
<glyph unicode="&#x224;" horiz-adv-x="461" d="M473 637l-407 -586l316 1l-7 -52l-12 -79q-9 -62 -43.5 -94t-85.5 -32t-90 35l27 36q15 -12 28.5 -17.5t33.5 -5.5q29 0 48.5 20t25.5 61l11 76h-325l7 48l409 586h-294l8 51h357z" />
<glyph unicode="&#x225;" horiz-adv-x="378" d="M380 479l-319 -430h254l-7 -49l-11 -80q-9 -62 -44 -93.5t-86 -31.5t-90 35l28 34q15 -11 28.5 -16.5t32.5 -5.5q30 0 50 19t26 60l11 79h-266l6 44l319 430h-237l8 49h303z" />
<glyph unicode="&#x226;" horiz-adv-x="514" d="M400 0l-27 188h-254l-79 -188h-60l300 685h73l107 -685h-60zM140 237h226l-57 400zM306.5 806q-10.5 10 -10.5 27q0 19 13 32t32 13q17 0 27 -10.5t10 -26.5q0 -19 -12.5 -32t-31.5 -13q-17 0 -27.5 10z" />
<glyph unicode="&#x227;" horiz-adv-x="511" d="M383 524q35 -10 71 -30l-54 -380q-4 -30 -4 -38q0 -18 6.5 -29t21.5 -18l-18 -40q-31 9 -46.5 29.5t-14.5 61.5q-64 -91 -148 -91q-69 0 -108 51t-39 139q0 83 27 164.5t84.5 136t144.5 54.5q42 0 77 -10zM194.5 441q-44.5 -47 -65.5 -118t-21 -143q0 -71 25 -107.5 t73 -36.5q41 0 75.5 27.5t66.5 79.5l46 324q-39 21 -88 21q-67 0 -111.5 -47zM306.5 680q-10.5 10 -10.5 27q0 19 13 32t32 13q17 0 27 -10.5t10 -26.5q0 -19 -12.5 -32t-31.5 -13q-17 0 -27.5 10z" />
<glyph unicode="&#x228;" horiz-adv-x="458" d="M208 636l-35 -257h216l-7 -48h-216l-40 -282h263l-8 -49h-143l-11 -65q75 -7 75 -71q0 -39 -29 -65t-77 -26q-41 0 -72 23l20 32q26 -14 53 -14q25 0 40.5 12.5t15.5 35.5t-16 32.5t-57 9.5l21 96h-140l96 685h315l-14 -49h-250z" />
<glyph unicode="&#x229;" horiz-adv-x="467" d="M354.5 267.5q-87.5 -47.5 -245.5 -61.5v-18q0 -77 30 -113.5t83 -36.5q36 0 67 12.5t67 38.5l25 -38q-74 -58 -153 -62l-9 -54q38 -4 56.5 -22t18.5 -49q0 -40 -29 -65.5t-76 -25.5q-42 0 -73 23l20 33q24 -15 53 -15q24 0 40 12.5t16 35.5t-16 32.5t-57 9.5l19 87 q-67 8 -103.5 59t-36.5 137q0 84 27.5 164t84 131.5t139.5 51.5q66 0 103 -34.5t37 -88.5q0 -96 -87.5 -143.5zM172.5 418q-46.5 -69 -59.5 -167q137 12 204 49t67 109q0 35 -21 56.5t-64 21.5q-80 0 -126.5 -69z" />
<glyph unicode="&#x22a;" horiz-adv-x="624" d="M528 630q55 -66 55 -190q0 -104 -31.5 -207.5t-102 -173.5t-178.5 -70q-97 0 -152.5 67t-55.5 190q0 101 32.5 204.5t103 174.5t177.5 71q97 0 152 -66zM229 582q-56 -65 -81 -157.5t-25 -180.5q0 -102 39.5 -153.5t110.5 -51.5q91 0 147 65t79.5 158t23.5 181 q0 102 -38.5 153t-111.5 51q-88 0 -144 -65zM272 754.5q-9 9.5 -9 23.5q0 19 12 31t29 12q15 0 25 -9.5t10 -24.5q0 -18 -12 -30t-30 -12q-16 0 -25 9.5zM443.5 754.5q-9.5 9.5 -9.5 23.5q0 19 12 31t30 12q15 0 24.5 -10t9.5 -24q0 -18 -12 -30t-30 -12q-15 0 -24.5 9.5z M506 877h-218l7 46h218z" />
<glyph unicode="&#x22b;" horiz-adv-x="515" d="M94.5 42q-43.5 53 -43.5 147q0 78 25 157.5t80.5 133.5t140.5 54q80 0 123.5 -52.5t43.5 -146.5q0 -77 -25 -157t-80 -134.5t-141 -54.5q-80 0 -123.5 53zM327.5 85.5q41.5 48.5 60 118t18.5 135.5q0 73 -28 110.5t-82 37.5q-67 0 -109 -49t-60 -118t-18 -135 q0 -73 28.5 -110.5t82.5 -37.5q66 0 107.5 48.5zM200 643.5q-9 9.5 -9 23.5q0 19 12 31t29 12q15 0 25 -9.5t10 -24.5q0 -18 -12 -30t-30 -12q-16 0 -25 9.5zM371.5 643.5q-9.5 9.5 -9.5 23.5q0 19 12 31t30 12q15 0 24.5 -10t9.5 -24q0 -18 -12 -30t-30 -12 q-15 0 -24.5 9.5zM433 772h-218l7 46h218z" />
<glyph unicode="&#x22c;" horiz-adv-x="624" d="M511 894h-218l7 46h218zM411 765q-14 7 -29 19q-13 10 -22.5 14.5t-19.5 4.5q-16 0 -27.5 -9.5t-28.5 -31.5l-31 21q42 65 88 65q17 0 30 -6.5t29 -18.5q15 -11 23.5 -15.5t19.5 -4.5q14 0 27 10t29 33l32 -19q-39 -69 -88 -69q-18 0 -32 7zM528 630q55 -66 55 -190 q0 -104 -31.5 -207.5t-102 -173.5t-178.5 -70q-97 0 -152.5 67t-55.5 190q0 101 32.5 204.5t103 174.5t177.5 71q97 0 152 -66zM229 582q-56 -65 -81 -157.5t-25 -180.5q0 -102 39.5 -153.5t110.5 -51.5q91 0 147 65t79.5 158t23.5 181q0 102 -38.5 153t-111.5 51 q-88 0 -144 -65z" />
<glyph unicode="&#x22d;" horiz-adv-x="515" d="M94.5 42q-43.5 53 -43.5 147q0 78 25 157.5t80.5 133.5t140.5 54q80 0 123.5 -52.5t43.5 -146.5q0 -77 -25 -157t-80 -134.5t-141 -54.5q-80 0 -123.5 53zM327.5 85.5q41.5 48.5 60 118t18.5 135.5q0 73 -28 110.5t-82 37.5q-67 0 -109 -49t-60 -118t-18 -135 q0 -73 28.5 -110.5t82.5 -37.5q66 0 107.5 48.5zM327 608q-14 7 -29 19q-13 10 -22.5 14.5t-19.5 4.5q-16 0 -27.5 -9.5t-28.5 -31.5l-31 21q42 65 88 65q17 0 30 -6.5t29 -18.5q15 -11 23.5 -15.5t19.5 -4.5q14 0 27 10t29 33l32 -19q-39 -69 -88 -69q-18 0 -32 7zM428 737 h-218l7 46h218z" />
<glyph unicode="&#x22e;" horiz-adv-x="624" d="M528 630q55 -66 55 -190q0 -104 -31.5 -207.5t-102 -173.5t-178.5 -70q-97 0 -152.5 67t-55.5 190q0 101 32.5 204.5t103 174.5t177.5 71q97 0 152 -66zM229 582q-56 -65 -81 -157.5t-25 -180.5q0 -102 39.5 -153.5t110.5 -51.5q91 0 147 65t79.5 158t23.5 181 q0 102 -38.5 153t-111.5 51q-88 0 -144 -65zM367.5 806q-10.5 10 -10.5 27q0 19 13 32t32 13q17 0 27 -10.5t10 -26.5q0 -19 -12.5 -32t-31.5 -13q-17 0 -27.5 10z" />
<glyph unicode="&#x22f;" horiz-adv-x="515" d="M94.5 42q-43.5 53 -43.5 147q0 78 25 157.5t80.5 133.5t140.5 54q80 0 123.5 -52.5t43.5 -146.5q0 -77 -25 -157t-80 -134.5t-141 -54.5q-80 0 -123.5 53zM327.5 85.5q41.5 48.5 60 118t18.5 135.5q0 73 -28 110.5t-82 37.5q-67 0 -109 -49t-60 -118t-18 -135 q0 -73 28.5 -110.5t82.5 -37.5q66 0 107.5 48.5zM291.5 680q-10.5 10 -10.5 27q0 19 13 32t32 13q17 0 27 -10.5t10 -26.5q0 -19 -12.5 -32t-31.5 -13q-17 0 -27.5 10z" />
<glyph unicode="&#x230;" horiz-adv-x="624" d="M528 630q55 -66 55 -190q0 -104 -31.5 -207.5t-102 -173.5t-178.5 -70q-97 0 -152.5 67t-55.5 190q0 101 32.5 204.5t103 174.5t177.5 71q97 0 152 -66zM229 582q-56 -65 -81 -157.5t-25 -180.5q0 -102 39.5 -153.5t110.5 -51.5q91 0 147 65t79.5 158t23.5 181 q0 102 -38.5 153t-111.5 51q-88 0 -144 -65zM357.5 753q-10.5 10 -10.5 27q0 19 13 32t32 13q17 0 27 -10.5t10 -26.5q0 -19 -12.5 -32t-31.5 -13q-17 0 -27.5 10zM507 877h-218l7 46h218z" />
<glyph unicode="&#x237;" horiz-adv-x="244" d="M-58 -161q37 18 59 37t36.5 51t22.5 88l71 508h56l-72 -511q-9 -66 -28 -105t-48 -62t-81 -48z" />
<glyph unicode="&#x259;" horiz-adv-x="467" d="M372.5 482q43.5 -52 43.5 -146q0 -84 -27.5 -164t-84 -131.5t-139.5 -51.5q-66 0 -103 34.5t-37 88.5q0 96 87.5 143.5t245.5 61.5v18q0 77 -30 113.5t-83 36.5q-36 0 -67 -12.5t-67 -38.5l-25 38q39 31 78.5 46.5t84.5 15.5q80 0 123.5 -52zM294.5 105q46.5 69 59.5 167 q-137 -12 -204 -49t-67 -109q0 -35 21 -56.5t64 -21.5q80 0 126.5 69z" />
<glyph unicode="&#x278;" horiz-adv-x="562" d="M490.5 157.5q-29.5 -69.5 -85.5 -109.5t-134 -43l-28 -202l-56 -8l30 211q-84 5 -129.5 57.5t-45.5 142.5t29.5 159.5t85.5 109.5t133 43l30 218l57 7l-31 -226q83 -6 128.5 -58.5t45.5 -141.5q0 -90 -29.5 -159.5zM285 472q-90 -7 -137.5 -79.5t-47.5 -187.5 q0 -147 126 -154zM415 130.5q48 72.5 48 187.5q0 72 -32.5 111t-95.5 42l-58 -420q90 7 138 79.5z" />
<glyph unicode="&#x292;" horiz-adv-x="416" d="M395 479l-236 -280h6q95 0 141.5 -41t46.5 -119q0 -72 -29 -127t-81.5 -86t-118.5 -31q-57 0 -97 22t-71 65l37 29q29 -36 59.5 -52t71.5 -16q79 0 124.5 55t45.5 141q0 62 -33.5 89t-105.5 27h-61l1 1l6 43l227 276h-268l7 48h334z" />
<glyph unicode="&#x2b9;" horiz-adv-x="266" d="M90 434l112 251h58l-128 -251h-42z" />
<glyph unicode="&#x2c6;" horiz-adv-x="328" d="M112 644l-25 29l132 106h35l102 -107l-28 -28l-96 84z" />
<glyph unicode="&#x2c7;" horiz-adv-x="328" d="M342 767l23 -28l-131 -106h-35l-102 106l27 28l96 -83z" />
<glyph unicode="&#x2d8;" horiz-adv-x="297" d="M127.5 684q-28.5 31 -27.5 81l39 5q4 -35 20 -52.5t47 -17.5q32 0 56.5 19t37.5 54l37 -12q-13 -50 -48.5 -79t-83.5 -29q-49 0 -77.5 31z" />
<glyph unicode="&#x2d9;" horiz-adv-x="142" d="M103.5 680q-10.5 10 -10.5 27q0 19 13 32t32 13q17 0 27 -10.5t10 -26.5q0 -19 -12.5 -32t-31.5 -13q-17 0 -27.5 10z" />
<glyph unicode="&#x2da;" horiz-adv-x="241" d="M254.5 797q22.5 -23 22.5 -59q0 -46 -29 -75.5t-72 -29.5q-36 0 -58.5 23t-22.5 59q0 46 29 75.5t72 29.5q36 0 58.5 -23zM151.5 765.5q-15.5 -19.5 -15.5 -49.5q0 -23 11 -35.5t31 -12.5q27 0 42.5 20t15.5 50q0 23 -11 35t-31 12q-27 0 -42.5 -19.5z" />
<glyph unicode="&#x2db;" horiz-adv-x="222" d="M155 0q-70 -32 -99 -61.5t-29 -65.5q0 -21 12.5 -32t36.5 -11q21 0 53 6l-11 -47q-27 -6 -50 -6q-43 0 -67.5 22.5t-24.5 60.5q0 51 38.5 89t129.5 70z" />
<glyph unicode="&#x2dc;" horiz-adv-x="333" d="M249 674q-14 7 -29 19q-13 10 -22.5 14.5t-19.5 4.5q-16 0 -27.5 -9.5t-28.5 -31.5l-31 21q42 65 88 65q17 0 30 -6.5t29 -18.5q15 -11 23.5 -15.5t19.5 -4.5q14 0 27 10t29 33l32 -19q-39 -69 -88 -69q-18 0 -32 7z" />
<glyph unicode="&#x2dd;" horiz-adv-x="291" d="M171 810l45 -27l-96 -136l-33 17zM289 810l45 -26l-104 -141l-34 17z" />
<glyph unicode="&#x300;" horiz-adv-x="0" d="M-127 780l155 -103l-20 -32l-165 85z" />
<glyph unicode="&#x301;" horiz-adv-x="0" d="M13 781l23 -51l-188 -85l-17 32z" />
<glyph unicode="&#x302;" horiz-adv-x="0" d="M-216 644l-25 29l132 106h35l102 -107l-28 -28l-96 84z" />
<glyph unicode="&#x303;" horiz-adv-x="0" d="M-84 674q-14 7 -29 19q-13 10 -22.5 14.5t-19.5 4.5q-16 0 -27.5 -9.5t-28.5 -31.5l-31 21q42 65 88 65q17 0 30 -6.5t29 -18.5q15 -11 23.5 -15.5t19.5 -4.5q14 0 27 10t29 33l32 -19q-39 -69 -88 -69q-18 0 -32 7z" />
<glyph unicode="&#x304;" horiz-adv-x="0" d="M28 676h-218l7 46h218z" />
<glyph unicode="&#x306;" horiz-adv-x="0" d="M-169.5 684q-28.5 31 -27.5 81l39 5q4 -35 20 -52.5t47 -17.5q32 0 56.5 19t37.5 54l37 -12q-13 -50 -48.5 -79t-83.5 -29q-49 0 -77.5 31z" />
<glyph unicode="&#x307;" horiz-adv-x="0" d="M-38.5 680q-10.5 10 -10.5 27q0 19 13 32t32 13q17 0 27 -10.5t10 -26.5q0 -19 -12.5 -32t-31.5 -13q-17 0 -27.5 10z" />
<glyph unicode="&#x308;" horiz-adv-x="0" d="M-206 673.5q-9 9.5 -9 23.5q0 19 12 31t29 12q15 0 25 -9.5t10 -24.5q0 -18 -12 -30t-30 -12q-16 0 -25 9.5zM-34.5 673.5q-9.5 9.5 -9.5 23.5q0 19 12 31t30 12q15 0 24.5 -10t9.5 -24q0 -18 -12 -30t-30 -12q-15 0 -24.5 9.5z" />
<glyph unicode="&#x309;" horiz-adv-x="0" d="M-83 699q71 6 71 54q0 16 -9.5 25t-26.5 9q-15 0 -26.5 -3.5t-26.5 -10.5l-13 36q37 20 73 20t57.5 -20.5t21.5 -53.5q0 -36 -21 -56.5t-58 -26.5l-8 -55h-44z" />
<glyph unicode="&#x30a;" horiz-adv-x="0" d="M13.5 797q22.5 -23 22.5 -59q0 -46 -29 -75.5t-72 -29.5q-36 0 -58.5 23t-22.5 59q0 46 29 75.5t72 29.5q36 0 58.5 -23zM-89.5 765.5q-15.5 -19.5 -15.5 -49.5q0 -23 11 -35.5t31 -12.5q27 0 42.5 20t15.5 50q0 23 -11 35t-31 12q-27 0 -42.5 -19.5z" />
<glyph unicode="&#x30b;" horiz-adv-x="0" d="M-120 810l45 -27l-96 -136l-33 17zM-2 810l45 -26l-104 -141l-34 17z" />
<glyph unicode="&#x30c;" horiz-adv-x="0" d="M14 767l23 -28l-131 -106h-35l-102 106l27 28l96 -83z" />
<glyph unicode="&#x30f;" horiz-adv-x="0" d="M-135 810l51 -152l-39 -15l-66 143zM-18 810l45 -148l-39 -15l-60 138z" />
<glyph unicode="&#x311;" horiz-adv-x="0" d="M-215 634q13 50 48.5 79t82.5 29q49 0 78 -31t28 -81l-38 -5q-7 70 -70 70q-65 0 -93 -73z" />
<glyph unicode="&#x312;" horiz-adv-x="0" d="M-58.5 600q-10.5 11 -10.5 27q0 14 5.5 27t21.5 40l51 88h34l-46 -115q17 -12 17 -33q0 -19 -12.5 -32t-31.5 -13q-18 0 -28.5 11z" />
<glyph unicode="&#x323;" horiz-adv-x="0" d="M-94.5 -97q10.5 -10 10.5 -27q0 -19 -13 -32t-32 -13q-17 0 -27 10.5t-10 26.5q0 19 12.5 32t31.5 13q17 0 27.5 -10z" />
<glyph unicode="&#x326;" horiz-adv-x="0" d="M-95.5 -96q10.5 -11 10.5 -27q0 -14 -5.5 -27t-21.5 -40l-51 -88h-34l46 115q-17 12 -17 33q0 19 12.5 32t31.5 13q18 0 28.5 -11z" />
<glyph unicode="&#x327;" horiz-adv-x="0" d="M-162 -65q38 -4 56.5 -22t18.5 -49q0 -40 -29 -65.5t-76 -25.5q-42 0 -73 23l20 33q24 -15 53 -15q24 0 40 12.5t16 35.5t-16 32.5t-57 9.5l24 112h37z" />
<glyph unicode="&#x328;" horiz-adv-x="0" d="M-67 0q-70 -32 -99 -61.5t-29 -65.5q0 -21 12.5 -32t36.5 -11q21 0 53 6l-11 -47q-27 -6 -50 -6q-43 0 -67.5 22.5t-24.5 60.5q0 51 38.5 89t129.5 70z" />
<glyph unicode="&#x32d;" horiz-adv-x="0" d="M-332 -204l-24 29l132 105h34l102 -106l-27 -28l-98 84z" />
<glyph unicode="&#x331;" horiz-adv-x="0" d="M-301 -112h218l-7 -46h-218z" />
<glyph unicode="&#x345;" horiz-adv-x="0" d="M-222 -152.5q-19 19.5 -19 50.5q0 15 3 33.5t4 23.5h47q-5 -32 -5 -50q0 -34 30 -34q14 0 25 4t26 13l19 -32q-37 -28 -76 -28q-35 0 -54 19.5z" />
<glyph unicode="&#x370;" horiz-adv-x="462" d="M457 385l-7 -49h-284l-47 -336h-58l96 685h58l-42 -300h284z" />
<glyph unicode="&#x371;" horiz-adv-x="425" d="M393 247h-241l-35 -247h-56l51 357q7 55 7 98q0 35 -5 70l52 5q8 -35 8 -81q0 -45 -8 -102l-7 -50h241z" />
<glyph unicode="&#x372;" horiz-adv-x="486" d="M177 0l89 633h-149l-29 -200h-51l37 252h458l-37 -252h-51l29 200h-149l-89 -633h-58z" />
<glyph unicode="&#x373;" horiz-adv-x="416" d="M442 475h-177l-96 -674l-56 -7l96 681h-87q-30 0 -49 -2t-40 -8l-8 45q20 7 44 10t60 3h320z" />
<glyph unicode="&#x374;" horiz-adv-x="266" d="M90 434l112 251h58l-128 -251h-42z" />
<glyph unicode="&#x375;" horiz-adv-x="266" d="M180 113l-112 -251h-58l128 251h42z" />
<glyph unicode="&#x376;" horiz-adv-x="603" d="M468 0h-58l52 370q18 130 44 256l-367 -626h-78l96 685h58l-52 -371q-19 -140 -44 -256l367 627h79z" />
<glyph unicode="&#x377;" horiz-adv-x="528" d="M412 88q0 -19 7.5 -31.5t26.5 -22.5l-23 -42q-35 14 -51 36t-16 57q0 27 22.5 161.5t38.5 212.5l-291 -459h-69l74 523h55l-36 -257q-16 -112 -34 -197l289 454h67l-58 -410q-2 -18 -2 -25z" />
<glyph unicode="&#x37a;" horiz-adv-x="218" d="M0 -152.5q-19 19.5 -19 50.5q0 15 3 33.5t4 23.5h47q-5 -32 -5 -50q0 -34 30 -34q14 0 25 4t26 13l19 -32q-37 -28 -76 -28q-35 0 -54 19.5z" />
<glyph unicode="&#x37b;" horiz-adv-x="456" d="M353.5 475.5q48.5 -58.5 48.5 -160.5q0 -100 -31.5 -173.5t-88.5 -113t-133 -39.5q-86 0 -153 57l31 35q29 -22 57.5 -32.5t65.5 -10.5q60 0 103.5 34.5t67 97t23.5 146.5q0 82 -35.5 125.5t-91.5 43.5q-37 0 -65.5 -10t-64.5 -32l-23 38q43 29 78.5 41t79.5 12 q83 0 131.5 -58.5z" />
<glyph unicode="&#x37c;" horiz-adv-x="450" d="M388.5 521q33.5 -13 64.5 -41l-32 -35q-25 21 -50 31t-60 10q-67 0 -112.5 -44t-67 -111.5t-21.5 -139.5q0 -78 32.5 -115.5t91.5 -37.5q38 0 67 10.5t63 32.5l24 -38q-73 -54 -156 -54q-85 0 -133 53t-48 151q0 85 29.5 163.5t88.5 128t142 49.5q44 0 77.5 -13z M251.5 230q-10.5 10 -10.5 27q0 19 13 32t32 13q17 0 27 -10.5t10 -26.5q0 -19 -12.5 -32t-31.5 -13q-17 0 -27.5 10z" />
<glyph unicode="&#x37d;" horiz-adv-x="456" d="M353.5 475.5q48.5 -58.5 48.5 -160.5q0 -100 -31.5 -173.5t-88.5 -113t-133 -39.5q-86 0 -153 57l31 35q29 -22 57.5 -32.5t65.5 -10.5q60 0 103.5 34.5t67 97t23.5 146.5q0 82 -35.5 125.5t-91.5 43.5q-37 0 -65.5 -10t-64.5 -32l-23 38q43 29 78.5 41t79.5 12 q83 0 131.5 -58.5zM138.5 230q-10.5 10 -10.5 27q0 19 13 32t32 13q17 0 27 -10.5t10 -26.5q0 -19 -12.5 -32t-31.5 -13q-17 0 -27.5 10z" />
<glyph unicode="&#x37e;" horiz-adv-x="197" d="M99 69.5q11 -11.5 11 -29.5q0 -13 -4.5 -26t-16.5 -34l-70 -130h-39l57 147q-17 11 -17 34q0 21 14 35.5t35 14.5q19 0 30 -11.5zM88.5 392q-11.5 12 -11.5 30q0 21 14 35.5t35 14.5q20 0 31 -11.5t11 -29.5q0 -21 -14 -36t-35 -15q-19 0 -30.5 12z" />
<glyph unicode="&#x384;" horiz-adv-x="122" d="M102 769l61 -4l-45 -166h-40z" />
<glyph unicode="&#x385;" horiz-adv-x="315" d="M222 865l53 -3l-39 -143h-34zM154.5 700.5q9.5 -9.5 9.5 -23.5q0 -19 -12 -31t-30 -12q-15 0 -24.5 9.5t-9.5 24.5q0 18 12 30t29 12q16 0 25.5 -9.5zM333.5 700.5q9.5 -9.5 9.5 -23.5q0 -19 -12 -31t-30 -12q-15 0 -24.5 9.5t-9.5 24.5q0 18 12 30t29 12q16 0 25.5 -9.5 z" />
<glyph unicode="&#x386;" horiz-adv-x="518" d="M404 0l-27 188h-254l-79 -188h-60l300 685h73l107 -685h-60zM144 237h226l-57 400zM130 689l62 -4l-46 -171h-41z" />
<glyph unicode="&#x388;" horiz-adv-x="513" d="M526 685l-14 -49h-250l-35 -257h216l-7 -48h-216l-40 -282h263l-8 -49h-320l96 685h315zM87 689l62 -4l-46 -171h-41z" />
<glyph unicode="&#x389;" horiz-adv-x="655" d="M173 0h-58l96 685h58l-42 -300h290l42 300h58l-97 -685h-58l48 336h-290zM87 689l62 -4l-46 -171h-41z" />
<glyph unicode="&#x38a;" horiz-adv-x="308" d="M269 685l-96 -685h-58l96 685h58zM87 689l62 -4l-46 -171h-41z" />
<glyph unicode="&#x38c;" horiz-adv-x="657" d="M562 630q55 -66 55 -190q0 -104 -31.5 -207.5t-102 -173.5t-178.5 -70q-97 0 -152.5 67t-55.5 190q0 101 32.5 204.5t103 174.5t177.5 71q97 0 152 -66zM263 582q-56 -65 -81 -157.5t-25 -180.5q0 -102 39.5 -153.5t110.5 -51.5q91 0 147 65t79.5 158t23.5 181 q0 102 -38.5 153t-111.5 51q-88 0 -144 -65zM90 689l62 -4l-46 -171h-41z" />
<glyph unicode="&#x38e;" horiz-adv-x="554" d="M603 685l-253 -417l-38 -268h-59l38 267l-136 418h60l111 -364l213 364h64zM68 689l62 -4l-46 -171h-41z" />
<glyph unicode="&#x38f;" horiz-adv-x="663" d="M562.5 629.5q55.5 -66.5 55.5 -189.5q0 -125 -41 -231.5t-139 -157.5h108l-7 -51h-180l7 51q106 42 149.5 154.5t43.5 237.5q0 102 -39 153t-112 51q-88 0 -144.5 -64t-81.5 -156.5t-25 -181.5q0 -76 26 -122t79 -73l-7 -50h-180l7 51h112q-50 31 -73 78.5t-23 119.5 q0 100 32.5 203t102.5 173.5t177 70.5q97 0 152.5 -66.5zM91 689l62 -4l-46 -171h-41z" />
<glyph unicode="&#x390;" horiz-adv-x="238" d="M125 116q-2 -20 -2 -27q0 -21 7.5 -33t25.5 -22l-23 -42q-35 14 -51 35.5t-16 56.5q0 14 3 32l57 407h56zM181 865l53 -3l-39 -143h-34zM113.5 700.5q9.5 -9.5 9.5 -23.5q0 -19 -12 -31t-30 -12q-15 0 -24.5 9.5t-9.5 24.5q0 18 12 30t29 12q16 0 25.5 -9.5zM292.5 700.5 q9.5 -9.5 9.5 -23.5q0 -19 -12 -31t-30 -12q-15 0 -24.5 9.5t-9.5 24.5q0 18 12 30t29 12q16 0 25.5 -9.5z" />
<glyph unicode="&#x391;" horiz-adv-x="514" d="M400 0l-27 188h-254l-79 -188h-60l300 685h73l107 -685h-60zM140 237h226l-57 400z" />
<glyph unicode="&#x392;" horiz-adv-x="544" d="M487 223q0 -58 -24.5 -108t-82 -82.5t-149.5 -32.5h-170l96 685h163q89 0 139 -38t50 -110q0 -70 -40.5 -116t-107.5 -59q126 -20 126 -139zM208 636l-35 -252h118q76 0 117.5 42t41.5 109q0 53 -33.5 77t-95.5 24h-113zM383.5 99.5q43.5 50.5 43.5 123.5q0 114 -133 114 h-128l-40 -288h111q103 0 146.5 50.5z" />
<glyph unicode="&#x393;" horiz-adv-x="456" d="M507 685l-16 -52h-283l-89 -633h-58l96 685h350z" />
<glyph unicode="&#x394;" horiz-adv-x="523" d="M357 685l112 -685h-489l305 685h72zM314 637l-254 -588h343z" />
<glyph unicode="&#x395;" horiz-adv-x="458" d="M472 685l-14 -49h-250l-35 -257h216l-7 -48h-216l-40 -282h263l-8 -49h-320l96 685h315z" />
<glyph unicode="&#x396;" horiz-adv-x="462" d="M-7 0l7 48l409 586h-294l8 51h357l-7 -48l-407 -586l320 1l-15 -52h-378z" />
<glyph unicode="&#x397;" horiz-adv-x="601" d="M119 0h-58l96 685h58l-42 -300h290l42 300h58l-97 -685h-58l48 336h-290z" />
<glyph unicode="&#x398;" horiz-adv-x="624" d="M528 630q55 -66 55 -190q0 -104 -31.5 -207.5t-102 -173.5t-178.5 -70q-97 0 -152.5 67t-55.5 190q0 101 32.5 204.5t103 174.5t177.5 71q97 0 152 -66zM228 582q-56 -65 -81 -157.5t-25 -180.5q0 -103 39.5 -154t111.5 -51q91 0 147.5 65t80 157.5t23.5 181.5 q0 103 -39 153.5t-112 50.5q-89 0 -145 -65zM441 375l-6 -47h-229l7 47h228z" />
<glyph unicode="&#x399;" horiz-adv-x="254" d="M215 685l-96 -685h-58l96 685h58z" />
<glyph unicode="&#x39a;" horiz-adv-x="498" d="M61 0l96 685h58l-96 -685h-58zM391 0l-217 367l298 318h67l-300 -320l218 -365h-66z" />
<glyph unicode="&#x39b;" horiz-adv-x="514" d="M353 685l107 -685h-59l-91 637l-270 -637h-60l300 685h73z" />
<glyph unicode="&#x39c;" horiz-adv-x="697" d="M597 0h-56l18 328q10 191 20 301l-227 -548h-57l-81 547q-12 -79 -60 -299l-72 -329h-56l155 685h75l77 -536l218 536h83z" />
<glyph unicode="&#x39d;" horiz-adv-x="603" d="M468 0h-75l-198 632q-5 -93 -26 -248l-53 -384h-55l96 685h76l199 -631q3 88 20 214l58 417h55z" />
<glyph unicode="&#x39e;" horiz-adv-x="448" d="M454 685l-15 -53h-342l7 53h350zM364 382l-7 -54h-250l7 54h250zM374 55l-8 -55h-358l8 55h358z" />
<glyph unicode="&#x39f;" horiz-adv-x="624" d="M528 630q55 -66 55 -190q0 -104 -31.5 -207.5t-102 -173.5t-178.5 -70q-97 0 -152.5 67t-55.5 190q0 101 32.5 204.5t103 174.5t177.5 71q97 0 152 -66zM229 582q-56 -65 -81 -157.5t-25 -180.5q0 -102 39.5 -153.5t110.5 -51.5q91 0 147 65t79.5 158t23.5 181 q0 102 -38.5 153t-111.5 51q-88 0 -144 -65z" />
<glyph unicode="&#x3a0;" horiz-adv-x="597" d="M558 685l-96 -685h-58l89 634h-285l-89 -634h-58l96 685h401z" />
<glyph unicode="&#x3a1;" horiz-adv-x="510" d="M455 642.5q53 -42.5 53 -127.5q0 -66 -25.5 -121.5t-85 -91t-155.5 -35.5h-86l-37 -267h-58l96 685h146q99 0 152 -42.5zM402.5 373q45.5 57 45.5 142q0 65 -37.5 93.5t-112.5 28.5h-90l-45 -321h83q111 0 156.5 57z" />
<glyph unicode="&#x3a3;" horiz-adv-x="449" d="M465 685l-6 -50h-295l151 -283l-3 -33l-226 -269h290l-7 -50h-362l5 42l249 298l-164 303l5 42h363z" />
<glyph unicode="&#x3a4;" horiz-adv-x="446" d="M496 685l-14 -52h-178l-89 -633h-58l89 633h-181l7 52h424z" />
<glyph unicode="&#x3a5;" horiz-adv-x="471" d="M519 685l-253 -417l-38 -268h-59l38 267l-136 418h60l111 -364l213 364h64z" />
<glyph unicode="&#x3a6;" horiz-adv-x="714" d="M659.5 236.5q-31.5 -69.5 -106 -115.5t-194.5 -51l-10 -70h-57l10 70q-125 6 -190.5 66.5t-65.5 161.5q0 81 32 150.5t106 115t194 50.5l10 71h57l-10 -71q124 -5 190 -65.5t66 -160.5q0 -82 -31.5 -151.5zM573 202q60 76 60 187q0 84 -51.5 130t-154.5 50l-63 -452 q149 9 209 85zM373 568q-149 -10 -209 -85.5t-60 -185.5q0 -84 52 -130t154 -50z" />
<glyph unicode="&#x3a7;" horiz-adv-x="462" d="M489 685l-212 -315l140 -370h-62l-115 328l-205 -328h-64l238 368l-123 317h63l98 -278l178 278h64z" />
<glyph unicode="&#x3a8;" horiz-adv-x="608" d="M629 685l-39 -276q-13 -96 -81.5 -149t-184.5 -59l-28 -201h-58l28 201q-103 6 -156 51.5t-53 123.5q0 23 2 35l38 274h57l-38 -273q-2 -11 -2 -33q0 -123 160 -130l61 436h56l-62 -435q93 5 144 47.5t61 118.5l38 269h57z" />
<glyph unicode="&#x3a9;" horiz-adv-x="632" d="M531.5 629.5q55.5 -66.5 55.5 -189.5q0 -125 -41 -231.5t-139 -157.5h108l-7 -51h-180l7 51q106 42 149.5 154.5t43.5 237.5q0 102 -39 153t-112 51q-88 0 -144.5 -64t-81.5 -156.5t-25 -181.5q0 -76 26 -122t79 -73l-7 -50h-180l7 51h112q-50 31 -73 78.5t-23 119.5 q0 100 32.5 203t102.5 173.5t177 70.5q97 0 152.5 -66.5z" />
<glyph unicode="&#x3aa;" horiz-adv-x="254" d="M215 685l-96 -685h-58l96 685h58zM93 799.5q-9 9.5 -9 23.5q0 19 12 31t29 12q15 0 25 -9.5t10 -24.5q0 -18 -12 -30t-30 -12q-16 0 -25 9.5zM264.5 799.5q-9.5 9.5 -9.5 23.5q0 19 12 31t30 12q15 0 24.5 -10t9.5 -24q0 -18 -12 -30t-30 -12q-15 0 -24.5 9.5z" />
<glyph unicode="&#x3ab;" horiz-adv-x="471" d="M519 685l-253 -417l-38 -268h-59l38 267l-136 418h60l111 -364l213 364h64zM199 799.5q-9 9.5 -9 23.5q0 19 12 31t29 12q15 0 25 -9.5t10 -24.5q0 -18 -12 -30t-30 -12q-16 0 -25 9.5zM370.5 799.5q-9.5 9.5 -9.5 23.5q0 19 12 31t30 12q15 0 24.5 -10t9.5 -24 q0 -18 -12 -30t-30 -12q-15 0 -24.5 9.5z" />
<glyph unicode="&#x3ac;" horiz-adv-x="541" d="M369 491q31 -43 31 -147l60 179h53l-95 -261l-1 -173q0 -22 7 -32.5t22 -16.5l-25 -48q-25 6 -40.5 25.5t-14.5 55.5l2 101q-34 -94 -78 -139.5t-105 -45.5q-64 0 -100 46.5t-36 134.5q0 82 23.5 166t74 141t126.5 57q65 0 96 -43zM180 436q-37 -51 -54.5 -124.5 t-17.5 -141.5q0 -134 83 -134q49 0 93 51t85 179q0 88 -10.5 135.5t-31 66.5t-55.5 19q-55 0 -92 -51zM300 769l61 -4l-45 -166h-40z" />
<glyph unicode="&#x3ad;" horiz-adv-x="428" d="M83 28q-44 39 -44 103q0 58 36 99t107 48q-42 11 -64.5 36t-22.5 68q0 37 19 72t58.5 57.5t97.5 22.5q81 0 141 -51l-31 -33q-25 19 -50.5 28.5t-59.5 9.5q-60 0 -89.5 -31.5t-29.5 -74.5q0 -40 25.5 -62.5t75.5 -22.5h50l-14 -47h-45q-79 0 -112 -33.5t-33 -85.5 q0 -44 27.5 -69t76.5 -25q41 0 72 12.5t67 38.5l27 -36q-75 -63 -169 -63q-72 0 -116 39zM280 769l61 -4l-45 -166h-40z" />
<glyph unicode="&#x3ae;" horiz-adv-x="528" d="M398 372q3 20 3 36q0 79 -67 79q-87 0 -172 -171l-45 -316h-56l50 357q8 53 8 100q0 35 -5 68l50 5q3 -16 5.5 -33.5t2.5 -36.5q0 -28 -4 -63q77 137 176 137q54 0 84 -33t30 -92q0 -17 -3 -35l-83 -573l-55 -7zM319 769l61 -4l-45 -166h-40z" />
<glyph unicode="&#x3af;" horiz-adv-x="238" d="M125 116q-2 -20 -2 -27q0 -21 7.5 -33t25.5 -22l-23 -42q-35 14 -51 35.5t-16 56.5q0 14 3 32l57 407h56zM169 769l61 -4l-45 -166h-40z" />
<glyph unicode="&#x3b0;" horiz-adv-x="507" d="M446 428q0 -189 -54 -314t-185 -125q-64 0 -99.5 37t-35.5 97q0 9 2 29l52 371h56l-52 -372q-2 -18 -2 -27q0 -43 21.5 -65t61.5 -22q102 0 140.5 116.5t38.5 277.5q0 49 -3 92h54q5 -52 5 -95zM312 865l53 -3l-39 -143h-34zM244.5 700.5q9.5 -9.5 9.5 -23.5 q0 -19 -12 -31t-30 -12q-15 0 -24.5 9.5t-9.5 24.5q0 18 12 30t29 12q16 0 25.5 -9.5zM423.5 700.5q9.5 -9.5 9.5 -23.5q0 -19 -12 -31t-30 -12q-15 0 -24.5 9.5t-9.5 24.5q0 18 12 30t29 12q16 0 25.5 -9.5z" />
<glyph unicode="&#x3b1;" horiz-adv-x="541" d="M369 491q31 -43 31 -147l60 179h53l-95 -261l-1 -173q0 -22 7 -32.5t22 -16.5l-25 -48q-25 6 -40.5 25.5t-14.5 55.5l2 101q-34 -94 -78 -139.5t-105 -45.5q-64 0 -100 46.5t-36 134.5q0 82 23.5 166t74 141t126.5 57q65 0 96 -43zM180 436q-37 -51 -54.5 -124.5 t-17.5 -141.5q0 -134 83 -134q49 0 93 51t85 179q0 88 -10.5 135.5t-31 66.5t-55.5 19q-55 0 -92 -51z" />
<glyph unicode="&#x3b2;" horiz-adv-x="530" d="M131 533q15 102 70.5 156t135.5 54q68 0 110.5 -41t42.5 -111q0 -74 -43 -128t-126 -65q67 -2 111.5 -45.5t44.5 -123.5q0 -58 -24 -113t-74 -91t-122 -36q-86 0 -137 64l-35 -252l-57 -7zM348.5 66q37.5 29 54.5 72.5t17 89.5q0 71 -40.5 109.5t-115.5 38.5h-43l12 45 h41q52 0 88.5 24t54.5 63t18 82q0 53 -26.5 80t-73.5 27q-57 0 -96.5 -41t-51.5 -127l-59 -425q24 -35 54.5 -51t72.5 -16q56 0 93.5 29z" />
<glyph unicode="&#x3b3;" horiz-adv-x="417" d="M181 70l203 461l54 -13l-238 -506q-18 -40 -27 -71.5t-9 -62.5q0 -33 11 -75l-47 -9q-19 52 -19 93q0 52 34 128q-20 206 -44 321.5t-59 176.5l54 16q71 -138 87 -459z" />
<glyph unicode="&#x3b4;" horiz-adv-x="512" d="M477 685l-34 -32q-25 22 -51 32.5t-58 10.5q-58 0 -86.5 -28t-28.5 -69q0 -33 20.5 -55.5t74.5 -48.5q74 -36 108.5 -81.5t34.5 -116.5q0 -69 -24.5 -140t-78.5 -119.5t-136 -48.5q-79 0 -123.5 53t-44.5 142q0 101 43 176.5t145 120.5q-40 24 -58 51.5t-18 64.5t19 70.5 t58 54.5t94 21q84 0 144 -58zM144.5 345q-36.5 -69 -36.5 -162q0 -68 29 -107t83 -39q64 0 103.5 42t57 102t17.5 117q0 58 -27 94.5t-93 69.5q-97 -48 -133.5 -117z" />
<glyph unicode="&#x3b5;" horiz-adv-x="428" d="M83 28q-44 39 -44 103q0 58 36 99t107 48q-42 11 -64.5 36t-22.5 68q0 37 19 72t58.5 57.5t97.5 22.5q81 0 141 -51l-31 -33q-25 19 -50.5 28.5t-59.5 9.5q-60 0 -89.5 -31.5t-29.5 -74.5q0 -40 25.5 -62.5t75.5 -22.5h50l-14 -47h-45q-79 0 -112 -33.5t-33 -85.5 q0 -44 27.5 -69t76.5 -25q41 0 72 12.5t67 38.5l27 -36q-75 -63 -169 -63q-72 0 -116 39z" />
<glyph unicode="&#x3b6;" horiz-adv-x="336" d="M140 -168q54 27 80.5 56t26.5 63q0 28 -17.5 45t-71.5 43q-63 30 -91.5 68.5t-28.5 107.5q0 236 329 481q-41 -7 -117 -7h-150l14 47h308l2 -41q-181 -149 -254 -261t-73 -218q0 -53 22.5 -82.5t76.5 -55.5q59 -28 85 -54t26 -68q0 -46 -33 -85t-117 -77z" />
<glyph unicode="&#x3b7;" horiz-adv-x="528" d="M398 372q3 20 3 36q0 79 -67 79q-87 0 -172 -171l-45 -316h-56l50 357q8 53 8 100q0 35 -5 68l50 5q3 -16 5.5 -33.5t2.5 -36.5q0 -28 -4 -63q77 137 176 137q54 0 84 -33t30 -92q0 -17 -3 -35l-83 -573l-55 -7z" />
<glyph unicode="&#x3b8;" horiz-adv-x="513" d="M443.5 684.5q37.5 -58.5 37.5 -170.5q0 -134 -30 -254.5t-90 -195.5t-146 -75q-76 0 -114.5 59.5t-38.5 170.5q0 131 29 251t89 196.5t149 76.5q77 0 114.5 -58.5zM206 620q-49 -76 -73 -227h284q9 77 9 125q0 93 -24.5 135.5t-76.5 42.5q-70 0 -119 -76zM126 347 q-10 -80 -10 -134q0 -89 25.5 -132.5t76.5 -43.5q70 0 119.5 80.5t72.5 229.5h-284z" />
<glyph unicode="&#x3b9;" horiz-adv-x="238" d="M125 116q-2 -20 -2 -27q0 -21 7.5 -33t25.5 -22l-23 -42q-35 14 -51 35.5t-16 56.5q0 14 3 32l57 407h56z" />
<glyph unicode="&#x3ba;" horiz-adv-x="464" d="M348 12.5q-16 13.5 -32 38.5l-155 224l250 259l40 -29l-225 -232l133 -191q15 -22 25.5 -31.5t28.5 -17.5l-23 -42q-26 8 -42 21.5zM111 357q8 53 8 100q0 35 -5 68l52 5q8 -35 8 -81q0 -45 -8 -102l-49 -347h-56z" />
<glyph unicode="&#x3bb;" horiz-adv-x="423" d="M234 702.5q32 -27.5 46.5 -74.5t18.5 -126q8 -154 21.5 -246t31 -142t46.5 -103l-53 -19q-28 56 -45.5 107.5t-30.5 140.5t-17 230l-206 -479l-54 14l235 524l21 -4q-4 56 -14.5 89.5t-34 54.5t-67.5 32l12 43q58 -14 90 -41.5z" />
<glyph unicode="&#x3bc;" horiz-adv-x="526" d="M405 81q0 -40 7 -82l-52 -7q-9 47 -9 79l1 26q-33 -50 -71 -79t-85 -29q-63 0 -86 52q1 -45 -10 -122l-16 -116l-56 -6l103 726h55l-52 -375q-2 -11 -2 -30q0 -43 19.5 -62t51.5 -19q41 0 79.5 31t71.5 91l52 364h55l-49 -348q-7 -50 -7 -94z" />
<glyph unicode="&#x3bd;" horiz-adv-x="417" d="M176 49l208 482l54 -13l-234 -518h-71q-16 214 -37.5 333.5t-55.5 179.5l54 16q65 -127 82 -480z" />
<glyph unicode="&#x3be;" horiz-adv-x="380" d="M170 -168q54 27 80.5 56.5t26.5 63.5q0 19 -8 32.5t-28.5 26t-61.5 32.5q-48 23 -75.5 45.5t-41.5 55t-14 83.5q0 85 43 145t132 73q-45 13 -69.5 43.5t-24.5 77.5q0 51 23 91.5t64.5 63t93.5 22.5q83 0 139 -54l-30 -33q-25 21 -50.5 31t-57.5 10q-62 0 -93.5 -37.5 t-31.5 -92.5q0 -47 27.5 -74.5t78.5 -27.5h47l-15 -47h-46q-90 0 -131 -55.5t-41 -134.5q0 -40 11.5 -65.5t34 -42.5t63.5 -36q67 -31 94.5 -58t27.5 -69q0 -46 -33 -85.5t-117 -77.5z" />
<glyph unicode="&#x3bf;" horiz-adv-x="515" d="M94.5 42q-43.5 53 -43.5 147q0 78 25 157.5t80.5 133.5t140.5 54q80 0 123.5 -52.5t43.5 -146.5q0 -77 -25 -157t-80 -134.5t-141 -54.5q-80 0 -123.5 53zM327.5 85.5q41.5 48.5 60 118t18.5 135.5q0 73 -28 110.5t-82 37.5q-67 0 -109 -49t-60 -118t-18 -135 q0 -73 28.5 -110.5t82.5 -37.5q66 0 107.5 48.5z" />
<glyph unicode="&#x3c0;" horiz-adv-x="521" d="M389 116q-2 -20 -2 -27q0 -21 7.5 -33t25.5 -22l-23 -42q-36 14 -51.5 35.5t-15.5 57.5q0 9 2 31l52 359h-188l-66 -475h-56l66 475q-22 0 -38 -2t-38 -8l-8 45q23 7 46.5 10t60.5 3h364l-8 -48h-79z" />
<glyph unicode="&#x3c1;" horiz-adv-x="515" d="M420 484q41 -50 41 -139q0 -80 -23.5 -162t-75 -138t-131.5 -56t-119 72l-36 -260l-58 -7l71 505q16 112 71.5 173.5t141.5 61.5q77 0 118 -50zM329 86.5q39 49.5 56 120.5t17 138q0 71 -26 107t-76 36q-63 0 -103 -52t-54 -149l-23 -167q31 -83 108 -83q62 0 101 49.5z " />
<glyph unicode="&#x3c2;" horiz-adv-x="412" d="M155 -168q55 27 81.5 56.5t26.5 63.5q0 28 -18 45.5t-72 42.5q-63 29 -91 68t-28 109q0 69 25.5 142.5t80 124t137.5 50.5q39 0 70 -13t60 -41l-33 -34q-22 20 -44.5 30t-52.5 10q-64 0 -105.5 -43.5t-60.5 -105.5t-19 -120q0 -54 23 -83.5t75 -54.5q61 -29 87 -54.5 t26 -67.5q0 -46 -33 -85.5t-117 -77.5z" />
<glyph unicode="&#x3c3;" horiz-adv-x="520" d="M94.5 42.5q-43.5 53.5 -43.5 146.5q0 77 25.5 155t87 132t163.5 54q69 0 195 -7l-6 -46l-112 8q27 -23 43 -64t16 -94q0 -74 -25 -152t-80 -132t-140 -54q-80 0 -123.5 53.5zM327.5 85.5q41.5 48.5 59.5 116.5t18 131q0 55 -16 94t-44 61h-17q-82 0 -131 -48.5 t-68.5 -117.5t-19.5 -138q0 -72 28.5 -109.5t82.5 -37.5q66 0 107.5 48.5z" />
<glyph unicode="&#x3c4;" horiz-adv-x="390" d="M200 116q-2 -11 -2 -28q0 -21 7.5 -33t25.5 -21l-23 -42q-36 13 -51.5 35t-15.5 58q0 9 2 31l51 359h-72q-30 0 -49 -2t-40 -8l-8 45q20 7 44 10t60 3h294l-7 -48h-166z" />
<glyph unicode="&#x3c5;" horiz-adv-x="507" d="M446 428q0 -189 -54 -314t-185 -125q-64 0 -99.5 37t-35.5 97q0 9 2 29l52 371h56l-52 -372q-2 -18 -2 -27q0 -43 21.5 -65t61.5 -22q102 0 140.5 116.5t38.5 277.5q0 49 -3 92h54q5 -52 5 -95z" />
<glyph unicode="&#x3c6;" horiz-adv-x="650" d="M596 369q0 -163 -60 -266.5t-226 -112.5l-26 -189l-56 -7l28 196q-99 7 -147 54t-48 139q0 139 95 340h56q-44 -92 -69.5 -179.5t-25.5 -158.5q0 -76 35.5 -110t109.5 -40l46 320q12 89 54 134t106 45q128 0 128 -165zM398.5 456.5q-27.5 -31.5 -38.5 -111.5l-44 -310 q92 7 141.5 54t66 116t16.5 161q0 66 -18 94t-55 28q-41 0 -68.5 -31.5z" />
<glyph unicode="&#x3c7;" horiz-adv-x="390" d="M212 183l106 -376l-56 -10l-87 341l-186 -340l-56 7l218 380q-36 139 -61 207.5t-60 120.5l54 17q31 -51 54 -115t50 -187l157 301l57 -6z" />
<glyph unicode="&#x3c8;" horiz-adv-x="684" d="M600.5 203.5q-19.5 -90.5 -82.5 -148.5t-185 -65l-27 -189l-55 -7l27 196q-99 3 -149.5 47.5t-50.5 124.5q0 20 3 42l46 319h55l-45 -320q-3 -19 -3 -38q0 -62 37 -94t114 -35l68 487h55l-68 -487q98 7 147.5 62t63.5 134.5t14 197.5q0 59 -3 93h54q4 -50 4 -93 q0 -136 -19.5 -226.5z" />
<glyph unicode="&#x3c9;" horiz-adv-x="697" d="M95.5 32.5q-35.5 43.5 -35.5 131.5q0 160 96 359h57q-97 -206 -97 -361q0 -67 21.5 -96t60.5 -29q41 0 70.5 31.5t39.5 101.5l26 183l55 8l-27 -195q-3 -19 -3 -37q0 -92 73 -92q80 0 112.5 94t32.5 220q0 85 -18 172h55q19 -89 19 -175q0 -151 -47 -255t-152 -104 q-49 0 -77.5 29t-29.5 84q-37 -113 -136 -113q-60 0 -95.5 43.5z" />
<glyph unicode="&#x3ca;" horiz-adv-x="238" d="M125 116q-2 -20 -2 -27q0 -21 7.5 -33t25.5 -22l-23 -42q-35 14 -51 35.5t-16 56.5q0 14 3 32l57 407h56zM65 673.5q-9 9.5 -9 23.5q0 19 12 31t29 12q15 0 25 -9.5t10 -24.5q0 -18 -12 -30t-30 -12q-16 0 -25 9.5zM236.5 673.5q-9.5 9.5 -9.5 23.5q0 19 12 31t30 12 q15 0 24.5 -10t9.5 -24q0 -18 -12 -30t-30 -12q-15 0 -24.5 9.5z" />
<glyph unicode="&#x3cb;" horiz-adv-x="507" d="M446 428q0 -189 -54 -314t-185 -125q-64 0 -99.5 37t-35.5 97q0 9 2 29l52 371h56l-52 -372q-2 -18 -2 -27q0 -43 21.5 -65t61.5 -22q102 0 140.5 116.5t38.5 277.5q0 49 -3 92h54q5 -52 5 -95zM196 673.5q-9 9.5 -9 23.5q0 19 12 31t29 12q15 0 25 -9.5t10 -24.5 q0 -18 -12 -30t-30 -12q-16 0 -25 9.5zM367.5 673.5q-9.5 9.5 -9.5 23.5q0 19 12 31t30 12q15 0 24.5 -10t9.5 -24q0 -18 -12 -30t-30 -12q-15 0 -24.5 9.5z" />
<glyph unicode="&#x3cc;" horiz-adv-x="515" d="M94.5 42q-43.5 53 -43.5 147q0 78 25 157.5t80.5 133.5t140.5 54q80 0 123.5 -52.5t43.5 -146.5q0 -77 -25 -157t-80 -134.5t-141 -54.5q-80 0 -123.5 53zM327.5 85.5q41.5 48.5 60 118t18.5 135.5q0 73 -28 110.5t-82 37.5q-67 0 -109 -49t-60 -118t-18 -135 q0 -73 28.5 -110.5t82.5 -37.5q66 0 107.5 48.5zM312 769l61 -4l-45 -166h-40z" />
<glyph unicode="&#x3cd;" horiz-adv-x="507" d="M446 428q0 -189 -54 -314t-185 -125q-64 0 -99.5 37t-35.5 97q0 9 2 29l52 371h56l-52 -372q-2 -18 -2 -27q0 -43 21.5 -65t61.5 -22q102 0 140.5 116.5t38.5 277.5q0 49 -3 92h54q5 -52 5 -95zM300 769l61 -4l-45 -166h-40z" />
<glyph unicode="&#x3ce;" horiz-adv-x="697" d="M95.5 32.5q-35.5 43.5 -35.5 131.5q0 160 96 359h57q-97 -206 -97 -361q0 -67 21.5 -96t60.5 -29q41 0 70.5 31.5t39.5 101.5l26 183l55 8l-27 -195q-3 -19 -3 -37q0 -92 73 -92q80 0 112.5 94t32.5 220q0 85 -18 172h55q19 -89 19 -175q0 -151 -47 -255t-152 -104 q-49 0 -77.5 29t-29.5 84q-37 -113 -136 -113q-60 0 -95.5 43.5zM397 769l61 -4l-45 -166h-40z" />
<glyph unicode="&#x3cf;" horiz-adv-x="520" d="M157 685h58l-96 -685h-58zM482 50l-6 -50h1l-12 -79q-9 -62 -44 -94t-86 -32q-52 0 -91 35l27 36q16 -11 29.5 -16.5t32.5 -5.5q29 0 49 19.5t26 60.5l11 76h-28l-217 367l298 318h67l-300 -320l188 -315h55z" />
<glyph unicode="&#x3d0;" horiz-adv-x="514" d="M423 387.5q34 -41.5 34 -111.5q0 -65 -24.5 -131.5t-77.5 -111t-132 -44.5q-166 0 -166 220q0 121 36 245t106.5 206.5t167.5 82.5q57 0 86.5 -29.5t29.5 -74.5q0 -61 -48.5 -120t-165.5 -98q35 8 53 8q67 0 101 -41.5zM278.5 666q-43.5 -31 -81.5 -100t-61 -177l46 20 q144 60 193.5 114.5t49.5 113.5q0 28 -15 44t-46 16q-42 0 -85.5 -31zM322.5 74.5q38.5 37.5 56 92t17.5 108.5q0 58 -23.5 88t-77.5 30q-28 0 -55 -8t-65 -24l-49 -21q-12 -75 -12 -135q0 -85 26.5 -126.5t83.5 -41.5q60 0 98.5 37.5z" />
<glyph unicode="&#x3d1;" horiz-adv-x="479" d="M484 410h-38q-10 -115 -43 -210.5t-91 -153t-137 -57.5q-62 0 -96.5 36.5t-34.5 95.5q0 9 2 27l28 195h55l-28 -196q-2 -18 -2 -25q0 -42 21 -63.5t58 -21.5q89 0 142.5 109.5t67.5 263.5h-119q-87 0 -133 39.5t-46 113.5q0 48 21.5 89t62 65.5t94.5 24.5 q91 0 136.5 -62.5t45.5 -174.5q0 -32 -1 -48h42zM392 457q1 17 1 52q0 187 -126 187q-57 0 -90 -37.5t-33 -94.5q0 -53 32 -80.5t96 -27.5z" />
<glyph unicode="&#x3d2;" horiz-adv-x="492" d="M207 267l-136 418h61l111 -364l158 290q25 47 51 66t64 19q50 0 87 -41l-28 -31q-15 12 -28 18.5t-28 6.5q-22 0 -37 -12t-33 -43l-183 -326l-38 -268h-59z" />
<glyph unicode="&#x3d3;" horiz-adv-x="589" d="M303 267l-136 418h61l111 -364l158 290q25 47 51 66t64 19q50 0 87 -41l-28 -31q-15 12 -28 18.5t-28 6.5q-22 0 -37 -12t-33 -43l-183 -326l-38 -268h-59zM126 694l19 -196l-41 -6l-38 193z" />
<glyph unicode="&#x3d4;" horiz-adv-x="492" d="M207 267l-136 418h61l111 -364l158 290q25 47 51 66t64 19q50 0 87 -41l-28 -31q-15 12 -28 18.5t-28 6.5q-22 0 -37 -12t-33 -43l-183 -326l-38 -268h-59zM215 799.5q-9 9.5 -9 23.5q0 19 12 31t29 12q15 0 25 -9.5t10 -24.5q0 -18 -12 -30t-30 -12q-16 0 -25 9.5z M386.5 799.5q-9.5 9.5 -9.5 23.5q0 19 12 31t30 12q15 0 24.5 -10t9.5 -24q0 -18 -12 -30t-30 -12q-15 0 -24.5 9.5z" />
<glyph unicode="&#x3d5;" horiz-adv-x="562" d="M490.5 157.5q-29.5 -69.5 -85.5 -109.5t-134 -43l-28 -202l-56 -8l30 211q-84 5 -129.5 57.5t-45.5 142.5t29.5 159.5t85.5 109.5t133 43l30 218l57 7l-31 -226q83 -6 128.5 -58.5t45.5 -141.5q0 -90 -29.5 -159.5zM285 472q-90 -7 -137.5 -79.5t-47.5 -187.5 q0 -147 126 -154zM415 130.5q48 72.5 48 187.5q0 72 -32.5 111t-95.5 42l-58 -420q90 7 138 79.5z" />
<glyph unicode="&#x3d6;" horiz-adv-x="657" d="M646 475h-90q42 -88 42 -185q0 -79 -20.5 -147.5t-61 -111t-99.5 -42.5q-46 0 -74 29t-29 82q-35 -111 -128 -111q-56 0 -89 41.5t-33 123.5q0 84 30 166t84 155h-13q-26 0 -43 -2t-39 -8l-7 45q21 8 43 10.5t62 2.5h473zM506 475h-276q-110 -167 -110 -321 q0 -60 19.5 -88.5t52.5 -28.5q37 0 66 32t39 101l20 147l55 8l-21 -156q-3 -22 -3 -42q0 -90 66 -90q65 0 96.5 76t31.5 177q0 92 -36 185z" />
<glyph unicode="&#x3d7;" horiz-adv-x="522" d="M407 88q0 -19 7.5 -31.5t25.5 -22.5l-16 -114q-9 -62 -44 -93.5t-87 -31.5q-29 0 -50 9.5t-40 25.5l28 33q16 -11 29 -16.5t33 -5.5q66 0 77 80l13 94q-17 12 -25 28.5t-8 41.5q0 28 23 163t39 210l-296 -466l-59 19l57 401q2 18 2 25q0 19 -7.5 30.5t-26.5 22.5l23 42 q35 -14 51 -35.5t16 -57.5q0 -27 -23 -163t-39 -210l298 467l57 -19l-56 -401q-2 -18 -2 -25z" />
<glyph unicode="&#x3d8;" horiz-adv-x="624" d="M554 240q-29 -100 -93.5 -171t-164.5 -79l-26 -187h-59l26 188q-82 11 -128 77t-46 178q0 101 32.5 204.5t103 174.5t177.5 71q97 0 152 -66t55 -190q0 -100 -29 -200zM420 104q56 65 79.5 158t23.5 181q0 102 -38.5 153t-111.5 51q-88 0 -144 -65t-81 -157.5t-25 -180.5 q0 -102 39.5 -153.5t110.5 -51.5q91 0 147 65z" />
<glyph unicode="&#x3d9;" horiz-adv-x="515" d="M442 186.5q-22 -75.5 -71 -131t-125 -64.5l-26 -188l-54 -8l27 196q-68 8 -105 60t-37 138q0 78 25 157.5t80.5 133.5t140.5 54q80 0 123.5 -52.5t43.5 -146.5q0 -73 -22 -148.5zM327.5 85.5q41.5 48.5 60 118t18.5 135.5q0 73 -28 110.5t-82 37.5q-67 0 -109 -49 t-60 -118t-18 -135q0 -73 28.5 -110.5t82.5 -37.5q66 0 107.5 48.5z" />
<glyph unicode="&#x3da;" horiz-adv-x="490" d="M231 -166q106 51 106 115q0 20 -10.5 34t-28 25.5t-70.5 42.5q-74 45 -115 105.5t-41 166.5q0 102 40.5 184t119 130t188.5 48h110l-14 -52h-101q-90 0 -153.5 -43t-95.5 -113.5t-32 -153.5q0 -63 16 -106t44 -71t72 -54q54 -31 77.5 -47.5t38 -38t14.5 -52.5 q0 -51 -35 -88t-111 -72z" />
<glyph unicode="&#x3db;" horiz-adv-x="405" d="M156 -167q53 26 80.5 54.5t27.5 64.5q0 28 -18 44.5t-68 40.5q-62 31 -92.5 73.5t-30.5 120.5q0 181 176 240l52 15q34 8 51.5 15.5t29.5 24.5t17 49l51 -8q-6 -45 -23.5 -69.5t-41 -35.5t-66.5 -22l-40 -12q-75 -23 -111 -69.5t-36 -127.5q0 -61 23.5 -94.5t77.5 -60.5 q59 -27 84 -52.5t25 -66.5q0 -48 -35 -87.5t-114 -75.5z" />
<glyph unicode="&#x3dc;" horiz-adv-x="470" d="M208 633l-36 -258h158q27 0 45.5 -5t37.5 -16l-21 -43q-33 14 -68 14h-159l-46 -325h-58l96 685h350l-16 -52h-283z" />
<glyph unicode="&#x3dd;" horiz-adv-x="384" d="M163 391l-21 -149h108q54 0 88 -21l-20 -42q-30 15 -73 15h-110l-56 -393l-56 -7l84 598q18 131 146 131h161l-13 -48h-150q-77 0 -88 -84z" />
<glyph unicode="&#x3de;" horiz-adv-x="409" d="M382 374l13 -54l-218 -320h-64l220 320h-282l-12 54l214 311h64l-216 -311h281z" />
<glyph unicode="&#x3df;" horiz-adv-x="387" d="M281 733q-14 -57 -30.5 -96.5t-53.5 -100.5l-104 -174l282 89l18 -47l-127 -227q-34 -59 -51.5 -98.5t-30.5 -87.5l-49 13q14 56 31 96t53 100l108 185l-284 -89l-17 47l125 217q35 59 51.5 97.5t29.5 88.5z" />
<glyph unicode="&#x3e0;" horiz-adv-x="511" d="M457 0h-56l-60 305l-135 -305l-52 1l173 374l-30 157l-259 -532h-58l300 598l-20 87h52z" />
<glyph unicode="&#x3e1;" horiz-adv-x="531" d="M329 592.5q64 -75.5 97 -167t33 -208.5q0 -98 -22.5 -211.5t-58.5 -212.5l-48 10q33 101 54 210.5t21 201.5q0 52 -8 105l-182 -320h-56l223 385q-17 59 -51 114l-301 -499h-56l328 541q-53 71 -163 164l25 40q101 -77 165 -152.5z" />
<glyph unicode="&#x3f0;" horiz-adv-x="522" d="M407 88q0 -19 7.5 -31.5t25.5 -22.5l-23 -42q-35 14 -51 36t-16 57q0 28 23 164t39 210l-296 -467l-59 19l57 401q2 18 2 25q0 19 -7.5 30.5t-26.5 22.5l23 42q35 -14 51 -35.5t16 -57.5q0 -27 -23 -163t-39 -210l298 467l57 -19l-56 -401q-2 -18 -2 -25z" />
<glyph unicode="&#x3f1;" horiz-adv-x="514" d="M104 0q-2 -16 -2 -22q0 -38 24.5 -56.5t84.5 -29.5q60 -12 86.5 -30.5t34.5 -49.5l-53 -17q-6 16 -15.5 25t-28.5 15.5t-58 14.5q-66 14 -98 42t-32 84q0 21 2 33l40 290q15 112 71 173.5t142 61.5q76 0 117.5 -50t41.5 -139q0 -70 -24.5 -145t-75 -126.5t-125.5 -51.5 q-41 0 -71.5 18.5t-48.5 49.5zM197 436q-40 -52 -54 -149l-19 -141q33 -76 109 -76q57 0 95 45t56 109t18 121q0 71 -26 107t-76 36q-63 0 -103 -52z" />
<glyph unicode="&#x3f2;" horiz-adv-x="450" d="M388.5 521q33.5 -13 64.5 -41l-32 -35q-25 21 -50 31t-60 10q-67 0 -112.5 -44t-67 -111.5t-21.5 -139.5q0 -78 32.5 -115.5t91.5 -37.5q38 0 67 10.5t63 32.5l24 -38q-73 -54 -156 -54q-85 0 -133 53t-48 151q0 85 29.5 163.5t88.5 128t142 49.5q44 0 77.5 -13z" />
<glyph unicode="&#x3f3;" horiz-adv-x="244" d="M-58 -161q37 18 59 37t36.5 51t22.5 88l71 508h56l-72 -511q-9 -66 -28 -105t-48 -62t-81 -48zM153.5 680q-10.5 10 -10.5 27q0 19 13 32t32 13q17 0 27 -10.5t10 -26.5q0 -19 -12.5 -32t-31.5 -13q-17 0 -27.5 10z" />
<glyph unicode="&#x3f4;" horiz-adv-x="624" d="M528 630q55 -66 55 -190q0 -104 -31.5 -207.5t-102 -173.5t-178.5 -70q-97 0 -152.5 67t-55.5 190q0 101 32.5 204.5t103 174.5t177.5 71q97 0 152 -66zM228 582q-56 -65 -81 -157.5t-25 -180.5q0 -103 39.5 -154t111.5 -51q91 0 147.5 65t80 157.5t23.5 181.5 q0 103 -39 153.5t-112 50.5q-89 0 -145 -65zM441 375l-6 -47h-229l7 47h228z" />
<glyph unicode="&#x3f5;" horiz-adv-x="425" d="M182 431q-43 -55 -61 -139h213l-7 -46h-213q-4 -28 -4 -60q0 -74 29 -111t82 -37q31 0 58 11t57 33l24 -39q-66 -54 -143 -54t-121.5 52.5t-44.5 147.5q0 80 26 159.5t81.5 132.5t138.5 53q39 0 70 -13t58 -41l-32 -34q-21 20 -44 30t-53 10q-71 0 -114 -55z" />
<glyph unicode="&#x3f6;" horiz-adv-x="428" d="M336 484q41 -50 41 -139q0 -94 -26 -175t-80 -131t-132 -50q-80 0 -140 60l33 34q24 -23 48.5 -34.5t59.5 -11.5q64 0 108.5 53t62.5 157h-215l7 45h214q3 29 3 55q0 69 -26 104.5t-77 35.5q-33 0 -63 -11t-61 -33l-23 36q72 55 151 55q74 0 115 -50z" />
<glyph unicode="&#x3f7;" horiz-adv-x="509" d="M436.5 519q52.5 -43 52.5 -131q0 -66 -25.5 -122.5t-84.5 -92.5t-156 -36h-85l-19 -137h-58l96 685h58l-17 -123h87q99 0 151.5 -43zM383 243q46 58 46 144q0 68 -37 97.5t-112 29.5h-89l-46 -329h82q110 0 156 58z" />
<glyph unicode="&#x3f8;" horiz-adv-x="518" d="M431.5 486q36.5 -48 36.5 -137q0 -85 -25 -167.5t-81.5 -137.5t-144.5 -55q-53 0 -103 22l-29 -210l-58 -8l134 943l56 7l-40 -287q71 78 151 78q67 0 103.5 -48zM330.5 86.5q43.5 50.5 62 124t18.5 145.5q0 66 -24.5 98.5t-70.5 32.5q-40 0 -76 -23.5t-71 -65.5 l-48 -341q26 -11 48 -16t50 -5q68 0 111.5 50.5z" />
<glyph unicode="&#x3f9;" horiz-adv-x="518" d="M477.5 680q37.5 -16 69.5 -48l-35 -34q-28 26 -56.5 37t-70.5 11q-91 0 -150 -62t-85.5 -154t-26.5 -185q0 -103 42 -154t117 -51q50 0 84 14.5t70 42.5l28 -39q-38 -32 -83 -50.5t-103 -18.5q-100 0 -157.5 67t-57.5 191q0 106 33.5 209t106 171.5t181.5 68.5 q56 0 93.5 -16z" />
<glyph unicode="&#x3fa;" horiz-adv-x="697" d="M597 0h-56l18 328q10 191 20 301l-227 -548h-57l-81 547q-12 -79 -60 -299l-72 -329h-56l155 685h75l77 -536l218 536h83z" />
<glyph unicode="&#x3fb;" horiz-adv-x="600" d="M500 0h-54l21 309q3 61 15 157l-185 -401h-53l-68 403q-13 -83 -29 -162l-107 -503l-56 -8l159 728h70l65 -400l183 400h72z" />
<glyph unicode="&#x3fc;" horiz-adv-x="515" d="M112 61l-19 -135h146l-6 -45h-146l-11 -80l-58 -7l12 87h-67l7 45h67l52 373q16 112 71.5 173.5t141.5 61.5q77 0 118 -50t41 -139q0 -80 -23.5 -162t-75 -138t-131.5 -56t-119 72zM197 436q-40 -52 -54 -149l-23 -167q31 -83 108 -83q62 0 101 49.5t56 120.5t17 138 q0 71 -26 107t-76 36q-63 0 -103 -52z" />
<glyph unicode="&#x3fd;" horiz-adv-x="527" d="M67 8q-42 19 -76 52l34 36q32 -28 64 -42t83 -14q81 0 138 55t86 143.5t29 188.5q0 219 -160 219q-41 0 -76 -12.5t-75 -38.5l-26 39q43 30 86 46t94 16q105 0 161 -70t56 -201q0 -117 -37 -216.5t-108 -159.5t-168 -60q-63 0 -105 19z" />
<glyph unicode="&#x3fe;" horiz-adv-x="518" d="M477.5 680q37.5 -16 69.5 -48l-35 -34q-28 26 -56.5 37t-70.5 11q-91 0 -150 -62t-85.5 -154t-26.5 -185q0 -103 42 -154t117 -51q50 0 84 14.5t70 42.5l28 -39q-38 -32 -83 -50.5t-103 -18.5q-100 0 -157.5 67t-57.5 191q0 106 33.5 209t106 171.5t181.5 68.5 q56 0 93.5 -16zM300.5 313q-10.5 10 -10.5 27q0 19 13 32t32 13q17 0 27 -10.5t10 -26.5q0 -19 -12.5 -32t-31.5 -13q-17 0 -27.5 10z" />
<glyph unicode="&#x3ff;" horiz-adv-x="527" d="M67 8q-42 19 -76 52l34 36q32 -28 64 -42t83 -14q81 0 138 55t86 143.5t29 188.5q0 219 -160 219q-41 0 -76 -12.5t-75 -38.5l-26 39q43 30 86 46t94 16q105 0 161 -70t56 -201q0 -117 -37 -216.5t-108 -159.5t-168 -60q-63 0 -105 19zM182.5 313q-10.5 10 -10.5 27 q0 19 13 32t32 13q17 0 27 -10.5t10 -26.5q0 -19 -12.5 -32t-31.5 -13q-17 0 -27.5 10z" />
<glyph unicode="&#x400;" horiz-adv-x="458" d="M472 685l-14 -49h-250l-35 -257h216l-7 -48h-216l-40 -282h263l-8 -49h-320l96 685h315zM276 883l156 -93l-20 -32l-165 75z" />
<glyph unicode="&#x401;" horiz-adv-x="458" d="M472 685l-14 -49h-250l-35 -257h216l-7 -48h-216l-40 -282h263l-8 -49h-320l96 685h315zM224 799.5q-9 9.5 -9 23.5q0 19 12 31t29 12q15 0 25 -9.5t10 -24.5q0 -18 -12 -30t-30 -12q-16 0 -25 9.5zM395.5 799.5q-9.5 9.5 -9.5 23.5q0 19 12 31t30 12q15 0 24.5 -10 t9.5 -24q0 -18 -12 -30t-30 -12q-15 0 -24.5 9.5z" />
<glyph unicode="&#x402;" horiz-adv-x="631" d="M549.5 394.5q40.5 -41.5 40.5 -114.5q0 -19 -3 -39l-22 -156q-8 -57 -27.5 -94t-53 -62t-89.5 -48l-12 44q44 21 68.5 42t37 49.5t18.5 73.5l22 153q3 18 3 35q0 107 -108 107q-49 0 -89.5 -23t-78.5 -69l-41 -293h-58l89 633h-181l7 52h424l-14 -52h-178l-39 -275 q37 38 78 58t92 20q74 0 114.5 -41.5z" />
<glyph unicode="&#x403;" horiz-adv-x="456" d="M507 685l-16 -52h-283l-89 -633h-58l96 685h350zM442 884l22 -51l-188 -75l-15 32z" />
<glyph unicode="&#x404;" horiz-adv-x="506" d="M219 570.5q-59 -75.5 -82 -190.5h242l-7 -50h-244q-5 -48 -5 -85q0 -102 40 -153.5t109 -51.5q43 0 75.5 14.5t68.5 42.5l28 -39q-82 -69 -176 -69t-149.5 67.5t-55.5 190.5q0 105 33 208.5t103 172t175 68.5q50 0 85.5 -16t67.5 -48l-35 -34q-28 25 -55 36.5t-62 11.5 q-97 0 -156 -75.5z" />
<glyph unicode="&#x405;" horiz-adv-x="485" d="M399 676.5q41 -19.5 74 -57.5l-36 -34q-31 33 -62.5 47.5t-71.5 14.5q-64 0 -105.5 -38.5t-41.5 -97.5q0 -44 25.5 -70t93.5 -53q78 -30 115 -70t37 -108q0 -56 -27 -106.5t-80.5 -82.5t-128.5 -32q-61 0 -106.5 23t-81.5 65l38 33q31 -35 66 -53t85 -18q56 0 95.5 23 t59.5 61.5t20 83.5q0 51 -26.5 80.5t-94.5 56.5q-81 33 -115 68.5t-34 96.5q0 47 25 90t72.5 70t109.5 27q54 0 95 -19.5z" />
<glyph unicode="&#x406;" horiz-adv-x="254" d="M215 685l-96 -685h-58l96 685h58z" />
<glyph unicode="&#x407;" horiz-adv-x="254" d="M215 685l-96 -685h-58l96 685h58zM93 799.5q-9 9.5 -9 23.5q0 19 12 31t29 12q15 0 25 -9.5t10 -24.5q0 -18 -12 -30t-30 -12q-16 0 -25 9.5zM264.5 799.5q-9.5 9.5 -9.5 23.5q0 19 12 31t30 12q15 0 24.5 -10t9.5 -24q0 -18 -12 -30t-30 -12q-15 0 -24.5 9.5z" />
<glyph unicode="&#x408;" horiz-adv-x="265" d="M147 89q-8 -61 -27.5 -98.5t-52.5 -61.5t-90 -48l-13 43q45 22 69.5 43t37 50.5t19.5 77.5l83 590h58z" />
<glyph unicode="&#x409;" horiz-adv-x="800" d="M713.5 377.5q51.5 -44.5 51.5 -132.5q0 -63 -25 -118.5t-82 -91t-147 -35.5h-146l89 634h-196l-74 -298q-37 -146 -59 -210t-48.5 -93t-75.5 -42l-8 48q31 11 48 32.5t34.5 76.5t51.5 187l88 350h304l-37 -263h84q96 0 147.5 -44.5zM661.5 108q42.5 59 42.5 136 q0 68 -35 99t-103 31h-91l-45 -325h92q97 0 139.5 59z" />
<glyph unicode="&#x40a;" horiz-adv-x="838" d="M748.5 353.5q52.5 -44.5 52.5 -124.5q0 -60 -25 -112t-82 -84.5t-147 -32.5h-145l49 349h-283l-49 -349h-58l96 685h58l-40 -287h282l41 287h58l-40 -287h86q94 0 146.5 -44.5zM698 102.5q42 53.5 42 125.5q0 60 -35.5 90.5t-102.5 30.5h-93l-42 -300h91q98 0 140 53.5z " />
<glyph unicode="&#x40b;" horiz-adv-x="631" d="M549 394q41 -42 41 -115q0 -18 -3 -38l-34 -241h-58l34 243q2 12 2 34q0 108 -107 108q-49 0 -89 -23t-79 -69l-41 -293h-58l89 633h-181l7 52h424l-14 -52h-178l-39 -274q38 38 79 57.5t91 19.5q73 0 114 -42z" />
<glyph unicode="&#x40c;" horiz-adv-x="513" d="M541 651q-22 -7 -34.5 -15t-28 -27t-40.5 -58l-121 -189l147 -362h-59l-137 336h-102l-47 -336h-58l96 685h58l-42 -300h98l126 198q27 41 45.5 61.5t36 30.5t47.5 21zM428 884l22 -51l-188 -75l-15 32z" />
<glyph unicode="&#x40d;" horiz-adv-x="603" d="M468 0h-58l52 370q18 130 44 256l-367 -626h-78l96 685h58l-52 -371q-19 -140 -44 -256l367 627h79zM320 883l156 -93l-20 -32l-165 75z" />
<glyph unicode="&#x40e;" horiz-adv-x="465" d="M273 189q-36 -72 -64 -109.5t-61 -57t-89 -33.5l-6 44q43 12 68.5 27.5t47.5 45.5t50 87h-19l-134 492h58l117 -455l222 455h61zM230 804.5q-29 25.5 -31 68.5l38 5q4 -27 22 -39.5t49 -12.5q67 0 91 55l36 -12q-12 -42 -46.5 -66t-82.5 -24q-47 0 -76 25.5z" />
<glyph unicode="&#x40f;" horiz-adv-x="592" d="M553 685l-96 -685h-172l-20 -145h-44l8 145h-168l96 685h58l-89 -635h280l89 635h58z" />
<glyph unicode="&#x410;" horiz-adv-x="514" d="M400 0l-27 188h-254l-79 -188h-60l300 685h73l107 -685h-60zM140 237h226l-57 400z" />
<glyph unicode="&#x411;" horiz-adv-x="513" d="M418 373q52 -44 52 -129q0 -63 -24.5 -118t-81.5 -90.5t-147 -35.5h-156l96 685h314l-15 -50h-247l-31 -218h93q95 0 147 -44zM366.5 107.5q42.5 58.5 42.5 135.5q0 126 -139 126h-99l-45 -320h101q97 0 139.5 58.5z" />
<glyph unicode="&#x412;" horiz-adv-x="544" d="M487 223q0 -58 -24.5 -108t-82 -82.5t-149.5 -32.5h-170l96 685h163q89 0 139 -38t50 -110q0 -70 -40.5 -116t-107.5 -59q126 -20 126 -139zM208 636l-35 -252h118q76 0 117.5 42t41.5 109q0 53 -33.5 77t-95.5 24h-113zM383.5 99.5q43.5 50.5 43.5 123.5q0 114 -133 114 h-128l-40 -288h111q103 0 146.5 50.5z" />
<glyph unicode="&#x413;" horiz-adv-x="456" d="M507 685l-16 -52h-283l-89 -633h-58l96 685h350z" />
<glyph unicode="&#x414;" horiz-adv-x="546" d="M416 50h43l-27 -195h-44l8 145h-376l-38 -145h-43l28 195h41q26 24 45 58.5t40 97t48 171.5l74 308h291zM441 635h-181l-62 -262q-26 -106 -46.5 -167t-41.5 -96.5t-50 -59.5h299z" />
<glyph unicode="&#x415;" horiz-adv-x="458" d="M472 685l-14 -49h-250l-35 -257h216l-7 -48h-216l-40 -282h263l-8 -49h-320l96 685h315z" />
<glyph unicode="&#x416;" horiz-adv-x="711" d="M740 652q-28 -11 -46.5 -29t-47.5 -65l-117 -196l134 -362h-61l-122 336h-82l-47 -336h-56l48 336h-81l-213 -336h-66l234 364l-80 202q-17 44 -30.5 59.5t-40.5 25.5l17 45q41 -14 60 -33t40 -69l83 -209h84l42 300h56l-43 -300h79l122 204q31 52 54.5 72t64.5 35z" />
<glyph unicode="&#x417;" horiz-adv-x="472" d="M399 655q42 -41 42 -106q0 -70 -37.5 -117.5t-109.5 -63.5q55 -8 87.5 -45t32.5 -103q0 -60 -28 -113t-81 -85.5t-125 -32.5q-117 0 -185 94l39 30q27 -36 62.5 -54.5t84.5 -18.5q60 0 99 26.5t56.5 67.5t17.5 87q0 59 -34 90.5t-99 30.5h-57l14 50h47q74 0 114.5 45 t40.5 109q0 47 -26 74t-77 27q-43 0 -82.5 -18t-79.5 -52l-30 36q48 42 95.5 62.5t101.5 20.5q75 0 117 -41z" />
<glyph unicode="&#x418;" horiz-adv-x="603" d="M468 0h-58l52 370q18 130 44 256l-367 -626h-78l96 685h58l-52 -371q-19 -140 -44 -256l367 627h79z" />
<glyph unicode="&#x419;" horiz-adv-x="603" d="M468 0h-58l52 370q18 130 44 256l-367 -626h-78l96 685h58l-52 -371q-19 -140 -44 -256l367 627h79zM295 804.5q-29 25.5 -31 68.5l38 5q4 -27 22 -39.5t49 -12.5q67 0 91 55l36 -12q-12 -42 -46.5 -66t-82.5 -24q-47 0 -76 25.5z" />
<glyph unicode="&#x41a;" horiz-adv-x="513" d="M541 651q-22 -7 -34.5 -15t-28 -27t-40.5 -58l-121 -189l147 -362h-59l-137 336h-102l-47 -336h-58l96 685h58l-42 -300h98l126 198q27 41 45.5 61.5t36 30.5t47.5 21z" />
<glyph unicode="&#x41b;" horiz-adv-x="580" d="M445 0h-58l89 634h-218l-74 -298q-37 -146 -59 -210t-48.5 -93t-75.5 -42l-8 48q31 11 48 32.5t34.5 76.5t51.5 187l88 350h326z" />
<glyph unicode="&#x41c;" horiz-adv-x="697" d="M597 0h-56l18 328q10 191 20 301l-227 -548h-57l-81 547q-12 -79 -60 -299l-72 -329h-56l155 685h75l77 -536l218 536h83z" />
<glyph unicode="&#x41d;" horiz-adv-x="601" d="M119 0h-58l96 685h58l-42 -300h290l42 300h58l-97 -685h-58l48 336h-290z" />
<glyph unicode="&#x41e;" horiz-adv-x="624" d="M528 630q55 -66 55 -190q0 -104 -31.5 -207.5t-102 -173.5t-178.5 -70q-97 0 -152.5 67t-55.5 190q0 101 32.5 204.5t103 174.5t177.5 71q97 0 152 -66zM229 582q-56 -65 -81 -157.5t-25 -180.5q0 -102 39.5 -153.5t110.5 -51.5q91 0 147 65t79.5 158t23.5 181 q0 102 -38.5 153t-111.5 51q-88 0 -144 -65z" />
<glyph unicode="&#x41f;" horiz-adv-x="597" d="M558 685l-96 -685h-58l89 634h-285l-89 -634h-58l96 685h401z" />
<glyph unicode="&#x420;" horiz-adv-x="510" d="M455 642.5q53 -42.5 53 -127.5q0 -66 -25.5 -121.5t-85 -91t-155.5 -35.5h-86l-37 -267h-58l96 685h146q99 0 152 -42.5zM402.5 373q45.5 57 45.5 142q0 65 -37.5 93.5t-112.5 28.5h-90l-45 -321h83q111 0 156.5 57z" />
<glyph unicode="&#x421;" horiz-adv-x="498" d="M459.5 680q35.5 -16 67.5 -48l-35 -34q-28 25 -55 36.5t-62 11.5q-86 0 -143 -62t-83 -154.5t-26 -184.5q0 -102 40.5 -153.5t108.5 -51.5q43 0 75.5 14.5t68.5 42.5l28 -39q-82 -69 -176 -69t-149.5 67.5t-55.5 190.5q0 105 33 208.5t103 172t175 68.5q50 0 85.5 -16z " />
<glyph unicode="&#x422;" horiz-adv-x="446" d="M496 685l-14 -52h-178l-89 -633h-58l89 633h-181l7 52h424z" />
<glyph unicode="&#x423;" horiz-adv-x="465" d="M273 189q-36 -72 -64 -109.5t-61 -57t-89 -33.5l-6 44q43 12 68.5 27.5t47.5 45.5t50 87h-19l-134 492h58l117 -455l222 455h61z" />
<glyph unicode="&#x424;" horiz-adv-x="728" d="M669.5 236.5q-30.5 -79.5 -106 -132.5t-201.5 -58l-10 -71h-57l10 71q-123 7 -188 72t-65 171q0 90 30.5 169t106 133.5t202.5 59.5l9 67h57l-9 -67q122 -7 187 -72t65 -172q0 -91 -30.5 -170.5zM386 605q-155 -11 -215 -100t-60 -216q0 -89 51 -141t151 -56zM581.5 192 q59.5 89 59.5 216q0 90 -50.5 141.5t-151.5 55.5l-72 -512q155 10 214.5 99z" />
<glyph unicode="&#x425;" horiz-adv-x="462" d="M489 685l-212 -315l140 -370h-62l-115 328l-205 -328h-64l238 368l-123 317h63l98 -278l178 278h64z" />
<glyph unicode="&#x426;" horiz-adv-x="591" d="M553 685l-89 -635h63l-27 -195h-44l8 145h-403l96 685h58l-89 -635h280l89 635h58z" />
<glyph unicode="&#x427;" horiz-adv-x="537" d="M498 685l-96 -685h-58l41 292q-40 -34 -81 -51.5t-88 -17.5q-71 0 -112.5 42t-41.5 111q0 22 2 34l39 275h57l-38 -274q-2 -20 -2 -29q0 -52 28 -80t81 -28q47 0 89.5 21.5t74.5 56.5l47 333h58z" />
<glyph unicode="&#x428;" horiz-adv-x="816" d="M778 685l-97 -685h-620l96 685h57l-88 -635h226l88 635h55l-88 -635h226l88 635h57z" />
<glyph unicode="&#x429;" horiz-adv-x="816" d="M778 685l-90 -635h64l-27 -195h-44l8 145h-628l96 685h57l-88 -635h226l88 635h55l-88 -635h226l88 635h57z" />
<glyph unicode="&#x42a;" horiz-adv-x="599" d="M512 377.5q52 -44.5 52 -132.5q0 -63 -25 -118.5t-82 -91t-147 -35.5h-155l89 634h-179l7 51h237l-37 -263h93q95 0 147 -44.5zM460.5 108q42.5 59 42.5 136q0 68 -35 99t-103 31h-100l-45 -325h101q97 0 139.5 59z" />
<glyph unicode="&#x42b;" horiz-adv-x="718" d="M409.5 377.5q51.5 -44.5 51.5 -132.5q0 -63 -25 -118.5t-82 -91t-147 -35.5h-146l96 685h58l-37 -263h84q96 0 147.5 -44.5zM621 685h58l-96 -685h-58zM357.5 108q42.5 59 42.5 136q0 68 -35 99t-103 31h-91l-45 -325h92q97 0 139.5 59z" />
<glyph unicode="&#x42c;" horiz-adv-x="505" d="M418 377.5q52 -44.5 52 -132.5q0 -63 -25 -118.5t-82 -91t-147 -35.5h-155l96 685h58l-37 -263h93q95 0 147 -44.5zM366.5 108q42.5 59 42.5 136q0 68 -35 99t-103 31h-100l-45 -325h101q97 0 139.5 59z" />
<glyph unicode="&#x42d;" horiz-adv-x="489" d="M402 637.5q48 -58.5 48 -178.5q0 -109 -28 -216.5t-93 -180.5t-169 -73q-54 0 -92 20t-68 54l35 34q28 -29 56 -43t70 -14q94 0 147 83t72 207h-253l7 50h252q4 39 4 81q0 95 -32.5 140.5t-90.5 45.5q-42 0 -75.5 -12.5t-76.5 -43.5l-26 37q43 34 86.5 51t93.5 17 q85 0 133 -58.5z" />
<glyph unicode="&#x42e;" horiz-adv-x="790" d="M696.5 630.5q52.5 -65.5 52.5 -188.5q0 -106 -30.5 -210t-97.5 -173.5t-170 -69.5q-93 0 -145.5 66.5t-52.5 189.5q0 36 5 86h-92l-47 -331h-58l96 685h58l-42 -304h93q26 134 97 224.5t187 90.5q94 0 146.5 -65.5zM591 104q53 65 76 158.5t23 184.5q0 100 -37 149.5 t-104 49.5q-83 0 -136 -64.5t-77 -157.5t-24 -184q0 -100 37.5 -150.5t103.5 -50.5q85 0 138 65z" />
<glyph unicode="&#x42f;" horiz-adv-x="538" d="M500 685l-97 -685h-58l40 285l-148 1l-172 -286h-63l181 298q-48 17 -75 56t-27 96q0 59 24.5 112t83 88t154.5 35h157zM392 334l43 303h-95q-108 0 -153.5 -54t-45.5 -133q0 -55 31 -85.5t85 -30.5h135z" />
<glyph unicode="&#x430;" horiz-adv-x="511" d="M383 524q35 -10 71 -30l-54 -380q-4 -30 -4 -38q0 -18 6.5 -29t21.5 -18l-18 -40q-31 9 -46.5 29.5t-14.5 61.5q-64 -91 -148 -91q-69 0 -108 51t-39 139q0 83 27 164.5t84.5 136t144.5 54.5q42 0 77 -10zM194.5 441q-44.5 -47 -65.5 -118t-21 -143q0 -71 25 -107.5 t73 -36.5q41 0 75.5 27.5t66.5 79.5l46 324q-39 21 -88 21q-67 0 -111.5 -47z" />
<glyph unicode="&#x431;" horiz-adv-x="516" d="M424 449.5q39 -48.5 39 -134.5q0 -75 -23.5 -150t-76 -125.5t-133.5 -50.5q-78 0 -123.5 57.5t-45.5 166.5t18 196.5t71 156.5t151 101q54 17 83.5 31.5t62.5 40.5l23 -39q-27 -24 -60.5 -40.5t-91.5 -36.5q-82 -29 -127.5 -86t-65.5 -171q34 59 84 95.5t108 36.5 q68 0 107 -48.5zM332 80.5q39 43.5 55.5 107t16.5 127.5q0 68 -24.5 101.5t-71.5 33.5q-54 0 -105 -43.5t-84 -113.5q-4 -29 -4 -81q0 -84 30 -129.5t86 -45.5q62 0 101 43.5z" />
<glyph unicode="&#x432;" horiz-adv-x="473" d="M404.5 504q35.5 -30 35.5 -82q0 -90 -103 -135q40 -15 63.5 -45.5t23.5 -73.5q0 -57 -26 -97.5t-68 -61t-91 -20.5q-85 0 -136 55.5t-51 158.5q0 78 30.5 154.5t89.5 126.5t139 50q58 0 93.5 -30zM186 430q-50 -59 -68 -145q132 5 199.5 37.5t67.5 97.5q0 33 -20.5 51 t-57.5 18q-71 0 -121 -59zM111 242q-2 -22 -2 -37q0 -78 33 -123.5t97 -45.5q57 0 92 35.5t35 96.5q0 70 -73 102q-69 -22 -182 -28z" />
<glyph unicode="&#x433;" horiz-adv-x="420" d="M349 500.5q38 -33.5 38 -85.5q0 -54 -32.5 -93.5t-126.5 -68.5q-61 -18 -92.5 -38.5t-41 -42.5t-9.5 -52q0 -39 26 -60.5t68 -21.5q43 0 80 14t73 42l27 -38q-82 -67 -182 -67q-67 0 -109.5 35t-42.5 95t39 102.5t139 73.5q54 16 81.5 34.5t36 38.5t8.5 46q0 34 -23 53.5 t-60 19.5q-33 0 -64 -12t-65 -37l-24 37q75 59 157 59q61 0 99 -33.5z" />
</font>
</defs>
</svg>
