<?xml version="1.0" standalone="no"?>
<!DOCTYPE svg PUBLIC "-//W3C//DTD SVG 1.1//EN" "http://www.w3.org/Graphics/SVG/1.1/DTD/svg11.dtd" >
<svg xmlns="http://www.w3.org/2000/svg" xmlns:xlink="http://www.w3.org/1999/xlink" version="1.1">
<metadata></metadata>
<defs>
<font id="fira_sans_condensedextrabold" horiz-adv-x="504" >
<font-face units-per-em="1000" ascent="800" descent="-200" />
<missing-glyph horiz-adv-x="200" />
<glyph unicode="&#xfb01;" horiz-adv-x="556" />
<glyph unicode="&#xfb02;" horiz-adv-x="593" />
<glyph horiz-adv-x="0" />
<glyph unicode="&#xd;" horiz-adv-x="200" />
<glyph unicode=" "  horiz-adv-x="200" />
<glyph unicode="&#x09;" horiz-adv-x="200" />
<glyph unicode="&#xa0;" horiz-adv-x="200" />
<glyph unicode="!" horiz-adv-x="230" d="M206 695l-23 -434h-136l-24 434h183zM182 143.5q27 -28.5 27 -66.5q0 -40 -26.5 -67.5t-67.5 -27.5t-67.5 27.5t-26.5 67.5q0 38 27 66.5t67 28.5t67 -28.5z" />
<glyph unicode="&#x22;" horiz-adv-x="437" d="M59 411l-18 284h148l-19 -284h-111zM267 411l-18 284h148l-19 -284h-111z" />
<glyph unicode="#" horiz-adv-x="519" d="M506 439h-58l-25 -188h50v-111h-64l-19 -140h-139l19 140h-74l-18 -140h-139l19 140h-45v111h59l25 188h-51v112h66l17 127h138l-17 -127h74l17 127h139l-17 -127h43v-112zM284 251l25 188h-73l-25 -188h73z" />
<glyph unicode="$" d="M444 72.5q-45 -54.5 -124 -73.5v-162h-119v155q-122 11 -201 95l83 92q36 -31 71 -47t75 -16q41 0 61.5 19.5t20.5 53.5q0 33 -21.5 53.5t-78.5 41.5q-103 38 -144.5 85.5t-41.5 121.5q0 76 48.5 127t127.5 65v149h119v-149q87 -15 154 -82l-76 -90q-61 53 -126 53 q-34 0 -52.5 -16t-18.5 -43t22.5 -44.5t88.5 -41.5q93 -37 135 -84t42 -132q0 -76 -45 -130.5z" />
<glyph unicode="%" horiz-adv-x="799" d="M559 722l103 -61l-420 -703l-102 61zM312 644.5q47 -48.5 47 -134.5t-47.5 -134.5t-119.5 -48.5q-47 0 -85.5 21.5t-60.5 63t-22 98.5q0 86 47.5 134.5t120.5 48.5t120 -48.5zM152.5 572q-11.5 -21 -11.5 -62t11.5 -62t39.5 -21q27 0 38 21t11 62q0 40 -11 61.5t-38 21.5 q-28 0 -39.5 -21zM728 298.5q47 -48.5 47 -134.5t-47 -134t-120 -48t-120.5 48t-47.5 134t47.5 134.5t120.5 48.5t120 -48.5zM568.5 225.5q-11.5 -20.5 -11.5 -61.5t11.5 -62t39.5 -21t38.5 20.5t10.5 62.5q0 41 -10.5 61.5t-38.5 20.5t-39.5 -20.5z" />
<glyph unicode="&#x26;" horiz-adv-x="702" d="M443 667q55 -46 55 -120q0 -57 -29.5 -100.5t-88.5 -87.5l108 -118q23 58 37 133l137 -36q-33 -106 -83 -184l113 -107l-149 -65l-66 71q-45 -37 -94.5 -54t-106.5 -17q-68 0 -120 24.5t-80.5 69t-28.5 101.5q0 60 28.5 104.5t93.5 89.5q-52 52 -70 88.5t-18 83.5 q0 45 23 84t70 62.5t115 23.5q99 0 154 -46zM258 588q-12 -15 -12 -45q0 -28 8.5 -48t33.5 -50q26 26 36 48t10 53q0 57 -43 57q-21 0 -33 -15zM237.5 236.5q-8.5 -21.5 -8.5 -49.5q0 -40 22 -62t61 -22q46 0 83 31l-130 142q-19 -18 -27.5 -39.5z" />
<glyph unicode="'" horiz-adv-x="230" d="M59 411l-18 284h148l-19 -284h-111z" />
<glyph unicode="(" horiz-adv-x="302" d="M298 787q-63 -98 -89.5 -198.5t-26.5 -238.5t26.5 -238.5t89.5 -198.5l-112 -75q-56 79 -93 149t-61 160.5t-24 202.5t24 202.5t61 160.5t93 149z" />
<glyph unicode=")" horiz-adv-x="302" d="M211 707q36 -67 59.5 -156t23.5 -201t-23.5 -201t-59.5 -156t-95 -155l-111 75q62 98 88.5 199.5t26.5 237.5t-26.5 237.5t-88.5 199.5l111 75q59 -88 95 -155z" />
<glyph unicode="*" horiz-adv-x="420" d="M414 529l-123 -21l94 -99l-118 -80l-57 120l-55 -121l-118 80l92 100l-122 20l44 132l110 -60l-22 143h143l-22 -144l109 62z" />
<glyph unicode="+" horiz-adv-x="493" d="M317 554v-156h139v-133h-139v-155h-141v155h-139v133h139v156h141z" />
<glyph unicode="," horiz-adv-x="227" d="M180 145.5q26 -26.5 26 -67.5q0 -20 -7.5 -43t-27.5 -73l-57 -142h-90l40 178q-43 29 -43 80q0 41 26.5 67.5t66.5 26.5t66 -26.5z" />
<glyph unicode="-" horiz-adv-x="377" d="M36 246v134h304v-134h-304z" />
<glyph unicode="." horiz-adv-x="231" d="M182 143.5q27 -28.5 27 -66.5q0 -40 -26.5 -67.5t-67.5 -27.5q-40 0 -67 28t-27 67q0 38 27 66.5t67 28.5t67 -28.5z" />
<glyph unicode="/" horiz-adv-x="468" d="M267 819l150 -35l-216 -898l-150 35z" />
<glyph unicode="0" horiz-adv-x="554" d="M459 602q63 -91 63 -264q0 -176 -63 -266t-182 -90t-181.5 90t-62.5 266t62.5 265.5t181.5 89.5t182 -91zM237 547q-14 -19 -20.5 -67.5t-6.5 -141.5q0 -94 6.5 -143t20.5 -67.5t40 -18.5q27 0 41 18.5t20 67t6 143.5q0 94 -6 142.5t-20 67t-41 18.5q-26 0 -40 -19z" />
<glyph unicode="1" horiz-adv-x="433" d="M371 677v-677h-169v510l-125 -85l-77 112l216 140h155z" />
<glyph unicode="2" horiz-adv-x="470" d="M337.5 667q50.5 -26 76 -69.5t25.5 -96.5t-18 -100t-67.5 -110t-145.5 -159h244l-18 -132h-417v122q104 112 155 175.5t70.5 105.5t19.5 83q0 36 -17.5 55.5t-49.5 19.5q-29 0 -52 -15.5t-52 -50.5l-99 77q39 57 95 89t128 32t122.5 -26z" />
<glyph unicode="3" horiz-adv-x="480" d="M337 670q49 -23 74.5 -62.5t25.5 -88.5q0 -123 -131 -161q70 -9 111 -49.5t41 -117.5q0 -56 -28.5 -104t-84 -76.5t-132.5 -28.5q-73 0 -128 27t-97 78l91 87q32 -32 59 -46.5t60 -14.5q37 0 60 23.5t23 66.5q0 48 -24 70t-71 22h-51l20 118h34q39 0 60.5 21t21.5 60 q0 34 -19.5 53t-53.5 19q-60 0 -114 -56l-85 89q94 94 222 94q67 0 116 -23z" />
<glyph unicode="4" horiz-adv-x="524" d="M510 271v-130h-63v-141h-166l-1 141h-261v115l169 441l147 -52l-141 -374h88l20 155h145v-155h63z" />
<glyph unicode="5" horiz-adv-x="501" d="M426 555h-215v-131q45 24 90 24q50 0 90 -25.5t63 -76t23 -120.5q0 -73 -31.5 -128t-89.5 -85.5t-135 -30.5q-133 0 -215 106l95 85q25 -30 52 -46t60 -16q42 0 64.5 28.5t22.5 84.5q0 58 -18.5 82t-53.5 24q-17 0 -32.5 -5.5t-34.5 -18.5h-114v372h398z" />
<glyph unicode="6" horiz-adv-x="532" d="M465.5 398q48.5 -60 48.5 -166q0 -72 -27.5 -128.5t-80.5 -89t-127 -32.5q-125 0 -185.5 84.5t-60.5 241.5q0 116 34.5 203t99 134.5t151.5 47.5q84 0 146 -45l-62 -101q-41 24 -77 24q-46 0 -75.5 -42t-36.5 -127q52 56 125 56q79 0 127.5 -60zM327 319q-14 23 -42 23 q-17 0 -36 -11.5t-36 -32.5q0 -75 6 -116t20 -59t40 -18q33 0 47.5 32.5t14.5 99.5q0 59 -14 82z" />
<glyph unicode="7" horiz-adv-x="433" d="M423 678v-116l-222 -580l-157 52l201 514h-239v130h417z" />
<glyph unicode="8" horiz-adv-x="537" d="M488.5 286q29.5 -44 29.5 -102t-29 -103.5t-86.5 -72t-138.5 -26.5q-77 0 -132.5 26t-84 71t-28.5 102q0 111 116 166q-50 33 -71 73t-21 89q0 55 27.5 96.5t78.5 64.5t118 23q105 0 166.5 -47t61.5 -128q0 -95 -101 -154q65 -34 94.5 -78zM224.5 560.5 q-15.5 -16.5 -15.5 -54.5q0 -32 12.5 -52.5t45.5 -36.5l19 -9q26 23 34.5 46t8.5 54q0 69 -59 69q-30 0 -45.5 -16.5zM348 186q0 38 -17 59t-63 41l-30 13q-48 -39 -48 -109q0 -42 21 -63.5t60 -21.5q77 0 77 81z" />
<glyph unicode="9" horiz-adv-x="528" d="M442 622q63 -71 63 -192q0 -137 -43.5 -228.5t-133.5 -147t-233 -84.5l-34 121q118 30 176.5 73.5t81.5 124.5q-27 -28 -56.5 -42.5t-67.5 -14.5q-48 0 -88.5 27.5t-65 78.5t-24.5 118q0 72 31.5 126t87 82.5t124.5 28.5q119 0 182 -71zM292.5 364q18.5 13 33.5 37 q1 67 -4.5 103.5t-20 52.5t-41.5 16q-32 0 -50.5 -26.5t-18.5 -82.5q0 -113 63 -113q20 0 38.5 13z" />
<glyph unicode=":" horiz-adv-x="231" d="M182 143.5q27 -28.5 27 -66.5q0 -40 -26.5 -67.5t-67.5 -27.5q-40 0 -67 28t-27 67q0 38 27 66.5t67 28.5t67 -28.5zM182 482.5q27 -28.5 27 -66.5q0 -40 -26.5 -67.5t-67.5 -27.5q-40 0 -67 28t-27 67q0 38 27 66.5t67 28.5t67 -28.5z" />
<glyph unicode=";" horiz-adv-x="231" d="M180 145.5q26 -26.5 26 -67.5q0 -20 -7.5 -43t-27.5 -73l-57 -142h-90l40 178q-43 29 -43 80q0 41 26.5 67.5t66.5 26.5t66 -26.5zM182 482.5q27 -28.5 27 -66.5q0 -40 -26.5 -67.5t-67.5 -27.5q-40 0 -67 28t-27 67q0 38 27 66.5t67 28.5t67 -28.5z" />
<glyph unicode="&#x3c;" horiz-adv-x="476" d="M398 579l55 -116l-287 -130l287 -124l-55 -122l-376 173v145z" />
<glyph unicode="=" horiz-adv-x="476" d="M37 374v131h402v-131h-402zM37 159v131h402v-131h-402z" />
<glyph unicode="&#x3e;" horiz-adv-x="476" d="M77 579l376 -174v-145l-376 -173l-55 122l288 124l-288 130z" />
<glyph unicode="?" horiz-adv-x="449" d="M346.5 689.5q47.5 -23.5 71 -62t23.5 -84.5q0 -40 -12.5 -68t-30.5 -46.5t-47 -40.5q-37 -29 -54 -50.5t-17 -56.5v-20h-155v26q0 47 12.5 79t30 51t44.5 39q26 20 38 35t12 39q0 23 -13.5 35t-37.5 12q-49 0 -98 -55l-105 82q86 109 224 109q67 0 114.5 -23.5z M270 143.5q27 -28.5 27 -66.5q0 -40 -26.5 -67.5t-67.5 -27.5q-40 0 -66.5 27.5t-26.5 67.5q0 38 26.5 66.5t66.5 28.5t67 -28.5z" />
<glyph unicode="@" horiz-adv-x="924" d="M562 493q44 -12 80 -34v-243q0 -45 2.5 -67.5t9.5 -31.5t21 -9q63 0 63 208q0 274 -261 274q-140 0 -214.5 -93.5t-74.5 -253.5q0 -169 73.5 -255.5t217.5 -86.5q45 0 93.5 9.5t84.5 23.5l40 -115q-45 -19 -104.5 -31t-115.5 -12q-137 0 -236 57t-152 162t-53 247 q0 136 57.5 243.5t158 167.5t225.5 60t218.5 -54.5t143 -145t49.5 -195.5q0 -91 -27 -163t-74 -112t-105 -40q-50 0 -83 29.5t-40 71.5q-39 -97 -131 -97q-84 0 -125.5 61t-41.5 165q0 125 55.5 198.5t159.5 73.5q42 0 86 -12zM497 143v251q-13 6 -29 6q-28 0 -41 -35 t-13 -132q0 -71 8.5 -96t30.5 -25q26 0 44 31z" />
<glyph unicode="A" horiz-adv-x="549" d="M379 0l-27 144h-158l-27 -144h-184l184 695h216l183 -695h-187zM218 272h110l-55 293z" />
<glyph unicode="B" horiz-adv-x="563" d="M508 315.5q40 -37.5 40 -111.5q0 -110 -76.5 -157t-210.5 -47h-216v695h192q137 0 211 -43.5t74 -135.5q0 -60 -34 -97t-86 -51q66 -15 106 -52.5zM226 569v-149h32q44 0 62.5 19t18.5 59q0 36 -20 53.5t-65 17.5h-28zM337.5 148.5q25.5 19.5 25.5 66.5q0 45 -23.5 66.5 t-70.5 21.5h-43v-174h37q49 0 74.5 19.5z" />
<glyph unicode="C" horiz-adv-x="530" d="M430.5 693q49.5 -20 91.5 -59l-84 -99q-27 22 -52.5 34t-54.5 12q-119 0 -119 -232q0 -120 31 -175t89 -55q32 0 57.5 13t59.5 40l80 -98q-38 -41 -91.5 -66.5t-118.5 -25.5q-136 0 -215.5 93.5t-79.5 273.5q0 117 37.5 199t104 123.5t153.5 41.5q62 0 111.5 -20z" />
<glyph unicode="D" horiz-adv-x="598" d="M412 667.5q72 -27.5 117 -103.5t45 -214q0 -194 -87 -272t-234 -78h-208v695h197q98 0 170 -27.5zM226 566v-437h38q43 0 69.5 19.5t40.5 68t14 133.5t-14.5 132.5t-41 65.5t-67.5 18h-39z" />
<glyph unicode="E" horiz-adv-x="472" d="M453 695l-19 -128h-208v-152h183v-125h-183v-161h222v-129h-403v695h408z" />
<glyph unicode="F" horiz-adv-x="441" d="M45 0v695h394l-18 -128h-195v-171h171v-128h-171v-268h-181z" />
<glyph unicode="G" horiz-adv-x="594" d="M559 625l-87 -90q-33 26 -61 37.5t-63 11.5q-68 0 -102.5 -54.5t-34.5 -182.5q0 -92 11 -143t34 -71.5t62 -20.5q37 0 70 19v147h-68l-17 125h256v-346q-50 -35 -113.5 -55t-123.5 -20q-153 0 -225.5 90.5t-72.5 275.5q0 119 41 201t112 123t161 41q130 0 221 -88z" />
<glyph unicode="H" horiz-adv-x="599" d="M374 0v290h-148v-290h-181v695h181v-265h148v265h181v-695h-181z" />
<glyph unicode="I" horiz-adv-x="270" d="M226 695v-695h-181v695h181z" />
<glyph unicode="J" horiz-adv-x="294" d="M252 108q0 -86 -31 -142t-78.5 -88t-112.5 -55l-48 127q39 17 58 38.5t25 50t6 75.5v581h181v-587z" />
<glyph unicode="K" horiz-adv-x="595" d="M226 695v-695h-181v695h181zM595 695l-182 -311l198 -384h-201l-179 370l182 325h182z" />
<glyph unicode="L" horiz-adv-x="470" d="M226 695v-554h237l-19 -141h-399v695h181z" />
<glyph unicode="M" horiz-adv-x="723" d="M702 0h-175l-5 262q-2 86 -2 129q0 83 4 150l-78 -469h-170l-83 469q7 -112 7 -211q0 -45 -1 -69l-6 -261h-172l45 695h223l75 -463l67 463h225z" />
<glyph unicode="N" horiz-adv-x="594" d="M550 0h-224l-148 530q12 -89 17.5 -148t5.5 -143v-239h-156v695h221l151 -532q-11 73 -17.5 134.5t-6.5 139.5v258h157v-695z" />
<glyph unicode="O" horiz-adv-x="631" d="M531.5 620q75.5 -93 75.5 -272q0 -177 -76 -271.5t-216 -94.5t-215.5 93.5t-75.5 272.5q0 176 75.5 270.5t215.5 94.5q141 0 216.5 -93zM236.5 529.5q-24.5 -53.5 -24.5 -181.5q0 -129 24.5 -182.5t78.5 -53.5q38 0 60.5 22.5t33 74t10.5 139.5q0 128 -24.5 181.5 t-79.5 53.5q-54 0 -78.5 -53.5z" />
<glyph unicode="P" horiz-adv-x="551" d="M465 636.5q73 -58.5 73 -171.5q0 -117 -70 -178.5t-192 -61.5h-50v-225h-181v695h211q136 0 209 -58.5zM330.5 380q22.5 26 22.5 85q0 52 -22 77.5t-72 25.5h-33v-214h33q49 0 71.5 26z" />
<glyph unicode="Q" horiz-adv-x="631" d="M565 30.5q45 -15.5 86 -50.5l-107 -137q-45 64 -102.5 103t-138.5 39q-132 0 -205.5 94t-73.5 269t76 270t215 95q141 0 216.5 -94t75.5 -271q0 -118 -42.5 -189t-110.5 -113q66 0 111 -15.5zM236.5 165.5q24.5 -53.5 78.5 -53.5q38 0 60.5 23t33 74t10.5 139 q0 129 -24.5 182t-79.5 53q-54 0 -78.5 -53t-24.5 -182t24.5 -182.5z" />
<glyph unicode="R" horiz-adv-x="566" d="M265 258h-39v-258h-181v695h217q277 0 277 -216q0 -131 -113 -187l154 -292h-195zM226 381h41q46 0 66.5 23.5t20.5 74.5q0 46 -23 68t-71 22h-34v-188z" />
<glyph unicode="S" horiz-adv-x="528" d="M396 690q56 -23 100 -69l-79 -94q-64 56 -131 56q-36 0 -55 -16.5t-19 -45.5q0 -20 10 -33.5t34 -26t71 -30.5q65 -26 104.5 -54t60 -69.5t20.5 -102.5q0 -66 -31.5 -116.5t-90.5 -78.5t-140 -28q-153 0 -250 101l87 96q38 -32 74.5 -49t77.5 -17q42 0 63.5 21t21.5 56 t-22 56t-81 43q-107 41 -151 91t-44 126q0 62 31.5 109t86.5 72.5t123 25.5q73 0 129 -23z" />
<glyph unicode="T" horiz-adv-x="497" d="M501 695l-19 -137h-143v-558h-181v558h-153v137h496z" />
<glyph unicode="U" horiz-adv-x="585" d="M551 218q0 -68 -28.5 -121t-86.5 -84t-143 -31q-127 0 -192.5 64t-65.5 172v477h181v-471q0 -57 18 -83.5t59 -26.5t59 27t18 83v471h181v-477z" />
<glyph unicode="V" horiz-adv-x="529" d="M546 695l-160 -695h-233l-170 695h186l103 -561l94 561h180z" />
<glyph unicode="W" horiz-adv-x="779" d="M774 695l-92 -695h-236l-58 520l-64 -520h-231l-89 695h176l47 -561l70 561h187l63 -561l58 561h169z" />
<glyph unicode="X" horiz-adv-x="543" d="M376 374l175 -374h-192l-92 254l-87 -254h-188l168 369l-157 326h192l74 -214l81 214h188z" />
<glyph unicode="Y" horiz-adv-x="555" d="M568 695l-200 -436v-259h-181v258l-200 437h193l100 -298l101 298h187z" />
<glyph unicode="Z" horiz-adv-x="499" d="M478 695v-136l-262 -416h269l-17 -143h-458v134l265 422h-240v139h443z" />
<glyph unicode="[" horiz-adv-x="296" d="M284 824v-127h-102v-695h102v-126h-266v948h266z" />
<glyph unicode="\" horiz-adv-x="468" d="M200 818l217 -897l-150 -35l-216 898z" />
<glyph unicode="]" horiz-adv-x="296" d="M278 824v-948h-266v126h102v696h-102v126h266z" />
<glyph unicode="^" horiz-adv-x="516" d="M338 845l170 -318h-167l-84 190l-80 -190h-169l170 318h160z" />
<glyph unicode="_" horiz-adv-x="472" d="M7 -178v134h458v-134h-458z" />
<glyph unicode="`" horiz-adv-x="331" d="M100 840l204 -136l-47 -85l-224 96z" />
<glyph unicode="a" horiz-adv-x="499" d="M459 117q6 -12 23 -19l-35 -113q-49 4 -79.5 20.5t-48.5 53.5q-50 -77 -145 -77q-72 0 -115 46t-43 121q0 88 59.5 134.5t172.5 46.5h35v20q0 45 -15 61t-56 16q-48 0 -124 -27l-38 110q44 20 95.5 30.5t97.5 10.5q108 0 159 -46.5t51 -144.5v-204q0 -27 6 -39z M259.5 115q14.5 11 23.5 29v93h-20q-40 0 -58.5 -17.5t-18.5 -54.5q0 -29 11 -45t31 -16q17 0 31.5 11z" />
<glyph unicode="b" horiz-adv-x="545" d="M475.5 478q44.5 -73 44.5 -212q0 -85 -23 -149t-66 -99.5t-103 -35.5q-39 0 -70.5 17t-52.5 49l-7 -48h-155v743l174 18v-277q21 31 55 49t73 18q86 0 130.5 -73zM325 142q17 35 17 124q0 94 -15 126.5t-44 32.5q-36 0 -66 -53v-224q24 -41 59 -41q32 0 49 35z" />
<glyph unicode="c" horiz-adv-x="437" d="M366 534q42 -17 78 -51l-72 -98q-44 35 -85 35q-42 0 -63 -35t-21 -122q0 -83 21.5 -115t61.5 -32q21 0 39 7.5t44 24.5l75 -102q-72 -64 -169 -64q-119 0 -186 74t-67 206q0 87 30.5 152.5t87 101t132.5 35.5q52 0 94 -17z" />
<glyph unicode="d" horiz-adv-x="547" d="M504 743v-743h-155l-6 57q-52 -75 -136 -75q-90 0 -136.5 75t-46.5 211q0 84 25 148.5t70 99.5t104 35q66 0 107 -46v256zM330 156v233q-14 18 -27 27t-29 9q-71 0 -71 -158q0 -93 16.5 -126.5t46.5 -33.5q36 0 64 49z" />
<glyph unicode="e" horiz-adv-x="511" d="M490 216h-294q6 -63 29 -86t67 -23q28 0 54.5 10.5t58.5 33.5l70 -94q-84 -75 -198 -75q-125 0 -190 76t-65 206q0 83 27 148t80.5 102t130.5 37q108 0 171 -71.5t63 -204.5q0 -25 -4 -59zM323 324q0 58 -13.5 86.5t-47.5 28.5q-31 0 -47 -26.5t-20 -95.5h128v7z" />
<glyph unicode="f" horiz-adv-x="336" d="M253 621q-12 -14 -12 -46v-42h107l-19 -120h-88v-413h-174v413h-66v120h66v41q0 85 51 136t149 51q75 0 141 -34l-46 -110q-36 18 -70 18q-27 0 -39 -14z" />
<glyph unicode="g" horiz-adv-x="505" d="M509 499q-46 -22 -136 -22q49 -21 72 -53.5t23 -84.5t-26 -92t-74.5 -62.5t-113.5 -22.5q-32 0 -52 5q-14 -9 -14 -27q0 -15 10.5 -22.5t40.5 -7.5h64q92 0 145.5 -43t53.5 -112q0 -83 -68.5 -131t-195.5 -48q-94 0 -147.5 21t-74.5 59t-21 94h156q0 -34 18 -48.5 t71 -14.5q49 0 68 15t19 41q0 49 -62 49h-56q-84 0 -123.5 28.5t-39.5 76.5q0 30 17 57.5t44 45.5q-47 28 -68 64t-21 89q0 93 61.5 145.5t167.5 51.5q67 -1 117 17.5t106 53.5zM189 357q0 -84 58 -84q29 0 43 20t14 66q0 42 -14 60t-43 18q-58 0 -58 -80z" />
<glyph unicode="h" horiz-adv-x="522" d="M448 510q35 -41 35 -114v-396h-174v373q0 26 -7.5 37t-21.5 11q-29 0 -63 -56v-365h-174v743l174 18v-281q29 37 61 54t73 17q62 0 97 -41z" />
<glyph unicode="i" horiz-adv-x="260" d="M217 533v-533h-174v533h174zM200.5 790.5q27.5 -27.5 27.5 -68.5q0 -42 -27.5 -69t-70.5 -27t-70.5 27t-27.5 69q0 41 27.5 68.5t70.5 27.5t70.5 -27.5z" />
<glyph unicode="j" horiz-adv-x="260" d="M217 56q0 -116 -56.5 -178.5t-158.5 -101.5l-60 127q35 18 56 35t33 43.5t12 68.5v483h174v-477zM200.5 790.5q27.5 -27.5 27.5 -68.5q0 -42 -27.5 -69t-70.5 -27t-70.5 27t-27.5 69q0 41 27.5 68.5t70.5 27.5t70.5 -27.5z" />
<glyph unicode="k" horiz-adv-x="522" d="M217 761v-761h-174v743zM524 533l-132 -234l140 -299h-187l-124 291l134 242h169z" />
<glyph unicode="l" horiz-adv-x="276" d="M77 23q-39 41 -39 114v606l174 18v-617q0 -25 22 -25q12 0 19 3l31 -122q-40 -18 -96 -18q-72 0 -111 41z" />
<glyph unicode="m" horiz-adv-x="761" d="M687.5 509q34.5 -42 34.5 -113v-396h-172v373q0 48 -27 48q-29 0 -55 -52v-369h-171v373q0 48 -27 48q-29 0 -55 -52v-369h-172v533h152l11 -60q29 40 62.5 59t75.5 19q38 0 67 -21t44 -60q29 41 63.5 61t78.5 20q56 0 90.5 -42z" />
<glyph unicode="n" horiz-adv-x="522" d="M448 510q35 -41 35 -114v-396h-174v373q0 26 -7.5 37t-21.5 11q-29 0 -63 -56v-365h-174v533h152l12 -59q31 39 65.5 58t78.5 19q62 0 97 -41z" />
<glyph unicode="o" horiz-adv-x="536" d="M448.5 478.5q65.5 -72.5 65.5 -212.5q0 -134 -65.5 -209t-180.5 -75q-116 0 -181 72.5t-65 212.5q0 134 65.5 209t180.5 75t180.5 -72.5zM217 388q-16 -36 -16 -121q0 -88 15.5 -123.5t51.5 -35.5q35 0 51 36t16 122q0 87 -16 122.5t-51 35.5t-51 -36z" />
<glyph unicode="p" horiz-adv-x="545" d="M475.5 477.5q44.5 -73.5 44.5 -209.5q0 -85 -23.5 -150t-67 -100.5t-100.5 -35.5q-67 0 -112 53v-241l-174 -18v757h155l6 -56q54 74 139 74q88 0 132.5 -73.5zM342 266q0 93 -15 126t-44 33q-38 0 -66 -52v-227q25 -38 58 -38q67 0 67 158z" />
<glyph unicode="q" horiz-adv-x="547" d="M504 533v-757l-174 18v250q-45 -62 -123 -62q-90 0 -136.5 75t-46.5 211q0 85 25 149t70.5 99t105.5 35q70 0 120 -60l7 42h152zM330 157v231q-14 19 -27 28t-30 9q-32 0 -51 -36.5t-19 -121.5q0 -94 16.5 -127t45.5 -33q38 0 65 50z" />
<glyph unicode="r" horiz-adv-x="370" d="M379 540l-28 -167q-21 6 -42 6q-40 0 -60 -28.5t-32 -84.5v-266h-174v533h152l13 -91q18 51 50 79t74 28q23 0 47 -9z" />
<glyph unicode="s" horiz-adv-x="442" d="M330.5 533q48.5 -18 82.5 -49l-62 -94q-57 39 -111 39q-23 0 -35.5 -9.5t-12.5 -25.5q0 -13 7 -22t27.5 -19.5t63.5 -25.5q72 -26 106.5 -64t34.5 -103q0 -54 -28.5 -94.5t-80 -62t-116.5 -21.5q-63 0 -117.5 21.5t-92.5 59.5l81 91q63 -51 121 -51q27 0 41.5 11t14.5 31 q0 17 -7 27.5t-26.5 20.5t-60.5 24q-73 26 -106.5 65.5t-33.5 99.5q0 48 24.5 86.5t71.5 60.5t112 22q54 0 102.5 -18z" />
<glyph unicode="t" horiz-adv-x="359" d="M372 25q-28 -21 -65.5 -32t-75.5 -11q-88 0 -131 48.5t-43 137.5v245h-58v120h58v113l174 21v-134h108l-17 -120h-91v-243q0 -51 39 -51q21 0 46 13z" />
<glyph unicode="u" horiz-adv-x="517" d="M474 0h-152l-7 59q-51 -77 -141 -77q-65 0 -100 43.5t-35 117.5v390h174v-376q0 -26 7.5 -37t23.5 -11q32 0 56 49v375h174v-533z" />
<glyph unicode="v" horiz-adv-x="476" d="M487 533l-144 -533h-206l-147 533h183l68 -404l74 404h172z" />
<glyph unicode="w" horiz-adv-x="697" d="M697 533l-95 -533h-201l-53 377l-51 -377h-199l-97 533h170l37 -401l64 401h161l57 -401l42 401h165z" />
<glyph unicode="x" horiz-adv-x="477" d="M342 285l150 -285h-188l-70 193l-66 -193h-183l148 280l-135 253h185l55 -166l50 166h178z" />
<glyph unicode="y" horiz-adv-x="484" d="M345 0q-59 -213 -295 -225l-18 119q69 9 103.5 32.5t54.5 73.5h-63l-137 533h179l68 -424l82 424h175z" />
<glyph unicode="z" horiz-adv-x="425" d="M410 533v-122l-207 -281h212l-14 -130h-394v122l208 282h-189v129h384z" />
<glyph unicode="{" horiz-adv-x="293" d="M281 721q-36 0 -48.5 -11.5t-12.5 -43.5v-175q0 -67 -25 -98t-81 -44q55 -11 81 -42.5t26 -97.5v-175q0 -32 12 -43.5t48 -11.5v-120q-89 0 -137 19t-66 55t-18 95v174q0 42 -11.5 59t-44.5 17v143q33 0 44.5 17.5t11.5 59.5v174q0 59 18 95t66 55t137 19v-120z" />
<glyph unicode="|" horiz-adv-x="325" d="M244 811v-917h-163v917h163z" />
<glyph unicode="}" horiz-adv-x="293" d="M150 822q48 -19 65.5 -55t17.5 -95v-174q0 -42 11.5 -59.5t44.5 -17.5v-143q-33 0 -44.5 -17t-11.5 -59v-174q0 -59 -17.5 -95t-65.5 -55t-137 -19v120q35 0 47 11.5t12 43.5v175q0 66 26.5 97t80.5 43q-56 14 -81 44.5t-25 97.5v175q0 32 -12 43.5t-48 11.5v120 q89 0 137 -19z" />
<glyph unicode="~" horiz-adv-x="483" d="M267 239q-22 9 -50 26q-21 12 -32.5 17.5t-24.5 5.5q-21 0 -33 -11.5t-31 -38.5l-86 44q28 60 64.5 96t90.5 36q30 0 52.5 -9t48.5 -26q21 -12 32.5 -17.5t24.5 -5.5q21 0 32.5 11t30.5 37l88 -44q-29 -59 -65 -94.5t-89 -35.5q-31 0 -53 9z" />
<glyph unicode="&#xa1;" horiz-adv-x="230" d="M182 485q27 -28 27 -67t-27 -67.5t-67 -28.5t-67 28.5t-27 67.5t27 67t67 28t67 -28zM183 233l24 -446h-183l23 446h136z" />
<glyph unicode="&#xa2;" horiz-adv-x="437" d="M444 46q-55 -49 -125 -60v-149h-119v154q-85 21 -131.5 91t-46.5 180q0 109 47.5 183t131.5 97v152h118v-147q69 -11 125 -64l-72 -98q-44 35 -85 35q-42 0 -63 -35t-21 -122q0 -83 21.5 -115t61.5 -32q21 0 39 7.5t44 24.5z" />
<glyph unicode="&#xa3;" horiz-adv-x="496" d="M252 180.5q-13 -27.5 -52 -50.5h276l-20 -130h-437v124q35 11 51 26t20 34.5t4 55.5v68h-62v87h62v90q0 92 53 150t151 58q66 0 114 -26t82 -77l-103 -74q-18 26 -34.5 37t-37.5 11q-29 0 -41.5 -19t-12.5 -60v-90h155v-87h-155v-56q0 -44 -13 -71.5z" />
<glyph unicode="&#xa4;" d="M427 224l73 -81l-76 -68l-67 76q-47 -28 -104 -28q-58 0 -105 28l-70 -76l-73 68l73 81q-28 53 -28 118t28 116l-73 84l76 67l68 -76q47 28 104 28q59 0 105 -29l69 77l73 -68l-73 -82q28 -51 28 -117q0 -65 -28 -118zM309.5 261q18.5 26 18.5 81t-18.5 80.5t-56.5 25.5 t-57 -25.5t-19 -80.5t19 -81t57 -26t56.5 26z" />
<glyph unicode="&#xa5;" horiz-adv-x="527" d="M540 678l-156 -324h84v-88h-118v-67h118v-87h-118v-112h-172v112h-115v87h115v67h-115v88h81l-157 324h178l101 -278l100 278h174z" />
<glyph unicode="&#xa6;" horiz-adv-x="325" d="M244 811v-368h-163v368h163zM244 262v-368h-163v368h163z" />
<glyph unicode="&#xa7;" horiz-adv-x="503" d="M430.5 139.5q12.5 -24.5 12.5 -60.5q0 -48 -26 -85.5t-74.5 -58.5t-112.5 -21q-108 0 -184 55l56 98q60 -35 117 -35q31 0 46.5 10t15.5 29q0 16 -7.5 26t-29.5 21t-70 27q-69 25 -102 57t-33 91q0 76 75 125q-28 21 -40 47.5t-12 62.5q0 46 25 83.5t72 59t110 21.5 q52 0 99.5 -14.5t84.5 -41.5l-56 -95q-57 33 -114 33q-59 0 -59 -40q0 -16 7 -26t28.5 -20t68.5 -27q67 -23 101.5 -57t34.5 -92q0 -79 -74 -128q28 -20 40.5 -44.5zM301 231q17 26 17 53q0 26 -18 42t-68 34q-20 7 -34 13q-13 -26 -13 -50q0 -26 13.5 -40.5t51.5 -29.5z " />
<glyph unicode="&#xa8;" horiz-adv-x="447" d="M175 782q24 -24 24 -59q0 -36 -24 -60.5t-60 -24.5q-35 0 -59.5 24.5t-24.5 60.5q0 35 24.5 59t59.5 24q36 0 60 -24zM394 782q24 -24 24 -59q0 -36 -24 -60.5t-60 -24.5q-35 0 -59.5 24.5t-24.5 60.5q0 35 24.5 59t59.5 24q36 0 60 -24z" />
<glyph unicode="&#xa9;" horiz-adv-x="729" d="M525.5 728.5q72.5 -42.5 114 -120t41.5 -176.5t-41.5 -176t-114 -119.5t-160.5 -42.5q-87 0 -159.5 42.5t-115 119.5t-42.5 176t42.5 176.5t115 120t159.5 42.5q88 0 160.5 -42.5zM252 653.5q-50 -30.5 -78 -88t-28 -133.5t28 -133.5t78 -88t113 -30.5t112.5 30.5t78 88 t28.5 133.5t-28.5 133.5t-78 88t-112.5 30.5t-113 -30.5zM435.5 617.5q31.5 -13.5 55.5 -39.5l-48 -62q-19 13 -32 17.5t-30 4.5q-27 0 -43.5 -25t-16.5 -80q0 -106 61 -106q19 0 34 7t33 21l46 -67q-26 -26 -59 -40.5t-68 -14.5q-77 0 -121 52t-44 148q0 91 45.5 144.5 t120.5 53.5q35 0 66.5 -13.5z" />
<glyph unicode="&#xaa;" horiz-adv-x="454" d="M245 529v9q0 29 -10 38.5t-40 9.5q-40 0 -101 -21l-33 98q35 15 78 23.5t81 8.5q90 0 132 -36t42 -108v-146q0 -17 4.5 -26.5t17.5 -13.5l-31 -99q-38 2 -65 14.5t-44 38.5q-39 -56 -112 -56q-59 0 -94.5 35.5t-35.5 92.5q0 67 48 102.5t139 35.5h24zM245 387v64h-10 q-28 0 -40 -11t-12 -35q0 -18 6.5 -27t21.5 -9q20 0 34 18zM37 133h386v-131h-386v131z" />
<glyph unicode="&#xab;" horiz-adv-x="606" d="M205 561l108 -71l-116 -206l116 -206l-108 -72l-177 223v109zM470 561l108 -71l-116 -206l116 -206l-108 -72l-177 223v109z" />
<glyph unicode="&#xac;" horiz-adv-x="493" d="M456 395v-288h-141v157h-278v131h419z" />
<glyph unicode="&#xad;" horiz-adv-x="377" d="M36 246v134h304v-134h-304z" />
<glyph unicode="&#xae;" horiz-adv-x="572" d="M419 726q58 -35 91 -98.5t33 -145.5q0 -81 -33 -144t-91.5 -98t-131.5 -35t-132 35t-92.5 98t-33.5 144q0 82 33.5 145.5t92 98.5t132.5 35t132 -35zM414 331.5q48 54.5 48 150.5q0 97 -48 152.5t-127 55.5q-52 0 -92 -25t-63 -72t-23 -111q0 -95 49.5 -150t128.5 -55 t127 54.5zM377.5 500q-13.5 -19 -35.5 -31l66 -119h-81l-50 102h-19v-102h-71v283h79q125 0 125 -89q0 -25 -13.5 -44zM258 513h26q15 0 24.5 8.5t9.5 25.5q0 31 -34 31h-26v-65z" />
<glyph unicode="&#xaf;" horiz-adv-x="350" d="M323 653h-290v118h290v-118z" />
<glyph unicode="&#xb0;" horiz-adv-x="467" d="M113.5 387q-38.5 21 -62 60.5t-23.5 93.5t23.5 93t62 59t81.5 20q44 0 82.5 -20t62 -59t23.5 -93t-23.5 -93.5t-62 -60.5t-82.5 -21q-43 0 -81.5 21zM249 541q0 74 -54 74q-26 0 -40 -18.5t-14 -55.5t14 -56t40 -19q54 0 54 75z" />
<glyph unicode="&#xb1;" horiz-adv-x="493" d="M46 0v131h402v-131h-402zM317 642v-156h139v-133h-139v-155h-141v155h-139v133h139v156h141z" />
<glyph unicode="&#xb2;" horiz-adv-x="366" d="M259.5 734.5q34.5 -17.5 52 -46.5t17.5 -62q0 -32 -11.5 -59t-44 -62.5t-96.5 -89.5h160l-13 -95h-282v88q68 67 100.5 103t45 59t12.5 46q0 20 -10.5 31t-28.5 11q-19 0 -34.5 -9.5t-32.5 -29.5l-69 54q25 36 63.5 57.5t88.5 21.5q48 0 82.5 -17.5z" />
<glyph unicode="&#xb3;" horiz-adv-x="366" d="M287 721.5q38 -31.5 38 -80.5q0 -76 -91 -98q50 -4 78 -29t28 -73q0 -57 -43.5 -95.5t-123.5 -38.5q-99 0 -153 69l66 63q20 -19 37.5 -27.5t38.5 -8.5q22 0 35.5 12t13.5 35q0 25 -14.5 36.5t-44.5 11.5h-31l14 84h20q50 0 50 40q0 19 -11 29t-32 10q-39 0 -75 -33 l-60 63q60 62 153 62q69 0 107 -31.5z" />
<glyph unicode="&#xb4;" horiz-adv-x="331" d="M237 840l67 -125l-224 -96l-47 85z" />
<glyph unicode="&#xb5;" horiz-adv-x="526" d="M339 -18q-8 19 -12 35.5t-8 43.5q-36 -68 -87 -68q-21 0 -38.5 8.5t-34.5 31.5q25 -39 36 -70.5t11 -83.5v-85l-163 -16v755h174v-373q0 -44 31 -44t55 50v367h174v-350q0 -97 21 -183z" />
<glyph unicode="&#xb6;" horiz-adv-x="735" d="M643 695v-901l-150 -19v801h-74v-782l-150 -19v484q-106 2 -164 61t-58 156q0 103 65 161t185 58h346z" />
<glyph unicode="&#xb7;" horiz-adv-x="231" d="M182 373.5q27 -28.5 27 -66.5q0 -40 -26.5 -67.5t-67.5 -27.5q-40 0 -67 28t-27 67q0 38 27 66.5t67 28.5t67 -28.5z" />
<glyph unicode="&#xb8;" horiz-adv-x="317" d="M192 -49q98 -14 98 -100q0 -52 -39 -85t-107 -33q-33 0 -61.5 9t-49.5 23l38 75q30 -15 59 -15q39 0 39 28q0 17 -20 24.5t-64 7.5l15 131h92v-65z" />
<glyph unicode="&#xb9;" horiz-adv-x="366" d="M282 742v-422h-123v304l-81 -53l-55 81l145 90h114z" />
<glyph unicode="&#xba;" horiz-adv-x="457" d="M376.5 640q53.5 -55 53.5 -162q0 -102 -53.5 -158.5t-147.5 -56.5t-148 55t-54 162q0 101 54 158t147 57q95 0 148.5 -55zM193 563q-11 -23 -11 -83q0 -63 10.5 -85.5t36.5 -22.5q25 0 36 23t11 83q0 63 -11 85.5t-36 22.5t-36 -23zM28 0v131h402v-131h-402z" />
<glyph unicode="&#xbb;" horiz-adv-x="605" d="M136 561l177 -223v-109l-177 -223l-108 72l116 206l-116 206zM400 561l177 -223v-109l-177 -223l-108 72l116 206l-116 206z" />
<glyph unicode="&#xbc;" horiz-adv-x="902" d="M282 694v-422h-123v304l-81 -53l-55 81l145 90h114zM586 761l100 -46l-371 -802l-99 45zM885 173v-92h-40v-81h-115v81h-177v84l105 268l105 -39l-85 -221h53l27 93h87v-93h40z" />
<glyph unicode="&#xbd;" horiz-adv-x="902" d="M282 694v-422h-123v304l-81 -53l-55 81l145 90h114zM586 761l100 -46l-371 -802l-99 45zM795.5 414.5q34.5 -17.5 52 -46.5t17.5 -62q0 -32 -11.5 -59t-44 -62.5t-96.5 -89.5h160l-13 -95h-282v88q68 67 100.5 103t45 59t12.5 46q0 20 -10.5 31t-28.5 11 q-19 0 -34.5 -9.5t-32.5 -29.5l-69 54q25 36 63.5 57.5t88.5 21.5q48 0 82.5 -17.5z" />
<glyph unicode="&#xbe;" horiz-adv-x="902" d="M287 673.5q38 -31.5 38 -80.5q0 -76 -91 -98q50 -4 78 -29t28 -73q0 -57 -43.5 -95.5t-123.5 -38.5q-99 0 -153 69l66 63q20 -19 37.5 -27.5t38.5 -8.5q22 0 35.5 12t13.5 35q0 25 -14.5 36.5t-44.5 11.5h-31l14 84h20q50 0 50 40q0 19 -11 29t-32 10q-39 0 -75 -33 l-60 63q60 62 153 62q69 0 107 -31.5zM586 761l100 -46l-371 -802l-99 45zM885 173v-92h-40v-81h-115v81h-177v84l105 268l105 -39l-85 -221h53l27 93h87v-93h40z" />
<glyph unicode="&#xbf;" horiz-adv-x="449" d="M179 350q-27 28 -27 67t27 67t67 28t67 -28t27 -67t-27 -67t-67 -28t-67 28zM103.5 -201.5q-47.5 23.5 -71.5 62.5t-24 85q0 40 13 69t30.5 47.5t47.5 41.5q36 28 53 50t17 56v22h155v-28q0 -47 -12.5 -78.5t-29 -50t-43.5 -40.5q-26 -19 -38.5 -35.5t-12.5 -40.5 q0 -23 13 -35.5t38 -12.5q48 0 97 55l105 -82q-84 -109 -223 -109q-67 0 -114.5 23.5z" />
<glyph unicode="&#xc0;" horiz-adv-x="549" d="M379 0l-27 144h-158l-27 -144h-184l184 695h216l183 -695h-187zM218 272h110l-55 293zM203 962l206 -127l-44 -85l-226 87z" />
<glyph unicode="&#xc1;" horiz-adv-x="549" d="M379 0l-27 144h-158l-27 -144h-184l184 695h216l183 -695h-187zM218 272h110l-55 293zM345 963l64 -126l-226 -87l-44 85z" />
<glyph unicode="&#xc2;" horiz-adv-x="549" d="M379 0l-27 144h-158l-27 -144h-184l184 695h216l183 -695h-187zM218 272h110l-55 293zM152 757l-59 64l130 136h104l130 -136l-59 -64l-123 84z" />
<glyph unicode="&#xc3;" horiz-adv-x="549" d="M379 0l-27 144h-158l-27 -144h-184l184 695h216l183 -695h-187zM218 272h110l-55 293zM293 765.5q-15 6.5 -32 18.5q-12 8 -20 12t-17 4q-15 0 -24.5 -9.5t-22.5 -31.5l-81 38q18 54 51 88.5t74 34.5q21 0 37 -7t33 -19q2 -1 10 -6t14.5 -7.5t12.5 -2.5q14 0 24 9.5 t22 31.5l81 -38q-18 -55 -50.5 -88.5t-75.5 -33.5q-21 0 -36 6.5z" />
<glyph unicode="&#xc4;" horiz-adv-x="549" d="M379 0l-27 144h-158l-27 -144h-184l184 695h216l183 -695h-187zM218 272h110l-55 293zM226 908q24 -24 24 -59q0 -36 -24 -60.5t-60 -24.5q-35 0 -59.5 24.5t-24.5 60.5q0 35 24.5 59t59.5 24q36 0 60 -24zM445 908q24 -24 24 -59q0 -36 -24 -60.5t-60 -24.5 q-35 0 -59.5 24.5t-24.5 60.5q0 35 24.5 59t59.5 24q36 0 60 -24z" />
<glyph unicode="&#xc5;" horiz-adv-x="549" d="M379 0l-27 144h-158l-27 -144h-184l184 695h216l183 -695h-187zM218 272h110l-55 293zM375 962q37 -39 37 -98q0 -60 -37 -99t-100 -39t-100 39t-37 99q0 59 37 98t100 39t100 -39zM238 864q0 -50 37 -50t37 50t-37 50t-37 -50z" />
<glyph unicode="&#xc6;" horiz-adv-x="775" d="M548 129h209v-129h-362l-18 144h-167l-40 -144h-195l244 695h506l-18 -128h-225l23 -154h212v-124h-193zM245 272h116l-36 292z" />
<glyph unicode="&#xc7;" horiz-adv-x="530" d="M451.5 14.5q-44.5 -24.5 -97.5 -30.5v-33q98 -14 98 -100q0 -52 -39 -85t-107 -33q-33 0 -61.5 9t-49.5 23l38 75q30 -15 59 -15q39 0 39 28q0 17 -20 24.5t-64 7.5l12 102q-110 20 -172.5 111.5t-62.5 250.5q0 117 37.5 199t104 123.5t153.5 41.5q62 0 111.5 -20 t91.5 -59l-84 -99q-27 22 -52.5 34t-54.5 12q-119 0 -119 -232q0 -120 31 -175t89 -55q32 0 57.5 13t59.5 40l80 -98q-33 -35 -77.5 -59.5z" />
<glyph unicode="&#xc8;" horiz-adv-x="472" d="M453 695l-19 -128h-208v-152h183v-125h-183v-161h222v-129h-403v695h408zM177 962l206 -127l-44 -85l-226 87z" />
<glyph unicode="&#xc9;" horiz-adv-x="472" d="M453 695l-19 -128h-208v-152h183v-125h-183v-161h222v-129h-403v695h408zM319 963l64 -126l-226 -87l-44 85z" />
<glyph unicode="&#xca;" horiz-adv-x="472" d="M453 695l-19 -128h-208v-152h183v-125h-183v-161h222v-129h-403v695h408zM126 757l-59 64l130 136h104l130 -136l-59 -64l-123 84z" />
<glyph unicode="&#xcb;" horiz-adv-x="472" d="M453 695l-19 -128h-208v-152h183v-125h-183v-161h222v-129h-403v695h408zM200 908q24 -24 24 -59q0 -36 -24 -60.5t-60 -24.5q-35 0 -59.5 24.5t-24.5 60.5q0 35 24.5 59t59.5 24q36 0 60 -24zM419 908q24 -24 24 -59q0 -36 -24 -60.5t-60 -24.5q-35 0 -59.5 24.5 t-24.5 60.5q0 35 24.5 59t59.5 24q36 0 60 -24z" />
<glyph unicode="&#xcc;" horiz-adv-x="270" d="M226 695v-695h-181v695h181zM63 962l206 -127l-44 -85l-226 87z" />
<glyph unicode="&#xcd;" horiz-adv-x="270" d="M226 695v-695h-181v695h181zM205 963l64 -126l-226 -87l-44 85z" />
<glyph unicode="&#xce;" horiz-adv-x="270" d="M226 695v-695h-181v695h181zM12 757l-59 64l130 136h104l130 -136l-59 -64l-123 84z" />
<glyph unicode="&#xcf;" horiz-adv-x="270" d="M226 695v-695h-181v695h181zM86 908q24 -24 24 -59q0 -36 -24 -60.5t-60 -24.5q-35 0 -59.5 24.5t-24.5 60.5q0 35 24.5 59t59.5 24q36 0 60 -24zM305 908q24 -24 24 -59q0 -36 -24 -60.5t-60 -24.5q-35 0 -59.5 24.5t-24.5 60.5q0 35 24.5 59t59.5 24q36 0 60 -24z" />
<glyph unicode="&#xd0;" horiz-adv-x="615" d="M429 667.5q72 -27.5 117 -103.5t45 -214q0 -194 -87 -272t-234 -78h-208v300h-50v106h50v289h197q98 0 170 -27.5zM350.5 148.5q26.5 19.5 40.5 68t14 133.5t-14.5 132.5t-41 65.5t-67.5 18h-39v-160h97v-106h-97v-171h38q43 0 69.5 19.5z" />
<glyph unicode="&#xd1;" horiz-adv-x="594" d="M550 0h-224l-148 530q12 -89 17.5 -148t5.5 -143v-239h-156v695h221l151 -532q-11 73 -17.5 134.5t-6.5 139.5v258h157v-695zM316 765.5q-15 6.5 -32 18.5q-12 8 -20 12t-17 4q-15 0 -24.5 -9.5t-22.5 -31.5l-81 38q18 54 51 88.5t74 34.5q21 0 37 -7t33 -19q2 -1 10 -6 t14.5 -7.5t12.5 -2.5q14 0 24 9.5t22 31.5l81 -38q-18 -55 -50.5 -88.5t-75.5 -33.5q-21 0 -36 6.5z" />
<glyph unicode="&#xd2;" horiz-adv-x="631" d="M531.5 620q75.5 -93 75.5 -272q0 -177 -76 -271.5t-216 -94.5t-215.5 93.5t-75.5 272.5q0 176 75.5 270.5t215.5 94.5q141 0 216.5 -93zM236.5 529.5q-24.5 -53.5 -24.5 -181.5q0 -129 24.5 -182.5t78.5 -53.5q38 0 60.5 22.5t33 74t10.5 139.5q0 128 -24.5 181.5 t-79.5 53.5q-54 0 -78.5 -53.5zM243 962l206 -127l-44 -85l-226 87z" />
<glyph unicode="&#xd3;" horiz-adv-x="631" d="M531.5 620q75.5 -93 75.5 -272q0 -177 -76 -271.5t-216 -94.5t-215.5 93.5t-75.5 272.5q0 176 75.5 270.5t215.5 94.5q141 0 216.5 -93zM236.5 529.5q-24.5 -53.5 -24.5 -181.5q0 -129 24.5 -182.5t78.5 -53.5q38 0 60.5 22.5t33 74t10.5 139.5q0 128 -24.5 181.5 t-79.5 53.5q-54 0 -78.5 -53.5zM385 963l64 -126l-226 -87l-44 85z" />
<glyph unicode="&#xd4;" horiz-adv-x="631" d="M531.5 620q75.5 -93 75.5 -272q0 -177 -76 -271.5t-216 -94.5t-215.5 93.5t-75.5 272.5q0 176 75.5 270.5t215.5 94.5q141 0 216.5 -93zM236.5 529.5q-24.5 -53.5 -24.5 -181.5q0 -129 24.5 -182.5t78.5 -53.5q38 0 60.5 22.5t33 74t10.5 139.5q0 128 -24.5 181.5 t-79.5 53.5q-54 0 -78.5 -53.5zM192 757l-59 64l130 136h104l130 -136l-59 -64l-123 84z" />
<glyph unicode="&#xd5;" horiz-adv-x="631" d="M531.5 620q75.5 -93 75.5 -272q0 -177 -76 -271.5t-216 -94.5t-215.5 93.5t-75.5 272.5q0 176 75.5 270.5t215.5 94.5q141 0 216.5 -93zM236.5 529.5q-24.5 -53.5 -24.5 -181.5q0 -129 24.5 -182.5t78.5 -53.5q38 0 60.5 22.5t33 74t10.5 139.5q0 128 -24.5 181.5 t-79.5 53.5q-54 0 -78.5 -53.5zM333 765.5q-15 6.5 -32 18.5q-12 8 -20 12t-17 4q-15 0 -24.5 -9.5t-22.5 -31.5l-81 38q18 54 51 88.5t74 34.5q21 0 37 -7t33 -19q2 -1 10 -6t14.5 -7.5t12.5 -2.5q14 0 24 9.5t22 31.5l81 -38q-18 -55 -50.5 -88.5t-75.5 -33.5 q-21 0 -36 6.5z" />
<glyph unicode="&#xd6;" horiz-adv-x="631" d="M531.5 620q75.5 -93 75.5 -272q0 -177 -76 -271.5t-216 -94.5t-215.5 93.5t-75.5 272.5q0 176 75.5 270.5t215.5 94.5q141 0 216.5 -93zM236.5 529.5q-24.5 -53.5 -24.5 -181.5q0 -129 24.5 -182.5t78.5 -53.5q38 0 60.5 22.5t33 74t10.5 139.5q0 128 -24.5 181.5 t-79.5 53.5q-54 0 -78.5 -53.5zM266 908q24 -24 24 -59q0 -36 -24 -60.5t-60 -24.5q-35 0 -59.5 24.5t-24.5 60.5q0 35 24.5 59t59.5 24q36 0 60 -24zM485 908q24 -24 24 -59q0 -36 -24 -60.5t-60 -24.5q-35 0 -59.5 24.5t-24.5 60.5q0 35 24.5 59t59.5 24q36 0 60 -24z" />
<glyph unicode="&#xd7;" horiz-adv-x="476" d="M341 516l99 -87l-110 -122l110 -124l-99 -87l-102 124l-104 -124l-99 87l110 122l-110 124l99 87l101 -123z" />
<glyph unicode="&#xd8;" horiz-adv-x="631" d="M574 546q33 -81 33 -198q0 -176 -76 -271t-216 -95q-22 0 -33 1l-33 -119l-132 35l36 127q-63 42 -96 123.5t-33 198.5q0 175 75.5 270t215.5 95q23 0 34 -1l33 118l132 -36l-36 -125q63 -42 96 -123zM251.5 561.5q-23.5 -22.5 -34.5 -74t-11 -139.5q0 -135 22 -186 l105 421q-6 1 -18 1q-40 0 -63.5 -22.5zM403 528l-105 -417q6 -1 17 -1q41 0 64.5 22.5t34 74t10.5 141.5q0 130 -21 180z" />
<glyph unicode="&#xd9;" horiz-adv-x="585" d="M551 218q0 -68 -28.5 -121t-86.5 -84t-143 -31q-127 0 -192.5 64t-65.5 172v477h181v-471q0 -57 18 -83.5t59 -26.5t59 27t18 83v471h181v-477zM220 962l206 -127l-44 -85l-226 87z" />
<glyph unicode="&#xda;" horiz-adv-x="585" d="M551 218q0 -68 -28.5 -121t-86.5 -84t-143 -31q-127 0 -192.5 64t-65.5 172v477h181v-471q0 -57 18 -83.5t59 -26.5t59 27t18 83v471h181v-477zM362 963l64 -126l-226 -87l-44 85z" />
<glyph unicode="&#xdb;" horiz-adv-x="585" d="M551 218q0 -68 -28.5 -121t-86.5 -84t-143 -31q-127 0 -192.5 64t-65.5 172v477h181v-471q0 -57 18 -83.5t59 -26.5t59 27t18 83v471h181v-477zM169 757l-59 64l130 136h104l130 -136l-59 -64l-123 84z" />
<glyph unicode="&#xdc;" horiz-adv-x="585" d="M551 218q0 -68 -28.5 -121t-86.5 -84t-143 -31q-127 0 -192.5 64t-65.5 172v477h181v-471q0 -57 18 -83.5t59 -26.5t59 27t18 83v471h181v-477zM243 908q24 -24 24 -59q0 -36 -24 -60.5t-60 -24.5q-35 0 -59.5 24.5t-24.5 60.5q0 35 24.5 59t59.5 24q36 0 60 -24z M462 908q24 -24 24 -59q0 -36 -24 -60.5t-60 -24.5q-35 0 -59.5 24.5t-24.5 60.5q0 35 24.5 59t59.5 24q36 0 60 -24z" />
<glyph unicode="&#xdd;" horiz-adv-x="555" d="M568 695l-200 -436v-259h-181v258l-200 437h193l100 -298l101 298h187zM347 963l64 -126l-226 -87l-44 85z" />
<glyph unicode="&#xde;" horiz-adv-x="551" d="M466.5 529.5q71.5 -58.5 71.5 -172.5q0 -122 -68.5 -184t-188.5 -62h-55v-111h-181v695h181v-107h40q129 0 200.5 -58.5zM333 266.5q23 27.5 23 90.5q0 54 -23.5 79t-71.5 25h-35v-222h38q46 0 69 27.5z" />
<glyph unicode="&#xdf;" horiz-adv-x="557" d="M381 741q45 -20 67.5 -54.5t22.5 -75.5q0 -33 -11.5 -56.5t-32.5 -50.5q-17 -22 -25.5 -37.5t-8.5 -34.5t13 -35t41 -39q32 -27 52 -50t35 -58t15 -83q0 -86 -53.5 -135.5t-137.5 -49.5q-67 0 -114 26l51 115q18 -8 35 -8q20 0 31 13.5t11 41.5q0 31 -14 52.5t-44 50.5 q-34 33 -51 60t-17 69q0 33 8.5 54t25.5 49q15 22 22.5 39.5t7.5 42.5q0 26 -11.5 40t-31.5 14q-26 0 -38 -21t-12 -66v-554h-174v544q0 100 59.5 158.5t169.5 58.5q64 0 109 -20z" />
<glyph unicode="&#xe0;" horiz-adv-x="499" d="M459 117q6 -12 23 -19l-35 -113q-49 4 -79.5 20.5t-48.5 53.5q-50 -77 -145 -77q-72 0 -115 46t-43 121q0 88 59.5 134.5t172.5 46.5h35v20q0 45 -15 61t-56 16q-48 0 -124 -27l-38 110q44 20 95.5 30.5t97.5 10.5q108 0 159 -46.5t51 -144.5v-204q0 -27 6 -39z M259.5 115q14.5 11 23.5 29v93h-20q-40 0 -58.5 -17.5t-18.5 -54.5q0 -29 11 -45t31 -16q17 0 31.5 11zM189 840l204 -136l-47 -85l-224 96z" />
<glyph unicode="&#xe1;" horiz-adv-x="499" d="M459 117q6 -12 23 -19l-35 -113q-49 4 -79.5 20.5t-48.5 53.5q-50 -77 -145 -77q-72 0 -115 46t-43 121q0 88 59.5 134.5t172.5 46.5h35v20q0 45 -15 61t-56 16q-48 0 -124 -27l-38 110q44 20 95.5 30.5t97.5 10.5q108 0 159 -46.5t51 -144.5v-204q0 -27 6 -39z M259.5 115q14.5 11 23.5 29v93h-20q-40 0 -58.5 -17.5t-18.5 -54.5q0 -29 11 -45t31 -16q17 0 31.5 11zM309 840l67 -125l-224 -96l-47 85z" />
<glyph unicode="&#xe2;" horiz-adv-x="499" d="M459 117q6 -12 23 -19l-35 -113q-49 4 -79.5 20.5t-48.5 53.5q-50 -77 -145 -77q-72 0 -115 46t-43 121q0 88 59.5 134.5t172.5 46.5h35v20q0 45 -15 61t-56 16q-48 0 -124 -27l-38 110q44 20 95.5 30.5t97.5 10.5q108 0 159 -46.5t51 -144.5v-204q0 -27 6 -39z M259.5 115q14.5 11 23.5 29v93h-20q-40 0 -58.5 -17.5t-18.5 -54.5q0 -29 11 -45t31 -16q17 0 31.5 11zM126 620l-59 64l130 145h104l130 -145l-59 -64l-123 93z" />
<glyph unicode="&#xe3;" horiz-adv-x="499" d="M459 117q6 -12 23 -19l-35 -113q-49 4 -79.5 20.5t-48.5 53.5q-50 -77 -145 -77q-72 0 -115 46t-43 121q0 88 59.5 134.5t172.5 46.5h35v20q0 45 -15 61t-56 16q-48 0 -124 -27l-38 110q44 20 95.5 30.5t97.5 10.5q108 0 159 -46.5t51 -144.5v-204q0 -27 6 -39z M259.5 115q14.5 11 23.5 29v93h-20q-40 0 -58.5 -17.5t-18.5 -54.5q0 -29 11 -45t31 -16q17 0 31.5 11zM266 639.5q-15 6.5 -32 18.5q-12 8 -20 12t-17 4q-15 0 -24.5 -9.5t-22.5 -31.5l-81 38q18 54 51 88.5t74 34.5q21 0 37 -7t33 -19q2 -1 10 -6t14.5 -7.5t12.5 -2.5 q14 0 24 9.5t22 31.5l81 -38q-18 -55 -50.5 -88.5t-75.5 -33.5q-21 0 -36 6.5z" />
<glyph unicode="&#xe4;" horiz-adv-x="499" d="M459 117q6 -12 23 -19l-35 -113q-49 4 -79.5 20.5t-48.5 53.5q-50 -77 -145 -77q-72 0 -115 46t-43 121q0 88 59.5 134.5t172.5 46.5h35v20q0 45 -15 61t-56 16q-48 0 -124 -27l-38 110q44 20 95.5 30.5t97.5 10.5q108 0 159 -46.5t51 -144.5v-204q0 -27 6 -39z M259.5 115q14.5 11 23.5 29v93h-20q-40 0 -58.5 -17.5t-18.5 -54.5q0 -29 11 -45t31 -16q17 0 31.5 11zM199 782q24 -24 24 -59q0 -36 -24 -60.5t-60 -24.5q-35 0 -59.5 24.5t-24.5 60.5q0 35 24.5 59t59.5 24q36 0 60 -24zM418 782q24 -24 24 -59q0 -36 -24 -60.5 t-60 -24.5q-35 0 -59.5 24.5t-24.5 60.5q0 35 24.5 59t59.5 24q36 0 60 -24z" />
<glyph unicode="&#xe5;" horiz-adv-x="499" d="M459 117q6 -12 23 -19l-35 -113q-49 4 -79.5 20.5t-48.5 53.5q-50 -77 -145 -77q-72 0 -115 46t-43 121q0 88 59.5 134.5t172.5 46.5h35v20q0 45 -15 61t-56 16q-48 0 -124 -27l-38 110q44 20 95.5 30.5t97.5 10.5q108 0 159 -46.5t51 -144.5v-204q0 -27 6 -39z M259.5 115q14.5 11 23.5 29v93h-20q-40 0 -58.5 -17.5t-18.5 -54.5q0 -29 11 -45t31 -16q17 0 31.5 11zM349 836q37 -39 37 -98q0 -60 -37 -99t-100 -39t-100 39t-37 99q0 59 37 98t100 39t100 -39zM212 738q0 -50 37 -50t37 50t-37 50t-37 -50z" />
<glyph unicode="&#xe6;" horiz-adv-x="779" d="M758 216h-293q6 -62 30.5 -85.5t68.5 -23.5q25 0 51 10.5t58 33.5l70 -93q-38 -35 -87.5 -55.5t-108.5 -20.5q-65 0 -114.5 23t-82.5 64q-62 -87 -168 -87q-76 0 -121 46t-45 121q0 86 61 132t178 46h35v21q0 46 -15 62.5t-55 16.5q-22 0 -56 -7.5t-69 -20.5l-38 111 q94 41 189 41q53 0 88.5 -16t58.5 -47q60 63 150 63q65 0 114.5 -31.5t77 -94t27.5 -150.5q0 -25 -4 -59zM594 324q-1 56 -15.5 85t-47.5 29q-31 0 -47 -26.5t-20 -94.5h130v7zM305 160q-10 35 -11 70v1h-22q-39 0 -58 -16.5t-19 -52.5q0 -57 42 -57q36 0 68 55z" />
<glyph unicode="&#xe7;" horiz-adv-x="437" d="M305 -16v-33q98 -14 98 -100q0 -52 -39 -85t-107 -33q-33 0 -61.5 9t-49.5 23l38 75q30 -15 59 -15q39 0 39 28q0 17 -20 24.5t-64 7.5l12 104q-90 19 -139 89.5t-49 183.5q0 87 30.5 152.5t87 101t132.5 35.5q52 0 94 -17t78 -51l-72 -98q-44 35 -85 35q-42 0 -63 -35 t-21 -122q0 -83 21.5 -115t61.5 -32q21 0 39 7.5t44 24.5l75 -102q-62 -54 -139 -62z" />
<glyph unicode="&#xe8;" horiz-adv-x="511" d="M490 216h-294q6 -63 29 -86t67 -23q28 0 54.5 10.5t58.5 33.5l70 -94q-84 -75 -198 -75q-125 0 -190 76t-65 206q0 83 27 148t80.5 102t130.5 37q108 0 171 -71.5t63 -204.5q0 -25 -4 -59zM323 324q0 58 -13.5 86.5t-47.5 28.5q-31 0 -47 -26.5t-20 -95.5h128v7zM202 840 l204 -136l-47 -85l-224 96z" />
<glyph unicode="&#xe9;" horiz-adv-x="511" d="M490 216h-294q6 -63 29 -86t67 -23q28 0 54.5 10.5t58.5 33.5l70 -94q-84 -75 -198 -75q-125 0 -190 76t-65 206q0 83 27 148t80.5 102t130.5 37q108 0 171 -71.5t63 -204.5q0 -25 -4 -59zM323 324q0 58 -13.5 86.5t-47.5 28.5q-31 0 -47 -26.5t-20 -95.5h128v7zM322 840 l67 -125l-224 -96l-47 85z" />
<glyph unicode="&#xea;" horiz-adv-x="511" d="M490 216h-294q6 -63 29 -86t67 -23q28 0 54.5 10.5t58.5 33.5l70 -94q-84 -75 -198 -75q-125 0 -190 76t-65 206q0 83 27 148t80.5 102t130.5 37q108 0 171 -71.5t63 -204.5q0 -25 -4 -59zM323 324q0 58 -13.5 86.5t-47.5 28.5q-31 0 -47 -26.5t-20 -95.5h128v7zM139 620 l-59 64l130 145h104l130 -145l-59 -64l-123 93z" />
<glyph unicode="&#xeb;" horiz-adv-x="511" d="M490 216h-294q6 -63 29 -86t67 -23q28 0 54.5 10.5t58.5 33.5l70 -94q-84 -75 -198 -75q-125 0 -190 76t-65 206q0 83 27 148t80.5 102t130.5 37q108 0 171 -71.5t63 -204.5q0 -25 -4 -59zM323 324q0 58 -13.5 86.5t-47.5 28.5q-31 0 -47 -26.5t-20 -95.5h128v7zM212 782 q24 -24 24 -59q0 -36 -24 -60.5t-60 -24.5q-35 0 -59.5 24.5t-24.5 60.5q0 35 24.5 59t59.5 24q36 0 60 -24zM431 782q24 -24 24 -59q0 -36 -24 -60.5t-60 -24.5q-35 0 -59.5 24.5t-24.5 60.5q0 35 24.5 59t59.5 24q36 0 60 -24z" />
<glyph unicode="&#xec;" horiz-adv-x="260" d="M217 533v-533h-174v533h174zM70 840l204 -136l-47 -85l-224 96z" />
<glyph unicode="&#xed;" horiz-adv-x="260" d="M217 533v-533h-174v533h174zM190 840l67 -125l-224 -96l-47 85z" />
<glyph unicode="&#xee;" horiz-adv-x="260" d="M217 533v-533h-174v533h174zM7 620l-59 64l130 145h104l130 -145l-59 -64l-123 93z" />
<glyph unicode="&#xef;" horiz-adv-x="260" d="M217 533v-533h-174v533h174zM80 782q24 -24 24 -59q0 -36 -24 -60.5t-60 -24.5q-35 0 -59.5 24.5t-24.5 60.5q0 35 24.5 59t59.5 24q36 0 60 -24zM299 782q24 -24 24 -59q0 -36 -24 -60.5t-60 -24.5q-35 0 -59.5 24.5t-24.5 60.5q0 35 24.5 59t59.5 24q36 0 60 -24z" />
<glyph unicode="&#xf0;" horiz-adv-x="536" d="M468.5 504q40.5 -95 40.5 -224q0 -84 -28.5 -151.5t-84 -107t-134.5 -39.5q-68 0 -123 30t-86 86.5t-31 134.5q0 72 26 128t69.5 87.5t93.5 31.5q35 0 62.5 -10.5t51.5 -30.5q-14 44 -32.5 76t-51.5 62l-47 -52l-105 49l51 56q-33 11 -76 20l33 110q63 -11 132 -35l68 78 l88 -71l-51 -61q94 -72 134.5 -167zM317.5 139.5q15.5 32.5 15.5 105.5l-1 83q-27 32 -67 32q-35 0 -51.5 -30.5t-16.5 -93.5q0 -71 17 -100t51 -29q37 0 52.5 32.5z" />
<glyph unicode="&#xf1;" horiz-adv-x="522" d="M448 510q35 -41 35 -114v-396h-174v373q0 26 -7.5 37t-21.5 11q-29 0 -63 -56v-365h-174v533h152l12 -59q31 39 65.5 58t78.5 19q62 0 97 -41zM282 639.5q-15 6.5 -32 18.5q-12 8 -20 12t-17 4q-15 0 -24.5 -9.5t-22.5 -31.5l-81 38q18 54 51 88.5t74 34.5q21 0 37 -7 t33 -19q2 -1 10 -6t14.5 -7.5t12.5 -2.5q14 0 24 9.5t22 31.5l81 -38q-18 -55 -50.5 -88.5t-75.5 -33.5q-21 0 -36 6.5z" />
<glyph unicode="&#xf2;" horiz-adv-x="536" d="M448.5 478.5q65.5 -72.5 65.5 -212.5q0 -134 -65.5 -209t-180.5 -75q-116 0 -181 72.5t-65 212.5q0 134 65.5 209t180.5 75t180.5 -72.5zM217 388q-16 -36 -16 -121q0 -88 15.5 -123.5t51.5 -35.5q35 0 51 36t16 122q0 87 -16 122.5t-51 35.5t-51 -36zM208 840l204 -136 l-47 -85l-224 96z" />
<glyph unicode="&#xf3;" horiz-adv-x="536" d="M448.5 478.5q65.5 -72.5 65.5 -212.5q0 -134 -65.5 -209t-180.5 -75q-116 0 -181 72.5t-65 212.5q0 134 65.5 209t180.5 75t180.5 -72.5zM217 388q-16 -36 -16 -121q0 -88 15.5 -123.5t51.5 -35.5q35 0 51 36t16 122q0 87 -16 122.5t-51 35.5t-51 -36zM328 840l67 -125 l-224 -96l-47 85z" />
<glyph unicode="&#xf4;" horiz-adv-x="536" d="M448.5 478.5q65.5 -72.5 65.5 -212.5q0 -134 -65.5 -209t-180.5 -75q-116 0 -181 72.5t-65 212.5q0 134 65.5 209t180.5 75t180.5 -72.5zM217 388q-16 -36 -16 -121q0 -88 15.5 -123.5t51.5 -35.5q35 0 51 36t16 122q0 87 -16 122.5t-51 35.5t-51 -36zM145 620l-59 64 l130 145h104l130 -145l-59 -64l-123 93z" />
<glyph unicode="&#xf5;" horiz-adv-x="536" d="M448.5 478.5q65.5 -72.5 65.5 -212.5q0 -134 -65.5 -209t-180.5 -75q-116 0 -181 72.5t-65 212.5q0 134 65.5 209t180.5 75t180.5 -72.5zM217 388q-16 -36 -16 -121q0 -88 15.5 -123.5t51.5 -35.5q35 0 51 36t16 122q0 87 -16 122.5t-51 35.5t-51 -36zM285 639.5 q-15 6.5 -32 18.5q-12 8 -20 12t-17 4q-15 0 -24.5 -9.5t-22.5 -31.5l-81 38q18 54 51 88.5t74 34.5q21 0 37 -7t33 -19q2 -1 10 -6t14.5 -7.5t12.5 -2.5q14 0 24 9.5t22 31.5l81 -38q-18 -55 -50.5 -88.5t-75.5 -33.5q-21 0 -36 6.5z" />
<glyph unicode="&#xf6;" horiz-adv-x="536" d="M448.5 478.5q65.5 -72.5 65.5 -212.5q0 -134 -65.5 -209t-180.5 -75q-116 0 -181 72.5t-65 212.5q0 134 65.5 209t180.5 75t180.5 -72.5zM217 388q-16 -36 -16 -121q0 -88 15.5 -123.5t51.5 -35.5q35 0 51 36t16 122q0 87 -16 122.5t-51 35.5t-51 -36zM218 782 q24 -24 24 -59q0 -36 -24 -60.5t-60 -24.5q-35 0 -59.5 24.5t-24.5 60.5q0 35 24.5 59t59.5 24q36 0 60 -24zM437 782q24 -24 24 -59q0 -36 -24 -60.5t-60 -24.5q-35 0 -59.5 24.5t-24.5 60.5q0 35 24.5 59t59.5 24q36 0 60 -24z" />
<glyph unicode="&#xf7;" horiz-adv-x="476" d="M305 154.5q27 -28.5 27 -66.5q0 -40 -26.5 -67.5t-67.5 -27.5q-40 0 -67 28t-27 67q0 38 27 66.5t67 28.5t67 -28.5zM305 642.5q27 -28.5 27 -66.5q0 -40 -26.5 -67.5t-67.5 -27.5q-40 0 -67 28t-27 67q0 38 27 66.5t67 28.5t67 -28.5zM37 267v131h402v-131h-402z" />
<glyph unicode="&#xf8;" horiz-adv-x="536" d="M487 414.5q27 -61.5 27 -148.5q0 -134 -65.5 -209t-180.5 -75q-13 0 -20 1l-33 -119l-124 35l36 122q-50 35 -77.5 97t-27.5 149q0 134 65.5 209t180.5 75q15 0 22 -1l35 119l123 -35l-38 -123q50 -35 77 -96.5zM201 390q-22 -37 -22 -123q0 -87 17 -124l79 284h-7 q-45 0 -67 -37zM335 142.5q22 37.5 22 123.5t-16 121l-78 -282h5q45 0 67 37.5z" />
<glyph unicode="&#xf9;" horiz-adv-x="517" d="M474 0h-152l-7 59q-51 -77 -141 -77q-65 0 -100 43.5t-35 117.5v390h174v-376q0 -26 7.5 -37t23.5 -11q32 0 56 49v375h174v-533zM197 840l204 -136l-47 -85l-224 96z" />
<glyph unicode="&#xfa;" horiz-adv-x="517" d="M474 0h-152l-7 59q-51 -77 -141 -77q-65 0 -100 43.5t-35 117.5v390h174v-376q0 -26 7.5 -37t23.5 -11q32 0 56 49v375h174v-533zM317 840l67 -125l-224 -96l-47 85z" />
<glyph unicode="&#xfb;" horiz-adv-x="517" d="M474 0h-152l-7 59q-51 -77 -141 -77q-65 0 -100 43.5t-35 117.5v390h174v-376q0 -26 7.5 -37t23.5 -11q32 0 56 49v375h174v-533zM134 620l-59 64l130 145h104l130 -145l-59 -64l-123 93z" />
<glyph unicode="&#xfc;" horiz-adv-x="517" d="M474 0h-152l-7 59q-51 -77 -141 -77q-65 0 -100 43.5t-35 117.5v390h174v-376q0 -26 7.5 -37t23.5 -11q32 0 56 49v375h174v-533zM207 782q24 -24 24 -59q0 -36 -24 -60.5t-60 -24.5q-35 0 -59.5 24.5t-24.5 60.5q0 35 24.5 59t59.5 24q36 0 60 -24zM426 782 q24 -24 24 -59q0 -36 -24 -60.5t-60 -24.5q-35 0 -59.5 24.5t-24.5 60.5q0 35 24.5 59t59.5 24q36 0 60 -24z" />
<glyph unicode="&#xfd;" horiz-adv-x="484" d="M345 0q-59 -213 -295 -225l-18 119q69 9 103.5 32.5t54.5 73.5h-63l-137 533h179l68 -424l82 424h175zM302 840l67 -125l-224 -96l-47 85z" />
<glyph unicode="&#xfe;" horiz-adv-x="545" d="M475 477.5q45 -73.5 45 -209.5q0 -85 -23.5 -150t-67 -100.5t-100.5 -35.5q-68 0 -112 57v-244l-174 -19v967l174 18v-273q50 63 124 63q89 0 134 -73.5zM342 266q0 64 -7.5 99t-20.5 47.5t-33 12.5q-36 0 -64 -52v-227q25 -38 58 -38q67 0 67 158z" />
<glyph unicode="&#xff;" horiz-adv-x="484" d="M345 0q-59 -213 -295 -225l-18 119q69 9 103.5 32.5t54.5 73.5h-63l-137 533h179l68 -424l82 424h175zM192 782q24 -24 24 -59q0 -36 -24 -60.5t-60 -24.5q-35 0 -59.5 24.5t-24.5 60.5q0 35 24.5 59t59.5 24q36 0 60 -24zM411 782q24 -24 24 -59q0 -36 -24 -60.5 t-60 -24.5q-35 0 -59.5 24.5t-24.5 60.5q0 35 24.5 59t59.5 24q36 0 60 -24z" />
<glyph unicode="&#x100;" horiz-adv-x="549" d="M379 0l-27 144h-158l-27 -144h-184l184 695h216l183 -695h-187zM218 272h110l-55 293zM420 779h-290v118h290v-118z" />
<glyph unicode="&#x101;" horiz-adv-x="499" d="M459 117q6 -12 23 -19l-35 -113q-49 4 -79.5 20.5t-48.5 53.5q-50 -77 -145 -77q-72 0 -115 46t-43 121q0 88 59.5 134.5t172.5 46.5h35v20q0 45 -15 61t-56 16q-48 0 -124 -27l-38 110q44 20 95.5 30.5t97.5 10.5q108 0 159 -46.5t51 -144.5v-204q0 -27 6 -39z M259.5 115q14.5 11 23.5 29v93h-20q-40 0 -58.5 -17.5t-18.5 -54.5q0 -29 11 -45t31 -16q17 0 31.5 11zM394 653h-290v118h290v-118z" />
<glyph unicode="&#x102;" horiz-adv-x="549" d="M379 0l-27 144h-158l-27 -144h-184l184 695h216l183 -695h-187zM218 272h110l-55 293zM158 797.5q-42 48.5 -48 122.5l91 17q17 -69 74 -69q29 0 47.5 18.5t26.5 50.5l91 -17q-6 -74 -48 -122.5t-117 -48.5t-117 48.5z" />
<glyph unicode="&#x103;" horiz-adv-x="499" d="M459 117q6 -12 23 -19l-35 -113q-49 4 -79.5 20.5t-48.5 53.5q-50 -77 -145 -77q-72 0 -115 46t-43 121q0 88 59.5 134.5t172.5 46.5h35v20q0 45 -15 61t-56 16q-48 0 -124 -27l-38 110q44 20 95.5 30.5t97.5 10.5q108 0 159 -46.5t51 -144.5v-204q0 -27 6 -39z M259.5 115q14.5 11 23.5 29v93h-20q-40 0 -58.5 -17.5t-18.5 -54.5q0 -29 11 -45t31 -16q17 0 31.5 11zM131.5 680q-41.5 50 -47.5 132l91 16q16 -80 74 -80t74 80l91 -16q-6 -82 -47.5 -132t-117.5 -50t-117.5 50z" />
<glyph unicode="&#x104;" horiz-adv-x="549" d="M387 -48.5q-22 -24.5 -22 -50.5q0 -23 12.5 -34.5t34.5 -11.5t54 8l-10 -104q-32 -8 -66 -8q-64 0 -104.5 32t-40.5 88q0 54 34 92.5t95 65.5l-22 115h-158l-27 -144h-184l184 695h216l183 -695h-97q-60 -24 -82 -48.5zM218 272h110l-55 293z" />
<glyph unicode="&#x105;" horiz-adv-x="499" d="M365 -63.5q-22 -24.5 -22 -50.5q0 -23 12.5 -34.5t34.5 -11.5t54 8l-10 -104q-32 -8 -66 -8q-64 0 -104.5 32t-40.5 88q0 55 34 93t96 66q-22 19 -34 44q-50 -77 -145 -77q-72 0 -115 46t-43 121q0 88 59.5 134.5t172.5 46.5h35v20q0 45 -15 61t-56 16q-48 0 -124 -27 l-38 110q44 20 95.5 30.5t97.5 10.5q108 0 159 -46.5t51 -144.5v-204q0 -27 6 -39t23 -19l-35 -113q-60 -24 -82 -48.5zM259.5 115q14.5 11 23.5 29v93h-20q-40 0 -58.5 -17.5t-18.5 -54.5q0 -29 11 -45t31 -16q17 0 31.5 11z" />
<glyph unicode="&#x106;" horiz-adv-x="530" d="M430.5 693q49.5 -20 91.5 -59l-84 -99q-27 22 -52.5 34t-54.5 12q-119 0 -119 -232q0 -120 31 -175t89 -55q32 0 57.5 13t59.5 40l80 -98q-38 -41 -91.5 -66.5t-118.5 -25.5q-136 0 -215.5 93.5t-79.5 273.5q0 117 37.5 199t104 123.5t153.5 41.5q62 0 111.5 -20z M397 963l64 -126l-226 -87l-44 85z" />
<glyph unicode="&#x107;" horiz-adv-x="437" d="M366 534q42 -17 78 -51l-72 -98q-44 35 -85 35q-42 0 -63 -35t-21 -122q0 -83 21.5 -115t61.5 -32q21 0 39 7.5t44 24.5l75 -102q-72 -64 -169 -64q-119 0 -186 74t-67 206q0 87 30.5 152.5t87 101t132.5 35.5q52 0 94 -17zM329 840l67 -125l-224 -96l-47 85z" />
<glyph unicode="&#x108;" horiz-adv-x="530" d="M430.5 693q49.5 -20 91.5 -59l-84 -99q-27 22 -52.5 34t-54.5 12q-119 0 -119 -232q0 -120 31 -175t89 -55q32 0 57.5 13t59.5 40l80 -98q-38 -41 -91.5 -66.5t-118.5 -25.5q-136 0 -215.5 93.5t-79.5 273.5q0 117 37.5 199t104 123.5t153.5 41.5q62 0 111.5 -20z M204 757l-59 64l130 136h104l130 -136l-59 -64l-123 84z" />
<glyph unicode="&#x109;" horiz-adv-x="437" d="M366 534q42 -17 78 -51l-72 -98q-44 35 -85 35q-42 0 -63 -35t-21 -122q0 -83 21.5 -115t61.5 -32q21 0 39 7.5t44 24.5l75 -102q-72 -64 -169 -64q-119 0 -186 74t-67 206q0 87 30.5 152.5t87 101t132.5 35.5q52 0 94 -17zM146 620l-59 64l130 145h104l130 -145l-59 -64 l-123 93z" />
<glyph unicode="&#x10a;" horiz-adv-x="530" d="M430.5 693q49.5 -20 91.5 -59l-84 -99q-27 22 -52.5 34t-54.5 12q-119 0 -119 -232q0 -120 31 -175t89 -55q32 0 57.5 13t59.5 40l80 -98q-38 -41 -91.5 -66.5t-118.5 -25.5q-136 0 -215.5 93.5t-79.5 273.5q0 117 37.5 199t104 123.5t153.5 41.5q62 0 111.5 -20z M397.5 916.5q27.5 -27.5 27.5 -68.5q0 -42 -27.5 -69t-70.5 -27t-70.5 27t-27.5 69q0 41 27.5 68.5t70.5 27.5t70.5 -27.5z" />
<glyph unicode="&#x10b;" horiz-adv-x="437" d="M366 534q42 -17 78 -51l-72 -98q-44 35 -85 35q-42 0 -63 -35t-21 -122q0 -83 21.5 -115t61.5 -32q21 0 39 7.5t44 24.5l75 -102q-72 -64 -169 -64q-119 0 -186 74t-67 206q0 87 30.5 152.5t87 101t132.5 35.5q52 0 94 -17zM339.5 790.5q27.5 -27.5 27.5 -68.5 q0 -42 -27.5 -69t-70.5 -27t-70.5 27t-27.5 69q0 41 27.5 68.5t70.5 27.5t70.5 -27.5z" />
<glyph unicode="&#x10c;" horiz-adv-x="530" d="M430.5 693q49.5 -20 91.5 -59l-84 -99q-27 22 -52.5 34t-54.5 12q-119 0 -119 -232q0 -120 31 -175t89 -55q32 0 57.5 13t59.5 40l80 -98q-38 -41 -91.5 -66.5t-118.5 -25.5q-136 0 -215.5 93.5t-79.5 273.5q0 117 37.5 199t104 123.5t153.5 41.5q62 0 111.5 -20z M450 949l59 -64l-130 -136h-104l-130 136l59 64l123 -84z" />
<glyph unicode="&#x10d;" horiz-adv-x="437" d="M366 534q42 -17 78 -51l-72 -98q-44 35 -85 35q-42 0 -63 -35t-21 -122q0 -83 21.5 -115t61.5 -32q21 0 39 7.5t44 24.5l75 -102q-72 -64 -169 -64q-119 0 -186 74t-67 206q0 87 30.5 152.5t87 101t132.5 35.5q52 0 94 -17zM392 818l59 -65l-130 -145h-104l-130 145 l59 65l123 -94z" />
<glyph unicode="&#x10e;" horiz-adv-x="598" d="M412 667.5q72 -27.5 117 -103.5t45 -214q0 -194 -87 -272t-234 -78h-208v695h197q98 0 170 -27.5zM226 566v-437h38q43 0 69.5 19.5t40.5 68t14 133.5t-14.5 132.5t-41 65.5t-67.5 18h-39zM389 949l59 -64l-130 -136h-104l-130 136l59 64l123 -84z" />
<glyph unicode="&#x10f;" horiz-adv-x="660" d="M504 743v-743h-155l-6 57q-52 -75 -136 -75q-90 0 -136.5 75t-46.5 211q0 84 25 148.5t70 99.5t104 35q66 0 107 -46v256zM330 156v233q-14 18 -27 27t-29 9q-71 0 -71 -158q0 -93 16.5 -126.5t46.5 -33.5q36 0 64 49zM630 519l52 223l-124 18l-23 -227z" />
<glyph unicode="&#x110;" horiz-adv-x="615" d="M429 667.5q72 -27.5 117 -103.5t45 -214q0 -194 -87 -272t-234 -78h-208v300h-50v106h50v289h197q98 0 170 -27.5zM350.5 148.5q26.5 19.5 40.5 68t14 133.5t-14.5 132.5t-41 65.5t-67.5 18h-39v-160h97v-106h-97v-171h38q43 0 69.5 19.5z" />
<glyph unicode="&#x111;" horiz-adv-x="553" d="M551 692v-98h-47v-594h-155l-6 57q-52 -75 -136 -75q-90 0 -136.5 75t-46.5 211q0 84 25 148.5t70 99.5t104 35q66 0 107 -46v89h-113v98h113v69l174 -18v-51h47zM330 156v233q-14 18 -27 27t-29 9q-71 0 -71 -158q0 -93 16.5 -126.5t46.5 -33.5q36 0 64 49z" />
<glyph unicode="&#x112;" horiz-adv-x="472" d="M453 695l-19 -128h-208v-152h183v-125h-183v-161h222v-129h-403v695h408zM394 779h-290v118h290v-118z" />
<glyph unicode="&#x113;" horiz-adv-x="511" d="M490 216h-294q6 -63 29 -86t67 -23q28 0 54.5 10.5t58.5 33.5l70 -94q-84 -75 -198 -75q-125 0 -190 76t-65 206q0 83 27 148t80.5 102t130.5 37q108 0 171 -71.5t63 -204.5q0 -25 -4 -59zM323 324q0 58 -13.5 86.5t-47.5 28.5q-31 0 -47 -26.5t-20 -95.5h128v7zM407 653 h-290v118h290v-118z" />
<glyph unicode="&#x114;" horiz-adv-x="472" d="M453 695l-19 -128h-208v-152h183v-125h-183v-161h222v-129h-403v695h408zM132 797.5q-42 48.5 -48 122.5l91 17q17 -69 74 -69q29 0 47.5 18.5t26.5 50.5l91 -17q-6 -74 -48 -122.5t-117 -48.5t-117 48.5z" />
<glyph unicode="&#x115;" horiz-adv-x="511" d="M490 216h-294q6 -63 29 -86t67 -23q28 0 54.5 10.5t58.5 33.5l70 -94q-84 -75 -198 -75q-125 0 -190 76t-65 206q0 83 27 148t80.5 102t130.5 37q108 0 171 -71.5t63 -204.5q0 -25 -4 -59zM323 324q0 58 -13.5 86.5t-47.5 28.5q-31 0 -47 -26.5t-20 -95.5h128v7z M144.5 680q-41.5 50 -47.5 132l91 16q16 -80 74 -80t74 80l91 -16q-6 -82 -47.5 -132t-117.5 -50t-117.5 50z" />
<glyph unicode="&#x116;" horiz-adv-x="472" d="M453 695l-19 -128h-208v-152h183v-125h-183v-161h222v-129h-403v695h408zM319.5 916.5q27.5 -27.5 27.5 -68.5q0 -42 -27.5 -69t-70.5 -27t-70.5 27t-27.5 69q0 41 27.5 68.5t70.5 27.5t70.5 -27.5z" />
<glyph unicode="&#x117;" horiz-adv-x="511" d="M490 216h-294q6 -63 29 -86t67 -23q28 0 54.5 10.5t58.5 33.5l70 -94q-84 -75 -198 -75q-125 0 -190 76t-65 206q0 83 27 148t80.5 102t130.5 37q108 0 171 -71.5t63 -204.5q0 -25 -4 -59zM323 324q0 58 -13.5 86.5t-47.5 28.5q-31 0 -47 -26.5t-20 -95.5h128v7z M332.5 790.5q27.5 -27.5 27.5 -68.5q0 -42 -27.5 -69t-70.5 -27t-70.5 27t-27.5 69q0 41 27.5 68.5t70.5 27.5t70.5 -27.5z" />
<glyph unicode="&#x118;" horiz-adv-x="472" d="M226 129h222v-129h-35q-60 -24 -82 -48.5t-22 -50.5q0 -23 12.5 -34.5t34.5 -11.5t54 8l-10 -104q-32 -8 -66 -8q-64 0 -104.5 32t-40.5 88q0 78 76 129h-220v695h408l-19 -128h-208v-152h183v-125h-183v-161z" />
<glyph unicode="&#x119;" horiz-adv-x="511" d="M490 216h-294q6 -63 29 -86t67 -23q28 0 54.5 10.5t58.5 33.5l70 -94q-44 -39 -95 -57q-80 -39 -80 -89q0 -22 12 -33.5t34 -11.5q27 0 55 7l-11 -104q-32 -8 -66 -8q-62 0 -102.5 32.5t-40.5 88.5q0 62 61 102q-108 11 -164 85.5t-56 194.5q0 83 27 148t80.5 102 t130.5 37q108 0 171 -71.5t63 -204.5q0 -25 -4 -59zM323 324q0 58 -13.5 86.5t-47.5 28.5q-31 0 -47 -26.5t-20 -95.5h128v7z" />
<glyph unicode="&#x11a;" horiz-adv-x="472" d="M453 695l-19 -128h-208v-152h183v-125h-183v-161h222v-129h-403v695h408zM372 949l59 -64l-130 -136h-104l-130 136l59 64l123 -84z" />
<glyph unicode="&#x11b;" horiz-adv-x="511" d="M490 216h-294q6 -63 29 -86t67 -23q28 0 54.5 10.5t58.5 33.5l70 -94q-84 -75 -198 -75q-125 0 -190 76t-65 206q0 83 27 148t80.5 102t130.5 37q108 0 171 -71.5t63 -204.5q0 -25 -4 -59zM323 324q0 58 -13.5 86.5t-47.5 28.5q-31 0 -47 -26.5t-20 -95.5h128v7zM385 818 l59 -65l-130 -145h-104l-130 145l59 65l123 -94z" />
<glyph unicode="&#x11c;" horiz-adv-x="594" d="M559 625l-87 -90q-33 26 -61 37.5t-63 11.5q-68 0 -102.5 -54.5t-34.5 -182.5q0 -92 11 -143t34 -71.5t62 -20.5q37 0 70 19v147h-68l-17 125h256v-346q-50 -35 -113.5 -55t-123.5 -20q-153 0 -225.5 90.5t-72.5 275.5q0 119 41 201t112 123t161 41q130 0 221 -88z M197 757l-59 64l130 136h104l130 -136l-59 -64l-123 84z" />
<glyph unicode="&#x11d;" horiz-adv-x="505" d="M509 499q-46 -22 -136 -22q49 -21 72 -53.5t23 -84.5t-26 -92t-74.5 -62.5t-113.5 -22.5q-32 0 -52 5q-14 -9 -14 -27q0 -15 10.5 -22.5t40.5 -7.5h64q92 0 145.5 -43t53.5 -112q0 -83 -68.5 -131t-195.5 -48q-94 0 -147.5 21t-74.5 59t-21 94h156q0 -34 18 -48.5 t71 -14.5q49 0 68 15t19 41q0 49 -62 49h-56q-84 0 -123.5 28.5t-39.5 76.5q0 30 17 57.5t44 45.5q-47 28 -68 64t-21 89q0 93 61.5 145.5t167.5 51.5q67 -1 117 17.5t106 53.5zM189 357q0 -84 58 -84q29 0 43 20t14 66q0 42 -14 60t-43 18q-58 0 -58 -80zM131 620l-59 64 l130 145h104l130 -145l-59 -64l-123 93z" />
<glyph unicode="&#x11e;" horiz-adv-x="594" d="M559 625l-87 -90q-33 26 -61 37.5t-63 11.5q-68 0 -102.5 -54.5t-34.5 -182.5q0 -92 11 -143t34 -71.5t62 -20.5q37 0 70 19v147h-68l-17 125h256v-346q-50 -35 -113.5 -55t-123.5 -20q-153 0 -225.5 90.5t-72.5 275.5q0 119 41 201t112 123t161 41q130 0 221 -88z M203 797.5q-42 48.5 -48 122.5l91 17q17 -69 74 -69q29 0 47.5 18.5t26.5 50.5l91 -17q-6 -74 -48 -122.5t-117 -48.5t-117 48.5z" />
<glyph unicode="&#x11f;" horiz-adv-x="505" d="M509 499q-46 -22 -136 -22q49 -21 72 -53.5t23 -84.5t-26 -92t-74.5 -62.5t-113.5 -22.5q-32 0 -52 5q-14 -9 -14 -27q0 -15 10.5 -22.5t40.5 -7.5h64q92 0 145.5 -43t53.5 -112q0 -83 -68.5 -131t-195.5 -48q-94 0 -147.5 21t-74.5 59t-21 94h156q0 -34 18 -48.5 t71 -14.5q49 0 68 15t19 41q0 49 -62 49h-56q-84 0 -123.5 28.5t-39.5 76.5q0 30 17 57.5t44 45.5q-47 28 -68 64t-21 89q0 93 61.5 145.5t167.5 51.5q67 -1 117 17.5t106 53.5zM189 357q0 -84 58 -84q29 0 43 20t14 66q0 42 -14 60t-43 18q-58 0 -58 -80zM136.5 680 q-41.5 50 -47.5 132l91 16q16 -80 74 -80t74 80l91 -16q-6 -82 -47.5 -132t-117.5 -50t-117.5 50z" />
<glyph unicode="&#x120;" horiz-adv-x="594" d="M559 625l-87 -90q-33 26 -61 37.5t-63 11.5q-68 0 -102.5 -54.5t-34.5 -182.5q0 -92 11 -143t34 -71.5t62 -20.5q37 0 70 19v147h-68l-17 125h256v-346q-50 -35 -113.5 -55t-123.5 -20q-153 0 -225.5 90.5t-72.5 275.5q0 119 41 201t112 123t161 41q130 0 221 -88z M390.5 916.5q27.5 -27.5 27.5 -68.5q0 -42 -27.5 -69t-70.5 -27t-70.5 27t-27.5 69q0 41 27.5 68.5t70.5 27.5t70.5 -27.5z" />
<glyph unicode="&#x121;" horiz-adv-x="505" d="M509 499q-46 -22 -136 -22q49 -21 72 -53.5t23 -84.5t-26 -92t-74.5 -62.5t-113.5 -22.5q-32 0 -52 5q-14 -9 -14 -27q0 -15 10.5 -22.5t40.5 -7.5h64q92 0 145.5 -43t53.5 -112q0 -83 -68.5 -131t-195.5 -48q-94 0 -147.5 21t-74.5 59t-21 94h156q0 -34 18 -48.5 t71 -14.5q49 0 68 15t19 41q0 49 -62 49h-56q-84 0 -123.5 28.5t-39.5 76.5q0 30 17 57.5t44 45.5q-47 28 -68 64t-21 89q0 93 61.5 145.5t167.5 51.5q67 -1 117 17.5t106 53.5zM189 357q0 -84 58 -84q29 0 43 20t14 66q0 42 -14 60t-43 18q-58 0 -58 -80zM324.5 790.5 q27.5 -27.5 27.5 -68.5q0 -42 -27.5 -69t-70.5 -27t-70.5 27t-27.5 69q0 41 27.5 68.5t70.5 27.5t70.5 -27.5z" />
<glyph unicode="&#x122;" horiz-adv-x="594" d="M559 625l-87 -90q-33 26 -61 37.5t-63 11.5q-68 0 -102.5 -54.5t-34.5 -182.5q0 -92 11 -143t34 -71.5t62 -20.5q37 0 70 19v147h-68l-17 125h256v-346q-50 -35 -113.5 -55t-123.5 -20q-153 0 -225.5 90.5t-72.5 275.5q0 119 41 201t112 123t161 41q130 0 221 -88z M379 -88.5q23 -23.5 23 -59.5q0 -19 -5.5 -36t-19.5 -50l-44 -98h-83l26 115q-37 26 -37 69q0 34 23 58.5t58 24.5q36 0 59 -23.5z" />
<glyph unicode="&#x123;" horiz-adv-x="505" d="M509 499q-46 -22 -136 -22q49 -21 72 -53.5t23 -84.5t-26 -92t-74.5 -62.5t-113.5 -22.5q-32 0 -52 5q-14 -9 -14 -27q0 -15 10.5 -22.5t40.5 -7.5h64q92 0 145.5 -43t53.5 -112q0 -83 -68.5 -131t-195.5 -48q-94 0 -147.5 21t-74.5 59t-21 94h156q0 -34 18 -48.5 t71 -14.5q49 0 68 15t19 41q0 49 -62 49h-56q-84 0 -123.5 28.5t-39.5 76.5q0 30 17 57.5t44 45.5q-47 28 -68 64t-21 89q0 93 61.5 145.5t167.5 51.5q67 -1 117 17.5t106 53.5zM189 357q0 -84 58 -84q29 0 43 20t14 66q0 42 -14 60t-43 18q-58 0 -58 -80zM192 598.5 q-23 23.5 -23 59.5q0 19 5.5 36t19.5 50l44 98h83l-26 -115q37 -26 37 -69q0 -34 -23 -58.5t-58 -24.5q-36 0 -59 23.5z" />
<glyph unicode="&#x124;" horiz-adv-x="599" d="M374 0v290h-148v-290h-181v695h181v-265h148v265h181v-695h-181zM177 757l-59 64l130 136h104l130 -136l-59 -64l-123 84z" />
<glyph unicode="&#x125;" horiz-adv-x="522" d="M448 510q35 -41 35 -114v-396h-174v373q0 26 -7.5 37t-21.5 11q-29 0 -63 -56v-365h-174v743l174 18v-281q29 37 61 54t73 17q62 0 97 -41zM138 805l-59 64l130 136h104l130 -136l-59 -64l-123 84z" />
<glyph unicode="&#x126;" horiz-adv-x="612" d="M606 595v-97h-45v-498h-181v290h-148v-290h-181v498h-45v97h45v100h181v-100h148v100h181v-100h45zM380 430v68h-148v-68h148z" />
<glyph unicode="&#x127;" horiz-adv-x="529" d="M455 510q35 -41 35 -114v-396h-174v373q0 26 -7.5 37t-21.5 11q-29 0 -63 -56v-365h-174v595h-48v97h48v51l174 18v-69h111v-97h-111v-115q29 37 61 54t73 17q62 0 97 -41z" />
<glyph unicode="&#x128;" horiz-adv-x="270" d="M226 695v-695h-181v695h181zM153 765.5q-15 6.5 -32 18.5q-12 8 -20 12t-17 4q-15 0 -24.5 -9.5t-22.5 -31.5l-81 38q18 54 51 88.5t74 34.5q21 0 37 -7t33 -19q2 -1 10 -6t14.5 -7.5t12.5 -2.5q14 0 24 9.5t22 31.5l81 -38q-18 -55 -50.5 -88.5t-75.5 -33.5 q-21 0 -36 6.5z" />
<glyph unicode="&#x129;" horiz-adv-x="260" d="M217 533v-533h-174v533h174zM147 639.5q-15 6.5 -32 18.5q-12 8 -20 12t-17 4q-15 0 -24.5 -9.5t-22.5 -31.5l-81 38q18 54 51 88.5t74 34.5q21 0 37 -7t33 -19q2 -1 10 -6t14.5 -7.5t12.5 -2.5q14 0 24 9.5t22 31.5l81 -38q-18 -55 -50.5 -88.5t-75.5 -33.5 q-21 0 -36 6.5z" />
<glyph unicode="&#x12a;" horiz-adv-x="270" d="M226 695v-695h-181v695h181zM280 779h-290v118h290v-118z" />
<glyph unicode="&#x12b;" horiz-adv-x="260" d="M217 533v-533h-174v533h174zM275 653h-290v118h290v-118z" />
<glyph unicode="&#x12c;" horiz-adv-x="270" d="M226 695v-695h-181v695h181zM18 797.5q-42 48.5 -48 122.5l91 17q17 -69 74 -69q29 0 47.5 18.5t26.5 50.5l91 -17q-6 -74 -48 -122.5t-117 -48.5t-117 48.5z" />
<glyph unicode="&#x12d;" horiz-adv-x="260" d="M217 533v-533h-174v533h174zM12.5 680q-41.5 50 -47.5 132l91 16q16 -80 74 -80t74 80l91 -16q-6 -82 -47.5 -132t-117.5 -50t-117.5 50z" />
<glyph unicode="&#x12e;" horiz-adv-x="270" d="M226 695v-695h-41q-60 -24 -82 -48.5t-22 -50.5q0 -23 12.5 -34.5t34.5 -11.5t54 8l-10 -104q-32 -8 -66 -8q-64 0 -104.5 32t-40.5 88q0 82 84 135v689h181z" />
<glyph unicode="&#x12f;" horiz-adv-x="260" d="M59.5 653q-27.5 27 -27.5 69q0 41 27.5 68.5t70.5 27.5t70.5 -27.5t27.5 -68.5q0 -42 -27.5 -69t-70.5 -27t-70.5 27zM43 533h174v-533h-34q-60 -24 -82 -48.5t-22 -50.5q0 -23 12.5 -34.5t34.5 -11.5t54 8l-10 -104q-32 -8 -66 -8q-64 0 -104.5 32t-40.5 88q0 82 84 135 v527z" />
<glyph unicode="&#x130;" horiz-adv-x="270" d="M226 695v-695h-181v695h181zM205.5 916.5q27.5 -27.5 27.5 -68.5q0 -42 -27.5 -69t-70.5 -27t-70.5 27t-27.5 69q0 41 27.5 68.5t70.5 27.5t70.5 -27.5z" />
<glyph unicode="&#x131;" horiz-adv-x="260" d="M217 533v-533h-174v533h174z" />
<glyph unicode="&#x132;" horiz-adv-x="564" d="M226 695v-695h-181v695h181zM522 108q0 -86 -31 -142t-78.5 -88t-112.5 -55l-48 127q39 17 58 38.5t25 50t6 75.5v581h181v-587z" />
<glyph unicode="&#x133;" horiz-adv-x="520" d="M217 533v-533h-174v533h174zM200.5 790.5q27.5 -27.5 27.5 -68.5q0 -42 -27.5 -69t-70.5 -27t-70.5 27t-27.5 69q0 41 27.5 68.5t70.5 27.5t70.5 -27.5zM477 56q0 -116 -56.5 -178.5t-158.5 -101.5l-60 127q35 18 56 35t33 43.5t12 68.5v483h174v-477zM460.5 790.5 q27.5 -27.5 27.5 -68.5q0 -42 -27.5 -69t-70.5 -27t-70.5 27t-27.5 69q0 41 27.5 68.5t70.5 27.5t70.5 -27.5z" />
<glyph unicode="&#x134;" horiz-adv-x="294" d="M252 108q0 -86 -31 -142t-78.5 -88t-112.5 -55l-48 127q39 17 58 38.5t25 50t6 75.5v581h181v-587zM38 757l-59 64l130 136h104l130 -136l-59 -64l-123 84z" />
<glyph unicode="&#x135;" horiz-adv-x="260" d="M217 56q0 -116 -56.5 -178.5t-158.5 -101.5l-60 127q35 18 56 35t33 43.5t12 68.5v483h174v-477zM7 620l-59 64l130 145h104l130 -145l-59 -64l-123 93z" />
<glyph unicode="&#x136;" horiz-adv-x="595" d="M226 695v-695h-181v695h181zM595 695l-182 -311l198 -384h-201l-179 370l182 325h182zM359 -88.5q23 -23.5 23 -59.5q0 -19 -5.5 -36t-19.5 -50l-44 -98h-83l26 115q-37 26 -37 69q0 34 23 58.5t58 24.5q36 0 59 -23.5z" />
<glyph unicode="&#x137;" horiz-adv-x="522" d="M217 761v-761h-174v743zM524 533l-132 -234l140 -299h-187l-124 291l134 242h169zM320 -88.5q23 -23.5 23 -59.5q0 -19 -5.5 -36t-19.5 -50l-44 -98h-83l26 115q-37 26 -37 69q0 34 23 58.5t58 24.5q36 0 59 -23.5z" />
<glyph unicode="&#x138;" horiz-adv-x="522" d="M217 533v-533h-174v533h174zM524 533l-132 -240l140 -293h-187l-124 286l134 247h169z" />
<glyph unicode="&#x139;" horiz-adv-x="470" d="M226 695v-554h237l-19 -141h-399v695h181zM205 963l64 -126l-226 -87l-44 85z" />
<glyph unicode="&#x13a;" horiz-adv-x="276" d="M77 23q-39 41 -39 114v606l174 18v-617q0 -25 22 -25q12 0 19 3l31 -122q-40 -18 -96 -18q-72 0 -111 41zM195 1011l64 -126l-226 -87l-44 85z" />
<glyph unicode="&#x13b;" horiz-adv-x="470" d="M226 695v-554h237l-19 -141h-399v695h181zM304 -88.5q23 -23.5 23 -59.5q0 -19 -5.5 -36t-19.5 -50l-44 -98h-83l26 115q-37 26 -37 69q0 34 23 58.5t58 24.5q36 0 59 -23.5z" />
<glyph unicode="&#x13c;" horiz-adv-x="276" d="M77 23q-39 41 -39 114v606l174 18v-617q0 -25 22 -25q12 0 19 3l31 -122q-40 -18 -96 -18q-72 0 -111 41zM229 -88.5q23 -23.5 23 -59.5q0 -19 -5.5 -36t-19.5 -50l-44 -98h-83l26 115q-37 26 -37 69q0 34 23 58.5t58 24.5q36 0 59 -23.5z" />
<glyph unicode="&#x13d;" horiz-adv-x="470" d="M226 695v-554h237l-19 -141h-399v695h181zM352 471l52 223l-124 18l-23 -227z" />
<glyph unicode="&#x13e;" horiz-adv-x="369" d="M77 23q-39 41 -39 114v606l174 18v-617q0 -25 22 -25q12 0 19 3l31 -122q-40 -18 -96 -18q-72 0 -111 41zM338 519l52 223l-124 18l-23 -227z" />
<glyph unicode="&#x13f;" horiz-adv-x="470" d="M226 695v-554h237l-19 -141h-399v695h181zM436.5 471.5q27.5 -27.5 27.5 -68.5q0 -42 -27.5 -69t-70.5 -27t-70.5 27t-27.5 69q0 41 27.5 68.5t70.5 27.5t70.5 -27.5z" />
<glyph unicode="&#x140;" horiz-adv-x="449" d="M77 23q-39 41 -39 114v606l174 18v-617q0 -25 22 -25q12 0 19 3l31 -122q-40 -18 -96 -18q-72 0 -111 41zM420.5 445.5q27.5 -27.5 27.5 -68.5q0 -42 -27.5 -69t-70.5 -27t-70.5 27t-27.5 69q0 41 27.5 68.5t70.5 27.5t70.5 -27.5z" />
<glyph unicode="&#x141;" horiz-adv-x="517" d="M273 141h237l-19 -141h-399v217l-36 -24l-55 93l87 59l4 3v347h181v-227l95 63l57 -92l-152 -101v-197z" />
<glyph unicode="&#x142;" horiz-adv-x="347" d="M291 122l31 -122q-40 -18 -96 -18q-72 0 -111 41t-39 114v123l-33 -21l-55 90l88 60v354l174 18v-261l48 30l56 -90l-104 -67v-229q0 -25 22 -25q12 0 19 3z" />
<glyph unicode="&#x143;" horiz-adv-x="594" d="M550 0h-224l-148 530q12 -89 17.5 -148t5.5 -143v-239h-156v695h221l151 -532q-11 73 -17.5 134.5t-6.5 139.5v258h157v-695zM368 963l64 -126l-226 -87l-44 85z" />
<glyph unicode="&#x144;" horiz-adv-x="522" d="M448 510q35 -41 35 -114v-396h-174v373q0 26 -7.5 37t-21.5 11q-29 0 -63 -56v-365h-174v533h152l12 -59q31 39 65.5 58t78.5 19q62 0 97 -41zM325 840l67 -125l-224 -96l-47 85z" />
<glyph unicode="&#x145;" horiz-adv-x="594" d="M550 0h-224l-148 530q12 -89 17.5 -148t5.5 -143v-239h-156v695h221l151 -532q-11 73 -17.5 134.5t-6.5 139.5v258h157v-695zM356 -88.5q23 -23.5 23 -59.5q0 -19 -5.5 -36t-19.5 -50l-44 -98h-83l26 115q-37 26 -37 69q0 34 23 58.5t58 24.5q36 0 59 -23.5z" />
<glyph unicode="&#x146;" horiz-adv-x="522" d="M448 510q35 -41 35 -114v-396h-174v373q0 26 -7.5 37t-21.5 11q-29 0 -63 -56v-365h-174v533h152l12 -59q31 39 65.5 58t78.5 19q62 0 97 -41zM320 -88.5q23 -23.5 23 -59.5q0 -19 -5.5 -36t-19.5 -50l-44 -98h-83l26 115q-37 26 -37 69q0 34 23 58.5t58 24.5 q36 0 59 -23.5z" />
<glyph unicode="&#x147;" horiz-adv-x="594" d="M550 0h-224l-148 530q12 -89 17.5 -148t5.5 -143v-239h-156v695h221l151 -532q-11 73 -17.5 134.5t-6.5 139.5v258h157v-695zM421 949l59 -64l-130 -136h-104l-130 136l59 64l123 -84z" />
<glyph unicode="&#x148;" horiz-adv-x="522" d="M448 510q35 -41 35 -114v-396h-174v373q0 26 -7.5 37t-21.5 11q-29 0 -63 -56v-365h-174v533h152l12 -59q31 39 65.5 58t78.5 19q62 0 97 -41zM388 818l59 -65l-130 -145h-104l-130 145l59 65l123 -94z" />
<glyph unicode="&#x149;" horiz-adv-x="647" d="M148 741q19 -20 19 -50q0 -17 -5 -32.5t-17 -41.5l-36 -82h-70l19 97q-30 23 -30 59q0 29 19.5 49.5t50.5 20.5t50 -20zM573 510q35 -41 35 -114v-396h-174v373q0 26 -7.5 37t-21.5 11q-29 0 -63 -56v-365h-174v533h152l12 -59q31 39 65.5 58t78.5 19q62 0 97 -41z" />
<glyph unicode="&#x14a;" horiz-adv-x="594" d="M550 695v-727q0 -95 -55 -143.5t-148 -48.5q-86 0 -142 44l58 103q18 -9 30.5 -13t29.5 -4q45 0 45 51v43h-42l-148 530q12 -89 17.5 -148t5.5 -143v-239h-156v695h221l151 -532q-11 73 -17.5 134.5t-6.5 139.5v258h157z" />
<glyph unicode="&#x14b;" horiz-adv-x="522" d="M448 510q35 -41 35 -114v-431q0 -92 -53.5 -140.5t-143.5 -48.5q-84 0 -142 44l57 98q18 -9 31 -13t30 -4q22 0 34.5 12.5t12.5 38.5v421q0 26 -7.5 37t-21.5 11q-29 0 -63 -56v-365h-174v533h152l12 -59q31 39 65.5 58t78.5 19q62 0 97 -41z" />
<glyph unicode="&#x14c;" horiz-adv-x="631" d="M531.5 620q75.5 -93 75.5 -272q0 -177 -76 -271.5t-216 -94.5t-215.5 93.5t-75.5 272.5q0 176 75.5 270.5t215.5 94.5q141 0 216.5 -93zM236.5 529.5q-24.5 -53.5 -24.5 -181.5q0 -129 24.5 -182.5t78.5 -53.5q38 0 60.5 22.5t33 74t10.5 139.5q0 128 -24.5 181.5 t-79.5 53.5q-54 0 -78.5 -53.5zM460 779h-290v118h290v-118z" />
<glyph unicode="&#x14d;" horiz-adv-x="536" d="M448.5 478.5q65.5 -72.5 65.5 -212.5q0 -134 -65.5 -209t-180.5 -75q-116 0 -181 72.5t-65 212.5q0 134 65.5 209t180.5 75t180.5 -72.5zM217 388q-16 -36 -16 -121q0 -88 15.5 -123.5t51.5 -35.5q35 0 51 36t16 122q0 87 -16 122.5t-51 35.5t-51 -36zM413 653h-290v118 h290v-118z" />
<glyph unicode="&#x14e;" horiz-adv-x="631" d="M531.5 620q75.5 -93 75.5 -272q0 -177 -76 -271.5t-216 -94.5t-215.5 93.5t-75.5 272.5q0 176 75.5 270.5t215.5 94.5q141 0 216.5 -93zM236.5 529.5q-24.5 -53.5 -24.5 -181.5q0 -129 24.5 -182.5t78.5 -53.5q38 0 60.5 22.5t33 74t10.5 139.5q0 128 -24.5 181.5 t-79.5 53.5q-54 0 -78.5 -53.5zM198 797.5q-42 48.5 -48 122.5l91 17q17 -69 74 -69q29 0 47.5 18.5t26.5 50.5l91 -17q-6 -74 -48 -122.5t-117 -48.5t-117 48.5z" />
<glyph unicode="&#x14f;" horiz-adv-x="536" d="M448.5 478.5q65.5 -72.5 65.5 -212.5q0 -134 -65.5 -209t-180.5 -75q-116 0 -181 72.5t-65 212.5q0 134 65.5 209t180.5 75t180.5 -72.5zM217 388q-16 -36 -16 -121q0 -88 15.5 -123.5t51.5 -35.5q35 0 51 36t16 122q0 87 -16 122.5t-51 35.5t-51 -36zM150.5 680 q-41.5 50 -47.5 132l91 16q16 -80 74 -80t74 80l91 -16q-6 -82 -47.5 -132t-117.5 -50t-117.5 50z" />
<glyph unicode="&#x150;" horiz-adv-x="631" d="M531.5 620q75.5 -93 75.5 -272q0 -177 -76 -271.5t-216 -94.5t-215.5 93.5t-75.5 272.5q0 176 75.5 270.5t215.5 94.5q141 0 216.5 -93zM236.5 529.5q-24.5 -53.5 -24.5 -181.5q0 -129 24.5 -182.5t78.5 -53.5q38 0 60.5 22.5t33 74t10.5 139.5q0 128 -24.5 181.5 t-79.5 53.5q-54 0 -78.5 -53.5zM273 992l109 -52l-109 -187l-85 35zM442 992l108 -56l-117 -187l-83 40z" />
<glyph unicode="&#x151;" horiz-adv-x="536" d="M448.5 478.5q65.5 -72.5 65.5 -212.5q0 -134 -65.5 -209t-180.5 -75q-116 0 -181 72.5t-65 212.5q0 134 65.5 209t180.5 75t180.5 -72.5zM217 388q-16 -36 -16 -121q0 -88 15.5 -123.5t51.5 -35.5q35 0 51 36t16 122q0 87 -16 122.5t-51 35.5t-51 -36zM216 866l109 -52 l-109 -187l-85 35zM385 866l108 -56l-117 -187l-83 40z" />
<glyph unicode="&#x152;" horiz-adv-x="823" d="M529 129h270v-129h-404q-42 -18 -96 -18q-85 0 -147 42.5t-95 125t-33 198.5q0 115 33 197t95 125t147 43q55 0 97 -18h408l-19 -128h-255q42 -64 53 -152h177v-125h-176q-11 -98 -55 -161zM378 165.5q22 53.5 22 182.5q0 128 -22.5 181.5t-71.5 53.5q-48 0 -71 -53.5 t-23 -181.5t23 -182t71 -54q50 0 72 53.5z" />
<glyph unicode="&#x153;" horiz-adv-x="822" d="M802 216h-293q6 -62 29.5 -85.5t67.5 -23.5q28 0 54.5 10.5t58.5 33.5l70 -93q-83 -76 -198 -76q-105 0 -168 73q-62 -73 -159 -73q-113 0 -177.5 74t-64.5 211q0 86 29.5 150.5t84.5 99t129 34.5q93 0 158 -71q61 71 154 71q104 0 166 -71.5t62 -204.5q0 -8 -3 -59z M635 324q0 57 -13 85.5t-47 28.5q-31 0 -47 -27t-20 -93h127v6zM317.5 144q15.5 36 15.5 123q0 85 -15.5 121t-50.5 36q-34 0 -50 -36t-16 -121q0 -88 15.5 -123.5t50.5 -35.5t50.5 36z" />
<glyph unicode="&#x154;" horiz-adv-x="566" d="M265 258h-39v-258h-181v695h217q277 0 277 -216q0 -131 -113 -187l154 -292h-195zM226 381h41q46 0 66.5 23.5t20.5 74.5q0 46 -23 68t-71 22h-34v-188zM346 963l64 -126l-226 -87l-44 85z" />
<glyph unicode="&#x155;" horiz-adv-x="370" d="M379 540l-28 -167q-21 6 -42 6q-40 0 -60 -28.5t-32 -84.5v-266h-174v533h152l13 -91q18 51 50 79t74 28q23 0 47 -9zM271 840l67 -125l-224 -96l-47 85z" />
<glyph unicode="&#x156;" horiz-adv-x="566" d="M265 258h-39v-258h-181v695h217q277 0 277 -216q0 -131 -113 -187l154 -292h-195zM226 381h41q46 0 66.5 23.5t20.5 74.5q0 46 -23 68t-71 22h-34v-188zM343 -88.5q23 -23.5 23 -59.5q0 -19 -5.5 -36t-19.5 -50l-44 -98h-83l26 115q-37 26 -37 69q0 34 23 58.5t58 24.5 q36 0 59 -23.5z" />
<glyph unicode="&#x157;" horiz-adv-x="370" d="M379 540l-28 -167q-21 6 -42 6q-40 0 -60 -28.5t-32 -84.5v-266h-174v533h152l13 -91q18 51 50 79t74 28q23 0 47 -9zM189 -88.5q23 -23.5 23 -59.5q0 -19 -5.5 -36t-19.5 -50l-44 -98h-83l26 115q-37 26 -37 69q0 34 23 58.5t58 24.5q36 0 59 -23.5z" />
<glyph unicode="&#x158;" horiz-adv-x="566" d="M265 258h-39v-258h-181v695h217q277 0 277 -216q0 -131 -113 -187l154 -292h-195zM226 381h41q46 0 66.5 23.5t20.5 74.5q0 46 -23 68t-71 22h-34v-188zM399 949l59 -64l-130 -136h-104l-130 136l59 64l123 -84z" />
<glyph unicode="&#x159;" horiz-adv-x="370" d="M379 540l-28 -167q-21 6 -42 6q-40 0 -60 -28.5t-32 -84.5v-266h-174v533h152l13 -91q18 51 50 79t74 28q23 0 47 -9zM334 818l59 -65l-130 -145h-104l-130 145l59 65l123 -94z" />
<glyph unicode="&#x15a;" horiz-adv-x="528" d="M396 690q56 -23 100 -69l-79 -94q-64 56 -131 56q-36 0 -55 -16.5t-19 -45.5q0 -20 10 -33.5t34 -26t71 -30.5q65 -26 104.5 -54t60 -69.5t20.5 -102.5q0 -66 -31.5 -116.5t-90.5 -78.5t-140 -28q-153 0 -250 101l87 96q38 -32 74.5 -49t77.5 -17q42 0 63.5 21t21.5 56 t-22 56t-81 43q-107 41 -151 91t-44 126q0 62 31.5 109t86.5 72.5t123 25.5q73 0 129 -23zM344 963l64 -126l-226 -87l-44 85z" />
<glyph unicode="&#x15b;" horiz-adv-x="442" d="M330.5 533q48.5 -18 82.5 -49l-62 -94q-57 39 -111 39q-23 0 -35.5 -9.5t-12.5 -25.5q0 -13 7 -22t27.5 -19.5t63.5 -25.5q72 -26 106.5 -64t34.5 -103q0 -54 -28.5 -94.5t-80 -62t-116.5 -21.5q-63 0 -117.5 21.5t-92.5 59.5l81 91q63 -51 121 -51q27 0 41.5 11t14.5 31 q0 17 -7 27.5t-26.5 20.5t-60.5 24q-73 26 -106.5 65.5t-33.5 99.5q0 48 24.5 86.5t71.5 60.5t112 22q54 0 102.5 -18zM284 840l67 -125l-224 -96l-47 85z" />
<glyph unicode="&#x15c;" horiz-adv-x="528" d="M396 690q56 -23 100 -69l-79 -94q-64 56 -131 56q-36 0 -55 -16.5t-19 -45.5q0 -20 10 -33.5t34 -26t71 -30.5q65 -26 104.5 -54t60 -69.5t20.5 -102.5q0 -66 -31.5 -116.5t-90.5 -78.5t-140 -28q-153 0 -250 101l87 96q38 -32 74.5 -49t77.5 -17q42 0 63.5 21t21.5 56 t-22 56t-81 43q-107 41 -151 91t-44 126q0 62 31.5 109t86.5 72.5t123 25.5q73 0 129 -23zM151 757l-59 64l130 136h104l130 -136l-59 -64l-123 84z" />
<glyph unicode="&#x15d;" horiz-adv-x="442" d="M330.5 533q48.5 -18 82.5 -49l-62 -94q-57 39 -111 39q-23 0 -35.5 -9.5t-12.5 -25.5q0 -13 7 -22t27.5 -19.5t63.5 -25.5q72 -26 106.5 -64t34.5 -103q0 -54 -28.5 -94.5t-80 -62t-116.5 -21.5q-63 0 -117.5 21.5t-92.5 59.5l81 91q63 -51 121 -51q27 0 41.5 11t14.5 31 q0 17 -7 27.5t-26.5 20.5t-60.5 24q-73 26 -106.5 65.5t-33.5 99.5q0 48 24.5 86.5t71.5 60.5t112 22q54 0 102.5 -18zM101 620l-59 64l130 145h104l130 -145l-59 -64l-123 93z" />
<glyph unicode="&#x15e;" horiz-adv-x="528" d="M457.5 59q-54.5 -59 -151.5 -73v-35q98 -14 98 -100q0 -52 -39 -85t-107 -33q-33 0 -61.5 9t-49.5 23l38 75q30 -15 59 -15q39 0 39 28q0 17 -20 24.5t-64 7.5l11 99q-124 12 -210 99l87 96q38 -32 74.5 -49t77.5 -17q42 0 63.5 21t21.5 56t-22 56t-81 43 q-107 41 -151 91t-44 126q0 62 31.5 109t86.5 72.5t123 25.5q73 0 129 -23t100 -69l-79 -94q-64 56 -131 56q-36 0 -55 -16.5t-19 -45.5q0 -20 10 -33.5t34 -26t71 -30.5q65 -26 104.5 -54t60 -69.5t20.5 -102.5q0 -87 -54.5 -146z" />
<glyph unicode="&#x15f;" horiz-adv-x="442" d="M387.5 48q-43.5 -45 -117.5 -60v-37q98 -14 98 -100q0 -52 -39 -85t-107 -33q-33 0 -61.5 9t-49.5 23l38 75q30 -15 59 -15q39 0 39 28q0 17 -20 24.5t-64 7.5l11 98q-53 5 -99 26t-79 54l81 91q63 -51 121 -51q27 0 41.5 11t14.5 31q0 17 -7 27.5t-26.5 20.5t-60.5 24 q-73 26 -106.5 65.5t-33.5 99.5q0 48 24.5 86.5t71.5 60.5t112 22q54 0 102.5 -18t82.5 -49l-62 -94q-57 39 -111 39q-23 0 -35.5 -9.5t-12.5 -25.5q0 -13 7 -22t27.5 -19.5t63.5 -25.5q72 -26 106.5 -64t34.5 -103q0 -67 -43.5 -112z" />
<glyph unicode="&#x160;" horiz-adv-x="528" d="M396 690q56 -23 100 -69l-79 -94q-64 56 -131 56q-36 0 -55 -16.5t-19 -45.5q0 -20 10 -33.5t34 -26t71 -30.5q65 -26 104.5 -54t60 -69.5t20.5 -102.5q0 -66 -31.5 -116.5t-90.5 -78.5t-140 -28q-153 0 -250 101l87 96q38 -32 74.5 -49t77.5 -17q42 0 63.5 21t21.5 56 t-22 56t-81 43q-107 41 -151 91t-44 126q0 62 31.5 109t86.5 72.5t123 25.5q73 0 129 -23zM397 949l59 -64l-130 -136h-104l-130 136l59 64l123 -84z" />
<glyph unicode="&#x161;" horiz-adv-x="442" d="M330.5 533q48.5 -18 82.5 -49l-62 -94q-57 39 -111 39q-23 0 -35.5 -9.5t-12.5 -25.5q0 -13 7 -22t27.5 -19.5t63.5 -25.5q72 -26 106.5 -64t34.5 -103q0 -54 -28.5 -94.5t-80 -62t-116.5 -21.5q-63 0 -117.5 21.5t-92.5 59.5l81 91q63 -51 121 -51q27 0 41.5 11t14.5 31 q0 17 -7 27.5t-26.5 20.5t-60.5 24q-73 26 -106.5 65.5t-33.5 99.5q0 48 24.5 86.5t71.5 60.5t112 22q54 0 102.5 -18zM347 818l59 -65l-130 -145h-104l-130 145l59 65l123 -94z" />
<glyph unicode="&#x162;" horiz-adv-x="497" d="M412.5 -78.5q24.5 -26.5 24.5 -70.5q0 -52 -38.5 -85t-107.5 -33q-33 0 -62.5 9t-48.5 23l38 78q29 -18 56 -18q21 0 31.5 6.5t10.5 22.5t-20 23.5t-64 7.5l13 115h-87v558h-153v137h496l-19 -137h-143v-604q49 -6 73.5 -32.5z" />
<glyph unicode="&#x163;" horiz-adv-x="359" d="M358 -149q0 -52 -39 -85t-107 -33q-33 0 -61.5 9t-49.5 23l38 75q30 -15 59 -15q39 0 39 28q0 17 -20 24.5t-64 7.5l12 106q-54 16 -81 61.5t-27 115.5v245h-58v120h58v113l174 21v-134h108l-17 -120h-91v-243q0 -51 39 -51q21 0 46 13l56 -107q-44 -34 -112 -41v-33 q98 -14 98 -100z" />
<glyph unicode="&#x164;" horiz-adv-x="497" d="M501 695l-19 -137h-143v-558h-181v558h-153v137h496zM371 949l59 -64l-130 -136h-104l-130 136l59 64l123 -84z" />
<glyph unicode="&#x165;" horiz-adv-x="359" d="M394 786l-52 -223l-95 14l23 227zM316 132l56 -107q-28 -21 -65.5 -32t-75.5 -11q-88 0 -131 48.5t-43 137.5v245h-58v120h58v113l174 21v-134h108l-17 -120h-91v-243q0 -51 39 -51q21 0 46 13z" />
<glyph unicode="&#x166;" horiz-adv-x="497" d="M482 558h-143v-168h99v-98h-99v-292h-181v292h-100v98h100v168h-153v137h496z" />
<glyph unicode="&#x167;" horiz-adv-x="359" d="M372 25q-28 -21 -65.5 -32t-75.5 -11q-88 0 -131 48.5t-43 137.5v82h-52v112h52v51h-58v120h58v113l174 21v-134h108l-17 -120h-91v-51h91v-112h-91v-80q0 -51 39 -51q21 0 46 13z" />
<glyph unicode="&#x168;" horiz-adv-x="585" d="M551 218q0 -68 -28.5 -121t-86.5 -84t-143 -31q-127 0 -192.5 64t-65.5 172v477h181v-471q0 -57 18 -83.5t59 -26.5t59 27t18 83v471h181v-477zM310 765.5q-15 6.5 -32 18.5q-12 8 -20 12t-17 4q-15 0 -24.5 -9.5t-22.5 -31.5l-81 38q18 54 51 88.5t74 34.5q21 0 37 -7 t33 -19q2 -1 10 -6t14.5 -7.5t12.5 -2.5q14 0 24 9.5t22 31.5l81 -38q-18 -55 -50.5 -88.5t-75.5 -33.5q-21 0 -36 6.5z" />
<glyph unicode="&#x169;" horiz-adv-x="517" d="M474 0h-152l-7 59q-51 -77 -141 -77q-65 0 -100 43.5t-35 117.5v390h174v-376q0 -26 7.5 -37t23.5 -11q32 0 56 49v375h174v-533zM274 639.5q-15 6.5 -32 18.5q-12 8 -20 12t-17 4q-15 0 -24.5 -9.5t-22.5 -31.5l-81 38q18 54 51 88.5t74 34.5q21 0 37 -7t33 -19 q2 -1 10 -6t14.5 -7.5t12.5 -2.5q14 0 24 9.5t22 31.5l81 -38q-18 -55 -50.5 -88.5t-75.5 -33.5q-21 0 -36 6.5z" />
<glyph unicode="&#x16a;" horiz-adv-x="585" d="M551 218q0 -68 -28.5 -121t-86.5 -84t-143 -31q-127 0 -192.5 64t-65.5 172v477h181v-471q0 -57 18 -83.5t59 -26.5t59 27t18 83v471h181v-477zM437 779h-290v118h290v-118z" />
<glyph unicode="&#x16b;" horiz-adv-x="517" d="M474 0h-152l-7 59q-51 -77 -141 -77q-65 0 -100 43.5t-35 117.5v390h174v-376q0 -26 7.5 -37t23.5 -11q32 0 56 49v375h174v-533zM402 653h-290v118h290v-118z" />
<glyph unicode="&#x16c;" horiz-adv-x="585" d="M551 218q0 -68 -28.5 -121t-86.5 -84t-143 -31q-127 0 -192.5 64t-65.5 172v477h181v-471q0 -57 18 -83.5t59 -26.5t59 27t18 83v471h181v-477zM175 797.5q-42 48.5 -48 122.5l91 17q17 -69 74 -69q29 0 47.5 18.5t26.5 50.5l91 -17q-6 -74 -48 -122.5t-117 -48.5 t-117 48.5z" />
<glyph unicode="&#x16d;" horiz-adv-x="517" d="M474 0h-152l-7 59q-51 -77 -141 -77q-65 0 -100 43.5t-35 117.5v390h174v-376q0 -26 7.5 -37t23.5 -11q32 0 56 49v375h174v-533zM139.5 680q-41.5 50 -47.5 132l91 16q16 -80 74 -80t74 80l91 -16q-6 -82 -47.5 -132t-117.5 -50t-117.5 50z" />
<glyph unicode="&#x16e;" horiz-adv-x="585" d="M551 218q0 -68 -28.5 -121t-86.5 -84t-143 -31q-127 0 -192.5 64t-65.5 172v477h181v-471q0 -57 18 -83.5t59 -26.5t59 27t18 83v471h181v-477zM392 962q37 -39 37 -98q0 -60 -37 -99t-100 -39t-100 39t-37 99q0 59 37 98t100 39t100 -39zM255 864q0 -50 37 -50t37 50 t-37 50t-37 -50z" />
<glyph unicode="&#x16f;" horiz-adv-x="517" d="M474 0h-152l-7 59q-51 -77 -141 -77q-65 0 -100 43.5t-35 117.5v390h174v-376q0 -26 7.5 -37t23.5 -11q32 0 56 49v375h174v-533zM357 836q37 -39 37 -98q0 -60 -37 -99t-100 -39t-100 39t-37 99q0 59 37 98t100 39t100 -39zM220 738q0 -50 37 -50t37 50t-37 50t-37 -50z " />
<glyph unicode="&#x170;" horiz-adv-x="585" d="M551 218q0 -68 -28.5 -121t-86.5 -84t-143 -31q-127 0 -192.5 64t-65.5 172v477h181v-471q0 -57 18 -83.5t59 -26.5t59 27t18 83v471h181v-477zM250 992l109 -52l-109 -187l-85 35zM419 992l108 -56l-117 -187l-83 40z" />
<glyph unicode="&#x171;" horiz-adv-x="517" d="M474 0h-152l-7 59q-51 -77 -141 -77q-65 0 -100 43.5t-35 117.5v390h174v-376q0 -26 7.5 -37t23.5 -11q32 0 56 49v375h174v-533zM205 866l109 -52l-109 -187l-85 35zM374 866l108 -56l-117 -187l-83 40z" />
<glyph unicode="&#x172;" horiz-adv-x="585" d="M551 695v-477q0 -77 -37.5 -135t-109.5 -84q-101 -42 -101 -98q0 -22 12 -33.5t34 -11.5q27 0 55 7l-11 -104q-32 -8 -66 -8q-62 0 -102.5 32.5t-40.5 88.5q0 71 77 111q-111 8 -168.5 71t-57.5 164v477h181v-471q0 -57 18 -83.5t59 -26.5t59 27t18 83v471h181z" />
<glyph unicode="&#x173;" horiz-adv-x="517" d="M392 -48.5q-22 -24.5 -22 -50.5q0 -23 12.5 -34.5t34.5 -11.5t54 8l-10 -104q-32 -8 -66 -8q-64 0 -104.5 32t-40.5 88q0 78 76 129h-4l-7 59q-51 -77 -141 -77q-65 0 -100 43.5t-35 117.5v390h174v-376q0 -26 7.5 -37t23.5 -11q32 0 56 49v375h174v-533 q-60 -24 -82 -48.5z" />
<glyph unicode="&#x174;" horiz-adv-x="779" d="M774 695l-92 -695h-236l-58 520l-64 -520h-231l-89 695h176l47 -561l70 561h187l63 -561l58 561h169zM269 757l-59 64l130 136h104l130 -136l-59 -64l-123 84z" />
<glyph unicode="&#x175;" horiz-adv-x="697" d="M697 533l-95 -533h-201l-53 377l-51 -377h-199l-97 533h170l37 -401l64 401h161l57 -401l42 401h165zM226 620l-59 64l130 145h104l130 -145l-59 -64l-123 93z" />
<glyph unicode="&#x176;" horiz-adv-x="555" d="M568 695l-200 -436v-259h-181v258l-200 437h193l100 -298l101 298h187zM154 757l-59 64l130 136h104l130 -136l-59 -64l-123 84z" />
<glyph unicode="&#x177;" horiz-adv-x="484" d="M345 0q-59 -213 -295 -225l-18 119q69 9 103.5 32.5t54.5 73.5h-63l-137 533h179l68 -424l82 424h175zM119 620l-59 64l130 145h104l130 -145l-59 -64l-123 93z" />
<glyph unicode="&#x178;" horiz-adv-x="555" d="M568 695l-200 -436v-259h-181v258l-200 437h193l100 -298l101 298h187zM228 908q24 -24 24 -59q0 -36 -24 -60.5t-60 -24.5q-35 0 -59.5 24.5t-24.5 60.5q0 35 24.5 59t59.5 24q36 0 60 -24zM447 908q24 -24 24 -59q0 -36 -24 -60.5t-60 -24.5q-35 0 -59.5 24.5 t-24.5 60.5q0 35 24.5 59t59.5 24q36 0 60 -24z" />
<glyph unicode="&#x179;" horiz-adv-x="499" d="M478 695v-136l-262 -416h269l-17 -143h-458v134l265 422h-240v139h443zM321 963l64 -126l-226 -87l-44 85z" />
<glyph unicode="&#x17a;" horiz-adv-x="425" d="M410 533v-122l-207 -281h212l-14 -130h-394v122l208 282h-189v129h384zM278 840l67 -125l-224 -96l-47 85z" />
<glyph unicode="&#x17b;" horiz-adv-x="499" d="M478 695v-136l-262 -416h269l-17 -143h-458v134l265 422h-240v139h443zM321.5 916.5q27.5 -27.5 27.5 -68.5q0 -42 -27.5 -69t-70.5 -27t-70.5 27t-27.5 69q0 41 27.5 68.5t70.5 27.5t70.5 -27.5z" />
<glyph unicode="&#x17c;" horiz-adv-x="425" d="M410 533v-122l-207 -281h212l-14 -130h-394v122l208 282h-189v129h384zM288.5 790.5q27.5 -27.5 27.5 -68.5q0 -42 -27.5 -69t-70.5 -27t-70.5 27t-27.5 69q0 41 27.5 68.5t70.5 27.5t70.5 -27.5z" />
<glyph unicode="&#x17d;" horiz-adv-x="499" d="M478 695v-136l-262 -416h269l-17 -143h-458v134l265 422h-240v139h443zM374 949l59 -64l-130 -136h-104l-130 136l59 64l123 -84z" />
<glyph unicode="&#x17e;" horiz-adv-x="425" d="M410 533v-122l-207 -281h212l-14 -130h-394v122l208 282h-189v129h384zM341 818l59 -65l-130 -145h-104l-130 145l59 65l123 -94z" />
<glyph unicode="&#x17f;" horiz-adv-x="336" d="M408 727l-46 -110q-36 18 -70 18q-27 0 -39 -14t-12 -46v-575h-174v413h-66v120h66v41q0 85 51 136t149 51q75 0 141 -34z" />
<glyph unicode="&#x180;" horiz-adv-x="551" d="M482.5 478q44.5 -73 44.5 -212q0 -85 -23 -149t-66 -99.5t-103 -35.5q-39 0 -70.5 17t-52.5 49l-7 -48h-155v594h-48v98h48v51l174 18v-69h111v-98h-111v-110q21 31 55 49t73 18q86 0 130.5 -73zM332 142q17 35 17 124q0 94 -15 126.5t-44 32.5q-36 0 -66 -53v-224 q24 -41 59 -41q32 0 49 35z" />
<glyph unicode="&#x181;" horiz-adv-x="716" d="M661 315.5q40 -37.5 40 -111.5q0 -110 -76.5 -157t-210.5 -47h-216v567h-23q-37 0 -37 -39q0 -28 16 -65l-110 -47q-20 31 -31 61t-11 66q0 71 49 111.5t134 40.5h205q137 0 211 -43.5t74 -135.5q0 -60 -34 -97t-86 -51q66 -15 106 -52.5zM379 569v-149h32q44 0 62.5 19 t18.5 59q0 36 -20 53.5t-65 17.5h-28zM490.5 148.5q25.5 19.5 25.5 66.5q0 45 -23.5 66.5t-70.5 21.5h-43v-174h37q49 0 74.5 19.5z" />
<glyph unicode="&#x182;" horiz-adv-x="549" d="M472 395q66 -55 66 -163q0 -114 -68.5 -173t-188.5 -59h-236v695h417l-17 -136h-219v-109h55q125 0 191 -55zM329.5 154q20.5 25 20.5 76q0 48 -20.5 72.5t-67.5 24.5h-36v-198h39q44 0 64.5 25z" />
<glyph unicode="&#x183;" horiz-adv-x="545" d="M475.5 471.5q44.5 -72.5 44.5 -209.5q0 -83 -23 -146.5t-66.5 -98.5t-102.5 -35q-39 0 -70.5 17t-52.5 49l-7 -48h-155v743h367l-18 -123h-175v-143q21 31 55 49t71 18q88 0 132.5 -72.5zM325 141.5q17 34.5 17 120.5q0 92 -15 124t-43 32q-37 0 -67 -53v-217 q24 -41 59 -41q32 0 49 34.5z" />
<glyph unicode="&#x184;" horiz-adv-x="574" d="M498 406q66 -56 66 -168q0 -118 -68 -178t-189 -60h-236v483l-70 54q58 61 101 158h150v-233h55q125 0 191 -56zM355.5 155q20.5 26 20.5 81q0 51 -20.5 76.5t-68.5 25.5h-35v-209h40q43 0 63.5 26z" />
<glyph unicode="&#x185;" horiz-adv-x="499" d="M435 322q57 -46 57 -139q0 -92 -57.5 -137.5t-163.5 -45.5h-206v331l-71 54q59 62 102 148h143v-165h17q122 0 179 -46zM304 128.5q13 17.5 13 57.5q0 42 -13 59t-46 17h-19v-151h23q29 0 42 17.5z" />
<glyph unicode="&#x186;" horiz-adv-x="530" d="M369.5 672q64.5 -41 100 -122.5t35.5 -200.5q0 -180 -79 -273.5t-216 -93.5q-64 0 -117 26t-92 66l80 98q34 -26 60 -39t59 -13q57 0 87 53t30 176q0 126 -27.5 179t-81.5 53q-33 0 -59.5 -11.5t-54.5 -35.5l-86 100q43 39 94 59t117 20q86 0 150.5 -41z" />
<glyph unicode="&#x187;" horiz-adv-x="530" d="M666 820l-46 -105q-17 8 -30 12t-27 4q-22 0 -31.5 -12.5t-9.5 -40.5v-44l-78 -91q-28 18 -55 28t-58 10q-119 0 -119 -232q0 -230 121 -230q31 0 56.5 13.5t59.5 40.5l80 -99q-38 -41 -91.5 -66.5t-118.5 -25.5q-136 0 -215.5 93.5t-79.5 273.5q0 115 37 197.5 t99.5 124.5t136.5 42q44 0 77 -14q1 75 42.5 116.5t118.5 41.5q74 0 131 -37z" />
<glyph unicode="&#x188;" horiz-adv-x="437" d="M588 724l-46 -106q-31 16 -57 16q-22 0 -31.5 -12t-9.5 -40v-99l-67 -92q-44 29 -89 29q-43 0 -64 -35t-21 -122q0 -83 21.5 -115t61.5 -32q21 0 39 7.5t44 24.5l75 -102q-72 -64 -169 -64q-119 0 -186 74t-67 206q0 86 29.5 151.5t81 101.5t115.5 36q23 0 47 -6v53 q0 78 42 120.5t120 42.5q71 0 131 -37z" />
<glyph unicode="&#x189;" horiz-adv-x="615" d="M429 667.5q72 -27.5 117 -103.5t45 -214q0 -194 -87 -272t-234 -78h-208v300h-50v106h50v289h197q98 0 170 -27.5zM350.5 148.5q26.5 19.5 40.5 68t14 133.5t-14.5 132.5t-41 65.5t-67.5 18h-39v-160h97v-106h-97v-171h38q43 0 69.5 19.5z" />
<glyph unicode="&#x18a;" horiz-adv-x="751" d="M565 667.5q72 -27.5 117 -103.5t45 -214q0 -194 -87 -272t-234 -78h-208v567h-23q-37 0 -37 -39q0 -28 16 -65l-110 -47q-20 31 -31 61t-11 66q0 71 49 111.5t134 40.5h210q98 0 170 -27.5zM486.5 148.5q26.5 19.5 40.5 68t14 133.5t-14.5 132.5t-41 65.5t-67.5 18h-39 v-437h38q43 0 69.5 19.5z" />
<glyph unicode="&#x18b;" horiz-adv-x="549" d="M505 0h-234q-124 0 -192 56t-68 170q0 108 67 166t193 58h53v109h-230v136h411v-695zM324 129v198h-34q-49 0 -70 -25t-21 -76q0 -50 21 -73.5t66 -23.5h38z" />
<glyph unicode="&#x18c;" horiz-adv-x="547" d="M504 0h-155l-6 57q-52 -75 -135 -75q-91 0 -137.5 73.5t-46.5 204.5q0 80 25 142.5t70.5 97.5t105.5 35q62 0 105 -46v131h-184v123h358v-743zM330 156v217q-14 18 -27 27t-29 9q-33 0 -52 -35.5t-19 -114.5q0 -87 16.5 -119.5t47.5 -32.5q35 0 63 49z" />
<glyph unicode="&#x18d;" horiz-adv-x="529" d="M368 76q54 -32 72.5 -64.5t18.5 -77.5q0 -69 -52.5 -114t-157.5 -45q-55 0 -102 17.5t-78 44.5l74 88q24 -16 46 -23.5t48 -7.5q29 0 43.5 11.5t14.5 31.5q0 16 -5.5 26t-22.5 21t-53 28q-70 33 -111.5 68.5t-61 84t-19.5 119.5q0 127 65.5 197t177.5 70q114 0 178 -66 t64 -191q0 -148 -139 -218zM207 206q6 -26 23 -45.5t52 -39.5q30 32 39 70.5t9 103.5q0 71 -15.5 100.5t-48.5 29.5q-35 0 -50 -32.5t-15 -115.5q0 -45 6 -71z" />
<glyph unicode="&#x18e;" horiz-adv-x="472" d="M28 695h399v-695h-403v129h222v161h-183v125h183v152h-218v128z" />
<glyph unicode="&#x18f;" horiz-adv-x="580" d="M485 623.5q71 -89.5 71 -272.5q0 -184 -71.5 -276.5t-202.5 -92.5q-268 0 -268 357q0 30 6 70h354q-2 93 -30 133.5t-83 40.5q-41 0 -71 -14t-62 -39l-79 93q49 46 104.5 68t125.5 22q135 0 206 -89.5zM349 150.5q22 38.5 25 137.5h-187q1 -98 24.5 -137t70.5 -39 q45 0 67 38.5z" />
<glyph unicode="&#x190;" horiz-adv-x="497" d="M386 690q53 -23 98 -70l-83 -88q-57 52 -110 52q-39 0 -56.5 -20.5t-17.5 -54.5q0 -80 85 -80h68l-21 -127h-48q-49 0 -73.5 -25t-24.5 -70q0 -47 23.5 -70.5t65.5 -23.5q33 0 60.5 13.5t58.5 43.5l94 -90q-85 -98 -233 -98q-75 0 -133.5 25.5t-91.5 73.5t-33 113 q0 77 43 120.5t124 52.5q-76 17 -112 59t-36 103q0 53 30 95t83 65.5t121 23.5q66 0 119 -23z" />
<glyph unicode="&#x191;" horiz-adv-x="441" d="M226 567v-171h171v-128h-171v-300q0 -95 -55 -143.5t-148 -48.5q-86 0 -142 44l58 103q18 -9 30.5 -13t29.5 -4q45 0 45 51v44h1v694h394l-18 -128h-195z" />
<glyph unicode="&#x192;" horiz-adv-x="352" d="M255.5 621q-12.5 -14 -12.5 -46v-42h112l-19 -120h-93v-346q0 -85 -28 -141.5t-74 -90.5t-113 -59l-59 127q35 18 55.5 35t32.5 45.5t12 72.5v357h-67v120h67v41q0 85 51.5 136t150.5 51q83 0 153 -34l-45 -110q-43 18 -79 18q-32 0 -44.5 -14z" />
<glyph unicode="&#x193;" horiz-adv-x="566" d="M703 820l-46 -105q-17 8 -30 12t-27 4q-22 0 -31.5 -12.5t-9.5 -40.5v-53l-81 -84q-35 22 -65 32.5t-65 10.5q-68 0 -102.5 -54.5t-34.5 -182.5q0 -92 11 -143t34 -71.5t62 -20.5q37 0 70 19v147h-68l-17 125h256v-346q-50 -35 -113 -55t-125 -20q-152 0 -224.5 90.5 t-72.5 275.5q0 118 40 200.5t107.5 123.5t148.5 41q48 0 90 -17q0 77 42 119t120 42q74 0 131 -37z" />
<glyph unicode="&#x194;" horiz-adv-x="529" d="M357 98q32 -56 47 -101t15 -91q0 -130 -151 -130q-77 0 -114 34.5t-37 95.5q0 41 14.5 84t48.5 108l-197 597h186l98 -483l98 483h181zM286.5 -46q-5.5 19 -18.5 52q-25 -60 -25 -90t25 -30q24 0 24 31q0 18 -5.5 37z" />
<glyph unicode="&#x195;" horiz-adv-x="783" d="M748 389q7 -66 7 -139q0 -140 -71 -204t-175 -64q-89 0 -144.5 48.5t-55.5 143.5v199q0 26 -7.5 37t-21.5 11q-29 0 -63 -56v-365h-174v743l174 18v-281q29 37 61 54t73 17q62 0 97 -41t35 -114v-226q0 -34 9.5 -48t29.5 -14q27 0 43 34.5t16 117.5q0 110 -23 273h170 q13 -78 20 -144z" />
<glyph unicode="&#x196;" horiz-adv-x="368" d="M379 26q-56 -44 -142 -44q-93 0 -148 48.5t-55 143.5v33h1v488h181v-532q0 -51 45 -51q17 0 29.5 4t30.5 13z" />
<glyph unicode="&#x197;" horiz-adv-x="309" d="M306 426v-132h-61v-294h-181v294h-62v132h62v269h181v-269h61z" />
<glyph unicode="&#x198;" horiz-adv-x="607" d="M231 370l101 207q36 74 73.5 105t103.5 31q63 0 114 -36l-44 -101q-20 10 -38 10t-29.5 -9.5t-24.5 -36.5l-77 -156l201 -384h-201zM226 695v-695h-181v695h181z" />
<glyph unicode="&#x199;" horiz-adv-x="522" d="M229.5 619.5q-12.5 -14.5 -12.5 -47.5v-572h-174v578q0 80 52 131.5t149 51.5q39 0 75.5 -9.5t64.5 -25.5l-47 -109q-34 17 -68 17q-27 0 -39.5 -14.5zM392 299l140 -299h-187l-124 291l134 242h169z" />
<glyph unicode="&#x19a;" horiz-adv-x="317" d="M314 0q-40 -18 -96 -18q-72 0 -111 41t-39 114v174h-66v121h66v311l174 18v-329h64v-121h-64v-167q0 -25 22 -25q12 0 19 3z" />
<glyph unicode="&#x19b;" horiz-adv-x="496" d="M442.5 195q27.5 -89 72.5 -159l-167 -54q-38 77 -59.5 160t-41.5 223l-72 -383l-172 36l142 474h81q-9 42 -21 71l-52 -48l-84 58l66 61q-29 12 -80 22l19 104q104 -16 161 -50l69 59l65 -76l-60 -51q47 -65 70 -180q36 -178 63.5 -267z" />
<glyph unicode="&#x19c;" horiz-adv-x="821" d="M776 695v-695h-159l-12 58q-32 -40 -65 -58t-75 -18q-45 0 -78.5 23t-52.5 64q-35 -46 -69.5 -66.5t-79.5 -20.5q-70 0 -110 51t-40 130v532h181v-523q0 -28 9.5 -42.5t27.5 -14.5q16 0 30.5 13.5t31.5 40.5v526h181v-523q0 -27 9.5 -42t26.5 -15q18 0 32.5 13t30.5 42 v525h181z" />
<glyph unicode="&#x19d;" horiz-adv-x="594" d="M550 695v-695h-224l-148 530q12 -89 17.5 -148t5.5 -143v-271q0 -93 -50 -142.5t-134 -49.5q-82 0 -137 44l57 96q18 -10 30.5 -14t30.5 -4q47 0 47 56v741h221l151 -532q-11 73 -17.5 134.5t-6.5 139.5v258h157z" />
<glyph unicode="&#x19e;" horiz-adv-x="522" d="M448 510q35 -41 35 -114v-620l-174 18v579q0 26 -7.5 37t-21.5 11q-29 0 -63 -56v-365h-174v533h152l12 -59q31 39 65.5 58t78.5 19q62 0 97 -41z" />
<glyph unicode="&#x19f;" horiz-adv-x="631" d="M531.5 620q75.5 -93 75.5 -272q0 -177 -76 -271.5t-216 -94.5t-215.5 93.5t-75.5 272.5q0 176 75.5 270.5t215.5 94.5q141 0 216.5 -93zM238 540.5q-26 -42.5 -31 -140.5h217q-5 98 -31.5 140.5t-77.5 42.5t-77 -42.5zM394.5 155q25.5 43 29.5 147h-217q4 -103 30 -146.5 t78 -43.5q54 0 79.5 43z" />
<glyph unicode="&#x1a0;" horiz-adv-x="666" d="M644 598.5q-26 -31.5 -74 -41.5q37 -86 37 -209q0 -177 -76 -271.5t-216 -94.5t-215.5 93.5t-75.5 272.5q0 176 75.5 270.5t215.5 94.5q131 0 205 -79q21 3 29.5 15.5t8.5 37.5q0 22 -3 36t-9 35l107 15q17 -40 17 -90q0 -53 -26 -84.5zM375.5 134.5q22.5 22.5 33 74 t10.5 139.5q0 128 -24.5 181.5t-79.5 53.5q-54 0 -78.5 -53.5t-24.5 -181.5q0 -129 24.5 -182.5t78.5 -53.5q38 0 60.5 22.5z" />
<glyph unicode="&#x1a1;" horiz-adv-x="585" d="M572 435q-27 -32 -76 -42q18 -54 18 -127q0 -134 -65.5 -209t-180.5 -75q-116 0 -181 72.5t-65 212.5q0 134 65.5 209t180.5 75q122 0 186 -79q18 4 25.5 16.5t7.5 35.5q0 22 -2.5 37t-8.5 34l106 15q17 -40 17 -90q0 -53 -27 -85zM319 144q16 36 16 122q0 87 -16 122.5 t-51 35.5t-51 -36t-16 -121q0 -88 15.5 -123.5t51.5 -35.5q35 0 51 36z" />
<glyph unicode="&#x1a2;" horiz-adv-x="884" d="M785 662.5q55 -50.5 55 -143.5v-731h-181v740q0 60 -47 60q-27 0 -53 -12q48 -90 48 -228q0 -177 -76 -271.5t-216 -94.5t-215.5 93.5t-75.5 272.5q0 176 75.5 270.5t215.5 94.5q99 0 169 -49q70 49 155 49q91 0 146 -50.5zM375.5 134.5q22.5 22.5 33 74t10.5 139.5 q0 128 -24.5 181.5t-79.5 53.5q-54 0 -78.5 -53.5t-24.5 -181.5q0 -129 24.5 -182.5t78.5 -53.5q38 0 60.5 22.5z" />
<glyph unicode="&#x1a3;" horiz-adv-x="766" d="M672 502q51 -49 51 -145v-581l-174 18v580q0 28 -10 40t-32 12q-15 0 -28 -4q30 -66 30 -156q0 -134 -65 -209t-178 -75q-114 0 -179 72.5t-65 212.5q0 134 65.5 209t178.5 75q76 0 132 -35q31 18 62.5 26.5t72.5 8.5q88 0 139 -49zM315.5 144q15.5 36 15.5 122 q0 87 -15.5 122.5t-49.5 35.5t-49.5 -36t-15.5 -121q0 -88 15.5 -123.5t49.5 -35.5t49.5 36z" />
<glyph unicode="&#x1a4;" horiz-adv-x="704" d="M618 636.5q73 -58.5 73 -171.5q0 -117 -70 -178.5t-192 -61.5h-50v-225h-181v567h-23q-37 0 -37 -39q0 -28 16 -65l-110 -47q-20 31 -31 61t-11 66q0 71 49 111.5t134 40.5h224q136 0 209 -58.5zM483.5 380q22.5 26 22.5 85q0 52 -22 77.5t-72 25.5h-33v-214h33 q49 0 71.5 26z" />
<glyph unicode="&#x1a5;" horiz-adv-x="545" d="M475 477.5q45 -73.5 45 -209.5q0 -85 -23.5 -150t-67 -100.5t-100.5 -35.5q-67 0 -112 53v-241l-174 -18v802q0 80 52 131.5t149 51.5q39 0 75.5 -9.5t64.5 -25.5l-47 -109q-34 17 -68 17q-27 0 -39.5 -14.5t-12.5 -47.5v-81q49 60 124 60q89 0 134 -73.5zM342 266 q0 64 -7.5 99t-20.5 47.5t-33 12.5q-36 0 -64 -52v-227q25 -38 58 -38q67 0 67 158z" />
<glyph unicode="&#x1a6;" horiz-adv-x="570" d="M268 145h-42v-145h-181v695h181v-114h40q140 0 208.5 -53.5t68.5 -161.5q0 -131 -113 -187l154 -292h-196zM226 268h45q46 0 66.5 23.5t20.5 74.5q0 46 -23 68t-71 22h-38v-188z" />
<glyph unicode="&#x1a7;" horiz-adv-x="519" d="M393.5 688q53.5 -25 83 -71t29.5 -107q0 -76 -46 -125.5t-153 -86.5q-60 -20 -82 -44.5t-22 -62.5q0 -36 21 -55.5t60 -19.5q38 0 74 16.5t72 47.5l88 -97q-45 -46 -107 -73.5t-143 -27.5q-76 0 -133.5 27.5t-88 77.5t-30.5 116q0 85 43.5 134t141.5 85q68 24 93 45.5 t25 55.5q0 29 -17 44.5t-50 15.5q-73 0 -136 -54l-81 92q97 92 234 92q71 0 124.5 -25z" />
<glyph unicode="&#x1a8;" horiz-adv-x="434" d="M329 529q45 -22 68.5 -60t23.5 -85q0 -64 -35.5 -100.5t-108.5 -61.5q-39 -13 -58 -23.5t-25 -21.5t-6 -28q0 -23 14 -34.5t39 -11.5q56 0 115 49l82 -89q-37 -37 -92.5 -59t-118.5 -22q-97 0 -156.5 47.5t-59.5 126.5q0 66 36 103.5t109 61.5q41 13 61 23.5t26.5 21.5 t6.5 27q0 37 -47 37q-53 0 -111 -38l-62 92q85 67 194 67q60 0 105 -22z" />
<glyph unicode="&#x1a9;" horiz-adv-x="453" d="M443 695v-130h-244l145 -190v-67l-149 -176h248v-132h-433v129l171 211l-171 226v129h433z" />
<glyph unicode="&#x1aa;" horiz-adv-x="411" d="M533 -180q-58 -44 -142 -44q-90 0 -143.5 48.5t-53.5 140.5v450q-25 -11 -56 -11q-72 0 -115 48t-43 129t50 130.5t138 49.5q62 0 107.5 -24t69 -66t23.5 -95v-624q0 -26 12.5 -38.5t34.5 -12.5q17 0 30 4t31 13zM194 526v66q0 27 -8 38.5t-25 11.5q-36 0 -36 -58 q0 -33 10.5 -47.5t32.5 -14.5q15 0 26 4z" />
<glyph unicode="&#x1ab;" horiz-adv-x="359" d="M372 25v-60q0 -93 -52 -140.5t-142 -47.5q-87 0 -145 43l58 99q19 -10 36 -15t38 -5q59 0 59 58v25q-84 1 -125.5 49.5t-41.5 136.5v245h-58v120h58v113l174 21v-134h108l-17 -120h-91v-253q0 -50 43 -50q21 0 49 9z" />
<glyph unicode="&#x1ac;" horiz-adv-x="556" d="M541 558h-143v-558h-181v558h-38q-42 0 -42 -39q0 -14 3.5 -26t10.5 -28l-114 -49q-35 60 -35 123q0 73 51.5 114.5t139.5 41.5h367z" />
<glyph unicode="&#x1ad;" horiz-adv-x="359" d="M372 25q-28 -21 -65.5 -32t-75.5 -11q-88 0 -131 48.5t-43 137.5v245h-58v120h58v48q0 79 48 129.5t137 50.5q72 0 129 -37l-46 -98q-17 9 -29.5 12.5t-26.5 3.5q-38 0 -38 -49v-60h108l-17 -120h-91v-243q0 -51 39 -51q21 0 46 13z" />
<glyph unicode="&#x1ae;" horiz-adv-x="503" d="M502 -180q-56 -44 -142 -44q-93 0 -148 48.5t-55 143.5v33h1v557h-153v137h496l-19 -137h-143v-601q0 -51 45 -51q17 0 29.5 4t30.5 13z" />
<glyph unicode="&#x1af;" horiz-adv-x="682" d="M657.5 586q-38.5 -33 -106.5 -34v-334q0 -68 -28.5 -121t-86.5 -84t-143 -31q-127 0 -192.5 64t-65.5 172v477h181v-471q0 -57 18 -83.5t59 -26.5t59 27t18 83v471h181v-60q18 4 25.5 16t7.5 36q0 22 -3 36t-9 35l107 15q17 -40 17 -90q0 -64 -38.5 -97z" />
<glyph unicode="&#x1b0;" horiz-adv-x="604" d="M620 519q0 -64 -39 -97t-107 -34v-388h-152l-7 59q-51 -77 -141 -77q-65 0 -100 43.5t-35 117.5v390h174v-376q0 -26 7.5 -37t23.5 -11q32 0 56 49v375h174v-62q18 4 26 16t8 36q0 22 -2.5 37t-8.5 34l106 15q17 -40 17 -90z" />
<glyph unicode="&#x1b1;" horiz-adv-x="621" d="M153 21.5q-66 39.5 -100 111t-34 165.5q0 97 31 162t89 107h-101v128h228v-120q-31 -51 -45 -111t-14 -166q0 -98 24.5 -142t78.5 -44t79 44t25 142q0 106 -14 166.5t-45 110.5v120h228v-128h-101q58 -41 89 -106t31 -163q0 -93 -34.5 -164.5t-100 -111.5t-157.5 -40 q-91 0 -157 39.5z" />
<glyph unicode="&#x1b2;" horiz-adv-x="585" d="M511 671.5q40 -41.5 40 -123.5v-271q0 -92 -34.5 -158.5t-97.5 -101.5t-146 -35q-73 0 -127 28.5t-82.5 78.5t-28.5 114v492h181v-497q0 -40 16 -62t47 -22q41 0 66 38t25 116v285q0 31 -24 31q-6 0 -20 -4l-24 116q43 17 95 17q74 0 114 -41.5z" />
<glyph unicode="&#x1b3;" horiz-adv-x="590" d="M187 258l-200 437h193l100 -297l51 163q24 82 62.5 117t107.5 35q65 0 118 -35l-45 -103q-22 12 -44 12q-20 0 -32 -11t-23 -40l-107 -277v-259h-181v258z" />
<glyph unicode="&#x1b4;" horiz-adv-x="490" d="M32 -106q69 9 103.5 32.5t54.5 73.5h-63l-137 533h179l68 -424l57 331q12 77 45 112t99 35q45 0 82 -14l-26 -113q-10 5 -23 5q-27 0 -34 -33l-86 -418q-23 -114 -100.5 -173.5t-200.5 -65.5z" />
<glyph unicode="&#x1b5;" horiz-adv-x="499" d="M199 143h286l-17 -143h-458v126l108 164h-71v111h143l102 155h-257v139h443v-128l-109 -166h68v-111h-141z" />
<glyph unicode="&#x1b6;" horiz-adv-x="425" d="M189 122h226l-14 -122h-394v114l81 109h-57v99h130l67 90h-202v121h384v-114l-72 -97h52v-99h-126z" />
<glyph unicode="&#x1b7;" horiz-adv-x="505" d="M442 347q49 -51 49 -140q0 -64 -31 -115t-90 -80.5t-141 -29.5q-78 0 -133.5 27t-95.5 78l92 85q32 -31 59.5 -44.5t63.5 -13.5q43 0 66.5 26t23.5 75q0 46 -25.5 67t-75.5 21h-90v98l152 165h-226v129h414v-125l-154 -166q93 -6 142 -57z" />
<glyph unicode="&#x1b8;" horiz-adv-x="505" d="M505 87q-41 -51 -97.5 -78t-134.5 -27q-81 0 -139.5 29t-89.5 79.5t-31 114.5q0 87 50.5 139.5t142.5 59.5l-155 166v125h414v-129h-225l151 -166v-97h-90q-101 0 -101 -94q0 -46 22.5 -70.5t63.5 -24.5q37 0 66 13.5t61 44.5z" />
<glyph unicode="&#x1b9;" horiz-adv-x="472" d="M490 -119q-80 -105 -227 -105q-78 0 -135.5 30t-87.5 82.5t-30 118.5q0 94 49.5 146t140.5 60l-157 202v118h407v-128h-220l146 -193v-96h-85q-51 0 -77 -24.5t-26 -77.5q0 -54 23.5 -80.5t65.5 -26.5q34 0 61.5 13.5t61.5 45.5z" />
<glyph unicode="&#x1ba;" horiz-adv-x="476" d="M66.5 -162.5q-42.5 39.5 -42.5 93.5q0 55 37.5 87t116.5 50q60 14 82 28.5t22 43.5q0 24 -16.5 34.5t-55.5 10.5h-109v90l134 137h-217v121h407v-111l-146 -140h14q77 0 121 -39.5t44 -108.5q0 -76 -47.5 -115t-130.5 -58q-43 -10 -63.5 -17t-28 -14.5t-7.5 -18.5 q0 -22 36 -41l-36 -94q-72 22 -114.5 61.5z" />
<glyph unicode="&#x1bb;" horiz-adv-x="476" d="M452 132l-18 -132h-417v122q52 55 104 115h-72v111h161q29 42 40.5 73.5t11.5 64.5q0 36 -17.5 55.5t-49.5 19.5q-29 0 -52 -15.5t-52 -50.5l-99 77q39 57 95 89t128 32t122.5 -26t76 -69.5t25.5 -96.5q0 -40 -10 -75.5t-35 -77.5h50v-111h-136q-47 -52 -100 -105h244z " />
<glyph unicode="&#x1bc;" horiz-adv-x="506" d="M430 572h-219v-138q47 25 93 25q50 0 90.5 -26t63.5 -77.5t23 -124.5q0 -75 -31.5 -131.5t-89.5 -87t-137 -30.5q-135 0 -217 106l95 85q25 -30 52.5 -46t61.5 -16q90 0 90 118q0 62 -19 87t-55 25q-18 0 -34 -5.5t-36 -18.5h-114v378h402z" />
<glyph unicode="&#x1bd;" horiz-adv-x="447" d="M373 409h-173v-74q29 13 72 13q42 0 77 -19.5t56.5 -58t21.5 -94.5q0 -89 -61.5 -141.5t-160.5 -52.5q-64 0 -110 21.5t-84 61.5l86 89q30 -24 51.5 -34t48.5 -10q59 0 59 66q0 59 -44 59q-24 0 -50 -13h-110v311h344z" />
<glyph unicode="&#x1be;" horiz-adv-x="467" d="M412.5 359q32.5 -49 32.5 -135q0 -115 -64.5 -178.5t-172.5 -63.5q-64 0 -116.5 23.5t-97.5 70.5l84 83q27 -26 51.5 -38t53.5 -12q39 0 62 28.5t23 87.5q0 66 -25 101t-83 51l-42 11v138h-62v97h62v120l174 18v-138h79v-97h-79v-88l26 -8q62 -22 94.5 -71z" />
<glyph unicode="&#x1bf;" horiz-adv-x="542" d="M439 527q38 -24 59.5 -69t21.5 -106q0 -87 -31 -148t-82.5 -103t-133.5 -86l-56 -29v-192l-174 -18v757h155l6 -58q63 76 149 76q48 0 86 -24zM342 349q0 79 -50 79q-21 0 -39 -10t-36 -30v-279l26 21q99 85 99 219z" />
<glyph unicode="&#x1c0;" horiz-adv-x="237" d="M192 758v-758h-147v743z" />
<glyph unicode="&#x1c1;" horiz-adv-x="438" d="M192 758v-758h-147v743zM393 758v-758h-147v743z" />
<glyph unicode="&#x1c2;" horiz-adv-x="309" d="M306 394h-78v-54h78v-96h-78v-244h-147v244h-79v96h79v54h-79v96h79v253l147 15v-268h78v-96z" />
<glyph unicode="&#x1c3;" horiz-adv-x="277" d="M213 758v-517h-148v502zM205 143.5q27 -28.5 27 -66.5q0 -40 -26.5 -67.5t-67.5 -27.5q-40 0 -66.5 27.5t-26.5 67.5q0 38 26.5 66.5t66.5 28.5t67 -28.5z" />
<glyph unicode="&#x1c4;" horiz-adv-x="1072" d="M412 667.5q72 -27.5 117 -103.5t45 -214q0 -194 -87 -272t-234 -78h-208v695h197q98 0 170 -27.5zM226 566v-437h38q43 0 69.5 19.5t40.5 68t14 133.5t-14.5 132.5t-41 65.5t-67.5 18h-39zM1051 695v-136l-262 -416h269l-17 -143h-458v134l265 422h-240v139h443zM947 949 l59 -64l-130 -136h-104l-130 136l59 64l123 -84z" />
<glyph unicode="&#x1c5;" horiz-adv-x="1013" d="M412 667.5q72 -27.5 117 -103.5t45 -214q0 -194 -87 -272t-234 -78h-208v695h197q98 0 170 -27.5zM226 566v-437h38q43 0 69.5 19.5t40.5 68t14 133.5t-14.5 132.5t-41 65.5t-67.5 18h-39zM998 533v-122l-207 -281h212l-14 -130h-394v122l208 282h-189v129h384zM929 818 l59 -65l-130 -145h-104l-130 145l59 65l123 -94z" />
<glyph unicode="&#x1c6;" horiz-adv-x="972" d="M504 743v-743h-155l-6 57q-52 -75 -136 -75q-90 0 -136.5 75t-46.5 211q0 84 25 148.5t70 99.5t104 35q66 0 107 -46v256zM330 156v233q-14 18 -27 27t-29 9q-71 0 -71 -158q0 -93 16.5 -126.5t46.5 -33.5q36 0 64 49zM957 533v-122l-207 -281h212l-14 -130h-394v122 l208 282h-189v129h384zM888 818l59 -65l-130 -145h-104l-130 145l59 65l123 -94z" />
<glyph unicode="&#x1c7;" horiz-adv-x="740" d="M226 695v-554h237l-19 -141h-399v695h181zM698 108q0 -86 -31 -142t-78.5 -88t-112.5 -55l-48 127q39 17 58 38.5t25 50t6 75.5v581h181v-587z" />
<glyph unicode="&#x1c8;" horiz-adv-x="715" d="M226 695v-554h237l-19 -141h-399v695h181zM672 56q0 -116 -56.5 -178.5t-158.5 -101.5l-60 127q35 18 56 35t33 43.5t12 68.5v483h174v-477zM655.5 790.5q27.5 -27.5 27.5 -68.5q0 -42 -27.5 -69t-70.5 -27t-70.5 27t-27.5 69q0 41 27.5 68.5t70.5 27.5t70.5 -27.5z" />
<glyph unicode="&#x1c9;" horiz-adv-x="536" d="M77 23q-39 41 -39 114v606l174 18v-617q0 -25 22 -25q12 0 19 3l31 -122q-40 -18 -96 -18q-72 0 -111 41zM493 56q0 -116 -56.5 -178.5t-158.5 -101.5l-60 127q35 18 56 35t33 43.5t12 68.5v483h174v-477zM476.5 790.5q27.5 -27.5 27.5 -68.5q0 -42 -27.5 -69t-70.5 -27 t-70.5 27t-27.5 69q0 41 27.5 68.5t70.5 27.5t70.5 -27.5z" />
<glyph unicode="&#x1ca;" horiz-adv-x="888" d="M550 0h-224l-148 530q12 -89 17.5 -148t5.5 -143v-239h-156v695h221l151 -532q-11 73 -17.5 134.5t-6.5 139.5v258h157v-695zM846 108q0 -86 -31 -142t-78.5 -88t-112.5 -55l-48 127q39 17 58 38.5t25 50t6 75.5v581h181v-587z" />
<glyph unicode="&#x1cb;" horiz-adv-x="854" d="M550 0h-224l-148 530q12 -89 17.5 -148t5.5 -143v-239h-156v695h221l151 -532q-11 73 -17.5 134.5t-6.5 139.5v258h157v-695zM811 56q0 -116 -56.5 -178.5t-158.5 -101.5l-60 127q35 18 56 35t33 43.5t12 68.5v483h174v-477zM794.5 790.5q27.5 -27.5 27.5 -68.5 q0 -42 -27.5 -69t-70.5 -27t-70.5 27t-27.5 69q0 41 27.5 68.5t70.5 27.5t70.5 -27.5z" />
<glyph unicode="&#x1cc;" horiz-adv-x="782" d="M448 510q35 -41 35 -114v-396h-174v373q0 26 -7.5 37t-21.5 11q-29 0 -63 -56v-365h-174v533h152l12 -59q31 39 65.5 58t78.5 19q62 0 97 -41zM739 56q0 -116 -56.5 -178.5t-158.5 -101.5l-60 127q35 18 56 35t33 43.5t12 68.5v483h174v-477zM722.5 790.5 q27.5 -27.5 27.5 -68.5q0 -42 -27.5 -69t-70.5 -27t-70.5 27t-27.5 69q0 41 27.5 68.5t70.5 27.5t70.5 -27.5z" />
<glyph unicode="&#x1cd;" horiz-adv-x="549" d="M379 0l-27 144h-158l-27 -144h-184l184 695h216l183 -695h-187zM218 272h110l-55 293zM398 949l59 -64l-130 -136h-104l-130 136l59 64l123 -84z" />
<glyph unicode="&#x1ce;" horiz-adv-x="499" d="M459 117q6 -12 23 -19l-35 -113q-49 4 -79.5 20.5t-48.5 53.5q-50 -77 -145 -77q-72 0 -115 46t-43 121q0 88 59.5 134.5t172.5 46.5h35v20q0 45 -15 61t-56 16q-48 0 -124 -27l-38 110q44 20 95.5 30.5t97.5 10.5q108 0 159 -46.5t51 -144.5v-204q0 -27 6 -39z M259.5 115q14.5 11 23.5 29v93h-20q-40 0 -58.5 -17.5t-18.5 -54.5q0 -29 11 -45t31 -16q17 0 31.5 11zM372 818l59 -65l-130 -145h-104l-130 145l59 65l123 -94z" />
<glyph unicode="&#x1cf;" horiz-adv-x="270" d="M226 695v-695h-181v695h181zM258 949l59 -64l-130 -136h-104l-130 136l59 64l123 -84z" />
<glyph unicode="&#x1d0;" horiz-adv-x="260" d="M217 533v-533h-174v533h174zM253 818l59 -65l-130 -145h-104l-130 145l59 65l123 -94z" />
<glyph unicode="&#x1d1;" horiz-adv-x="631" d="M531.5 620q75.5 -93 75.5 -272q0 -177 -76 -271.5t-216 -94.5t-215.5 93.5t-75.5 272.5q0 176 75.5 270.5t215.5 94.5q141 0 216.5 -93zM236.5 529.5q-24.5 -53.5 -24.5 -181.5q0 -129 24.5 -182.5t78.5 -53.5q38 0 60.5 22.5t33 74t10.5 139.5q0 128 -24.5 181.5 t-79.5 53.5q-54 0 -78.5 -53.5zM438 949l59 -64l-130 -136h-104l-130 136l59 64l123 -84z" />
<glyph unicode="&#x1d2;" horiz-adv-x="536" d="M448.5 478.5q65.5 -72.5 65.5 -212.5q0 -134 -65.5 -209t-180.5 -75q-116 0 -181 72.5t-65 212.5q0 134 65.5 209t180.5 75t180.5 -72.5zM217 388q-16 -36 -16 -121q0 -88 15.5 -123.5t51.5 -35.5q35 0 51 36t16 122q0 87 -16 122.5t-51 35.5t-51 -36zM391 818l59 -65 l-130 -145h-104l-130 145l59 65l123 -94z" />
<glyph unicode="&#x1d3;" horiz-adv-x="585" d="M551 218q0 -68 -28.5 -121t-86.5 -84t-143 -31q-127 0 -192.5 64t-65.5 172v477h181v-471q0 -57 18 -83.5t59 -26.5t59 27t18 83v471h181v-477zM415 949l59 -64l-130 -136h-104l-130 136l59 64l123 -84z" />
<glyph unicode="&#x1d4;" horiz-adv-x="517" d="M474 0h-152l-7 59q-51 -77 -141 -77q-65 0 -100 43.5t-35 117.5v390h174v-376q0 -26 7.5 -37t23.5 -11q32 0 56 49v375h174v-533zM380 818l59 -65l-130 -145h-104l-130 145l59 65l123 -94z" />
<glyph unicode="&#x1d5;" horiz-adv-x="585" d="M551 218q0 -68 -28.5 -121t-86.5 -84t-143 -31q-127 0 -192.5 64t-65.5 172v477h181v-471q0 -57 18 -83.5t59 -26.5t59 27t18 83v471h181v-477zM242 889q24 -24 24 -59q0 -36 -24 -60.5t-60 -24.5q-35 0 -59.5 24.5t-24.5 60.5q0 35 24.5 59t59.5 24q36 0 60 -24z M461 889q24 -24 24 -59q0 -36 -24 -60.5t-60 -24.5q-35 0 -59.5 24.5t-24.5 60.5q0 35 24.5 59t59.5 24q36 0 60 -24zM439 953h-290v118h290v-118z" />
<glyph unicode="&#x1d6;" horiz-adv-x="517" d="M474 0h-152l-7 59q-51 -77 -141 -77q-65 0 -100 43.5t-35 117.5v390h174v-376q0 -26 7.5 -37t23.5 -11q32 0 56 49v375h174v-533zM207 740q24 -24 24 -59q0 -36 -24 -60.5t-60 -24.5q-35 0 -59.5 24.5t-24.5 60.5q0 35 24.5 59t59.5 24q36 0 60 -24zM426 740 q24 -24 24 -59q0 -36 -24 -60.5t-60 -24.5q-35 0 -59.5 24.5t-24.5 60.5q0 35 24.5 59t59.5 24q36 0 60 -24zM402 805h-290v118h290v-118z" />
<glyph unicode="&#x1d7;" horiz-adv-x="585" d="M551 218q0 -68 -28.5 -121t-86.5 -84t-143 -31q-127 0 -192.5 64t-65.5 172v477h181v-471q0 -57 18 -83.5t59 -26.5t59 27t18 83v471h181v-477zM355 1116l97 -88l-158 -147l-65 56zM233 892.5q24 -24.5 24 -59.5q0 -36 -24 -60.5t-60 -24.5t-60 24.5t-24 60.5 q0 35 24 59.5t60 24.5t60 -24.5zM469 893q24 -24 24 -60t-24 -60.5t-60 -24.5q-35 0 -59.5 24.5t-24.5 60.5q0 35 24.5 59.5t59.5 24.5q36 0 60 -24z" />
<glyph unicode="&#x1d8;" horiz-adv-x="517" d="M474 0h-152l-7 59q-51 -77 -141 -77q-65 0 -100 43.5t-35 117.5v390h174v-376q0 -26 7.5 -37t23.5 -11q32 0 56 49v375h174v-533zM320 963l97 -88l-158 -147l-65 56zM198 739.5q24 -24.5 24 -59.5q0 -36 -24 -60.5t-60 -24.5t-60 24.5t-24 60.5q0 35 24 59.5t60 24.5 t60 -24.5zM434 740q24 -24 24 -60t-24 -60.5t-60 -24.5q-35 0 -59.5 24.5t-24.5 60.5q0 35 24.5 59.5t59.5 24.5q36 0 60 -24z" />
<glyph unicode="&#x1d9;" horiz-adv-x="585" d="M551 218q0 -68 -28.5 -121t-86.5 -84t-143 -31q-127 0 -192.5 64t-65.5 172v477h181v-471q0 -57 18 -83.5t59 -26.5t59 27t18 83v471h181v-477zM416 1115l59 -64l-130 -136h-104l-130 136l59 64l123 -84zM234 892.5q24 -24.5 24 -59.5q0 -36 -24 -60.5t-60 -24.5 t-60 24.5t-24 60.5q0 35 24 59.5t60 24.5t60 -24.5zM470 892.5q24 -24.5 24 -59.5q0 -36 -24 -60.5t-60 -24.5t-60 24.5t-24 60.5q0 35 24 59.5t60 24.5t60 -24.5z" />
<glyph unicode="&#x1da;" horiz-adv-x="517" d="M474 0h-152l-7 59q-51 -77 -141 -77q-65 0 -100 43.5t-35 117.5v390h174v-376q0 -26 7.5 -37t23.5 -11q32 0 56 49v375h174v-533zM380 962l59 -64l-130 -136h-104l-130 136l59 64l123 -84zM198.5 740q23.5 -24 23.5 -60t-23.5 -60.5t-59.5 -24.5t-60.5 24.5t-24.5 60.5 q0 35 24.5 59.5t60.5 24.5t59.5 -24zM435 740q24 -24 24 -60t-24 -60.5t-60 -24.5q-35 0 -60 24.5t-25 60.5q0 35 25 59.5t60 24.5q36 0 60 -24z" />
<glyph unicode="&#x1db;" horiz-adv-x="585" d="M551 218q0 -68 -28.5 -121t-86.5 -84t-143 -31q-127 0 -192.5 64t-65.5 172v477h181v-471q0 -57 18 -83.5t59 -26.5t59 27t18 83v471h181v-477zM233 1116l127 -179l-66 -56l-158 147zM233 893q24 -24 24 -60t-24 -60.5t-60 -24.5q-35 0 -59.5 24.5t-24.5 60.5 q0 35 24.5 59.5t59.5 24.5q36 0 60 -24zM469 893q24 -24 24 -60t-24 -60.5t-60 -24.5q-35 0 -59.5 24.5t-24.5 60.5q0 35 24.5 59.5t59.5 24.5q36 0 60 -24z" />
<glyph unicode="&#x1dc;" horiz-adv-x="517" d="M474 0h-152l-7 59q-51 -77 -141 -77q-65 0 -100 43.5t-35 117.5v390h174v-376q0 -26 7.5 -37t23.5 -11q32 0 56 49v375h174v-533zM195 963l127 -179l-66 -56l-158 147zM198 740q24 -24 24 -60t-24 -60.5t-60 -24.5q-35 0 -59.5 24.5t-24.5 60.5q0 35 24.5 59.5t59.5 24.5 q36 0 60 -24zM434 740q24 -24 24 -60t-24 -60.5t-60 -24.5q-35 0 -59.5 24.5t-24.5 60.5q0 35 24.5 59.5t59.5 24.5q36 0 60 -24z" />
<glyph unicode="&#x1dd;" horiz-adv-x="511" d="M429 476q60 -75 60 -209q0 -129 -61.5 -207t-177.5 -78q-108 0 -170.5 70t-62.5 205q0 24 4 60h304q-3 60 -24.5 86t-61.5 26q-32 0 -60.5 -9.5t-60.5 -30.5l-69 93q82 69 198 69q122 0 182 -75zM304 127.5q18 24.5 21 87.5h-147v-8q1 -104 73 -104q35 0 53 24.5z" />
<glyph unicode="&#x1de;" horiz-adv-x="549" d="M379 0l-27 144h-158l-27 -144h-184l184 695h216l183 -695h-187zM218 272h110l-55 293zM225 889q24 -24 24 -59q0 -36 -24 -60.5t-60 -24.5q-35 0 -59.5 24.5t-24.5 60.5q0 35 24.5 59t59.5 24q36 0 60 -24zM444 889q24 -24 24 -59q0 -36 -24 -60.5t-60 -24.5 q-35 0 -59.5 24.5t-24.5 60.5q0 35 24.5 59t59.5 24q36 0 60 -24zM422 953h-290v118h290v-118z" />
<glyph unicode="&#x1df;" horiz-adv-x="499" d="M459 117q6 -12 23 -19l-35 -113q-49 4 -79.5 20.5t-48.5 53.5q-50 -77 -145 -77q-72 0 -115 46t-43 121q0 88 59.5 134.5t172.5 46.5h35v20q0 45 -15 61t-56 16q-48 0 -124 -27l-38 110q44 20 95.5 30.5t97.5 10.5q108 0 159 -46.5t51 -144.5v-204q0 -27 6 -39z M259.5 115q14.5 11 23.5 29v93h-20q-40 0 -58.5 -17.5t-18.5 -54.5q0 -29 11 -45t31 -16q17 0 31.5 11zM199 740q24 -24 24 -59q0 -36 -24 -60.5t-60 -24.5q-35 0 -59.5 24.5t-24.5 60.5q0 35 24.5 59t59.5 24q36 0 60 -24zM418 740q24 -24 24 -59q0 -36 -24 -60.5 t-60 -24.5q-35 0 -59.5 24.5t-24.5 60.5q0 35 24.5 59t59.5 24q36 0 60 -24zM394 805h-290v118h290v-118z" />
<glyph unicode="&#x1e0;" horiz-adv-x="549" d="M379 0l-27 144h-158l-27 -144h-184l184 695h216l183 -695h-187zM218 272h110l-55 293zM343.5 899.5q27.5 -27.5 27.5 -68.5q0 -42 -27.5 -69t-70.5 -27t-70.5 27t-27.5 69q0 41 27.5 68.5t70.5 27.5t70.5 -27.5zM419 953h-290v118h290v-118z" />
<glyph unicode="&#x1e1;" horiz-adv-x="499" d="M459 117q6 -12 23 -19l-35 -113q-49 4 -79.5 20.5t-48.5 53.5q-50 -77 -145 -77q-72 0 -115 46t-43 121q0 88 59.5 134.5t172.5 46.5h35v20q0 45 -15 61t-56 16q-48 0 -124 -27l-38 110q44 20 95.5 30.5t97.5 10.5q108 0 159 -46.5t51 -144.5v-204q0 -27 6 -39z M259.5 115q14.5 11 23.5 29v93h-20q-40 0 -58.5 -17.5t-18.5 -54.5q0 -29 11 -45t31 -16q17 0 31.5 11zM318.5 755.5q27.5 -27.5 27.5 -68.5q0 -42 -27.5 -69t-70.5 -27t-70.5 27t-27.5 69q0 41 27.5 68.5t70.5 27.5t70.5 -27.5zM394 816h-290v118h290v-118z" />
<glyph unicode="&#x1e2;" horiz-adv-x="775" d="M548 129h209v-129h-362l-18 144h-167l-40 -144h-195l244 695h506l-18 -128h-225l23 -154h212v-124h-193zM245 272h116l-36 292zM586 779h-290v118h290v-118z" />
<glyph unicode="&#x1e3;" horiz-adv-x="779" d="M758 216h-293q6 -62 30.5 -85.5t68.5 -23.5q25 0 51 10.5t58 33.5l70 -93q-38 -35 -87.5 -55.5t-108.5 -20.5q-65 0 -114.5 23t-82.5 64q-62 -87 -168 -87q-76 0 -121 46t-45 121q0 86 61 132t178 46h35v21q0 46 -15 62.5t-55 16.5q-22 0 -56 -7.5t-69 -20.5l-38 111 q94 41 189 41q53 0 88.5 -16t58.5 -47q60 63 150 63q65 0 114.5 -31.5t77 -94t27.5 -150.5q0 -25 -4 -59zM594 324q-1 56 -15.5 85t-47.5 29q-31 0 -47 -26.5t-20 -94.5h130v7zM305 160q-10 35 -11 70v1h-22q-39 0 -58 -16.5t-19 -52.5q0 -57 42 -57q36 0 68 55zM533 653 h-290v118h290v-118z" />
<glyph unicode="&#x1e4;" horiz-adv-x="615" d="M619 177h-60v-120q-51 -35 -113.5 -55t-124.5 -20q-152 0 -224.5 90.5t-72.5 275.5q0 118 40.5 200t111.5 123.5t162 41.5q130 0 221 -88l-88 -92q-34 27 -61.5 39t-61.5 12q-67 0 -102 -56t-35 -181q0 -91 11.5 -142t34.5 -72t63 -21q39 0 84 21v44h-89v95h89v45h-86 l-15 105h256v-150h60v-95z" />
<glyph unicode="&#x1e5;" horiz-adv-x="505" d="M550 -86h-53q-16 -65 -82.5 -101.5t-176.5 -36.5q-94 0 -147.5 21t-74.5 59t-21 94h156q0 -26 7.5 -40.5t27.5 -21t59 -6.5q44 0 67.5 7.5t33.5 24.5h-100v64h99q-17 28 -80 28h-56q-84 0 -123.5 25.5t-39.5 68.5q0 30 16.5 56t44.5 44q-47 28 -68 64t-21 89 q0 93 61.5 145.5t167.5 51.5q67 -1 117 17.5t106 53.5l39 -122q-46 -22 -136 -22q49 -21 72 -53.5t23 -84.5t-26 -92t-74.5 -62.5t-113.5 -22.5q-32 0 -52 5q-14 -9 -14 -27q0 -14 10 -21t41 -7h64q84 0 136.5 -36.5t60.5 -97.5h50v-64zM189 357q0 -84 58 -84q29 0 43 20 t14 66q0 42 -14 60t-43 18q-58 0 -58 -80z" />
<glyph unicode="&#x1e6;" horiz-adv-x="594" d="M559 625l-87 -90q-33 26 -61 37.5t-63 11.5q-68 0 -102.5 -54.5t-34.5 -182.5q0 -92 11 -143t34 -71.5t62 -20.5q37 0 70 19v147h-68l-17 125h256v-346q-50 -35 -113.5 -55t-123.5 -20q-153 0 -225.5 90.5t-72.5 275.5q0 119 41 201t112 123t161 41q130 0 221 -88z M443 949l59 -64l-130 -136h-104l-130 136l59 64l123 -84z" />
<glyph unicode="&#x1e7;" horiz-adv-x="505" d="M509 499q-46 -22 -136 -22q49 -21 72 -53.5t23 -84.5t-26 -92t-74.5 -62.5t-113.5 -22.5q-32 0 -52 5q-14 -9 -14 -27q0 -15 10.5 -22.5t40.5 -7.5h64q92 0 145.5 -43t53.5 -112q0 -83 -68.5 -131t-195.5 -48q-94 0 -147.5 21t-74.5 59t-21 94h156q0 -34 18 -48.5 t71 -14.5q49 0 68 15t19 41q0 49 -62 49h-56q-84 0 -123.5 28.5t-39.5 76.5q0 30 17 57.5t44 45.5q-47 28 -68 64t-21 89q0 93 61.5 145.5t167.5 51.5q67 -1 117 17.5t106 53.5zM189 357q0 -84 58 -84q29 0 43 20t14 66q0 42 -14 60t-43 18q-58 0 -58 -80zM377 818l59 -65 l-130 -145h-104l-130 145l59 65l123 -94z" />
<glyph unicode="&#x1e8;" horiz-adv-x="595" d="M226 695v-695h-181v695h181zM595 695l-182 -311l198 -384h-201l-179 370l182 325h182zM423 949l59 -64l-130 -136h-104l-130 136l59 64l123 -84z" />
<glyph unicode="&#x1e9;" horiz-adv-x="522" d="M217 761v-761h-174v743zM524 533l-132 -234l140 -299h-187l-124 291l134 242h169zM401 997l59 -64l-130 -136h-104l-130 136l59 64l123 -84z" />
<glyph unicode="&#x1ea;" horiz-adv-x="631" d="M560.5 122q-46.5 -89 -134.5 -122q-60 -24 -82 -48.5t-22 -50.5q0 -23 12.5 -34.5t34.5 -11.5t54 8l-10 -104q-32 -8 -66 -8q-64 0 -104.5 32t-40.5 88q0 68 57 115q-114 18 -174.5 110t-60.5 252q0 176 75.5 270.5t215.5 94.5q141 0 216.5 -93t75.5 -272 q0 -137 -46.5 -226zM236.5 165.5q24.5 -53.5 78.5 -53.5q38 0 60.5 22.5t33 74t10.5 139.5q0 128 -24.5 181.5t-79.5 53.5q-54 0 -78.5 -53.5t-24.5 -181.5q0 -129 24.5 -182.5z" />
<glyph unicode="&#x1eb;" horiz-adv-x="536" d="M476 96.5q-38 -68.5 -108 -96.5q-60 -24 -82 -48.5t-22 -50.5q0 -23 12.5 -34.5t34.5 -11.5t54 8l-10 -104q-32 -8 -66 -8q-64 0 -104.5 32t-40.5 88q0 70 60 117q-87 19 -134.5 90t-47.5 189q0 134 65.5 209t180.5 75t180.5 -72.5t65.5 -212.5q0 -101 -38 -169.5z M217 388q-16 -36 -16 -121q0 -88 15.5 -123.5t51.5 -35.5q35 0 51 36t16 122q0 87 -16 122.5t-51 35.5t-51 -36z" />
<glyph unicode="&#x1ec;" horiz-adv-x="631" d="M460 897v-118h-290v118h290zM560.5 122q-46.5 -89 -134.5 -122q-60 -24 -82 -48.5t-22 -50.5q0 -23 12.5 -34.5t34.5 -11.5t54 8l-10 -104q-32 -8 -66 -8q-64 0 -104.5 32t-40.5 88q0 68 57 115q-114 18 -174.5 110t-60.5 252q0 176 75.5 270.5t215.5 94.5 q141 0 216.5 -93t75.5 -272q0 -137 -46.5 -226zM236.5 165.5q24.5 -53.5 78.5 -53.5q38 0 60.5 22.5t33 74t10.5 139.5q0 128 -24.5 181.5t-79.5 53.5q-54 0 -78.5 -53.5t-24.5 -181.5q0 -129 24.5 -182.5z" />
<glyph unicode="&#x1ed;" horiz-adv-x="536" d="M413 771v-118h-290v118h290zM476 96.5q-38 -68.5 -108 -96.5q-60 -24 -82 -48.5t-22 -50.5q0 -23 12.5 -34.5t34.5 -11.5t54 8l-10 -104q-32 -8 -66 -8q-64 0 -104.5 32t-40.5 88q0 70 60 117q-87 19 -134.5 90t-47.5 189q0 134 65.5 209t180.5 75t180.5 -72.5 t65.5 -212.5q0 -101 -38 -169.5zM217 388q-16 -36 -16 -121q0 -88 15.5 -123.5t51.5 -35.5q35 0 51 36t16 122q0 87 -16 122.5t-51 35.5t-51 -36z" />
<glyph unicode="&#x1ee;" horiz-adv-x="505" d="M442 347q49 -51 49 -140q0 -64 -31 -115t-90 -80.5t-141 -29.5q-78 0 -133.5 27t-95.5 78l92 85q32 -31 59.5 -44.5t63.5 -13.5q43 0 66.5 26t23.5 75q0 46 -25.5 67t-75.5 21h-90v98l152 165h-226v129h414v-125l-154 -166q93 -6 142 -57zM370 949l59 -64l-130 -136h-104 l-130 136l59 64l123 -84z" />
<glyph unicode="&#x1ef;" horiz-adv-x="472" d="M462 10q0 -67 -30 -120t-88 -83.5t-137 -30.5q-145 0 -225 105l90 86q35 -32 62 -46t61 -14q42 0 65.5 28t23.5 84q0 52 -25.5 74.5t-77.5 22.5h-85v97l145 192h-218v128h406v-118l-157 -202q190 -17 190 -203zM349 818l59 -65l-130 -145h-104l-130 145l59 65l123 -94z " />
<glyph unicode="&#x1f0;" horiz-adv-x="260" d="M217 56q0 -116 -56.5 -178.5t-158.5 -101.5l-60 127q35 18 56 35t33 43.5t12 68.5v483h174v-477zM253 818l59 -65l-130 -145h-104l-130 145l59 65l123 -94z" />
<glyph unicode="&#x1f1;" horiz-adv-x="1072" d="M412 667.5q72 -27.5 117 -103.5t45 -214q0 -194 -87 -272t-234 -78h-208v695h197q98 0 170 -27.5zM226 566v-437h38q43 0 69.5 19.5t40.5 68t14 133.5t-14.5 132.5t-41 65.5t-67.5 18h-39zM1051 695v-136l-262 -416h269l-17 -143h-458v134l265 422h-240v139h443z" />
<glyph unicode="&#x1f2;" horiz-adv-x="1013" d="M412 667.5q72 -27.5 117 -103.5t45 -214q0 -194 -87 -272t-234 -78h-208v695h197q98 0 170 -27.5zM226 566v-437h38q43 0 69.5 19.5t40.5 68t14 133.5t-14.5 132.5t-41 65.5t-67.5 18h-39zM998 533v-122l-207 -281h212l-14 -130h-394v122l208 282h-189v129h384z" />
<glyph unicode="&#x1f3;" horiz-adv-x="972" d="M504 743v-743h-155l-6 57q-52 -75 -136 -75q-90 0 -136.5 75t-46.5 211q0 84 25 148.5t70 99.5t104 35q66 0 107 -46v256zM330 156v233q-14 18 -27 27t-29 9q-71 0 -71 -158q0 -93 16.5 -126.5t46.5 -33.5q36 0 64 49zM957 533v-122l-207 -281h212l-14 -130h-394v122 l208 282h-189v129h384z" />
<glyph unicode="&#x1f4;" horiz-adv-x="594" d="M559 625l-87 -90q-33 26 -61 37.5t-63 11.5q-68 0 -102.5 -54.5t-34.5 -182.5q0 -92 11 -143t34 -71.5t62 -20.5q37 0 70 19v147h-68l-17 125h256v-346q-50 -35 -113.5 -55t-123.5 -20q-153 0 -225.5 90.5t-72.5 275.5q0 119 41 201t112 123t161 41q130 0 221 -88z M390 963l64 -126l-226 -87l-44 85z" />
<glyph unicode="&#x1f5;" horiz-adv-x="505" d="M509 499q-46 -22 -136 -22q49 -21 72 -53.5t23 -84.5t-26 -92t-74.5 -62.5t-113.5 -22.5q-32 0 -52 5q-14 -9 -14 -27q0 -15 10.5 -22.5t40.5 -7.5h64q92 0 145.5 -43t53.5 -112q0 -83 -68.5 -131t-195.5 -48q-94 0 -147.5 21t-74.5 59t-21 94h156q0 -34 18 -48.5 t71 -14.5q49 0 68 15t19 41q0 49 -62 49h-56q-84 0 -123.5 28.5t-39.5 76.5q0 30 17 57.5t44 45.5q-47 28 -68 64t-21 89q0 93 61.5 145.5t167.5 51.5q67 -1 117 17.5t106 53.5zM189 357q0 -84 58 -84q29 0 43 20t14 66q0 42 -14 60t-43 18q-58 0 -58 -80zM314 840l67 -125 l-224 -96l-47 85z" />
<glyph unicode="&#x1f6;" horiz-adv-x="855" d="M820 389q7 -66 7 -139q0 -140 -71 -204t-176 -64q-92 0 -149 48.5t-57 143.5v116h-148v-290h-181v695h181v-265h148v265h181v-525q0 -34 9.5 -48t29.5 -14q27 0 43 34.5t16 117.5q0 110 -23 273h170q13 -78 20 -144z" />
<glyph unicode="&#x1f7;" horiz-adv-x="551" d="M452.5 689q39.5 -24 62.5 -68t23 -102q0 -79 -32 -133t-84.5 -89t-133.5 -69l-62 -25v-203h-181v695h181v-38q56 56 139 56q48 0 87.5 -24zM327.5 409q25.5 40 25.5 98q0 78 -57 78q-38 0 -70 -32v-226l18 9q58 33 83.5 73z" />
<glyph unicode="&#x1f8;" horiz-adv-x="594" d="M550 0h-224l-148 530q12 -89 17.5 -148t5.5 -143v-239h-156v695h221l151 -532q-11 73 -17.5 134.5t-6.5 139.5v258h157v-695zM226 962l206 -127l-44 -85l-226 87z" />
<glyph unicode="&#x1f9;" horiz-adv-x="522" d="M448 510q35 -41 35 -114v-396h-174v373q0 26 -7.5 37t-21.5 11q-29 0 -63 -56v-365h-174v533h152l12 -59q31 39 65.5 58t78.5 19q62 0 97 -41zM205 840l204 -136l-47 -85l-224 96z" />
<glyph unicode="&#x1fa;" horiz-adv-x="549" d="M379 0l-27 144h-158l-27 -144h-184l184 695h216l183 -695h-187zM218 272h110l-55 293zM374 954q37 -39 37 -98q0 -60 -37 -99t-100 -39t-100 39t-37 99q0 59 37 98t100 39t100 -39zM237 856q0 -50 37 -50t37 50t-37 50t-37 -50zM345 1211l64 -126l-226 -87l-44 85z" />
<glyph unicode="&#x1fb;" horiz-adv-x="499" d="M385 943l-226 -87l-44 85l206 128zM149 614q-37 39 -37 99q0 59 37 98t100 39t100 -39t37 -98q0 -60 -37 -99t-100 -39t-100 39zM212 713q0 -50 37 -50t37 50t-37 50t-37 -50zM459 117q6 -12 23 -19l-35 -113q-49 4 -79.5 20.5t-48.5 53.5q-50 -77 -145 -77 q-72 0 -115 46t-43 121q0 88 59.5 134.5t172.5 46.5h35v20q0 45 -15 61t-56 16q-48 0 -124 -27l-38 110q44 20 95.5 30.5t97.5 10.5q108 0 159 -46.5t51 -144.5v-204q0 -27 6 -39zM259.5 115q14.5 11 23.5 29v93h-20q-40 0 -58.5 -17.5t-18.5 -54.5q0 -29 11 -45t31 -16 q17 0 31.5 11z" />
<glyph unicode="&#x1fc;" horiz-adv-x="775" d="M548 129h209v-129h-362l-18 144h-167l-40 -144h-195l244 695h506l-18 -128h-225l23 -154h212v-124h-193zM245 272h116l-36 292zM511 963l64 -126l-226 -87l-44 85z" />
<glyph unicode="&#x1fd;" horiz-adv-x="779" d="M758 216h-293q6 -62 30.5 -85.5t68.5 -23.5q25 0 51 10.5t58 33.5l70 -93q-38 -35 -87.5 -55.5t-108.5 -20.5q-65 0 -114.5 23t-82.5 64q-62 -87 -168 -87q-76 0 -121 46t-45 121q0 86 61 132t178 46h35v21q0 46 -15 62.5t-55 16.5q-22 0 -56 -7.5t-69 -20.5l-38 111 q94 41 189 41q53 0 88.5 -16t58.5 -47q60 63 150 63q65 0 114.5 -31.5t77 -94t27.5 -150.5q0 -25 -4 -59zM594 324q-1 56 -15.5 85t-47.5 29q-31 0 -47 -26.5t-20 -94.5h130v7zM305 160q-10 35 -11 70v1h-22q-39 0 -58 -16.5t-19 -52.5q0 -57 42 -57q36 0 68 55zM448 840 l67 -125l-224 -96l-47 85z" />
<glyph unicode="&#x1fe;" horiz-adv-x="631" d="M574 546q33 -81 33 -198q0 -176 -76 -271t-216 -95q-22 0 -33 1l-33 -119l-132 35l36 127q-63 42 -96 123.5t-33 198.5q0 175 75.5 270t215.5 95q23 0 34 -1l33 118l132 -36l-36 -125q63 -42 96 -123zM251.5 561.5q-23.5 -22.5 -34.5 -74t-11 -139.5q0 -135 22 -186 l105 421q-6 1 -18 1q-40 0 -63.5 -22.5zM403 528l-105 -417q6 -1 17 -1q41 0 64.5 22.5t34 74t10.5 141.5q0 130 -21 180zM385 1001l64 -126l-226 -87l-44 85z" />
<glyph unicode="&#x1ff;" horiz-adv-x="536" d="M487 414.5q27 -61.5 27 -148.5q0 -134 -65.5 -209t-180.5 -75q-13 0 -20 1l-33 -119l-124 35l36 122q-50 35 -77.5 97t-27.5 149q0 134 65.5 209t180.5 75q15 0 22 -1l35 119l123 -35l-38 -123q50 -35 77 -96.5zM201 390q-22 -37 -22 -123q0 -87 17 -124l79 284h-7 q-45 0 -67 -37zM335 142.5q22 37.5 22 123.5t-16 121l-78 -282h5q45 0 67 37.5zM328 840l67 -125l-224 -96l-47 85z" />
<glyph unicode="&#x200;" horiz-adv-x="549" d="M379 0l-27 144h-158l-27 -144h-184l184 695h216l183 -695h-187zM218 272h110l-55 293zM152 992l91 -203l-82 -40l-117 187zM321 992l85 -204l-85 -35l-110 187z" />
<glyph unicode="&#x201;" horiz-adv-x="499" d="M459 117q6 -12 23 -19l-35 -113q-49 4 -79.5 20.5t-48.5 53.5q-50 -77 -145 -77q-72 0 -115 46t-43 121q0 88 59.5 134.5t172.5 46.5h35v20q0 45 -15 61t-56 16q-48 0 -124 -27l-38 110q44 20 95.5 30.5t97.5 10.5q108 0 159 -46.5t51 -144.5v-204q0 -27 6 -39z M259.5 115q14.5 11 23.5 29v93h-20q-40 0 -58.5 -17.5t-18.5 -54.5q0 -29 11 -45t31 -16q17 0 31.5 11zM138 866l91 -203l-82 -40l-117 187zM307 866l85 -204l-85 -35l-110 187z" />
<glyph unicode="&#x202;" horiz-adv-x="549" d="M379 0l-27 144h-158l-27 -144h-184l184 695h216l183 -695h-187zM218 272h110l-55 293zM392.5 908q41.5 -50 47.5 -132l-91 -16q-16 80 -74 80t-74 -80l-91 16q6 82 47.5 132t117.5 50t117.5 -50z" />
<glyph unicode="&#x203;" horiz-adv-x="499" d="M459 117q6 -12 23 -19l-35 -113q-49 4 -79.5 20.5t-48.5 53.5q-50 -77 -145 -77q-72 0 -115 46t-43 121q0 88 59.5 134.5t172.5 46.5h35v20q0 45 -15 61t-56 16q-48 0 -124 -27l-38 110q44 20 95.5 30.5t97.5 10.5q108 0 159 -46.5t51 -144.5v-204q0 -27 6 -39z M259.5 115q14.5 11 23.5 29v93h-20q-40 0 -58.5 -17.5t-18.5 -54.5q0 -29 11 -45t31 -16q17 0 31.5 11zM366.5 746q41.5 -50 47.5 -132l-91 -16q-16 80 -74 80t-74 -80l-91 16q6 82 47.5 132t117.5 50t117.5 -50z" />
<glyph unicode="&#x204;" horiz-adv-x="472" d="M453 695l-19 -128h-208v-152h183v-125h-183v-161h222v-129h-403v695h408zM126 992l91 -203l-82 -40l-117 187zM295 992l85 -204l-85 -35l-110 187z" />
<glyph unicode="&#x205;" horiz-adv-x="511" d="M490 216h-294q6 -63 29 -86t67 -23q28 0 54.5 10.5t58.5 33.5l70 -94q-84 -75 -198 -75q-125 0 -190 76t-65 206q0 83 27 148t80.5 102t130.5 37q108 0 171 -71.5t63 -204.5q0 -25 -4 -59zM323 324q0 58 -13.5 86.5t-47.5 28.5q-31 0 -47 -26.5t-20 -95.5h128v7zM151 866 l91 -203l-82 -40l-117 187zM320 866l85 -204l-85 -35l-110 187z" />
<glyph unicode="&#x206;" horiz-adv-x="472" d="M453 695l-19 -128h-208v-152h183v-125h-183v-161h222v-129h-403v695h408zM366.5 908q41.5 -50 47.5 -132l-91 -16q-16 80 -74 80t-74 -80l-91 16q6 82 47.5 132t117.5 50t117.5 -50z" />
<glyph unicode="&#x207;" horiz-adv-x="511" d="M490 216h-294q6 -63 29 -86t67 -23q28 0 54.5 10.5t58.5 33.5l70 -94q-84 -75 -198 -75q-125 0 -190 76t-65 206q0 83 27 148t80.5 102t130.5 37q108 0 171 -71.5t63 -204.5q0 -25 -4 -59zM323 324q0 58 -13.5 86.5t-47.5 28.5q-31 0 -47 -26.5t-20 -95.5h128v7z M379.5 746q41.5 -50 47.5 -132l-91 -16q-16 80 -74 80t-74 -80l-91 16q6 82 47.5 132t117.5 50t117.5 -50z" />
<glyph unicode="&#x208;" horiz-adv-x="270" d="M226 695v-695h-181v695h181zM12 992l91 -203l-82 -40l-117 187zM181 992l85 -204l-85 -35l-110 187z" />
<glyph unicode="&#x209;" horiz-adv-x="260" d="M217 533v-533h-174v533h174zM19 866l91 -203l-82 -40l-117 187zM188 866l85 -204l-85 -35l-110 187z" />
<glyph unicode="&#x20a;" horiz-adv-x="270" d="M226 695v-695h-181v695h181zM252.5 908q41.5 -50 47.5 -132l-91 -16q-16 80 -74 80t-74 -80l-91 16q6 82 47.5 132t117.5 50t117.5 -50z" />
<glyph unicode="&#x20b;" horiz-adv-x="260" d="M217 533v-533h-174v533h174zM247.5 746q41.5 -50 47.5 -132l-91 -16q-16 80 -74 80t-74 -80l-91 16q6 82 47.5 132t117.5 50t117.5 -50z" />
<glyph unicode="&#x20c;" horiz-adv-x="631" d="M531.5 620q75.5 -93 75.5 -272q0 -177 -76 -271.5t-216 -94.5t-215.5 93.5t-75.5 272.5q0 176 75.5 270.5t215.5 94.5q141 0 216.5 -93zM236.5 529.5q-24.5 -53.5 -24.5 -181.5q0 -129 24.5 -182.5t78.5 -53.5q38 0 60.5 22.5t33 74t10.5 139.5q0 128 -24.5 181.5 t-79.5 53.5q-54 0 -78.5 -53.5zM192 992l91 -203l-82 -40l-117 187zM361 992l85 -204l-85 -35l-110 187z" />
<glyph unicode="&#x20d;" horiz-adv-x="536" d="M448.5 478.5q65.5 -72.5 65.5 -212.5q0 -134 -65.5 -209t-180.5 -75q-116 0 -181 72.5t-65 212.5q0 134 65.5 209t180.5 75t180.5 -72.5zM217 388q-16 -36 -16 -121q0 -88 15.5 -123.5t51.5 -35.5q35 0 51 36t16 122q0 87 -16 122.5t-51 35.5t-51 -36zM157 866l91 -203 l-82 -40l-117 187zM326 866l85 -204l-85 -35l-110 187z" />
<glyph unicode="&#x20e;" horiz-adv-x="631" d="M531.5 620q75.5 -93 75.5 -272q0 -177 -76 -271.5t-216 -94.5t-215.5 93.5t-75.5 272.5q0 176 75.5 270.5t215.5 94.5q141 0 216.5 -93zM236.5 529.5q-24.5 -53.5 -24.5 -181.5q0 -129 24.5 -182.5t78.5 -53.5q38 0 60.5 22.5t33 74t10.5 139.5q0 128 -24.5 181.5 t-79.5 53.5q-54 0 -78.5 -53.5zM432.5 908q41.5 -50 47.5 -132l-91 -16q-16 80 -74 80t-74 -80l-91 16q6 82 47.5 132t117.5 50t117.5 -50z" />
<glyph unicode="&#x20f;" horiz-adv-x="536" d="M448.5 478.5q65.5 -72.5 65.5 -212.5q0 -134 -65.5 -209t-180.5 -75q-116 0 -181 72.5t-65 212.5q0 134 65.5 209t180.5 75t180.5 -72.5zM217 388q-16 -36 -16 -121q0 -88 15.5 -123.5t51.5 -35.5q35 0 51 36t16 122q0 87 -16 122.5t-51 35.5t-51 -36zM385.5 746 q41.5 -50 47.5 -132l-91 -16q-16 80 -74 80t-74 -80l-91 16q6 82 47.5 132t117.5 50t117.5 -50z" />
<glyph unicode="&#x210;" horiz-adv-x="566" d="M265 258h-39v-258h-181v695h217q277 0 277 -216q0 -131 -113 -187l154 -292h-195zM226 381h41q46 0 66.5 23.5t20.5 74.5q0 46 -23 68t-71 22h-34v-188zM153 992l91 -203l-82 -40l-117 187zM322 992l85 -204l-85 -35l-110 187z" />
<glyph unicode="&#x211;" horiz-adv-x="370" d="M379 540l-28 -167q-21 6 -42 6q-40 0 -60 -28.5t-32 -84.5v-266h-174v533h152l13 -91q18 51 50 79t74 28q23 0 47 -9zM100 866l91 -203l-82 -40l-117 187zM269 866l85 -204l-85 -35l-110 187z" />
<glyph unicode="&#x212;" horiz-adv-x="566" d="M265 258h-39v-258h-181v695h217q277 0 277 -216q0 -131 -113 -187l154 -292h-195zM226 381h41q46 0 66.5 23.5t20.5 74.5q0 46 -23 68t-71 22h-34v-188zM393.5 908q41.5 -50 47.5 -132l-91 -16q-16 80 -74 80t-74 -80l-91 16q6 82 47.5 132t117.5 50t117.5 -50z" />
<glyph unicode="&#x213;" horiz-adv-x="370" d="M379 540l-28 -167q-21 6 -42 6q-40 0 -60 -28.5t-32 -84.5v-266h-174v533h152l13 -91q18 51 50 79t74 28q23 0 47 -9zM328.5 746q41.5 -50 47.5 -132l-91 -16q-16 80 -74 80t-74 -80l-91 16q6 82 47.5 132t117.5 50t117.5 -50z" />
<glyph unicode="&#x214;" horiz-adv-x="585" d="M551 218q0 -68 -28.5 -121t-86.5 -84t-143 -31q-127 0 -192.5 64t-65.5 172v477h181v-471q0 -57 18 -83.5t59 -26.5t59 27t18 83v471h181v-477zM169 992l91 -203l-82 -40l-117 187zM338 992l85 -204l-85 -35l-110 187z" />
<glyph unicode="&#x215;" horiz-adv-x="517" d="M474 0h-152l-7 59q-51 -77 -141 -77q-65 0 -100 43.5t-35 117.5v390h174v-376q0 -26 7.5 -37t23.5 -11q32 0 56 49v375h174v-533zM146 866l91 -203l-82 -40l-117 187zM315 866l85 -204l-85 -35l-110 187z" />
<glyph unicode="&#x216;" horiz-adv-x="585" d="M551 218q0 -68 -28.5 -121t-86.5 -84t-143 -31q-127 0 -192.5 64t-65.5 172v477h181v-471q0 -57 18 -83.5t59 -26.5t59 27t18 83v471h181v-477zM409.5 908q41.5 -50 47.5 -132l-91 -16q-16 80 -74 80t-74 -80l-91 16q6 82 47.5 132t117.5 50t117.5 -50z" />
<glyph unicode="&#x217;" horiz-adv-x="517" d="M474 0h-152l-7 59q-51 -77 -141 -77q-65 0 -100 43.5t-35 117.5v390h174v-376q0 -26 7.5 -37t23.5 -11q32 0 56 49v375h174v-533zM374.5 746q41.5 -50 47.5 -132l-91 -16q-16 80 -74 80t-74 -80l-91 16q6 82 47.5 132t117.5 50t117.5 -50z" />
<glyph unicode="&#x218;" horiz-adv-x="528" d="M396 690q56 -23 100 -69l-79 -94q-64 56 -131 56q-36 0 -55 -16.5t-19 -45.5q0 -20 10 -33.5t34 -26t71 -30.5q65 -26 104.5 -54t60 -69.5t20.5 -102.5q0 -66 -31.5 -116.5t-90.5 -78.5t-140 -28q-153 0 -250 101l87 96q38 -32 74.5 -49t77.5 -17q42 0 63.5 21t21.5 56 t-22 56t-81 43q-107 41 -151 91t-44 126q0 62 31.5 109t86.5 72.5t123 25.5q73 0 129 -23zM321 -88.5q23 -23.5 23 -59.5q0 -19 -5.5 -36t-19.5 -50l-44 -98h-83l26 115q-37 26 -37 69q0 34 23 58.5t58 24.5q36 0 59 -23.5z" />
<glyph unicode="&#x219;" horiz-adv-x="442" d="M330.5 533q48.5 -18 82.5 -49l-62 -94q-57 39 -111 39q-23 0 -35.5 -9.5t-12.5 -25.5q0 -13 7 -22t27.5 -19.5t63.5 -25.5q72 -26 106.5 -64t34.5 -103q0 -54 -28.5 -94.5t-80 -62t-116.5 -21.5q-63 0 -117.5 21.5t-92.5 59.5l81 91q63 -51 121 -51q27 0 41.5 11t14.5 31 q0 17 -7 27.5t-26.5 20.5t-60.5 24q-73 26 -106.5 65.5t-33.5 99.5q0 48 24.5 86.5t71.5 60.5t112 22q54 0 102.5 -18zM279 -88.5q23 -23.5 23 -59.5q0 -19 -5.5 -36t-19.5 -50l-44 -98h-83l26 115q-37 26 -37 69q0 34 23 58.5t58 24.5q36 0 59 -23.5z" />
<glyph unicode="&#x21a;" horiz-adv-x="497" d="M501 695l-19 -137h-143v-558h-181v558h-153v137h496zM307 -88.5q23 -23.5 23 -59.5q0 -19 -5.5 -36t-19.5 -50l-44 -98h-83l26 115q-37 26 -37 69q0 34 23 58.5t58 24.5q36 0 59 -23.5z" />
<glyph unicode="&#x21b;" horiz-adv-x="359" d="M372 25q-28 -21 -65.5 -32t-75.5 -11q-88 0 -131 48.5t-43 137.5v245h-58v120h58v113l174 21v-134h108l-17 -120h-91v-243q0 -51 39 -51q21 0 46 13zM269 -88.5q23 -23.5 23 -59.5q0 -19 -5.5 -36t-19.5 -50l-44 -98h-83l26 115q-37 26 -37 69q0 34 23 58.5t58 24.5 q36 0 59 -23.5z" />
<glyph unicode="&#x21c;" horiz-adv-x="476" d="M335.5 689q51.5 -24 80 -66.5t28.5 -98.5q0 -135 -154 -167q86 -9 128.5 -48t42.5 -115q0 -106 -96 -187.5t-302 -122.5l-14 131q90 28 138.5 56t67.5 59t19 73q0 45 -25 67t-78 22h-64l20 127h47q85 0 85 85q0 80 -69 80q-52 0 -118 -52l-80 88q90 93 224 93 q68 0 119.5 -24z" />
<glyph unicode="&#x21d;" horiz-adv-x="438" d="M338.5 510.5q55.5 -40.5 55.5 -112.5q0 -49 -29 -79.5t-87 -44.5q138 -10 138 -119q0 -88 -94.5 -157t-270.5 -106l-15 112q109 39 155.5 74t46.5 82q0 48 -54 48h-78l10 109h40q32 0 47.5 14.5t15.5 46.5q0 54 -50 54q-26 0 -47 -7.5t-48 -23.5l-77 88q83 62 199 62 q87 0 142.5 -40.5z" />
<glyph unicode="&#x21e;" horiz-adv-x="599" d="M374 0v290h-148v-290h-181v695h181v-265h148v265h181v-695h-181zM423 949l59 -64l-130 -136h-104l-130 136l59 64l123 -84z" />
<glyph unicode="&#x21f;" horiz-adv-x="522" d="M448 510q35 -41 35 -114v-396h-174v373q0 26 -7.5 37t-21.5 11q-29 0 -63 -56v-365h-174v743l174 18v-281q29 37 61 54t73 17q62 0 97 -41zM384 997l59 -64l-130 -136h-104l-130 136l59 64l123 -84z" />
<glyph unicode="&#x220;" horiz-adv-x="586" d="M506 664.5q41 -48.5 41 -128.5v-749h-181v721q0 39 -11 55.5t-36 16.5q-26 0 -47.5 -14t-45.5 -43v-523h-181v695h158l13 -59q39 40 79 58.5t92 18.5q78 0 119 -48.5z" />
<glyph unicode="&#x221;" horiz-adv-x="734" d="M705.5 218.5q31.5 -31.5 31.5 -86.5q0 -74 -50.5 -112t-131.5 -38q-13 0 -39 2l-30 -71l-77 32l27 61q-48 22 -76 67q-29 -43 -66 -67t-87 -24q-90 0 -136.5 75t-46.5 211q0 85 25 149t70.5 99t105.5 35q62 0 105 -46v256l174 -18v-551q0 -14 2 -34q24 50 51.5 71 t68.5 21q48 0 79.5 -31.5zM332 159q-2 22 -2 35v195q-14 18 -27 27t-29 9q-71 0 -71 -158q0 -93 16.5 -126.5t47.5 -33.5q37 0 65 52zM624 138q0 23 -19 23q-11 0 -19.5 -12t-22.5 -45q6 -1 20 -1q41 0 41 35z" />
<glyph unicode="&#x222;" horiz-adv-x="595" d="M570 220q0 -67 -33 -121t-95 -85.5t-145 -31.5t-145 30.5t-95 84.5t-33 123q0 65 30.5 110.5t87.5 69.5q-40 21 -61.5 55.5t-21.5 79.5v160h181v-174q0 -32 12 -48.5t45 -16.5t45.5 17.5t12.5 47.5v174h181v-160q0 -43 -22 -77t-63 -56q119 -47 119 -182zM361 139 q21 27 21 83q0 54 -21.5 81.5t-63.5 27.5q-41 0 -63 -27.5t-22 -81.5q0 -55 22 -82.5t63 -27.5q43 0 64 27z" />
<glyph unicode="&#x223;" horiz-adv-x="530" d="M508 222q0 -70 -28 -124.5t-83 -85t-132 -30.5q-116 0 -179.5 65t-63.5 175q0 143 104 195q-72 38 -72 130v196h171v-227q0 -26 9.5 -39t30.5 -13q22 0 31.5 12.5t9.5 39.5v227h170v-196q0 -85 -75 -128q107 -49 107 -197zM317 135.5q15 27.5 15 93.5t-15.5 95t-51.5 29 q-35 0 -50.5 -29t-15.5 -95q0 -65 15.5 -93t50.5 -28q37 0 52 27.5z" />
<glyph unicode="&#x224;" horiz-adv-x="492" d="M478 559l-262 -416h261v-175q0 -94 -54.5 -143t-146.5 -49q-85 0 -143 44l57 104q18 -10 31.5 -14t33.5 -4q50 0 50 51v43h-295v134l265 422h-240v139h443v-136z" />
<glyph unicode="&#x225;" horiz-adv-x="419" d="M410 411l-207 -281h204v-165q0 -92 -53.5 -140.5t-143.5 -48.5q-84 0 -142 44l58 99q20 -10 33 -14t33 -4q50 0 50 51v48h-235v122l208 282h-189v129h384v-122z" />
<glyph unicode="&#x226;" horiz-adv-x="549" d="M379 0l-27 144h-158l-27 -144h-184l184 695h216l183 -695h-187zM218 272h110l-55 293zM345.5 916.5q27.5 -27.5 27.5 -68.5q0 -42 -27.5 -69t-70.5 -27t-70.5 27t-27.5 69q0 41 27.5 68.5t70.5 27.5t70.5 -27.5z" />
<glyph unicode="&#x227;" horiz-adv-x="499" d="M459 117q6 -12 23 -19l-35 -113q-49 4 -79.5 20.5t-48.5 53.5q-50 -77 -145 -77q-72 0 -115 46t-43 121q0 88 59.5 134.5t172.5 46.5h35v20q0 45 -15 61t-56 16q-48 0 -124 -27l-38 110q44 20 95.5 30.5t97.5 10.5q108 0 159 -46.5t51 -144.5v-204q0 -27 6 -39z M259.5 115q14.5 11 23.5 29v93h-20q-40 0 -58.5 -17.5t-18.5 -54.5q0 -29 11 -45t31 -16q17 0 31.5 11zM319.5 790.5q27.5 -27.5 27.5 -68.5q0 -42 -27.5 -69t-70.5 -27t-70.5 27t-27.5 69q0 41 27.5 68.5t70.5 27.5t70.5 -27.5z" />
<glyph unicode="&#x228;" horiz-adv-x="472" d="M226 129h222v-129h-159v-49q98 -14 98 -100q0 -52 -39 -85t-107 -33q-33 0 -61.5 9t-49.5 23l38 75q30 -15 59 -15q39 0 39 28q0 17 -20 24.5t-64 7.5l13 115h-150v695h408l-19 -128h-208v-152h183v-125h-183v-161z" />
<glyph unicode="&#x229;" horiz-adv-x="511" d="M490 216h-294q6 -63 29 -86t67 -23q28 0 54.5 10.5t58.5 33.5l70 -94q-67 -60 -155 -72v-34q98 -14 98 -100q0 -52 -39 -85t-107 -33q-33 0 -61.5 9t-49.5 23l38 75q30 -15 59 -15q39 0 39 28q0 17 -20 24.5t-64 7.5l12 101q-100 15 -151.5 88.5t-51.5 189.5q0 83 27 148 t80.5 102t130.5 37q108 0 171 -71.5t63 -204.5q0 -25 -4 -59zM323 324q0 58 -13.5 86.5t-47.5 28.5q-31 0 -47 -26.5t-20 -95.5h128v7z" />
<glyph unicode="&#x22a;" horiz-adv-x="631" d="M531.5 620q75.5 -93 75.5 -272q0 -177 -76 -271.5t-216 -94.5t-215.5 93.5t-75.5 272.5q0 176 75.5 270.5t215.5 94.5q141 0 216.5 -93zM236.5 529.5q-24.5 -53.5 -24.5 -181.5q0 -129 24.5 -182.5t78.5 -53.5q38 0 60.5 22.5t33 74t10.5 139.5q0 128 -24.5 181.5 t-79.5 53.5q-54 0 -78.5 -53.5zM265 889q24 -24 24 -59q0 -36 -24 -60.5t-60 -24.5q-35 0 -59.5 24.5t-24.5 60.5q0 35 24.5 59t59.5 24q36 0 60 -24zM484 889q24 -24 24 -59q0 -36 -24 -60.5t-60 -24.5q-35 0 -59.5 24.5t-24.5 60.5q0 35 24.5 59t59.5 24q36 0 60 -24z M462 953h-290v118h290v-118z" />
<glyph unicode="&#x22b;" horiz-adv-x="536" d="M448.5 478.5q65.5 -72.5 65.5 -212.5q0 -134 -65.5 -209t-180.5 -75q-116 0 -181 72.5t-65 212.5q0 134 65.5 209t180.5 75t180.5 -72.5zM217 388q-16 -36 -16 -121q0 -88 15.5 -123.5t51.5 -35.5q35 0 51 36t16 122q0 87 -16 122.5t-51 35.5t-51 -36zM218 740 q24 -24 24 -59q0 -36 -24 -60.5t-60 -24.5q-35 0 -59.5 24.5t-24.5 60.5q0 35 24.5 59t59.5 24q36 0 60 -24zM437 740q24 -24 24 -59q0 -36 -24 -60.5t-60 -24.5q-35 0 -59.5 24.5t-24.5 60.5q0 35 24.5 59t59.5 24q36 0 60 -24zM413 805h-290v118h290v-118z" />
<glyph unicode="&#x22c;" horiz-adv-x="631" d="M531.5 620q75.5 -93 75.5 -272q0 -177 -76 -271.5t-216 -94.5t-215.5 93.5t-75.5 272.5q0 176 75.5 270.5t215.5 94.5q141 0 216.5 -93zM236.5 529.5q-24.5 -53.5 -24.5 -181.5q0 -129 24.5 -182.5t78.5 -53.5q38 0 60.5 22.5t33 74t10.5 139.5q0 128 -24.5 181.5 t-79.5 53.5q-54 0 -78.5 -53.5zM333 764.5q-15 6.5 -32 18.5q-12 8 -20 12t-17 4q-15 0 -24.5 -9.5t-22.5 -31.5l-81 38q18 54 51 88.5t74 34.5q21 0 37 -7t33 -19q2 -1 10 -6t14.5 -7.5t12.5 -2.5q14 0 24 9.5t22 31.5l81 -38q-18 -55 -50.5 -88.5t-75.5 -33.5 q-21 0 -36 6.5zM462 954h-290v118h290v-118z" />
<glyph unicode="&#x22d;" horiz-adv-x="536" d="M448.5 478.5q65.5 -72.5 65.5 -212.5q0 -134 -65.5 -209t-180.5 -75q-116 0 -181 72.5t-65 212.5q0 134 65.5 209t180.5 75t180.5 -72.5zM217 388q-16 -36 -16 -121q0 -88 15.5 -123.5t51.5 -35.5q35 0 51 36t16 122q0 87 -16 122.5t-51 35.5t-51 -36zM286 602.5 q-15 6.5 -32 18.5q-12 8 -20 12t-17 4q-15 0 -24.5 -9.5t-22.5 -31.5l-81 38q18 54 51 88.5t74 34.5q21 0 37 -7t33 -19q2 -1 10 -6t14.5 -7.5t12.5 -2.5q14 0 24 9.5t22 31.5l81 -38q-18 -55 -50.5 -88.5t-75.5 -33.5q-21 0 -36 6.5zM414 836h-290v118h290v-118z" />
<glyph unicode="&#x22e;" horiz-adv-x="631" d="M531.5 620q75.5 -93 75.5 -272q0 -177 -76 -271.5t-216 -94.5t-215.5 93.5t-75.5 272.5q0 176 75.5 270.5t215.5 94.5q141 0 216.5 -93zM236.5 529.5q-24.5 -53.5 -24.5 -181.5q0 -129 24.5 -182.5t78.5 -53.5q38 0 60.5 22.5t33 74t10.5 139.5q0 128 -24.5 181.5 t-79.5 53.5q-54 0 -78.5 -53.5zM385.5 916.5q27.5 -27.5 27.5 -68.5q0 -42 -27.5 -69t-70.5 -27t-70.5 27t-27.5 69q0 41 27.5 68.5t70.5 27.5t70.5 -27.5z" />
<glyph unicode="&#x22f;" horiz-adv-x="536" d="M448.5 478.5q65.5 -72.5 65.5 -212.5q0 -134 -65.5 -209t-180.5 -75q-116 0 -181 72.5t-65 212.5q0 134 65.5 209t180.5 75t180.5 -72.5zM217 388q-16 -36 -16 -121q0 -88 15.5 -123.5t51.5 -35.5q35 0 51 36t16 122q0 87 -16 122.5t-51 35.5t-51 -36zM338.5 790.5 q27.5 -27.5 27.5 -68.5q0 -42 -27.5 -69t-70.5 -27t-70.5 27t-27.5 69q0 41 27.5 68.5t70.5 27.5t70.5 -27.5z" />
<glyph unicode="&#x230;" horiz-adv-x="631" d="M531.5 620q75.5 -93 75.5 -272q0 -177 -76 -271.5t-216 -94.5t-215.5 93.5t-75.5 272.5q0 176 75.5 270.5t215.5 94.5q141 0 216.5 -93zM236.5 529.5q-24.5 -53.5 -24.5 -181.5q0 -129 24.5 -182.5t78.5 -53.5q38 0 60.5 22.5t33 74t10.5 139.5q0 128 -24.5 181.5 t-79.5 53.5q-54 0 -78.5 -53.5zM383.5 899.5q27.5 -27.5 27.5 -68.5q0 -42 -27.5 -69t-70.5 -27t-70.5 27t-27.5 69q0 41 27.5 68.5t70.5 27.5t70.5 -27.5zM459 953h-290v118h290v-118z" />
<glyph unicode="&#x237;" horiz-adv-x="260" d="M217 56q0 -116 -56.5 -178.5t-158.5 -101.5l-60 127q35 18 56 35t33 43.5t12 68.5v483h174v-477z" />
<glyph unicode="&#x259;" horiz-adv-x="511" d="M429 476q60 -75 60 -209q0 -129 -61.5 -207t-177.5 -78q-108 0 -170.5 70t-62.5 205q0 24 4 60h304q-3 60 -24.5 86t-61.5 26q-32 0 -60.5 -9.5t-60.5 -30.5l-69 93q82 69 198 69q122 0 182 -75zM304 127.5q18 24.5 21 87.5h-147v-8q1 -104 73 -104q35 0 53 24.5z" />
<glyph unicode="&#x278;" horiz-adv-x="621" d="M546 82q-57 -65 -149 -76l-1 -212l-174 -18l1 230q-90 12 -147.5 74.5t-57.5 183.5q0 122 56 186.5t148 76.5v216l174 17v-233q92 -11 149.5 -73.5t57.5 -184.5t-57 -187zM427.5 153.5q14.5 35.5 14.5 115.5q0 79 -15.5 112t-47.5 40v-309q34 6 48.5 41.5zM194.5 155.5 q15.5 -35.5 45.5 -43.5v308q-32 -7 -46.5 -41.5t-14.5 -114.5q0 -73 15.5 -108.5z" />
<glyph unicode="&#x292;" horiz-adv-x="472" d="M462 10q0 -67 -30 -120t-88 -83.5t-137 -30.5q-145 0 -225 105l90 86q35 -32 62 -46t61 -14q42 0 65.5 28t23.5 84q0 52 -25.5 74.5t-77.5 22.5h-85v97l145 192h-218v128h406v-118l-157 -202q190 -17 190 -203z" />
<glyph unicode="&#x2b9;" horiz-adv-x="302" d="M41 411l69 284h151l-109 -284h-111z" />
<glyph unicode="&#x2c6;" horiz-adv-x="424" d="M92 620l-59 64l130 145h104l130 -145l-59 -64l-123 93z" />
<glyph unicode="&#x2c7;" horiz-adv-x="424" d="M338 818l59 -65l-130 -145h-104l-130 145l59 65l123 -94z" />
<glyph unicode="&#x2d8;" horiz-adv-x="390" d="M80.5 680q-41.5 50 -47.5 132l91 16q16 -80 74 -80t74 80l91 -16q-6 -82 -47.5 -132t-117.5 -50t-117.5 50z" />
<glyph unicode="&#x2d9;" horiz-adv-x="256" d="M201.5 790.5q27.5 -27.5 27.5 -68.5q0 -42 -27.5 -69t-70.5 -27t-70.5 27t-27.5 69q0 41 27.5 68.5t70.5 27.5t70.5 -27.5z" />
<glyph unicode="&#x2da;" horiz-adv-x="334" d="M270 836q37 -39 37 -98q0 -60 -37 -99t-100 -39t-100 39t-37 99q0 59 37 98t100 39t100 -39zM133 738q0 -50 37 -50t37 50t-37 50t-37 -50z" />
<glyph unicode="&#x2db;" horiz-adv-x="284" d="M285 0q-60 -24 -82 -48.5t-22 -50.5q0 -23 12.5 -34.5t34.5 -11.5t54 8l-10 -104q-32 -8 -66 -8q-64 0 -104.5 32t-40.5 88q0 68 52.5 111t144.5 73z" />
<glyph unicode="&#x2dc;" horiz-adv-x="419" d="M227 639.5q-15 6.5 -32 18.5q-12 8 -20 12t-17 4q-15 0 -24.5 -9.5t-22.5 -31.5l-81 38q18 54 51 88.5t74 34.5q21 0 37 -7t33 -19q2 -1 10 -6t14.5 -7.5t12.5 -2.5q14 0 24 9.5t22 31.5l81 -38q-18 -55 -50.5 -88.5t-75.5 -33.5q-21 0 -36 6.5z" />
<glyph unicode="&#x2dd;" horiz-adv-x="422" d="M116 866l109 -52l-109 -187l-85 35zM285 866l108 -56l-117 -187l-83 40z" />
<glyph unicode="&#x300;" horiz-adv-x="0" d="M-234 840l204 -136l-47 -85l-224 96z" />
<glyph unicode="&#x301;" horiz-adv-x="0" d="M-97 840l67 -125l-224 -96l-47 85z" />
<glyph unicode="&#x302;" horiz-adv-x="0" d="M-335 620l-59 64l130 145h104l130 -145l-59 -64l-123 93z" />
<glyph unicode="&#x303;" horiz-adv-x="0" d="M-192 639.5q-15 6.5 -32 18.5q-12 8 -20 12t-17 4q-15 0 -24.5 -9.5t-22.5 -31.5l-81 38q18 54 51 88.5t74 34.5q21 0 37 -7t33 -19q2 -1 10 -6t14.5 -7.5t12.5 -2.5q14 0 24 9.5t22 31.5l81 -38q-18 -55 -50.5 -88.5t-75.5 -33.5q-21 0 -36 6.5z" />
<glyph unicode="&#x304;" horiz-adv-x="0" d="M-30 653h-290v118h290v-118z" />
<glyph unicode="&#x306;" horiz-adv-x="0" d="M-312.5 680q-41.5 50 -47.5 132l91 16q16 -80 74 -80t74 80l91 -16q-6 -82 -47.5 -132t-117.5 -50t-117.5 50z" />
<glyph unicode="&#x307;" horiz-adv-x="0" d="M-57.5 790.5q27.5 -27.5 27.5 -68.5q0 -42 -27.5 -69t-70.5 -27t-70.5 27t-27.5 69q0 41 27.5 68.5t70.5 27.5t70.5 -27.5z" />
<glyph unicode="&#x308;" horiz-adv-x="0" d="M-273 782q24 -24 24 -59q0 -36 -24 -60.5t-60 -24.5q-35 0 -59.5 24.5t-24.5 60.5q0 35 24.5 59t59.5 24q36 0 60 -24zM-54 782q24 -24 24 -59q0 -36 -24 -60.5t-60 -24.5q-35 0 -59.5 24.5t-24.5 60.5q0 35 24.5 59t59.5 24q36 0 60 -24z" />
<glyph unicode="&#x309;" horiz-adv-x="0" d="M-200 704q35 2 49.5 10t14.5 27q0 15 -9 22.5t-24 7.5q-16 0 -28 -3t-28 -10l-26 69q44 26 105 26q58 0 89 -28.5t31 -74.5q0 -40 -19.5 -64t-57.5 -32v-51h-97v101z" />
<glyph unicode="&#x30a;" horiz-adv-x="0" d="M-67 836q37 -39 37 -98q0 -60 -37 -99t-100 -39t-100 39t-37 99q0 59 37 98t100 39t100 -39zM-204 738q0 -50 37 -50t37 50t-37 50t-37 -50z" />
<glyph unicode="&#x30b;" horiz-adv-x="0" d="M-307 866l109 -52l-109 -187l-85 35zM-138 866l108 -56l-117 -187l-83 40z" />
<glyph unicode="&#x30c;" horiz-adv-x="0" d="M-89 818l59 -65l-130 -145h-104l-130 145l59 65l123 -94z" />
<glyph unicode="&#x30f;" horiz-adv-x="0" d="M-284 866l91 -203l-82 -40l-117 187zM-115 866l85 -204l-85 -35l-110 187z" />
<glyph unicode="&#x311;" horiz-adv-x="0" d="M-77.5 746q41.5 -50 47.5 -132l-91 -16q-16 80 -74 80t-74 -80l-91 16q6 82 47.5 132t117.5 50t117.5 -50z" />
<glyph unicode="&#x312;" horiz-adv-x="0" d="M-171 598.5q-23 23.5 -23 59.5q0 19 5.5 36t19.5 50l44 98h83l-26 -115q37 -26 37 -69q0 -34 -23 -58.5t-58 -24.5q-36 0 -59 23.5z" />
<glyph unicode="&#x323;" horiz-adv-x="0" d="M-198.5 -222.5q-27.5 27.5 -27.5 68.5q0 42 27.5 69t70.5 27t70.5 -27t27.5 -69q0 -41 -27.5 -68.5t-70.5 -27.5t-70.5 27.5z" />
<glyph unicode="&#x326;" horiz-adv-x="0" d="M-53 -88.5q23 -23.5 23 -59.5q0 -19 -5.5 -36t-19.5 -50l-44 -98h-83l26 115q-37 26 -37 69q0 34 23 58.5t58 24.5q36 0 59 -23.5z" />
<glyph unicode="&#x327;" horiz-adv-x="0" d="M-128 -49q98 -14 98 -100q0 -52 -39 -85t-107 -33q-33 0 -61.5 9t-49.5 23l38 75q30 -15 59 -15q39 0 39 28q0 17 -20 24.5t-64 7.5l15 131h92v-65z" />
<glyph unicode="&#x328;" horiz-adv-x="0" d="M-30 0q-60 -24 -82 -48.5t-22 -50.5q0 -23 12.5 -34.5t34.5 -11.5t54 8l-10 -104q-32 -8 -66 -8q-64 0 -104.5 32t-40.5 88q0 68 52.5 111t144.5 73z" />
<glyph unicode="&#x32d;" horiz-adv-x="0" d="M-335 -271l-59 64l130 145h104l130 -145l-59 -64l-123 93z" />
<glyph unicode="&#x331;" horiz-adv-x="0" d="M-30 -195h-290v118h290v-118z" />
<glyph unicode="&#x345;" horiz-adv-x="0" d="M-232 -171.5q-33 35.5 -33 92.5v36h117v-33q0 -35 35 -35q19 0 42 14l41 -72q-22 -18 -47.5 -28t-60.5 -10q-61 0 -94 35.5z" />
<glyph unicode="&#x370;" horiz-adv-x="475" d="M474 290h-248v-290h-181v695h181v-265h248v-140z" />
<glyph unicode="&#x371;" horiz-adv-x="432" d="M418 204h-199v-204h-174v389q0 75 -17 136l159 21q16 -33 24 -74t8 -117v-18h199v-133z" />
<glyph unicode="&#x372;" horiz-adv-x="620" d="M5 695h610v-321h-152v187h-63v-561h-180v561h-63v-188h-152v322z" />
<glyph unicode="&#x373;" horiz-adv-x="481" d="M330 405v-611l-174 -18v629h-53q-32 0 -47 -2t-34 -9l-31 114q27 13 60 19t94 6h335l1 -128h-151z" />
<glyph unicode="&#x374;" horiz-adv-x="302" d="M41 411l69 284h151l-109 -284h-111z" />
<glyph unicode="&#x375;" horiz-adv-x="302" d="M261 150l-69 -284h-151l109 284h111z" />
<glyph unicode="&#x376;" horiz-adv-x="594" d="M550 0h-172v241q0 77 5.5 142t15.5 137l-142 -520h-212v695h171v-247q0 -78 -5 -134.5t-16 -137.5l144 519h211v-695z" />
<glyph unicode="&#x377;" horiz-adv-x="533" d="M493 133.5q8 -15.5 29 -26.5l-49 -125q-145 32 -145 161q0 44 13 120t28 138l-156 -401h-170v533h164v-181q0 -96 -24 -190l148 371h154v-355q0 -29 8 -44.5z" />
<glyph unicode="&#x37a;" horiz-adv-x="382" d="M63 -171.5q-33 35.5 -33 92.5v36h117v-33q0 -35 35 -35q19 0 42 14l41 -72q-22 -18 -47.5 -28t-60.5 -10q-61 0 -94 35.5z" />
<glyph unicode="&#x37b;" horiz-adv-x="469" d="M378.5 475.5q68.5 -75.5 68.5 -213.5q0 -135 -71 -207.5t-194 -72.5q-60 0 -103.5 16t-84.5 48l74 104q29 -18 50.5 -25t50.5 -7q46 0 71.5 31t25.5 114q0 85 -23.5 120t-68.5 35q-56 0 -108 -36l-72 101q44 35 89.5 51.5t107.5 16.5q119 0 187.5 -75.5z" />
<glyph unicode="&#x37c;" horiz-adv-x="469" d="M389.5 534.5q42.5 -16.5 85.5 -51.5l-72 -100q-27 19 -50 27t-51 8q-48 0 -73.5 -35t-25.5 -120q0 -81 25.5 -113t71.5 -32q29 0 50.5 7.5t48.5 24.5l76 -104q-41 -32 -84.5 -48t-103.5 -16q-123 0 -194 72.5t-71 207.5q0 88 33.5 153t93.5 100.5t137 35.5 q61 0 103.5 -16.5zM379 321q23 -23 23 -57q0 -35 -23 -58t-59 -23t-59 23t-23 58q0 34 23 57t59 23t59 -23z" />
<glyph unicode="&#x37d;" horiz-adv-x="469" d="M378.5 475.5q68.5 -75.5 68.5 -213.5q0 -135 -71 -207.5t-194 -72.5q-60 0 -103.5 16t-84.5 48l74 104q29 -18 50.5 -25t50.5 -7q46 0 71.5 31t25.5 114q0 85 -23.5 120t-68.5 35q-56 0 -108 -36l-72 101q44 35 89.5 51.5t107.5 16.5q119 0 187.5 -75.5zM210 321 q23 -23 23 -57q0 -35 -23 -58t-59 -23t-59 23t-23 58q0 34 23 57t59 23t59 -23z" />
<glyph unicode="&#x37e;" horiz-adv-x="231" d="M180 145.5q26 -26.5 26 -67.5q0 -20 -7.5 -43t-27.5 -73l-57 -142h-90l40 178q-43 29 -43 80q0 41 26.5 67.5t66.5 26.5t66 -26.5zM182 482.5q27 -28.5 27 -66.5q0 -40 -26.5 -67.5t-67.5 -27.5q-40 0 -67 28t-27 67q0 38 27 66.5t67 28.5t67 -28.5z" />
<glyph unicode="&#x384;" horiz-adv-x="226" d="M30 844l166 -13l-47 -235h-108z" />
<glyph unicode="&#x385;" horiz-adv-x="490" d="M190 958l143 -10l-41 -203h-93zM174 739.5q24 -24.5 24 -59.5q0 -36 -24 -60.5t-60 -24.5t-60 24.5t-24 60.5q0 35 24 59.5t60 24.5t60 -24.5zM436 739.5q24 -24.5 24 -59.5q0 -36 -24 -60.5t-60 -24.5t-60 24.5t-24 60.5q0 35 24 59.5t60 24.5t60 -24.5z" />
<glyph unicode="&#x386;" horiz-adv-x="669" d="M499 0l-27 144h-158l-27 -144h-184l184 695h216l183 -695h-187zM338 272h110l-55 293zM65 707l166 -12l-47 -236h-108z" />
<glyph unicode="&#x388;" horiz-adv-x="687" d="M669 695l-19 -128h-208v-152h183v-125h-183v-161h222v-129h-403v695h408zM65 707l166 -12l-47 -236h-108z" />
<glyph unicode="&#x389;" horiz-adv-x="815" d="M590 0v290h-148v-290h-181v695h181v-265h148v265h181v-695h-181zM65 706l166 -12l-47 -236h-108z" />
<glyph unicode="&#x38a;" horiz-adv-x="486" d="M442 695v-695h-181v695h181zM65 707l166 -12l-47 -236h-108z" />
<glyph unicode="&#x38c;" horiz-adv-x="797" d="M697.5 620q75.5 -93 75.5 -272q0 -177 -76 -271.5t-216 -94.5t-215.5 93.5t-75.5 272.5q0 176 75.5 270.5t215.5 94.5q141 0 216.5 -93zM402.5 529.5q-24.5 -53.5 -24.5 -181.5q0 -129 24.5 -182.5t78.5 -53.5q38 0 60.5 22.5t33 74t10.5 139.5q0 128 -24.5 181.5 t-79.5 53.5q-54 0 -78.5 -53.5zM56 707l166 -12l-47 -236h-108z" />
<glyph unicode="&#x38e;" horiz-adv-x="815" d="M828 695l-200 -436v-259h-181v258l-200 437h193l100 -298l101 298h187zM64 706l166 -12l-47 -236h-108z" />
<glyph unicode="&#x38f;" horiz-adv-x="801" d="M647 670q66 -43 100.5 -118t34.5 -169q0 -92 -32.5 -154.5t-95.5 -100.5h109v-128h-246v120q35 18 51.5 50.5t21 79.5t4.5 133q0 105 -25 152.5t-79 47.5t-78.5 -47.5t-24.5 -152.5q0 -87 4.5 -133.5t21 -78.5t51.5 -51v-120h-246v128h108q-62 38 -94.5 100.5 t-32.5 154.5q0 93 34.5 168t100.5 118.5t156 43.5q91 0 157 -43zM55 707l166 -12l-47 -236h-108z" />
<glyph unicode="&#x390;" horiz-adv-x="261" d="M213 178q0 -29 8.5 -45t28.5 -27l-49 -124q-79 13 -120.5 56t-41.5 122v373h174v-355zM71 958l143 -10l-41 -203h-93zM55 739.5q24 -24.5 24 -59.5q0 -36 -24 -60.5t-60 -24.5t-60 24.5t-24 60.5q0 35 24 59.5t60 24.5t60 -24.5zM317 739.5q24 -24.5 24 -59.5 q0 -36 -24 -60.5t-60 -24.5t-60 24.5t-24 60.5q0 35 24 59.5t60 24.5t60 -24.5z" />
<glyph unicode="&#x391;" horiz-adv-x="549" d="M379 0l-27 144h-158l-27 -144h-184l184 695h216l183 -695h-187zM218 272h110l-55 293z" />
<glyph unicode="&#x392;" horiz-adv-x="563" d="M508 315.5q40 -37.5 40 -111.5q0 -110 -76.5 -157t-210.5 -47h-216v695h192q137 0 211 -43.5t74 -135.5q0 -60 -34 -97t-86 -51q66 -15 106 -52.5zM226 569v-149h32q44 0 62.5 19t18.5 59q0 36 -20 53.5t-65 17.5h-28zM337.5 148.5q25.5 19.5 25.5 66.5q0 45 -23.5 66.5 t-70.5 21.5h-43v-174h37q49 0 74.5 19.5z" />
<glyph unicode="&#x393;" horiz-adv-x="463" d="M467 695l-18 -141h-223v-554h-181v695h422z" />
<glyph unicode="&#x394;" horiz-adv-x="556" d="M387 695l186 -695h-590l187 695h217zM277 563l-83 -432h165z" />
<glyph unicode="&#x395;" horiz-adv-x="472" d="M453 695l-19 -128h-208v-152h183v-125h-183v-161h222v-129h-403v695h408z" />
<glyph unicode="&#x396;" horiz-adv-x="499" d="M478 695v-136l-262 -416h269l-17 -143h-458v134l265 422h-240v139h443z" />
<glyph unicode="&#x397;" horiz-adv-x="599" d="M374 0v290h-148v-290h-181v695h181v-265h148v265h181v-695h-181z" />
<glyph unicode="&#x398;" horiz-adv-x="631" d="M531.5 620q75.5 -93 75.5 -272q0 -177 -76 -271.5t-216 -94.5t-215.5 93.5t-75.5 272.5q0 176 75.5 270.5t215.5 94.5q141 0 216.5 -93zM227 529.5q-27 -53.5 -27 -181.5q0 -88 12 -139.5t37 -74t66 -22.5q42 0 67 22.5t37 74t12 139.5q0 128 -27 181.5t-89 53.5 q-61 0 -88 -53.5zM398 401v-98h-165v98h165z" />
<glyph unicode="&#x399;" horiz-adv-x="270" d="M226 695v-695h-181v695h181z" />
<glyph unicode="&#x39a;" horiz-adv-x="595" d="M226 695v-695h-181v695h181zM595 695l-182 -311l198 -384h-201l-179 370l182 325h182z" />
<glyph unicode="&#x39b;" horiz-adv-x="549" d="M383 695l183 -695h-189l-104 565l-104 -565h-186l184 695h216z" />
<glyph unicode="&#x39c;" horiz-adv-x="723" d="M702 0h-175l-5 262q-2 86 -2 129q0 83 4 150l-78 -469h-170l-83 469q7 -112 7 -211q0 -45 -1 -69l-6 -261h-172l45 695h223l75 -463l67 463h225z" />
<glyph unicode="&#x39d;" horiz-adv-x="594" d="M550 0h-224l-148 530q12 -89 17.5 -148t5.5 -143v-239h-156v695h221l151 -532q-11 73 -17.5 134.5t-6.5 139.5v258h157v-695z" />
<glyph unicode="&#x39e;" horiz-adv-x="477" d="M463 695l-20 -150h-424v150h444zM400 422v-139h-322v139h322zM459 154v-154h-440v154h440z" />
<glyph unicode="&#x39f;" horiz-adv-x="631" d="M531.5 620q75.5 -93 75.5 -272q0 -177 -76 -271.5t-216 -94.5t-215.5 93.5t-75.5 272.5q0 176 75.5 270.5t215.5 94.5q141 0 216.5 -93zM236.5 529.5q-24.5 -53.5 -24.5 -181.5q0 -129 24.5 -182.5t78.5 -53.5q38 0 60.5 22.5t33 74t10.5 139.5q0 128 -24.5 181.5 t-79.5 53.5q-54 0 -78.5 -53.5z" />
<glyph unicode="&#x3a0;" horiz-adv-x="599" d="M555 695v-695h-182v557h-147v-557h-181v695h510z" />
<glyph unicode="&#x3a1;" horiz-adv-x="551" d="M465 636.5q73 -58.5 73 -171.5q0 -117 -70 -178.5t-192 -61.5h-50v-225h-181v695h211q136 0 209 -58.5zM330.5 380q22.5 26 22.5 85q0 52 -22 77.5t-72 25.5h-33v-214h33q49 0 71.5 26z" />
<glyph unicode="&#x3a3;" horiz-adv-x="453" d="M443 695v-130h-244l145 -190v-67l-149 -176h248v-132h-433v129l171 211l-171 226v129h433z" />
<glyph unicode="&#x3a4;" horiz-adv-x="497" d="M501 695l-19 -137h-143v-558h-181v558h-153v137h496z" />
<glyph unicode="&#x3a5;" horiz-adv-x="555" d="M568 695l-200 -436v-259h-181v258l-200 437h193l100 -298l101 298h187z" />
<glyph unicode="&#x3a6;" horiz-adv-x="774" d="M687.5 152.5q-78.5 -67.5 -213.5 -75.5v-77h-176v77q-133 8 -212 74.5t-79 193.5q0 129 78.5 196.5t212.5 73.5v80h176v-80q134 -7 213 -73t79 -192q0 -130 -78.5 -197.5zM555.5 232q27.5 42 27.5 118q0 74 -28.5 114t-88.5 47v-329q62 8 89.5 50zM218.5 229.5 q28.5 -40.5 88.5 -47.5v329q-63 -7 -90 -48t-27 -118q0 -75 28.5 -115.5z" />
<glyph unicode="&#x3a7;" horiz-adv-x="543" d="M376 374l175 -374h-192l-92 254l-87 -254h-188l168 369l-157 326h192l74 -214l81 214h188z" />
<glyph unicode="&#x3a8;" horiz-adv-x="671" d="M661 695v-275q0 -99 -59 -161t-176 -79v-180h-181v179q-117 16 -176 77.5t-59 163.5v275h172v-281q0 -51 16 -76.5t56 -35.5v393h163v-392q39 10 55.5 36t16.5 75v281h172z" />
<glyph unicode="&#x3a9;" horiz-adv-x="621" d="M467 670q66 -43 100.5 -118t34.5 -169q0 -92 -32.5 -154.5t-95.5 -100.5h109v-128h-246v120q35 18 51.5 50.5t21 79.5t4.5 133q0 105 -25 152.5t-79 47.5t-78.5 -47.5t-24.5 -152.5q0 -87 4.5 -133.5t21 -78.5t51.5 -51v-120h-246v128h108q-62 38 -94.5 100.5 t-32.5 154.5q0 93 34.5 168t100.5 118.5t156 43.5q91 0 157 -43z" />
<glyph unicode="&#x3aa;" horiz-adv-x="270" d="M226 695v-695h-181v695h181zM86 908q24 -24 24 -59q0 -36 -24 -60.5t-60 -24.5q-35 0 -59.5 24.5t-24.5 60.5q0 35 24.5 59t59.5 24q36 0 60 -24zM305 908q24 -24 24 -59q0 -36 -24 -60.5t-60 -24.5q-35 0 -59.5 24.5t-24.5 60.5q0 35 24.5 59t59.5 24q36 0 60 -24z" />
<glyph unicode="&#x3ab;" horiz-adv-x="555" d="M568 695l-200 -436v-259h-181v258l-200 437h193l100 -298l101 298h187zM228 908q24 -24 24 -59q0 -36 -24 -60.5t-60 -24.5q-35 0 -59.5 24.5t-24.5 60.5q0 35 24.5 59t59.5 24q36 0 60 -24zM447 908q24 -24 24 -59q0 -36 -24 -60.5t-60 -24.5q-35 0 -59.5 24.5 t-24.5 60.5q0 35 24.5 59t59.5 24q36 0 60 -24z" />
<glyph unicode="&#x3ac;" horiz-adv-x="549" d="M321 517.5q36 -33.5 48 -93.5l13 109h142l-70 -271l24 -98q7 -25 21 -37.5t35 -16.5l-55 -128q-49 6 -77.5 28.5t-37.5 65.5l-6 28q-21 -62 -56.5 -92t-90.5 -30q-88 0 -138.5 71t-50.5 209q0 87 25 152t71 101t108 36q59 0 95 -33.5zM195 262q0 -85 15 -120t42 -35 t44 35.5t30 130.5q-10 60 -19 92t-21.5 46t-30.5 14q-60 0 -60 -163zM194 844l166 -13l-47 -235h-108z" />
<glyph unicode="&#x3ad;" horiz-adv-x="444" d="M435 488l-67 -87q-27 16 -50 23.5t-49 7.5q-25 0 -39.5 -13t-14.5 -38q0 -55 58 -55h58l-16 -107h-49q-35 0 -50 -14.5t-15 -42.5q0 -58 67 -58q25 0 50 8.5t58 27.5l71 -94q-80 -64 -208 -64q-96 0 -156.5 43t-60.5 121q0 58 34 92t104 45q-120 27 -120 121q0 67 56 107 t146 40q111 0 193 -63zM178 844l166 -13l-47 -235h-108z" />
<glyph unicode="&#x3ae;" horiz-adv-x="521" d="M447 509.5q35 -41.5 35 -114.5v-618l-174 17v579q0 26 -7.5 37t-21.5 11q-29 0 -60 -52v-369h-174v389q0 76 -17 136l159 21q15 -30 21 -70q31 38 65 56.5t77 18.5q62 0 97 -41.5zM196 844l166 -13l-47 -235h-108z" />
<glyph unicode="&#x3af;" horiz-adv-x="261" d="M213 178q0 -29 8.5 -45t28.5 -27l-49 -124q-79 13 -120.5 56t-41.5 122v373h174v-355zM61 844l166 -13l-47 -235h-108z" />
<glyph unicode="&#x3b0;" horiz-adv-x="513" d="M478 389q7 -66 7 -139q0 -140 -71 -204t-175 -64q-89 0 -144.5 48.5t-55.5 143.5v359h174v-363q0 -34 9.5 -48t29.5 -14q27 0 43 34.5t16 117.5q0 110 -23 273h170q13 -78 20 -144zM196 958l143 -10l-41 -203h-93zM180 739.5q24 -24.5 24 -59.5q0 -36 -24 -60.5 t-60 -24.5t-60 24.5t-24 60.5q0 35 24 59.5t60 24.5t60 -24.5zM442 739.5q24 -24.5 24 -59.5q0 -36 -24 -60.5t-60 -24.5t-60 24.5t-24 60.5q0 35 24 59.5t60 24.5t60 -24.5z" />
<glyph unicode="&#x3b1;" horiz-adv-x="549" d="M321 517.5q36 -33.5 48 -93.5l13 109h142l-70 -271l24 -98q7 -25 21 -37.5t35 -16.5l-55 -128q-49 6 -77.5 28.5t-37.5 65.5l-6 28q-21 -62 -56.5 -92t-90.5 -30q-88 0 -138.5 71t-50.5 209q0 87 25 152t71 101t108 36q59 0 95 -33.5zM195 262q0 -85 15 -120t42 -35 t44 35.5t30 130.5q-10 60 -19 92t-21.5 46t-30.5 14q-60 0 -60 -163z" />
<glyph unicode="&#x3b2;" horiz-adv-x="556" d="M538 208q0 -68 -26.5 -119.5t-73 -79t-105.5 -27.5q-69 0 -124 37v-220l-166 -24v772q0 104 62.5 159t162.5 55q104 0 161 -52.5t57 -138.5q0 -67 -30 -108t-95 -56q177 -21 177 -198zM363 224q0 63 -26 89.5t-67 26.5h-28l9 116h13q53 0 53 98q0 47 -13 67t-39 20 q-29 0 -42.5 -21t-13.5 -71v-420q30 -15 70 -15q84 0 84 110z" />
<glyph unicode="&#x3b3;" horiz-adv-x="474" d="M239 173l76 377l170 -36l-164 -486q-14 -41 -20.5 -73.5t-6.5 -67.5q0 -40 9 -95l-138 -16q-30 66 -30 122q0 45 22 114q-33 162 -81.5 290t-94.5 195l156 53q74 -99 102 -377z" />
<glyph unicode="&#x3b4;" horiz-adv-x="529" d="M426.5 455.5q41.5 -35.5 61 -85t19.5 -121.5q0 -128 -65.5 -197.5t-177.5 -69.5q-115 0 -178.5 66.5t-63.5 193.5q0 149 138 217q-54 32 -72 64.5t-18 78.5q0 69 52.5 114t157.5 45q55 0 101.5 -17.5t78.5 -45.5l-74 -87q-47 31 -95 31q-29 0 -43.5 -11.5t-14.5 -31.5 q0 -16 5.5 -26t22.5 -21t53 -28q71 -33 112.5 -68.5zM312.5 138.5q15.5 30.5 15.5 106.5q0 51 -5.5 79.5t-22.5 49t-54 41.5q-29 -31 -38 -69.5t-9 -100.5q0 -76 15 -106.5t49 -30.5t49.5 30.5z" />
<glyph unicode="&#x3b5;" horiz-adv-x="444" d="M435 488l-67 -87q-27 16 -50 23.5t-49 7.5q-25 0 -39.5 -13t-14.5 -38q0 -55 58 -55h58l-16 -107h-49q-35 0 -50 -14.5t-15 -42.5q0 -58 67 -58q25 0 50 8.5t58 27.5l71 -94q-80 -64 -208 -64q-96 0 -156.5 43t-60.5 121q0 58 34 92t104 45q-120 27 -120 121q0 67 56 107 t146 40q111 0 193 -63z" />
<glyph unicode="&#x3b6;" horiz-adv-x="393" d="M413 653q-128 -120 -175 -212t-47 -177q0 -55 21 -83.5t80 -57.5q60 -29 87 -61t27 -89q0 -63 -42.5 -110t-132.5 -87l-62 101q33 22 48 39.5t15 41.5q0 21 -13 34.5t-51 32.5q-60 30 -92.5 58.5t-48 68.5t-15.5 101q0 96 65.5 197t192.5 189q-21 -7 -56 -12.5t-64 -5.5 h-122l18 122h344z" />
<glyph unicode="&#x3b7;" horiz-adv-x="521" d="M447 509.5q35 -41.5 35 -114.5v-618l-174 17v579q0 26 -7.5 37t-21.5 11q-29 0 -60 -52v-369h-174v389q0 76 -17 136l159 21q15 -30 21 -70q31 38 65 56.5t77 18.5q62 0 97 -41.5z" />
<glyph unicode="&#x3b8;" horiz-adv-x="511" d="M430 666.5q59 -94.5 59 -293.5q0 -202 -59 -296.5t-174 -94.5q-116 0 -175 94t-59 297q0 199 59 293.5t175 94.5q115 0 174 -94.5zM215 621q-15 -16 -23.5 -62.5t-10.5 -136.5h148q-2 91 -10 137t-23 62t-40 16q-26 0 -41 -16zM295 122.5q15 16.5 23.5 64t10.5 138.5 h-147q2 -92 10.5 -139t23.5 -63.5t40 -16.5q24 0 39 16.5z" />
<glyph unicode="&#x3b9;" horiz-adv-x="261" d="M213 178q0 -29 8.5 -45t28.5 -27l-49 -124q-79 13 -120.5 56t-41.5 122v373h174v-355z" />
<glyph unicode="&#x3ba;" horiz-adv-x="514" d="M398 286l88 -139q8 -14 16.5 -22t21.5 -13l-59 -130q-51 5 -85 27t-59 75l-98 197l141 267l151 -61zM211 472q8 -41 8 -117v-355h-174v389q0 75 -17 136l159 21q16 -33 24 -74z" />
<glyph unicode="&#x3bb;" horiz-adv-x="496" d="M220.5 721q56.5 -25 94.5 -78.5t57 -147.5q42 -204 70 -296.5t73 -162.5l-167 -54q-40 77 -61.5 164t-42.5 252l-69 -416l-172 36l143 514h55q-12 37 -28.5 58t-43.5 33t-74 20l19 117q90 -14 146.5 -39z" />
<glyph unicode="&#x3bc;" horiz-adv-x="526" d="M339 -18q-8 19 -12 35.5t-8 43.5q-36 -68 -87 -68q-21 0 -38.5 8.5t-34.5 31.5q25 -39 36 -70.5t11 -83.5v-85l-163 -16v755h174v-373q0 -44 31 -44t55 50v367h174v-350q0 -97 21 -183z" />
<glyph unicode="&#x3bd;" horiz-adv-x="474" d="M197 401q27 -105 40 -263l79 412l168 -35l-151 -515h-201q-31 191 -67.5 318t-83.5 180l156 53q33 -45 60 -150z" />
<glyph unicode="&#x3be;" horiz-adv-x="414" d="M354.5 746q42.5 -15 79.5 -46l-71 -90q-24 17 -41 24t-39 7q-27 0 -41.5 -19.5t-14.5 -53.5q0 -37 17 -57t52 -20h47l-16 -113h-36q-45 0 -71 -28t-26 -78q0 -37 11.5 -61t36.5 -42t73 -42q63 -31 91 -63.5t28 -90.5q0 -63 -42.5 -110.5t-132.5 -87.5l-62 102 q32 22 47 39t15 40t-13 37t-59 38q-60 31 -94 56t-55.5 66t-21.5 105q0 154 160 187q-63 17 -94 52.5t-31 93.5q0 50 27 88.5t73.5 60t103.5 21.5t99.5 -15z" />
<glyph unicode="&#x3bf;" horiz-adv-x="536" d="M448.5 478.5q65.5 -72.5 65.5 -212.5q0 -134 -65.5 -209t-180.5 -75q-116 0 -181 72.5t-65 212.5q0 134 65.5 209t180.5 75t180.5 -72.5zM217 388q-16 -36 -16 -121q0 -88 15.5 -123.5t51.5 -35.5q35 0 51 36t16 122q0 87 -16 122.5t-51 35.5t-51 -36z" />
<glyph unicode="&#x3c0;" horiz-adv-x="562" d="M498 405v-227q0 -30 8 -45.5t29 -26.5l-50 -124q-79 13 -120 56t-41 122v245h-76v-405h-170v405q-17 -1 -28.5 -3t-26.5 -8l-31 114q27 13 60 19t94 6h400v-128h-48z" />
<glyph unicode="&#x3c1;" horiz-adv-x="538" d="M449 480q62 -71 62 -212q0 -81 -24 -146.5t-67.5 -102.5t-99.5 -37q-70 0 -112 54v-243l-174 -17v506q0 269 236 269q117 0 179 -71zM333 266q0 65 -7.5 100t-21 47.5t-34.5 12.5q-34 0 -48 -34t-14 -119v-126q13 -21 27 -30.5t32 -9.5q66 0 66 159z" />
<glyph unicode="&#x3c2;" horiz-adv-x="438" d="M366 534q42 -17 78 -51l-72 -98q-44 35 -85 35t-62.5 -32.5t-21.5 -110.5q0 -42 8.5 -67.5t30.5 -45t64 -40.5q58 -30 85 -62.5t27 -88.5q0 -63 -42.5 -110.5t-132.5 -87.5l-62 102q34 25 48.5 40.5t14.5 39.5q0 22 -14 36t-58 36q-49 24 -81 53t-50.5 76t-18.5 119 q0 80 31 142.5t88 97t131 34.5q52 0 94 -17z" />
<glyph unicode="&#x3c3;" horiz-adv-x="551" d="M550 407l-95 7q31 -25 45 -62.5t14 -93.5q0 -129 -66 -202.5t-180 -73.5q-116 0 -181 72.5t-65 212.5q0 129 66.5 201.5t198.5 72.5q115 0 263 -9v-125zM319 143q16 35 16 115q0 65 -5.5 102.5t-17.5 57.5q-44 -1 -67.5 -13t-33.5 -44t-10 -95q0 -88 15.5 -123t51.5 -35 q35 0 51 35z" />
<glyph unicode="&#x3c4;" horiz-adv-x="445" d="M312 405v-227q0 -29 8.5 -45t28.5 -27l-49 -124q-79 13 -120.5 56t-41.5 122v245h-34q-33 0 -48 -2t-34 -9l-31 114q27 13 59.5 19t91.5 6h302v-128h-132z" />
<glyph unicode="&#x3c5;" horiz-adv-x="513" d="M478 389q7 -66 7 -139q0 -140 -71 -204t-175 -64q-89 0 -144.5 48.5t-55.5 143.5v359h174v-363q0 -34 9.5 -48t29.5 -14q27 0 43 34.5t16 117.5q0 110 -23 273h170q13 -78 20 -144z" />
<glyph unicode="&#x3c6;" horiz-adv-x="697" d="M612 63.5q-58 -66.5 -185 -79.5v-191l-161 -17v208q-123 13 -183.5 78t-60.5 179q0 139 55 292h161q-24 -84 -36.5 -147.5t-12.5 -131.5q0 -75 17 -109.5t60 -43.5v227q0 105 50.5 164t146.5 59q106 0 156.5 -67.5t50.5 -213.5q0 -140 -58 -206.5zM475 122 q16 16 22.5 49.5t6.5 96.5q0 71 -4.5 107.5t-13 48.5t-23.5 12q-19 0 -27.5 -18t-8.5 -70v-247q32 5 48 21z" />
<glyph unicode="&#x3c7;" horiz-adv-x="465" d="M482 -195l-168 -29l-84 274l-76 -274l-173 18l163 388q-53 127 -88.5 195.5t-79.5 118.5l166 51q32 -59 50 -106t42 -147l54 252l173 -18l-140 -343z" />
<glyph unicode="&#x3c8;" horiz-adv-x="719" d="M626 61.5q-66 -65.5 -182 -77.5v-190l-165 -18v208q-120 11 -181.5 66.5t-61.5 142.5v340h169v-330q0 -43 17 -67t57 -31v428h165v-427q40 10 59 45t19 99q0 120 -23 283h166q27 -144 27 -288q0 -118 -66 -183.5z" />
<glyph unicode="&#x3c9;" horiz-adv-x="700" d="M678 243q0 -132 -49 -196.5t-135 -64.5q-61 0 -97 27.5t-48 89.5q-15 -63 -48.5 -90t-92.5 -27q-88 0 -137 64t-49 197q0 155 58 290h154q-20 -79 -31.5 -146.5t-11.5 -134.5q0 -81 11.5 -112.5t34.5 -31.5q18 0 26.5 14t8.5 53v180l156 21v-201q0 -38 9 -52.5t27 -14.5 q23 0 34 30t11 115q0 66 -11.5 133.5t-31.5 146.5h154q58 -135 58 -290z" />
<glyph unicode="&#x3ca;" horiz-adv-x="261" d="M213 178q0 -29 8.5 -45t28.5 -27l-49 -124q-79 13 -120.5 56t-41.5 122v373h174v-355zM76 782q24 -24 24 -59q0 -36 -24 -60.5t-60 -24.5q-35 0 -59.5 24.5t-24.5 60.5q0 35 24.5 59t59.5 24q36 0 60 -24zM295 782q24 -24 24 -59q0 -36 -24 -60.5t-60 -24.5 q-35 0 -59.5 24.5t-24.5 60.5q0 35 24.5 59t59.5 24q36 0 60 -24z" />
<glyph unicode="&#x3cb;" horiz-adv-x="513" d="M478 389q7 -66 7 -139q0 -140 -71 -204t-175 -64q-89 0 -144.5 48.5t-55.5 143.5v359h174v-363q0 -34 9.5 -48t29.5 -14q27 0 43 34.5t16 117.5q0 110 -23 273h170q13 -78 20 -144zM201 782q24 -24 24 -59q0 -36 -24 -60.5t-60 -24.5q-35 0 -59.5 24.5t-24.5 60.5 q0 35 24.5 59t59.5 24q36 0 60 -24zM420 782q24 -24 24 -59q0 -36 -24 -60.5t-60 -24.5q-35 0 -59.5 24.5t-24.5 60.5q0 35 24.5 59t59.5 24q36 0 60 -24z" />
<glyph unicode="&#x3cc;" horiz-adv-x="536" d="M448.5 478.5q65.5 -72.5 65.5 -212.5q0 -134 -65.5 -209t-180.5 -75q-116 0 -181 72.5t-65 212.5q0 134 65.5 209t180.5 75t180.5 -72.5zM217 388q-16 -36 -16 -121q0 -88 15.5 -123.5t51.5 -35.5q35 0 51 36t16 122q0 87 -16 122.5t-51 35.5t-51 -36zM203 844l166 -13 l-47 -235h-108z" />
<glyph unicode="&#x3cd;" horiz-adv-x="513" d="M478 389q7 -66 7 -139q0 -140 -71 -204t-175 -64q-89 0 -144.5 48.5t-55.5 143.5v359h174v-363q0 -34 9.5 -48t29.5 -14q27 0 43 34.5t16 117.5q0 110 -23 273h170q13 -78 20 -144zM186 844l166 -13l-47 -235h-108z" />
<glyph unicode="&#x3ce;" horiz-adv-x="700" d="M678 243q0 -132 -49 -196.5t-135 -64.5q-61 0 -97 27.5t-48 89.5q-15 -63 -48.5 -90t-92.5 -27q-88 0 -137 64t-49 197q0 155 58 290h154q-20 -79 -31.5 -146.5t-11.5 -134.5q0 -81 11.5 -112.5t34.5 -31.5q18 0 26.5 14t8.5 53v180l156 21v-201q0 -38 9 -52.5t27 -14.5 q23 0 34 30t11 115q0 66 -11.5 133.5t-31.5 146.5h154q58 -135 58 -290zM285 844l166 -13l-47 -235h-108z" />
<glyph unicode="&#x3cf;" horiz-adv-x="628" d="M45 0v695h181v-695h-181zM622 1v-33q0 -95 -55 -143.5t-148 -48.5q-86 0 -142 44l58 103q18 -9 30.5 -13t29.5 -4q45 0 45 51v43h-30l-179 370l182 325h182l-182 -311l127 -247h81v-136h1z" />
<glyph unicode="&#x3d0;" horiz-adv-x="508" d="M426.5 405.5q32.5 -23.5 51 -68.5t18.5 -105q0 -73 -30.5 -130t-85.5 -88.5t-126 -31.5q-121 0 -179 94.5t-58 266.5q0 128 34 222.5t94.5 145t138.5 50.5q81 0 124 -43.5t43 -105.5q0 -66 -35.5 -113.5t-116.5 -77.5q31 8 56 8q39 0 71.5 -23.5zM219 593 q-22 -47 -28 -153l21 9q48 21 68.5 58t20.5 88q0 22 -9 33.5t-23 11.5q-28 0 -50 -47zM300.5 137q16.5 30 16.5 90q0 59 -17.5 91.5t-46.5 32.5q-20 0 -48 -14l-16 -7q1 -123 18 -173t47 -50t46.5 30z" />
<glyph unicode="&#x3d1;" horiz-adv-x="501" d="M491 402h-30v-10q0 -143 -22.5 -232.5t-75 -133.5t-143.5 -44q-87 0 -138.5 48t-51.5 144v180h165v-197q0 -28 8.5 -40t25.5 -12q23 1 35.5 25.5t18 85t5.5 172.5v13h-63q-105 0 -154.5 45t-49.5 126q0 52 24.5 95t69.5 68.5t104 25.5q197 0 234 -246h38v-113zM283 515 q-6 72 -22 98t-43 26q-23 0 -35.5 -16.5t-12.5 -46.5q0 -63 65 -61h48z" />
<glyph unicode="&#x3d2;" horiz-adv-x="590" d="M187 258l-200 437h193l100 -297l51 163q24 82 62.5 117t107.5 35q65 0 118 -35l-45 -103q-22 12 -44 12q-20 0 -32 -11t-23 -40l-107 -277v-259h-181v258z" />
<glyph unicode="&#x3d3;" horiz-adv-x="865" d="M462 258l-200 437h193l100 -297l51 163q24 82 62.5 117t107.5 35q65 0 118 -35l-45 -103q-22 12 -44 12q-20 0 -32 -11t-23 -40l-107 -277v-259h-181v258zM232 729l34 -251l-111 -19l-90 236z" />
<glyph unicode="&#x3d4;" horiz-adv-x="590" d="M187 258l-200 437h193l100 -297l51 163q24 82 62.5 117t107.5 35q65 0 118 -35l-45 -103q-22 12 -44 12q-20 0 -32 -11t-23 -40l-107 -277v-259h-181v258zM238 908q24 -24 24 -59q0 -36 -24 -60.5t-60 -24.5q-35 0 -59.5 24.5t-24.5 60.5q0 35 24.5 59t59.5 24 q36 0 60 -24zM457 908q24 -24 24 -59q0 -36 -24 -60.5t-60 -24.5q-35 0 -59.5 24.5t-24.5 60.5q0 35 24.5 59t59.5 24q36 0 60 -24z" />
<glyph unicode="&#x3d5;" horiz-adv-x="621" d="M546 82q-57 -65 -149 -76l-1 -212l-174 -18l1 230q-90 12 -147.5 74.5t-57.5 183.5q0 122 56 186.5t148 76.5v216l174 17v-233q92 -11 149.5 -73.5t57.5 -184.5t-57 -187zM427.5 153.5q14.5 35.5 14.5 115.5q0 79 -15.5 112t-47.5 40v-309q34 6 48.5 41.5zM194.5 155.5 q15.5 -35.5 45.5 -43.5v308q-32 -7 -46.5 -41.5t-14.5 -114.5q0 -73 15.5 -108.5z" />
<glyph unicode="&#x3d6;" horiz-adv-x="689" d="M606 412q59 -95 59 -199q0 -109 -48 -170t-127 -61q-60 0 -94.5 27t-49.5 85q-16 -59 -49.5 -85.5t-90.5 -26.5q-83 0 -130.5 60.5t-47.5 170.5q0 102 60 199q-20 -1 -32 -3t-29 -8l-30 107q27 13 60 19t91 6h536l1 -121h-79zM469 412h-244q-27 -87 -27 -182q0 -68 9 -95 t28 -27q16 0 24.5 13.5t8.5 50.5v116l158 22v-138q0 -35 8.5 -49.5t23.5 -14.5q20 0 29 26t9 96q0 95 -27 182z" />
<glyph unicode="&#x3d7;" horiz-adv-x="508" d="M467.5 125.5q8.5 -16.5 29.5 -27.5v-130q0 -98 -51 -148.5t-143 -50.5q-45 0 -82 12t-63 31l57 102q19 -10 36.5 -15t39.5 -5q28 0 43 15t15 44l1 80q-23 18 -35 44.5t-12 65.5q0 45 19 118.5t44 139.5l-199 -413l-119 36v330q0 29 -8 44.5t-29 26.5l49 125 q144 -32 144 -161q0 -45 -19 -119.5t-44 -138.5l199 412l119 -36v-334q0 -31 8.5 -47.5z" />
<glyph unicode="&#x3d8;" horiz-adv-x="631" d="M553.5 109q-53.5 -91 -154.5 -117v-204h-166v203q-102 26 -155.5 116t-53.5 241q0 176 75.5 270.5t215.5 94.5q141 0 216.5 -93t75.5 -272q0 -148 -53.5 -239zM375.5 134.5q22.5 22.5 33 74t10.5 139.5q0 128 -24.5 181.5t-79.5 53.5q-54 0 -78.5 -53.5t-24.5 -181.5 q0 -129 24.5 -182.5t78.5 -53.5q38 0 60.5 22.5z" />
<glyph unicode="&#x3d9;" horiz-adv-x="536" d="M469.5 86q-44.5 -71 -124.5 -94v-198l-154 -18v216q-81 21 -125 91t-44 184q0 134 65.5 209t180.5 75t180.5 -72.5t65.5 -212.5q0 -109 -44.5 -180zM217 388q-16 -36 -16 -121q0 -88 15.5 -123.5t51.5 -35.5q35 0 51 36t16 122q0 87 -16 122.5t-51 35.5t-51 -36z" />
<glyph unicode="&#x3da;" horiz-adv-x="532" d="M269 -123q32 22 47.5 38t15.5 36q0 16 -10 27.5t-33 24t-70 33.5q-59 27 -100.5 61t-68 93.5t-26.5 149.5q0 107 42 187.5t120.5 124t184.5 43.5h161l-18 -143h-114q-97 0 -140 -53.5t-43 -154.5q0 -57 10.5 -90.5t37.5 -58t82 -51.5q57 -27 90 -50t51 -53t18 -73 q0 -59 -42.5 -105.5t-132.5 -86.5z" />
<glyph unicode="&#x3db;" horiz-adv-x="442" d="M181 -123q34 24 48.5 40t14.5 40q0 22 -15.5 36t-61.5 38q-45 24 -75 49t-50 67.5t-20 106.5q0 100 44 153.5t118 75.5l22 6q40 12 59 21t30.5 27t11.5 52l141 -13q0 -69 -14 -104.5t-38.5 -50.5t-75.5 -33q-44 -16 -67.5 -30t-36.5 -37.5t-13 -63.5q0 -48 22 -75t81 -58 q39 -21 62 -38.5t36.5 -44t13.5 -66.5q0 -65 -42.5 -112t-132.5 -88z" />
<glyph unicode="&#x3dc;" horiz-adv-x="469" d="M226 554v-156h83q39 0 67 -6.5t51 -20.5l-41 -115q-41 13 -85 13h-75v-269h-181v695h422l-18 -141h-223z" />
<glyph unicode="&#x3dd;" horiz-adv-x="417" d="M220.5 386.5q-12.5 -14.5 -12.5 -44.5v-86h51q41 0 69.5 -7.5t51.5 -22.5l-40 -112q-20 8 -39.5 12t-45.5 4h-47v-330l-169 -25v569q0 85 49 137t144 52h193l-17 -132h-149q-26 0 -38.5 -14.5z" />
<glyph unicode="&#x3de;" horiz-adv-x="464" d="M428 418l27 -139l-162 -279h-196l170 279h-231l-26 139l161 277h196l-167 -277h228z" />
<glyph unicode="&#x3df;" horiz-adv-x="463" d="M461 375l-79 -185q-30 -68 -43.5 -112t-23.5 -96l-154 36q4 54 29 114t85 170l10 18l-240 -74l-43 113h1l-1 1l83 194q29 68 43 113t23 94l155 -36q-4 -54 -29 -114t-85 -170l-15 -27l241 75z" />
<glyph unicode="&#x3e0;" horiz-adv-x="560" d="M576 0h-158l-62 213l-48 -213h-107l107 380l-29 100l-142 -480h-154l227 643l-27 52h155z" />
<glyph unicode="&#x3e1;" horiz-adv-x="609" d="M378.5 611q104.5 -86 156.5 -212.5t52 -309.5q0 -71 -10.5 -158t-27.5 -154l-135 20q27 145 27 288q0 71 -8 137l-92 -222h-147l187 395q-14 27 -31 48l-212 -443h-153l259 547q-70 50 -187 106l50 108q167 -64 271.5 -150z" />
<glyph unicode="&#x3f0;" horiz-adv-x="507" d="M467 133.5q8 -15.5 29 -26.5l-49 -125q-144 32 -144 161q0 45 19 118.5t44 139.5l-199 -413l-119 36v330q0 29 -8 44.5t-29 26.5l49 125q144 -32 144 -161q0 -45 -19 -119.5t-44 -138.5l199 412l119 -36v-329q0 -29 8 -44.5z" />
<glyph unicode="&#x3f1;" horiz-adv-x="538" d="M418.5 -110q34.5 -28 47.5 -82l-146 -32q-6 16 -15.5 24t-29.5 13t-64 13q-90 15 -133.5 64t-43.5 148v244q0 269 236 269q117 0 179 -69t62 -203q0 -76 -24 -139.5t-67.5 -100.5t-99.5 -37q-71 0 -112 55v-46q0 -27 9.5 -41.5t32.5 -23.5t68 -17q66 -11 100.5 -39z M222 392q-14 -34 -14 -119v-105q13 -21 27 -30.5t32 -9.5q66 0 66 149q0 87 -15.5 118t-47.5 31q-34 0 -48 -34z" />
<glyph unicode="&#x3f2;" horiz-adv-x="469" d="M389.5 534.5q42.5 -16.5 85.5 -51.5l-72 -100q-27 19 -50 27t-51 8q-48 0 -73.5 -35t-25.5 -120q0 -81 25.5 -113t71.5 -32q29 0 50.5 7.5t48.5 24.5l76 -104q-41 -32 -84.5 -48t-103.5 -16q-123 0 -194 72.5t-71 207.5q0 88 33.5 153t93.5 100.5t137 35.5 q61 0 103.5 -16.5z" />
<glyph unicode="&#x3f3;" horiz-adv-x="260" d="M217 56q0 -116 -56.5 -178.5t-158.5 -101.5l-60 127q35 18 56 35t33 43.5t12 68.5v483h174v-477zM200.5 790.5q27.5 -27.5 27.5 -68.5q0 -42 -27.5 -69t-70.5 -27t-70.5 27t-27.5 69q0 41 27.5 68.5t70.5 27.5t70.5 -27.5z" />
<glyph unicode="&#x3f4;" horiz-adv-x="631" d="M531.5 620q75.5 -93 75.5 -272q0 -177 -76 -271.5t-216 -94.5t-215.5 93.5t-75.5 272.5q0 176 75.5 270.5t215.5 94.5q141 0 216.5 -93zM227 529.5q-27 -53.5 -27 -181.5q0 -88 12 -139.5t37 -74t66 -22.5q42 0 67 22.5t37 74t12 139.5q0 128 -27 181.5t-89 53.5 q-61 0 -88 -53.5zM398 401v-98h-165v98h165z" />
<glyph unicode="&#x3f5;" horiz-adv-x="445" d="M327 114.5q19 7.5 43 25.5l74 -94q-72 -64 -168 -64q-120 0 -187 74t-67 206q0 87 31 152.5t87.5 101t131.5 35.5q101 0 172 -68l-72 -92q-44 35 -88 35q-40 0 -61.5 -24.5t-25.5 -82.5h158v-96h-159q3 -64 26 -90t63 -26q23 0 42 7.5z" />
<glyph unicode="&#x3f6;" horiz-adv-x="443" d="M359.5 480.5q61.5 -70.5 61.5 -208.5q0 -137 -65.5 -213.5t-182.5 -76.5q-52 0 -93.5 15t-78.5 45l74 97q25 -17 44.5 -24.5t42.5 -7.5q80 0 86 116h-160v96h160q-3 60 -21.5 83.5t-51.5 23.5q-24 0 -45.5 -8t-44.5 -26l-72 95q73 64 177 64q108 0 169.5 -70.5z" />
<glyph unicode="&#x3f7;" horiz-adv-x="551" d="M466.5 529.5q71.5 -58.5 71.5 -172.5q0 -122 -68.5 -184t-188.5 -62h-55v-111h-181v695h181v-107h40q129 0 200.5 -58.5zM333 266.5q23 27.5 23 90.5q0 54 -23.5 79t-71.5 25h-35v-222h38q46 0 69 27.5z" />
<glyph unicode="&#x3f8;" horiz-adv-x="545" d="M475 477.5q45 -73.5 45 -209.5q0 -85 -23.5 -150t-67 -100.5t-100.5 -35.5q-68 0 -112 57v-244l-174 -19v967l174 18v-273q50 63 124 63q89 0 134 -73.5zM342 266q0 64 -7.5 99t-20.5 47.5t-33 12.5q-36 0 -64 -52v-227q25 -38 58 -38q67 0 67 158z" />
<glyph unicode="&#x3f9;" horiz-adv-x="557" d="M447 693.5q51 -19.5 101 -59.5l-82 -99q-34 24 -62.5 35t-64.5 11q-64 0 -95.5 -54.5t-31.5 -177.5q0 -122 33 -175.5t99 -53.5q36 0 64 12.5t68 41.5l80 -100q-48 -42 -103.5 -67t-125.5 -25q-142 0 -222.5 92.5t-80.5 274.5q0 118 38 199.5t106.5 123t159.5 41.5 q68 0 119 -19.5z" />
<glyph unicode="&#x3fa;" horiz-adv-x="723" d="M702 0h-175l-5 262q-2 86 -2 129q0 83 4 150l-78 -469h-170l-83 469q7 -112 7 -211q0 -45 -1 -69l-6 -261h-172l45 695h223l75 -463l67 463h225z" />
<glyph unicode="&#x3fb;" horiz-adv-x="610" d="M594 0h-162l-5 176l-1 52q0 55 7 156l-61 -331h-139l-62 330q7 -93 7 -148q0 -19 -2 -59l-19 -388l-162 -12l55 757h201l51 -335l49 335h202z" />
<glyph unicode="&#x3fc;" horiz-adv-x="538" d="M208 36v-86h115v-98h-115v-59l-174 -17v76h-46v98h46v332q0 269 236 269q117 0 179 -71t62 -212q0 -81 -24 -146.5t-67.5 -102.5t-99.5 -37q-70 0 -112 54zM222 392q-14 -34 -14 -119v-126q13 -21 27 -30.5t32 -9.5q66 0 66 159q0 65 -7.5 100t-21 47.5t-34.5 12.5 q-34 0 -48 -34z" />
<glyph unicode="&#x3fd;" horiz-adv-x="557" d="M453.5 619.5q79.5 -93.5 79.5 -270.5q0 -182 -80.5 -274.5t-223.5 -92.5q-73 0 -127 24.5t-101 67.5l81 100q35 -27 65.5 -40.5t71.5 -13.5q63 0 94 53t31 176q0 124 -29 178t-90 54q-37 0 -66.5 -11.5t-66.5 -35.5l-84 100q50 39 104 59t124 20q138 0 217.5 -93.5z" />
<glyph unicode="&#x3fe;" horiz-adv-x="557" d="M447 693.5q51 -19.5 101 -59.5l-82 -99q-34 24 -62.5 35t-64.5 11q-64 0 -95.5 -54.5t-31.5 -177.5q0 -122 33 -175.5t99 -53.5q36 0 64 12.5t68 41.5l80 -100q-48 -42 -103.5 -67t-125.5 -25q-142 0 -222.5 92.5t-80.5 274.5q0 118 38 199.5t106.5 123t159.5 41.5 q68 0 119 -19.5zM420.5 416.5q25.5 -25.5 25.5 -63.5t-25.5 -63t-64.5 -25q-40 0 -65 25t-25 63t25 63.5t65 25.5q39 0 64.5 -25.5z" />
<glyph unicode="&#x3ff;" horiz-adv-x="557" d="M453.5 619.5q79.5 -93.5 79.5 -270.5q0 -182 -80.5 -274.5t-223.5 -92.5q-73 0 -127 24.5t-101 67.5l81 100q35 -27 65.5 -40.5t71.5 -13.5q63 0 94 53t31 176q0 124 -29 178t-90 54q-37 0 -66.5 -11.5t-66.5 -35.5l-84 100q50 39 104 59t124 20q138 0 217.5 -93.5z M258.5 416.5q25.5 -25.5 25.5 -63.5t-25.5 -63t-64.5 -25q-40 0 -65 25t-25 63t25 63.5t65 25.5q39 0 64.5 -25.5z" />
<glyph unicode="&#x400;" horiz-adv-x="472" d="M453 695l-19 -128h-208v-152h183v-125h-183v-161h222v-129h-403v695h408zM177 962l206 -127l-44 -85l-226 87z" />
<glyph unicode="&#x401;" horiz-adv-x="472" d="M453 695l-19 -128h-208v-152h183v-125h-183v-161h222v-129h-403v695h408zM200 908q24 -24 24 -59q0 -36 -24 -60.5t-60 -24.5q-35 0 -59.5 24.5t-24.5 60.5q0 35 24.5 59t59.5 24q36 0 60 -24zM419 908q24 -24 24 -59q0 -36 -24 -60.5t-60 -24.5q-35 0 -59.5 24.5 t-24.5 60.5q0 35 24.5 59t59.5 24q36 0 60 -24z" />
<glyph unicode="&#x402;" horiz-adv-x="690" d="M620 413q52 -61 52 -170l-1 -134q0 -122 -58.5 -185.5t-160.5 -100.5l-51 126q51 22 70.5 55.5t19.5 96.5v142q0 52 -17 76t-54 24q-49 0 -81 -34v-309h-181v561h-153v134h496l-19 -134h-143v-138q27 26 59.5 38.5t75.5 12.5q94 0 146 -61z" />
<glyph unicode="&#x403;" horiz-adv-x="463" d="M467 695l-18 -141h-223v-554h-181v695h422zM332 963l64 -126l-226 -87l-44 85z" />
<glyph unicode="&#x404;" horiz-adv-x="530" d="M529 74q-38 -41 -92.5 -66.5t-121.5 -25.5q-87 0 -152.5 41t-102 123.5t-36.5 202.5q0 117 37 199t104 123.5t155 41.5q115 0 202 -79l-84 -98q-53 47 -109 47q-53 0 -86 -41.5t-37 -124.5h203v-124h-203q4 -90 36.5 -134t87.5 -44q33 0 59.5 13.5t61.5 40.5z" />
<glyph unicode="&#x405;" horiz-adv-x="528" d="M396 690q56 -23 100 -69l-79 -94q-64 56 -131 56q-36 0 -55 -16.5t-19 -45.5q0 -20 10 -33.5t34 -26t71 -30.5q65 -26 104.5 -54t60 -69.5t20.5 -102.5q0 -66 -31.5 -116.5t-90.5 -78.5t-140 -28q-153 0 -250 101l87 96q38 -32 74.5 -49t77.5 -17q42 0 63.5 21t21.5 56 t-22 56t-81 43q-107 41 -151 91t-44 126q0 62 31.5 109t86.5 72.5t123 25.5q73 0 129 -23z" />
<glyph unicode="&#x406;" horiz-adv-x="270" d="M226 695v-695h-181v695h181z" />
<glyph unicode="&#x407;" horiz-adv-x="270" d="M226 695v-695h-181v695h181zM86 908q24 -24 24 -59q0 -36 -24 -60.5t-60 -24.5q-35 0 -59.5 24.5t-24.5 60.5q0 35 24.5 59t59.5 24q36 0 60 -24zM305 908q24 -24 24 -59q0 -36 -24 -60.5t-60 -24.5q-35 0 -59.5 24.5t-24.5 60.5q0 35 24.5 59t59.5 24q36 0 60 -24z" />
<glyph unicode="&#x408;" horiz-adv-x="294" d="M252 108q0 -86 -31 -142t-78.5 -88t-112.5 -55l-48 127q39 17 58 38.5t25 50t6 75.5v581h181v-587z" />
<glyph unicode="&#x409;" horiz-adv-x="855" d="M778.5 406q66.5 -56 66.5 -168q0 -118 -69 -178t-189 -60h-226v559h-87l-23 -220q-13 -123 -34.5 -192t-62.5 -107.5t-115 -57.5l-43 125q30 14 45.5 37t24.5 68t19 139l36 344h421v-233h45q125 0 191.5 -56zM636 155q20 26 20 81q0 51 -20.5 76.5t-68.5 25.5h-25v-209 h30q44 0 64 26z" />
<glyph unicode="&#x40a;" horiz-adv-x="861" d="M781.5 393.5q69.5 -55.5 69.5 -162.5q0 -116 -69 -173.5t-196 -57.5h-217v322h-143v-322h-181v695h181v-246h143v246h181v-246h38q124 0 193.5 -55.5zM646.5 154q19.5 24 19.5 75q0 48 -20 70.5t-66 22.5h-30v-192h33q44 0 63.5 24z" />
<glyph unicode="&#x40b;" horiz-adv-x="690" d="M620 413q52 -61 52 -170v-243h-181v243q0 52 -17 76t-54 24q-49 0 -81 -34v-309h-181v561h-153v134h496l-19 -134h-143v-138q27 26 59.5 38.5t75.5 12.5q94 0 146 -61z" />
<glyph unicode="&#x40c;" horiz-adv-x="583" d="M577 695l-144 -313l161 -382h-192l-121 296h-55v-296h-181v695h181v-269h59l120 269h172zM362 963l64 -126l-226 -87l-44 85z" />
<glyph unicode="&#x40d;" horiz-adv-x="594" d="M550 0h-172v241q0 77 5.5 142t15.5 137l-142 -520h-212v695h171v-247q0 -78 -5 -134.5t-16 -137.5l144 519h211v-695zM226 962l206 -127l-44 -85l-226 87z" />
<glyph unicode="&#x40e;" horiz-adv-x="535" d="M397 212q-28 -84 -66.5 -131.5t-92 -69.5t-135.5 -29l-22 120q59 6 91.5 23.5t54.5 56.5h-57l-188 513h182l114 -412l98 412h182zM150.5 793.5q-41.5 44.5 -47.5 118.5l91 16q7 -32 25 -46t49 -14t49 14t25 46l91 -16q-6 -74 -47.5 -118.5t-117.5 -44.5t-117.5 44.5z" />
<glyph unicode="&#x40f;" horiz-adv-x="594" d="M550 695v-695h-184v-169h-120l-18 169h-183v695h181v-555h143v555h181z" />
<glyph unicode="&#x410;" horiz-adv-x="549" d="M379 0l-27 144h-158l-27 -144h-184l184 695h216l183 -695h-187zM218 272h110l-55 293z" />
<glyph unicode="&#x411;" horiz-adv-x="549" d="M472 395q66 -55 66 -163q0 -114 -68.5 -173t-188.5 -59h-236v695h417l-17 -136h-219v-109h55q125 0 191 -55zM329.5 154q20.5 25 20.5 76q0 48 -20.5 72.5t-67.5 24.5h-36v-198h39q44 0 64.5 25z" />
<glyph unicode="&#x412;" horiz-adv-x="563" d="M508 315.5q40 -37.5 40 -111.5q0 -110 -76.5 -157t-210.5 -47h-216v695h192q137 0 211 -43.5t74 -135.5q0 -60 -34 -97t-86 -51q66 -15 106 -52.5zM226 569v-149h32q44 0 62.5 19t18.5 59q0 36 -20 53.5t-65 17.5h-28zM337.5 148.5q25.5 19.5 25.5 66.5q0 45 -23.5 66.5 t-70.5 21.5h-43v-174h37q49 0 74.5 19.5z" />
<glyph unicode="&#x413;" horiz-adv-x="463" d="M467 695l-18 -141h-223v-554h-181v695h422z" />
<glyph unicode="&#x414;" horiz-adv-x="590" d="M580 137v-306h-120l-18 169h-310l-18 -169h-120v306h41q24 32 39.5 92.5t30.5 194.5l28 271h390v-558h57zM350 564h-64l-11 -122q-12 -132 -33.5 -197t-63.5 -108h172v427z" />
<glyph unicode="&#x415;" horiz-adv-x="472" d="M453 695l-19 -128h-208v-152h183v-125h-183v-161h222v-129h-403v695h408z" />
<glyph unicode="&#x416;" horiz-adv-x="848" d="M843 695l-146 -313l162 -382h-191l-116 298h-46v-298h-164v298h-48l-118 -298h-187l162 382l-146 313h172l122 -272h43v272h164v-272h43l124 272h170z" />
<glyph unicode="&#x417;" horiz-adv-x="497" d="M87.5 6.5q-54.5 24.5 -95.5 73.5l93 91q31 -30 59 -44t60 -14q42 0 66 24t24 70q0 45 -24.5 70t-73.5 25h-69l20 127h52q40 0 60 20.5t20 59.5q0 34 -16.5 54.5t-52.5 20.5q-57 0 -117 -53l-81 89q91 93 224 93q68 0 120 -23.5t80 -65.5t28 -95q0 -60 -36.5 -102.5 t-112.5 -59.5q82 -10 124.5 -52.5t42.5 -118.5q0 -65 -33 -113.5t-92.5 -74.5t-137.5 -26q-77 0 -131.5 24.5z" />
<glyph unicode="&#x418;" horiz-adv-x="594" d="M550 0h-172v241q0 77 5.5 142t15.5 137l-142 -520h-212v695h171v-247q0 -78 -5 -134.5t-16 -137.5l144 519h211v-695z" />
<glyph unicode="&#x419;" horiz-adv-x="594" d="M550 0h-172v241q0 77 5.5 142t15.5 137l-142 -520h-212v695h171v-247q0 -78 -5 -134.5t-16 -137.5l144 519h211v-695zM180.5 793.5q-41.5 44.5 -47.5 118.5l91 16q7 -32 25 -46t49 -14t49 14t25 46l91 -16q-6 -74 -47.5 -118.5t-117.5 -44.5t-117.5 44.5z" />
<glyph unicode="&#x41a;" horiz-adv-x="583" d="M577 695l-144 -313l161 -382h-192l-121 296h-55v-296h-181v695h181v-269h59l120 269h172z" />
<glyph unicode="&#x41b;" horiz-adv-x="592" d="M547 695v-695h-181v559h-91l-23 -220q-12 -122 -34 -191.5t-63.5 -108t-115.5 -57.5l-43 125q30 14 45.5 37t24.5 68t19 139l36 344h426z" />
<glyph unicode="&#x41c;" horiz-adv-x="723" d="M702 0h-175l-5 262q-2 86 -2 129q0 83 4 150l-78 -469h-170l-83 469q7 -112 7 -211q0 -45 -1 -69l-6 -261h-172l45 695h223l75 -463l67 463h225z" />
<glyph unicode="&#x41d;" horiz-adv-x="599" d="M374 0v290h-148v-290h-181v695h181v-265h148v265h181v-695h-181z" />
<glyph unicode="&#x41e;" horiz-adv-x="631" d="M531.5 620q75.5 -93 75.5 -272q0 -177 -76 -271.5t-216 -94.5t-215.5 93.5t-75.5 272.5q0 176 75.5 270.5t215.5 94.5q141 0 216.5 -93zM236.5 529.5q-24.5 -53.5 -24.5 -181.5q0 -129 24.5 -182.5t78.5 -53.5q38 0 60.5 22.5t33 74t10.5 139.5q0 128 -24.5 181.5 t-79.5 53.5q-54 0 -78.5 -53.5z" />
<glyph unicode="&#x41f;" horiz-adv-x="599" d="M555 695v-695h-182v557h-147v-557h-181v695h510z" />
<glyph unicode="&#x420;" horiz-adv-x="551" d="M465 636.5q73 -58.5 73 -171.5q0 -117 -70 -178.5t-192 -61.5h-50v-225h-181v695h211q136 0 209 -58.5zM330.5 380q22.5 26 22.5 85q0 52 -22 77.5t-72 25.5h-33v-214h33q49 0 71.5 26z" />
<glyph unicode="&#x421;" horiz-adv-x="530" d="M430.5 693q49.5 -20 91.5 -59l-84 -99q-27 22 -52.5 34t-54.5 12q-119 0 -119 -232q0 -120 31 -175t89 -55q32 0 57.5 13t59.5 40l80 -98q-38 -41 -91.5 -66.5t-118.5 -25.5q-136 0 -215.5 93.5t-79.5 273.5q0 117 37.5 199t104 123.5t153.5 41.5q62 0 111.5 -20z" />
<glyph unicode="&#x422;" horiz-adv-x="497" d="M501 695l-19 -137h-143v-558h-181v558h-153v137h496z" />
<glyph unicode="&#x423;" horiz-adv-x="535" d="M397 212q-28 -84 -66.5 -131.5t-92 -69.5t-135.5 -29l-22 120q59 6 91.5 23.5t54.5 56.5h-57l-188 513h182l114 -412l98 412h182z" />
<glyph unicode="&#x424;" horiz-adv-x="780" d="M691.5 125q-77.5 -75 -213.5 -83v-83h-176v83q-134 7 -212.5 81.5t-78.5 222.5q0 151 78 226.5t213 82.5v78h176v-78q134 -8 212.5 -82t78.5 -222q0 -151 -77.5 -226zM560 203q27 46 27 148q0 98 -28 143.5t-91 52.5v-396q65 6 92 52zM221.5 202.5q27.5 -45.5 90.5 -52.5 v397q-65 -8 -91.5 -54t-26.5 -147q0 -98 27.5 -143.5z" />
<glyph unicode="&#x425;" horiz-adv-x="543" d="M376 374l175 -374h-192l-92 254l-87 -254h-188l168 369l-157 326h192l74 -214l81 214h188z" />
<glyph unicode="&#x426;" horiz-adv-x="629" d="M550 137h71v-306h-120l-18 169h-438v695h181v-555h143v555h181v-558z" />
<glyph unicode="&#x427;" horiz-adv-x="566" d="M521 695v-695h-181v250q-28 -25 -60 -37.5t-73 -12.5q-90 0 -142.5 59.5t-52.5 165.5v270h178v-260q0 -56 17.5 -80t55.5 -24q47 0 77 33v331h181z" />
<glyph unicode="&#x428;" horiz-adv-x="818" d="M774 695v-695h-729v695h177v-555h103v555h168v-555h103v555h178z" />
<glyph unicode="&#x429;" horiz-adv-x="852" d="M774 137h71v-306h-120l-18 169h-662v695h177v-555h103v555h168v-555h103v555h178v-558z" />
<glyph unicode="&#x42a;" horiz-adv-x="662" d="M586 406q66 -56 66 -168q0 -118 -68 -178t-189 -60h-236v562l-1 -1h-153v134h335v-233h55q125 0 191 -56zM443.5 155q20.5 26 20.5 81q0 51 -20.5 76.5t-68.5 25.5h-35v-209h40q43 0 63.5 26z" />
<glyph unicode="&#x42b;" horiz-adv-x="787" d="M463 406q66 -56 66 -168q0 -118 -68.5 -178t-184.5 -60h-231v695h181v-233h44q127 0 193 -56zM562 695h181v-695h-181v695zM320.5 155q20.5 26 20.5 81q0 51 -20 76.5t-66 25.5h-29v-209h30q44 0 64.5 26z" />
<glyph unicode="&#x42c;" horiz-adv-x="548" d="M472 406q66 -56 66 -168q0 -118 -68 -178t-189 -60h-236v695h181v-233h55q125 0 191 -56zM329.5 155q20.5 26 20.5 81q0 51 -20.5 76.5t-68.5 25.5h-35v-209h40q43 0 63.5 26z" />
<glyph unicode="&#x42d;" horiz-adv-x="494" d="M403 623.5q67 -89.5 67 -270.5q0 -184 -72.5 -277.5t-203.5 -93.5q-60 0 -107 21t-86 61l78 95q29 -23 52 -33.5t53 -10.5q50 0 75.5 42.5t28.5 135.5h-195v124h195q-4 89 -27.5 127.5t-67.5 38.5q-30 0 -53 -10.5t-52 -35.5l-82 96q43 41 89.5 60.5t113.5 19.5 q127 0 194 -89.5z" />
<glyph unicode="&#x42e;" horiz-adv-x="863" d="M766 620q73 -93 73 -272q0 -176 -73.5 -271t-209.5 -95q-247 0 -272 307h-58v-289h-181v695h181v-266h61q21 142 86.5 213t182.5 71q137 0 210 -93zM610.5 135q20.5 23 30.5 74t10 139q0 129 -22.5 182t-72.5 53q-34 0 -54.5 -22.5t-30 -74.5t-9.5 -140q0 -128 22 -181 t72 -53q34 0 54.5 23z" />
<glyph unicode="&#x42f;" horiz-adv-x="557" d="M512 695v-695h-181v245h-49l-96 -245h-193l134 277q-53 26 -79 72t-26 120q0 115 67 170.5t204 55.5h219zM331 369v200h-33q-91 0 -91 -105q0 -48 22 -71.5t60 -23.5h42z" />
<glyph unicode="&#x430;" horiz-adv-x="499" d="M459 117q6 -12 23 -19l-35 -113q-49 4 -79.5 20.5t-48.5 53.5q-50 -77 -145 -77q-72 0 -115 46t-43 121q0 88 59.5 134.5t172.5 46.5h35v20q0 45 -15 61t-56 16q-48 0 -124 -27l-38 110q44 20 95.5 30.5t97.5 10.5q108 0 159 -46.5t51 -144.5v-204q0 -27 6 -39z M259.5 115q14.5 11 23.5 29v93h-20q-40 0 -58.5 -17.5t-18.5 -54.5q0 -29 11 -45t31 -16q17 0 31.5 11z" />
<glyph unicode="&#x431;" horiz-adv-x="523" d="M411.5 467q40.5 -28 65 -84t24.5 -136q0 -126 -64 -195.5t-174 -69.5q-241 0 -241 317q0 117 18.5 191t63.5 121t125 74q55 18 85 32t77 41l61 -105q-33 -24 -68 -40t-91 -36q-37 -13 -58 -30.5t-33 -47.5t-18 -81q50 77 138 77q49 0 89.5 -28zM308 135.5 q15 27.5 15 106.5q0 74 -13 100t-41 26q-46 0 -68 -58v-69q0 -75 15 -104t46 -29t46 27.5z" />
<glyph unicode="&#x432;" horiz-adv-x="505" d="M483 162q0 -81 -60 -121.5t-166 -40.5h-214v528q118 23 207 23q100 0 157 -38t57 -107q0 -44 -27.5 -73t-81.5 -40q128 -16 128 -131zM217 442v-117h30q24 0 36.5 13t12.5 46q0 34 -12 47t-37 13q-18 0 -30 -2zM294.5 124.5q13.5 14.5 13.5 51.5q0 35 -13 49t-42 14h-36 v-129h37q27 0 40.5 14.5z" />
<glyph unicode="&#x433;" horiz-adv-x="395" d="M217 0h-174v533h361l-21 -131h-166v-402z" />
<glyph unicode="&#x434;" horiz-adv-x="507" d="M506 127v-296h-114l-18 169h-244l-18 -169h-114v296h32q20 18 31.5 59.5t20.5 152.5l14 194h359v-406h51zM295 420h-52l-5 -71q-8 -100 -27.5 -149.5t-58.5 -72.5h143v293z" />
<glyph unicode="&#x435;" horiz-adv-x="511" d="M490 216h-294q6 -63 29 -86t67 -23q28 0 54.5 10.5t58.5 33.5l70 -94q-84 -75 -198 -75q-125 0 -190 76t-65 206q0 83 27 148t80.5 102t130.5 37q108 0 171 -71.5t63 -204.5q0 -25 -4 -59zM323 324q0 58 -13.5 86.5t-47.5 28.5q-31 0 -47 -26.5t-20 -95.5h128v7z" />
<glyph unicode="&#x436;" horiz-adv-x="695" d="M693 533l-105 -248l113 -285h-168l-79 224h-32v-224h-149v224h-32l-80 -224h-167l112 285l-105 248h155l82 -208h35v208h149v-208h34l83 208h154z" />
<glyph unicode="&#x437;" horiz-adv-x="452" d="M352.5 510.5q55.5 -40.5 55.5 -108.5q0 -89 -116 -118q70 -11 104 -42t34 -89q0 -84 -62.5 -127.5t-169.5 -43.5q-122 0 -201 64l78 93q33 -20 57.5 -27.5t54.5 -7.5q65 0 65 59q0 29 -17 42.5t-53 13.5h-71l10 107h49q32 0 47 14.5t15 42.5q0 25 -13.5 37t-37.5 12 q-25 0 -46.5 -7.5t-45.5 -23.5l-78 88q83 62 201 62q85 0 140.5 -40.5z" />
<glyph unicode="&#x438;" horiz-adv-x="533" d="M490 0h-159v174q0 96 25 194l-144 -368h-169v533h160v-177q0 -100 -24 -194l141 371h170v-533z" />
<glyph unicode="&#x439;" horiz-adv-x="533" d="M490 0h-159v174q0 96 25 194l-144 -368h-169v533h160v-177q0 -100 -24 -194l141 371h170v-533zM149.5 674.5q-41.5 44.5 -47.5 118.5l91 16q7 -32 25 -46t49 -14t49 14t25 46l91 -16q-6 -74 -47.5 -118.5t-117.5 -44.5t-117.5 44.5z" />
<glyph unicode="&#x43a;" horiz-adv-x="510" d="M511 533l-117 -248l125 -285h-176l-91 224h-35v-224h-174v533h174v-207h39l96 207h159z" />
<glyph unicode="&#x43b;" horiz-adv-x="514" d="M471 533v-533h-174v407h-62l-8 -104q-8 -118 -24 -177t-51.5 -90t-108.5 -49l-42 125q27 13 39.5 29.5t19 53.5t11.5 116l12 222h388z" />
<glyph unicode="&#x43c;" horiz-adv-x="615" d="M599 0h-162l-5 176l-1 44q0 57 7 164l-61 -331h-139l-62 331q7 -78 7 -156q0 -34 -1 -52l-4 -176h-162l40 533h200l51 -335l50 335h202z" />
<glyph unicode="&#x43d;" horiz-adv-x="530" d="M313 0v207h-96v-207h-174v533h174v-201h96v201h174v-533h-174z" />
<glyph unicode="&#x43e;" horiz-adv-x="536" d="M448.5 478.5q65.5 -72.5 65.5 -212.5q0 -134 -65.5 -209t-180.5 -75q-116 0 -181 72.5t-65 212.5q0 134 65.5 209t180.5 75t180.5 -72.5zM217 388q-16 -36 -16 -121q0 -88 15.5 -123.5t51.5 -35.5q35 0 51 36t16 122q0 87 -16 122.5t-51 35.5t-51 -36z" />
<glyph unicode="&#x43f;" horiz-adv-x="527" d="M310 0v406h-93v-406h-174v533h441v-533h-174z" />
<glyph unicode="&#x440;" horiz-adv-x="545" d="M475.5 477.5q44.5 -73.5 44.5 -209.5q0 -85 -23.5 -150t-67 -100.5t-100.5 -35.5q-67 0 -112 53v-241l-174 -18v757h155l6 -56q54 74 139 74q88 0 132.5 -73.5zM342 266q0 93 -15 126t-44 33q-38 0 -66 -52v-227q25 -38 58 -38q67 0 67 158z" />
<glyph unicode="&#x441;" horiz-adv-x="437" d="M366 534q42 -17 78 -51l-72 -98q-44 35 -85 35q-42 0 -63 -35t-21 -122q0 -83 21.5 -115t61.5 -32q21 0 39 7.5t44 24.5l75 -102q-72 -64 -169 -64q-119 0 -186 74t-67 206q0 87 30.5 152.5t87 101t132.5 35.5q52 0 94 -17z" />
<glyph unicode="&#x442;" horiz-adv-x="436" d="M445 533l-22 -127h-117v-406h-174v406h-131v127h444z" />
<glyph unicode="&#x443;" horiz-adv-x="484" d="M345 0q-59 -213 -295 -225l-18 119q69 9 103.5 32.5t54.5 73.5h-63l-137 533h179l68 -424l82 424h175z" />
<glyph unicode="&#x444;" horiz-adv-x="770" d="M704.5 478q41.5 -73 41.5 -212q0 -89 -21.5 -153t-60.5 -97.5t-91 -33.5q-62 0 -107 50v-238l-162 -18v259q-45 -53 -107 -53q-52 0 -91 33.5t-60.5 97.5t-21.5 153q0 137 46 211t130 74q31 0 56.5 -12t47.5 -38v260l162 -18v-245q43 53 113 53q84 0 125.5 -73zM304 140 v253q-12 17 -24 25.5t-27 8.5q-29 0 -42 -35t-13 -126q0 -89 14 -124.5t41 -35.5q28 0 51 34zM559 141q13 35 13 125q0 92 -12 126.5t-39 34.5q-15 0 -28 -9t-27 -28v-251q23 -33 53 -33q27 0 40 35z" />
<glyph unicode="&#x445;" horiz-adv-x="477" d="M342 285l150 -285h-188l-70 193l-66 -193h-183l148 280l-135 253h185l55 -166l50 166h178z" />
<glyph unicode="&#x446;" horiz-adv-x="545" d="M478 127h72v-296h-114l-18 169h-375v533h174v-406h87v406h174v-406z" />
<glyph unicode="&#x447;" horiz-adv-x="501" d="M458 533v-533h-174v193q-53 -48 -127 -48q-68 0 -103.5 41t-35.5 115v232h174v-212q0 -26 8.5 -37t26.5 -11q15 0 30 7t27 19v234h174z" />
<glyph unicode="&#x448;" horiz-adv-x="703" d="M660 533v-533h-617v533h164v-406h73v406h143v-406h73v406h164z" />
<glyph unicode="&#x449;" horiz-adv-x="726" d="M660 127h71v-296h-114l-18 169h-556v533h164v-406h73v406h143v-406h73v406h164v-406z" />
<glyph unicode="&#x44a;" horiz-adv-x="566" d="M502 322q57 -46 57 -139q0 -92 -57.5 -137.5t-163.5 -45.5h-206v410h-131v123h305v-165h17q122 0 179 -46zM371.5 128.5q13.5 17.5 13.5 57.5q0 42 -13 59t-46 17h-20v-151h24q28 0 41.5 17.5z" />
<glyph unicode="&#x44b;" horiz-adv-x="707" d="M405 322q57 -46 57 -139q0 -92 -57.5 -137.5t-163.5 -45.5h-198v533h174v-165h13q118 0 175 -46zM490 533h174v-533h-174v533zM278 128.5q13 17.5 13 57.5q0 42 -13 59t-47 17h-14v-151h18q30 0 43 17.5z" />
<glyph unicode="&#x44c;" horiz-adv-x="477" d="M413 322q57 -46 57 -139q0 -92 -57.5 -137.5t-163.5 -45.5h-206v533h174v-165h17q122 0 179 -46zM282.5 128.5q13.5 17.5 13.5 57.5q0 42 -13 59t-46 17h-20v-151h24q28 0 41.5 17.5z" />
<glyph unicode="&#x44d;" horiz-adv-x="443" d="M359.5 480.5q61.5 -70.5 61.5 -208.5q0 -137 -65.5 -213.5t-182.5 -76.5q-52 0 -93.5 15t-78.5 45l74 97q25 -17 44.5 -24.5t42.5 -7.5q80 0 86 116h-160v96h160q-3 60 -21.5 83.5t-51.5 23.5q-24 0 -45.5 -8t-44.5 -26l-72 95q73 64 177 64q108 0 169.5 -70.5z" />
<glyph unicode="&#x44e;" horiz-adv-x="745" d="M660.5 478.5q62.5 -72.5 62.5 -212.5q0 -88 -29 -152.5t-81 -98t-120 -33.5q-97 0 -154 57.5t-72 171.5h-50v-211h-174v533h174v-204h51q15 107 72 164.5t153 57.5q105 0 167.5 -72.5zM535.5 143.5q12.5 35.5 12.5 122.5q0 88 -12.5 123t-42.5 35t-43 -35t-13 -122 q0 -89 12.5 -124t43.5 -35q30 0 42.5 35.5z" />
<glyph unicode="&#x44f;" horiz-adv-x="507" d="M464 533v-533h-174v181h-40l-78 -181h-179l107 223q-34 20 -52.5 53.5t-18.5 78.5q0 88 60.5 133t179.5 45h195zM290 280v144h-23q-33 0 -48.5 -17.5t-15.5 -52.5q0 -74 60 -74h27z" />
<glyph unicode="&#x450;" horiz-adv-x="511" d="M490 216h-294q6 -63 29 -86t67 -23q28 0 54.5 10.5t58.5 33.5l70 -94q-84 -75 -198 -75q-125 0 -190 76t-65 206q0 83 27 148t80.5 102t130.5 37q108 0 171 -71.5t63 -204.5q0 -25 -4 -59zM323 324q0 58 -13.5 86.5t-47.5 28.5q-31 0 -47 -26.5t-20 -95.5h128v7zM202 840 l204 -136l-47 -85l-224 96z" />
<glyph unicode="&#x451;" horiz-adv-x="511" d="M490 216h-294q6 -63 29 -86t67 -23q28 0 54.5 10.5t58.5 33.5l70 -94q-84 -75 -198 -75q-125 0 -190 76t-65 206q0 83 27 148t80.5 102t130.5 37q108 0 171 -71.5t63 -204.5q0 -25 -4 -59zM323 324q0 58 -13.5 86.5t-47.5 28.5q-31 0 -47 -26.5t-20 -95.5h128v7zM212 782 q24 -24 24 -59q0 -36 -24 -60.5t-60 -24.5q-35 0 -59.5 24.5t-24.5 60.5q0 35 24.5 59t59.5 24q36 0 60 -24zM431 782q24 -24 24 -59q0 -36 -24 -60.5t-60 -24.5q-35 0 -59.5 24.5t-24.5 60.5q0 35 24.5 59t59.5 24q36 0 60 -24z" />
<glyph unicode="&#x452;" horiz-adv-x="528" d="M454 509q35 -42 35 -119v-323q0 -85 -27.5 -141.5t-73.5 -90.5t-113 -59l-60 127q35 18 55.5 35t32.5 45.5t12 72.5v311q0 30 -7.5 42t-21.5 12q-29 0 -63 -56v-365h-174v594h-47v98h47v51l174 18v-69h113v-98h-113v-114q29 37 61.5 54t72.5 17q62 0 97 -42z" />
<glyph unicode="&#x453;" horiz-adv-x="395" d="M217 0h-174v533h361l-21 -131h-166v-402zM283 840l67 -125l-224 -96l-47 85z" />
<glyph unicode="&#x454;" horiz-adv-x="445" d="M327 114.5q19 7.5 43 25.5l74 -94q-72 -64 -168 -64q-120 0 -187 74t-67 206q0 87 31 152.5t87.5 101t131.5 35.5q101 0 172 -68l-72 -92q-44 35 -88 35q-40 0 -61.5 -24.5t-25.5 -82.5h158v-96h-159q3 -64 26 -90t63 -26q23 0 42 7.5z" />
<glyph unicode="&#x455;" horiz-adv-x="442" d="M330.5 533q48.5 -18 82.5 -49l-62 -94q-57 39 -111 39q-23 0 -35.5 -9.5t-12.5 -25.5q0 -13 7 -22t27.5 -19.5t63.5 -25.5q72 -26 106.5 -64t34.5 -103q0 -54 -28.5 -94.5t-80 -62t-116.5 -21.5q-63 0 -117.5 21.5t-92.5 59.5l81 91q63 -51 121 -51q27 0 41.5 11t14.5 31 q0 17 -7 27.5t-26.5 20.5t-60.5 24q-73 26 -106.5 65.5t-33.5 99.5q0 48 24.5 86.5t71.5 60.5t112 22q54 0 102.5 -18z" />
<glyph unicode="&#x456;" horiz-adv-x="260" d="M217 533v-533h-174v533h174zM200.5 790.5q27.5 -27.5 27.5 -68.5q0 -42 -27.5 -69t-70.5 -27t-70.5 27t-27.5 69q0 41 27.5 68.5t70.5 27.5t70.5 -27.5z" />
<glyph unicode="&#x457;" horiz-adv-x="260" d="M217 533v-533h-174v533h174zM80 782q24 -24 24 -59q0 -36 -24 -60.5t-60 -24.5q-35 0 -59.5 24.5t-24.5 60.5q0 35 24.5 59t59.5 24q36 0 60 -24zM299 782q24 -24 24 -59q0 -36 -24 -60.5t-60 -24.5q-35 0 -59.5 24.5t-24.5 60.5q0 35 24.5 59t59.5 24q36 0 60 -24z" />
<glyph unicode="&#x458;" horiz-adv-x="260" d="M217 56q0 -116 -56.5 -178.5t-158.5 -101.5l-60 127q35 18 56 35t33 43.5t12 68.5v483h174v-477zM200.5 790.5q27.5 -27.5 27.5 -68.5q0 -42 -27.5 -69t-70.5 -27t-70.5 27t-27.5 69q0 41 27.5 68.5t70.5 27.5t70.5 -27.5z" />
<glyph unicode="&#x459;" horiz-adv-x="720" d="M656 322q57 -46 57 -139q0 -92 -57.5 -137.5t-163.5 -45.5h-201v407h-56l-8 -104q-9 -118 -24.5 -177t-51 -90t-108.5 -49l-42 125q27 13 39.5 29.5t19 53.5t11.5 116l12 222h382v-165h12q122 0 179 -46zM525 128.5q13 17.5 13 57.5q0 42 -12.5 59t-45.5 17h-15v-151h19 q28 0 41 17.5z" />
<glyph unicode="&#x45a;" horiz-adv-x="737" d="M731 173q0 -85 -58 -129t-163 -44h-197v230h-96v-230h-174v533h174v-186h96v186h174v-186h12q232 0 232 -174zM550.5 125.5q13.5 15.5 13.5 51.5q0 34 -13.5 48.5t-47.5 14.5h-16v-130h20q30 0 43.5 15.5z" />
<glyph unicode="&#x45b;" horiz-adv-x="529" d="M455 510q35 -41 35 -114v-396h-174v373q0 26 -7.5 37t-21.5 11q-29 0 -63 -56v-365h-174v595h-48v97h48v51l174 18v-69h111v-97h-111v-115q29 37 61 54t73 17q62 0 97 -41z" />
<glyph unicode="&#x45c;" horiz-adv-x="510" d="M511 533l-117 -248l125 -285h-176l-91 224h-35v-224h-174v533h174v-207h39l96 207h159zM318 840l67 -125l-224 -96l-47 85z" />
<glyph unicode="&#x45d;" horiz-adv-x="533" d="M490 0h-159v174q0 96 25 194l-144 -368h-169v533h160v-177q0 -100 -24 -194l141 371h170v-533zM207 840l204 -136l-47 -85l-224 96z" />
<glyph unicode="&#x45e;" horiz-adv-x="484" d="M345 0q-59 -213 -295 -225l-18 119q69 9 103.5 32.5t54.5 73.5h-63l-137 533h179l68 -424l82 424h175zM124.5 674.5q-41.5 44.5 -47.5 118.5l91 16q7 -32 25 -46t49 -14t49 14t25 46l91 -16q-6 -74 -47.5 -118.5t-117.5 -44.5t-117.5 44.5z" />
<glyph unicode="&#x45f;" horiz-adv-x="521" d="M478 533v-533h-149v-169h-114l-18 169h-154v533h174v-406h87v406h174z" />
<glyph unicode="&#x460;" horiz-adv-x="824" d="M767 517.5q19 -91.5 19 -214.5q0 -167 -52.5 -244t-154.5 -77q-67 0 -107.5 30t-58.5 93q-15 -62 -56.5 -92.5t-101.5 -30.5q-111 0 -164 76t-53 245q0 122 19 213t52 179h167q-21 -83 -31 -129t-18 -111.5t-8 -141.5q0 -77 6 -120.5t19 -62t36 -18.5q45 0 45 64v223h179 v-223q0 -34 10.5 -49t34.5 -15q21 0 33 17.5t17.5 60.5t5.5 122q0 111 -16.5 194.5t-48.5 188.5h174q34 -86 53 -177.5z" />
<glyph unicode="&#x461;" horiz-adv-x="700" d="M678 243q0 -132 -49 -196.5t-135 -64.5q-61 0 -97 27.5t-48 89.5q-15 -63 -48.5 -90t-92.5 -27q-88 0 -137 64t-49 197q0 155 58 290h154q-20 -79 -31.5 -146.5t-11.5 -134.5q0 -81 11.5 -112.5t34.5 -31.5q18 0 26.5 14t8.5 53v180l156 21v-201q0 -38 9 -52.5t27 -14.5 q23 0 34 30t11 115q0 66 -11.5 133.5t-31.5 146.5h154q58 -135 58 -290z" />
<glyph unicode="&#x462;" horiz-adv-x="621" d="M544 395.5q67 -55.5 67 -163.5q0 -114 -69 -173t-189 -59h-236v518h-117v105h117v72h181v-72h133v-105h-133v-67h55q124 0 191 -55.5zM403.5 154q20.5 25 20.5 76q0 48 -21 72.5t-69 24.5h-36v-198h40q45 0 65.5 25z" />
</font>
</defs>
</svg>
