<?xml version="1.0" standalone="no"?>
<!DOCTYPE svg PUBLIC "-//W3C//DTD SVG 1.1//EN" "http://www.w3.org/Graphics/SVG/1.1/DTD/svg11.dtd" >
<svg xmlns="http://www.w3.org/2000/svg" xmlns:xlink="http://www.w3.org/1999/xlink" version="1.1">
<metadata></metadata>
<defs>
<font id="fira_sans_condensedlight" horiz-adv-x="516" >
<font-face units-per-em="1000" ascent="800" descent="-200" />
<missing-glyph horiz-adv-x="249" />
<glyph unicode="&#xfb01;" horiz-adv-x="509" />
<glyph unicode="&#xfb02;" horiz-adv-x="528" />
<glyph horiz-adv-x="0" />
<glyph unicode="&#xd;" horiz-adv-x="249" />
<glyph unicode=" "  horiz-adv-x="249" />
<glyph unicode="&#x09;" horiz-adv-x="249" />
<glyph unicode="&#xa0;" horiz-adv-x="249" />
<glyph unicode="!" horiz-adv-x="228" d="M143 685l-5 -468h-49l-5 468h59zM147 67.5q13 -13.5 13 -32.5t-13 -32.5t-33 -13.5t-33 13.5t-13 32.5t13 32.5t33 13.5t33 -13.5z" />
<glyph unicode="&#x22;" horiz-adv-x="348" d="M74 434l-8 251h58l-8 -251h-42zM231 434l-8 251h58l-8 -251h-42z" />
<glyph unicode="#" horiz-adv-x="455" d="M441 453h-69l-30 -227h66v-45h-72l-24 -181h-49l24 181h-161l-24 -181h-49l24 181h-64v45h70l30 227h-67v45h73l22 167h49l-22 -167h161l22 167h49l-22 -167h63v-45zM293 226l30 227h-161l-30 -227h161z" />
<glyph unicode="$" horiz-adv-x="474" d="M382 54q-45 -52 -120 -62v-142h-48v139q-55 2 -99 23t-82 60l33 34q35 -34 72.5 -51.5t86.5 -17.5q64 0 104 38.5t40 103.5q0 40 -13 66.5t-43.5 46t-84.5 38.5q-92 32 -131.5 73.5t-39.5 108.5q0 64 44 109.5t113 52.5v144h48v-144q45 -4 79.5 -22t66.5 -50l-32 -35 q-33 32 -65.5 46t-74.5 14q-55 0 -88.5 -31.5t-33.5 -82.5q0 -50 30 -79.5t109 -56.5q90 -31 132 -73.5t42 -122.5q0 -75 -45 -127z" />
<glyph unicode="%" horiz-adv-x="723" d="M553 703l41 -24l-418 -702l-40 24zM284.5 633q37.5 -43 37.5 -118q0 -76 -37.5 -120t-98.5 -44q-60 0 -97.5 43.5t-37.5 118.5q0 76 37 119.5t98 43.5t98.5 -43zM121 602q-20 -33 -20 -89q0 -54 20.5 -87t64.5 -33q45 0 65 33t20 89q0 54 -20.5 87t-64.5 33 q-45 0 -65 -33zM635.5 270.5q37.5 -43.5 37.5 -118.5q0 -76 -37 -119.5t-99 -43.5q-60 0 -97.5 43.5t-37.5 118.5q0 76 37 119.5t98 43.5t98.5 -43.5zM472 239.5q-20 -32.5 -20 -88.5q0 -55 20.5 -88t64.5 -33q45 0 65 33t20 89q0 55 -20 87.5t-65 32.5t-65 -32.5z" />
<glyph unicode="&#x26;" horiz-adv-x="651" d="M384 655q42 -41 42 -107q0 -57 -34 -98.5t-104 -86.5l183 -193q40 97 59 190l51 -14q-26 -116 -76 -209l112 -115l-42 -33l-100 106q-38 -51 -87 -78.5t-115 -27.5q-54 0 -97.5 22.5t-68 64t-24.5 95.5q0 64 32 109.5t97 89.5q-49 51 -69.5 88t-20.5 86q0 67 41.5 109.5 t110.5 42.5q68 0 110 -41zM203.5 622q-26.5 -30 -26.5 -77q0 -38 16 -68.5t63 -81.5q60 37 87.5 71.5t27.5 79.5q0 51 -26.5 78.5t-69.5 27.5q-45 0 -71.5 -30zM166.5 263q-25.5 -39 -25.5 -91q0 -62 38 -99t98 -37q53 0 91.5 23t72.5 69l-196 210q-53 -36 -78.5 -75z" />
<glyph unicode="'" horiz-adv-x="190" d="M74 434l-8 251h58l-8 -251h-42z" />
<glyph unicode="(" horiz-adv-x="291" d="M245 813q-49 -80 -77.5 -140.5t-46 -139t-17.5 -183.5t17.5 -183.5t46 -139t77.5 -140.5l-36 -24q-55 84 -87.5 147t-53.5 147t-21 193t21 193t53.5 147t87.5 147z" />
<glyph unicode=")" horiz-adv-x="291" d="M170.5 689.5q32.5 -62.5 53.5 -146.5t21 -193t-21 -193t-53.5 -146.5t-87.5 -147.5l-37 24q49 80 78 140.5t46.5 139t17.5 183.5t-17.5 184t-46.5 138.5t-78 140.5l37 24q55 -85 87.5 -147.5z" />
<glyph unicode="*" horiz-adv-x="401" d="M367 583l-137 -40l91 -122l-45 -29l-75 129l-76 -129l-45 28l91 122l-137 41l17 47l130 -54l-7 160h53l-8 -160l131 55z" />
<glyph unicode="+" horiz-adv-x="445" d="M249 506v-151h135v-49h-135v-150h-52v150h-136v49h136v151h52z" />
<glyph unicode="," horiz-adv-x="196" d="M131.5 68q12.5 -13 12.5 -33q0 -11 -4 -25t-10 -29l-51 -131h-39l37 145q-23 14 -23 40q0 20 13 33t32 13q20 0 32.5 -13z" />
<glyph unicode="-" horiz-adv-x="363" d="M61 289v48h240v-48h-240z" />
<glyph unicode="." horiz-adv-x="195" d="M130 67.5q13 -13.5 13 -32.5t-13 -32.5t-33 -13.5t-32.5 13.5t-12.5 32.5t12.5 32.5t32.5 13.5t33 -13.5z" />
<glyph unicode="/" horiz-adv-x="468" d="M315 802l48 -11l-210 -890l-48 11z" />
<glyph unicode="0" horiz-adv-x="505" d="M442 332q0 -343 -189 -343q-94 0 -142 85.5t-48 258.5q0 343 190 343q189 0 189 -344zM154 558.5q-33 -70.5 -33 -225.5q0 -156 33 -226.5t99 -70.5q65 0 98 70.5t33 225.5q0 156 -32.5 226.5t-98.5 70.5t-99 -70.5z" />
<glyph unicode="1" horiz-adv-x="373" d="M263 665v-665h-56v603l-146 -101l-26 40l180 123h48z" />
<glyph unicode="2" horiz-adv-x="427" d="M319 628.5q45 -47.5 45 -123.5q0 -64 -24.5 -122t-77 -128t-166.5 -205h284l-8 -50h-339v47q120 144 175 217.5t77 126.5t22 112t-30 92t-82 33q-41 0 -72.5 -18.5t-60.5 -56.5l-38 28q35 48 77.5 71.5t95.5 23.5q77 0 122 -47.5z" />
<glyph unicode="3" horiz-adv-x="439" d="M321 629q45 -47 45 -119q0 -65 -33.5 -104.5t-90.5 -51.5q63 -6 102 -48t39 -118q0 -58 -23.5 -103t-67 -70.5t-100.5 -25.5q-55 0 -97 21t-78 65l36 29q32 -37 64 -52.5t74 -15.5q63 0 99 41t36 111q0 140 -140 140h-39l6 45h30q53 0 91 34.5t38 99.5q0 57 -31.5 90 t-84.5 33q-38 0 -69 -14.5t-62 -46.5l-31 32q36 38 76.5 56.5t88.5 18.5q77 0 122 -47z" />
<glyph unicode="4" horiz-adv-x="468" d="M437 222v-47h-80v-175h-54v175h-263v43l182 458l48 -18l-172 -436h205l6 196h48v-196h80z" />
<glyph unicode="5" horiz-adv-x="441" d="M367 618h-242v-229q47 32 102 32q77 0 123 -55t46 -152q0 -66 -24 -117t-68 -79.5t-103 -28.5q-53 0 -94 20.5t-77 59.5l36 32q29 -33 61 -48.5t74 -15.5q63 0 100 47.5t37 130.5q0 82 -33.5 121t-90.5 39q-29 0 -51 -7.5t-49 -24.5h-43v322h305z" />
<glyph unicode="6" horiz-adv-x="480" d="M387 379.5q45 -53.5 45 -155.5q0 -74 -22.5 -127t-62.5 -80.5t-92 -27.5q-100 0 -146 83t-46 227q0 118 26.5 203t75.5 129.5t116 44.5q61 0 113 -39l-25 -38q-41 30 -89 30q-73 0 -115 -79t-46 -214q60 97 153 97q70 0 115 -53.5zM345 85.5q31 49.5 31 136.5 q0 85 -30 125t-82 40q-44 0 -81.5 -29.5t-63.5 -81.5q2 -119 34.5 -179.5t101.5 -60.5q59 0 90 49.5z" />
<glyph unicode="7" horiz-adv-x="395" d="M363 665v-44l-235 -629l-51 17l229 608h-279v48h336z" />
<glyph unicode="8" horiz-adv-x="487" d="M406.5 279.5q32.5 -41.5 32.5 -106.5q0 -85 -54 -134.5t-143 -49.5t-141.5 50t-52.5 132q0 131 132 186q-56 27 -81 62.5t-25 90.5q0 52 23.5 90t62 57t84.5 19q45 0 84 -18.5t62.5 -55.5t23.5 -91q0 -53 -26.5 -90t-84.5 -69q71 -31 103.5 -72.5zM152.5 433.5 q23.5 -27.5 85.5 -53.5l28 -12q49 30 71 62.5t22 78.5q0 60 -31 91.5t-84 31.5q-52 0 -83.5 -31t-31.5 -92q0 -48 23.5 -75.5zM344.5 70.5q37.5 34.5 37.5 101.5q0 60 -28.5 92t-102.5 62l-31 13q-60 -27 -87.5 -67t-27.5 -101q0 -66 37 -100.5t101 -34.5t101.5 34.5z" />
<glyph unicode="9" horiz-adv-x="470" d="M368.5 607q45.5 -69 45.5 -200q0 -128 -33.5 -210t-98.5 -131t-172 -85l-14 43q124 42 188.5 114t71.5 199q-55 -88 -144 -88q-47 0 -84.5 25t-59 72.5t-21.5 111.5q0 69 23.5 118t65 74.5t94.5 25.5q93 0 138.5 -69zM296.5 321q33.5 26 61.5 76q-1 122 -30.5 177.5 t-95.5 55.5q-61 0 -94.5 -44t-33.5 -129q0 -78 31.5 -120t85.5 -42q42 0 75.5 26z" />
<glyph unicode=":" horiz-adv-x="195" d="M130 67.5q13 -13.5 13 -32.5t-13 -32.5t-33 -13.5t-32.5 13.5t-12.5 32.5t12.5 32.5t32.5 13.5t33 -13.5zM130 458.5q13 -13.5 13 -32.5t-13 -32.5t-33 -13.5t-32.5 13.5t-12.5 32.5t12.5 32.5t32.5 13.5t33 -13.5z" />
<glyph unicode=";" horiz-adv-x="197" d="M131.5 68q12.5 -13 12.5 -33q0 -11 -4 -25t-10 -29l-51 -131h-39l37 145q-23 14 -23 40q0 20 13 33t32 13q20 0 32.5 -13zM130 458.5q13 -13.5 13 -32.5t-13 -32.5t-33 -13.5t-32.5 13.5t-12.5 32.5t12.5 32.5t32.5 13.5t33 -13.5z" />
<glyph unicode="&#x3c;" horiz-adv-x="448" d="M370 525l22 -44l-288 -148l288 -151l-22 -44l-315 169v52z" />
<glyph unicode="=" horiz-adv-x="445" d="M61 393v49h322v-49h-322zM61 219v49h322v-49h-322z" />
<glyph unicode="&#x3e;" horiz-adv-x="448" d="M78 525l314 -166v-52l-314 -169l-23 44l289 151l-289 148z" />
<glyph unicode="?" horiz-adv-x="410" d="M298 676q36 -20 54.5 -53t18.5 -73q0 -35 -11.5 -60.5t-27.5 -42.5t-44 -39q-27 -21 -43 -37t-27 -40t-11 -58v-56h-54v60q0 41 12.5 70t30 47t46.5 40q37 29 54.5 52.5t17.5 62.5q0 45 -28 72t-75 27q-41 0 -72.5 -17.5t-61.5 -56.5l-38 30q37 47 79 69.5t95 22.5 q49 0 85 -20zM214.5 67.5q12.5 -13.5 12.5 -32.5t-12.5 -32.5t-32.5 -13.5t-33 13.5t-13 32.5t13 32.5t33 13.5t32.5 -13.5z" />
<glyph unicode="@" horiz-adv-x="924" d="M677.5 644.5q83.5 -51.5 126 -140t42.5 -196.5q0 -145 -45 -220.5t-119 -75.5q-46 0 -73.5 29.5t-36.5 75.5q-20 -48 -53 -75.5t-79 -27.5q-69 0 -111.5 57.5t-42.5 160.5q0 124 52.5 188t136.5 64q66 0 132 -37v-257q0 -133 74 -133q49 0 79 58.5t30 190.5 q0 101 -36.5 178t-107 120.5t-169.5 43.5q-102 0 -180 -53t-120.5 -145.5t-42.5 -208.5q0 -124 42 -213.5t119 -137t181 -47.5q86 0 169 33l16 -45q-48 -18 -89.5 -27t-96.5 -9q-116 0 -206 53t-140.5 154t-50.5 239q0 128 50 232t141 163.5t208 59.5t200.5 -51.5zM513 87.5 q29 28.5 43 69.5v265q-41 18 -79 18q-64 0 -99.5 -53.5t-35.5 -154.5q0 -86 27 -129.5t76 -43.5q39 0 68 28.5z" />
<glyph unicode="A" d="M439 0l-54 188h-257l-54 -188h-57l205 685h72l205 -685h-60zM142 237h229l-114 400z" />
<glyph unicode="B" horiz-adv-x="539" d="M451 313q41 -41 41 -123q0 -94 -60 -142t-168 -48h-166v685h136q110 0 169.5 -44t59.5 -127q0 -62 -32.5 -100.5t-89.5 -50.5q69 -9 110 -50zM156 637v-253h111q64 0 100.5 33.5t36.5 92.5q0 66 -41.5 96.5t-122.5 30.5h-84zM432 190q0 75 -41.5 111t-117.5 36h-117v-288 h109q167 0 167 141z" />
<glyph unicode="C" horiz-adv-x="497" d="M397.5 680.5q36.5 -15.5 72.5 -47.5l-31 -37q-32 26 -60.5 38t-65.5 12q-87 0 -140 -72.5t-53 -230.5q0 -153 53 -228t139 -75q42 0 71.5 14.5t61.5 41.5l32 -37q-70 -70 -167 -70q-73 0 -130 39.5t-89 119t-32 195.5t33 195.5t90 118.5t128 39q51 0 87.5 -15.5z" />
<glyph unicode="D" horiz-adv-x="571" d="M432.5 613q79.5 -72 79.5 -265q0 -194 -80.5 -271t-198.5 -77h-135v685h125q130 0 209.5 -72zM156 636v-588h80q95 0 155 65t60 235q0 119 -31 182.5t-78.5 84.5t-110.5 21h-75z" />
<glyph unicode="E" horiz-adv-x="461" d="M414 685l-7 -49h-251v-257h218v-48h-218v-282h264v-49h-322v685h316z" />
<glyph unicode="F" horiz-adv-x="433" d="M98 0v685h311l-7 -49h-246v-269h213v-48h-213v-319h-58z" />
<glyph unicode="G" horiz-adv-x="559" d="M410 679.5q39 -16.5 79 -51.5l-34 -35q-33 28 -64 40.5t-72 12.5q-53 0 -98 -29.5t-73 -97t-28 -174.5q0 -306 196 -306q69 0 127 35v246h-119l-7 49h182v-324q-86 -56 -183 -56q-121 0 -189 89t-68 267q0 116 36 195t95 117.5t129 38.5q52 0 91 -16.5z" />
<glyph unicode="H" horiz-adv-x="603" d="M447 0v336h-291v-336h-58v685h58v-300h291v300h58v-685h-58z" />
<glyph unicode="I" horiz-adv-x="255" d="M156 685v-685h-58v685h58z" />
<glyph unicode="J" horiz-adv-x="262" d="M169 91q0 -59 -14.5 -97t-45 -63.5t-83.5 -48.5l-15 42q42 21 63 42t29 50t8 78v591h58v-594z" />
<glyph unicode="K" horiz-adv-x="500" d="M156 685v-685h-58v685h58zM481 685l-255 -315l271 -370h-69l-268 367l256 318h65z" />
<glyph unicode="L" horiz-adv-x="429" d="M156 685v-633h257l-8 -52h-307v685h58z" />
<glyph unicode="M" horiz-adv-x="700" d="M636 0h-55l-28 329q-16 179 -22 299l-153 -547h-56l-158 547q-2 -50 -17 -260l-3 -37l-26 -331h-55l59 685h79l150 -535l146 535h80z" />
<glyph unicode="N" horiz-adv-x="605" d="M507 0h-76l-286 620q8 -92 8 -233v-387h-55v685h76l286 -621q-8 120 -8 202v419h55v-685z" />
<glyph unicode="O" horiz-adv-x="624" d="M496.5 606q67.5 -90 67.5 -264q0 -171 -67.5 -262t-184.5 -91q-76 0 -133 39.5t-88.5 119t-31.5 193.5t31.5 194t88.5 120.5t133 40.5q117 0 184.5 -90zM171 571q-51 -75 -51 -230q0 -153 51.5 -227.5t140.5 -74.5q92 0 142 74t50 229t-50.5 229.5t-141.5 74.5 q-90 0 -141 -75z" />
<glyph unicode="P" horiz-adv-x="512" d="M475 480q0 -109 -64.5 -160.5t-181.5 -51.5h-73v-268h-58v685h132q245 0 245 -205zM367.5 353q46.5 37 46.5 126q0 84 -45 121t-138 37h-75v-321h73q92 0 138.5 37z" />
<glyph unicode="Q" horiz-adv-x="623" d="M588 -46l-39 -46q-48 48 -100.5 65.5t-137.5 17.5q-76 0 -132.5 39.5t-88 118t-31.5 192.5t31.5 194t88.5 120.5t133 40.5q117 0 184.5 -90.5t67.5 -263.5q0 -138 -41 -213t-115 -106q108 -2 180 -69zM171.5 113.5q51.5 -74.5 140.5 -74.5q92 0 142 74t50 229 t-50.5 229.5t-141.5 74.5q-90 0 -141 -75t-51 -230q0 -153 51.5 -227.5z" />
<glyph unicode="R" horiz-adv-x="532" d="M437 0l-159 309l-16 -1h-106v-308h-58v685h141q232 0 232 -186q0 -70 -35.5 -115.5t-101.5 -63.5l169 -320h-66zM369 391q41 35 41 108q0 70 -40 104t-133 34h-81v-281h90q82 0 123 35z" />
<glyph unicode="S" horiz-adv-x="486" d="M339.5 677q41.5 -19 80.5 -57l-33 -35q-35 32 -68.5 46.5t-75.5 14.5q-56 0 -91 -32t-35 -84t31 -82.5t112 -58.5q92 -32 135 -76t43 -126q0 -56 -25.5 -101.5t-72.5 -71t-108 -25.5q-116 0 -199 86l33 34q38 -35 76 -52.5t89 -17.5q66 0 107 39.5t41 106.5 q0 41 -13.5 68t-44.5 47.5t-87 40.5q-94 33 -135 75.5t-41 111.5q0 47 23.5 85.5t65.5 60.5t95 22q56 0 97.5 -19z" />
<glyph unicode="T" horiz-adv-x="447" d="M438 685l-6 -51h-180v-634h-57v634h-182v51h425z" />
<glyph unicode="U" horiz-adv-x="585" d="M496 194q0 -91 -52.5 -148t-151.5 -57q-100 0 -152 57t-52 148v491h58v-486q0 -76 36 -117.5t110 -41.5q75 0 110.5 42t35.5 117v486h58v-491z" />
<glyph unicode="V" horiz-adv-x="499" d="M482 685l-199 -685h-66l-200 685h60l174 -625l173 625h58z" />
<glyph unicode="W" horiz-adv-x="735" d="M706 685l-134 -685h-74l-131 620l-132 -620h-72l-134 685h57l116 -631l132 631h66l135 -631l116 631h55z" />
<glyph unicode="X" horiz-adv-x="464" d="M264 371l192 -371h-63l-163 331l-161 -331h-60l186 368l-168 317h63l140 -280l141 280h60z" />
<glyph unicode="Y" horiz-adv-x="473" d="M462 685l-196 -417v-268h-58v267l-197 418h63l165 -365l162 365h61z" />
<glyph unicode="Z" horiz-adv-x="464" d="M423 685v-48l-329 -586h324l-7 -51h-380v48l330 587h-297v50h359z" />
<glyph unicode="[" horiz-adv-x="286" d="M227 806v-47h-100v-825h100v-46h-153v918h153z" />
<glyph unicode="\" horiz-adv-x="468" d="M152 802l211 -890l-48 -11l-210 890z" />
<glyph unicode="]" horiz-adv-x="286" d="M212 806v-918h-154v46h101v825h-101v47h154z" />
<glyph unicode="^" horiz-adv-x="479" d="M263 832l166 -305h-62l-128 249l-128 -249h-61l166 305h47z" />
<glyph unicode="_" horiz-adv-x="471" d="M26 -121v50h418v-50h-418z" />
<glyph unicode="`" horiz-adv-x="255" d="M60 779l169 -102l-19 -31l-177 84z" />
<glyph unicode="a" horiz-adv-x="484" d="M400 54q9 -17 30 -26l-13 -39q-33 8 -51 27.5t-24 57.5q-51 -85 -145 -85q-68 0 -107.5 42.5t-39.5 113.5q0 82 53 125.5t149 43.5h83v56q0 60 -25 88.5t-80 28.5q-57 0 -130 -30l-16 42q83 35 152 35q79 0 117 -41t38 -119v-267q0 -36 9 -53zM335 130v143h-76 q-150 0 -150 -126q0 -55 25.5 -84t71.5 -29q85 0 129 96z" />
<glyph unicode="b" horiz-adv-x="522" d="M418 465.5q45 -68.5 45 -201.5q0 -130 -47.5 -202.5t-132.5 -72.5q-42 0 -76 21t-59 56l-5 -66h-49v736l56 7v-293q55 84 141 84q82 0 127 -68.5zM369.5 92q33.5 56 33.5 172t-31 169.5t-91 53.5q-42 0 -73 -24t-58 -66v-278q52 -83 124 -83q62 0 95.5 56z" />
<glyph unicode="c" horiz-adv-x="420" d="M330 521.5q32 -12.5 62 -40.5l-28 -36q-23 21 -48 31t-56 10q-66 0 -104.5 -56.5t-38.5 -170.5q0 -113 38 -167t105 -54q31 0 56 10.5t51 31.5l28 -35q-59 -56 -136 -56q-94 0 -148 69.5t-54 199.5t54.5 203t147.5 73q39 0 71 -12.5z" />
<glyph unicode="d" horiz-adv-x="526" d="M432 736v-736h-49l-5 78q-23 -41 -57.5 -65t-82.5 -24q-84 0 -131.5 71.5t-47.5 198.5q0 82 23 144.5t65 96.5t98 34q80 0 131 -70v279zM320 60q31 24 56 72v275q-50 80 -122 80q-63 0 -99.5 -58.5t-35.5 -168.5q0 -111 33.5 -167.5t93.5 -56.5q43 0 74 24z" />
<glyph unicode="e" horiz-adv-x="484" d="M430 239h-315q4 -105 43 -153.5t103 -48.5q37 0 65.5 12t59.5 38l28 -35q-35 -31 -72.5 -47t-82.5 -16q-94 0 -148 70t-54 198q0 130 51.5 203.5t140.5 73.5t136 -66t47 -187q0 -22 -2 -42zM377 299q0 91 -32 139.5t-96 48.5q-58 0 -94 -49t-40 -155h262v16z" />
<glyph unicode="f" horiz-adv-x="291" d="M176 676q-20 -20 -20 -63v-90h124l-7 -46h-117v-477h-56v477h-81v46h81v92q0 59 35.5 93.5t97.5 34.5q57 0 110 -28l-19 -41q-44 22 -87 22q-41 0 -61 -20z" />
<glyph unicode="g" horiz-adv-x="455" d="M447 513q-23 -8 -53.5 -11t-76.5 -4q81 -42 81 -143q0 -79 -46 -125.5t-126 -46.5q-33 0 -61 11q-36 -25 -36 -61q0 -56 78 -56h68q73 0 115 -36.5t42 -95.5q0 -70 -52 -110t-154 -40q-105 0 -151 36.5t-46 113.5h51q1 -56 33 -79.5t114 -23.5q149 0 149 100 q0 42 -28.5 65t-82.5 23h-62q-62 0 -94 25t-32 66q0 51 53 88q-41 23 -60.5 59.5t-19.5 88.5q0 80 48 128.5t127 48.5q85 -1 124.5 6.5t80.5 25.5zM136 455q-30 -35 -30 -98q0 -62 32 -97.5t86 -35.5q57 0 87 33.5t30 98.5q0 63 -29.5 98.5t-86.5 35.5q-59 0 -89 -35z" />
<glyph unicode="h" horiz-adv-x="526" d="M402.5 492.5q34.5 -41.5 34.5 -113.5v-379h-56v371q0 117 -87 117q-43 0 -77.5 -29t-66.5 -82v-377h-56v736l56 7v-308q31 47 68.5 73t86.5 26q63 0 97.5 -41.5z" />
<glyph unicode="i" horiz-adv-x="244" d="M150 523v-523h-56v523h56zM151.5 740q11.5 -12 11.5 -29q0 -18 -11.5 -29.5t-29.5 -11.5t-29.5 11.5t-11.5 29.5q0 17 11.5 29t29.5 12t29.5 -12z" />
<glyph unicode="j" horiz-adv-x="244" d="M150 4q0 -61 -14 -98.5t-40.5 -61t-74.5 -47.5l-18 40q35 19 53.5 37.5t28 48.5t9.5 80v520h56v-519zM151.5 740q11.5 -12 11.5 -29q0 -18 -11.5 -29.5t-29.5 -11.5t-29.5 11.5t-11.5 29.5q0 17 11.5 29t29.5 12t29.5 -12z" />
<glyph unicode="k" horiz-adv-x="442" d="M150 743v-743h-56v736zM415 523l-197 -234l218 -289h-65l-215 286l197 237h62z" />
<glyph unicode="l" horiz-adv-x="257" d="M112 13q-23 24 -23 69v654l56 7v-660q0 -46 38 -46q16 0 32 7l14 -41q-24 -14 -55 -14q-39 0 -62 24z" />
<glyph unicode="m" horiz-adv-x="768" d="M645 492q33 -42 33 -113v-379h-55v371q0 59 -20.5 88t-57.5 29q-39 0 -70.5 -28.5t-60.5 -79.5v-380h-55v371q0 59 -20.5 88t-57.5 29q-39 0 -70.5 -28.5t-60.5 -79.5v-380h-56v523h48l5 -87q60 98 144 98q45 0 75.5 -27t41.5 -75q62 102 147 102q57 0 90 -42z" />
<glyph unicode="n" horiz-adv-x="526" d="M402.5 493q34.5 -41 34.5 -114v-379h-56v371q0 60 -21.5 88.5t-64.5 28.5t-78 -29t-67 -82v-377h-56v523h48l6 -91q62 102 157 102q63 0 97.5 -41z" />
<glyph unicode="o" d="M406 464q53 -70 53 -201q0 -129 -54 -201.5t-148 -72.5t-147 71.5t-53 200.5t53.5 201t147.5 72q95 0 148 -70zM153 430.5q-37 -55.5 -37 -169.5q0 -113 36.5 -169t104.5 -56t105 56t37 171q0 113 -36 168t-105 55q-68 0 -105 -55.5z" />
<glyph unicode="p" horiz-adv-x="522" d="M419.5 465q43.5 -69 43.5 -201q0 -130 -47 -202.5t-133 -72.5q-42 0 -76 19.5t-57 51.5v-257l-56 -8v728h49l4 -75q58 86 145 86q84 0 127.5 -69zM403 264q0 114 -30.5 168.5t-90.5 54.5q-41 0 -73 -24t-59 -65v-283q50 -78 124 -78q129 0 129 227z" />
<glyph unicode="q" horiz-adv-x="526" d="M432 523v-728l-56 8v270q-51 -84 -138 -84q-83 0 -131 71.5t-48 198.5q0 83 22.5 145t64.5 96t99 34q82 0 135 -74l4 63h48zM320.5 60q30.5 24 55.5 71v277q-49 79 -123 79q-61 0 -98 -58t-36 -169q0 -110 33.5 -167t94.5 -57q43 0 73.5 24z" />
<glyph unicode="r" horiz-adv-x="338" d="M327 528l-11 -53q-18 6 -40 6q-48 0 -77.5 -38.5t-48.5 -119.5v-323h-56v523h48l4 -112q20 62 53 92.5t82 30.5q22 0 46 -6z" />
<glyph unicode="s" horiz-adv-x="420" d="M293 519.5q36 -14.5 70 -43.5l-26 -36q-32 25 -60.5 36.5t-62.5 11.5q-47 0 -75.5 -24t-28.5 -66q0 -37 25 -58.5t90 -42.5q81 -26 116 -60.5t35 -96.5q0 -69 -49 -110t-123 -41q-53 0 -94 17.5t-76 49.5l31 34q32 -27 64.5 -40.5t74.5 -13.5q51 0 82.5 27t31.5 75 q0 32 -10.5 51.5t-37 34.5t-76.5 31q-76 24 -108.5 57t-32.5 85q0 39 21 70t57.5 49t80.5 18q45 0 81 -14.5z" />
<glyph unicode="t" horiz-adv-x="310" d="M312 22q-46 -33 -100 -33q-55 0 -86 33t-31 93v362h-79v46h79v125l56 7v-132h121l-7 -46h-114v-360q0 -80 67 -80q34 0 71 22z" />
<glyph unicode="u" horiz-adv-x="522" d="M428 0h-48l-4 90q-55 -101 -152 -101q-63 0 -99 40t-36 111v383h56v-378q0 -109 90 -109q44 0 77 28t60 79v380h56v-523z" />
<glyph unicode="v" horiz-adv-x="429" d="M414 523l-162 -523h-68l-168 523h60l142 -474l138 474h58z" />
<glyph unicode="w" horiz-adv-x="638" d="M612 523l-114 -523h-76l-102 470l-103 -470h-75l-116 523h56l99 -478l107 478h66l106 -478l98 478h54z" />
<glyph unicode="x" horiz-adv-x="419" d="M242 280l166 -280h-64l-136 245l-136 -245h-61l165 278l-145 245h63l115 -211l117 211h61z" />
<glyph unicode="y" horiz-adv-x="428" d="M250 -2q-27 -90 -69 -136.5t-125 -65.5l-7 44q47 13 74 32t43 48t33 80h-20l-163 523h58l142 -481l138 481h58z" />
<glyph unicode="z" horiz-adv-x="381" d="M351 523v-44l-264 -430h263l-6 -49h-320v43l265 431h-243v49h305z" />
<glyph unicode="{" horiz-adv-x="293" d="M236 784q-42 0 -59.5 -18t-17.5 -59v-259q0 -47 -16.5 -67.5t-54.5 -31.5q38 -11 54.5 -31t16.5 -67v-259q0 -41 18 -59t60 -18v-44q-68 0 -99 29t-31 95v257q0 40 -16 56t-52 16v50q35 0 51.5 16.5t16.5 56.5v257q0 66 31 95t99 29z" />
<glyph unicode="|" horiz-adv-x="365" d="M208 804v-904h-52v904h52z" />
<glyph unicode="}" horiz-adv-x="293" d="M155 799q31 -29 31 -95v-257q0 -40 16.5 -56.5t51.5 -16.5v-50q-35 0 -51.5 -16t-16.5 -56v-257q0 -66 -31 -95t-98 -29v44q42 0 59.5 18t17.5 59v259q0 47 16.5 67t54.5 31q-38 11 -54.5 31t-16.5 68v259q0 41 -17.5 59t-59.5 18v44q67 0 98 -29z" />
<glyph unicode="~" horiz-adv-x="426" d="M244.5 274q-18.5 8 -43.5 24q-4 2 -16.5 9.5t-22.5 11t-19 3.5q-20 0 -33.5 -11.5t-29.5 -34.5l-35 19q20 34 43.5 54t57.5 20q21 0 39 -8t41 -23q20 -12 34 -18.5t27 -6.5q19 0 32 10.5t28 32.5l34 -19q-18 -33 -41 -52t-56 -19q-21 0 -39.5 8z" />
<glyph unicode="&#xa1;" horiz-adv-x="228" d="M147 460.5q13 -13.5 13 -32.5t-13 -32.5t-33 -13.5t-33 13.5t-13 32.5t13 32.5t33 13.5t33 -13.5zM139 250l5 -447h-59l5 447h49z" />
<glyph unicode="&#xa2;" horiz-adv-x="420" d="M281 -10v-140h-48v140q-83 10 -129.5 78.5t-46.5 189.5t47 193t130 82v147h47v-147q62 -6 111 -52l-28 -36q-23 21 -48 31t-56 10q-66 0 -104.5 -56.5t-38.5 -170.5q0 -113 38 -167t105 -54q31 0 56 10.5t51 31.5l28 -35q-51 -48 -114 -55z" />
<glyph unicode="&#xa3;" horiz-adv-x="461" d="M161 94q-14 -26 -49 -45h298l-7 -49h-358v47q44 21 59.5 45.5t15.5 75.5v164h-59v41h59v133q0 75 41.5 122.5t115.5 47.5q46 0 81.5 -18.5t64.5 -56.5l-36 -29q-23 30 -48 43.5t-60 13.5q-50 0 -77 -33t-27 -90v-133h192v-41h-192v-163q0 -49 -14 -75z" />
<glyph unicode="&#xa4;" horiz-adv-x="504" d="M428 103l-71 78q-43 -34 -106 -34q-59 0 -104 35l-71 -79l-34 32l73 80q-36 52 -36 126q0 73 36 123l-75 82l36 32l71 -79q45 35 104 35q63 0 106 -34l71 78l34 -32l-73 -79q36 -52 36 -126q0 -75 -35 -125l74 -81zM342.5 230.5q30.5 38.5 30.5 110.5t-30.5 110.5 t-90.5 38.5q-59 0 -89.5 -39t-30.5 -110t30.5 -110t89.5 -39q60 0 90.5 38.5z" />
<glyph unicode="&#xa5;" horiz-adv-x="463" d="M451 665l-174 -327h105v-42h-121v-104h121v-42h-121v-150h-58v150h-121v42h121v104h-121v42h104l-175 327h62l160 -314l159 314h59z" />
<glyph unicode="&#xa6;" horiz-adv-x="365" d="M208 804v-361h-52v361h52zM208 262v-362h-52v362h52z" />
<glyph unicode="&#xa7;" horiz-adv-x="481" d="M373 123.5q12 -23.5 12 -55.5q0 -62 -44.5 -99t-113.5 -37q-85 0 -148 47l24 38q54 -39 124 -39q47 0 74.5 23.5t27.5 62.5q0 26 -8.5 42.5t-32.5 31t-71 32.5q-79 30 -111 60.5t-32 86.5q0 73 73 125q-26 19 -37.5 42t-11.5 56q0 61 43 98t109 37q44 0 77 -12.5 t66 -36.5l-24 -37q-29 20 -57 30t-61 10q-46 0 -71.5 -23.5t-25.5 -62.5q0 -26 9 -43t33 -32t73 -34q73 -28 105 -60t32 -83q0 -74 -70 -126q25 -18 37 -41.5zM138 277q9 -18 31.5 -32.5t67.5 -31.5q41 -15 65 -28q27 22 38.5 46t11.5 54q0 37 -21.5 60.5t-84.5 47.5 q-31 12 -67 29q-50 -44 -50 -99q0 -28 9 -46z" />
<glyph unicode="&#xa8;" horiz-adv-x="308" d="M99.5 729q10.5 -11 10.5 -27q0 -17 -10.5 -28t-27.5 -11q-16 0 -27 11t-11 28q0 16 11 27t27 11q17 0 27.5 -11zM271 729q11 -11 11 -27q0 -17 -11 -28t-27 -11q-17 0 -28 11t-11 28q0 16 11 27t28 11q16 0 27 -11z" />
<glyph unicode="&#xa9;" horiz-adv-x="729" d="M502 698q61 -37 96 -105t35 -158q0 -89 -35 -157.5t-96.5 -106t-136.5 -37.5q-76 0 -137.5 37t-96.5 105.5t-35 158.5t35 158t96.5 105t137.5 37t137 -37zM248 665q-52 -32 -81 -91.5t-29 -138.5q0 -80 29 -139.5t80.5 -91t117.5 -31.5q65 0 116.5 32t80.5 91.5t29 138.5 q0 80 -29 139.5t-80.5 91t-116.5 31.5t-117 -32zM458 581l-22 -31q-17 12 -32.5 18t-36.5 6q-36 0 -61.5 -33t-25.5 -105q0 -71 24 -104.5t65 -33.5q23 0 40 7t34 21l21 -32q-43 -39 -97 -39q-61 0 -98 46.5t-37 134.5t39 133.5t95 45.5q52 0 92 -34z" />
<glyph unicode="&#xaa;" horiz-adv-x="456" d="M296 521v40q0 41 -19 60t-64 19q-43 0 -100 -22l-15 41q68 26 122 26q130 0 130 -120v-200q0 -24 7 -35t23 -18l-11 -38q-28 5 -44 19.5t-21 42.5q-40 -62 -115 -62q-55 0 -87 32t-32 86q0 62 42 95.5t117 33.5h67zM296 381v101h-63q-53 0 -79.5 -21t-26.5 -66 q0 -38 19 -57.5t53 -19.5q61 0 97 63zM71 49h322v-49h-322v49z" />
<glyph unicode="&#xab;" d="M216 519l34 -23l-125 -208l125 -208l-34 -23l-148 211v38zM414 519l34 -23l-125 -208l125 -208l-34 -23l-148 211v38z" />
<glyph unicode="&#xac;" horiz-adv-x="450" d="M389 345v-175h-52v127h-276v48h328z" />
<glyph unicode="&#xad;" horiz-adv-x="363" d="M61 289v48h240v-48h-240z" />
<glyph unicode="&#xae;" horiz-adv-x="576" d="M398 706q50 -30 78.5 -84t28.5 -124q0 -69 -28.5 -123.5t-78.5 -85.5t-111 -31q-60 0 -109.5 30t-78.5 84t-29 123t29 124t78.5 86t109.5 31q61 0 111 -30zM379.5 318.5q41.5 25.5 65 72t23.5 107.5t-23.5 107t-64.5 71t-93 25q-50 0 -91 -26t-64.5 -72.5t-23.5 -107.5 t23.5 -106.5t64.5 -70.5t91 -25q51 0 92.5 25.5zM320 482l67 -118h-46l-58 112h-32v-112h-39v272h62q103 0 103 -80q0 -58 -57 -74zM251 509h34q53 0 53 47q0 46 -57 46h-30v-93z" />
<glyph unicode="&#xaf;" horiz-adv-x="279" d="M252 677h-219v44h219v-44z" />
<glyph unicode="&#xb0;" horiz-adv-x="463" d="M129.5 413.5q-31.5 17.5 -50.5 51.5t-19 81q0 46 19 80t50.5 52t67.5 18q58 0 97.5 -40.5t39.5 -110.5q0 -69 -39.5 -109t-97.5 -40q-36 0 -67.5 17.5zM261 466q24 28 24 79q0 53 -24 81t-64 28q-38 0 -63 -28t-25 -80q0 -51 25 -79.5t63 -28.5q40 0 64 28z" />
<glyph unicode="&#xb1;" horiz-adv-x="445" d="M61 0v49h322v-49h-322zM249 516v-151h135v-49h-135v-150h-52v150h-136v49h136v151h52z" />
<glyph unicode="&#xb2;" horiz-adv-x="360" d="M260 711q31 -31 31 -80q0 -39 -15 -72.5t-48 -74t-106 -119.5h179l-6 -42h-228v40q78 86 112 127.5t48 72t14 65.5t-18 54t-49 19q-47 0 -84 -45l-32 25q26 32 54.5 46.5t64.5 14.5q52 0 83 -31z" />
<glyph unicode="&#xb3;" horiz-adv-x="360" d="M262 715q31 -29 31 -76q0 -39 -22 -64t-59 -32q40 -2 66 -29t26 -74q0 -54 -36 -89.5t-96 -35.5q-70 0 -117 56l30 26q20 -22 40.5 -31.5t45.5 -9.5q39 0 61 23t22 62q0 80 -81 80h-28l6 39h19q31 0 53 19t22 56q0 32 -19 50.5t-50 18.5q-24 0 -44 -8.5t-42 -27.5l-25 28 q26 24 53 36t61 12q52 0 83 -29z" />
<glyph unicode="&#xb4;" horiz-adv-x="255" d="M202 779l26 -49l-177 -84l-18 31z" />
<glyph unicode="&#xb5;" horiz-adv-x="527" d="M400 -9q-11 31 -16 54.5t-7 56.5q-56 -113 -142 -113q-36 0 -59 15.5t-37 45.5q10 -59 10 -129v-118l-55 -6v726h56v-373q0 -58 24 -84.5t63 -26.5q81 0 133 115v369h56v-346q0 -95 25 -179z" />
<glyph unicode="&#xb6;" horiz-adv-x="640" d="M506 685v-882l-52 -9v844h-114v-835l-52 -9v501q-103 4 -151 57.5t-48 137.5q0 93 55.5 144t154.5 51h207z" />
<glyph unicode="&#xb7;" horiz-adv-x="195" d="M130 351.5q13 -13.5 13 -32.5t-13 -32.5t-33 -13.5t-32.5 13.5t-12.5 32.5t12.5 32.5t32.5 13.5t33 -13.5z" />
<glyph unicode="&#xb8;" horiz-adv-x="230" d="M119 -65q42 -4 63 -24t21 -52q0 -40 -27.5 -62.5t-69.5 -22.5q-43 0 -73 21l19 33q26 -14 53 -14q22 0 35.5 11.5t13.5 33.5q0 23 -19.5 34t-61.5 11l10 112h36v-81z" />
<glyph unicode="&#xb9;" horiz-adv-x="360" d="M234 737v-414h-48v361l-92 -59l-22 33l120 79h42z" />
<glyph unicode="&#xba;" horiz-adv-x="452" d="M347 633q43 -52 43 -152q0 -99 -44 -153t-121 -54t-120.5 53t-43.5 152q0 98 44 152t121 54q78 0 121 -52zM118 479q0 -160 108 -160t108 162q0 82 -27 120.5t-80 38.5q-109 0 -109 -161zM64 0v49h322v-49h-322z" />
<glyph unicode="&#xbb;" horiz-adv-x="512" d="M102 519l148 -213v-38l-148 -211l-34 23l125 208l-125 208zM296 519l148 -213v-38l-148 -211l-34 23l125 208l-125 208z" />
<glyph unicode="&#xbc;" horiz-adv-x="825" d="M234 685v-414h-48v361l-92 -59l-22 33l120 79h42zM577 747l38 -17l-366 -800l-39 17zM778 144v-40h-50v-104h-48v104h-169v36l116 281l41 -16l-108 -261h120l7 116h41v-116h50z" />
<glyph unicode="&#xbd;" horiz-adv-x="825" d="M234 685v-414h-48v361l-92 -59l-22 33l120 79h42zM577 747l38 -17l-366 -800l-39 17zM725 388q31 -31 31 -80q0 -39 -15 -72.5t-48 -74t-106 -119.5h179l-6 -42h-228v40q78 86 112 127.5t48 72t14 65.5t-18 54t-49 19q-47 0 -84 -45l-32 25q26 32 54.5 46.5t64.5 14.5 q52 0 83 -31z" />
<glyph unicode="&#xbe;" horiz-adv-x="825" d="M262 663q31 -29 31 -76q0 -39 -22 -64t-59 -32q40 -2 66 -29t26 -74q0 -54 -36 -89.5t-96 -35.5q-70 0 -117 56l30 26q20 -22 40.5 -31.5t45.5 -9.5q39 0 61 23t22 62q0 80 -81 80h-28l6 39h19q31 0 53 19t22 56q0 32 -19 50.5t-50 18.5q-24 0 -44 -8.5t-42 -27.5l-25 28 q26 24 53 36t61 12q52 0 83 -29zM577 747l38 -17l-366 -800l-39 17zM778 144v-40h-50v-104h-48v104h-169v36l116 281l41 -16l-108 -261h120l7 116h41v-116h50z" />
<glyph unicode="&#xbf;" horiz-adv-x="410" d="M196 395q-13 13 -13 32t13 32.5t33 13.5t32.5 -13.5t12.5 -32.5t-12.5 -32t-32.5 -13t-33 13zM113 -186.5q-36 19.5 -55 52.5t-19 71q0 36 11.5 62t28.5 43t45 39q39 31 59 58t20 72v38h54v-42q0 -40 -12 -67.5t-29.5 -45.5t-45.5 -40q-37 -28 -55 -52t-18 -63 q0 -44 28 -70.5t75 -26.5q40 0 71.5 17.5t61.5 55.5l38 -29q-36 -47 -78 -69.5t-95 -22.5q-49 0 -85 19.5z" />
<glyph unicode="&#xc0;" d="M439 0l-54 188h-257l-54 -188h-57l205 685h72l205 -685h-60zM142 237h229l-114 400zM184 885l169 -95l-16 -32l-179 77z" />
<glyph unicode="&#xc1;" d="M439 0l-54 188h-257l-54 -188h-57l205 685h72l205 -685h-60zM142 237h229l-114 400zM331 885l25 -50l-179 -77l-16 33z" />
<glyph unicode="&#xc2;" d="M439 0l-54 188h-257l-54 -188h-57l205 685h72l205 -685h-60zM142 237h229l-114 400zM149 763l-25 27l117 102h35l116 -102l-24 -27l-110 80z" />
<glyph unicode="&#xc3;" d="M439 0l-54 188h-257l-54 -188h-57l205 685h72l205 -685h-60zM142 237h229l-114 400zM281.5 800.5q-13.5 6.5 -33.5 18.5q-27 19 -42 19t-26.5 -9t-24.5 -30l-33 17q33 66 83 66q16 0 29.5 -6.5t29.5 -17.5q17 -11 26.5 -15.5t20.5 -4.5q14 0 25.5 10t25.5 33l33 -17 q-31 -70 -83 -70q-17 0 -30.5 6.5z" />
<glyph unicode="&#xc4;" d="M439 0l-54 188h-257l-54 -188h-57l205 685h72l205 -685h-60zM142 237h229l-114 400zM203.5 855q10.5 -11 10.5 -27q0 -17 -10.5 -28t-27.5 -11q-16 0 -27 11t-11 28q0 16 11 27t27 11q17 0 27.5 -11zM375 855q11 -11 11 -27q0 -17 -11 -28t-27 -11q-17 0 -28 11t-11 28 q0 16 11 27t28 11q16 0 27 -11z" />
<glyph unicode="&#xc5;" d="M439 0l-54 188h-257l-54 -188h-57l205 685h72l205 -685h-60zM142 237h229l-114 400zM325 920.5q25 -25.5 25 -67.5q0 -43 -25 -68.5t-66 -25.5q-40 0 -65 25.5t-25 68.5q0 42 25 67.5t65 25.5q41 0 66 -25.5zM210 853q0 -60 49 -60q24 0 37 15t13 45q0 59 -50 59 q-49 0 -49 -59z" />
<glyph unicode="&#xc6;" horiz-adv-x="707" d="M461 49h206v-49h-252l-41 185h-254l-63 -185h-58l241 685h384l-7 -49h-289l58 -257h231v-48h-220zM136 233h228l-90 406z" />
<glyph unicode="&#xc7;" horiz-adv-x="497" d="M388 -89q21 -20 21 -52q0 -40 -27.5 -62.5t-69.5 -22.5q-43 0 -73 21l19 33q26 -14 53 -14q22 0 35.5 11.5t13.5 33.5q0 23 -19.5 34t-61.5 11l8 86q-103 9 -165.5 99.5t-62.5 253.5q0 116 33 195.5t90 118.5t128 39q51 0 87.5 -15.5t72.5 -47.5l-31 -37q-32 26 -60.5 38 t-65.5 12q-87 0 -140 -72.5t-53 -230.5q0 -153 53 -228t139 -75q42 0 71.5 14.5t61.5 41.5l32 -37q-65 -65 -152 -70v-54q42 -4 63 -24z" />
<glyph unicode="&#xc8;" horiz-adv-x="461" d="M414 685l-7 -49h-251v-257h218v-48h-218v-282h264v-49h-322v685h316zM185 885l169 -95l-16 -32l-179 77z" />
<glyph unicode="&#xc9;" horiz-adv-x="461" d="M414 685l-7 -49h-251v-257h218v-48h-218v-282h264v-49h-322v685h316zM332 885l25 -50l-179 -77l-16 33z" />
<glyph unicode="&#xca;" horiz-adv-x="461" d="M414 685l-7 -49h-251v-257h218v-48h-218v-282h264v-49h-322v685h316zM150 763l-25 27l117 102h35l116 -102l-24 -27l-110 80z" />
<glyph unicode="&#xcb;" horiz-adv-x="461" d="M414 685l-7 -49h-251v-257h218v-48h-218v-282h264v-49h-322v685h316zM204.5 855q10.5 -11 10.5 -27q0 -17 -10.5 -28t-27.5 -11q-16 0 -27 11t-11 28q0 16 11 27t27 11q17 0 27.5 -11zM376 855q11 -11 11 -27q0 -17 -11 -28t-27 -11q-17 0 -28 11t-11 28q0 16 11 27 t28 11q16 0 27 -11z" />
<glyph unicode="&#xcc;" horiz-adv-x="255" d="M156 685v-685h-58v685h58zM52 885l169 -95l-16 -32l-179 77z" />
<glyph unicode="&#xcd;" horiz-adv-x="255" d="M156 685v-685h-58v685h58zM199 885l25 -50l-179 -77l-16 33z" />
<glyph unicode="&#xce;" horiz-adv-x="255" d="M156 685v-685h-58v685h58zM17 763l-25 27l117 102h35l116 -102l-24 -27l-110 80z" />
<glyph unicode="&#xcf;" horiz-adv-x="255" d="M156 685v-685h-58v685h58zM71.5 855q10.5 -11 10.5 -27q0 -17 -10.5 -28t-27.5 -11q-16 0 -27 11t-11 28q0 16 11 27t27 11q17 0 27.5 -11zM243 855q11 -11 11 -27q0 -17 -11 -28t-27 -11q-17 0 -28 11t-11 28q0 16 11 27t28 11q16 0 27 -11z" />
<glyph unicode="&#xd0;" horiz-adv-x="576" d="M438.5 613q79.5 -72 79.5 -265q0 -194 -80.5 -271t-198.5 -77h-135v329h-83v47h83v309h125q130 0 209.5 -72zM397 113q60 65 60 235q0 119 -31 182.5t-78.5 84.5t-110.5 21h-75v-260h153v-47h-153v-281h80q95 0 155 65z" />
<glyph unicode="&#xd1;" horiz-adv-x="605" d="M507 0h-76l-286 620q8 -92 8 -233v-387h-55v685h76l286 -621q-8 120 -8 202v419h55v-685zM333.5 800.5q-13.5 6.5 -33.5 18.5q-27 19 -42 19t-26.5 -9t-24.5 -30l-33 17q33 66 83 66q16 0 29.5 -6.5t29.5 -17.5q17 -11 26.5 -15.5t20.5 -4.5q14 0 25.5 10t25.5 33l33 -17 q-31 -70 -83 -70q-17 0 -30.5 6.5z" />
<glyph unicode="&#xd2;" horiz-adv-x="624" d="M496.5 606q67.5 -90 67.5 -264q0 -171 -67.5 -262t-184.5 -91q-76 0 -133 39.5t-88.5 119t-31.5 193.5t31.5 194t88.5 120.5t133 40.5q117 0 184.5 -90zM171 571q-51 -75 -51 -230q0 -153 51.5 -227.5t140.5 -74.5q92 0 142 74t50 229t-50.5 229.5t-141.5 74.5 q-90 0 -141 -75zM237 885l169 -95l-16 -32l-179 77z" />
<glyph unicode="&#xd3;" horiz-adv-x="624" d="M496.5 606q67.5 -90 67.5 -264q0 -171 -67.5 -262t-184.5 -91q-76 0 -133 39.5t-88.5 119t-31.5 193.5t31.5 194t88.5 120.5t133 40.5q117 0 184.5 -90zM171 571q-51 -75 -51 -230q0 -153 51.5 -227.5t140.5 -74.5q92 0 142 74t50 229t-50.5 229.5t-141.5 74.5 q-90 0 -141 -75zM384 885l25 -50l-179 -77l-16 33z" />
<glyph unicode="&#xd4;" horiz-adv-x="624" d="M496.5 606q67.5 -90 67.5 -264q0 -171 -67.5 -262t-184.5 -91q-76 0 -133 39.5t-88.5 119t-31.5 193.5t31.5 194t88.5 120.5t133 40.5q117 0 184.5 -90zM171 571q-51 -75 -51 -230q0 -153 51.5 -227.5t140.5 -74.5q92 0 142 74t50 229t-50.5 229.5t-141.5 74.5 q-90 0 -141 -75zM202 763l-25 27l117 102h35l116 -102l-24 -27l-110 80z" />
<glyph unicode="&#xd5;" horiz-adv-x="624" d="M496.5 606q67.5 -90 67.5 -264q0 -171 -67.5 -262t-184.5 -91q-76 0 -133 39.5t-88.5 119t-31.5 193.5t31.5 194t88.5 120.5t133 40.5q117 0 184.5 -90zM171 571q-51 -75 -51 -230q0 -153 51.5 -227.5t140.5 -74.5q92 0 142 74t50 229t-50.5 229.5t-141.5 74.5 q-90 0 -141 -75zM334.5 800.5q-13.5 6.5 -33.5 18.5q-27 19 -42 19t-26.5 -9t-24.5 -30l-33 17q33 66 83 66q16 0 29.5 -6.5t29.5 -17.5q17 -11 26.5 -15.5t20.5 -4.5q14 0 25.5 10t25.5 33l33 -17q-31 -70 -83 -70q-17 0 -30.5 6.5z" />
<glyph unicode="&#xd6;" horiz-adv-x="624" d="M496.5 606q67.5 -90 67.5 -264q0 -171 -67.5 -262t-184.5 -91q-76 0 -133 39.5t-88.5 119t-31.5 193.5t31.5 194t88.5 120.5t133 40.5q117 0 184.5 -90zM171 571q-51 -75 -51 -230q0 -153 51.5 -227.5t140.5 -74.5q92 0 142 74t50 229t-50.5 229.5t-141.5 74.5 q-90 0 -141 -75zM256.5 855q10.5 -11 10.5 -27q0 -17 -10.5 -28t-27.5 -11q-16 0 -27 11t-11 28q0 16 11 27t27 11q17 0 27.5 -11zM428 855q11 -11 11 -27q0 -17 -11 -28t-27 -11q-17 0 -28 11t-11 28q0 16 11 27t28 11q16 0 27 -11z" />
<glyph unicode="&#xd7;" horiz-adv-x="445" d="M335 470l37 -32l-115 -130l115 -132l-38 -31l-111 129l-113 -129l-37 31l114 130l-114 132l37 32l111 -131z" />
<glyph unicode="&#xd8;" horiz-adv-x="624" d="M527.5 550.5q36.5 -82.5 36.5 -208.5q0 -170 -67.5 -261.5t-184.5 -91.5q-37 0 -69 9l-31 -117l-50 13l35 123q-65 37 -101.5 119t-36.5 205q0 114 31.5 194t88.5 120.5t133 40.5q35 0 67 -9l32 123l50 -14l-36 -127q66 -36 102.5 -118.5zM218 65l152 573q-29 8 -58 8 q-91 0 -142 -75t-51 -230q0 -213 99 -276zM453.5 113q49.5 74 50.5 229q0 218 -99 280l-151 -574q27 -9 58 -9q92 0 141.5 74z" />
<glyph unicode="&#xd9;" horiz-adv-x="585" d="M496 194q0 -91 -52.5 -148t-151.5 -57q-100 0 -152 57t-52 148v491h58v-486q0 -76 36 -117.5t110 -41.5q75 0 110.5 42t35.5 117v486h58v-491zM217 885l169 -95l-16 -32l-179 77z" />
<glyph unicode="&#xda;" horiz-adv-x="585" d="M496 194q0 -91 -52.5 -148t-151.5 -57q-100 0 -152 57t-52 148v491h58v-486q0 -76 36 -117.5t110 -41.5q75 0 110.5 42t35.5 117v486h58v-491zM364 885l25 -50l-179 -77l-16 33z" />
<glyph unicode="&#xdb;" horiz-adv-x="585" d="M496 194q0 -91 -52.5 -148t-151.5 -57q-100 0 -152 57t-52 148v491h58v-486q0 -76 36 -117.5t110 -41.5q75 0 110.5 42t35.5 117v486h58v-491zM182 763l-25 27l117 102h35l116 -102l-24 -27l-110 80z" />
<glyph unicode="&#xdc;" horiz-adv-x="585" d="M496 194q0 -91 -52.5 -148t-151.5 -57q-100 0 -152 57t-52 148v491h58v-486q0 -76 36 -117.5t110 -41.5q75 0 110.5 42t35.5 117v486h58v-491zM236.5 855q10.5 -11 10.5 -27q0 -17 -10.5 -28t-27.5 -11q-16 0 -27 11t-11 28q0 16 11 27t27 11q17 0 27.5 -11zM408 855 q11 -11 11 -27q0 -17 -11 -28t-27 -11q-17 0 -28 11t-11 28q0 16 11 27t28 11q16 0 27 -11z" />
<glyph unicode="&#xdd;" horiz-adv-x="473" d="M462 685l-196 -417v-268h-58v267l-197 418h63l165 -365l162 365h61zM308 885l25 -50l-179 -77l-16 33z" />
<glyph unicode="&#xde;" horiz-adv-x="512" d="M475 356q0 -114 -64 -166.5t-179 -52.5h-76v-137h-58v685h58v-123h77q242 0 242 -206zM367.5 223q46.5 38 46.5 132q0 85 -44.5 122t-137.5 37h-76v-329h74q91 0 137.5 38z" />
<glyph unicode="&#xdf;" horiz-adv-x="525" d="M373 705.5q41 -37.5 41 -96.5q0 -40 -16.5 -65.5t-45.5 -51.5q-22 -21 -32 -35t-10 -33q0 -23 15 -40.5t49 -43.5q35 -27 56 -48.5t37 -55.5t16 -81q0 -74 -41.5 -120t-106.5 -46q-50 0 -87 22l18 40q28 -15 64 -15q44 0 70 31t26 88q0 39 -13 67t-32 47t-50 43 q-38 30 -56 52.5t-18 56.5q0 26 12 44t36 41q27 25 41 46.5t14 54.5q0 42 -26.5 66t-68.5 24q-53 0 -84 -36.5t-31 -105.5v-555h-56v557q0 86 47 136t124 50q67 0 108 -37.5z" />
<glyph unicode="&#xe0;" horiz-adv-x="484" d="M400 54q9 -17 30 -26l-13 -39q-33 8 -51 27.5t-24 57.5q-51 -85 -145 -85q-68 0 -107.5 42.5t-39.5 113.5q0 82 53 125.5t149 43.5h83v56q0 60 -25 88.5t-80 28.5q-57 0 -130 -30l-16 42q83 35 152 35q79 0 117 -41t38 -119v-267q0 -36 9 -53zM335 130v143h-76 q-150 0 -150 -126q0 -55 25.5 -84t71.5 -29q85 0 129 96zM167 779l169 -102l-19 -31l-177 84z" />
<glyph unicode="&#xe1;" horiz-adv-x="484" d="M400 54q9 -17 30 -26l-13 -39q-33 8 -51 27.5t-24 57.5q-51 -85 -145 -85q-68 0 -107.5 42.5t-39.5 113.5q0 82 53 125.5t149 43.5h83v56q0 60 -25 88.5t-80 28.5q-57 0 -130 -30l-16 42q83 35 152 35q79 0 117 -41t38 -119v-267q0 -36 9 -53zM335 130v143h-76 q-150 0 -150 -126q0 -55 25.5 -84t71.5 -29q85 0 129 96zM300 779l26 -49l-177 -84l-18 31z" />
<glyph unicode="&#xe2;" horiz-adv-x="484" d="M400 54q9 -17 30 -26l-13 -39q-33 8 -51 27.5t-24 57.5q-51 -85 -145 -85q-68 0 -107.5 42.5t-39.5 113.5q0 82 53 125.5t149 43.5h83v56q0 60 -25 88.5t-80 28.5q-57 0 -130 -30l-16 42q83 35 152 35q79 0 117 -41t38 -119v-267q0 -36 9 -53zM335 130v143h-76 q-150 0 -150 -126q0 -55 25.5 -84t71.5 -29q85 0 129 96zM124 645l-25 27l117 107h34l117 -107l-24 -27l-110 85z" />
<glyph unicode="&#xe3;" horiz-adv-x="484" d="M400 54q9 -17 30 -26l-13 -39q-33 8 -51 27.5t-24 57.5q-51 -85 -145 -85q-68 0 -107.5 42.5t-39.5 113.5q0 82 53 125.5t149 43.5h83v56q0 60 -25 88.5t-80 28.5q-57 0 -130 -30l-16 42q83 35 152 35q79 0 117 -41t38 -119v-267q0 -36 9 -53zM335 130v143h-76 q-150 0 -150 -126q0 -55 25.5 -84t71.5 -29q85 0 129 96zM256.5 674.5q-13.5 6.5 -33.5 18.5q-27 19 -42 19t-26.5 -9t-24.5 -30l-33 17q33 66 83 66q16 0 29.5 -6.5t29.5 -17.5q17 -11 26.5 -15.5t20.5 -4.5q14 0 25.5 10t25.5 33l33 -17q-31 -70 -83 -70q-17 0 -30.5 6.5z " />
<glyph unicode="&#xe4;" horiz-adv-x="484" d="M400 54q9 -17 30 -26l-13 -39q-33 8 -51 27.5t-24 57.5q-51 -85 -145 -85q-68 0 -107.5 42.5t-39.5 113.5q0 82 53 125.5t149 43.5h83v56q0 60 -25 88.5t-80 28.5q-57 0 -130 -30l-16 42q83 35 152 35q79 0 117 -41t38 -119v-267q0 -36 9 -53zM335 130v143h-76 q-150 0 -150 -126q0 -55 25.5 -84t71.5 -29q85 0 129 96zM175.5 729q10.5 -11 10.5 -27q0 -17 -10.5 -28t-27.5 -11q-16 0 -27 11t-11 28q0 16 11 27t27 11q17 0 27.5 -11zM347 729q11 -11 11 -27q0 -17 -11 -28t-27 -11q-17 0 -28 11t-11 28q0 16 11 27t28 11q16 0 27 -11z " />
<glyph unicode="&#xe5;" horiz-adv-x="484" d="M400 54q9 -17 30 -26l-13 -39q-33 8 -51 27.5t-24 57.5q-51 -85 -145 -85q-68 0 -107.5 42.5t-39.5 113.5q0 82 53 125.5t149 43.5h83v56q0 60 -25 88.5t-80 28.5q-57 0 -130 -30l-16 42q83 35 152 35q79 0 117 -41t38 -119v-267q0 -36 9 -53zM335 130v143h-76 q-150 0 -150 -126q0 -55 25.5 -84t71.5 -29q85 0 129 96zM300 794.5q25 -25.5 25 -67.5q0 -43 -25 -68.5t-66 -25.5q-40 0 -65 25.5t-25 68.5q0 42 25 67.5t65 25.5q41 0 66 -25.5zM185 727q0 -60 49 -60q24 0 37 15t13 45q0 59 -50 59q-49 0 -49 -59z" />
<glyph unicode="&#xe6;" horiz-adv-x="763" d="M709 239h-314q5 -103 44 -152.5t102 -49.5q36 0 65 12t60 38l27 -34q-35 -32 -72.5 -48t-83.5 -16q-57 0 -100 27.5t-69 78.5q-36 -57 -76 -81.5t-93 -24.5q-69 0 -109 42.5t-40 113.5q0 82 53.5 125.5t148.5 43.5h84v51q0 63 -25 92t-83 29q-53 0 -127 -29l-15 42 q84 35 150 35q60 0 94.5 -25.5t48.5 -74.5q52 100 152 100q88 0 134 -66t46 -187q0 -22 -2 -42zM656 299q0 91 -31.5 139.5t-94.5 48.5q-59 0 -95.5 -50.5t-40.5 -153.5h262v16zM284.5 59.5q33.5 25.5 66.5 81.5q-15 50 -15 115v17h-78q-72 0 -110 -31.5t-38 -94.5 q0 -54 26 -83.5t72 -29.5q43 0 76.5 25.5z" />
<glyph unicode="&#xe7;" horiz-adv-x="420" d="M334 -89q21 -20 21 -52q0 -40 -27.5 -62.5t-69.5 -22.5q-43 0 -73 21l19 33q26 -14 53 -14q22 0 35.5 11.5t13.5 33.5q0 23 -19.5 34t-61.5 11l8 86q-83 10 -129.5 78.5t-46.5 189.5q0 130 54.5 203t147.5 73q39 0 71 -12.5t62 -40.5l-28 -36q-23 21 -48 31t-56 10 q-66 0 -104.5 -56.5t-38.5 -170.5q0 -113 38 -167t105 -54q31 0 56 10.5t51 31.5l28 -35q-55 -52 -124 -56v-54q42 -4 63 -24z" />
<glyph unicode="&#xe8;" horiz-adv-x="484" d="M430 239h-315q4 -105 43 -153.5t103 -48.5q37 0 65.5 12t59.5 38l28 -35q-35 -31 -72.5 -47t-82.5 -16q-94 0 -148 70t-54 198q0 130 51.5 203.5t140.5 73.5t136 -66t47 -187q0 -22 -2 -42zM377 299q0 91 -32 139.5t-96 48.5q-58 0 -94 -49t-40 -155h262v16zM183 779 l169 -102l-19 -31l-177 84z" />
<glyph unicode="&#xe9;" horiz-adv-x="484" d="M430 239h-315q4 -105 43 -153.5t103 -48.5q37 0 65.5 12t59.5 38l28 -35q-35 -31 -72.5 -47t-82.5 -16q-94 0 -148 70t-54 198q0 130 51.5 203.5t140.5 73.5t136 -66t47 -187q0 -22 -2 -42zM377 299q0 91 -32 139.5t-96 48.5q-58 0 -94 -49t-40 -155h262v16zM316 779 l26 -49l-177 -84l-18 31z" />
<glyph unicode="&#xea;" horiz-adv-x="484" d="M430 239h-315q4 -105 43 -153.5t103 -48.5q37 0 65.5 12t59.5 38l28 -35q-35 -31 -72.5 -47t-82.5 -16q-94 0 -148 70t-54 198q0 130 51.5 203.5t140.5 73.5t136 -66t47 -187q0 -22 -2 -42zM377 299q0 91 -32 139.5t-96 48.5q-58 0 -94 -49t-40 -155h262v16zM140 645 l-25 27l117 107h34l117 -107l-24 -27l-110 85z" />
<glyph unicode="&#xeb;" horiz-adv-x="484" d="M430 239h-315q4 -105 43 -153.5t103 -48.5q37 0 65.5 12t59.5 38l28 -35q-35 -31 -72.5 -47t-82.5 -16q-94 0 -148 70t-54 198q0 130 51.5 203.5t140.5 73.5t136 -66t47 -187q0 -22 -2 -42zM377 299q0 91 -32 139.5t-96 48.5q-58 0 -94 -49t-40 -155h262v16zM191.5 729 q10.5 -11 10.5 -27q0 -17 -10.5 -28t-27.5 -11q-16 0 -27 11t-11 28q0 16 11 27t27 11q17 0 27.5 -11zM363 729q11 -11 11 -27q0 -17 -11 -28t-27 -11q-17 0 -28 11t-11 28q0 16 11 27t28 11q16 0 27 -11z" />
<glyph unicode="&#xec;" horiz-adv-x="244" d="M150 523v-523h-56v523h56zM55 779l169 -102l-19 -31l-177 84z" />
<glyph unicode="&#xed;" horiz-adv-x="244" d="M150 523v-523h-56v523h56zM188 779l26 -49l-177 -84l-18 31z" />
<glyph unicode="&#xee;" horiz-adv-x="244" d="M150 523v-523h-56v523h56zM12 645l-25 27l117 107h34l117 -107l-24 -27l-110 85z" />
<glyph unicode="&#xef;" horiz-adv-x="244" d="M150 523v-523h-56v523h56zM63.5 729q10.5 -11 10.5 -27q0 -17 -10.5 -28t-27.5 -11q-16 0 -27 11t-11 28q0 16 11 27t27 11q17 0 27.5 -11zM235 729q11 -11 11 -27q0 -17 -11 -28t-27 -11q-17 0 -28 11t-11 28q0 16 11 27t28 11q16 0 27 -11z" />
<glyph unicode="&#xf0;" horiz-adv-x="503" d="M405.5 509q35.5 -91 35.5 -228q0 -141 -52.5 -216.5t-141.5 -75.5q-87 0 -138.5 65t-51.5 179q0 63 20.5 117t61 86t95.5 32q44 0 78.5 -19.5t65.5 -57.5q-10 76 -38 133.5t-81 103.5l-69 -77l-40 19l74 84q-57 35 -109 46l11 44q69 -15 131 -55l63 72l34 -28l-61 -70 q77 -63 112.5 -154zM347.5 99q36.5 63 36.5 184l-1 48q-61 91 -142 91q-62 0 -94 -52t-32 -137q0 -95 34.5 -146t96.5 -51q65 0 101.5 63z" />
<glyph unicode="&#xf1;" horiz-adv-x="526" d="M402.5 493q34.5 -41 34.5 -114v-379h-56v371q0 60 -21.5 88.5t-64.5 28.5t-78 -29t-67 -82v-377h-56v523h48l6 -91q62 102 157 102q63 0 97.5 -41zM290.5 674.5q-13.5 6.5 -33.5 18.5q-27 19 -42 19t-26.5 -9t-24.5 -30l-33 17q33 66 83 66q16 0 29.5 -6.5t29.5 -17.5 q17 -11 26.5 -15.5t20.5 -4.5q14 0 25.5 10t25.5 33l33 -17q-31 -70 -83 -70q-17 0 -30.5 6.5z" />
<glyph unicode="&#xf2;" d="M406 464q53 -70 53 -201q0 -129 -54 -201.5t-148 -72.5t-147 71.5t-53 200.5t53.5 201t147.5 72q95 0 148 -70zM153 430.5q-37 -55.5 -37 -169.5q0 -113 36.5 -169t104.5 -56t105 56t37 171q0 113 -36 168t-105 55q-68 0 -105 -55.5zM191 779l169 -102l-19 -31l-177 84z " />
<glyph unicode="&#xf3;" d="M406 464q53 -70 53 -201q0 -129 -54 -201.5t-148 -72.5t-147 71.5t-53 200.5t53.5 201t147.5 72q95 0 148 -70zM153 430.5q-37 -55.5 -37 -169.5q0 -113 36.5 -169t104.5 -56t105 56t37 171q0 113 -36 168t-105 55q-68 0 -105 -55.5zM324 779l26 -49l-177 -84l-18 31z " />
<glyph unicode="&#xf4;" d="M406 464q53 -70 53 -201q0 -129 -54 -201.5t-148 -72.5t-147 71.5t-53 200.5t53.5 201t147.5 72q95 0 148 -70zM153 430.5q-37 -55.5 -37 -169.5q0 -113 36.5 -169t104.5 -56t105 56t37 171q0 113 -36 168t-105 55q-68 0 -105 -55.5zM148 645l-25 27l117 107h34l117 -107 l-24 -27l-110 85z" />
<glyph unicode="&#xf5;" d="M406 464q53 -70 53 -201q0 -129 -54 -201.5t-148 -72.5t-147 71.5t-53 200.5t53.5 201t147.5 72q95 0 148 -70zM153 430.5q-37 -55.5 -37 -169.5q0 -113 36.5 -169t104.5 -56t105 56t37 171q0 113 -36 168t-105 55q-68 0 -105 -55.5zM280.5 674.5q-13.5 6.5 -33.5 18.5 q-27 19 -42 19t-26.5 -9t-24.5 -30l-33 17q33 66 83 66q16 0 29.5 -6.5t29.5 -17.5q17 -11 26.5 -15.5t20.5 -4.5q14 0 25.5 10t25.5 33l33 -17q-31 -70 -83 -70q-17 0 -30.5 6.5z" />
<glyph unicode="&#xf6;" d="M406 464q53 -70 53 -201q0 -129 -54 -201.5t-148 -72.5t-147 71.5t-53 200.5t53.5 201t147.5 72q95 0 148 -70zM153 430.5q-37 -55.5 -37 -169.5q0 -113 36.5 -169t104.5 -56t105 56t37 171q0 113 -36 168t-105 55q-68 0 -105 -55.5zM199.5 729q10.5 -11 10.5 -27 q0 -17 -10.5 -28t-27.5 -11q-16 0 -27 11t-11 28q0 16 11 27t27 11q17 0 27.5 -11zM371 729q11 -11 11 -27q0 -17 -11 -28t-27 -11q-17 0 -28 11t-11 28q0 16 11 27t28 11q16 0 27 -11z" />
<glyph unicode="&#xf7;" horiz-adv-x="445" d="M255 145.5q13 -13.5 13 -32.5t-13 -32.5t-33 -13.5t-32.5 13.5t-12.5 32.5t12.5 32.5t32.5 13.5t33 -13.5zM255 581.5q13 -13.5 13 -32.5t-13 -32.5t-33 -13.5t-32.5 13.5t-12.5 32.5t12.5 32.5t32.5 13.5t33 -13.5zM61 307v49h322v-49h-322z" />
<glyph unicode="&#xf8;" d="M432.5 417q26.5 -62 26.5 -154q0 -129 -54 -201.5t-148 -72.5q-30 0 -54 7l-37 -121l-46 13l40 126q-50 30 -76.5 93.5t-26.5 153.5q0 129 53.5 201t147.5 72q32 0 57 -7l35 121l46 -13l-39 -126q49 -30 75.5 -92zM180 60l123 421q-21 6 -45 6q-68 0 -105 -56t-37 -170 q0 -153 64 -201zM363 92q37 56 37 171q0 152 -63 200l-123 -421q20 -6 43 -6q69 0 106 56z" />
<glyph unicode="&#xf9;" horiz-adv-x="522" d="M428 0h-48l-4 90q-55 -101 -152 -101q-63 0 -99 40t-36 111v383h56v-378q0 -109 90 -109q44 0 77 28t60 79v380h56v-523zM192 779l169 -102l-19 -31l-177 84z" />
<glyph unicode="&#xfa;" horiz-adv-x="522" d="M428 0h-48l-4 90q-55 -101 -152 -101q-63 0 -99 40t-36 111v383h56v-378q0 -109 90 -109q44 0 77 28t60 79v380h56v-523zM325 779l26 -49l-177 -84l-18 31z" />
<glyph unicode="&#xfb;" horiz-adv-x="522" d="M428 0h-48l-4 90q-55 -101 -152 -101q-63 0 -99 40t-36 111v383h56v-378q0 -109 90 -109q44 0 77 28t60 79v380h56v-523zM149 645l-25 27l117 107h34l117 -107l-24 -27l-110 85z" />
<glyph unicode="&#xfc;" horiz-adv-x="522" d="M428 0h-48l-4 90q-55 -101 -152 -101q-63 0 -99 40t-36 111v383h56v-378q0 -109 90 -109q44 0 77 28t60 79v380h56v-523zM200.5 729q10.5 -11 10.5 -27q0 -17 -10.5 -28t-27.5 -11q-16 0 -27 11t-11 28q0 16 11 27t27 11q17 0 27.5 -11zM372 729q11 -11 11 -27 q0 -17 -11 -28t-27 -11q-17 0 -28 11t-11 28q0 16 11 27t28 11q16 0 27 -11z" />
<glyph unicode="&#xfd;" horiz-adv-x="428" d="M250 -2q-27 -90 -69 -136.5t-125 -65.5l-7 44q47 13 74 32t43 48t33 80h-20l-163 523h58l142 -481l138 481h58zM281 779l26 -49l-177 -84l-18 31z" />
<glyph unicode="&#xfe;" horiz-adv-x="522" d="M419.5 465q43.5 -69 43.5 -201q0 -130 -47 -202.5t-133 -72.5q-42 0 -76 19.5t-57 52.5v-256l-56 -10v941l56 7v-292q54 83 142 83q84 0 127.5 -69zM403 264q0 114 -30.5 168.5t-90.5 54.5q-41 0 -73 -24t-59 -65v-283q50 -78 124 -78q129 0 129 227z" />
<glyph unicode="&#xff;" horiz-adv-x="428" d="M250 -2q-27 -90 -69 -136.5t-125 -65.5l-7 44q47 13 74 32t43 48t33 80h-20l-163 523h58l142 -481l138 481h58zM156.5 729q10.5 -11 10.5 -27q0 -17 -10.5 -28t-27.5 -11q-16 0 -27 11t-11 28q0 16 11 27t27 11q17 0 27.5 -11zM328 729q11 -11 11 -27q0 -17 -11 -28 t-27 -11q-17 0 -28 11t-11 28q0 16 11 27t28 11q16 0 27 -11z" />
<glyph unicode="&#x100;" d="M439 0l-54 188h-257l-54 -188h-57l205 685h72l205 -685h-60zM142 237h229l-114 400zM369 803h-219v44h219v-44z" />
<glyph unicode="&#x101;" horiz-adv-x="484" d="M400 54q9 -17 30 -26l-13 -39q-33 8 -51 27.5t-24 57.5q-51 -85 -145 -85q-68 0 -107.5 42.5t-39.5 113.5q0 82 53 125.5t149 43.5h83v56q0 60 -25 88.5t-80 28.5q-57 0 -130 -30l-16 42q83 35 152 35q79 0 117 -41t38 -119v-267q0 -36 9 -53zM335 130v143h-76 q-150 0 -150 -126q0 -55 25.5 -84t71.5 -29q85 0 129 96zM344 677h-219v44h219v-44z" />
<glyph unicode="&#x102;" d="M439 0l-54 188h-257l-54 -188h-57l205 685h72l205 -685h-60zM142 237h229l-114 400zM178.5 792.5q-32.5 27.5 -38.5 71.5l37 9q8 -29 29 -45.5t52 -16.5t52.5 16.5t29.5 45.5l37 -9q-6 -44 -38.5 -71.5t-80.5 -27.5q-47 0 -79.5 27.5z" />
<glyph unicode="&#x103;" horiz-adv-x="484" d="M400 54q9 -17 30 -26l-13 -39q-33 8 -51 27.5t-24 57.5q-51 -85 -145 -85q-68 0 -107.5 42.5t-39.5 113.5q0 82 53 125.5t149 43.5h83v56q0 60 -25 88.5t-80 28.5q-57 0 -130 -30l-16 42q83 35 152 35q79 0 117 -41t38 -119v-267q0 -36 9 -53zM335 130v143h-76 q-150 0 -150 -126q0 -55 25.5 -84t71.5 -29q85 0 129 96zM153 682.5q-32 29.5 -38 80.5l37 8q18 -72 81 -72q64 0 82 72l37 -8q-6 -51 -38.5 -80.5t-80.5 -29.5t-80 29.5z" />
<glyph unicode="&#x104;" d="M397.5 -56.5q-24.5 -26.5 -24.5 -62.5q0 -52 56 -52q24 0 52 7l-5 -46q-31 -7 -53 -7q-48 0 -74.5 25t-26.5 66q0 43 28 75.5t86 59.5l-51 179h-257l-54 -188h-57l205 685h72l205 -685h-17q-60 -30 -84.5 -56.5zM142 237h229l-114 400z" />
<glyph unicode="&#x105;" horiz-adv-x="484" d="M332.5 -67.5q-24.5 -26.5 -24.5 -62.5q0 -52 56 -52q24 0 52 7l-5 -46q-32 -7 -53 -7q-48 0 -74.5 25t-26.5 66q0 45 30.5 78.5t93.5 61.5q-32 21 -39 71q-51 -85 -145 -85q-68 0 -107.5 42.5t-39.5 113.5q0 82 53 125.5t149 43.5h83v56q0 60 -25 88.5t-80 28.5 q-57 0 -130 -30l-16 42q83 35 152 35q79 0 117 -41t38 -119v-267q0 -36 9 -53t30 -26l-13 -39q-60 -30 -84.5 -56.5zM335 130v143h-76q-150 0 -150 -126q0 -55 25.5 -84t71.5 -29q85 0 129 96z" />
<glyph unicode="&#x106;" horiz-adv-x="497" d="M397.5 680.5q36.5 -15.5 72.5 -47.5l-31 -37q-32 26 -60.5 38t-65.5 12q-87 0 -140 -72.5t-53 -230.5q0 -153 53 -228t139 -75q42 0 71.5 14.5t61.5 41.5l32 -37q-70 -70 -167 -70q-73 0 -130 39.5t-89 119t-32 195.5t33 195.5t90 118.5t128 39q51 0 87.5 -15.5zM383 885 l25 -50l-179 -77l-16 33z" />
<glyph unicode="&#x107;" horiz-adv-x="420" d="M330 521.5q32 -12.5 62 -40.5l-28 -36q-23 21 -48 31t-56 10q-66 0 -104.5 -56.5t-38.5 -170.5q0 -113 38 -167t105 -54q31 0 56 10.5t51 31.5l28 -35q-59 -56 -136 -56q-94 0 -148 69.5t-54 199.5t54.5 203t147.5 73q39 0 71 -12.5zM324 779l26 -49l-177 -84l-18 31z " />
<glyph unicode="&#x108;" horiz-adv-x="497" d="M397.5 680.5q36.5 -15.5 72.5 -47.5l-31 -37q-32 26 -60.5 38t-65.5 12q-87 0 -140 -72.5t-53 -230.5q0 -153 53 -228t139 -75q42 0 71.5 14.5t61.5 41.5l32 -37q-70 -70 -167 -70q-73 0 -130 39.5t-89 119t-32 195.5t33 195.5t90 118.5t128 39q51 0 87.5 -15.5zM201 763 l-25 27l117 102h35l116 -102l-24 -27l-110 80z" />
<glyph unicode="&#x109;" horiz-adv-x="420" d="M330 521.5q32 -12.5 62 -40.5l-28 -36q-23 21 -48 31t-56 10q-66 0 -104.5 -56.5t-38.5 -170.5q0 -113 38 -167t105 -54q31 0 56 10.5t51 31.5l28 -35q-59 -56 -136 -56q-94 0 -148 69.5t-54 199.5t54.5 203t147.5 73q39 0 71 -12.5zM148 645l-25 27l117 107h34l117 -107 l-24 -27l-110 85z" />
<glyph unicode="&#x10a;" horiz-adv-x="497" d="M397.5 680.5q36.5 -15.5 72.5 -47.5l-31 -37q-32 26 -60.5 38t-65.5 12q-87 0 -140 -72.5t-53 -230.5q0 -153 53 -228t139 -75q42 0 71.5 14.5t61.5 41.5l32 -37q-70 -70 -167 -70q-73 0 -130 39.5t-89 119t-32 195.5t33 195.5t90 118.5t128 39q51 0 87.5 -15.5z M340.5 866q11.5 -12 11.5 -29q0 -18 -11.5 -29.5t-29.5 -11.5t-29.5 11.5t-11.5 29.5q0 17 11.5 29t29.5 12t29.5 -12z" />
<glyph unicode="&#x10b;" horiz-adv-x="420" d="M330 521.5q32 -12.5 62 -40.5l-28 -36q-23 21 -48 31t-56 10q-66 0 -104.5 -56.5t-38.5 -170.5q0 -113 38 -167t105 -54q31 0 56 10.5t51 31.5l28 -35q-59 -56 -136 -56q-94 0 -148 69.5t-54 199.5t54.5 203t147.5 73q39 0 71 -12.5zM287.5 740q11.5 -12 11.5 -29 q0 -18 -11.5 -29.5t-29.5 -11.5t-29.5 11.5t-11.5 29.5q0 17 11.5 29t29.5 12t29.5 -12z" />
<glyph unicode="&#x10c;" horiz-adv-x="497" d="M397.5 680.5q36.5 -15.5 72.5 -47.5l-31 -37q-32 26 -60.5 38t-65.5 12q-87 0 -140 -72.5t-53 -230.5q0 -153 53 -228t139 -75q42 0 71.5 14.5t61.5 41.5l32 -37q-70 -70 -167 -70q-73 0 -130 39.5t-89 119t-32 195.5t33 195.5t90 118.5t128 39q51 0 87.5 -15.5zM421 886 l23 -27l-116 -103h-35l-117 103l24 27l111 -81z" />
<glyph unicode="&#x10d;" horiz-adv-x="420" d="M330 521.5q32 -12.5 62 -40.5l-28 -36q-23 21 -48 31t-56 10q-66 0 -104.5 -56.5t-38.5 -170.5q0 -113 38 -167t105 -54q31 0 56 10.5t51 31.5l28 -35q-59 -56 -136 -56q-94 0 -148 69.5t-54 199.5t54.5 203t147.5 73q39 0 71 -12.5zM367 767l24 -27l-116 -107h-35 l-117 107l25 27l110 -85z" />
<glyph unicode="&#x10e;" horiz-adv-x="571" d="M432.5 613q79.5 -72 79.5 -265q0 -194 -80.5 -271t-198.5 -77h-135v685h125q130 0 209.5 -72zM156 636v-588h80q95 0 155 65t60 235q0 119 -31 182.5t-78.5 84.5t-110.5 21h-75zM380 886l23 -27l-116 -103h-35l-117 103l24 27l111 -81z" />
<glyph unicode="&#x10f;" horiz-adv-x="532" d="M432 736v-736h-49l-5 78q-23 -41 -57.5 -65t-82.5 -24q-84 0 -131.5 71.5t-47.5 198.5q0 82 23 144.5t65 96.5t98 34q80 0 131 -70v279zM320 60q31 24 56 72v275q-50 80 -122 80q-63 0 -99.5 -58.5t-35.5 -168.5q0 -111 33.5 -167.5t93.5 -56.5q43 0 74 24zM519 573 l36 162l-52 7l-18 -164z" />
<glyph unicode="&#x110;" horiz-adv-x="576" d="M438.5 613q79.5 -72 79.5 -265q0 -194 -80.5 -271t-198.5 -77h-135v329h-83v47h83v309h125q130 0 209.5 -72zM397 113q60 65 60 235q0 119 -31 182.5t-78.5 84.5t-110.5 21h-75v-260h153v-47h-153v-281h80q95 0 155 65z" />
<glyph unicode="&#x111;" horiz-adv-x="531" d="M500 662v-45h-68v-617h-49l-5 78q-23 -41 -57.5 -65t-82.5 -24q-84 0 -131.5 71.5t-47.5 198.5q0 82 23 144.5t65 96.5t98 34q80 0 131 -70v153h-147v45h147v81l56 -7v-74h68zM320 60q31 24 56 72v275q-50 80 -122 80q-63 0 -99.5 -58.5t-35.5 -168.5q0 -111 33.5 -167.5 t93.5 -56.5q43 0 74 24z" />
<glyph unicode="&#x112;" horiz-adv-x="461" d="M414 685l-7 -49h-251v-257h218v-48h-218v-282h264v-49h-322v685h316zM370 803h-219v44h219v-44z" />
<glyph unicode="&#x113;" horiz-adv-x="484" d="M430 239h-315q4 -105 43 -153.5t103 -48.5q37 0 65.5 12t59.5 38l28 -35q-35 -31 -72.5 -47t-82.5 -16q-94 0 -148 70t-54 198q0 130 51.5 203.5t140.5 73.5t136 -66t47 -187q0 -22 -2 -42zM377 299q0 91 -32 139.5t-96 48.5q-58 0 -94 -49t-40 -155h262v16zM360 677 h-219v44h219v-44z" />
<glyph unicode="&#x114;" horiz-adv-x="461" d="M414 685l-7 -49h-251v-257h218v-48h-218v-282h264v-49h-322v685h316zM179.5 792.5q-32.5 27.5 -38.5 71.5l37 9q8 -29 29 -45.5t52 -16.5t52.5 16.5t29.5 45.5l37 -9q-6 -44 -38.5 -71.5t-80.5 -27.5q-47 0 -79.5 27.5z" />
<glyph unicode="&#x115;" horiz-adv-x="484" d="M430 239h-315q4 -105 43 -153.5t103 -48.5q37 0 65.5 12t59.5 38l28 -35q-35 -31 -72.5 -47t-82.5 -16q-94 0 -148 70t-54 198q0 130 51.5 203.5t140.5 73.5t136 -66t47 -187q0 -22 -2 -42zM377 299q0 91 -32 139.5t-96 48.5q-58 0 -94 -49t-40 -155h262v16zM169 682.5 q-32 29.5 -38 80.5l37 8q18 -72 81 -72q64 0 82 72l37 -8q-6 -51 -38.5 -80.5t-80.5 -29.5t-80 29.5z" />
<glyph unicode="&#x116;" horiz-adv-x="461" d="M414 685l-7 -49h-251v-257h218v-48h-218v-282h264v-49h-322v685h316zM289.5 866q11.5 -12 11.5 -29q0 -18 -11.5 -29.5t-29.5 -11.5t-29.5 11.5t-11.5 29.5q0 17 11.5 29t29.5 12t29.5 -12z" />
<glyph unicode="&#x117;" horiz-adv-x="484" d="M430 239h-315q4 -105 43 -153.5t103 -48.5q37 0 65.5 12t59.5 38l28 -35q-35 -31 -72.5 -47t-82.5 -16q-94 0 -148 70t-54 198q0 130 51.5 203.5t140.5 73.5t136 -66t47 -187q0 -22 -2 -42zM377 299q0 91 -32 139.5t-96 48.5q-58 0 -94 -49t-40 -155h262v16zM279.5 740 q11.5 -12 11.5 -29q0 -18 -11.5 -29.5t-29.5 -11.5t-29.5 11.5t-11.5 29.5q0 17 11.5 29t29.5 12t29.5 -12z" />
<glyph unicode="&#x118;" horiz-adv-x="461" d="M420 49v-49h-28q-60 -30 -84.5 -56.5t-24.5 -62.5q0 -52 56 -52q24 0 52 7l-5 -46q-31 -7 -53 -7q-48 0 -74.5 25t-26.5 66q0 40 23.5 70.5t71.5 55.5h-229v685h316l-7 -49h-251v-257h218v-48h-218v-282h264z" />
<glyph unicode="&#x119;" horiz-adv-x="484" d="M430 239h-315q4 -105 43 -153.5t103 -48.5q37 0 65.5 12t59.5 38l28 -35q-35 -32 -76 -48q-58 -29 -82 -55.5t-24 -61.5q0 -25 14 -38.5t43 -13.5q21 0 51 6l-5 -46q-31 -7 -53 -7q-48 0 -74.5 25.5t-26.5 65.5q0 67 76 110q-93 1 -146.5 70.5t-53.5 197.5 q0 130 51.5 203.5t140.5 73.5t136 -66t47 -187q0 -22 -2 -42zM377 299q0 91 -32 139.5t-96 48.5q-58 0 -94 -49t-40 -155h262v16z" />
<glyph unicode="&#x11a;" horiz-adv-x="461" d="M414 685l-7 -49h-251v-257h218v-48h-218v-282h264v-49h-322v685h316zM370 886l23 -27l-116 -103h-35l-117 103l24 27l111 -81z" />
<glyph unicode="&#x11b;" horiz-adv-x="484" d="M430 239h-315q4 -105 43 -153.5t103 -48.5q37 0 65.5 12t59.5 38l28 -35q-35 -31 -72.5 -47t-82.5 -16q-94 0 -148 70t-54 198q0 130 51.5 203.5t140.5 73.5t136 -66t47 -187q0 -22 -2 -42zM377 299q0 91 -32 139.5t-96 48.5q-58 0 -94 -49t-40 -155h262v16zM359 767 l24 -27l-116 -107h-35l-117 107l25 27l110 -85z" />
<glyph unicode="&#x11c;" horiz-adv-x="559" d="M410 679.5q39 -16.5 79 -51.5l-34 -35q-33 28 -64 40.5t-72 12.5q-53 0 -98 -29.5t-73 -97t-28 -174.5q0 -306 196 -306q69 0 127 35v246h-119l-7 49h182v-324q-86 -56 -183 -56q-121 0 -189 89t-68 267q0 116 36 195t95 117.5t129 38.5q52 0 91 -16.5zM207 763l-25 27 l117 102h35l116 -102l-24 -27l-110 80z" />
<glyph unicode="&#x11d;" horiz-adv-x="455" d="M447 513q-23 -8 -53.5 -11t-76.5 -4q81 -42 81 -143q0 -79 -46 -125.5t-126 -46.5q-33 0 -61 11q-36 -25 -36 -61q0 -56 78 -56h68q73 0 115 -36.5t42 -95.5q0 -70 -52 -110t-154 -40q-105 0 -151 36.5t-46 113.5h51q1 -56 33 -79.5t114 -23.5q149 0 149 100 q0 42 -28.5 65t-82.5 23h-62q-62 0 -94 25t-32 66q0 51 53 88q-41 23 -60.5 59.5t-19.5 88.5q0 80 48 128.5t127 48.5q85 -1 124.5 6.5t80.5 25.5zM136 455q-30 -35 -30 -98q0 -62 32 -97.5t86 -35.5q57 0 87 33.5t30 98.5q0 63 -29.5 98.5t-86.5 35.5q-59 0 -89 -35z M118 645l-25 27l117 107h34l117 -107l-24 -27l-110 85z" />
<glyph unicode="&#x11e;" horiz-adv-x="559" d="M410 679.5q39 -16.5 79 -51.5l-34 -35q-33 28 -64 40.5t-72 12.5q-53 0 -98 -29.5t-73 -97t-28 -174.5q0 -306 196 -306q69 0 127 35v246h-119l-7 49h182v-324q-86 -56 -183 -56q-121 0 -189 89t-68 267q0 116 36 195t95 117.5t129 38.5q52 0 91 -16.5zM236.5 792.5 q-32.5 27.5 -38.5 71.5l37 9q8 -29 29 -45.5t52 -16.5t52.5 16.5t29.5 45.5l37 -9q-6 -44 -38.5 -71.5t-80.5 -27.5q-47 0 -79.5 27.5z" />
<glyph unicode="&#x11f;" horiz-adv-x="455" d="M447 513q-23 -8 -53.5 -11t-76.5 -4q81 -42 81 -143q0 -79 -46 -125.5t-126 -46.5q-33 0 -61 11q-36 -25 -36 -61q0 -56 78 -56h68q73 0 115 -36.5t42 -95.5q0 -70 -52 -110t-154 -40q-105 0 -151 36.5t-46 113.5h51q1 -56 33 -79.5t114 -23.5q149 0 149 100 q0 42 -28.5 65t-82.5 23h-62q-62 0 -94 25t-32 66q0 51 53 88q-41 23 -60.5 59.5t-19.5 88.5q0 80 48 128.5t127 48.5q85 -1 124.5 6.5t80.5 25.5zM136 455q-30 -35 -30 -98q0 -62 32 -97.5t86 -35.5q57 0 87 33.5t30 98.5q0 63 -29.5 98.5t-86.5 35.5q-59 0 -89 -35z M147 682.5q-32 29.5 -38 80.5l37 8q18 -72 81 -72q64 0 82 72l37 -8q-6 -51 -38.5 -80.5t-80.5 -29.5t-80 29.5z" />
<glyph unicode="&#x120;" horiz-adv-x="559" d="M410 679.5q39 -16.5 79 -51.5l-34 -35q-33 28 -64 40.5t-72 12.5q-53 0 -98 -29.5t-73 -97t-28 -174.5q0 -306 196 -306q69 0 127 35v246h-119l-7 49h182v-324q-86 -56 -183 -56q-121 0 -189 89t-68 267q0 116 36 195t95 117.5t129 38.5q52 0 91 -16.5zM346.5 866 q11.5 -12 11.5 -29q0 -18 -11.5 -29.5t-29.5 -11.5t-29.5 11.5t-11.5 29.5q0 17 11.5 29t29.5 12t29.5 -12z" />
<glyph unicode="&#x121;" horiz-adv-x="455" d="M447 513q-23 -8 -53.5 -11t-76.5 -4q81 -42 81 -143q0 -79 -46 -125.5t-126 -46.5q-33 0 -61 11q-36 -25 -36 -61q0 -56 78 -56h68q73 0 115 -36.5t42 -95.5q0 -70 -52 -110t-154 -40q-105 0 -151 36.5t-46 113.5h51q1 -56 33 -79.5t114 -23.5q149 0 149 100 q0 42 -28.5 65t-82.5 23h-62q-62 0 -94 25t-32 66q0 51 53 88q-41 23 -60.5 59.5t-19.5 88.5q0 80 48 128.5t127 48.5q85 -1 124.5 6.5t80.5 25.5zM136 455q-30 -35 -30 -98q0 -62 32 -97.5t86 -35.5q57 0 87 33.5t30 98.5q0 63 -29.5 98.5t-86.5 35.5q-59 0 -89 -35z M257.5 740q11.5 -12 11.5 -29q0 -18 -11.5 -29.5t-29.5 -11.5t-29.5 11.5t-11.5 29.5q0 17 11.5 29t29.5 12t29.5 -12z" />
<glyph unicode="&#x122;" horiz-adv-x="559" d="M410 679.5q39 -16.5 79 -51.5l-34 -35q-33 28 -64 40.5t-72 12.5q-53 0 -98 -29.5t-73 -97t-28 -174.5q0 -306 196 -306q69 0 127 35v246h-119l-7 49h182v-324q-86 -56 -183 -56q-121 0 -189 89t-68 267q0 116 36 195t95 117.5t129 38.5q52 0 91 -16.5zM335.5 -97 q11.5 -12 11.5 -30q0 -11 -4 -23.5t-16 -41.5l-37 -86h-33l30 114q-23 13 -23 37q0 18 11.5 30t30.5 12q18 0 29.5 -12z" />
<glyph unicode="&#x123;" horiz-adv-x="455" d="M447 513q-23 -8 -53.5 -11t-76.5 -4q81 -42 81 -143q0 -79 -46 -125.5t-126 -46.5q-33 0 -61 11q-36 -25 -36 -61q0 -56 78 -56h68q73 0 115 -36.5t42 -95.5q0 -70 -52 -110t-154 -40q-105 0 -151 36.5t-46 113.5h51q1 -56 33 -79.5t114 -23.5q149 0 149 100 q0 42 -28.5 65t-82.5 23h-62q-62 0 -94 25t-32 66q0 51 53 88q-41 23 -60.5 59.5t-19.5 88.5q0 80 48 128.5t127 48.5q85 -1 124.5 6.5t80.5 25.5zM136 455q-30 -35 -30 -98q0 -62 32 -97.5t86 -35.5q57 0 87 33.5t30 98.5q0 63 -29.5 98.5t-86.5 35.5q-59 0 -89 -35z M197.5 601q-11.5 12 -11.5 30q0 11 4 23.5t16 41.5l37 86h33l-30 -114q23 -13 23 -37q0 -18 -11.5 -30t-30.5 -12q-18 0 -29.5 12z" />
<glyph unicode="&#x124;" horiz-adv-x="603" d="M447 0v336h-291v-336h-58v685h58v-300h291v300h58v-685h-58zM191 763l-25 27l117 102h35l116 -102l-24 -27l-110 80z" />
<glyph unicode="&#x125;" horiz-adv-x="526" d="M402.5 492.5q34.5 -41.5 34.5 -113.5v-379h-56v371q0 117 -87 117q-43 0 -77.5 -29t-66.5 -82v-377h-56v736l56 7v-308q31 47 68.5 73t86.5 26q63 0 97.5 -41.5zM155 814l-25 27l117 102h35l116 -102l-24 -27l-110 80z" />
<glyph unicode="&#x126;" horiz-adv-x="606" d="M565 557v-43h-58v-514h-58v336h-291v-336h-58v514h-59v43h59v128h58v-128h291v128h58v-128h58zM449 385v129h-291v-129h291z" />
<glyph unicode="&#x127;" horiz-adv-x="531" d="M407.5 492.5q34.5 -41.5 34.5 -113.5v-379h-56v371q0 117 -87 117q-43 0 -77.5 -29t-66.5 -82v-377h-56v617h-68v45h68v74l56 7v-81h147v-45h-147v-182q31 47 68.5 73t86.5 26q63 0 97.5 -41.5z" />
<glyph unicode="&#x128;" horiz-adv-x="255" d="M156 685v-685h-58v685h58zM149.5 800.5q-13.5 6.5 -33.5 18.5q-27 19 -42 19t-26.5 -9t-24.5 -30l-33 17q33 66 83 66q16 0 29.5 -6.5t29.5 -17.5q17 -11 26.5 -15.5t20.5 -4.5q14 0 25.5 10t25.5 33l33 -17q-31 -70 -83 -70q-17 0 -30.5 6.5z" />
<glyph unicode="&#x129;" horiz-adv-x="244" d="M150 523v-523h-56v523h56zM144.5 674.5q-13.5 6.5 -33.5 18.5q-27 19 -42 19t-26.5 -9t-24.5 -30l-33 17q33 66 83 66q16 0 29.5 -6.5t29.5 -17.5q17 -11 26.5 -15.5t20.5 -4.5q14 0 25.5 10t25.5 33l33 -17q-31 -70 -83 -70q-17 0 -30.5 6.5z" />
<glyph unicode="&#x12a;" horiz-adv-x="255" d="M156 685v-685h-58v685h58zM237 803h-219v44h219v-44z" />
<glyph unicode="&#x12b;" horiz-adv-x="244" d="M150 523v-523h-56v523h56zM232 677h-219v44h219v-44z" />
<glyph unicode="&#x12c;" horiz-adv-x="255" d="M156 685v-685h-58v685h58zM46.5 792.5q-32.5 27.5 -38.5 71.5l37 9q8 -29 29 -45.5t52 -16.5t52.5 16.5t29.5 45.5l37 -9q-6 -44 -38.5 -71.5t-80.5 -27.5q-47 0 -79.5 27.5z" />
<glyph unicode="&#x12d;" horiz-adv-x="244" d="M150 523v-523h-56v523h56zM41 682.5q-32 29.5 -38 80.5l37 8q18 -72 81 -72q64 0 82 72l37 -8q-6 -51 -38.5 -80.5t-80.5 -29.5t-80 29.5z" />
<glyph unicode="&#x12e;" horiz-adv-x="255" d="M156 685v-685h-4q-60 -30 -84.5 -56.5t-24.5 -62.5q0 -52 56 -52q24 0 52 7l-5 -46q-31 -7 -53 -7q-48 0 -74.5 25t-26.5 66q0 42 26 73.5t80 57.5v680h58z" />
<glyph unicode="&#x12f;" horiz-adv-x="244" d="M151.5 740q11.5 -12 11.5 -29q0 -18 -11.5 -29.5t-29.5 -11.5t-29.5 11.5t-11.5 29.5q0 17 11.5 29t29.5 12t29.5 -12zM94 523h56v-523h-1q-60 -30 -84.5 -56.5t-24.5 -62.5q0 -52 56 -52q24 0 52 7l-5 -46q-32 -7 -53 -7q-48 0 -74.5 25t-26.5 66t26 72.5t79 58.5v518z " />
<glyph unicode="&#x130;" horiz-adv-x="255" d="M156 685v-685h-58v685h58zM156.5 866q11.5 -12 11.5 -29q0 -18 -11.5 -29.5t-29.5 -11.5t-29.5 11.5t-11.5 29.5q0 17 11.5 29t29.5 12t29.5 -12z" />
<glyph unicode="&#x131;" horiz-adv-x="244" d="M150 523v-523h-56v523h56z" />
<glyph unicode="&#x132;" horiz-adv-x="517" d="M156 685v-685h-58v685h58zM424 91q0 -59 -14.5 -97t-45 -63.5t-83.5 -48.5l-15 42q42 21 63 42t29 50t8 78v591h58v-594z" />
<glyph unicode="&#x133;" horiz-adv-x="488" d="M150 523v-523h-56v523h56zM151.5 740q11.5 -12 11.5 -29q0 -18 -11.5 -29.5t-29.5 -11.5t-29.5 11.5t-11.5 29.5q0 17 11.5 29t29.5 12t29.5 -12zM394 4q0 -61 -14 -98.5t-40.5 -61t-74.5 -47.5l-18 40q35 19 53.5 37.5t28 48.5t9.5 80v520h56v-519zM394.5 740 q11.5 -12 11.5 -29q0 -18 -11.5 -29.5t-29.5 -11.5t-29.5 11.5t-11.5 29.5q0 17 11.5 29t29.5 12t29.5 -12z" />
<glyph unicode="&#x134;" horiz-adv-x="262" d="M169 91q0 -59 -14.5 -97t-45 -63.5t-83.5 -48.5l-15 42q42 21 63 42t29 50t8 78v591h58v-594zM29 763l-25 27l117 102h35l116 -102l-24 -27l-110 80z" />
<glyph unicode="&#x135;" horiz-adv-x="244" d="M150 4q0 -61 -14 -98.5t-40.5 -61t-74.5 -47.5l-18 40q35 19 53.5 37.5t28 48.5t9.5 80v520h56v-519zM12 645l-25 27l117 107h34l117 -107l-24 -27l-110 85z" />
<glyph unicode="&#x136;" horiz-adv-x="500" d="M156 685v-685h-58v685h58zM481 685l-255 -315l271 -370h-69l-268 367l256 318h65zM305.5 -97q11.5 -12 11.5 -30q0 -11 -4 -23.5t-16 -41.5l-37 -86h-33l30 114q-23 13 -23 37q0 18 11.5 30t30.5 12q18 0 29.5 -12z" />
<glyph unicode="&#x137;" horiz-adv-x="442" d="M150 743v-743h-56v736zM415 523l-197 -234l218 -289h-65l-215 286l197 237h62zM268.5 -97q11.5 -12 11.5 -30q0 -11 -4 -23.5t-16 -41.5l-37 -86h-33l30 114q-23 13 -23 37q0 18 11.5 30t30.5 12q18 0 29.5 -12z" />
<glyph unicode="&#x138;" horiz-adv-x="441" d="M150 523v-523h-56v523h56zM415 523l-198 -244l218 -279h-65l-215 276l197 247h63z" />
<glyph unicode="&#x139;" horiz-adv-x="429" d="M156 685v-633h257l-8 -52h-307v685h58zM200 885l25 -50l-179 -77l-16 33z" />
<glyph unicode="&#x13a;" horiz-adv-x="257" d="M112 13q-23 24 -23 69v654l56 7v-660q0 -46 38 -46q16 0 32 7l14 -41q-24 -14 -55 -14q-39 0 -62 24zM189 936l25 -50l-179 -77l-16 33z" />
<glyph unicode="&#x13b;" horiz-adv-x="429" d="M156 685v-633h257l-8 -52h-307v685h58zM282.5 -97q11.5 -12 11.5 -30q0 -11 -4 -23.5t-16 -41.5l-37 -86h-33l30 114q-23 13 -23 37q0 18 11.5 30t30.5 12q18 0 29.5 -12z" />
<glyph unicode="&#x13c;" horiz-adv-x="257" d="M112 13q-23 24 -23 69v654l56 7v-660q0 -46 38 -46q16 0 32 7l14 -41q-24 -14 -55 -14q-39 0 -62 24zM191.5 -97q11.5 -12 11.5 -30q0 -11 -4 -23.5t-16 -41.5l-37 -86h-33l30 114q-23 13 -23 37q0 18 11.5 30t30.5 12q18 0 29.5 -12z" />
<glyph unicode="&#x13d;" horiz-adv-x="429" d="M156 685v-633h257l-8 -52h-307v685h58zM247 522l36 162l-52 7l-18 -164z" />
<glyph unicode="&#x13e;" horiz-adv-x="257" d="M112 13q-23 24 -23 69v654l56 7v-660q0 -46 38 -46q16 0 32 7l14 -41q-24 -14 -55 -14q-39 0 -62 24zM232 573l36 162l-52 7l-18 -164z" />
<glyph unicode="&#x13f;" horiz-adv-x="429" d="M156 685v-633h257l-8 -52h-307v685h58zM362.5 397q11.5 -12 11.5 -29q0 -18 -11.5 -29.5t-29.5 -11.5t-29.5 11.5t-11.5 29.5q0 17 11.5 29t29.5 12t29.5 -12z" />
<glyph unicode="&#x140;" horiz-adv-x="275" d="M112 13q-23 24 -23 69v654l56 7v-660q0 -46 38 -46q16 0 32 7l14 -41q-24 -14 -55 -14q-39 0 -62 24zM282.5 405q11.5 -12 11.5 -29q0 -18 -11.5 -29.5t-29.5 -11.5t-29.5 11.5t-11.5 29.5q0 17 11.5 29t29.5 12t29.5 -12z" />
<glyph unicode="&#x141;" horiz-adv-x="440" d="M167 52h257l-8 -52h-307v281l-57 -39l-23 38l80 55v350h58v-310l161 110l22 -38l-183 -126v-269z" />
<glyph unicode="&#x142;" horiz-adv-x="272" d="M222 44l14 -41q-25 -14 -55 -14q-39 0 -62 24t-23 69v241l-51 -34l-22 36l73 49v362l56 7v-332l87 58l21 -37l-108 -72v-277q0 -46 38 -46q16 0 32 7z" />
<glyph unicode="&#x143;" horiz-adv-x="605" d="M507 0h-76l-286 620q8 -92 8 -233v-387h-55v685h76l286 -621q-8 120 -8 202v419h55v-685zM383 885l25 -50l-179 -77l-16 33z" />
<glyph unicode="&#x144;" horiz-adv-x="526" d="M402.5 493q34.5 -41 34.5 -114v-379h-56v371q0 60 -21.5 88.5t-64.5 28.5t-78 -29t-67 -82v-377h-56v523h48l6 -91q62 102 157 102q63 0 97.5 -41zM334 779l26 -49l-177 -84l-18 31z" />
<glyph unicode="&#x145;" horiz-adv-x="605" d="M507 0h-76l-286 620q8 -92 8 -233v-387h-55v685h76l286 -621q-8 120 -8 202v419h55v-685zM331.5 -97q11.5 -12 11.5 -30q0 -11 -4 -23.5t-16 -41.5l-37 -86h-33l30 114q-23 13 -23 37q0 18 11.5 30t30.5 12q18 0 29.5 -12z" />
<glyph unicode="&#x146;" horiz-adv-x="526" d="M402.5 493q34.5 -41 34.5 -114v-379h-56v371q0 60 -21.5 88.5t-64.5 28.5t-78 -29t-67 -82v-377h-56v523h48l6 -91q62 102 157 102q63 0 97.5 -41zM292.5 -97q11.5 -12 11.5 -30q0 -11 -4 -23.5t-16 -41.5l-37 -86h-33l30 114q-23 13 -23 37q0 18 11.5 30t30.5 12 q18 0 29.5 -12z" />
<glyph unicode="&#x147;" horiz-adv-x="605" d="M507 0h-76l-286 620q8 -92 8 -233v-387h-55v685h76l286 -621q-8 120 -8 202v419h55v-685zM421 886l23 -27l-116 -103h-35l-117 103l24 27l111 -81z" />
<glyph unicode="&#x148;" horiz-adv-x="526" d="M402.5 493q34.5 -41 34.5 -114v-379h-56v371q0 60 -21.5 88.5t-64.5 28.5t-78 -29t-67 -82v-377h-56v523h48l6 -91q62 102 157 102q63 0 97.5 -41zM377 767l24 -27l-116 -107h-35l-117 107l25 27l110 -85z" />
<glyph unicode="&#x149;" horiz-adv-x="605" d="M121 732.5q11 -11.5 11 -29.5q0 -9 -3.5 -20.5t-8 -23.5t-7.5 -22l-33 -89h-33l25 118q-22 13 -22 37q0 18 11.5 29.5t29.5 11.5q19 0 30 -11.5zM481.5 493q34.5 -41 34.5 -114v-379h-56v371q0 60 -21.5 88.5t-64.5 28.5t-78 -29t-67 -82v-377h-56v523h48l6 -91 q62 102 157 102q63 0 97.5 -41z" />
<glyph unicode="&#x14a;" horiz-adv-x="605" d="M507 685v-766q0 -60 -31.5 -92t-82.5 -32q-53 0 -95 34l25 37q16 -11 31 -17t36 -6q27 0 43 17.5t16 56.5v83h-18l-286 620q8 -92 8 -233v-387h-55v685h76l286 -621q-8 120 -8 202v419h55z" />
<glyph unicode="&#x14b;" horiz-adv-x="526" d="M402.5 493q34.5 -41 34.5 -114v-461q0 -60 -31.5 -91.5t-82.5 -31.5q-53 0 -95 34l25 35q16 -11 31 -16.5t36 -5.5q61 0 61 74v455q0 60 -21.5 88.5t-64.5 28.5t-78 -29t-67 -82v-377h-56v523h48l6 -91q62 102 157 102q63 0 97.5 -41z" />
<glyph unicode="&#x14c;" horiz-adv-x="624" d="M496.5 606q67.5 -90 67.5 -264q0 -171 -67.5 -262t-184.5 -91q-76 0 -133 39.5t-88.5 119t-31.5 193.5t31.5 194t88.5 120.5t133 40.5q117 0 184.5 -90zM171 571q-51 -75 -51 -230q0 -153 51.5 -227.5t140.5 -74.5q92 0 142 74t50 229t-50.5 229.5t-141.5 74.5 q-90 0 -141 -75zM422 803h-219v44h219v-44z" />
<glyph unicode="&#x14d;" d="M406 464q53 -70 53 -201q0 -129 -54 -201.5t-148 -72.5t-147 71.5t-53 200.5t53.5 201t147.5 72q95 0 148 -70zM153 430.5q-37 -55.5 -37 -169.5q0 -113 36.5 -169t104.5 -56t105 56t37 171q0 113 -36 168t-105 55q-68 0 -105 -55.5zM368 677h-219v44h219v-44z" />
<glyph unicode="&#x14e;" horiz-adv-x="624" d="M496.5 606q67.5 -90 67.5 -264q0 -171 -67.5 -262t-184.5 -91q-76 0 -133 39.5t-88.5 119t-31.5 193.5t31.5 194t88.5 120.5t133 40.5q117 0 184.5 -90zM171 571q-51 -75 -51 -230q0 -153 51.5 -227.5t140.5 -74.5q92 0 142 74t50 229t-50.5 229.5t-141.5 74.5 q-90 0 -141 -75zM231.5 792.5q-32.5 27.5 -38.5 71.5l37 9q8 -29 29 -45.5t52 -16.5t52.5 16.5t29.5 45.5l37 -9q-6 -44 -38.5 -71.5t-80.5 -27.5q-47 0 -79.5 27.5z" />
<glyph unicode="&#x14f;" d="M406 464q53 -70 53 -201q0 -129 -54 -201.5t-148 -72.5t-147 71.5t-53 200.5t53.5 201t147.5 72q95 0 148 -70zM153 430.5q-37 -55.5 -37 -169.5q0 -113 36.5 -169t104.5 -56t105 56t37 171q0 113 -36 168t-105 55q-68 0 -105 -55.5zM177 682.5q-32 29.5 -38 80.5l37 8 q18 -72 81 -72q64 0 82 72l37 -8q-6 -51 -38.5 -80.5t-80.5 -29.5t-80 29.5z" />
<glyph unicode="&#x150;" horiz-adv-x="624" d="M496.5 606q67.5 -90 67.5 -264q0 -171 -67.5 -262t-184.5 -91q-76 0 -133 39.5t-88.5 119t-31.5 193.5t31.5 194t88.5 120.5t133 40.5q117 0 184.5 -90zM171 571q-51 -75 -51 -230q0 -153 51.5 -227.5t140.5 -74.5q92 0 142 74t50 229t-50.5 229.5t-141.5 74.5 q-90 0 -141 -75zM293 935l48 -25l-77 -137l-35 16zM411 935l48 -25l-84 -141l-35 15z" />
<glyph unicode="&#x151;" d="M406 464q53 -70 53 -201q0 -129 -54 -201.5t-148 -72.5t-147 71.5t-53 200.5t53.5 201t147.5 72q95 0 148 -70zM153 430.5q-37 -55.5 -37 -169.5q0 -113 36.5 -169t104.5 -56t105 56t37 171q0 113 -36 168t-105 55q-68 0 -105 -55.5zM244 809l48 -25l-77 -137l-35 16z M362 809l48 -25l-84 -141l-35 15z" />
<glyph unicode="&#x152;" horiz-adv-x="785" d="M744 0h-379q-31 -11 -64 -11q-70 0 -125 41t-86 120t-31 191q0 111 31 191.5t86 122t125 41.5q35 0 66 -11h371l-7 -49h-286q45 -38 71 -103t30 -153h152v-49h-151q-2 -99 -29 -170t-76 -112h302v-49zM170 115.5q50 -76.5 133 -76.5q86 0 134.5 76.5t48.5 231.5 q0 148 -49.5 223.5t-133.5 75.5q-83 0 -133 -76.5t-50 -228.5q0 -149 50 -225.5z" />
<glyph unicode="&#x153;" horiz-adv-x="826" d="M772 239h-313q4 -103 42.5 -152.5t101.5 -49.5q37 0 66 12t60 38l27 -34q-35 -32 -72.5 -48t-82.5 -16q-62 0 -105 34t-68 96q-25 -62 -68 -96t-103 -34q-94 0 -147 71.5t-53 200.5t53.5 201t147.5 72q61 0 104 -33t68 -95q24 61 65 94.5t98 33.5q88 0 134.5 -67 t46.5 -186q0 -22 -2 -42zM719 299q0 90 -31.5 139t-93.5 49q-59 0 -95.5 -50.5t-40.5 -153.5h261v16zM362 94q37 58 37 169q0 110 -36.5 166.5t-104.5 56.5t-105 -55.5t-37 -169.5q0 -113 36.5 -169t104.5 -56t105 58z" />
<glyph unicode="&#x154;" horiz-adv-x="532" d="M437 0l-159 309l-16 -1h-106v-308h-58v685h141q232 0 232 -186q0 -70 -35.5 -115.5t-101.5 -63.5l169 -320h-66zM369 391q41 35 41 108q0 70 -40 104t-133 34h-81v-281h90q82 0 123 35zM335 885l25 -50l-179 -77l-16 33z" />
<glyph unicode="&#x155;" horiz-adv-x="338" d="M327 528l-11 -53q-18 6 -40 6q-48 0 -77.5 -38.5t-48.5 -119.5v-323h-56v523h48l4 -112q20 62 53 92.5t82 30.5q22 0 46 -6zM276 779l26 -49l-177 -84l-18 31z" />
<glyph unicode="&#x156;" horiz-adv-x="532" d="M437 0l-159 309l-16 -1h-106v-308h-58v685h141q232 0 232 -186q0 -70 -35.5 -115.5t-101.5 -63.5l169 -320h-66zM369 391q41 35 41 108q0 70 -40 104t-133 34h-81v-281h90q82 0 123 35zM305.5 -97q11.5 -12 11.5 -30q0 -11 -4 -23.5t-16 -41.5l-37 -86h-33l30 114 q-23 13 -23 37q0 18 11.5 30t30.5 12q18 0 29.5 -12z" />
<glyph unicode="&#x157;" horiz-adv-x="338" d="M327 528l-11 -53q-18 6 -40 6q-48 0 -77.5 -38.5t-48.5 -119.5v-323h-56v523h48l4 -112q20 62 53 92.5t82 30.5q22 0 46 -6zM152.5 -97q11.5 -12 11.5 -30q0 -11 -4 -23.5t-16 -41.5l-37 -86h-33l30 114q-23 13 -23 37q0 18 11.5 30t30.5 12q18 0 29.5 -12z" />
<glyph unicode="&#x158;" horiz-adv-x="532" d="M437 0l-159 309l-16 -1h-106v-308h-58v685h141q232 0 232 -186q0 -70 -35.5 -115.5t-101.5 -63.5l169 -320h-66zM369 391q41 35 41 108q0 70 -40 104t-133 34h-81v-281h90q82 0 123 35zM373 886l23 -27l-116 -103h-35l-117 103l24 27l111 -81z" />
<glyph unicode="&#x159;" horiz-adv-x="338" d="M327 528l-11 -53q-18 6 -40 6q-48 0 -77.5 -38.5t-48.5 -119.5v-323h-56v523h48l4 -112q20 62 53 92.5t82 30.5q22 0 46 -6zM319 767l24 -27l-116 -107h-35l-117 107l25 27l110 -85z" />
<glyph unicode="&#x15a;" horiz-adv-x="486" d="M339.5 677q41.5 -19 80.5 -57l-33 -35q-35 32 -68.5 46.5t-75.5 14.5q-56 0 -91 -32t-35 -84t31 -82.5t112 -58.5q92 -32 135 -76t43 -126q0 -56 -25.5 -101.5t-72.5 -71t-108 -25.5q-116 0 -199 86l33 34q38 -35 76 -52.5t89 -17.5q66 0 107 39.5t41 106.5 q0 41 -13.5 68t-44.5 47.5t-87 40.5q-94 33 -135 75.5t-41 111.5q0 47 23.5 85.5t65.5 60.5t95 22q56 0 97.5 -19zM317 885l25 -50l-179 -77l-16 33z" />
<glyph unicode="&#x15b;" horiz-adv-x="420" d="M293 519.5q36 -14.5 70 -43.5l-26 -36q-32 25 -60.5 36.5t-62.5 11.5q-47 0 -75.5 -24t-28.5 -66q0 -37 25 -58.5t90 -42.5q81 -26 116 -60.5t35 -96.5q0 -69 -49 -110t-123 -41q-53 0 -94 17.5t-76 49.5l31 34q32 -27 64.5 -40.5t74.5 -13.5q51 0 82.5 27t31.5 75 q0 32 -10.5 51.5t-37 34.5t-76.5 31q-76 24 -108.5 57t-32.5 85q0 39 21 70t57.5 49t80.5 18q45 0 81 -14.5zM283 779l26 -49l-177 -84l-18 31z" />
<glyph unicode="&#x15c;" horiz-adv-x="486" d="M339.5 677q41.5 -19 80.5 -57l-33 -35q-35 32 -68.5 46.5t-75.5 14.5q-56 0 -91 -32t-35 -84t31 -82.5t112 -58.5q92 -32 135 -76t43 -126q0 -56 -25.5 -101.5t-72.5 -71t-108 -25.5q-116 0 -199 86l33 34q38 -35 76 -52.5t89 -17.5q66 0 107 39.5t41 106.5 q0 41 -13.5 68t-44.5 47.5t-87 40.5q-94 33 -135 75.5t-41 111.5q0 47 23.5 85.5t65.5 60.5t95 22q56 0 97.5 -19zM135 763l-25 27l117 102h35l116 -102l-24 -27l-110 80z" />
<glyph unicode="&#x15d;" horiz-adv-x="420" d="M293 519.5q36 -14.5 70 -43.5l-26 -36q-32 25 -60.5 36.5t-62.5 11.5q-47 0 -75.5 -24t-28.5 -66q0 -37 25 -58.5t90 -42.5q81 -26 116 -60.5t35 -96.5q0 -69 -49 -110t-123 -41q-53 0 -94 17.5t-76 49.5l31 34q32 -27 64.5 -40.5t74.5 -13.5q51 0 82.5 27t31.5 75 q0 32 -10.5 51.5t-37 34.5t-76.5 31q-76 24 -108.5 57t-32.5 85q0 39 21 70t57.5 49t80.5 18q45 0 81 -14.5zM107 645l-25 27l117 107h34l117 -107l-24 -27l-110 85z" />
<glyph unicode="&#x15e;" horiz-adv-x="486" d="M387.5 51.5q-50.5 -54.5 -134.5 -61.5v-55q42 -4 63 -24t21 -52q0 -40 -27.5 -62.5t-69.5 -22.5q-43 0 -73 21l19 33q26 -14 53 -14q22 0 35.5 11.5t13.5 33.5q0 23 -19.5 34t-61.5 11l8 85q-106 7 -182 86l33 34q38 -35 76 -52.5t89 -17.5q66 0 107 39.5t41 106.5 q0 41 -13.5 68t-44.5 47.5t-87 40.5q-94 33 -135 75.5t-41 111.5q0 47 23.5 85.5t65.5 60.5t95 22q56 0 97.5 -19t80.5 -57l-33 -35q-35 32 -68.5 46.5t-75.5 14.5q-56 0 -91 -32t-35 -84t31 -82.5t112 -58.5q92 -32 135 -76t43 -126q0 -81 -50.5 -135.5z" />
<glyph unicode="&#x15f;" horiz-adv-x="420" d="M334 36q-42 -40 -109 -46v-55q42 -4 63 -24t21 -52q0 -40 -27.5 -62.5t-69.5 -22.5q-43 0 -73 21l19 33q26 -14 53 -14q22 0 35.5 11.5t13.5 33.5q0 23 -19.5 34t-61.5 11l8 86q-47 3 -84 20t-69 46l31 34q32 -27 64.5 -40.5t74.5 -13.5q51 0 82.5 27t31.5 75 q0 32 -10.5 51.5t-37 34.5t-76.5 31q-76 24 -108.5 57t-32.5 85q0 39 21 70t57.5 49t80.5 18q45 0 81 -14.5t70 -43.5l-26 -36q-32 25 -60.5 36.5t-62.5 11.5q-47 0 -75.5 -24t-28.5 -66q0 -37 25 -58.5t90 -42.5q81 -26 116 -60.5t35 -96.5q0 -64 -42 -104z" />
<glyph unicode="&#x160;" horiz-adv-x="486" d="M339.5 677q41.5 -19 80.5 -57l-33 -35q-35 32 -68.5 46.5t-75.5 14.5q-56 0 -91 -32t-35 -84t31 -82.5t112 -58.5q92 -32 135 -76t43 -126q0 -56 -25.5 -101.5t-72.5 -71t-108 -25.5q-116 0 -199 86l33 34q38 -35 76 -52.5t89 -17.5q66 0 107 39.5t41 106.5 q0 41 -13.5 68t-44.5 47.5t-87 40.5q-94 33 -135 75.5t-41 111.5q0 47 23.5 85.5t65.5 60.5t95 22q56 0 97.5 -19zM355 886l23 -27l-116 -103h-35l-117 103l24 27l111 -81z" />
<glyph unicode="&#x161;" horiz-adv-x="420" d="M293 519.5q36 -14.5 70 -43.5l-26 -36q-32 25 -60.5 36.5t-62.5 11.5q-47 0 -75.5 -24t-28.5 -66q0 -37 25 -58.5t90 -42.5q81 -26 116 -60.5t35 -96.5q0 -69 -49 -110t-123 -41q-53 0 -94 17.5t-76 49.5l31 34q32 -27 64.5 -40.5t74.5 -13.5q51 0 82.5 27t31.5 75 q0 32 -10.5 51.5t-37 34.5t-76.5 31q-76 24 -108.5 57t-32.5 85q0 39 21 70t57.5 49t80.5 18q45 0 81 -14.5zM326 767l24 -27l-116 -107h-35l-117 107l25 27l110 -85z" />
<glyph unicode="&#x162;" horiz-adv-x="447" d="M316 -88.5q21 -19.5 21 -51.5q0 -40 -28 -63t-70 -23t-72 21l18 35q25 -16 52 -16q22 0 36.5 11.5t14.5 34.5q0 22 -19.5 33t-60.5 11l8 96h-21v634h-182v51h425l-6 -51h-180v-699q43 -4 64 -23.5z" />
<glyph unicode="&#x163;" horiz-adv-x="310" d="M283 -89q21 -20 21 -52q0 -40 -27.5 -62.5t-69.5 -22.5q-43 0 -73 21l19 33q26 -14 53 -14q22 0 35.5 11.5t13.5 33.5q0 23 -19.5 34t-61.5 11l8 88q-41 8 -64 40t-23 83v362h-79v46h79v125l56 7v-132h121l-7 -46h-114v-360q0 -80 67 -80q34 0 71 22l23 -37 q-41 -30 -92 -33v-54q42 -4 63 -24z" />
<glyph unicode="&#x164;" horiz-adv-x="447" d="M438 685l-6 -51h-180v-634h-57v634h-182v51h425zM334 886l23 -27l-116 -103h-35l-117 103l24 27l111 -81z" />
<glyph unicode="&#x165;" horiz-adv-x="310" d="M261 739l-36 -162l-34 5l18 164zM312 22q-46 -33 -100 -33q-55 0 -86 33t-31 93v362h-79v46h79v125l56 7v-132h121l-7 -46h-114v-360q0 -80 67 -80q34 0 71 22z" />
<glyph unicode="&#x166;" horiz-adv-x="447" d="M432 633h-180v-249h112v-46h-112v-339h-57v339h-111v46h111v249h-182v51h425z" />
<glyph unicode="&#x167;" horiz-adv-x="310" d="M312 22q-46 -33 -100 -33q-55 0 -86 33t-31 93v189h-75v45h75v128h-79v46h79v125l56 7v-132h121l-7 -46h-114v-128h110v-45h-110v-187q0 -80 67 -80q34 0 71 22z" />
<glyph unicode="&#x168;" horiz-adv-x="585" d="M496 194q0 -91 -52.5 -148t-151.5 -57q-100 0 -152 57t-52 148v491h58v-486q0 -76 36 -117.5t110 -41.5q75 0 110.5 42t35.5 117v486h58v-491zM314.5 800.5q-13.5 6.5 -33.5 18.5q-27 19 -42 19t-26.5 -9t-24.5 -30l-33 17q33 66 83 66q16 0 29.5 -6.5t29.5 -17.5 q17 -11 26.5 -15.5t20.5 -4.5q14 0 25.5 10t25.5 33l33 -17q-31 -70 -83 -70q-17 0 -30.5 6.5z" />
<glyph unicode="&#x169;" horiz-adv-x="522" d="M428 0h-48l-4 90q-55 -101 -152 -101q-63 0 -99 40t-36 111v383h56v-378q0 -109 90 -109q44 0 77 28t60 79v380h56v-523zM281.5 674.5q-13.5 6.5 -33.5 18.5q-27 19 -42 19t-26.5 -9t-24.5 -30l-33 17q33 66 83 66q16 0 29.5 -6.5t29.5 -17.5q17 -11 26.5 -15.5 t20.5 -4.5q14 0 25.5 10t25.5 33l33 -17q-31 -70 -83 -70q-17 0 -30.5 6.5z" />
<glyph unicode="&#x16a;" horiz-adv-x="585" d="M496 194q0 -91 -52.5 -148t-151.5 -57q-100 0 -152 57t-52 148v491h58v-486q0 -76 36 -117.5t110 -41.5q75 0 110.5 42t35.5 117v486h58v-491zM402 803h-219v44h219v-44z" />
<glyph unicode="&#x16b;" horiz-adv-x="522" d="M428 0h-48l-4 90q-55 -101 -152 -101q-63 0 -99 40t-36 111v383h56v-378q0 -109 90 -109q44 0 77 28t60 79v380h56v-523zM369 677h-219v44h219v-44z" />
<glyph unicode="&#x16c;" horiz-adv-x="585" d="M496 194q0 -91 -52.5 -148t-151.5 -57q-100 0 -152 57t-52 148v491h58v-486q0 -76 36 -117.5t110 -41.5q75 0 110.5 42t35.5 117v486h58v-491zM211.5 792.5q-32.5 27.5 -38.5 71.5l37 9q8 -29 29 -45.5t52 -16.5t52.5 16.5t29.5 45.5l37 -9q-6 -44 -38.5 -71.5 t-80.5 -27.5q-47 0 -79.5 27.5z" />
<glyph unicode="&#x16d;" horiz-adv-x="522" d="M428 0h-48l-4 90q-55 -101 -152 -101q-63 0 -99 40t-36 111v383h56v-378q0 -109 90 -109q44 0 77 28t60 79v380h56v-523zM178 682.5q-32 29.5 -38 80.5l37 8q18 -72 81 -72q64 0 82 72l37 -8q-6 -51 -38.5 -80.5t-80.5 -29.5t-80 29.5z" />
<glyph unicode="&#x16e;" horiz-adv-x="585" d="M496 194q0 -91 -52.5 -148t-151.5 -57q-100 0 -152 57t-52 148v491h58v-486q0 -76 36 -117.5t110 -41.5q75 0 110.5 42t35.5 117v486h58v-491zM358 920.5q25 -25.5 25 -67.5q0 -43 -25 -68.5t-66 -25.5q-40 0 -65 25.5t-25 68.5q0 42 25 67.5t65 25.5q41 0 66 -25.5z M243 853q0 -60 49 -60q24 0 37 15t13 45q0 59 -50 59q-49 0 -49 -59z" />
<glyph unicode="&#x16f;" horiz-adv-x="522" d="M428 0h-48l-4 90q-55 -101 -152 -101q-63 0 -99 40t-36 111v383h56v-378q0 -109 90 -109q44 0 77 28t60 79v380h56v-523zM325 794.5q25 -25.5 25 -67.5q0 -43 -25 -68.5t-66 -25.5q-40 0 -65 25.5t-25 68.5q0 42 25 67.5t65 25.5q41 0 66 -25.5zM210 727q0 -60 49 -60 q24 0 37 15t13 45q0 59 -50 59q-49 0 -49 -59z" />
<glyph unicode="&#x170;" horiz-adv-x="585" d="M496 194q0 -91 -52.5 -148t-151.5 -57q-100 0 -152 57t-52 148v491h58v-486q0 -76 36 -117.5t110 -41.5q75 0 110.5 42t35.5 117v486h58v-491zM273 935l48 -25l-77 -137l-35 16zM391 935l48 -25l-84 -141l-35 15z" />
<glyph unicode="&#x171;" horiz-adv-x="522" d="M428 0h-48l-4 90q-55 -101 -152 -101q-63 0 -99 40t-36 111v383h56v-378q0 -109 90 -109q44 0 77 28t60 79v380h56v-523zM245 809l48 -25l-77 -137l-35 16zM363 809l48 -25l-84 -141l-35 15z" />
<glyph unicode="&#x172;" horiz-adv-x="585" d="M496 685v-491q0 -73 -34 -125t-100 -71q-57 -29 -81 -55t-24 -61q0 -25 14 -38.5t43 -13.5q21 0 51 6l-5 -46q-31 -7 -53 -7q-48 0 -74.5 25.5t-26.5 65.5q0 72 85 115q-99 0 -151 57t-52 148v491h58v-486q0 -76 36 -117.5t110 -41.5q75 0 110.5 42t35.5 117v486h58z" />
<glyph unicode="&#x173;" horiz-adv-x="522" d="M343.5 -56.5q-24.5 -26.5 -24.5 -62.5q0 -52 56 -52q24 0 52 7l-5 -46q-31 -7 -53 -7q-48 0 -74.5 25t-26.5 66q0 43 27.5 75t84.5 59l-4 82q-55 -101 -152 -101q-63 0 -99 40t-36 111v383h56v-378q0 -109 90 -109q44 0 77 28t60 79v380h56v-523q-60 -30 -84.5 -56.5z " />
<glyph unicode="&#x174;" horiz-adv-x="735" d="M706 685l-134 -685h-74l-131 620l-132 -620h-72l-134 685h57l116 -631l132 631h66l135 -631l116 631h55zM257 763l-25 27l117 102h35l116 -102l-24 -27l-110 80z" />
<glyph unicode="&#x175;" horiz-adv-x="638" d="M612 523l-114 -523h-76l-102 470l-103 -470h-75l-116 523h56l99 -478l107 478h66l106 -478l98 478h54zM210 645l-25 27l117 107h34l117 -107l-24 -27l-110 85z" />
<glyph unicode="&#x176;" horiz-adv-x="473" d="M462 685l-196 -417v-268h-58v267l-197 418h63l165 -365l162 365h61zM126 763l-25 27l117 102h35l116 -102l-24 -27l-110 80z" />
<glyph unicode="&#x177;" horiz-adv-x="428" d="M250 -2q-27 -90 -69 -136.5t-125 -65.5l-7 44q47 13 74 32t43 48t33 80h-20l-163 523h58l142 -481l138 481h58zM105 645l-25 27l117 107h34l117 -107l-24 -27l-110 85z" />
<glyph unicode="&#x178;" horiz-adv-x="473" d="M462 685l-196 -417v-268h-58v267l-197 418h63l165 -365l162 365h61zM180.5 855q10.5 -11 10.5 -27q0 -17 -10.5 -28t-27.5 -11q-16 0 -27 11t-11 28q0 16 11 27t27 11q17 0 27.5 -11zM352 855q11 -11 11 -27q0 -17 -11 -28t-27 -11q-17 0 -28 11t-11 28q0 16 11 27t28 11 q16 0 27 -11z" />
<glyph unicode="&#x179;" horiz-adv-x="464" d="M423 685v-48l-329 -586h324l-7 -51h-380v48l330 587h-297v50h359zM309 885l25 -50l-179 -77l-16 33z" />
<glyph unicode="&#x17a;" horiz-adv-x="381" d="M351 523v-44l-264 -430h263l-6 -49h-320v43l265 431h-243v49h305zM262 779l26 -49l-177 -84l-18 31z" />
<glyph unicode="&#x17b;" horiz-adv-x="464" d="M423 685v-48l-329 -586h324l-7 -51h-380v48l330 587h-297v50h359zM266.5 866q11.5 -12 11.5 -29q0 -18 -11.5 -29.5t-29.5 -11.5t-29.5 11.5t-11.5 29.5q0 17 11.5 29t29.5 12t29.5 -12z" />
<glyph unicode="&#x17c;" horiz-adv-x="381" d="M351 523v-44l-264 -430h263l-6 -49h-320v43l265 431h-243v49h305zM225.5 740q11.5 -12 11.5 -29q0 -18 -11.5 -29.5t-29.5 -11.5t-29.5 11.5t-11.5 29.5q0 17 11.5 29t29.5 12t29.5 -12z" />
<glyph unicode="&#x17d;" horiz-adv-x="464" d="M423 685v-48l-329 -586h324l-7 -51h-380v48l330 587h-297v50h359zM347 886l23 -27l-116 -103h-35l-117 103l24 27l111 -81z" />
<glyph unicode="&#x17e;" horiz-adv-x="381" d="M351 523v-44l-264 -430h263l-6 -49h-320v43l265 431h-243v49h305zM305 767l24 -27l-116 -107h-35l-117 107l25 27l110 -85z" />
<glyph unicode="&#x17f;" horiz-adv-x="291" d="M343 715l-19 -41q-44 22 -87 22q-41 0 -61 -20t-20 -63v-613h-56v477h-81v46h81v92q0 59 35.5 93.5t97.5 34.5q57 0 110 -28z" />
<glyph unicode="&#x180;" horiz-adv-x="527" d="M423 465.5q45 -68.5 45 -201.5q0 -130 -47.5 -202.5t-132.5 -72.5q-42 0 -76 21t-59 56l-5 -66h-49v617h-68v45h68v74l56 7v-81h147v-45h-147v-167q55 84 141 84q82 0 127 -68.5zM374.5 92q33.5 56 33.5 172t-31 169.5t-91 53.5q-42 0 -73 -24t-58 -66v-278 q52 -83 124 -83q62 0 95.5 56z" />
<glyph unicode="&#x181;" horiz-adv-x="596" d="M508 313q41 -41 41 -123q0 -94 -60 -142t-168 -48h-166v637h-23q-66 0 -66 -63q0 -36 21 -76l-40 -21q-16 24 -24.5 46.5t-8.5 52.5q0 49 30.5 79t89.5 30h157q110 0 169.5 -44t59.5 -127q0 -62 -32.5 -100.5t-89.5 -50.5q69 -9 110 -50zM213 637v-253h111 q64 0 100.5 33.5t36.5 92.5q0 66 -41.5 96.5t-122.5 30.5h-84zM489 190q0 75 -41.5 111t-117.5 36h-117v-288h109q167 0 167 141z" />
<glyph unicode="&#x182;" horiz-adv-x="515" d="M416.5 366q58.5 -51 58.5 -151q0 -110 -60.5 -162.5t-168.5 -52.5h-148v685h315l-8 -50h-249v-218h94q108 0 166.5 -51zM372.5 87.5q41.5 38.5 41.5 127.5q0 80 -41.5 117t-121.5 37h-95v-320h97q78 0 119.5 38.5z" />
<glyph unicode="&#x183;" horiz-adv-x="522" d="M418 465.5q45 -68.5 45 -201.5q0 -130 -47.5 -202.5t-132.5 -72.5q-42 0 -76 21t-59 56l-5 -66h-49v736h268l-8 -46h-204v-240q55 84 141 84q82 0 127 -68.5zM369.5 92q33.5 56 33.5 172t-31 169.5t-91 53.5q-42 0 -73 -24t-58 -66v-278q52 -83 124 -83q62 0 95.5 56z " />
<glyph unicode="&#x184;" horiz-adv-x="507" d="M415.5 370.5q59.5 -51.5 59.5 -153.5q0 -111 -60.5 -164t-169.5 -53h-147v551l-48 34q36 39 55 100h51v-263h90q110 0 169.5 -51.5zM372 88q42 39 42 129q0 82 -42 119.5t-124 37.5h-92v-325h95q79 0 121 39z" />
<glyph unicode="&#x185;" horiz-adv-x="455" d="M422 177q0 -88 -50.5 -132.5t-133.5 -44.5h-142v399l-47 34q33 36 55 90h48v-177h76q194 0 194 -169zM330.5 77q33.5 31 33.5 100q0 61 -31 92t-104 31h-77v-254h81q64 0 97.5 31z" />
<glyph unicode="&#x186;" horiz-adv-x="497" d="M375 607q63 -89 63 -264q0 -115 -32 -194.5t-88 -119.5t-129 -40q-97 0 -169 70l32 36q34 -28 64 -41.5t72 -13.5q84 0 136.5 75t52.5 228q0 159 -48 231t-129 72q-41 0 -75.5 -12.5t-67.5 -37.5l-30 37q78 63 175 63q110 0 173 -89z" />
<glyph unicode="&#x187;" horiz-adv-x="497" d="M622 790l-24 -36q-16 11 -31.5 17t-35.5 6q-61 0 -61 -77v-67l-29 -33q-33 24 -62 35t-66 11q-87 0 -140 -72.5t-53 -230.5q0 -153 53 -228t139 -75q42 0 71.5 14.5t61.5 41.5l32 -37q-68 -70 -167 -70q-73 0 -130 39.5t-89 119t-32 195.5t33 195.5t89.5 118.5t127.5 39 q61 0 106 -29v31q0 61 30 93.5t83 32.5q52 0 94 -34z" />
<glyph unicode="&#x188;" horiz-adv-x="420" d="M544 709l-24 -36q-18 12 -32.5 17.5t-34.5 5.5q-61 0 -61 -77v-138l-24 -31q-27 18 -52 27t-56 9q-66 0 -104.5 -56.5t-38.5 -170.5q0 -113 38 -167t105 -54q31 0 56 10.5t51 31.5l28 -35q-59 -56 -136 -56q-94 0 -148 69.5t-54 199.5t54.5 203t147.5 73q45 0 78 -20v102 q0 62 30.5 94.5t82.5 32.5t94 -34z" />
<glyph unicode="&#x189;" horiz-adv-x="576" d="M438.5 613q79.5 -72 79.5 -265q0 -194 -80.5 -271t-198.5 -77h-135v329h-83v47h83v309h125q130 0 209.5 -72zM397 113q60 65 60 235q0 119 -31 182.5t-78.5 84.5t-110.5 21h-75v-260h153v-47h-153v-281h80q95 0 155 65z" />
<glyph unicode="&#x18a;" horiz-adv-x="628" d="M489.5 613q79.5 -72 79.5 -265q0 -194 -80.5 -271t-198.5 -77h-135v637h-23q-66 0 -66 -63q0 -36 21 -76l-40 -21q-16 24 -24.5 46.5t-8.5 52.5q0 49 30.5 79t89.5 30h146q130 0 209.5 -72zM448 113q60 65 60 235q0 119 -31 182.5t-78.5 84.5t-110.5 21h-75v-588h80 q95 0 155 65z" />
<glyph unicode="&#x18b;" horiz-adv-x="515" d="M417 0h-152q-105 0 -165 50.5t-60 155.5q0 102 60.5 156.5t171.5 54.5h87v218h-254v50h312v-685zM359 49v320h-87q-86 0 -128.5 -40t-42.5 -123q0 -85 42 -121t124 -36h92z" />
<glyph unicode="&#x18c;" horiz-adv-x="526" d="M432 0h-49l-5 78q-23 -41 -57.5 -65t-82.5 -24q-84 0 -131.5 71.5t-47.5 198.5q0 82 23 144.5t65 96.5t98 34q80 0 131 -70v226h-208v46h264v-736zM320 60q31 24 56 72v275q-50 80 -122 80q-63 0 -99.5 -58.5t-35.5 -168.5q0 -111 33.5 -167.5t93.5 -56.5q43 0 74 24z " />
<glyph unicode="&#x18d;" horiz-adv-x="512" d="M384 -2.5q22 -31.5 22 -75.5q0 -56 -41.5 -94t-111.5 -38q-44 0 -79 12t-68 37l29 35q29 -20 55 -28.5t59 -8.5q48 0 74 23.5t26 62.5q0 26 -9.5 44t-34.5 35t-74 38q-92 40 -133 97t-41 155q0 110 53.5 176t147.5 66q92 0 144.5 -62.5t52.5 -178.5q0 -85 -38 -145 t-105 -94q50 -25 72 -56.5zM130.5 194q14.5 -39 48 -67.5t93.5 -54.5q124 65 124 221q0 96 -35.5 145t-102.5 49q-69 0 -105.5 -49.5t-36.5 -145.5q0 -59 14.5 -98z" />
<glyph unicode="&#x18e;" horiz-adv-x="461" d="M47 685h315v-685h-321v49h263v282h-217v48h217v257h-257v49z" />
<glyph unicode="&#x18f;" horiz-adv-x="583" d="M524 346q0 -182 -64 -269.5t-175 -87.5q-113 0 -174.5 85.5t-61.5 257.5q0 11 2 41h413q-4 147 -49.5 210t-130.5 63q-48 0 -87.5 -16.5t-78.5 -51.5l-31 36q44 42 92 62t108 20q237 0 237 -350zM465 325h-358q1 -287 178 -287q172 0 180 287z" />
<glyph unicode="&#x190;" horiz-adv-x="469" d="M433 612l-32 -34q-70 68 -149 68q-59 0 -92.5 -34t-33.5 -89q0 -63 37 -97.5t99 -34.5h55l-8 -49h-49q-74 1 -113 -37t-39 -109q0 -74 41 -115t110 -41q48 0 85.5 19t70.5 55l36 -32q-79 -93 -193 -93q-61 0 -109 25t-75 71.5t-27 110.5q0 78 39.5 122t99.5 52 q-55 13 -87.5 52t-32.5 103q0 76 49 123.5t133 47.5q104 0 185 -84z" />
<glyph unicode="&#x191;" horiz-adv-x="433" d="M156 636v-269h213v-48h-213v-400q0 -60 -31.5 -92t-82.5 -32q-53 0 -95 34l25 37q16 -11 31 -17t36 -6q27 0 43 17.5t16 56.5v768h311l-7 -49h-246z" />
<glyph unicode="&#x192;" horiz-adv-x="294" d="M178 676q-20 -20 -20 -63v-90h124l-7 -46h-117v-459q0 -68 -14 -108t-40.5 -64t-74.5 -49l-17 41q34 19 52.5 38t28 51.5t9.5 88.5v461h-79v46h79v92q0 59 35.5 93.5t97.5 34.5q58 0 111 -28l-19 -41q-45 22 -88 22q-41 0 -61 -20z" />
<glyph unicode="&#x193;" d="M641 790l-24 -36q-16 11 -31.5 17t-35.5 6q-61 0 -61 -77v-72l-30 -32q-34 26 -67.5 38t-73.5 12q-53 0 -97.5 -29.5t-72.5 -97t-28 -174.5q0 -306 196 -306q69 0 127 35v246h-119l-7 49h182v-324q-85 -56 -184 -56q-120 0 -188 89t-68 267q0 116 36 195t94 117.5 t126 38.5q67 0 119 -32v34q0 61 30 93.5t83 32.5q52 0 94 -34z" />
<glyph unicode="&#x194;" horiz-adv-x="499" d="M284 59q30 -68 42 -104t12 -73q0 -40 -23 -63.5t-65 -23.5t-65 23t-23 64q0 33 11.5 67.5t42.5 109.5l-199 626h60l173 -584l174 584h58zM277.5 -62q-7.5 27 -27.5 82q-19 -51 -27 -79.5t-8 -54.5q0 -44 35 -44t35 44q0 25 -7.5 52z" />
<glyph unicode="&#x195;" horiz-adv-x="800" d="M727 259q0 -92 -26.5 -152.5t-70 -89t-97.5 -28.5q-66 0 -109 42t-43 117v223q0 117 -87 117q-43 0 -77.5 -29t-66.5 -82v-377h-56v736l56 7v-308q31 47 68.5 73t86.5 26q63 0 97.5 -41.5t34.5 -113.5v-228q0 -58 26 -86.5t72 -28.5q58 0 97 52.5t39 172.5q0 116 -24 262 h56q24 -139 24 -264z" />
<glyph unicode="&#x196;" horiz-adv-x="310" d="M297 23q-42 -34 -95 -34q-51 0 -82.5 32t-31.5 92v572h58v-574q0 -39 16 -56.5t43 -17.5q21 0 36 6t31 17z" />
<glyph unicode="&#x197;" horiz-adv-x="284" d="M262 384v-47h-91v-337h-58v337h-91v47h91v301h58v-301h91z" />
<glyph unicode="&#x198;" horiz-adv-x="526" d="M160 367l160 250q27 42 53.5 60.5t64.5 18.5q26 0 46 -10t39 -27l-24 -34q-15 12 -27.5 18t-30.5 6q-22 0 -38 -11.5t-38 -45.5l-140 -222l272 -370h-69zM156 685v-685h-58v685h58z" />
<glyph unicode="&#x199;" horiz-adv-x="442" d="M150 611v-611h-56v612q0 61 35.5 96t97.5 35q58 0 111 -28l-20 -41q-47 22 -87 22q-81 0 -81 -85zM218 289l218 -289h-65l-215 286l197 237h62z" />
<glyph unicode="&#x19a;" horiz-adv-x="267" d="M162 349v-266q0 -46 38 -46q16 0 32 7l14 -41q-25 -14 -55 -14q-39 0 -62 24t-23 69v267h-93v46h93v341l56 7v-348h91v-46h-91z" />
<glyph unicode="&#x19b;" horiz-adv-x="425" d="M321.5 256.5q26.5 -91.5 51.5 -141.5t61 -103l-52 -21q-37 57 -61.5 108t-50 139t-50.5 229l-140 -476l-53 14l158 507h26q-14 73 -33 109l-63 -70l-37 19l76 86q-30 32 -86 45l8 43q72 -17 110 -53l61 70l33 -28l-67 -75q17 -27 29.5 -64.5t23.5 -93.5 q29 -152 55.5 -243.5z" />
<glyph unicode="&#x19c;" horiz-adv-x="835" d="M736 685v-685h-50l-5 90q-60 -101 -153 -101q-51 0 -85 28.5t-49 79.5q-67 -108 -160 -108q-69 0 -107.5 49.5t-38.5 133.5v513h58v-514q0 -63 25 -97.5t71 -34.5q44 0 78 28.5t65 83.5q-1 7 -1 22v512h57v-514q0 -62 25 -97t71 -35q45 0 79 29t62 84v533h58z" />
<glyph unicode="&#x19d;" horiz-adv-x="605" d="M507 685v-685h-76l-286 620q8 -92 8 -233v-469q0 -60 -31 -91.5t-82 -31.5q-54 0 -94 34l25 36q16 -11 31 -17t36 -6q60 0 60 74v769h76l286 -621q-8 120 -8 202v419h55z" />
<glyph unicode="&#x19e;" horiz-adv-x="526" d="M402.5 493q34.5 -41 34.5 -114v-584l-56 8v568q0 60 -21.5 88.5t-64.5 28.5t-78 -29t-67 -82v-377h-56v523h48l6 -91q62 102 157 102q63 0 97.5 -41z" />
<glyph unicode="&#x19f;" horiz-adv-x="624" d="M496.5 606q67.5 -90 67.5 -265q0 -170 -67.5 -261t-184.5 -91q-76 0 -133 39.5t-88.5 118.5t-31.5 193q0 115 31.5 195t88.5 120.5t133 40.5q117 0 184.5 -90zM175 578.5q-51 -67.5 -56 -205.5h386q-5 140 -55.5 206.5t-137.5 66.5q-86 0 -137 -67.5zM453.5 109.5 q50.5 70.5 52.5 217.5h-388q2 -145 54 -216.5t140 -71.5q91 0 141.5 70.5z" />
<glyph unicode="&#x1a0;" horiz-adv-x="631" d="M503 597q61 -92 61 -255q0 -171 -67.5 -262t-184.5 -91q-76 0 -133 39.5t-88.5 119t-31.5 193.5t31.5 194t88.5 120.5t133 40.5q102 0 165 -67q27 4 39 17.5t12 39.5q0 21 -3.5 37t-9.5 35l42 12q17 -38 17 -83q0 -76 -71 -90zM454 113q50 74 50 229t-50.5 229.5 t-141.5 74.5q-90 0 -141 -75t-51 -230q0 -153 51.5 -227.5t140.5 -74.5q92 0 142 74z" />
<glyph unicode="&#x1a1;" horiz-adv-x="526" d="M426 431q33 -65 33 -168q0 -129 -54 -201.5t-148 -72.5t-147 71.5t-53 200.5t53.5 201t147.5 72q96 0 147 -69q28 4 40 17.5t12 39.5q0 21 -3.5 37t-9.5 35l43 11q17 -40 17 -82q0 -78 -78 -92zM362 92q37 56 37 171q0 113 -36 168t-105 55q-68 0 -105 -55.5t-37 -169.5 q0 -113 36.5 -169t104.5 -56t105 56z" />
<glyph unicode="&#x1a2;" horiz-adv-x="815" d="M683.5 662q33.5 -35 33.5 -103v-756h-58v757q0 48 -19 69t-55 21q-27 0 -50.5 -8t-49.5 -23q79 -93 79 -277q0 -171 -67.5 -262t-184.5 -91q-76 0 -133 39.5t-88.5 119t-31.5 193.5t31.5 194t88.5 120.5t133 40.5q83 0 142 -47q32 23 64 35.5t70 12.5q62 0 95.5 -35z M454 113q50 74 50 229t-50.5 229.5t-141.5 74.5q-90 0 -141 -75t-51 -230q0 -153 51.5 -227.5t140.5 -74.5q92 0 142 74z" />
<glyph unicode="&#x1a3;" horiz-adv-x="693" d="M565.5 498q33.5 -36 33.5 -103v-600l-56 8v593q0 91 -76 91q-37 0 -68 -14q60 -73 60 -210q0 -129 -54 -201.5t-148 -72.5t-147 71.5t-53 200.5t53.5 201t147.5 72q61 0 106 -30q51 30 108 30q60 0 93.5 -36zM362 92q37 56 37 171q0 113 -36 168t-105 55 q-68 0 -105 -55.5t-37 -169.5q0 -113 36.5 -169t104.5 -56t105 56z" />
<glyph unicode="&#x1a4;" horiz-adv-x="568" d="M532 480q0 -109 -64.5 -160.5t-181.5 -51.5h-73v-268h-58v637h-23q-66 0 -66 -63q0 -36 21 -76l-40 -21q-16 24 -24.5 46.5t-8.5 52.5q0 49 30.5 79t89.5 30h153q245 0 245 -205zM424.5 353q46.5 37 46.5 126q0 84 -45 121t-138 37h-75v-321h73q92 0 138.5 37z" />
<glyph unicode="&#x1a5;" horiz-adv-x="522" d="M419.5 465q43.5 -69 43.5 -201q0 -130 -47 -202.5t-133 -72.5q-42 0 -76 19.5t-57 51.5v-257l-56 -8v817q0 61 35.5 96t97.5 35q58 0 111 -28l-20 -41q-47 22 -87 22q-81 0 -81 -85v-160q55 83 142 83q84 0 127.5 -69zM403 264q0 114 -30.5 168.5t-90.5 54.5 q-41 0 -73 -24t-59 -65v-283q50 -78 124 -78q129 0 129 227z" />
<glyph unicode="&#x1a6;" horiz-adv-x="533" d="M438 -126l-160 309l-16 -1h-106v-182h-58v685h58v-126h84q118 0 175 -48t57 -138q0 -71 -35.5 -116.5t-102.5 -63.5l170 -319h-66zM369.5 264q40.5 35 40.5 109q0 70 -39.5 104t-132.5 34l-82 -1v-281h91q82 0 122.5 35z" />
<glyph unicode="&#x1a7;" horiz-adv-x="478" d="M380.5 651q47.5 -45 47.5 -117q0 -73 -40.5 -114.5t-135.5 -75.5q-56 -20 -87 -42t-44 -50.5t-13 -71.5q0 -66 38.5 -103.5t99.5 -37.5q51 0 90 18t76 52l33 -34q-84 -86 -200 -86q-57 0 -102.5 24t-70.5 67.5t-25 99.5q0 83 43.5 128t135.5 79q56 20 86 39t43 44t13 64 q0 53 -31 82.5t-86 29.5q-45 0 -80 -14t-72 -47l-32 35q43 39 85.5 57.5t100.5 18.5q80 0 127.5 -45z" />
<glyph unicode="&#x1a8;" horiz-adv-x="411" d="M323.5 497q42.5 -37 42.5 -96q0 -55 -32.5 -87.5t-108.5 -56.5q-50 -16 -76 -32t-36.5 -36.5t-10.5 -53.5q0 -47 30 -73t78 -26q39 0 71.5 14t64.5 40l30 -34q-72 -67 -169 -67q-70 0 -116.5 39.5t-46.5 107.5q0 64 35.5 99t115.5 60q65 20 89.5 43t24.5 65 q0 39 -27 61.5t-72 22.5q-36 0 -65 -11t-62 -34l-27 34q36 29 74 43.5t82 14.5q69 0 111.5 -37z" />
<glyph unicode="&#x1a9;" horiz-adv-x="445" d="M405 685v-50h-296l192 -279v-33l-193 -273h297v-50h-365v42l208 297l-208 304v42h365z" />
<glyph unicode="&#x1aa;" horiz-adv-x="262" d="M320 -171q-42 -34 -95 -34q-51 0 -82.5 31.5t-31.5 91.5v83h1v512q-26 -12 -54 -12q-47 0 -76 31t-29 88t30 90t78 33q50 0 78.5 -31t28.5 -87v-625h-1v-84q0 -74 61 -74q21 0 36 5.5t31 16.5zM112 558v70q0 69 -51 69q-26 0 -39.5 -19t-13.5 -56q0 -40 14.5 -57.5 t42.5 -17.5q25 0 47 11z" />
<glyph unicode="&#x1ab;" horiz-adv-x="310" d="M312 22v-104q0 -60 -31 -91.5t-83 -31.5q-54 0 -94 34l24 36q17 -11 32 -17t35 -6q63 0 63 74v83q-25 -10 -51 -10q-52 0 -82 33t-30 93v362h-79v46h79v125l56 7v-132h121l-7 -46h-114v-361q0 -80 67 -80q36 0 75 17z" />
<glyph unicode="&#x1ac;" horiz-adv-x="473" d="M458 634h-179v-634h-58v634h-90q-32 0 -48 -16.5t-16 -44.5q0 -21 5 -37.5t16 -36.5l-42 -22q-15 23 -23.5 45.5t-8.5 51.5q0 51 32 81t92 30h327z" />
<glyph unicode="&#x1ad;" horiz-adv-x="310" d="M289 60l23 -38q-46 -33 -100 -33q-55 0 -86 33t-31 93v362h-79v46h79v91q0 61 32 95t88 34q51 0 97 -33l-23 -37q-18 12 -34.5 17.5t-36.5 5.5q-32 0 -49.5 -20t-17.5 -59v-94h121l-7 -46h-114v-360q0 -80 68 -80q34 0 70 23z" />
<glyph unicode="&#x1ae;" horiz-adv-x="447" d="M268 -139.5q16 -17.5 43 -17.5q21 0 36 6t31 17l25 -37q-42 -34 -95 -34q-51 0 -82.5 32t-31.5 92v82h1v633h-182v51h425l-6 -51h-180v-717q0 -39 16 -56.5z" />
<glyph unicode="&#x1af;" horiz-adv-x="594" d="M496 594v-400q0 -91 -52.5 -148t-151.5 -57q-100 0 -152 57t-52 148v491h58v-486q0 -76 36 -117.5t110 -41.5q75 0 110.5 42t35.5 117v486h58v-56q25 5 36 18.5t11 38.5q0 21 -3.5 37t-9.5 35l42 12q17 -38 17 -83q0 -87 -93 -93z" />
<glyph unicode="&#x1b0;" horiz-adv-x="538" d="M428 429v-429h-48l-4 90q-55 -101 -152 -101q-63 0 -99 40t-36 111v383h56v-378q0 -109 90 -109q44 0 77 28t60 79v380h56v-57q25 4 36 17.5t11 38.5q0 21 -3.5 37t-9.5 35l43 11q17 -40 17 -82q0 -86 -94 -94z" />
<glyph unicode="&#x1b1;" horiz-adv-x="622" d="M177 26.5q-57 37.5 -88 110.5t-31 176q0 122 33.5 196.5t89.5 125.5h-103v50h168v-49q-61 -48 -94 -124t-33 -199q0 -137 51 -205.5t141 -68.5q89 0 140.5 69t51.5 206q0 121 -33.5 197t-93.5 125v49h169v-50h-104q57 -48 90 -122.5t33 -198.5q0 -102 -31.5 -175.5 t-88.5 -111.5t-133 -38q-77 0 -134 37.5z" />
<glyph unicode="&#x1b2;" horiz-adv-x="585" d="M472.5 670q23.5 -26 23.5 -76v-317q0 -90 -28.5 -155t-79 -99t-116.5 -34q-84 0 -134 52t-50 136v508h58v-505q0 -67 33.5 -103.5t92.5 -36.5q76 0 121 62t45 178v314q0 28 -9.5 41t-30.5 13q-20 0 -36 -8l-16 40q28 16 60 16q43 0 66.5 -26z" />
<glyph unicode="&#x1b3;" horiz-adv-x="495" d="M208 267l-197 418h63l164 -366l117 289q19 46 44 67t63 21q26 0 46 -10t39 -27l-24 -33q-15 12 -27.5 18t-29.5 6q-22 0 -35 -13t-29 -48l-136 -321v-268h-58v267z" />
<glyph unicode="&#x1b4;" horiz-adv-x="428" d="M49 -160q47 13 74 32.5t43.5 48.5t32.5 79h-21l-162 523h58l142 -482l117 445q12 45 32.5 65t55.5 20q28 0 54 -14l-15 -39q-17 7 -32 7q-17 0 -26.5 -10t-16.5 -34l-134 -482q-25 -90 -68.5 -137t-126.5 -66z" />
<glyph unicode="&#x1b5;" horiz-adv-x="464" d="M423 685v-48l-151 -269h96v-47h-123l-152 -270h325l-7 -51h-380v48l154 273h-91v47h117l151 267h-298v50h359z" />
<glyph unicode="&#x1b6;" horiz-adv-x="381" d="M351 523v-44l-117 -190h82v-46h-110l-120 -194h264l-6 -49h-320v43l123 200h-81v46h110l114 185h-244v49h305z" />
<glyph unicode="&#x1b7;" horiz-adv-x="444" d="M351 335.5q52 -49.5 52 -146.5q0 -89 -54.5 -144.5t-148.5 -55.5q-61 0 -106.5 21.5t-80.5 64.5l35 31q32 -36 67 -51.5t83 -15.5q71 0 108 40.5t37 110.5q0 79 -38.5 114.5t-115.5 35.5h-75v44l201 252h-281v49h347v-47l-206 -253h21q103 0 155 -49.5z" />
<glyph unicode="&#x1b8;" horiz-adv-x="444" d="M431 75q-37 -44 -82.5 -65t-108.5 -21q-92 0 -145.5 53.5t-53.5 142.5q0 96 53 148t155 52h20l-206 253v47h347v-49h-280l200 -252v-44h-74q-155 0 -155 -155q0 -69 36 -107.5t104 -38.5q50 0 85 15.5t70 51.5z" />
<glyph unicode="&#x1b9;" horiz-adv-x="416" d="M408 -119q-36 -43 -79.5 -64.5t-102.5 -21.5q-90 0 -143.5 55t-53.5 145q0 96 54 150.5t159 54.5h7l-198 279v44h335v-48h-271l192 -276v-44h-59q-82 0 -121 -39.5t-39 -119.5q0 -73 36 -113t103 -40q46 0 80 16t67 52z" />
<glyph unicode="&#x1ba;" horiz-adv-x="412" d="M55.5 -150.5q-26.5 29.5 -26.5 69.5q0 47 37.5 73t116.5 37q78 12 110.5 35.5t32.5 77.5q0 83 -98 83h-126v45l188 205h-263v48h331v-44l-195 -209h67q74 0 114.5 -33.5t40.5 -95.5q-1 -71 -45 -106t-132 -50q-69 -11 -95.5 -25t-26.5 -45q0 -24 16 -42.5t52 -39.5 l-19 -39q-53 26 -79.5 55.5z" />
<glyph unicode="&#x1bb;" horiz-adv-x="428" d="M268 263q-44 -61 -172 -213h284l-8 -50h-339v47q127 151 174 216h-135v47h168q37 57 52 100.5t15 92.5q0 59 -30 92t-82 33q-41 0 -72.5 -18.5t-60.5 -56.5l-38 28q35 48 77.5 71.5t95.5 23.5q77 0 122 -47.5t45 -123.5q0 -51 -15 -96t-49 -99h84v-47h-116z" />
<glyph unicode="&#x1bc;" horiz-adv-x="450" d="M375 638h-251v-240q51 33 109 33q78 0 124.5 -55.5t46.5 -156.5q0 -104 -54 -167t-145 -63q-54 0 -96.5 20.5t-78.5 60.5l35 32q30 -33 63 -49t77 -16q66 0 103.5 48t37.5 135q0 85 -34 125t-93 40q-31 0 -54.5 -7.5t-50.5 -24.5h-43v332h313z" />
<glyph unicode="&#x1bd;" horiz-adv-x="393" d="M319 475h-196v-164q37 25 87 25q62 0 101 -44.5t39 -122.5q0 -83 -46 -131.5t-124 -48.5q-46 0 -80.5 16.5t-66.5 48.5l34 34q29 -26 53.5 -37.5t59.5 -11.5q52 0 81.5 33.5t29.5 97.5q0 61 -25.5 89.5t-68.5 28.5q-25 0 -44.5 -6t-44.5 -19h-40v260h261z" />
<glyph unicode="&#x1be;" horiz-adv-x="449" d="M346.5 353q45.5 -48 45.5 -145q0 -99 -52 -157t-142 -58q-52 0 -92.5 20t-80.5 61l32 32q33 -33 65.5 -49t74.5 -16q66 0 101 43.5t35 124.5q0 78 -34.5 116t-93.5 55l-60 16v162h-62v45h62v133l56 7v-140h105v-45h-105v-131l29 -7q71 -19 116.5 -67z" />
<glyph unicode="&#x1bf;" horiz-adv-x="520" d="M420 487q43 -47 43 -129q0 -76 -29.5 -134t-84 -104.5t-139.5 -96.5l-60 -34v-186l-56 -8v728h49l4 -75q34 42 72.5 64t88.5 22q69 0 112 -47zM354.5 198.5q48.5 65.5 48.5 158.5q0 63 -27.5 96t-76.5 33q-43 0 -79.5 -22.5t-69.5 -64.5v-361l49 30q107 65 155.5 130.5z " />
<glyph unicode="&#x1c0;" horiz-adv-x="249" d="M151 743v-743h-53v736z" />
<glyph unicode="&#x1c1;" horiz-adv-x="396" d="M151 743v-743h-53v736zM298 743v-743h-53v736z" />
<glyph unicode="&#x1c2;" horiz-adv-x="284" d="M262 420h-93v-108h93v-41h-93v-271h-53v271h-94v41h94v108h-94v41h94v275l53 7v-282h93v-41z" />
<glyph unicode="&#x1c3;" horiz-adv-x="288" d="M170 743v-543h-52v536zM177 67.5q13 -13.5 13 -32.5t-13 -32.5t-33 -13.5t-33 13.5t-13 32.5t13 32.5t33 13.5t33 -13.5z" />
<glyph unicode="&#x1c4;" horiz-adv-x="1010" d="M432.5 613q79.5 -72 79.5 -265q0 -194 -80.5 -271t-198.5 -77h-135v685h125q130 0 209.5 -72zM156 636v-588h80q95 0 155 65t60 235q0 119 -31 182.5t-78.5 84.5t-110.5 21h-75zM969 685v-48l-329 -586h324l-7 -51h-380v48l330 587h-297v50h359zM893 886l23 -27 l-116 -103h-35l-117 103l24 27l111 -81z" />
<glyph unicode="&#x1c5;" horiz-adv-x="942" d="M432.5 613q79.5 -72 79.5 -265q0 -194 -80.5 -271t-198.5 -77h-135v685h125q130 0 209.5 -72zM156 636v-588h80q95 0 155 65t60 235q0 119 -31 182.5t-78.5 84.5t-110.5 21h-75zM912 523v-44l-264 -430h263l-6 -49h-320v43l265 431h-243v49h305zM866 767l24 -27 l-116 -107h-35l-117 107l25 27l110 -85z" />
<glyph unicode="&#x1c6;" horiz-adv-x="907" d="M432 736v-736h-49l-5 78q-23 -41 -57.5 -65t-82.5 -24q-84 0 -131.5 71.5t-47.5 198.5q0 82 23 144.5t65 96.5t98 34q80 0 131 -70v279zM320 60q31 24 56 72v275q-50 80 -122 80q-63 0 -99.5 -58.5t-35.5 -168.5q0 -111 33.5 -167.5t93.5 -56.5q43 0 74 24zM877 523v-44 l-264 -430h263l-6 -49h-320v43l265 431h-243v49h305zM831 767l24 -27l-116 -107h-35l-117 107l25 27l110 -85z" />
<glyph unicode="&#x1c7;" horiz-adv-x="674" d="M156 685v-633h257l-8 -52h-307v685h58zM581 91q0 -59 -14.5 -97t-45 -63.5t-83.5 -48.5l-15 42q42 21 63 42t29 50t8 78v591h58v-594z" />
<glyph unicode="&#x1c8;" horiz-adv-x="658" d="M156 685v-633h257l-8 -52h-307v685h58zM564 4q0 -61 -14 -98.5t-40.5 -61t-74.5 -47.5l-18 40q35 19 53.5 37.5t28 48.5t9.5 80v520h56v-519zM564.5 740q11.5 -12 11.5 -29q0 -18 -11.5 -29.5t-29.5 -11.5t-29.5 11.5t-11.5 29.5q0 17 11.5 29t29.5 12t29.5 -12z" />
<glyph unicode="&#x1c9;" horiz-adv-x="501" d="M112 13q-23 24 -23 69v654l56 7v-660q0 -46 38 -46q16 0 32 7l14 -41q-24 -14 -55 -14q-39 0 -62 24zM407 4q0 -61 -14 -98.5t-40.5 -61t-74.5 -47.5l-18 40q35 19 53.5 37.5t28 48.5t9.5 80v520h56v-519zM408.5 740q11.5 -12 11.5 -29q0 -18 -11.5 -29.5t-29.5 -11.5 t-29.5 11.5t-11.5 29.5q0 17 11.5 29t29.5 12t29.5 -12z" />
<glyph unicode="&#x1ca;" horiz-adv-x="867" d="M507 0h-76l-286 620q8 -92 8 -233v-387h-55v685h76l286 -621q-8 120 -8 202v419h55v-685zM774 91q0 -59 -14.5 -97t-45 -63.5t-83.5 -48.5l-15 42q42 21 63 42t29 50t8 78v591h58v-594z" />
<glyph unicode="&#x1cb;" horiz-adv-x="849" d="M507 0h-76l-286 620q8 -92 8 -233v-387h-55v685h76l286 -621q-8 120 -8 202v419h55v-685zM755 4q0 -61 -14 -98.5t-40.5 -61t-74.5 -47.5l-18 40q35 19 53.5 37.5t28 48.5t9.5 80v520h56v-519zM755.5 740q11.5 -12 11.5 -29q0 -18 -11.5 -29.5t-29.5 -11.5t-29.5 11.5 t-11.5 29.5q0 17 11.5 29t29.5 12t29.5 -12z" />
<glyph unicode="&#x1cc;" horiz-adv-x="770" d="M402.5 493q34.5 -41 34.5 -114v-379h-56v371q0 60 -21.5 88.5t-64.5 28.5t-78 -29t-67 -82v-377h-56v523h48l6 -91q62 102 157 102q63 0 97.5 -41zM676 4q0 -61 -14 -98.5t-40.5 -61t-74.5 -47.5l-18 40q35 19 53.5 37.5t28 48.5t9.5 80v520h56v-519zM677.5 740 q11.5 -12 11.5 -29q0 -18 -11.5 -29.5t-29.5 -11.5t-29.5 11.5t-11.5 29.5q0 17 11.5 29t29.5 12t29.5 -12z" />
<glyph unicode="&#x1cd;" d="M439 0l-54 188h-257l-54 -188h-57l205 685h72l205 -685h-60zM142 237h229l-114 400zM369 886l23 -27l-116 -103h-35l-117 103l24 27l111 -81z" />
<glyph unicode="&#x1ce;" horiz-adv-x="484" d="M400 54q9 -17 30 -26l-13 -39q-33 8 -51 27.5t-24 57.5q-51 -85 -145 -85q-68 0 -107.5 42.5t-39.5 113.5q0 82 53 125.5t149 43.5h83v56q0 60 -25 88.5t-80 28.5q-57 0 -130 -30l-16 42q83 35 152 35q79 0 117 -41t38 -119v-267q0 -36 9 -53zM335 130v143h-76 q-150 0 -150 -126q0 -55 25.5 -84t71.5 -29q85 0 129 96zM343 767l24 -27l-116 -107h-35l-117 107l25 27l110 -85z" />
<glyph unicode="&#x1cf;" horiz-adv-x="255" d="M156 685v-685h-58v685h58zM237 886l23 -27l-116 -103h-35l-117 103l24 27l111 -81z" />
<glyph unicode="&#x1d0;" horiz-adv-x="244" d="M150 523v-523h-56v523h56zM231 767l24 -27l-116 -107h-35l-117 107l25 27l110 -85z" />
<glyph unicode="&#x1d1;" horiz-adv-x="624" d="M496.5 606q67.5 -90 67.5 -264q0 -171 -67.5 -262t-184.5 -91q-76 0 -133 39.5t-88.5 119t-31.5 193.5t31.5 194t88.5 120.5t133 40.5q117 0 184.5 -90zM171 571q-51 -75 -51 -230q0 -153 51.5 -227.5t140.5 -74.5q92 0 142 74t50 229t-50.5 229.5t-141.5 74.5 q-90 0 -141 -75zM422 886l23 -27l-116 -103h-35l-117 103l24 27l111 -81z" />
<glyph unicode="&#x1d2;" d="M406 464q53 -70 53 -201q0 -129 -54 -201.5t-148 -72.5t-147 71.5t-53 200.5t53.5 201t147.5 72q95 0 148 -70zM153 430.5q-37 -55.5 -37 -169.5q0 -113 36.5 -169t104.5 -56t105 56t37 171q0 113 -36 168t-105 55q-68 0 -105 -55.5zM367 767l24 -27l-116 -107h-35 l-117 107l25 27l110 -85z" />
<glyph unicode="&#x1d3;" horiz-adv-x="585" d="M496 194q0 -91 -52.5 -148t-151.5 -57q-100 0 -152 57t-52 148v491h58v-486q0 -76 36 -117.5t110 -41.5q75 0 110.5 42t35.5 117v486h58v-491zM402 886l23 -27l-116 -103h-35l-117 103l24 27l111 -81z" />
<glyph unicode="&#x1d4;" horiz-adv-x="522" d="M428 0h-48l-4 90q-55 -101 -152 -101q-63 0 -99 40t-36 111v383h56v-378q0 -109 90 -109q44 0 77 28t60 79v380h56v-523zM368 767l24 -27l-116 -107h-35l-117 107l25 27l110 -85z" />
<glyph unicode="&#x1d5;" horiz-adv-x="585" d="M496 194q0 -91 -52.5 -148t-151.5 -57q-100 0 -152 57t-52 148v491h58v-486q0 -76 36 -117.5t110 -41.5q75 0 110.5 42t35.5 117v486h58v-491zM233.5 809q10.5 -11 10.5 -27q0 -17 -10.5 -28t-27.5 -11q-16 0 -27 11t-11 28q0 16 11 27t27 11q17 0 27.5 -11zM405 809 q11 -11 11 -27q0 -17 -11 -28t-27 -11q-17 0 -28 11t-11 28q0 16 11 27t28 11q16 0 27 -11zM403 878h-219v44h219v-44z" />
<glyph unicode="&#x1d6;" horiz-adv-x="522" d="M428 0h-48l-4 90q-55 -101 -152 -101q-63 0 -99 40t-36 111v383h56v-378q0 -109 90 -109q44 0 77 28t60 79v380h56v-523zM200.5 699q10.5 -11 10.5 -27q0 -17 -10.5 -28t-27.5 -11q-16 0 -27 11t-11 28q0 16 11 27t27 11q17 0 27.5 -11zM372 699q11 -11 11 -27 q0 -17 -11 -28t-27 -11q-17 0 -28 11t-11 28q0 16 11 27t28 11q16 0 27 -11zM369 773h-219v44h219v-44z" />
<glyph unicode="&#x1d7;" horiz-adv-x="585" d="M496 194q0 -91 -52.5 -148t-151.5 -57q-100 0 -152 57t-52 148v491h58v-486q0 -76 36 -117.5t110 -41.5q75 0 110.5 42t35.5 117v486h58v-491zM365 968l39 -33l-112 -122l-26 23zM233.5 810q10.5 -11 10.5 -28q0 -16 -10.5 -27t-27.5 -11q-16 0 -27 11t-11 27q0 17 11 28 t27 11q17 0 27.5 -11zM405 810q11 -11 11 -28q0 -16 -11 -27t-27 -11q-17 0 -28 11t-11 27q0 17 11 28t28 11q16 0 27 -11z" />
<glyph unicode="&#x1d8;" horiz-adv-x="522" d="M428 0h-48l-4 90q-55 -101 -152 -101q-63 0 -99 40t-36 111v383h56v-378q0 -109 90 -109q44 0 77 28t60 79v380h56v-523zM332 858l39 -33l-112 -122l-26 23zM200.5 699q10.5 -11 10.5 -27q0 -17 -10.5 -28t-27.5 -11q-16 0 -27 11t-11 28q0 16 11 27t27 11q17 0 27.5 -11 zM372 699q11 -11 11 -27q0 -17 -11 -28t-27 -11q-17 0 -28 11t-11 28q0 16 11 27t28 11q16 0 27 -11z" />
<glyph unicode="&#x1d9;" horiz-adv-x="585" d="M496 194q0 -91 -52.5 -148t-151.5 -57q-100 0 -152 57t-52 148v491h58v-486q0 -76 36 -117.5t110 -41.5q75 0 110.5 42t35.5 117v486h58v-491zM400 957l23 -27l-116 -103h-35l-117 103l24 27l111 -81zM233.5 810q10.5 -11 10.5 -28q0 -16 -10.5 -27t-27.5 -11 q-16 0 -27 11t-11 27q0 17 11 28t27 11q17 0 27.5 -11zM405 810q11 -11 11 -28q0 -16 -11 -27t-27 -11t-27 11t-11 27q0 17 11 28t27 11t27 -11z" />
<glyph unicode="&#x1da;" horiz-adv-x="522" d="M428 0h-48l-4 90q-55 -101 -152 -101q-63 0 -99 40t-36 111v383h56v-378q0 -109 90 -109q44 0 77 28t60 79v380h56v-523zM368 847l23 -27l-116 -103h-35l-117 103l24 27l111 -81zM199.5 699q10.5 -11 10.5 -27q0 -17 -10.5 -28t-27.5 -11q-16 0 -27 11t-11 28q0 16 11 27 t27 11q17 0 27.5 -11zM371 699q11 -11 11 -27q0 -17 -11 -28t-27 -11t-27 11t-11 28q0 16 11 27t27 11t27 -11z" />
<glyph unicode="&#x1db;" horiz-adv-x="585" d="M496 194q0 -91 -52.5 -148t-151.5 -57q-100 0 -152 57t-52 148v491h58v-486q0 -76 36 -117.5t110 -41.5q75 0 110.5 42t35.5 117v486h58v-491zM226 968l99 -132l-26 -23l-112 122zM233.5 810q10.5 -11 10.5 -28q0 -16 -10.5 -27t-27.5 -11q-16 0 -27 11t-11 27 q0 17 11 28t27 11q17 0 27.5 -11zM405 810q11 -11 11 -28q0 -16 -11 -27t-27 -11q-17 0 -28 11t-11 27q0 17 11 28t28 11q16 0 27 -11z" />
<glyph unicode="&#x1dc;" horiz-adv-x="522" d="M428 0h-48l-4 90q-55 -101 -152 -101q-63 0 -99 40t-36 111v383h56v-378q0 -109 90 -109q44 0 77 28t60 79v380h56v-523zM190 858l99 -132l-26 -23l-112 122zM200.5 699q10.5 -11 10.5 -27q0 -17 -10.5 -28t-27.5 -11q-16 0 -27 11t-11 28q0 16 11 27t27 11 q17 0 27.5 -11zM372 699q11 -11 11 -27q0 -17 -11 -28t-27 -11q-17 0 -28 11t-11 28q0 16 11 27t28 11q16 0 27 -11z" />
<glyph unicode="&#x1dd;" horiz-adv-x="489" d="M383.5 466.5q48.5 -67.5 48.5 -202.5q0 -138 -51 -206.5t-142 -68.5q-88 0 -137.5 66.5t-49.5 190.5q0 16 2 38h320q-6 202 -134 202q-36 0 -66.5 -11.5t-62.5 -37.5l-27 37q69 60 157 60q94 0 142.5 -67.5zM338.5 83q34.5 47 35.5 157h-266v-6q0 -99 34 -148.5t97 -49.5 q65 0 99.5 47z" />
<glyph unicode="&#x1de;" d="M439 0l-54 188h-257l-54 -188h-57l205 685h72l205 -685h-60zM142 237h229l-114 400zM200.5 809q10.5 -11 10.5 -27q0 -17 -10.5 -28t-27.5 -11q-16 0 -27 11t-11 28q0 16 11 27t27 11q17 0 27.5 -11zM372 809q11 -11 11 -27q0 -17 -11 -28t-27 -11q-17 0 -28 11t-11 28 q0 16 11 27t28 11q16 0 27 -11zM370 878h-219v44h219v-44z" />
<glyph unicode="&#x1df;" horiz-adv-x="484" d="M400 54q9 -17 30 -26l-13 -39q-33 8 -51 27.5t-24 57.5q-51 -85 -145 -85q-68 0 -107.5 42.5t-39.5 113.5q0 82 53 125.5t149 43.5h83v56q0 60 -25 88.5t-80 28.5q-57 0 -130 -30l-16 42q83 35 152 35q79 0 117 -41t38 -119v-267q0 -36 9 -53zM335 130v143h-76 q-150 0 -150 -126q0 -55 25.5 -84t71.5 -29q85 0 129 96zM175.5 699q10.5 -11 10.5 -27q0 -17 -10.5 -28t-27.5 -11q-16 0 -27 11t-11 28q0 16 11 27t27 11q17 0 27.5 -11zM347 699q11 -11 11 -27q0 -17 -11 -28t-27 -11q-17 0 -28 11t-11 28q0 16 11 27t28 11q16 0 27 -11z M344 773h-219v44h219v-44z" />
<glyph unicode="&#x1e0;" d="M439 0l-54 188h-257l-54 -188h-57l205 685h72l205 -685h-60zM142 237h229l-114 400zM289.5 813q11.5 -12 11.5 -29q0 -18 -11.5 -29.5t-29.5 -11.5t-29.5 11.5t-11.5 29.5q0 17 11.5 29t29.5 12t29.5 -12zM370 878h-219v44h219v-44z" />
<glyph unicode="&#x1e1;" horiz-adv-x="484" d="M400 54q9 -17 30 -26l-13 -39q-33 8 -51 27.5t-24 57.5q-51 -85 -145 -85q-68 0 -107.5 42.5t-39.5 113.5q0 82 53 125.5t149 43.5h83v56q0 60 -25 88.5t-80 28.5q-57 0 -130 -30l-16 42q83 35 152 35q79 0 117 -41t38 -119v-267q0 -36 9 -53zM335 130v143h-76 q-150 0 -150 -126q0 -55 25.5 -84t71.5 -29q85 0 129 96zM263.5 690q11.5 -12 11.5 -29q0 -18 -11.5 -29.5t-29.5 -11.5t-29.5 11.5t-11.5 29.5q0 17 11.5 29t29.5 12t29.5 -12zM344 758h-219v44h219v-44z" />
<glyph unicode="&#x1e2;" horiz-adv-x="707" d="M461 49h206v-49h-252l-41 185h-254l-63 -185h-58l241 685h384l-7 -49h-289l58 -257h231v-48h-220zM136 233h228l-90 406zM522 803h-219v44h219v-44z" />
<glyph unicode="&#x1e3;" horiz-adv-x="763" d="M709 239h-314q5 -103 44 -152.5t102 -49.5q36 0 65 12t60 38l27 -34q-35 -32 -72.5 -48t-83.5 -16q-57 0 -100 27.5t-69 78.5q-36 -57 -76 -81.5t-93 -24.5q-69 0 -109 42.5t-40 113.5q0 82 53.5 125.5t148.5 43.5h84v51q0 63 -25 92t-83 29q-53 0 -127 -29l-15 42 q84 35 150 35q60 0 94.5 -25.5t48.5 -74.5q52 100 152 100q88 0 134 -66t46 -187q0 -22 -2 -42zM656 299q0 91 -31.5 139.5t-94.5 48.5q-59 0 -95.5 -50.5t-40.5 -153.5h262v16zM284.5 59.5q33.5 25.5 66.5 81.5q-15 50 -15 115v17h-78q-72 0 -110 -31.5t-38 -94.5 q0 -54 26 -83.5t72 -29.5q43 0 76.5 25.5zM493 677h-219v44h219v-44z" />
<glyph unicode="&#x1e4;" horiz-adv-x="571" d="M565 193h-66v-148q-86 -56 -184 -56q-120 0 -188 89.5t-68 266.5q0 115 36 194t95 118t127 39q54 0 93.5 -16.5t78.5 -51.5l-34 -36q-33 29 -64 41.5t-72 12.5q-53 0 -98 -30t-73 -97.5t-28 -173.5q0 -157 51 -231.5t144 -74.5q70 0 128 35v119h-118v48h118v79h-119 l-7 49h182v-128h66v-48z" />
<glyph unicode="&#x1e5;" horiz-adv-x="455" d="M481 -79h-51q-8 -59 -60 -92.5t-144 -33.5q-105 0 -151 36.5t-46 113.5h51q1 -56 33 -79.5t114 -23.5q136 0 151 79h-137v44h137q-8 32 -36.5 49t-76.5 17h-62q-63 0 -94.5 25t-31.5 65q0 51 53 88q-41 23 -60.5 59.5t-19.5 88.5q0 80 48 128.5t127 48.5q85 -1 124.5 6.5 t80.5 25.5l17 -53q-23 -8 -53.5 -11t-76.5 -4q81 -42 81 -143q0 -79 -46 -125.5t-126 -46.5q-33 0 -61 11q-36 -25 -36 -61q0 -56 78 -56h68q66 0 107 -30.5t49 -81.5h50v-44zM138 259.5q32 -35.5 86 -35.5q57 0 87 33.5t30 98.5q0 63 -29.5 98.5t-86.5 35.5q-59 0 -89 -35 t-30 -98q0 -62 32 -97.5z" />
<glyph unicode="&#x1e6;" horiz-adv-x="559" d="M410 679.5q39 -16.5 79 -51.5l-34 -35q-33 28 -64 40.5t-72 12.5q-53 0 -98 -29.5t-73 -97t-28 -174.5q0 -306 196 -306q69 0 127 35v246h-119l-7 49h182v-324q-86 -56 -183 -56q-121 0 -189 89t-68 267q0 116 36 195t95 117.5t129 38.5q52 0 91 -16.5zM427 886l23 -27 l-116 -103h-35l-117 103l24 27l111 -81z" />
<glyph unicode="&#x1e7;" horiz-adv-x="455" d="M447 513q-23 -8 -53.5 -11t-76.5 -4q81 -42 81 -143q0 -79 -46 -125.5t-126 -46.5q-33 0 -61 11q-36 -25 -36 -61q0 -56 78 -56h68q73 0 115 -36.5t42 -95.5q0 -70 -52 -110t-154 -40q-105 0 -151 36.5t-46 113.5h51q1 -56 33 -79.5t114 -23.5q149 0 149 100 q0 42 -28.5 65t-82.5 23h-62q-62 0 -94 25t-32 66q0 51 53 88q-41 23 -60.5 59.5t-19.5 88.5q0 80 48 128.5t127 48.5q85 -1 124.5 6.5t80.5 25.5zM136 455q-30 -35 -30 -98q0 -62 32 -97.5t86 -35.5q57 0 87 33.5t30 98.5q0 63 -29.5 98.5t-86.5 35.5q-59 0 -89 -35z M337 767l24 -27l-116 -107h-35l-117 107l25 27l110 -85z" />
<glyph unicode="&#x1e8;" horiz-adv-x="500" d="M156 685v-685h-58v685h58zM481 685l-255 -315l271 -370h-69l-268 367l256 318h65zM387 886l23 -27l-116 -103h-35l-117 103l24 27l111 -81z" />
<glyph unicode="&#x1e9;" horiz-adv-x="442" d="M150 743v-743h-56v736zM415 523l-197 -234l218 -289h-65l-215 286l197 237h62zM354 937l23 -27l-116 -103h-35l-117 103l24 27l111 -81z" />
<glyph unicode="&#x1ea;" horiz-adv-x="624" d="M517.5 114q-46.5 -87 -130.5 -114q-60 -30 -84.5 -56.5t-24.5 -62.5q0 -52 56 -52q24 0 52 7l-5 -46q-32 -7 -53 -7q-48 0 -74.5 25t-26.5 66q0 35 19 63t57 52q-112 4 -178 94.5t-66 257.5q0 114 31.5 194t88.5 120.5t133 40.5q117 0 184.5 -90t67.5 -264 q0 -141 -46.5 -228zM454 113q50 74 50 229t-50.5 229.5t-141.5 74.5q-90 0 -141 -75t-51 -230q0 -153 51.5 -227.5t140.5 -74.5q92 0 142 74z" />
<glyph unicode="&#x1eb;" d="M238.5 -56.5q-24.5 -26.5 -24.5 -62.5q0 -52 56 -52q24 0 52 7l-5 -46q-31 -7 -53 -7q-48 0 -74.5 25t-26.5 66q0 69 77 116q-86 6 -134.5 77t-48.5 194q0 129 53.5 201t147.5 72q95 0 148 -70t53 -201q0 -105 -36 -173t-101 -91q-59 -29 -83.5 -55.5zM152.5 92 q36.5 -56 104.5 -56t105 56t37 171q0 113 -36 168t-105 55q-68 0 -105 -55.5t-37 -169.5q0 -113 36.5 -169z" />
<glyph unicode="&#x1ec;" horiz-adv-x="624" d="M422 847v-44h-219v44h219zM517.5 114q-46.5 -87 -130.5 -114q-60 -30 -84.5 -56.5t-24.5 -62.5q0 -52 56 -52q24 0 52 7l-5 -46q-32 -7 -53 -7q-48 0 -74.5 25t-26.5 66q0 35 19 63t57 52q-112 4 -178 94.5t-66 257.5q0 114 31.5 194t88.5 120.5t133 40.5 q117 0 184.5 -90t67.5 -264q0 -141 -46.5 -228zM454 113q50 74 50 229t-50.5 229.5t-141.5 74.5q-90 0 -141 -75t-51 -230q0 -153 51.5 -227.5t140.5 -74.5q92 0 142 74z" />
<glyph unicode="&#x1ed;" d="M368 721v-44h-219v44h219zM238.5 -56.5q-24.5 -26.5 -24.5 -62.5q0 -52 56 -52q24 0 52 7l-5 -46q-31 -7 -53 -7q-48 0 -74.5 25t-26.5 66q0 69 77 116q-86 6 -134.5 77t-48.5 194q0 129 53.5 201t147.5 72q95 0 148 -70t53 -201q0 -105 -36 -173t-101 -91 q-59 -29 -83.5 -55.5zM152.5 92q36.5 -56 104.5 -56t105 56t37 171q0 113 -36 168t-105 55q-68 0 -105 -55.5t-37 -169.5q0 -113 36.5 -169z" />
<glyph unicode="&#x1ee;" horiz-adv-x="444" d="M351 335.5q52 -49.5 52 -146.5q0 -89 -54.5 -144.5t-148.5 -55.5q-61 0 -106.5 21.5t-80.5 64.5l35 31q32 -36 67 -51.5t83 -15.5q71 0 108 40.5t37 110.5q0 79 -38.5 114.5t-115.5 35.5h-75v44l201 252h-281v49h347v-47l-206 -253h21q103 0 155 -49.5zM318 886l23 -27 l-116 -103h-35l-117 103l24 27l111 -81z" />
<glyph unicode="&#x1ef;" horiz-adv-x="416" d="M334.5 150q52.5 -50 52.5 -146q0 -93 -54 -151t-146 -58q-57 0 -100 21.5t-78 64.5l34 30q32 -36 66 -52t77 -16q69 0 105.5 43t36.5 119q0 80 -38 115t-122 35h-58v44l192 276h-272v48h335v-44l-198 -279h8q107 0 159.5 -50zM306 767l24 -27l-116 -107h-35l-117 107 l25 27l110 -85z" />
<glyph unicode="&#x1f0;" horiz-adv-x="244" d="M150 4q0 -61 -14 -98.5t-40.5 -61t-74.5 -47.5l-18 40q35 19 53.5 37.5t28 48.5t9.5 80v520h56v-519zM231 767l24 -27l-116 -107h-35l-117 107l25 27l110 -85z" />
<glyph unicode="&#x1f1;" horiz-adv-x="1010" d="M432.5 613q79.5 -72 79.5 -265q0 -194 -80.5 -271t-198.5 -77h-135v685h125q130 0 209.5 -72zM156 636v-588h80q95 0 155 65t60 235q0 119 -31 182.5t-78.5 84.5t-110.5 21h-75zM969 685v-48l-329 -586h324l-7 -51h-380v48l330 587h-297v50h359z" />
<glyph unicode="&#x1f2;" horiz-adv-x="942" d="M432.5 613q79.5 -72 79.5 -265q0 -194 -80.5 -271t-198.5 -77h-135v685h125q130 0 209.5 -72zM156 636v-588h80q95 0 155 65t60 235q0 119 -31 182.5t-78.5 84.5t-110.5 21h-75zM912 523v-44l-264 -430h263l-6 -49h-320v43l265 431h-243v49h305z" />
<glyph unicode="&#x1f3;" horiz-adv-x="907" d="M432 736v-736h-49l-5 78q-23 -41 -57.5 -65t-82.5 -24q-84 0 -131.5 71.5t-47.5 198.5q0 82 23 144.5t65 96.5t98 34q80 0 131 -70v279zM320 60q31 24 56 72v275q-50 80 -122 80q-63 0 -99.5 -58.5t-35.5 -168.5q0 -111 33.5 -167.5t93.5 -56.5q43 0 74 24zM877 523v-44 l-264 -430h263l-6 -49h-320v43l265 431h-243v49h305z" />
<glyph unicode="&#x1f4;" horiz-adv-x="559" d="M410 679.5q39 -16.5 79 -51.5l-34 -35q-33 28 -64 40.5t-72 12.5q-53 0 -98 -29.5t-73 -97t-28 -174.5q0 -306 196 -306q69 0 127 35v246h-119l-7 49h182v-324q-86 -56 -183 -56q-121 0 -189 89t-68 267q0 116 36 195t95 117.5t129 38.5q52 0 91 -16.5zM389 885l25 -50 l-179 -77l-16 33z" />
<glyph unicode="&#x1f5;" horiz-adv-x="455" d="M447 513q-23 -8 -53.5 -11t-76.5 -4q81 -42 81 -143q0 -79 -46 -125.5t-126 -46.5q-33 0 -61 11q-36 -25 -36 -61q0 -56 78 -56h68q73 0 115 -36.5t42 -95.5q0 -70 -52 -110t-154 -40q-105 0 -151 36.5t-46 113.5h51q1 -56 33 -79.5t114 -23.5q149 0 149 100 q0 42 -28.5 65t-82.5 23h-62q-62 0 -94 25t-32 66q0 51 53 88q-41 23 -60.5 59.5t-19.5 88.5q0 80 48 128.5t127 48.5q85 -1 124.5 6.5t80.5 25.5zM136 455q-30 -35 -30 -98q0 -62 32 -97.5t86 -35.5q57 0 87 33.5t30 98.5q0 63 -29.5 98.5t-86.5 35.5q-59 0 -89 -35z M294 779l26 -49l-177 -84l-18 31z" />
<glyph unicode="&#x1f6;" horiz-adv-x="869" d="M796 259q0 -92 -26.5 -152.5t-70.5 -89t-98 -28.5q-67 0 -110.5 42t-43.5 117v188h-291v-336h-58v685h58v-300h291v300h58v-533q0 -58 26.5 -87t71.5 -29q58 0 97 52.5t39 172.5q0 126 -24 262h57q24 -150 24 -264z" />
<glyph unicode="&#x1f7;" horiz-adv-x="512" d="M428.5 647q46.5 -49 46.5 -133q0 -71 -30 -120.5t-79.5 -82.5t-121.5 -63l-88 -36v-212h-58v685h58v-54q69 65 152 65q74 0 120.5 -49zM369 382.5q45 49.5 45 131.5q0 64 -30.5 98t-84.5 34q-81 0 -143 -64v-320l86 36q82 35 127 84.5z" />
<glyph unicode="&#x1f8;" horiz-adv-x="605" d="M507 0h-76l-286 620q8 -92 8 -233v-387h-55v685h76l286 -621q-8 120 -8 202v419h55v-685zM236 885l169 -95l-16 -32l-179 77z" />
<glyph unicode="&#x1f9;" horiz-adv-x="526" d="M402.5 493q34.5 -41 34.5 -114v-379h-56v371q0 60 -21.5 88.5t-64.5 28.5t-78 -29t-67 -82v-377h-56v523h48l6 -91q62 102 157 102q63 0 97.5 -41zM201 779l169 -102l-19 -31l-177 84z" />
<glyph unicode="&#x1fa;" d="M439 0l-54 188h-257l-54 -188h-57l205 685h72l205 -685h-60zM142 237h229l-114 400zM327 888.5q25 -25.5 25 -67.5q0 -43 -25 -68.5t-66 -25.5q-40 0 -65 25.5t-25 68.5q0 42 25 67.5t65 25.5q41 0 66 -25.5zM212 821q0 -60 49 -60q24 0 37 15t13 45q0 59 -50 59 q-49 0 -49 -59zM334 1053l25 -50l-179 -77l-16 33z" />
<glyph unicode="&#x1fb;" horiz-adv-x="484" d="M332 859l-179 -77l-16 33l170 94zM169 748.5q25 25.5 65 25.5q41 0 66 -25.5t25 -67.5q0 -43 -25 -68.5t-66 -25.5q-40 0 -65 25.5t-25 68.5q0 42 25 67.5zM234 740q-49 0 -49 -59q0 -60 49 -60q24 0 37 15t13 45q0 59 -50 59zM400 54q9 -17 30 -26l-13 -39 q-33 8 -51 27.5t-24 57.5q-51 -85 -145 -85q-68 0 -107.5 42.5t-39.5 113.5q0 82 53 125.5t149 43.5h83v56q0 60 -25 88.5t-80 28.5q-57 0 -130 -30l-16 42q83 35 152 35q79 0 117 -41t38 -119v-267q0 -36 9 -53zM335 130v143h-76q-150 0 -150 -126q0 -55 25.5 -84t71.5 -29 q85 0 129 96z" />
<glyph unicode="&#x1fc;" horiz-adv-x="707" d="M461 49h206v-49h-252l-41 185h-254l-63 -185h-58l241 685h384l-7 -49h-289l58 -257h231v-48h-220zM136 233h228l-90 406zM484 885l25 -50l-179 -77l-16 33z" />
<glyph unicode="&#x1fd;" horiz-adv-x="763" d="M709 239h-314q5 -103 44 -152.5t102 -49.5q36 0 65 12t60 38l27 -34q-35 -32 -72.5 -48t-83.5 -16q-57 0 -100 27.5t-69 78.5q-36 -57 -76 -81.5t-93 -24.5q-69 0 -109 42.5t-40 113.5q0 82 53.5 125.5t148.5 43.5h84v51q0 63 -25 92t-83 29q-53 0 -127 -29l-15 42 q84 35 150 35q60 0 94.5 -25.5t48.5 -74.5q52 100 152 100q88 0 134 -66t46 -187q0 -22 -2 -42zM656 299q0 91 -31.5 139.5t-94.5 48.5q-59 0 -95.5 -50.5t-40.5 -153.5h262v16zM284.5 59.5q33.5 25.5 66.5 81.5q-15 50 -15 115v17h-78q-72 0 -110 -31.5t-38 -94.5 q0 -54 26 -83.5t72 -29.5q43 0 76.5 25.5zM449 779l26 -49l-177 -84l-18 31z" />
<glyph unicode="&#x1fe;" horiz-adv-x="624" d="M527.5 550.5q36.5 -82.5 36.5 -208.5q0 -170 -67.5 -261.5t-184.5 -91.5q-37 0 -69 9l-31 -117l-50 13l35 123q-65 37 -101.5 119t-36.5 205q0 114 31.5 194t88.5 120.5t133 40.5q35 0 67 -9l32 123l50 -14l-36 -127q66 -36 102.5 -118.5zM218 65l152 573q-29 8 -58 8 q-91 0 -142 -75t-51 -230q0 -213 99 -276zM453.5 113q49.5 74 50.5 229q0 218 -99 280l-151 -574q27 -9 58 -9q92 0 141.5 74zM378 897l25 -50l-179 -77l-16 33z" />
<glyph unicode="&#x1ff;" d="M432.5 417q26.5 -62 26.5 -154q0 -129 -54 -201.5t-148 -72.5q-30 0 -54 7l-37 -121l-46 13l40 126q-50 30 -76.5 93.5t-26.5 153.5q0 129 53.5 201t147.5 72q32 0 57 -7l35 121l46 -13l-39 -126q49 -30 75.5 -92zM180 60l123 421q-21 6 -45 6q-68 0 -105 -56t-37 -170 q0 -153 64 -201zM363 92q37 56 37 171q0 152 -63 200l-123 -421q20 -6 43 -6q69 0 106 56zM324 779l26 -49l-177 -84l-18 31z" />
<glyph unicode="&#x200;" d="M439 0l-54 188h-257l-54 -188h-57l205 685h72l205 -685h-60zM142 237h229l-114 400zM150 935l71 -151l-34 -15l-85 141zM268 935l64 -146l-35 -16l-77 137z" />
<glyph unicode="&#x201;" horiz-adv-x="484" d="M400 54q9 -17 30 -26l-13 -39q-33 8 -51 27.5t-24 57.5q-51 -85 -145 -85q-68 0 -107.5 42.5t-39.5 113.5q0 82 53 125.5t149 43.5h83v56q0 60 -25 88.5t-80 28.5q-57 0 -130 -30l-16 42q83 35 152 35q79 0 117 -41t38 -119v-267q0 -36 9 -53zM335 130v143h-76 q-150 0 -150 -126q0 -55 25.5 -84t71.5 -29q85 0 129 96zM133 809l71 -151l-34 -15l-85 141zM251 809l64 -146l-35 -16l-77 137z" />
<glyph unicode="&#x202;" d="M439 0l-54 188h-257l-54 -188h-57l205 685h72l205 -685h-60zM142 237h229l-114 400zM338.5 874.5q32.5 -29.5 38.5 -80.5l-37 -8q-18 72 -82 72q-63 0 -81 -72l-37 8q6 51 38 80.5t80 29.5t80.5 -29.5z" />
<glyph unicode="&#x203;" horiz-adv-x="484" d="M400 54q9 -17 30 -26l-13 -39q-33 8 -51 27.5t-24 57.5q-51 -85 -145 -85q-68 0 -107.5 42.5t-39.5 113.5q0 82 53 125.5t149 43.5h83v56q0 60 -25 88.5t-80 28.5q-57 0 -130 -30l-16 42q83 35 152 35q79 0 117 -41t38 -119v-267q0 -36 9 -53zM335 130v143h-76 q-150 0 -150 -126q0 -55 25.5 -84t71.5 -29q85 0 129 96zM313.5 712.5q32.5 -29.5 38.5 -80.5l-37 -8q-18 72 -82 72q-63 0 -81 -72l-37 8q6 51 38 80.5t80 29.5t80.5 -29.5z" />
<glyph unicode="&#x204;" horiz-adv-x="461" d="M414 685l-7 -49h-251v-257h218v-48h-218v-282h264v-49h-322v685h316zM151 935l71 -151l-34 -15l-85 141zM269 935l64 -146l-35 -16l-77 137z" />
<glyph unicode="&#x205;" horiz-adv-x="484" d="M430 239h-315q4 -105 43 -153.5t103 -48.5q37 0 65.5 12t59.5 38l28 -35q-35 -31 -72.5 -47t-82.5 -16q-94 0 -148 70t-54 198q0 130 51.5 203.5t140.5 73.5t136 -66t47 -187q0 -22 -2 -42zM377 299q0 91 -32 139.5t-96 48.5q-58 0 -94 -49t-40 -155h262v16zM149 809 l71 -151l-34 -15l-85 141zM267 809l64 -146l-35 -16l-77 137z" />
<glyph unicode="&#x206;" horiz-adv-x="461" d="M414 685l-7 -49h-251v-257h218v-48h-218v-282h264v-49h-322v685h316zM339.5 874.5q32.5 -29.5 38.5 -80.5l-37 -8q-18 72 -82 72q-63 0 -81 -72l-37 8q6 51 38 80.5t80 29.5t80.5 -29.5z" />
<glyph unicode="&#x207;" horiz-adv-x="484" d="M430 239h-315q4 -105 43 -153.5t103 -48.5q37 0 65.5 12t59.5 38l28 -35q-35 -31 -72.5 -47t-82.5 -16q-94 0 -148 70t-54 198q0 130 51.5 203.5t140.5 73.5t136 -66t47 -187q0 -22 -2 -42zM377 299q0 91 -32 139.5t-96 48.5q-58 0 -94 -49t-40 -155h262v16zM329.5 712.5 q32.5 -29.5 38.5 -80.5l-37 -8q-18 72 -82 72q-63 0 -81 -72l-37 8q6 51 38 80.5t80 29.5t80.5 -29.5z" />
<glyph unicode="&#x208;" horiz-adv-x="255" d="M156 685v-685h-58v685h58zM18 935l71 -151l-34 -15l-85 141zM136 935l64 -146l-35 -16l-77 137z" />
<glyph unicode="&#x209;" horiz-adv-x="244" d="M150 523v-523h-56v523h56zM21 809l71 -151l-34 -15l-85 141zM139 809l64 -146l-35 -16l-77 137z" />
<glyph unicode="&#x20a;" horiz-adv-x="255" d="M156 685v-685h-58v685h58zM206.5 874.5q32.5 -29.5 38.5 -80.5l-37 -8q-18 72 -82 72q-63 0 -81 -72l-37 8q6 51 38 80.5t80 29.5t80.5 -29.5z" />
<glyph unicode="&#x20b;" horiz-adv-x="244" d="M150 523v-523h-56v523h56zM201.5 712.5q32.5 -29.5 38.5 -80.5l-37 -8q-18 72 -82 72q-63 0 -81 -72l-37 8q6 51 38 80.5t80 29.5t80.5 -29.5z" />
<glyph unicode="&#x20c;" horiz-adv-x="624" d="M496.5 606q67.5 -90 67.5 -264q0 -171 -67.5 -262t-184.5 -91q-76 0 -133 39.5t-88.5 119t-31.5 193.5t31.5 194t88.5 120.5t133 40.5q117 0 184.5 -90zM171 571q-51 -75 -51 -230q0 -153 51.5 -227.5t140.5 -74.5q92 0 142 74t50 229t-50.5 229.5t-141.5 74.5 q-90 0 -141 -75zM203 935l71 -151l-34 -15l-85 141zM321 935l64 -146l-35 -16l-77 137z" />
<glyph unicode="&#x20d;" d="M406 464q53 -70 53 -201q0 -129 -54 -201.5t-148 -72.5t-147 71.5t-53 200.5t53.5 201t147.5 72q95 0 148 -70zM153 430.5q-37 -55.5 -37 -169.5q0 -113 36.5 -169t104.5 -56t105 56t37 171q0 113 -36 168t-105 55q-68 0 -105 -55.5zM157 809l71 -151l-34 -15l-85 141z M275 809l64 -146l-35 -16l-77 137z" />
<glyph unicode="&#x20e;" horiz-adv-x="624" d="M496.5 606q67.5 -90 67.5 -264q0 -171 -67.5 -262t-184.5 -91q-76 0 -133 39.5t-88.5 119t-31.5 193.5t31.5 194t88.5 120.5t133 40.5q117 0 184.5 -90zM171 571q-51 -75 -51 -230q0 -153 51.5 -227.5t140.5 -74.5q92 0 142 74t50 229t-50.5 229.5t-141.5 74.5 q-90 0 -141 -75zM391.5 874.5q32.5 -29.5 38.5 -80.5l-37 -8q-18 72 -82 72q-63 0 -81 -72l-37 8q6 51 38 80.5t80 29.5t80.5 -29.5z" />
<glyph unicode="&#x20f;" d="M406 464q53 -70 53 -201q0 -129 -54 -201.5t-148 -72.5t-147 71.5t-53 200.5t53.5 201t147.5 72q95 0 148 -70zM153 430.5q-37 -55.5 -37 -169.5q0 -113 36.5 -169t104.5 -56t105 56t37 171q0 113 -36 168t-105 55q-68 0 -105 -55.5zM337.5 712.5q32.5 -29.5 38.5 -80.5 l-37 -8q-18 72 -82 72q-63 0 -81 -72l-37 8q6 51 38 80.5t80 29.5t80.5 -29.5z" />
<glyph unicode="&#x210;" horiz-adv-x="532" d="M437 0l-159 309l-16 -1h-106v-308h-58v685h141q232 0 232 -186q0 -70 -35.5 -115.5t-101.5 -63.5l169 -320h-66zM369 391q41 35 41 108q0 70 -40 104t-133 34h-81v-281h90q82 0 123 35zM154 935l71 -151l-34 -15l-85 141zM272 935l64 -146l-35 -16l-77 137z" />
<glyph unicode="&#x211;" horiz-adv-x="338" d="M327 528l-11 -53q-18 6 -40 6q-48 0 -77.5 -38.5t-48.5 -119.5v-323h-56v523h48l4 -112q20 62 53 92.5t82 30.5q22 0 46 -6zM109 809l71 -151l-34 -15l-85 141zM227 809l64 -146l-35 -16l-77 137z" />
<glyph unicode="&#x212;" horiz-adv-x="532" d="M437 0l-159 309l-16 -1h-106v-308h-58v685h141q232 0 232 -186q0 -70 -35.5 -115.5t-101.5 -63.5l169 -320h-66zM369 391q41 35 41 108q0 70 -40 104t-133 34h-81v-281h90q82 0 123 35zM342.5 874.5q32.5 -29.5 38.5 -80.5l-37 -8q-18 72 -82 72q-63 0 -81 -72l-37 8 q6 51 38 80.5t80 29.5t80.5 -29.5z" />
<glyph unicode="&#x213;" horiz-adv-x="338" d="M327 528l-11 -53q-18 6 -40 6q-48 0 -77.5 -38.5t-48.5 -119.5v-323h-56v523h48l4 -112q20 62 53 92.5t82 30.5q22 0 46 -6zM289.5 712.5q32.5 -29.5 38.5 -80.5l-37 -8q-18 72 -82 72q-63 0 -81 -72l-37 8q6 51 38 80.5t80 29.5t80.5 -29.5z" />
<glyph unicode="&#x214;" horiz-adv-x="585" d="M496 194q0 -91 -52.5 -148t-151.5 -57q-100 0 -152 57t-52 148v491h58v-486q0 -76 36 -117.5t110 -41.5q75 0 110.5 42t35.5 117v486h58v-491zM183 935l71 -151l-34 -15l-85 141zM301 935l64 -146l-35 -16l-77 137z" />
<glyph unicode="&#x215;" horiz-adv-x="522" d="M428 0h-48l-4 90q-55 -101 -152 -101q-63 0 -99 40t-36 111v383h56v-378q0 -109 90 -109q44 0 77 28t60 79v380h56v-523zM158 809l71 -151l-34 -15l-85 141zM276 809l64 -146l-35 -16l-77 137z" />
<glyph unicode="&#x216;" horiz-adv-x="585" d="M496 194q0 -91 -52.5 -148t-151.5 -57q-100 0 -152 57t-52 148v491h58v-486q0 -76 36 -117.5t110 -41.5q75 0 110.5 42t35.5 117v486h58v-491zM371.5 874.5q32.5 -29.5 38.5 -80.5l-37 -8q-18 72 -82 72q-63 0 -81 -72l-37 8q6 51 38 80.5t80 29.5t80.5 -29.5z" />
<glyph unicode="&#x217;" horiz-adv-x="522" d="M428 0h-48l-4 90q-55 -101 -152 -101q-63 0 -99 40t-36 111v383h56v-378q0 -109 90 -109q44 0 77 28t60 79v380h56v-523zM338.5 712.5q32.5 -29.5 38.5 -80.5l-37 -8q-18 72 -82 72q-63 0 -81 -72l-37 8q6 51 38 80.5t80 29.5t80.5 -29.5z" />
<glyph unicode="&#x218;" horiz-adv-x="486" d="M339.5 677q41.5 -19 80.5 -57l-33 -35q-35 32 -68.5 46.5t-75.5 14.5q-56 0 -91 -32t-35 -84t31 -82.5t112 -58.5q92 -32 135 -76t43 -126q0 -56 -25.5 -101.5t-72.5 -71t-108 -25.5q-116 0 -199 86l33 34q38 -35 76 -52.5t89 -17.5q66 0 107 39.5t41 106.5 q0 41 -13.5 68t-44.5 47.5t-87 40.5q-94 33 -135 75.5t-41 111.5q0 47 23.5 85.5t65.5 60.5t95 22q56 0 97.5 -19zM266.5 -97q11.5 -12 11.5 -30q0 -11 -4 -23.5t-16 -41.5l-37 -86h-33l30 114q-23 13 -23 37q0 18 11.5 30t30.5 12q18 0 29.5 -12z" />
<glyph unicode="&#x219;" horiz-adv-x="420" d="M293 519.5q36 -14.5 70 -43.5l-26 -36q-32 25 -60.5 36.5t-62.5 11.5q-47 0 -75.5 -24t-28.5 -66q0 -37 25 -58.5t90 -42.5q81 -26 116 -60.5t35 -96.5q0 -69 -49 -110t-123 -41q-53 0 -94 17.5t-76 49.5l31 34q32 -27 64.5 -40.5t74.5 -13.5q51 0 82.5 27t31.5 75 q0 32 -10.5 51.5t-37 34.5t-76.5 31q-76 24 -108.5 57t-32.5 85q0 39 21 70t57.5 49t80.5 18q45 0 81 -14.5zM240.5 -97q11.5 -12 11.5 -30q0 -11 -4 -23.5t-16 -41.5l-37 -86h-33l30 114q-23 13 -23 37q0 18 11.5 30t30.5 12q18 0 29.5 -12z" />
<glyph unicode="&#x21a;" horiz-adv-x="447" d="M438 685l-6 -51h-180v-634h-57v634h-182v51h425zM252.5 -97q11.5 -12 11.5 -30q0 -11 -4 -23.5t-16 -41.5l-37 -86h-33l30 114q-23 13 -23 37q0 18 11.5 30t30.5 12q18 0 29.5 -12z" />
<glyph unicode="&#x21b;" horiz-adv-x="310" d="M312 22q-46 -33 -100 -33q-55 0 -86 33t-31 93v362h-79v46h79v125l56 7v-132h121l-7 -46h-114v-360q0 -80 67 -80q34 0 71 22zM235.5 -97q11.5 -12 11.5 -30q0 -11 -4 -23.5t-16 -41.5l-37 -86h-33l30 114q-23 13 -23 37q0 18 11.5 30t30.5 12q18 0 29.5 -12z" />
<glyph unicode="&#x21c;" horiz-adv-x="451" d="M337.5 647q47.5 -49 47.5 -129q0 -67 -32.5 -106t-91.5 -52q65 -8 104.5 -48t39.5 -111q0 -106 -81 -177.5t-264 -112.5l-5 50q108 26 171.5 60t90.5 77.5t27 101.5q0 64 -39.5 98.5t-114.5 33.5h-55l7 49h46q63 0 100 35t37 100q0 60 -32 95t-91 35q-42 0 -78.5 -17.5 t-73.5 -50.5l-32 34q43 42 88 63t99 21q85 0 132.5 -49z" />
<glyph unicode="&#x21d;" horiz-adv-x="419" d="M294 496.5q44 -37.5 44 -104.5q0 -52 -24.5 -81t-71.5 -42q55 -2 87.5 -32t32.5 -85q0 -82 -76 -145t-224 -102l-8 43q130 41 189 89t59 114q0 91 -108 91h-77l4 45h50q50 0 79.5 26t29.5 76q0 48 -27.5 73t-75.5 25q-39 0 -67 -10t-61 -33l-29 34q36 28 75 42t86 14 q69 0 113 -37.5z" />
<glyph unicode="&#x21e;" horiz-adv-x="603" d="M447 0v336h-291v-336h-58v685h58v-300h291v300h58v-685h-58zM411 886l23 -27l-116 -103h-35l-117 103l24 27l111 -81z" />
<glyph unicode="&#x21f;" horiz-adv-x="526" d="M402.5 492.5q34.5 -41.5 34.5 -113.5v-379h-56v371q0 117 -87 117q-43 0 -77.5 -29t-66.5 -82v-377h-56v736l56 7v-308q31 47 68.5 73t86.5 26q63 0 97.5 -41.5zM375 937l23 -27l-116 -103h-35l-117 103l24 27l111 -81z" />
<glyph unicode="&#x220;" horiz-adv-x="595" d="M463 646.5q42 -49.5 42 -138.5v-705h-58v695q0 148 -113 148q-56 0 -97.5 -28.5t-80.5 -80.5v-537h-58v685h51l5 -92q81 103 189 103q78 0 120 -49.5z" />
<glyph unicode="&#x221;" horiz-adv-x="625" d="M623 174.5q25 -25.5 25 -66.5q0 -55 -37.5 -87t-97.5 -32q-42 0 -75 18l-32 -72l-37 17l37 81q-18 23 -25 51q-23 -44 -58.5 -69.5t-84.5 -25.5q-84 0 -131.5 71.5t-47.5 198.5q0 82 23 144.5t65 96.5t98 34q80 0 131 -70v279l56 -7v-615q0 -10 2 -28q23 53 52 80t71 27 q41 0 66 -25.5zM320 60q31 24 56 72v275q-50 80 -122 80q-63 0 -99.5 -58.5t-35.5 -168.5q0 -111 33.5 -167.5t93.5 -56.5q43 0 74 24zM576.5 56.5q22.5 18.5 22.5 51.5q0 23 -12 36t-34 13q-29 0 -48.5 -23t-46.5 -82q22 -14 57 -14q39 0 61.5 18.5z" />
<glyph unicode="&#x222;" horiz-adv-x="578" d="M486 316.5q33 -48.5 33 -117.5q0 -58 -26 -105.5t-78 -76t-126 -28.5q-73 0 -125 27.5t-78.5 75t-26.5 106.5q0 67 33.5 116t95.5 71q-87 39 -87 149v151h58v-149q0 -130 130 -130q72 0 102.5 36t30.5 94v149h58v-151q0 -49 -22.5 -88t-67.5 -60q63 -21 96 -69.5z M416.5 80.5q41.5 41.5 41.5 118.5q0 76 -41.5 117t-127.5 41q-84 0 -126.5 -42t-42.5 -117q0 -76 42.5 -117.5t126.5 -41.5q86 0 127.5 41.5z" />
<glyph unicode="&#x223;" horiz-adv-x="512" d="M425 337q30 -51 30 -129q0 -100 -52.5 -159.5t-146.5 -59.5q-93 0 -146 58.5t-53 159.5q0 75 30.5 127t87.5 74q-43 19 -63.5 55.5t-20.5 84.5v188h56v-189q0 -54 26 -86.5t83 -32.5q58 0 85 33t27 86v189h55v-188q0 -48 -21.5 -84t-64.5 -56q58 -20 88 -71zM360.5 78.5 q34.5 42.5 34.5 129.5t-34 131t-105 44q-70 0 -105 -45t-35 -131t36 -128.5t104 -42.5q70 0 104.5 42.5z" />
<glyph unicode="&#x224;" horiz-adv-x="464" d="M423 637l-329 -586h320v-132q0 -60 -31.5 -92t-82.5 -32q-54 0 -94 34l25 37q17 -11 32 -17t35 -6q60 0 60 74v83h-327v48l330 587h-297v50h359v-48z" />
<glyph unicode="&#x225;" horiz-adv-x="380" d="M351 479l-264 -430h260v-131q0 -60 -31.5 -91.5t-83.5 -31.5q-54 0 -94 34l25 36q16 -11 31 -17t36 -6q62 0 62 74v84h-268v43l265 431h-243v49h305v-44z" />
<glyph unicode="&#x226;" d="M439 0l-54 188h-257l-54 -188h-57l205 685h72l205 -685h-60zM142 237h229l-114 400zM288.5 866q11.5 -12 11.5 -29q0 -18 -11.5 -29.5t-29.5 -11.5t-29.5 11.5t-11.5 29.5q0 17 11.5 29t29.5 12t29.5 -12z" />
<glyph unicode="&#x227;" horiz-adv-x="484" d="M400 54q9 -17 30 -26l-13 -39q-33 8 -51 27.5t-24 57.5q-51 -85 -145 -85q-68 0 -107.5 42.5t-39.5 113.5q0 82 53 125.5t149 43.5h83v56q0 60 -25 88.5t-80 28.5q-57 0 -130 -30l-16 42q83 35 152 35q79 0 117 -41t38 -119v-267q0 -36 9 -53zM335 130v143h-76 q-150 0 -150 -126q0 -55 25.5 -84t71.5 -29q85 0 129 96zM263.5 740q11.5 -12 11.5 -29q0 -18 -11.5 -29.5t-29.5 -11.5t-29.5 11.5t-11.5 29.5q0 17 11.5 29t29.5 12t29.5 -12z" />
<glyph unicode="&#x228;" horiz-adv-x="461" d="M273 0v-65q42 -4 63 -24t21 -52q0 -40 -27.5 -62.5t-69.5 -22.5q-43 0 -73 21l19 33q26 -14 53 -14q22 0 35.5 11.5t13.5 33.5q0 23 -19.5 34t-61.5 11l9 96h-138v685h316l-7 -49h-251v-257h218v-48h-218v-282h264v-49h-147z" />
<glyph unicode="&#x229;" horiz-adv-x="484" d="M430 239h-315q4 -105 43 -153.5t103 -48.5q37 0 65.5 12t59.5 38l28 -35q-65 -57 -138 -62v-55q42 -4 63 -24t21 -52q0 -40 -27.5 -62.5t-69.5 -22.5q-43 0 -73 21l19 33q26 -14 53 -14q22 0 35.5 11.5t13.5 33.5q0 23 -19.5 34t-61.5 11l8 86q-85 8 -133 77t-48 190 q0 130 51.5 203.5t140.5 73.5t136 -66t47 -187q0 -22 -2 -42zM377 299q0 91 -32 139.5t-96 48.5q-58 0 -94 -49t-40 -155h262v16z" />
<glyph unicode="&#x22a;" horiz-adv-x="624" d="M496.5 606q67.5 -90 67.5 -264q0 -171 -67.5 -262t-184.5 -91q-76 0 -133 39.5t-88.5 119t-31.5 193.5t31.5 194t88.5 120.5t133 40.5q117 0 184.5 -90zM171 571q-51 -75 -51 -230q0 -153 51.5 -227.5t140.5 -74.5q92 0 142 74t50 229t-50.5 229.5t-141.5 74.5 q-90 0 -141 -75zM253.5 809q10.5 -11 10.5 -27q0 -17 -10.5 -28t-27.5 -11q-16 0 -27 11t-11 28q0 16 11 27t27 11q17 0 27.5 -11zM425 809q11 -11 11 -27q0 -17 -11 -28t-27 -11q-17 0 -28 11t-11 28q0 16 11 27t28 11q16 0 27 -11zM423 878h-219v44h219v-44z" />
<glyph unicode="&#x22b;" d="M406 464q53 -70 53 -201q0 -129 -54 -201.5t-148 -72.5t-147 71.5t-53 200.5t53.5 201t147.5 72q95 0 148 -70zM153 430.5q-37 -55.5 -37 -169.5q0 -113 36.5 -169t104.5 -56t105 56t37 171q0 113 -36 168t-105 55q-68 0 -105 -55.5zM199.5 699q10.5 -11 10.5 -27 q0 -17 -10.5 -28t-27.5 -11q-16 0 -27 11t-11 28q0 16 11 27t27 11q17 0 27.5 -11zM371 699q11 -11 11 -27q0 -17 -11 -28t-27 -11q-17 0 -28 11t-11 28q0 16 11 27t28 11q16 0 27 -11zM368 773h-219v44h219v-44z" />
<glyph unicode="&#x22c;" horiz-adv-x="624" d="M496.5 606q67.5 -90 67.5 -264q0 -171 -67.5 -262t-184.5 -91q-76 0 -133 39.5t-88.5 119t-31.5 193.5t31.5 194t88.5 120.5t133 40.5q117 0 184.5 -90zM171 571q-51 -75 -51 -230q0 -153 51.5 -227.5t140.5 -74.5q92 0 142 74t50 229t-50.5 229.5t-141.5 74.5 q-90 0 -141 -75zM335.5 764.5q-13.5 6.5 -33.5 18.5q-27 19 -42 19t-26.5 -9t-24.5 -30l-33 17q33 66 83 66q16 0 29.5 -6.5t29.5 -17.5q17 -11 26.5 -15.5t20.5 -4.5q14 0 25.5 10t25.5 33l33 -17q-31 -70 -83 -70q-17 0 -30.5 6.5zM419 894h-219v44h219v-44z" />
<glyph unicode="&#x22d;" d="M406 464q53 -70 53 -201q0 -129 -54 -201.5t-148 -72.5t-147 71.5t-53 200.5t53.5 201t147.5 72q95 0 148 -70zM153 430.5q-37 -55.5 -37 -169.5q0 -113 36.5 -169t104.5 -56t105 56t37 171q0 113 -36 168t-105 55q-68 0 -105 -55.5zM281.5 608.5q-13.5 6.5 -33.5 18.5 q-27 19 -42 19t-26.5 -9t-24.5 -30l-33 17q33 66 83 66q16 0 29.5 -6.5t29.5 -17.5q17 -11 26.5 -15.5t20.5 -4.5q14 0 25.5 10t25.5 33l33 -17q-31 -70 -83 -70q-17 0 -30.5 6.5zM368 738h-219v44h219v-44z" />
<glyph unicode="&#x22e;" horiz-adv-x="624" d="M496.5 606q67.5 -90 67.5 -264q0 -171 -67.5 -262t-184.5 -91q-76 0 -133 39.5t-88.5 119t-31.5 193.5t31.5 194t88.5 120.5t133 40.5q117 0 184.5 -90zM171 571q-51 -75 -51 -230q0 -153 51.5 -227.5t140.5 -74.5q92 0 142 74t50 229t-50.5 229.5t-141.5 74.5 q-90 0 -141 -75zM341.5 866q11.5 -12 11.5 -29q0 -18 -11.5 -29.5t-29.5 -11.5t-29.5 11.5t-11.5 29.5q0 17 11.5 29t29.5 12t29.5 -12z" />
<glyph unicode="&#x22f;" d="M406 464q53 -70 53 -201q0 -129 -54 -201.5t-148 -72.5t-147 71.5t-53 200.5t53.5 201t147.5 72q95 0 148 -70zM153 430.5q-37 -55.5 -37 -169.5q0 -113 36.5 -169t104.5 -56t105 56t37 171q0 113 -36 168t-105 55q-68 0 -105 -55.5zM287.5 740q11.5 -12 11.5 -29 q0 -18 -11.5 -29.5t-29.5 -11.5t-29.5 11.5t-11.5 29.5q0 17 11.5 29t29.5 12t29.5 -12z" />
<glyph unicode="&#x230;" horiz-adv-x="624" d="M496.5 606q67.5 -90 67.5 -264q0 -171 -67.5 -262t-184.5 -91q-76 0 -133 39.5t-88.5 119t-31.5 193.5t31.5 194t88.5 120.5t133 40.5q117 0 184.5 -90zM171 571q-51 -75 -51 -230q0 -153 51.5 -227.5t140.5 -74.5q92 0 142 74t50 229t-50.5 229.5t-141.5 74.5 q-90 0 -141 -75zM342.5 813q11.5 -12 11.5 -29q0 -18 -11.5 -29.5t-29.5 -11.5t-29.5 11.5t-11.5 29.5q0 17 11.5 29t29.5 12t29.5 -12zM423 878h-219v44h219v-44z" />
<glyph unicode="&#x237;" horiz-adv-x="244" d="M150 4q0 -61 -14 -98.5t-40.5 -61t-74.5 -47.5l-18 40q35 19 53.5 37.5t28 48.5t9.5 80v520h56v-519z" />
<glyph unicode="&#x259;" horiz-adv-x="489" d="M383.5 466.5q48.5 -67.5 48.5 -202.5q0 -138 -51 -206.5t-142 -68.5q-88 0 -137.5 66.5t-49.5 190.5q0 16 2 38h320q-6 202 -134 202q-36 0 -66.5 -11.5t-62.5 -37.5l-27 37q69 60 157 60q94 0 142.5 -67.5zM338.5 83q34.5 47 35.5 157h-266v-6q0 -99 34 -148.5t97 -49.5 q65 0 99.5 47z" />
<glyph unicode="&#x278;" horiz-adv-x="564" d="M464 76q-54 -65 -154 -71v-202l-56 -8v210q-101 7 -154.5 72t-53.5 185q0 119 54.5 185t153.5 71v218l56 7v-225q101 -7 154.5 -71.5t53.5 -183.5q0 -122 -54 -187zM256 51v421q-76 -5 -114 -56.5t-38 -153.5q0 -202 152 -211zM422 107q38 51 38 156q0 200 -152 209v-421 q76 5 114 56z" />
<glyph unicode="&#x292;" horiz-adv-x="416" d="M334.5 150q52.5 -50 52.5 -146q0 -93 -54 -151t-146 -58q-57 0 -100 21.5t-78 64.5l34 30q32 -36 66 -52t77 -16q69 0 105.5 43t36.5 119q0 80 -38 115t-122 35h-58v44l192 276h-272v48h335v-44l-198 -279h8q107 0 159.5 -50z" />
<glyph unicode="&#x2b9;" horiz-adv-x="268" d="M66 434l76 251h59l-93 -251h-42z" />
<glyph unicode="&#x2c6;" horiz-adv-x="328" d="M58 645l-25 27l117 107h34l117 -107l-24 -27l-110 85z" />
<glyph unicode="&#x2c7;" horiz-adv-x="328" d="M277 767l24 -27l-116 -107h-35l-117 107l25 27l110 -85z" />
<glyph unicode="&#x2d8;" horiz-adv-x="297" d="M71 682.5q-32 29.5 -38 80.5l37 8q18 -72 81 -72q64 0 82 72l37 -8q-6 -51 -38.5 -80.5t-80.5 -29.5t-80 29.5z" />
<glyph unicode="&#x2d9;" horiz-adv-x="142" d="M103.5 740q11.5 -12 11.5 -29q0 -18 -11.5 -29.5t-29.5 -11.5t-29.5 11.5t-11.5 29.5q0 17 11.5 29t29.5 12t29.5 -12z" />
<glyph unicode="&#x2da;" horiz-adv-x="241" d="M189 794.5q25 -25.5 25 -67.5q0 -43 -25 -68.5t-66 -25.5q-40 0 -65 25.5t-25 68.5q0 42 25 67.5t65 25.5q41 0 66 -25.5zM74 727q0 -60 49 -60q24 0 37 15t13 45q0 59 -50 59q-49 0 -49 -59z" />
<glyph unicode="&#x2db;" horiz-adv-x="221" d="M223 0q-60 -30 -84.5 -56.5t-24.5 -62.5q0 -52 56 -52q24 0 52 7l-5 -46q-32 -7 -53 -7q-48 0 -74.5 25t-26.5 66q0 49 36 84.5t112 65.5z" />
<glyph unicode="&#x2dc;" horiz-adv-x="333" d="M189.5 674.5q-13.5 6.5 -33.5 18.5q-27 19 -42 19t-26.5 -9t-24.5 -30l-33 17q33 66 83 66q16 0 29.5 -6.5t29.5 -17.5q17 -11 26.5 -15.5t20.5 -4.5q14 0 25.5 10t25.5 33l33 -17q-31 -70 -83 -70q-17 0 -30.5 6.5z" />
<glyph unicode="&#x2dd;" horiz-adv-x="290" d="M96 809l48 -25l-77 -137l-35 16zM214 809l48 -25l-84 -141l-35 15z" />
<glyph unicode="&#x300;" horiz-adv-x="0" d="M-198 779l169 -102l-19 -31l-177 84z" />
<glyph unicode="&#x301;" horiz-adv-x="0" d="M-56 779l26 -49l-177 -84l-18 31z" />
<glyph unicode="&#x302;" horiz-adv-x="0" d="M-273 645l-25 27l117 107h34l117 -107l-24 -27l-110 85z" />
<glyph unicode="&#x303;" horiz-adv-x="0" d="M-143.5 674.5q-13.5 6.5 -33.5 18.5q-27 19 -42 19t-26.5 -9t-24.5 -30l-33 17q33 66 83 66q16 0 29.5 -6.5t29.5 -17.5q17 -11 26.5 -15.5t20.5 -4.5q14 0 25.5 10t25.5 33l33 -17q-31 -70 -83 -70q-17 0 -30.5 6.5z" />
<glyph unicode="&#x304;" horiz-adv-x="0" d="M-30 677h-219v44h219v-44z" />
<glyph unicode="&#x306;" horiz-adv-x="0" d="M-229 682.5q-32 29.5 -38 80.5l37 8q18 -72 81 -72q64 0 82 72l37 -8q-6 -51 -38.5 -80.5t-80.5 -29.5t-80 29.5z" />
<glyph unicode="&#x307;" horiz-adv-x="0" d="M-41.5 740q11.5 -12 11.5 -29q0 -18 -11.5 -29.5t-29.5 -11.5t-29.5 11.5t-11.5 29.5q0 17 11.5 29t29.5 12t29.5 -12z" />
<glyph unicode="&#x308;" horiz-adv-x="0" d="M-212.5 729q10.5 -11 10.5 -27q0 -17 -10.5 -28t-27.5 -11q-16 0 -27 11t-11 28q0 16 11 27t27 11q17 0 27.5 -11zM-41 729q11 -11 11 -27q0 -17 -11 -28t-27 -11q-17 0 -28 11t-11 28q0 16 11 27t28 11q16 0 27 -11z" />
<glyph unicode="&#x309;" horiz-adv-x="0" d="M-142 699q31 2 47 12.5t16 34.5q0 20 -11.5 30.5t-31.5 10.5q-26 0 -51 -13l-15 33q34 22 74 22q39 0 61.5 -21.5t22.5 -57.5q0 -34 -17.5 -53t-49.5 -24v-56h-45v82z" />
<glyph unicode="&#x30a;" horiz-adv-x="0" d="M-55 794.5q25 -25.5 25 -67.5q0 -43 -25 -68.5t-66 -25.5q-40 0 -65 25.5t-25 68.5q0 42 25 67.5t65 25.5q41 0 66 -25.5zM-170 727q0 -60 49 -60q24 0 37 15t13 45q0 59 -50 59q-49 0 -49 -59z" />
<glyph unicode="&#x30b;" horiz-adv-x="0" d="M-196 809l48 -25l-77 -137l-35 16zM-78 809l48 -25l-84 -141l-35 15z" />
<glyph unicode="&#x30c;" horiz-adv-x="0" d="M-54 767l24 -27l-116 -107h-35l-117 107l25 27l110 -85z" />
<glyph unicode="&#x30f;" horiz-adv-x="0" d="M-212 809l71 -151l-34 -15l-85 141zM-94 809l64 -146l-35 -16l-77 137z" />
<glyph unicode="&#x311;" horiz-adv-x="0" d="M-68.5 712.5q32.5 -29.5 38.5 -80.5l-37 -8q-18 72 -82 72q-63 0 -81 -72l-37 8q6 51 38 80.5t80 29.5t80.5 -29.5z" />
<glyph unicode="&#x312;" horiz-adv-x="0" d="M-108.5 601q-11.5 12 -11.5 30q0 11 4 23.5t16 41.5l37 86h33l-30 -114q23 -13 23 -37q0 -18 -11.5 -30t-30.5 -12q-18 0 -29.5 12z" />
<glyph unicode="&#x323;" horiz-adv-x="0" d="M-100.5 -157q-11.5 12 -11.5 29q0 18 11.5 29.5t29.5 11.5t29.5 -11.5t11.5 -29.5q0 -17 -11.5 -29t-29.5 -12t-29.5 12z" />
<glyph unicode="&#x326;" horiz-adv-x="0" d="M-41.5 -97q11.5 -12 11.5 -30q0 -11 -4 -23.5t-16 -41.5l-37 -86h-33l30 114q-23 13 -23 37q0 18 11.5 30t30.5 12q18 0 29.5 -12z" />
<glyph unicode="&#x327;" horiz-adv-x="0" d="M-114 -65q42 -4 63 -24t21 -52q0 -40 -27.5 -62.5t-69.5 -22.5q-43 0 -73 21l19 33q26 -14 53 -14q22 0 35.5 11.5t13.5 33.5q0 23 -19.5 34t-61.5 11l10 112h36v-81z" />
<glyph unicode="&#x328;" horiz-adv-x="0" d="M-31 0q-60 -30 -84.5 -56.5t-24.5 -62.5q0 -52 56 -52q24 0 52 7l-5 -46q-32 -7 -53 -7q-48 0 -74.5 25t-26.5 66q0 49 36 84.5t112 65.5z" />
<glyph unicode="&#x32d;" horiz-adv-x="0" d="M-273 -203l-25 26l117 107h34l117 -107l-24 -26l-110 84z" />
<glyph unicode="&#x331;" horiz-adv-x="0" d="M-30 -157h-219v44h219v-44z" />
<glyph unicode="&#x345;" horiz-adv-x="0" d="M-164.5 -149q-21.5 23 -21.5 60v44h49v-42q0 -42 37 -42q14 0 24 4t24 12l22 -30q-33 -29 -74 -29q-39 0 -60.5 23z" />
<glyph unicode="&#x370;" horiz-adv-x="466" d="M442 336h-286v-336h-58v685h58v-300h286v-49z" />
<glyph unicode="&#x371;" horiz-adv-x="421" d="M395 247h-242v-247h-56v355q0 53 -5.5 92t-15.5 77l51 7q12 -35 19 -76t7 -103v-55h242v-50z" />
<glyph unicode="&#x372;" horiz-adv-x="486" d="M13 685h460v-252h-51v201h-150v-634h-58v634h-150v-202h-51v253z" />
<glyph unicode="&#x373;" horiz-adv-x="427" d="M419 475l-178 -1v-671l-56 -8v679h-102q-26 0 -39.5 -1.5t-31.5 -7.5l-12 45q19 8 37 10.5t49 2.5h333v-48z" />
<glyph unicode="&#x374;" horiz-adv-x="268" d="M66 434l76 251h59l-93 -251h-42z" />
<glyph unicode="&#x375;" horiz-adv-x="268" d="M202 113l-76 -251h-59l93 251h42z" />
<glyph unicode="&#x376;" horiz-adv-x="605" d="M507 0h-58v366q0 130 8 254l-286 -620h-73v685h58v-367q0 -134 -8 -254l287 621h72v-685z" />
<glyph unicode="&#x377;" horiz-adv-x="534" d="M446.5 64.5q9.5 -17.5 32.5 -28.5l-17 -44q-44 14 -62.5 43.5t-18.5 83.5q0 72 4 176.5t7 162.5l-233 -458h-65v523h55v-311q0 -48 -5 -146l231 457h62v-406q0 -35 9.5 -52.5z" />
<glyph unicode="&#x37a;" horiz-adv-x="252" d="M51.5 -149q-21.5 23 -21.5 60v44h49v-42q0 -42 37 -42q14 0 24 4t24 12l22 -30q-33 -29 -74 -29q-39 0 -60.5 23z" />
<glyph unicode="&#x37b;" horiz-adv-x="453" d="M340.5 463.5q55.5 -70.5 55.5 -205.5q0 -130 -59 -199.5t-160 -69.5q-45 0 -81 14t-71 42l28 36q33 -23 59.5 -33t64.5 -10q73 0 116 53.5t43 167.5q0 227 -152 227q-38 0 -67.5 -10t-60.5 -32l-28 37q39 28 75.5 40.5t81.5 12.5q100 0 155.5 -70.5z" />
<glyph unicode="&#x37c;" horiz-adv-x="453" d="M355 521.5q34 -12.5 70 -40.5l-27 -36q-31 21 -57.5 31t-62.5 10q-74 0 -117.5 -56.5t-43.5 -170.5t43 -167.5t117 -53.5q37 0 64.5 10.5t59.5 32.5l27 -36q-35 -28 -71 -42t-82 -14q-100 0 -159 69t-59 200q0 87 27 149t76.5 94.5t115.5 32.5q45 0 79 -12.5zM314.5 290 q11.5 -12 11.5 -29q0 -18 -11.5 -29.5t-29.5 -11.5t-29.5 11.5t-11.5 29.5q0 17 11.5 29t29.5 12t29.5 -12z" />
<glyph unicode="&#x37d;" horiz-adv-x="453" d="M340.5 463.5q55.5 -70.5 55.5 -205.5q0 -130 -59 -199.5t-160 -69.5q-45 0 -81 14t-71 42l28 36q33 -23 59.5 -33t64.5 -10q73 0 116 53.5t43 167.5q0 227 -152 227q-38 0 -67.5 -10t-60.5 -32l-28 37q39 28 75.5 40.5t81.5 12.5q100 0 155.5 -70.5zM197.5 290 q11.5 -12 11.5 -29q0 -18 -11.5 -29.5t-29.5 -11.5t-29.5 11.5t-11.5 29.5q0 17 11.5 29t29.5 12t29.5 -12z" />
<glyph unicode="&#x37e;" horiz-adv-x="197" d="M131.5 68q12.5 -13 12.5 -33q0 -11 -4 -25t-10 -29l-51 -131h-39l37 145q-23 14 -23 40q0 20 13 33t32 13q20 0 32.5 -13zM130 458.5q13 -13.5 13 -32.5t-13 -32.5t-33 -13.5t-32.5 13.5t-12.5 32.5t12.5 32.5t32.5 13.5t33 -13.5z" />
<glyph unicode="&#x384;" horiz-adv-x="122" d="M31 768l61 -4l-22 -165h-40z" />
<glyph unicode="&#x385;" horiz-adv-x="309" d="M139 864l53 -3l-19 -143h-34v146zM95.5 699q10.5 -11 10.5 -27q0 -17 -10.5 -28t-27.5 -11q-16 0 -27 11t-11 28q0 16 11 27t27 11q17 0 27.5 -11zM268 699q11 -11 11 -27q0 -17 -11 -28t-28 -11q-16 0 -27 11t-11 28q0 16 11 27t27 11q17 0 28 -11z" />
<glyph unicode="&#x386;" horiz-adv-x="525" d="M448 0l-54 188h-257l-54 -188h-57l205 685h72l205 -685h-60zM151 237h229l-114 400zM81 689l62 -4l-22 -170h-41z" />
<glyph unicode="&#x388;" horiz-adv-x="514" d="M467 685l-7 -49h-251v-257h218v-48h-218v-282h264v-49h-322v685h316zM49 689l62 -4l-22 -170h-41z" />
<glyph unicode="&#x389;" horiz-adv-x="656" d="M500 0v336h-291v-336h-58v685h58v-300h291v300h58v-685h-58zM49 689l62 -4l-22 -170h-41z" />
<glyph unicode="&#x38a;" horiz-adv-x="307" d="M209 685v-685h-58v685h58zM49 689l62 -4l-22 -170h-41z" />
<glyph unicode="&#x38c;" horiz-adv-x="659" d="M531.5 606q67.5 -90 67.5 -264q0 -171 -67.5 -262t-184.5 -91q-76 0 -133 39.5t-88.5 119t-31.5 193.5t31.5 194t88.5 120.5t133 40.5q117 0 184.5 -90zM206 571q-51 -75 -51 -230q0 -153 51.5 -227.5t140.5 -74.5q92 0 142 74t50 229t-50.5 229.5t-141.5 74.5 q-90 0 -141 -75zM45 689l62 -4l-22 -170h-41z" />
<glyph unicode="&#x38e;" horiz-adv-x="597" d="M586 685l-196 -417v-268h-58v267l-197 418h63l165 -365l162 365h61zM47 689l62 -4l-22 -170h-41z" />
<glyph unicode="&#x38f;" horiz-adv-x="654" d="M528.5 606.5q67.5 -89.5 67.5 -260.5q0 -118 -31.5 -187.5t-100.5 -107.5h112v-51h-181v50q71 30 105.5 101t34.5 195q0 153 -50.5 226.5t-141.5 73.5q-90 0 -141 -74.5t-51 -226.5q0 -123 34.5 -192.5t104.5 -102.5v-50h-180v51h109q-67 39 -98 108.5t-31 185.5 q0 112 31.5 191t88.5 119.5t133 40.5q118 0 185.5 -89.5zM45 689l62 -4l-22 -170h-41z" />
<glyph unicode="&#x390;" horiz-adv-x="243" d="M145 117q0 -35 9.5 -52.5t32.5 -28.5l-17 -44q-44 14 -62.5 41.5t-18.5 79.5v410h56v-406zM102 864l53 -3l-19 -143h-34v146zM58.5 699q10.5 -11 10.5 -27q0 -17 -10.5 -28t-27.5 -11q-16 0 -27 11t-11 28q0 16 11 27t27 11q17 0 27.5 -11zM231 699q11 -11 11 -27 q0 -17 -11 -28t-28 -11q-16 0 -27 11t-11 28q0 16 11 27t27 11q17 0 28 -11z" />
<glyph unicode="&#x391;" d="M439 0l-54 188h-257l-54 -188h-57l205 685h72l205 -685h-60zM142 237h229l-114 400z" />
<glyph unicode="&#x392;" horiz-adv-x="539" d="M451 313q41 -41 41 -123q0 -94 -60 -142t-168 -48h-166v685h136q110 0 169.5 -44t59.5 -127q0 -62 -32.5 -100.5t-89.5 -50.5q69 -9 110 -50zM156 637v-253h111q64 0 100.5 33.5t36.5 92.5q0 66 -41.5 96.5t-122.5 30.5h-84zM432 190q0 75 -41.5 111t-117.5 36h-117v-288 h109q167 0 167 141z" />
<glyph unicode="&#x393;" horiz-adv-x="458" d="M449 685l-8 -52h-285v-633h-58v685h351z" />
<glyph unicode="&#x394;" horiz-adv-x="525" d="M299 685l209 -685h-491l210 685h72zM262 637l-173 -588h346z" />
<glyph unicode="&#x395;" horiz-adv-x="461" d="M414 685l-7 -49h-251v-257h218v-48h-218v-282h264v-49h-322v685h316z" />
<glyph unicode="&#x396;" horiz-adv-x="464" d="M423 685v-48l-329 -586h324l-7 -51h-380v48l330 587h-297v50h359z" />
<glyph unicode="&#x397;" horiz-adv-x="603" d="M447 0v336h-291v-336h-58v685h58v-300h291v300h58v-685h-58z" />
<glyph unicode="&#x398;" horiz-adv-x="624" d="M496.5 606q67.5 -90 67.5 -264q0 -170 -67.5 -261.5t-184.5 -91.5q-76 0 -133 39.5t-88.5 119t-31.5 193.5t31.5 194t88.5 120.5t133 40.5q117 0 184.5 -90zM170 571q-51 -75 -51 -230q0 -152 51.5 -227t141.5 -75q92 0 142 74t50 229t-50.5 229.5t-141.5 74.5t-142 -75z M427 375v-47h-231v47h231z" />
<glyph unicode="&#x399;" horiz-adv-x="255" d="M156 685v-685h-58v685h58z" />
<glyph unicode="&#x39a;" horiz-adv-x="500" d="M156 685v-685h-58v685h58zM481 685l-255 -315l271 -370h-69l-268 367l256 318h65z" />
<glyph unicode="&#x39b;" d="M294 685l205 -685h-60l-182 637l-182 -637h-58l205 685h72z" />
<glyph unicode="&#x39c;" horiz-adv-x="700" d="M636 0h-55l-28 329q-16 179 -22 299l-153 -547h-56l-158 547q-2 -50 -17 -260l-3 -37l-26 -331h-55l59 685h79l150 -535l146 535h80z" />
<glyph unicode="&#x39d;" horiz-adv-x="605" d="M507 0h-76l-286 620q8 -92 8 -233v-387h-55v685h76l286 -621q-8 120 -8 202v419h55v-685z" />
<glyph unicode="&#x39e;" horiz-adv-x="445" d="M394 685l-7 -53h-344v53h351zM346 382v-54h-250v54h250zM402 54v-54h-359v54h359z" />
<glyph unicode="&#x39f;" horiz-adv-x="624" d="M496.5 606q67.5 -90 67.5 -264q0 -171 -67.5 -262t-184.5 -91q-76 0 -133 39.5t-88.5 119t-31.5 193.5t31.5 194t88.5 120.5t133 40.5q117 0 184.5 -90zM171 571q-51 -75 -51 -230q0 -153 51.5 -227.5t140.5 -74.5q92 0 142 74t50 229t-50.5 229.5t-141.5 74.5 q-90 0 -141 -75z" />
<glyph unicode="&#x3a0;" horiz-adv-x="599" d="M501 685v-685h-58v634h-287v-634h-58v685h403z" />
<glyph unicode="&#x3a1;" horiz-adv-x="512" d="M475 480q0 -109 -64.5 -160.5t-181.5 -51.5h-73v-268h-58v685h132q245 0 245 -205zM367.5 353q46.5 37 46.5 126q0 84 -45 121t-138 37h-75v-321h73q92 0 138.5 37z" />
<glyph unicode="&#x3a3;" horiz-adv-x="445" d="M405 685v-50h-296l192 -279v-33l-193 -273h297v-50h-365v42l208 297l-208 304v42h365z" />
<glyph unicode="&#x3a4;" horiz-adv-x="447" d="M438 685l-6 -51h-180v-634h-57v634h-182v51h425z" />
<glyph unicode="&#x3a5;" horiz-adv-x="473" d="M462 685l-196 -417v-268h-58v267l-197 418h63l165 -365l162 365h61z" />
<glyph unicode="&#x3a6;" horiz-adv-x="713" d="M603 144.5q-75 -68.5 -218 -74.5v-70h-57v70q-144 6 -218.5 77t-74.5 196q0 129 75 197t218 74v71h57v-71q143 -5 218 -76t75 -194q0 -131 -75 -199.5zM154.5 177.5q59.5 -57.5 175.5 -61.5v452q-120 -8 -177.5 -61t-57.5 -164q0 -108 59.5 -165.5zM561 177.5 q58 53.5 58 166.5q0 106 -59.5 163t-176.5 61v-451q120 7 178 60.5z" />
<glyph unicode="&#x3a7;" horiz-adv-x="464" d="M264 371l192 -371h-63l-163 331l-161 -331h-60l186 368l-168 317h63l140 -280l141 280h60z" />
<glyph unicode="&#x3a8;" horiz-adv-x="605" d="M570 685v-267q0 -102 -61.5 -156.5t-177.5 -60.5v-201h-58v201q-117 6 -177.5 61t-60.5 155v268h57v-264q0 -82 45 -125t137 -47v436h56v-435q92 5 137 47t45 124v264h58z" />
<glyph unicode="&#x3a9;" horiz-adv-x="622" d="M496.5 606.5q67.5 -89.5 67.5 -260.5q0 -118 -31.5 -187.5t-100.5 -107.5h112v-51h-181v50q71 30 105.5 101t34.5 195q0 153 -50.5 226.5t-141.5 73.5q-90 0 -141 -74.5t-51 -226.5q0 -123 34.5 -192.5t104.5 -102.5v-50h-180v51h109q-67 39 -98 108.5t-31 185.5 q0 112 31.5 191t88.5 119.5t133 40.5q118 0 185.5 -89.5z" />
<glyph unicode="&#x3aa;" horiz-adv-x="255" d="M156 685v-685h-58v685h58zM71.5 855q10.5 -11 10.5 -27q0 -17 -10.5 -28t-27.5 -11q-16 0 -27 11t-11 28q0 16 11 27t27 11q17 0 27.5 -11zM243 855q11 -11 11 -27q0 -17 -11 -28t-27 -11q-17 0 -28 11t-11 28q0 16 11 27t28 11q16 0 27 -11z" />
<glyph unicode="&#x3ab;" horiz-adv-x="473" d="M462 685l-196 -417v-268h-58v267l-197 418h63l165 -365l162 365h61zM180.5 855q10.5 -11 10.5 -27q0 -17 -10.5 -28t-27.5 -11q-16 0 -27 11t-11 28q0 16 11 27t27 11q17 0 27.5 -11zM352 855q11 -11 11 -27q0 -17 -11 -28t-27 -11q-17 0 -28 11t-11 28q0 16 11 27t28 11 q16 0 27 -11z" />
<glyph unicode="&#x3ac;" horiz-adv-x="533" d="M332.5 491.5q36.5 -42.5 55.5 -148.5l31 180h53l-54 -261l27 -172q4 -22 13 -33t26 -17l-20 -48q-59 13 -68 78l-13 107q-20 -95 -58.5 -141.5t-100.5 -46.5q-80 0 -123.5 67t-43.5 205q0 125 47 199t130 74q62 0 98.5 -42.5zM149 429.5q-33 -57.5 -33 -168.5 q0 -225 112 -225q48 0 83.5 51t57.5 181q-14 85 -32.5 132.5t-42 67t-57.5 19.5q-55 0 -88 -57.5zM233 768l61 -4l-22 -165h-40z" />
<glyph unicode="&#x3ad;" horiz-adv-x="415" d="M381 487l-26 -35q-27 18 -54 26.5t-61 8.5q-51 0 -79 -25t-28 -70q0 -42 30 -69t80 -27h54l-7 -45h-51q-63 0 -93 -26.5t-30 -82.5q0 -49 32 -77.5t87 -28.5q41 0 70.5 12.5t60.5 38.5l29 -35q-68 -63 -163 -63q-78 0 -126.5 41t-48.5 112q0 61 32.5 94t88.5 41 q-102 25 -102 118q0 64 44 101.5t115 37.5q83 0 146 -47zM214 768l61 -4l-22 -165h-40z" />
<glyph unicode="&#x3ae;" horiz-adv-x="528" d="M405 493q34 -41 34 -115v-583l-56 8v568q0 60 -21.5 88.5t-64.5 28.5t-78 -29t-66 -82v-377h-56v355q0 53 -5.5 92t-15.5 77l51 7q15 -44 21 -101q64 104 160 104q63 0 97 -41zM237 768l61 -4l-22 -165h-40z" />
<glyph unicode="&#x3af;" horiz-adv-x="243" d="M145 117q0 -35 9.5 -52.5t32.5 -28.5l-17 -44q-44 14 -62.5 41.5t-18.5 79.5v410h56v-406zM98 768l61 -4l-22 -165h-40z" />
<glyph unicode="&#x3b0;" horiz-adv-x="509" d="M436 259q0 -92 -26.5 -152.5t-70 -89t-97.5 -28.5q-67 0 -110 42t-43 117v375h56v-372q0 -57 26.5 -86t71.5 -29q58 0 97 52t39 173q0 122 -23 262h56q24 -150 24 -264zM239 864l53 -3l-19 -143h-34v146zM195.5 699q10.5 -11 10.5 -27q0 -17 -10.5 -28t-27.5 -11 q-16 0 -27 11t-11 28q0 16 11 27t27 11q17 0 27.5 -11zM368 699q11 -11 11 -27q0 -17 -11 -28t-28 -11q-16 0 -27 11t-11 28q0 16 11 27t27 11q17 0 28 -11z" />
<glyph unicode="&#x3b1;" horiz-adv-x="533" d="M332.5 491.5q36.5 -42.5 55.5 -148.5l31 180h53l-54 -261l27 -172q4 -22 13 -33t26 -17l-20 -48q-59 13 -68 78l-13 107q-20 -95 -58.5 -141.5t-100.5 -46.5q-80 0 -123.5 67t-43.5 205q0 125 47 199t130 74q62 0 98.5 -42.5zM149 429.5q-33 -57.5 -33 -168.5 q0 -225 112 -225q48 0 83.5 51t57.5 181q-14 85 -32.5 132.5t-42 67t-57.5 19.5q-55 0 -88 -57.5z" />
<glyph unicode="&#x3b2;" horiz-adv-x="531" d="M431.5 348.5q53.5 -48.5 53.5 -146.5q0 -65 -25.5 -113.5t-68.5 -74t-93 -25.5q-86 0 -148 63v-248l-56 -10v747q0 98 48 150t129 52q74 0 121.5 -46.5t47.5 -128.5q0 -75 -38 -116.5t-106 -50.5q82 -4 135.5 -52.5zM389.5 79.5q38.5 43.5 38.5 118.5q0 87 -47 132.5 t-133 45.5h-42l6 45h39q54 0 94.5 33.5t40.5 112.5q-1 66 -32 98t-83 32q-57 0 -89 -38.5t-32 -118.5v-437q31 -35 64.5 -51t77.5 -16q59 0 97.5 43.5z" />
<glyph unicode="&#x3b3;" horiz-adv-x="420" d="M210 72l138 459l56 -12l-167 -501q-23 -71 -23 -125q0 -34 10 -91l-45 -8q-21 57 -21 106q0 48 21 111q-48 206 -89 322.5t-85 177.5l53 19q91 -132 152 -458z" />
<glyph unicode="&#x3b4;" horiz-adv-x="512" d="M414 396q41 -57 41 -159q0 -119 -52 -183.5t-147 -64.5q-93 0 -146 63t-53 184q0 89 38 149.5t106 93.5q-51 26 -73 57t-22 75q0 56 41.5 94t111.5 38q44 0 79 -12t68 -37l-29 -35q-29 20 -55 29t-59 9q-48 0 -74 -23.5t-26 -62.5q0 -27 9.5 -45t34.5 -35t74 -38 q92 -40 133 -97zM361 84.5q35 48.5 35 152.5q0 61 -14 101t-47 69t-94 55q-125 -66 -125 -226q0 -200 140 -200q70 0 105 48.5z" />
<glyph unicode="&#x3b5;" horiz-adv-x="415" d="M381 487l-26 -35q-27 18 -54 26.5t-61 8.5q-51 0 -79 -25t-28 -70q0 -42 30 -69t80 -27h54l-7 -45h-51q-63 0 -93 -26.5t-30 -82.5q0 -49 32 -77.5t87 -28.5q41 0 70.5 12.5t60.5 38.5l29 -35q-68 -63 -163 -63q-78 0 -126.5 41t-48.5 112q0 61 32.5 94t88.5 41 q-102 25 -102 118q0 64 44 101.5t115 37.5q83 0 146 -47z" />
<glyph unicode="&#x3b6;" horiz-adv-x="336" d="M361 695q-131 -123 -196.5 -229.5t-65.5 -214.5q0 -51 11 -81.5t36 -51t72 -40.5q71 -31 101.5 -59.5t30.5 -75.5t-30.5 -82t-95.5 -67l-23 40q44 22 66.5 46t22.5 59q0 22 -8.5 36.5t-31 28.5t-67.5 34q-50 21 -80.5 46.5t-46.5 65.5t-16 101q0 114 72.5 230.5 t192.5 213.5q-46 -7 -118 -7h-150l7 48h309z" />
<glyph unicode="&#x3b7;" horiz-adv-x="528" d="M405 493q34 -41 34 -115v-583l-56 8v568q0 60 -21.5 88.5t-64.5 28.5t-78 -29t-66 -82v-377h-56v355q0 53 -5.5 92t-15.5 77l51 7q15 -44 21 -101q64 104 160 104q63 0 97 -41z" />
<glyph unicode="&#x3b8;" horiz-adv-x="507" d="M401.5 651q48.5 -92 48.5 -281q0 -194 -48.5 -287.5t-148.5 -93.5t-148 92.5t-48 287.5q0 374 198 374q98 0 146.5 -92zM150.5 624.5q-33.5 -70.5 -36.5 -232.5h279q-2 162 -35 232.5t-103 70.5q-71 0 -104.5 -70.5zM358 109q33 72 35 238h-279q2 -165 35.5 -237.5 t103.5 -72.5q72 0 105 72z" />
<glyph unicode="&#x3b9;" horiz-adv-x="243" d="M145 117q0 -35 9.5 -52.5t32.5 -28.5l-17 -44q-44 14 -62.5 41.5t-18.5 79.5v410h56v-406z" />
<glyph unicode="&#x3ba;" horiz-adv-x="451" d="M222 276l167 -199q15 -19 27.5 -29t28.5 -15l-17 -43q-25 4 -41.5 16.5t-39.5 40.5l-189 227l220 260l43 -25zM146 455q7 -41 7 -103v-352h-56v355q0 53 -5.5 92t-15.5 77l51 7q12 -35 19 -76z" />
<glyph unicode="&#x3bb;" horiz-adv-x="425" d="M172 703.5q36 -27.5 57 -73.5t36 -124q29 -155 56 -247.5t52 -143t61 -103.5l-52 -21q-37 57 -61.5 108t-50 141t-50.5 235l-140 -484l-53 14l158 518h24q-17 83 -46 122.5t-95 55.5l8 43q60 -13 96 -40.5z" />
<glyph unicode="&#x3bc;" horiz-adv-x="527" d="M400 -9q-11 31 -16 54.5t-7 56.5q-56 -113 -142 -113q-36 0 -59 15.5t-37 45.5q10 -59 10 -129v-118l-55 -6v726h56v-373q0 -58 24 -84.5t63 -26.5q81 0 133 115v369h56v-346q0 -95 25 -179z" />
<glyph unicode="&#x3bd;" horiz-adv-x="420" d="M206 48l143 482l55 -12l-165 -518h-69q-45 214 -83.5 333t-81.5 178l53 19q79 -113 148 -482z" />
<glyph unicode="&#x3be;" horiz-adv-x="380" d="M321.5 730.5q33.5 -12.5 65.5 -37.5l-27 -35q-29 20 -53.5 29.5t-57.5 9.5q-56 0 -82.5 -31.5t-26.5 -82.5q1 -57 31.5 -87.5t88.5 -30.5h48l-7 -47h-48q-72 0 -109.5 -43t-37.5 -114q0 -49 13 -79t42 -51.5t83 -45.5q76 -33 106 -62t30 -77q0 -49 -30 -84.5t-96 -67.5 l-23 39q44 23 66.5 47.5t22.5 60.5q0 23 -8.5 38.5t-31 30t-67.5 34.5q-60 27 -93.5 50.5t-53 63t-19.5 103.5q0 83 42 129t108 54q-114 27 -114 141q0 70 44 114t117 44q44 0 77.5 -12.5z" />
<glyph unicode="&#x3bf;" d="M406 464q53 -70 53 -201q0 -129 -54 -201.5t-148 -72.5t-147 71.5t-53 200.5t53.5 201t147.5 72q95 0 148 -70zM153 430.5q-37 -55.5 -37 -169.5q0 -113 36.5 -169t104.5 -56t105 56t37 171q0 113 -36 168t-105 55q-68 0 -105 -55.5z" />
<glyph unicode="&#x3c0;" horiz-adv-x="528" d="M417 475v-358q0 -35 9.5 -52.5t32.5 -28.5l-17 -44q-44 14 -62.5 41.5t-18.5 79.5v362l-190 -1v-474h-56v474h-10q-26 0 -39.5 -1.5t-31.5 -7.5l-13 45q19 8 37.5 10.5t49.5 2.5h382v-48h-73z" />
<glyph unicode="&#x3c1;" horiz-adv-x="515" d="M405.5 465q47.5 -69 47.5 -201q0 -129 -48 -202t-132 -73t-133 76v-262l-56 -8v497q0 116 46.5 179t136.5 63q91 0 138.5 -69zM359.5 93q33.5 57 33.5 171q0 115 -31.5 169.5t-94.5 54.5q-127 0 -127 -205v-158q21 -43 53 -66t72 -23q61 0 94.5 57z" />
<glyph unicode="&#x3c2;" horiz-adv-x="412" d="M330 521.5q32 -12.5 62 -40.5l-28 -36q-24 21 -48.5 31t-55.5 10q-66 0 -104.5 -55t-38.5 -162q0 -57 13 -92t41.5 -58t79.5 -45q66 -27 94 -53.5t28 -74.5t-30.5 -84t-95.5 -68l-23 39q44 23 66.5 47.5t22.5 61.5q0 21 -8 35t-28 26t-62 29q-81 33 -119.5 85.5 t-38.5 151.5q0 124 54.5 194.5t147.5 70.5q39 0 71 -12.5z" />
<glyph unicode="&#x3c3;" horiz-adv-x="521" d="M482 477l-119 9q44 -28 70 -84t26 -139q0 -129 -54 -201.5t-148 -72.5t-147 71.5t-53 200.5q0 126 57.5 197.5t171.5 71.5q93 0 196 -7v-46zM375 404q-24 56 -64 84h-3q-104 0 -148 -54.5t-44 -172.5q0 -113 36.5 -169t104.5 -56t105 56t37 171q0 85 -24 141z" />
<glyph unicode="&#x3c4;" horiz-adv-x="403" d="M225 475v-358q0 -36 9 -53t33 -28l-18 -44q-44 14 -62 41.5t-18 79.5v362h-84q-28 -1 -41.5 -2.5t-31.5 -7.5l-12 45q19 8 37 10.5t49 2.5h309v-48h-170z" />
<glyph unicode="&#x3c5;" horiz-adv-x="509" d="M436 259q0 -92 -26.5 -152.5t-70 -89t-97.5 -28.5q-67 0 -110 42t-43 117v375h56v-372q0 -57 26.5 -86t71.5 -29q58 0 97 52t39 173q0 122 -23 262h56q24 -150 24 -264z" />
<glyph unicode="&#x3c6;" horiz-adv-x="651" d="M564.5 112.5q-24.5 -58.5 -77 -88t-138.5 -34.5v-187l-54 -8v195q-118 8 -172.5 68t-54.5 186q0 75 14 141t38 138h55q-23 -67 -37 -133.5t-14 -144.5q0 -76 19 -120t56 -64.5t96 -25.5v320q0 88 37 133.5t104 45.5q74 0 113.5 -61t39.5 -207q0 -95 -24.5 -153.5zM457 61 q40 22 58 71t18 133q0 85 -10.5 134t-32 69t-54.5 20q-42 0 -64.5 -30t-22.5 -109v-314q68 4 108 26z" />
<glyph unicode="&#x3c7;" horiz-adv-x="401" d="M392 -193l-54 -10l-138 339l-140 -338l-55 7l166 380q-54 137 -89.5 205t-79.5 121l54 21q39 -52 71.5 -117t74.5 -187l115 301l57 -6l-143 -339z" />
<glyph unicode="&#x3c8;" horiz-adv-x="673" d="M540 59.5q-60 -62.5 -177 -69.5v-187l-54 -8v194q-114 4 -171.5 55t-57.5 146l1 333h56l-1 -331q0 -74 42 -113t131 -43v487h54v-487q93 5 137 57.5t44 166.5q0 122 -24 263h56q13 -70 18.5 -130.5t5.5 -133.5q0 -137 -60 -199.5z" />
<glyph unicode="&#x3c9;" horiz-adv-x="698" d="M630 237q0 -132 -44 -190t-115 -58q-51 0 -83 28t-39 82q-10 -55 -41.5 -82.5t-83.5 -27.5q-73 0 -114.5 60.5t-41.5 188.5q0 84 14 151.5t38 133.5h56q-26 -75 -38.5 -144t-12.5 -143q0 -107 27.5 -153.5t77.5 -46.5q92 0 92 138v179l54 8v-188q0 -72 24.5 -104.5 t65.5 -32.5q49 0 78.5 44t29.5 156q0 72 -13 140.5t-38 146.5h56q51 -140 51 -286z" />
<glyph unicode="&#x3ca;" horiz-adv-x="243" d="M145 117q0 -35 9.5 -52.5t32.5 -28.5l-17 -44q-44 14 -62.5 41.5t-18.5 79.5v410h56v-406zM58.5 729q10.5 -11 10.5 -27q0 -17 -10.5 -28t-27.5 -11q-16 0 -27 11t-11 28q0 16 11 27t27 11q17 0 27.5 -11zM230 729q11 -11 11 -27q0 -17 -11 -28t-27 -11q-17 0 -28 11 t-11 28q0 16 11 27t28 11q16 0 27 -11z" />
<glyph unicode="&#x3cb;" horiz-adv-x="509" d="M436 259q0 -92 -26.5 -152.5t-70 -89t-97.5 -28.5q-67 0 -110 42t-43 117v375h56v-372q0 -57 26.5 -86t71.5 -29q58 0 97 52t39 173q0 122 -23 262h56q24 -150 24 -264zM195.5 729q10.5 -11 10.5 -27q0 -17 -10.5 -28t-27.5 -11q-16 0 -27 11t-11 28q0 16 11 27t27 11 q17 0 27.5 -11zM367 729q11 -11 11 -27q0 -17 -11 -28t-27 -11q-17 0 -28 11t-11 28q0 16 11 27t28 11q16 0 27 -11z" />
<glyph unicode="&#x3cc;" d="M406 464q53 -70 53 -201q0 -129 -54 -201.5t-148 -72.5t-147 71.5t-53 200.5t53.5 201t147.5 72q95 0 148 -70zM153 430.5q-37 -55.5 -37 -169.5q0 -113 36.5 -169t104.5 -56t105 56t37 171q0 113 -36 168t-105 55q-68 0 -105 -55.5zM239 768l61 -4l-22 -165h-40z" />
<glyph unicode="&#x3cd;" horiz-adv-x="509" d="M436 259q0 -92 -26.5 -152.5t-70 -89t-97.5 -28.5q-67 0 -110 42t-43 117v375h56v-372q0 -57 26.5 -86t71.5 -29q58 0 97 52t39 173q0 122 -23 262h56q24 -150 24 -264zM235 768l61 -4l-22 -165h-40z" />
<glyph unicode="&#x3ce;" horiz-adv-x="698" d="M630 237q0 -132 -44 -190t-115 -58q-51 0 -83 28t-39 82q-10 -55 -41.5 -82.5t-83.5 -27.5q-73 0 -114.5 60.5t-41.5 188.5q0 84 14 151.5t38 133.5h56q-26 -75 -38.5 -144t-12.5 -143q0 -107 27.5 -153.5t77.5 -46.5q92 0 92 138v179l54 8v-188q0 -72 24.5 -104.5 t65.5 -32.5q49 0 78.5 44t29.5 156q0 72 -13 140.5t-38 146.5h56q51 -140 51 -286zM332 768l61 -4l-22 -165h-40z" />
<glyph unicode="&#x3cf;" horiz-adv-x="536" d="M98 0v685h58v-685h-58zM514 50v-131q0 -60 -31.5 -92t-82.5 -32q-53 0 -95 34l25 37q16 -11 31 -17t36 -6q27 0 43 17.5t16 56.5v83h-28l-268 367l256 318h65l-255 -315l234 -320h54z" />
<glyph unicode="&#x3d0;" horiz-adv-x="512" d="M420.5 373q40.5 -56 40.5 -150q0 -66 -24.5 -119t-69 -84t-104.5 -31q-106 0 -155.5 90t-49.5 270q0 127 34 216t90 133.5t119 44.5q61 0 93.5 -35.5t32.5 -85.5q0 -68 -41 -116.5t-134 -83.5q27 7 44 7q84 0 124.5 -56zM216 666.5q-39 -30.5 -66 -99.5t-32 -178l42 19 q87 39 132 71.5t61.5 64.5t16.5 75q0 35 -19 56.5t-53 21.5q-43 0 -82 -30.5zM363 86.5q37 50.5 37 134.5q0 80 -31 126t-96 46q-29 0 -54 -7.5t-60 -24.5l-42 -21q0 -154 34 -229t112 -75q63 0 100 50.5z" />
<glyph unicode="&#x3d1;" horiz-adv-x="480" d="M461 410h-36v-16q0 -206 -52 -305.5t-159 -99.5q-67 0 -109 41.5t-42 116.5v197h56v-194q0 -56 26 -85t70 -29q77 1 113.5 85.5t36.5 272.5v16h-120q-103 0 -151 44t-48 122q0 46 20.5 84t58 60.5t87.5 22.5q96 0 148.5 -74t62.5 -211h39zM363 458q-15 238 -151 238 q-52 0 -81.5 -33t-29.5 -87q0 -60 35.5 -90t109.5 -29z" />
<glyph unicode="&#x3d2;" horiz-adv-x="495" d="M208 267l-197 418h63l164 -366l117 289q19 46 44 67t63 21q26 0 46 -10t39 -27l-24 -33q-15 12 -27.5 18t-29.5 6q-22 0 -35 -13t-29 -48l-136 -321v-268h-58v267z" />
<glyph unicode="&#x3d3;" horiz-adv-x="635" d="M349 267l-197 418h63l164 -366l117 289q19 46 44 67t63 21q26 0 46 -10t39 -27l-24 -33q-15 12 -27.5 18t-29.5 6q-22 0 -35 -13t-29 -48l-136 -321v-268h-58v267zM103 697l32 -170l-40 -7l-53 165z" />
<glyph unicode="&#x3d4;" horiz-adv-x="495" d="M208 267l-197 418h63l164 -366l117 289q19 46 44 67t63 21q26 0 46 -10t39 -27l-24 -33q-15 12 -27.5 18t-29.5 6q-22 0 -35 -13t-29 -48l-136 -321v-268h-58v267zM189.5 855q10.5 -11 10.5 -27q0 -17 -10.5 -28t-27.5 -11q-16 0 -27 11t-11 28q0 16 11 27t27 11 q17 0 27.5 -11zM361 855q11 -11 11 -27q0 -17 -11 -28t-27 -11q-17 0 -28 11t-11 28q0 16 11 27t28 11q16 0 27 -11z" />
<glyph unicode="&#x3d5;" horiz-adv-x="564" d="M464 76q-54 -65 -154 -71v-202l-56 -8v210q-101 7 -154.5 72t-53.5 185q0 119 54.5 185t153.5 71v218l56 7v-225q101 -7 154.5 -71.5t53.5 -183.5q0 -122 -54 -187zM256 51v421q-76 -5 -114 -56.5t-38 -153.5q0 -202 152 -211zM422 107q38 51 38 156q0 200 -152 209v-421 q76 5 114 56z" />
<glyph unicode="&#x3d6;" horiz-adv-x="659" d="M616 475h-94q72 -117 72 -261q0 -120 -41.5 -172.5t-106.5 -52.5q-46 0 -77.5 28.5t-38.5 81.5q-10 -54 -41.5 -82t-77.5 -28q-66 0 -105.5 55.5t-39.5 171.5q0 144 73 259h-12q-28 0 -42 -2t-34 -8l-12 45q20 8 39.5 10.5t58.5 2.5h479v-48zM520 349.5 q-17 62.5 -51 125.5h-278q-34 -62 -51 -124.5t-17 -136.5q0 -178 93 -178q38 0 62 32t24 104v143l55 8v-152q0 -70 23.5 -102.5t59.5 -32.5q43 0 70 38t27 140q0 73 -17 135.5z" />
<glyph unicode="&#x3d7;" horiz-adv-x="532" d="M444.5 63.5q9.5 -18.5 32.5 -28.5v-107q0 -65 -31 -99t-84 -34q-54 0 -94 34l24 35q17 -11 32 -16.5t35 -5.5q63 0 63 84v89q-23 15 -33 40t-10 66q0 69 4.5 174.5t7.5 164.5l-235 -469l-59 17v394q0 38 -9.5 56t-32.5 29l18 44q43 -14 61.5 -44t18.5 -86 q0 -73 -4.5 -183.5t-7.5 -154.5l236 469l58 -17v-395q0 -38 9.5 -56.5z" />
<glyph unicode="&#x3d8;" horiz-adv-x="624" d="M504.5 92q-59.5 -90 -163.5 -101v-188h-58v188q-104 11 -164 100.5t-60 249.5q0 114 31.5 194t88.5 120.5t133 40.5q117 0 184.5 -90t67.5 -264q0 -160 -59.5 -250zM454 113q50 74 50 229t-50.5 229.5t-141.5 74.5q-90 0 -141 -75t-51 -230q0 -153 51.5 -227.5 t140.5 -74.5q92 0 142 74z" />
<glyph unicode="&#x3d9;" d="M412.5 72.5q-46.5 -71.5 -128.5 -81.5v-188l-52 -8v195q-83 10 -129 80.5t-46 190.5q0 129 53.5 201t147.5 72q95 0 148 -70t53 -201q0 -119 -46.5 -190.5zM362 92q37 56 37 171q0 113 -36 168t-105 55q-68 0 -105 -55.5t-37 -169.5q0 -113 36.5 -169t104.5 -56t105 56z " />
<glyph unicode="&#x3da;" horiz-adv-x="493" d="M288 -167q43 23 66 48t23 60q0 24 -11.5 41t-38 32.5t-77.5 36.5q-64 27 -105 61t-63.5 93t-22.5 153t32 168t98.5 116.5t166.5 42.5h117l-8 -52h-111q-115 0 -173.5 -73t-58.5 -202q0 -82 17 -131.5t51.5 -78t95.5 -54.5q80 -33 115.5 -65.5t35.5 -85.5 q0 -46 -30.5 -81.5t-95.5 -67.5z" />
<glyph unicode="&#x3db;" horiz-adv-x="409" d="M223 -167q45 23 67.5 47.5t22.5 61.5q0 23 -9.5 37t-28 24t-61.5 29q-78 33 -117.5 83t-39.5 140q0 86 39.5 140.5t114.5 78.5q12 4 22.5 6.5t19.5 5.5q32 8 48.5 15.5t25.5 24t9 49.5l53 -5q0 -47 -14.5 -72.5t-36.5 -36t-64 -22.5q-10 -2 -30 -8q-62 -19 -95 -60 t-33 -116q0 -50 13.5 -82t42 -54.5t78.5 -44.5q47 -21 71.5 -36t37.5 -36.5t13 -54.5q0 -49 -30 -85t-95 -68z" />
<glyph unicode="&#x3dc;" horiz-adv-x="474" d="M156 633v-258h151q32 0 52 -4.5t40 -15.5l-17 -44q-17 7 -34 10.5t-42 3.5h-150v-325h-58v685h351l-8 -52h-285z" />
<glyph unicode="&#x3dd;" horiz-adv-x="387" d="M145 390v-148h112q30 0 49.5 -5t38.5 -15l-16 -43q-17 8 -33.5 11.5t-42.5 3.5h-108v-390l-56 -9v593q0 66 32.5 100.5t92.5 34.5h165l-6 -48h-156q-72 0 -72 -85z" />
<glyph unicode="&#x3de;" horiz-adv-x="407" d="M371 373l13 -53l-173 -320h-65l175 320h-285l-13 53l172 312h64l-174 -312h286z" />
<glyph unicode="&#x3df;" horiz-adv-x="386" d="M372 405l-97 -228q-28 -63 -39.5 -101.5t-17.5 -85.5l-51 9q5 53 18 94.5t42 104.5l85 188l-282 -89l-17 47l94 215q27 62 38 100t18 86l51 -9q-5 -52 -18 -93.5t-42 -104.5l-79 -175l279 87z" />
<glyph unicode="&#x3e0;" horiz-adv-x="513" d="M496 0h-58l-102 303l-93 -303h-51l121 373l-55 163l-184 -536h-57l217 600l-33 85h53z" />
<glyph unicode="&#x3e1;" horiz-adv-x="550" d="M322.5 578.5q85.5 -90.5 128 -210.5t42.5 -283q0 -72 -9.5 -150t-22.5 -141l-49 7q26 139 26 284q0 148 -37 258l-147 -343h-55l178 403q-28 61 -72 114l-240 -517h-54l259 557q-73 75 -191 149l22 40q136 -77 221.5 -167.5z" />
<glyph unicode="&#x3f0;" horiz-adv-x="532" d="M444.5 64.5q9.5 -17.5 32.5 -28.5l-17 -44q-44 14 -62.5 43.5t-18.5 83.5q0 71 4.5 177t7.5 164l-235 -469l-59 17v398q0 35 -9.5 52.5t-32.5 28.5l18 44q43 -14 61.5 -43.5t18.5 -83.5q0 -73 -4.5 -185.5t-7.5 -155.5l236 469l58 -17v-398q0 -35 9.5 -52.5z" />
<glyph unicode="&#x3f1;" horiz-adv-x="515" d="M357 -136.5q29 -18.5 40 -50.5l-51 -19q-11 24 -32 34.5t-79 20.5q-81 15 -116 50t-35 109v284q0 116 46.5 179t136.5 63t138 -66.5t48 -185.5q0 -77 -22 -135.5t-62.5 -91t-95.5 -32.5q-84 0 -133 76v-92q0 -38 11.5 -60t38.5 -34t78 -21q60 -10 89 -28.5zM140 283v-123 q21 -43 53 -66.5t72 -23.5q61 0 94.5 55t33.5 157q0 103 -32 154.5t-94 51.5q-127 0 -127 -205z" />
<glyph unicode="&#x3f2;" horiz-adv-x="453" d="M355 521.5q34 -12.5 70 -40.5l-27 -36q-31 21 -57.5 31t-62.5 10q-74 0 -117.5 -56.5t-43.5 -170.5t43 -167.5t117 -53.5q37 0 64.5 10.5t59.5 32.5l27 -36q-35 -28 -71 -42t-82 -14q-100 0 -159 69t-59 200q0 87 27 149t76.5 94.5t115.5 32.5q45 0 79 -12.5z" />
<glyph unicode="&#x3f3;" horiz-adv-x="244" d="M150 4q0 -61 -14 -98.5t-40.5 -61t-74.5 -47.5l-18 40q35 19 53.5 37.5t28 48.5t9.5 80v520h56v-519zM151.5 740q11.5 -12 11.5 -29q0 -18 -11.5 -29.5t-29.5 -11.5t-29.5 11.5t-11.5 29.5q0 17 11.5 29t29.5 12t29.5 -12z" />
<glyph unicode="&#x3f4;" horiz-adv-x="624" d="M496.5 606q67.5 -90 67.5 -264q0 -170 -67.5 -261.5t-184.5 -91.5q-76 0 -133 39.5t-88.5 119t-31.5 193.5t31.5 194t88.5 120.5t133 40.5q117 0 184.5 -90zM170 571q-51 -75 -51 -230q0 -152 51.5 -227t141.5 -75q92 0 142 74t50 229t-50.5 229.5t-141.5 74.5t-142 -75z M427 375v-47h-231v47h231z" />
<glyph unicode="&#x3f5;" horiz-adv-x="430" d="M396 44q-61 -55 -137 -55q-94 0 -148 70t-54 200t55 202.5t148 72.5q39 0 71 -12.5t63 -40.5l-28 -35q-26 21 -50.5 31t-54.5 10q-62 0 -101.5 -49t-44.5 -146h217v-45h-217q2 -106 41 -158t104 -52q30 0 55.5 10.5t53.5 32.5z" />
<glyph unicode="&#x3f6;" horiz-adv-x="429" d="M326 470q46 -64 46 -204q0 -135 -48.5 -206t-141.5 -71q-46 0 -81.5 15t-66.5 43l29 36q28 -23 54.5 -34.5t62.5 -11.5q64 0 97.5 51t36.5 159h-209v45h209q-4 106 -34.5 150.5t-86.5 44.5q-34 0 -62.5 -11t-57.5 -33l-26 36q64 55 147 55q86 0 132 -64z" />
<glyph unicode="&#x3f7;" horiz-adv-x="512" d="M475 356q0 -114 -64 -166.5t-179 -52.5h-76v-137h-58v685h58v-123h77q242 0 242 -206zM367.5 223q46.5 38 46.5 132q0 85 -44.5 122t-137.5 37h-76v-329h74q91 0 137.5 38z" />
<glyph unicode="&#x3f8;" horiz-adv-x="522" d="M419.5 465q43.5 -69 43.5 -201q0 -130 -47 -202.5t-133 -72.5q-42 0 -76 19.5t-57 52.5v-256l-56 -10v941l56 7v-292q54 83 142 83q84 0 127.5 -69zM403 264q0 114 -30.5 168.5t-90.5 54.5q-41 0 -73 -24t-59 -65v-283q50 -78 124 -78q129 0 129 227z" />
<glyph unicode="&#x3f9;" horiz-adv-x="524" d="M414 681q39 -15 83 -48l-30 -38q-38 27 -70 39t-75 12q-94 0 -148 -71t-54 -232q0 -155 54 -229t146 -74q49 0 81.5 13.5t71.5 43.5l31 -38q-40 -33 -83.5 -51.5t-102.5 -18.5q-119 0 -189 90t-70 264q0 118 33.5 197t92 117.5t134.5 38.5q56 0 95 -15z" />
<glyph unicode="&#x3fa;" horiz-adv-x="700" d="M636 0h-55l-28 329q-16 179 -22 299l-153 -547h-56l-158 547q-2 -50 -17 -260l-3 -37l-26 -331h-55l59 685h79l150 -535l146 535h80z" />
<glyph unicode="&#x3fb;" horiz-adv-x="595" d="M533 0h-54l-23 308q-5 60 -7 157l-130 -400h-52l-126 400q0 -69 -6 -156l-36 -506l-54 -8l56 728h70l123 -401l127 401h71z" />
<glyph unicode="&#x3fc;" horiz-adv-x="515" d="M140 65v-139h148v-45h-148v-78l-56 -8v86h-67v45h67v366q0 116 46.5 179t136.5 63q91 0 138.5 -69t47.5 -201q0 -129 -48 -202t-132 -73t-133 76zM140 283v-158q21 -43 53 -66t72 -23q61 0 94.5 57t33.5 171q0 115 -31.5 169.5t-94.5 54.5q-127 0 -127 -205z" />
<glyph unicode="&#x3fd;" horiz-adv-x="524" d="M400 608.5q65 -87.5 65 -265.5q0 -117 -32.5 -196t-91 -118.5t-136.5 -39.5q-59 0 -102.5 18.5t-82.5 51.5l32 37q33 -27 68.5 -41.5t83.5 -14.5q92 0 146 74t54 229q0 162 -49.5 232.5t-139.5 70.5q-47 0 -83.5 -12.5t-75.5 -38.5l-28 38q43 31 87.5 47t99.5 16 q120 0 185 -87.5z" />
<glyph unicode="&#x3fe;" horiz-adv-x="524" d="M414 681q39 -15 83 -48l-30 -38q-38 27 -70 39t-75 12q-94 0 -148 -71t-54 -232q0 -155 54 -229t146 -74q49 0 81.5 13.5t71.5 43.5l31 -38q-40 -33 -83.5 -51.5t-102.5 -18.5q-119 0 -189 90t-70 264q0 118 33.5 197t92 117.5t134.5 38.5q56 0 95 -15zM349.5 373 q11.5 -12 11.5 -29q0 -18 -11.5 -29.5t-29.5 -11.5t-29.5 11.5t-11.5 29.5q0 17 11.5 29t29.5 12t29.5 -12z" />
<glyph unicode="&#x3ff;" horiz-adv-x="524" d="M400 608.5q65 -87.5 65 -265.5q0 -117 -32.5 -196t-91 -118.5t-136.5 -39.5q-59 0 -102.5 18.5t-82.5 51.5l32 37q33 -27 68.5 -41.5t83.5 -14.5q92 0 146 74t54 229q0 162 -49.5 232.5t-139.5 70.5q-47 0 -83.5 -12.5t-75.5 -38.5l-28 38q43 31 87.5 47t99.5 16 q120 0 185 -87.5zM232.5 373q11.5 -12 11.5 -29q0 -18 -11.5 -29.5t-29.5 -11.5t-29.5 11.5t-11.5 29.5q0 17 11.5 29t29.5 12t29.5 -12z" />
<glyph unicode="&#x400;" horiz-adv-x="461" d="M414 685l-7 -49h-251v-257h218v-48h-218v-282h264v-49h-322v685h316zM185 885l169 -95l-16 -32l-179 77z" />
<glyph unicode="&#x401;" horiz-adv-x="461" d="M414 685l-7 -49h-251v-257h218v-48h-218v-282h264v-49h-322v685h316zM204.5 855q10.5 -11 10.5 -27q0 -17 -10.5 -28t-27.5 -11q-16 0 -27 11t-11 28q0 16 11 27t27 11q17 0 27.5 -11zM376 855q11 -11 11 -27q0 -17 -11 -28t-27 -11q-17 0 -28 11t-11 28q0 16 11 27 t28 11q16 0 27 -11z" />
<glyph unicode="&#x402;" horiz-adv-x="633" d="M545.5 386.5q45.5 -49.5 45.5 -137.5v-167q0 -55 -14.5 -91t-44.5 -61t-83 -48l-17 42q42 21 63.5 41.5t30 47.5t8.5 70v164q0 67 -31 102.5t-94 35.5q-49 0 -86.5 -21.5t-70.5 -64.5v-299h-57v634h-182v51h425l-6 -51h-180v-275q32 37 72 57t93 20q83 0 128.5 -49.5z " />
<glyph unicode="&#x403;" horiz-adv-x="458" d="M449 685l-8 -52h-285v-633h-58v685h351zM362 885l25 -50l-179 -77l-16 33z" />
<glyph unicode="&#x404;" horiz-adv-x="497" d="M477 59q-68 -70 -167 -70q-73 0 -130 40t-89 120.5t-32 197.5q0 114 33 192.5t90 117.5t128 39q51 0 87.5 -15.5t72.5 -47.5l-31 -37q-32 26 -60.5 38t-65.5 12q-82 0 -135 -64t-58 -202h245v-49h-245q1 -147 54 -219t138 -72q42 0 71.5 14.5t61.5 41.5z" />
<glyph unicode="&#x405;" horiz-adv-x="486" d="M339.5 677q41.5 -19 80.5 -57l-33 -35q-35 32 -68.5 46.5t-75.5 14.5q-56 0 -91 -32t-35 -84t31 -82.5t112 -58.5q92 -32 135 -76t43 -126q0 -56 -25.5 -101.5t-72.5 -71t-108 -25.5q-116 0 -199 86l33 34q38 -35 76 -52.5t89 -17.5q66 0 107 39.5t41 106.5 q0 41 -13.5 68t-44.5 47.5t-87 40.5q-94 33 -135 75.5t-41 111.5q0 47 23.5 85.5t65.5 60.5t95 22q56 0 97.5 -19z" />
<glyph unicode="&#x406;" horiz-adv-x="255" d="M156 685v-685h-58v685h58z" />
<glyph unicode="&#x407;" horiz-adv-x="255" d="M156 685v-685h-58v685h58zM71.5 855q10.5 -11 10.5 -27q0 -17 -10.5 -28t-27.5 -11q-16 0 -27 11t-11 28q0 16 11 27t27 11q17 0 27.5 -11zM243 855q11 -11 11 -27q0 -17 -11 -28t-27 -11q-17 0 -28 11t-11 28q0 16 11 27t28 11q16 0 27 -11z" />
<glyph unicode="&#x408;" horiz-adv-x="262" d="M169 91q0 -59 -14.5 -97t-45 -63.5t-83.5 -48.5l-15 42q42 21 63 42t29 50t8 78v591h58v-594z" />
<glyph unicode="&#x409;" horiz-adv-x="802" d="M711.5 366.5q59.5 -50.5 59.5 -151.5q0 -110 -61 -162.5t-169 -52.5h-138v635h-196l-38 -339q-13 -121 -26.5 -178.5t-35.5 -83t-67 -43.5l-15 47q29 13 43 34t23.5 68.5t21.5 155.5l42 389h306l-1 -1v-267h81q111 0 170.5 -50.5zM668 87.5q42 38.5 42 127.5 q0 80 -42 117.5t-125 37.5h-83v-321h87q79 0 121 38.5z" />
<glyph unicode="&#x40a;" horiz-adv-x="840" d="M751 348q57 -49 57 -144q0 -103 -59.5 -153.5t-159.5 -50.5h-148v350h-285v-350h-58v685h58v-288h285v288h58v-288h94q101 0 158 -49zM707.5 86q40.5 37 40.5 118q0 75 -40.5 110.5t-113.5 35.5h-95v-301h96q72 0 112.5 37z" />
<glyph unicode="&#x40b;" horiz-adv-x="633" d="M546.5 386.5q45.5 -49.5 45.5 -137.5v-249h-58v247q0 67 -30.5 102.5t-93.5 35.5q-50 0 -87.5 -21.5t-70.5 -64.5v-299h-58v634h-181v51h425l-6 -51h-180v-276q65 78 165 78q84 0 129.5 -49.5z" />
<glyph unicode="&#x40c;" horiz-adv-x="513" d="M482 685l-180 -322l195 -363h-65l-180 336h-96v-336h-58v685h58v-300h97l169 300h60zM345 885l25 -50l-179 -77l-16 33z" />
<glyph unicode="&#x40d;" horiz-adv-x="605" d="M507 0h-58v366q0 130 8 254l-286 -620h-73v685h58v-367q0 -134 -8 -254l287 621h72v-685zM228 885l169 -95l-16 -32l-179 77z" />
<glyph unicode="&#x40e;" horiz-adv-x="467" d="M285 190q-26 -72 -49 -109.5t-54 -58t-85 -33.5l-10 43q42 12 65.5 27.5t41 45t37.5 87.5h-19l-206 493h60l183 -454l159 454h58zM158 790q-32 25 -38 67l37 8q17 -53 81 -53q66 0 82 53l37 -8q-5 -42 -38 -67t-81 -25t-80 25z" />
<glyph unicode="&#x40f;" horiz-adv-x="594" d="M495 685v-685h-173v-145h-43l-12 145h-169v685h58v-635h281v635h58z" />
<glyph unicode="&#x410;" d="M439 0l-54 188h-257l-54 -188h-57l205 685h72l205 -685h-60zM142 237h229l-114 400z" />
<glyph unicode="&#x411;" horiz-adv-x="515" d="M416.5 366q58.5 -51 58.5 -151q0 -110 -60.5 -162.5t-168.5 -52.5h-148v685h315l-8 -50h-249v-218h94q108 0 166.5 -51zM372.5 87.5q41.5 38.5 41.5 127.5q0 80 -41.5 117t-121.5 37h-95v-320h97q78 0 119.5 38.5z" />
<glyph unicode="&#x412;" horiz-adv-x="539" d="M451 313q41 -41 41 -123q0 -94 -60 -142t-168 -48h-166v685h136q110 0 169.5 -44t59.5 -127q0 -62 -32.5 -100.5t-89.5 -50.5q69 -9 110 -50zM156 637v-253h111q64 0 100.5 33.5t36.5 92.5q0 66 -41.5 96.5t-122.5 30.5h-84zM432 190q0 75 -41.5 111t-117.5 36h-117v-288 h109q167 0 167 141z" />
<glyph unicode="&#x413;" horiz-adv-x="458" d="M449 685l-8 -52h-285v-633h-58v685h351z" />
<glyph unicode="&#x414;" horiz-adv-x="541" d="M489 50v-195h-43l-12 145h-383l-12 -145h-43v195h36q22 24 36 56.5t25.5 91.5t23.5 164l35 323h290v-635h47zM385 635h-182l-29 -274q-11 -104 -23 -163.5t-27.5 -91.5t-40.5 -56h302v585z" />
<glyph unicode="&#x415;" horiz-adv-x="461" d="M414 685l-7 -49h-251v-257h218v-48h-218v-282h264v-49h-322v685h316z" />
<glyph unicode="&#x416;" horiz-adv-x="699" d="M673 685l-165 -322l181 -363h-64l-165 336h-83v-336h-55v336h-84l-165 -336h-62l180 363l-165 322h61l152 -300h83v300h55v-300h83l154 300h59z" />
<glyph unicode="&#x417;" horiz-adv-x="469" d="M18 82l36 32q32 -36 69.5 -55t85.5 -19q70 0 111 41t41 116q0 70 -39 108t-113 37h-57l8 49h47q63 0 99.5 34.5t36.5 97.5q0 56 -31.5 89.5t-90.5 33.5q-42 0 -78.5 -17t-73.5 -51l-32 34q43 42 88.5 63t98.5 21q84 0 131.5 -47.5t47.5 -123.5q0 -64 -33 -103t-90 -52 q63 -8 102.5 -51.5t39.5 -121.5q0 -64 -27 -111t-74.5 -72t-108.5 -25q-116 0 -194 93z" />
<glyph unicode="&#x418;" horiz-adv-x="605" d="M507 0h-58v366q0 130 8 254l-286 -620h-73v685h58v-367q0 -134 -8 -254l287 621h72v-685z" />
<glyph unicode="&#x419;" horiz-adv-x="605" d="M507 0h-58v366q0 130 8 254l-286 -620h-73v685h58v-367q0 -134 -8 -254l287 621h72v-685zM222 790q-32 25 -38 67l37 8q17 -53 81 -53q66 0 82 53l37 -8q-5 -42 -38 -67t-81 -25t-80 25z" />
<glyph unicode="&#x41a;" horiz-adv-x="513" d="M482 685l-180 -322l195 -363h-65l-180 336h-96v-336h-58v685h58v-300h97l169 300h60z" />
<glyph unicode="&#x41b;" horiz-adv-x="582" d="M484 685v-685h-58v635h-219l-37 -339q-13 -122 -27 -179t-36 -82.5t-67 -43.5l-15 47q29 13 43 34t23.5 68.5t21.5 155.5l42 389h329z" />
<glyph unicode="&#x41c;" horiz-adv-x="700" d="M636 0h-55l-28 329q-16 179 -22 299l-153 -547h-56l-158 547q-2 -50 -17 -260l-3 -37l-26 -331h-55l59 685h79l150 -535l146 535h80z" />
<glyph unicode="&#x41d;" horiz-adv-x="603" d="M447 0v336h-291v-336h-58v685h58v-300h291v300h58v-685h-58z" />
<glyph unicode="&#x41e;" horiz-adv-x="624" d="M496.5 606q67.5 -90 67.5 -264q0 -171 -67.5 -262t-184.5 -91q-76 0 -133 39.5t-88.5 119t-31.5 193.5t31.5 194t88.5 120.5t133 40.5q117 0 184.5 -90zM171 571q-51 -75 -51 -230q0 -153 51.5 -227.5t140.5 -74.5q92 0 142 74t50 229t-50.5 229.5t-141.5 74.5 q-90 0 -141 -75z" />
<glyph unicode="&#x41f;" horiz-adv-x="599" d="M501 685v-685h-58v634h-287v-634h-58v685h403z" />
<glyph unicode="&#x420;" horiz-adv-x="512" d="M475 480q0 -109 -64.5 -160.5t-181.5 -51.5h-73v-268h-58v685h132q245 0 245 -205zM367.5 353q46.5 37 46.5 126q0 84 -45 121t-138 37h-75v-321h73q92 0 138.5 37z" />
<glyph unicode="&#x421;" horiz-adv-x="497" d="M397.5 680.5q36.5 -15.5 72.5 -47.5l-31 -37q-32 26 -60.5 38t-65.5 12q-87 0 -140 -72.5t-53 -230.5q0 -153 53 -228t139 -75q42 0 71.5 14.5t61.5 41.5l32 -37q-70 -70 -167 -70q-73 0 -130 39.5t-89 119t-32 195.5t33 195.5t90 118.5t128 39q51 0 87.5 -15.5z" />
<glyph unicode="&#x422;" horiz-adv-x="447" d="M438 685l-6 -51h-180v-634h-57v634h-182v51h425z" />
<glyph unicode="&#x423;" horiz-adv-x="467" d="M285 190q-26 -72 -49 -109.5t-54 -58t-85 -33.5l-10 43q42 12 65.5 27.5t41 45t37.5 87.5h-19l-206 493h60l183 -454l159 454h58z" />
<glyph unicode="&#x424;" horiz-adv-x="717" d="M387 46v-71h-57v71q-143 5 -216.5 81t-73.5 220q0 291 290 304v67h57v-67q144 -6 217 -81.5t73 -220.5q0 -292 -290 -303zM561 158.5q57 59.5 57 190.5q0 129 -58 190.5t-175 65.5v-513q119 7 176 66.5zM158 158q58 -62 174 -66v512q-118 -6 -175 -65.5t-57 -191.5 q0 -127 58 -189z" />
<glyph unicode="&#x425;" horiz-adv-x="464" d="M264 371l192 -371h-63l-163 331l-161 -331h-60l186 368l-168 317h63l140 -280l141 280h60z" />
<glyph unicode="&#x426;" horiz-adv-x="594" d="M495 50h64v-195h-43l-12 145h-406v685h58v-635h281v635h58v-635z" />
<glyph unicode="&#x427;" horiz-adv-x="536" d="M437 685v-685h-58v296q-36 -36 -74.5 -54.5t-88.5 -18.5q-79 0 -127.5 49t-48.5 136v277h58v-274q0 -68 34 -102.5t95 -34.5q47 0 86 20t66 54v337h58z" />
<glyph unicode="&#x428;" horiz-adv-x="820" d="M722 685v-685h-624v685h57v-635h228v635h54v-635h228v635h57z" />
<glyph unicode="&#x429;" horiz-adv-x="821" d="M722 50h64v-195h-43l-12 145h-633v685h57v-635h228v635h54v-635h228v635h57v-635z" />
<glyph unicode="&#x42a;" horiz-adv-x="603" d="M511.5 370.5q59.5 -51.5 59.5 -153.5q0 -111 -60.5 -164t-168.5 -53h-148v634h-181v51h240l-1 -1v-262h90q110 0 169.5 -51.5zM468.5 88q41.5 39 41.5 129q0 82 -42 119.5t-124 37.5h-92v-325h96q79 0 120.5 39z" />
<glyph unicode="&#x42b;" horiz-adv-x="720" d="M407 371q59 -51 59 -154q0 -111 -60.5 -164t-169.5 -53h-138v685h58v-263h81q111 0 170 -51zM564 685h58v-685h-58v685zM363.5 88q41.5 39 41.5 129q0 82 -42 119.5t-125 37.5h-82v-325h87q79 0 120.5 39z" />
<glyph unicode="&#x42c;" horiz-adv-x="507" d="M415.5 370.5q59.5 -51.5 59.5 -153.5q0 -111 -60.5 -164t-168.5 -53h-148v685h58v-263h90q110 0 169.5 -51.5zM372.5 88q41.5 39 41.5 129q0 82 -42 119.5t-124 37.5h-92v-325h96q79 0 120.5 39z" />
<glyph unicode="&#x42d;" horiz-adv-x="475" d="M360 614q56 -82 56 -271q0 -175 -58 -264.5t-169 -89.5q-54 0 -94.5 19.5t-74.5 52.5l32 37q32 -29 62.5 -43.5t72.5 -14.5q82 0 124.5 70.5t44.5 220.5h-250v49h250q-5 145 -44.5 205.5t-108.5 60.5q-42 0 -74 -12t-70 -42l-30 36q39 34 81 51t94 17q100 0 156 -82z" />
<glyph unicode="&#x42e;" horiz-adv-x="794" d="M670 606q65 -90 65 -264q0 -171 -65 -262t-179 -91q-111 0 -175.5 86.5t-68.5 255.5h-91v-331h-58v685h58v-304h92q9 152 73 233.5t170 81.5q114 0 179 -90zM626.5 113q47.5 74 47.5 229q0 156 -47.5 230t-135.5 74q-86 0 -134.5 -75.5t-48.5 -228.5q0 -155 48.5 -229 t134.5 -74q88 0 135.5 74z" />
<glyph unicode="&#x42f;" horiz-adv-x="538" d="M440 685v-685h-58v286h-149l-131 -286h-64l139 296q-61 22 -93.5 66.5t-32.5 118.5q0 204 239 204h150zM382 334v303h-90q-94 0 -136.5 -37.5t-42.5 -118.5q0 -74 37.5 -110.5t104.5 -36.5h127z" />
<glyph unicode="&#x430;" horiz-adv-x="484" d="M400 54q9 -17 30 -26l-13 -39q-33 8 -51 27.5t-24 57.5q-51 -85 -145 -85q-68 0 -107.5 42.5t-39.5 113.5q0 82 53 125.5t149 43.5h83v56q0 60 -25 88.5t-80 28.5q-57 0 -130 -30l-16 42q83 35 152 35q79 0 117 -41t38 -119v-267q0 -36 9 -53zM335 130v143h-76 q-150 0 -150 -126q0 -55 25.5 -84t71.5 -29q85 0 129 96z" />
<glyph unicode="&#x431;" horiz-adv-x="510" d="M407 428.5q46 -62.5 46 -176.5q0 -133 -52 -198t-144 -65q-94 0 -147 72.5t-53 225.5q0 118 14 189.5t51.5 116.5t107.5 74q56 23 86 37.5t59 34.5l26 -39q-48 -35 -145 -75q-47 -19 -74.5 -43.5t-44 -71.5t-22.5 -128q25 49 66.5 79t98.5 30q81 0 127 -62.5zM358 83 q36 47 36 165q0 196 -122 196q-50 0 -90.5 -32.5t-64.5 -89.5v-51q-1 -118 35 -176.5t106 -58.5q64 0 100 47z" />
<glyph unicode="&#x432;" horiz-adv-x="496" d="M408 246q31 -32 31 -90q0 -78 -52 -117t-140 -39h-153v518q92 16 146 16q82 0 127.5 -37t45.5 -100q0 -92 -93 -113q57 -6 88 -38zM150 481v-180h108q47 0 73 23.5t26 70.5q0 45 -29 69t-87 24q-40 0 -91 -7zM381 156q0 53 -29 77t-88 24h-114v-211h96q135 0 135 110z " />
<glyph unicode="&#x433;" horiz-adv-x="381" d="M150 0h-56v523h281l-7 -48h-218v-475z" />
<glyph unicode="&#x434;" horiz-adv-x="501" d="M448 47v-192h-43l-12 145h-332l-12 -145h-43v192h30q24 19 37.5 41t23.5 71.5t16 141.5l14 222h277v-476h44zM347 476h-169l-10 -168q-6 -91 -15.5 -141.5t-25 -76t-41.5 -43.5h261v429z" />
<glyph unicode="&#x435;" horiz-adv-x="484" d="M430 239h-315q4 -105 43 -153.5t103 -48.5q37 0 65.5 12t59.5 38l28 -35q-35 -31 -72.5 -47t-82.5 -16q-94 0 -148 70t-54 198q0 130 51.5 203.5t140.5 73.5t136 -66t47 -187q0 -22 -2 -42zM377 299q0 91 -32 139.5t-96 48.5q-58 0 -94 -49t-40 -155h262v16z" />
<glyph unicode="&#x436;" horiz-adv-x="615" d="M576 523l-119 -244l139 -279h-58l-126 254h-78v-254h-53v254h-78l-127 -254h-57l139 279l-120 244h56l109 -224h78v224h53v-224h78l110 224h54z" />
<glyph unicode="&#x437;" horiz-adv-x="435" d="M309 497q44 -37 44 -101q0 -49 -25.5 -77.5t-75.5 -39.5q62 -8 94 -38t32 -90q0 -78 -50.5 -120t-131.5 -42q-103 0 -176 68l31 33q33 -27 66 -40.5t77 -13.5q57 0 91 27.5t34 87.5q0 55 -35.5 78t-103.5 23h-54l4 45h44q59 0 90.5 25t31.5 73q0 44 -28 68t-75 24 q-40 0 -68.5 -10.5t-61.5 -32.5l-27 34q36 28 74.5 42t87.5 14q67 0 111 -37z" />
<glyph unicode="&#x438;" horiz-adv-x="534" d="M440 0h-55v329q0 73 8 129l-234 -458h-65v523h55v-311q0 -82 -7 -145l233 456h65v-523z" />
<glyph unicode="&#x439;" horiz-adv-x="534" d="M440 0h-55v329q0 73 8 129l-234 -458h-65v523h55v-311q0 -82 -7 -145l233 456h65v-523zM186 678q-32 25 -38 67l37 8q17 -53 81 -53q66 0 82 53l37 -8q-5 -42 -38 -67t-81 -25t-80 25z" />
<glyph unicode="&#x43a;" horiz-adv-x="450" d="M413 523l-147 -242l170 -281h-63l-153 255h-70v-255h-56v523h56v-223h71l134 223h58z" />
<glyph unicode="&#x43b;" horiz-adv-x="511" d="M417 523v-523h-56v475h-178l-16 -222q-8 -101 -17 -148t-30 -72t-66 -42l-15 45q29 12 42 31.5t18.5 58.5t12.5 132l19 265h286z" />
<glyph unicode="&#x43c;" horiz-adv-x="596" d="M535 0h-55l-22 308q-5 60 -7 157l-130 -400h-52l-126 400q-2 -99 -6 -156l-22 -309h-54l41 523h71l123 -401l127 401h71z" />
<glyph unicode="&#x43d;" horiz-adv-x="530" d="M380 0v247h-230v-247h-56v523h56v-229h230v229h56v-523h-56z" />
<glyph unicode="&#x43e;" d="M406 464q53 -70 53 -201q0 -129 -54 -201.5t-148 -72.5t-147 71.5t-53 200.5t53.5 201t147.5 72q95 0 148 -70zM153 430.5q-37 -55.5 -37 -169.5q0 -113 36.5 -169t104.5 -56t105 56t37 171q0 113 -36 168t-105 55q-68 0 -105 -55.5z" />
<glyph unicode="&#x43f;" horiz-adv-x="527" d="M377 0v475h-227v-475h-56v523h339v-523h-56z" />
<glyph unicode="&#x440;" horiz-adv-x="522" d="M419.5 465q43.5 -69 43.5 -201q0 -130 -47 -202.5t-133 -72.5q-42 0 -76 19.5t-57 51.5v-257l-56 -8v728h49l4 -75q58 86 145 86q84 0 127.5 -69zM403 264q0 114 -30.5 168.5t-90.5 54.5q-41 0 -73 -24t-59 -65v-283q50 -78 124 -78q129 0 129 227z" />
<glyph unicode="&#x441;" horiz-adv-x="420" d="M330 521.5q32 -12.5 62 -40.5l-28 -36q-23 21 -48 31t-56 10q-66 0 -104.5 -56.5t-38.5 -170.5q0 -113 38 -167t105 -54q31 0 56 10.5t51 31.5l28 -35q-59 -56 -136 -56q-94 0 -148 69.5t-54 199.5t54.5 203t147.5 73q39 0 71 -12.5z" />
<glyph unicode="&#x442;" horiz-adv-x="391" d="M386 523l-6 -48h-156v-475h-56v475h-161v48h379z" />
<glyph unicode="&#x443;" horiz-adv-x="428" d="M250 -2q-27 -90 -69 -136.5t-125 -65.5l-7 44q47 13 74 32t43 48t33 80h-20l-163 523h58l142 -481l138 481h58z" />
<glyph unicode="&#x444;" horiz-adv-x="716" d="M621.5 465.5q35.5 -68.5 35.5 -201.5q0 -131 -40 -203t-116 -72q-69 0 -116 68v-254l-54 -8v261q-45 -67 -116 -67q-74 0 -115 72.5t-41 202.5q0 131 39.5 200.5t117.5 69.5q71 0 115 -67v276l54 -7v-270q46 68 120 68q81 0 116.5 -68.5zM331 111v300q-44 76 -107 76 q-51 0 -78.5 -55t-27.5 -168q0 -115 27 -171.5t78 -56.5q64 0 108 75zM598 264q0 116 -24.5 169.5t-76.5 53.5q-69 0 -112 -78v-297q24 -39 50 -57.5t60 -18.5q103 0 103 228z" />
<glyph unicode="&#x445;" horiz-adv-x="419" d="M242 280l166 -280h-64l-136 245l-136 -245h-61l165 278l-145 245h63l115 -211l117 211h61z" />
<glyph unicode="&#x446;" horiz-adv-x="522" d="M428 47h62v-192h-43l-12 145h-341v523h56v-475h222v475h56v-476z" />
<glyph unicode="&#x447;" horiz-adv-x="486" d="M392 523v-523h-56v241q-27 -31 -64 -49t-83 -18q-62 0 -99.5 36t-37.5 105v208h56v-203q0 -52 23.5 -75.5t69.5 -23.5q39 0 76 19.5t59 50.5v232h56z" />
<glyph unicode="&#x448;" horiz-adv-x="717" d="M623 523v-523h-529v523h55v-476h183v476h53v-476h183v476h55z" />
<glyph unicode="&#x449;" horiz-adv-x="717" d="M623 47h62v-192h-43l-12 145h-536v523h55v-476h183v476h53v-476h183v476h55v-476z" />
<glyph unicode="&#x44a;" horiz-adv-x="527" d="M494 177q0 -88 -50.5 -132.5t-133.5 -44.5h-142v477h-161v46h217v-177h76q194 0 194 -169zM402.5 77q33.5 31 33.5 100q0 61 -31 92t-104 31h-77v-254h81q64 0 97.5 31z" />
<glyph unicode="&#x44b;" horiz-adv-x="646" d="M411 177q0 -88 -50.5 -132.5t-133.5 -44.5h-133v523h56v-177h67q194 0 194 -169zM496 523h56v-523h-56v523zM319.5 77q33.5 31 33.5 100q0 61 -31 92t-104 31h-68v-254h72q64 0 97.5 31z" />
<glyph unicode="&#x44c;" horiz-adv-x="453" d="M420 177q0 -88 -50.5 -132.5t-133.5 -44.5h-142v523h56v-177h76q194 0 194 -169zM328.5 77q33.5 31 33.5 100q0 61 -31 92t-104 31h-77v-254h81q64 0 97.5 31z" />
<glyph unicode="&#x44d;" horiz-adv-x="429" d="M326 470q46 -64 46 -204q0 -135 -48.5 -206t-141.5 -71q-46 0 -81.5 15t-66.5 43l29 36q28 -23 54.5 -34.5t62.5 -11.5q64 0 97.5 51t36.5 159h-209v45h209q-4 106 -34.5 150.5t-86.5 44.5q-34 0 -62.5 -11t-57.5 -33l-26 36q64 55 147 55q86 0 132 -64z" />
<glyph unicode="&#x44e;" horiz-adv-x="690" d="M582 464q51 -70 51 -201q0 -128 -51 -201t-142 -73q-86 0 -135.5 68t-53.5 190h-101v-247h-56v523h56v-229h102q7 114 56.5 177t132.5 63q90 0 141 -70zM574 263q0 112 -34 167.5t-99 55.5q-132 0 -132 -225q0 -112 33.5 -168.5t97.5 -56.5q134 0 134 227z" />
<glyph unicode="&#x44f;" horiz-adv-x="490" d="M396 523v-523h-56v217h-124l-109 -217h-61l117 230q-47 16 -71 51.5t-24 87.5q0 75 47.5 114.5t135.5 39.5h145zM340 262v215h-90q-123 2 -123 -107q0 -108 115 -108h98z" />
<glyph unicode="&#x450;" horiz-adv-x="484" d="M430 239h-315q4 -105 43 -153.5t103 -48.5q37 0 65.5 12t59.5 38l28 -35q-35 -31 -72.5 -47t-82.5 -16q-94 0 -148 70t-54 198q0 130 51.5 203.5t140.5 73.5t136 -66t47 -187q0 -22 -2 -42zM377 299q0 91 -32 139.5t-96 48.5q-58 0 -94 -49t-40 -155h262v16zM183 779 l169 -102l-19 -31l-177 84z" />
<glyph unicode="&#x451;" horiz-adv-x="484" d="M430 239h-315q4 -105 43 -153.5t103 -48.5q37 0 65.5 12t59.5 38l28 -35q-35 -31 -72.5 -47t-82.5 -16q-94 0 -148 70t-54 198q0 130 51.5 203.5t140.5 73.5t136 -66t47 -187q0 -22 -2 -42zM377 299q0 91 -32 139.5t-96 48.5q-58 0 -94 -49t-40 -155h262v16zM191.5 729 q10.5 -11 10.5 -27q0 -17 -10.5 -28t-27.5 -11q-16 0 -27 11t-11 28q0 16 11 27t27 11q17 0 27.5 -11zM363 729q11 -11 11 -27q0 -17 -11 -28t-27 -11q-17 0 -28 11t-11 28q0 16 11 27t28 11q16 0 27 -11z" />
<glyph unicode="&#x452;" horiz-adv-x="530" d="M406.5 491.5q34.5 -42.5 34.5 -118.5v-355q0 -67 -14 -107.5t-40.5 -64.5t-74.5 -49l-18 40q35 19 53.5 38.5t28 52t9.5 88.5v350q0 63 -22 92.5t-65 29.5t-77.5 -29t-66.5 -82v-377h-56v617h-67v45h67v74l56 7v-81h150v-45h-150v-182q31 47 68.5 73t86.5 26 q63 0 97.5 -42.5z" />
<glyph unicode="&#x453;" horiz-adv-x="381" d="M150 0h-56v523h281l-7 -48h-218v-475zM301 779l26 -49l-177 -84l-18 31z" />
<glyph unicode="&#x454;" horiz-adv-x="430" d="M396 44q-61 -55 -137 -55q-94 0 -148 70t-54 200t55 202.5t148 72.5q39 0 71 -12.5t63 -40.5l-28 -35q-26 21 -50.5 31t-54.5 10q-62 0 -101.5 -49t-44.5 -146h217v-45h-217q2 -106 41 -158t104 -52q30 0 55.5 10.5t53.5 32.5z" />
<glyph unicode="&#x455;" horiz-adv-x="420" d="M293 519.5q36 -14.5 70 -43.5l-26 -36q-32 25 -60.5 36.5t-62.5 11.5q-47 0 -75.5 -24t-28.5 -66q0 -37 25 -58.5t90 -42.5q81 -26 116 -60.5t35 -96.5q0 -69 -49 -110t-123 -41q-53 0 -94 17.5t-76 49.5l31 34q32 -27 64.5 -40.5t74.5 -13.5q51 0 82.5 27t31.5 75 q0 32 -10.5 51.5t-37 34.5t-76.5 31q-76 24 -108.5 57t-32.5 85q0 39 21 70t57.5 49t80.5 18q45 0 81 -14.5z" />
<glyph unicode="&#x456;" horiz-adv-x="244" d="M150 523v-523h-56v523h56zM151.5 740q11.5 -12 11.5 -29q0 -18 -11.5 -29.5t-29.5 -11.5t-29.5 11.5t-11.5 29.5q0 17 11.5 29t29.5 12t29.5 -12z" />
<glyph unicode="&#x457;" horiz-adv-x="244" d="M150 523v-523h-56v523h56zM63.5 729q10.5 -11 10.5 -27q0 -17 -10.5 -28t-27.5 -11q-16 0 -27 11t-11 28q0 16 11 27t27 11q17 0 27.5 -11zM235 729q11 -11 11 -27q0 -17 -11 -28t-27 -11q-17 0 -28 11t-11 28q0 16 11 27t28 11q16 0 27 -11z" />
<glyph unicode="&#x458;" horiz-adv-x="244" d="M150 4q0 -61 -14 -98.5t-40.5 -61t-74.5 -47.5l-18 40q35 19 53.5 37.5t28 48.5t9.5 80v520h56v-519zM151.5 740q11.5 -12 11.5 -29q0 -18 -11.5 -29.5t-29.5 -11.5t-29.5 11.5t-11.5 29.5q0 17 11.5 29t29.5 12t29.5 -12z" />
<glyph unicode="&#x459;" horiz-adv-x="701" d="M668 177q0 -88 -50.5 -132.5t-133.5 -44.5h-133v477h-168l-16 -224q-8 -102 -17 -148.5t-30 -71.5t-66 -42l-15 45q29 12 42 31.5t18.5 58.5t12.5 132l19 265h276v-177h67q194 0 194 -169zM576 77q33 31 33 100q0 61 -30.5 92t-103.5 31h-68v-254h72q64 0 97 31z" />
<glyph unicode="&#x45a;" horiz-adv-x="724" d="M644.5 282.5q46.5 -42.5 46.5 -115.5q0 -82 -51 -124.5t-133 -42.5h-133v279h-224v-279h-56v523h56v-198h224v198h56v-198h67q101 0 147.5 -42.5zM633 167q0 54 -31 83t-103 29h-69v-233h72q131 0 131 121z" />
<glyph unicode="&#x45b;" horiz-adv-x="531" d="M407.5 492.5q34.5 -41.5 34.5 -113.5v-379h-56v371q0 117 -87 117q-43 0 -77.5 -29t-66.5 -82v-377h-56v617h-68v45h68v74l56 7v-81h147v-45h-147v-182q31 47 68.5 73t86.5 26q63 0 97.5 -41.5z" />
<glyph unicode="&#x45c;" horiz-adv-x="450" d="M413 523l-147 -242l170 -281h-63l-153 255h-70v-255h-56v523h56v-223h71l134 223h58zM317 779l26 -49l-177 -84l-18 31z" />
<glyph unicode="&#x45d;" horiz-adv-x="534" d="M440 0h-55v329q0 73 8 129l-234 -458h-65v523h55v-311q0 -82 -7 -145l233 456h65v-523zM200 779l169 -102l-19 -31l-177 84z" />
<glyph unicode="&#x45e;" horiz-adv-x="428" d="M250 -2q-27 -90 -69 -136.5t-125 -65.5l-7 44q47 13 74 32t43 48t33 80h-20l-163 523h58l142 -481l138 481h58zM134 678q-32 25 -38 67l37 8q17 -53 81 -53q66 0 82 53l37 -8q-5 -42 -38 -67t-81 -25t-80 25z" />
<glyph unicode="&#x45f;" horiz-adv-x="522" d="M428 523v-523h-140v-145h-43l-12 145h-139v523h56v-475h222v475h56z" />
<glyph unicode="&#x460;" horiz-adv-x="760" d="M679.5 498q16.5 -86 16.5 -207q0 -165 -47.5 -233.5t-132.5 -68.5q-57 0 -90.5 28t-47.5 84q-29 -112 -137 -112q-87 0 -132 70t-45 233q0 120 17 204.5t52 188.5h57q-36 -103 -51.5 -190t-15.5 -202q0 -98 14 -154t40.5 -78t67.5 -22q49 0 76.5 33t27.5 110v215h58v-216 q0 -78 28 -110.5t78 -32.5q39 0 66 20.5t42.5 76.5t15.5 156q0 115 -15.5 202t-50.5 192h58q34 -101 50.5 -187z" />
<glyph unicode="&#x461;" horiz-adv-x="698" d="M630 237q0 -132 -44 -190t-115 -58q-51 0 -83 28t-39 82q-10 -55 -41.5 -82.5t-83.5 -27.5q-73 0 -114.5 60.5t-41.5 188.5q0 84 14 151.5t38 133.5h56q-26 -75 -38.5 -144t-12.5 -143q0 -107 27.5 -153.5t77.5 -46.5q92 0 92 138v179l54 8v-188q0 -72 24.5 -104.5 t65.5 -32.5q49 0 78.5 44t29.5 156q0 72 -13 140.5t-38 146.5h56q51 -140 51 -286z" />
<glyph unicode="&#x462;" horiz-adv-x="552" d="M461.5 369q59.5 -51 59.5 -153q0 -111 -61 -163.5t-169 -52.5h-147v535h-144v47h144v103h58v-103h154v-47h-154v-115h90q110 0 169.5 -51zM418 87.5q42 38.5 42 128.5q0 81 -42 118.5t-125 37.5h-91v-323h95q79 0 121 38.5z" />
<glyph unicode="&#x463;" horiz-adv-x="459" d="M426 178q0 -89 -50.5 -133.5t-141.5 -44.5h-134v474h-69v45h69v117l56 6v-123h126l-7 -45h-119v-127h72q198 0 198 -169zM333.5 76.5q34.5 30.5 34.5 101.5q0 61 -32.5 92t-104.5 31h-75v-255h77q66 0 100.5 30.5z" />
<glyph unicode="&#x464;" horiz-adv-x="686" d="M666 59q-68 -70 -167 -70q-72 0 -127.5 38t-88.5 114.5t-35 188.5h-92v-330h-58v685h58v-305h93q5 104 39 175t89 106t122 35q51 0 87.5 -15.5t72.5 -47.5l-31 -37q-32 26 -60.5 38t-65.5 12q-82 0 -135 -64t-58 -202h245v-49h-245q1 -147 54 -219t138 -72 q42 0 71.5 14.5t61.5 41.5z" />
<glyph unicode="&#x465;" horiz-adv-x="625" d="M591 44q-61 -55 -137 -55q-92 0 -145.5 66t-56.5 190h-102v-245h-56v523h56v-231h103q7 115 61.5 178.5t140.5 63.5q39 0 71 -12.5t63 -40.5l-28 -35q-26 21 -50.5 31t-54.5 10q-62 0 -101.5 -49t-44.5 -146h217v-45h-217q2 -106 41 -158t104 -52q30 0 55.5 10.5 t53.5 32.5z" />
<glyph unicode="&#x466;" horiz-adv-x="527" d="M450 0l-92 313h-68v-313h-52v313h-71l-93 -313h-57l211 685h71l211 -685h-60zM181 362h163l-81 275z" />
<glyph unicode="&#x467;" horiz-adv-x="455" d="M383 0l-74 228h-58v-228h-47v228h-59l-75 -228h-54l179 523h65l179 -523h-56zM160 274h134l-67 205z" />
<glyph unicode="&#x468;" horiz-adv-x="726" d="M650 0l-92 313h-68v-313h-52v313h-71l-93 -313h-57l96 313h-157v-313h-58v685h58v-323h173l99 323h71l211 -685h-60zM381 362h163l-81 275z" />
<glyph unicode="&#x469;" horiz-adv-x="620" d="M549 0l-73 228h-56v-228h-46v228h-57l-73 -228h-54l76 228h-116v-228h-56v523h56v-249h131l83 249h66l175 -523h-56zM332 274h130l-65 204z" />
<glyph unicode="&#x46a;" horiz-adv-x="649" d="M470 379l168 -379h-63l-140 329h-83v-329h-55v329h-84l-141 -329h-61l167 379h89l-169 265v41h451v-41l-168 -265h89zM165 639l161 -260l159 260h-320z" />
<glyph unicode="&#x46b;" horiz-adv-x="566" d="M422 294l126 -294h-56l-104 249h-79v-249h-52v249h-80l-102 -249h-56l125 294h86l-129 195v34h362v-34l-129 -195h88zM164 480l119 -186l118 186h-237z" />
<glyph unicode="&#x46c;" horiz-adv-x="754" d="M599 379l145 -379h-62l-119 329h-65v-329h-55v329h-66l-118 -329h-61l124 329h-166v-329h-58v685h58v-306h258l-152 265v41h415v-41l-151 -265h73zM327 639l145 -260l144 260h-289z" />
<glyph unicode="&#x46d;" horiz-adv-x="641" d="M522 293l101 -293h-53l-83 248h-60v-248h-52v248h-59l-82 -248h-53l85 248h-116v-248h-56v523h56v-230h199l-115 196v34h329v-34l-114 -196h73zM293 481l108 -188l105 188h-213z" />
<glyph unicode="&#x46e;" horiz-adv-x="442" d="M222 756h-35l-117 103l24 27l111 -81l110 81l23 -27zM351.5 322q49.5 -49 49.5 -139q0 -88 -45.5 -135.5t-133.5 -63.5q-49 -9 -74 -17t-36 -20t-11 -33q0 -24 16 -42.5t52 -38.5l-19 -39q-53 25 -79.5 54.5t-26.5 68.5q0 48 35.5 73.5t117.5 39.5q76 13 110 48.5 t34 104.5q0 75 -36.5 108.5t-111.5 33.5h-82v45l202 266h-281v49h346v-47l-206 -267h31q99 0 148.5 -49z" />
<glyph unicode="&#x46f;" horiz-adv-x="412" d="M55.5 -150.5q-26.5 29.5 -26.5 69.5q0 47 37.5 73t116.5 37q78 12 110.5 35.5t32.5 77.5q0 83 -98 83h-126v45l188 205h-263v48h331v-44l-195 -209h67q74 0 114.5 -33.5t40.5 -95.5q-1 -71 -45 -106t-132 -50q-69 -11 -95.5 -25t-26.5 -45q0 -24 16 -42.5t52 -39.5 l-19 -39q-53 26 -79.5 55.5zM302 767l24 -27l-116 -107h-35l-117 107l25 27l110 -85z" />
<glyph unicode="&#x470;" horiz-adv-x="605" d="M570 685v-267q0 -102 -61.5 -156.5t-177.5 -60.5v-201h-58v201q-117 6 -177.5 61t-60.5 155v268h57v-264q0 -82 45 -125t137 -47v436h56v-435q92 5 137 47t45 124v264h58z" />
<glyph unicode="&#x471;" horiz-adv-x="673" d="M540 59.5q-60 -62.5 -177 -69.5v-187l-54 -8v194q-114 4 -171.5 55t-57.5 146l1 333h56l-1 -331q0 -74 42 -113t131 -43v487h54v-487q93 5 137 57.5t44 166.5q0 122 -24 263h56q13 -70 18.5 -130.5t5.5 -133.5q0 -137 -60 -199.5z" />
<glyph unicode="&#x472;" horiz-adv-x="624" d="M496.5 606q67.5 -90 67.5 -265q0 -170 -67.5 -261t-184.5 -91q-76 0 -133 39.5t-88.5 118.5t-31.5 193q0 115 31.5 195t88.5 120.5t133 40.5q117 0 184.5 -90zM175 578.5q-51 -67.5 -56 -205.5h386q-5 140 -55.5 206.5t-137.5 66.5q-86 0 -137 -67.5zM453.5 109.5 q50.5 70.5 52.5 217.5h-388q2 -145 54 -216.5t140 -71.5q91 0 141.5 70.5z" />
<glyph unicode="&#x473;" d="M406 464q53 -70 53 -201q0 -129 -54 -201.5t-148 -72.5t-147 71.5t-53 200.5t53.5 201t147.5 72q95 0 148 -70zM157 437.5q-37 -49.5 -41 -149.5h284q-9 199 -142 199q-64 0 -101 -49.5zM359.5 87q36.5 51 40.5 156h-285q3 -104 40 -155.5t102 -51.5q66 0 102.5 51z" />
</font>
</defs>
</svg>
