<?xml version="1.0" standalone="no"?>
<!DOCTYPE svg PUBLIC "-//W3C//DTD SVG 1.1//EN" "http://www.w3.org/Graphics/SVG/1.1/DTD/svg11.dtd" >
<svg xmlns="http://www.w3.org/2000/svg" xmlns:xlink="http://www.w3.org/1999/xlink" version="1.1">
<metadata></metadata>
<defs>
<font id="fira_sans_condensedXBdIt" horiz-adv-x="523" >
<font-face units-per-em="1000" ascent="800" descent="-200" />
<missing-glyph horiz-adv-x="191" />
<glyph unicode="&#xfb01;" horiz-adv-x="536" />
<glyph unicode="&#xfb02;" horiz-adv-x="568" />
<glyph horiz-adv-x="0" />
<glyph unicode="&#xd;" horiz-adv-x="191" />
<glyph unicode=" "  horiz-adv-x="191" />
<glyph unicode="&#x09;" horiz-adv-x="191" />
<glyph unicode="&#xa0;" horiz-adv-x="191" />
<glyph unicode="!" horiz-adv-x="228" d="M45 260l38 434h176l-83 -434h-131zM21 5.5q-22 23.5 -22 59.5q0 43 29.5 74t72.5 31q37 0 59 -23.5t22 -60.5q0 -44 -29.5 -74t-72.5 -30q-37 0 -59 23.5z" />
<glyph unicode="&#x22;" horiz-adv-x="430" d="M78 411l22 283h144l-58 -283h-108zM284 411l22 283h144l-58 -283h-108z" />
<glyph unicode="#" horiz-adv-x="512" d="M523 439h-59l-49 -189h49l-16 -109h-61l-36 -141h-133l36 141h-77l-36 -141h-132l36 141h-50l16 109h62l48 189h-50l15 110h62l33 128h135l-33 -128h75l33 128h134l-33 -128h47zM282 250l48 189h-76l-48 -189h76z" />
<glyph unicode="$" horiz-adv-x="495" d="M435 338.5q36 -43.5 36 -110.5q0 -87 -53 -150.5t-150 -81.5l-23 -158h-115l22 155q-110 13 -177 95l93 88q61 -63 133 -63q44 0 70 24t26 64q0 29 -19.5 48.5t-70.5 42.5q-78 32 -113 73.5t-35 102.5q0 82 54.5 142t145.5 74l20 147h116l-22 -149q83 -17 143 -83 l-84 -85q-57 51 -117 51q-39 0 -60.5 -18.5t-21.5 -49.5q0 -26 19.5 -43t72.5 -40q74 -32 110 -75.5z" />
<glyph unicode="%" horiz-adv-x="784" d="M614 721l-510 -702l88 -60l513 702zM97 367.5q-40 39.5 -40 109.5q0 54 22 103.5t65 80.5t103 31q63 0 102.5 -39t39.5 -109q0 -54 -21.5 -104t-64 -81t-102.5 -31q-64 0 -104 39.5zM260 462.5q16 36.5 16 80.5q0 51 -39 51q-37 0 -52 -36t-15 -80q0 -52 40 -52 q34 0 50 36.5zM455 21.5q-40 39.5 -40 109.5q0 54 22 103.5t64.5 80.5t102.5 31q64 0 103 -39t39 -109q0 -54 -21.5 -104t-64 -81t-102.5 -31q-63 0 -103 39.5zM617.5 116.5q16.5 36.5 16.5 80.5q0 51 -39 51q-37 0 -52 -36t-15 -80q0 -52 39 -52q34 0 50.5 36.5z" />
<glyph unicode="&#x26;" horiz-adv-x="705" d="M482.5 670.5q50.5 -42.5 50.5 -108.5q0 -60 -35 -107t-110 -97l91 -118q31 57 55 128l127 -39q-42 -94 -106 -177l91 -105l-146 -65l-55 71q-49 -37 -98 -54t-105 -17q-61 0 -107 22t-71 61.5t-25 89.5q0 69 35.5 119.5t112.5 100.5q-35 42 -49.5 75t-14.5 70q0 53 25 97 t75 70t121 26q88 0 138.5 -42.5zM295 580q-15 -24 -15 -56q0 -21 6.5 -38.5t22.5 -40.5q36 29 52 56.5t16 60.5q0 20 -10.5 31t-29.5 11q-27 0 -42 -24zM226.5 226.5q-11.5 -26.5 -11.5 -59.5q0 -32 16.5 -49t48.5 -17q49 0 94 34l-108 143q-28 -25 -39.5 -51.5z" />
<glyph unicode="'" horiz-adv-x="224" d="M78 411l22 283h144l-58 -283h-108z" />
<glyph unicode="(" horiz-adv-x="295" d="M364 787q-95 -123 -142 -273t-47 -309q0 -88 16 -158.5t49 -140.5l-117 -66q-37 72 -59 125t-37 119t-15 143q0 129 28.5 234.5t82.5 198.5t140 202z" />
<glyph unicode=")" horiz-adv-x="296" d="M255.5 734.5q22.5 -52.5 37.5 -119t15 -144.5q0 -127 -29 -232.5t-83.5 -199t-140.5 -201.5l-99 75q95 124 141 272t46 308q0 89 -15.5 160.5t-48.5 140.5l117 66q37 -73 59.5 -125.5z" />
<glyph unicode="*" horiz-adv-x="418" d="M448 530l-130 -22l80 -104l-127 -79l-37 123l-69 -124l-108 79l105 106l-119 21l57 130l106 -59l-5 142h147l-43 -142l116 61z" />
<glyph unicode="+" horiz-adv-x="486" d="M352 554l-22 -157h135l-18 -131h-136l-23 -157h-135l23 157h-137l19 131h137l22 157h135z" />
<glyph unicode="," horiz-adv-x="227" d="M156 148q22 -22 22 -58q0 -26 -10 -50t-39 -78l-79 -141h-88l66 179q-32 23 -32 64q0 44 29 75t73 31q36 0 58 -22z" />
<glyph unicode="-" horiz-adv-x="370" d="M34 248l18 130h297l-18 -130h-297z" />
<glyph unicode="." horiz-adv-x="229" d="M18 5.5q-22 23.5 -22 59.5q0 43 29.5 74t72.5 31q37 0 59 -23.5t22 -60.5q0 -44 -29.5 -74t-72.5 -30q-37 0 -59 23.5z" />
<glyph unicode="/" horiz-adv-x="465" d="M341 819l141 -35l-334 -898l-141 36z" />
<glyph unicode="0" horiz-adv-x="545" d="M160.5 623.5q-65.5 -68.5 -95 -173.5t-29.5 -218q0 -123 51 -186.5t149 -63.5q102 0 168 69t95.5 174.5t29.5 217.5q0 121 -51 185t-149 64q-103 0 -168.5 -68.5zM354.5 549q11.5 -18 11.5 -62q0 -78 -14 -167t-41 -151t-66 -62q-23 0 -34.5 18.5t-11.5 62.5 q0 76 13.5 165t41 151.5t66.5 62.5q23 0 34.5 -18z" />
<glyph unicode="1" horiz-adv-x="428" d="M416 678l-94 -678h-162l69 503l-136 -83l-57 117l231 141h149z" />
<glyph unicode="2" horiz-adv-x="467" d="M414.5 643q51.5 -49 51.5 -126q0 -55 -26 -109t-87.5 -120.5t-169.5 -159.5l242 2l-35 -130h-407l15 121q119 113 179.5 177.5t88.5 112t28 91.5q0 29 -15.5 45t-41.5 16q-29 0 -55 -16t-59 -51l-87 81q47 56 103.5 85.5t127.5 29.5q96 0 147.5 -49z" />
<glyph unicode="3" horiz-adv-x="470" d="M409 647q51 -45 51 -115q0 -64 -39 -109.5t-119 -65.5q61 -7 96.5 -40t35.5 -94t-31.5 -116.5t-93 -90t-145.5 -34.5q-134 0 -206 106l100 82q24 -32 49 -46t57 -14q43 0 71.5 31.5t28.5 86.5q0 68 -80 68h-52l35 116h33q46 0 70.5 27.5t24.5 69.5q0 58 -61 58 q-60 0 -122 -57l-71 92q51 45 106.5 67.5t119.5 22.5q91 0 142 -45z" />
<glyph unicode="4" horiz-adv-x="518" d="M504 269l-18 -127h-63l-20 -142h-161l19 142h-260l16 113l227 441l137 -51l-186 -376h85l41 156h141l-22 -156h64z" />
<glyph unicode="5" horiz-adv-x="491" d="M459 557h-213l-19 -133q45 23 91 23q66 0 106 -46t40 -131q0 -74 -32 -140t-96.5 -107t-155.5 -41q-131 0 -199 105l101 82q22 -29 46 -44.5t56 -15.5q54 0 82 44.5t28 107.5q0 70 -57 70q-18 0 -35.5 -5.5t-38.5 -18.5h-111l52 371h389z" />
<glyph unicode="6" horiz-adv-x="521" d="M462.5 411.5q39.5 -46.5 39.5 -130.5q0 -75 -29 -143.5t-88.5 -112t-144.5 -43.5q-105 0 -156.5 60.5t-51.5 173.5q0 121 41 230.5t117.5 177.5t178.5 68q81 0 139 -46l-72 -96q-33 22 -72 22q-46 0 -82 -43t-57 -127q59 56 130 56q68 0 107.5 -46.5zM314 161.5 q22 58.5 22 121.5q0 33 -10.5 46.5t-31.5 13.5q-40 0 -85 -50q-9 -73 -9 -111q0 -43 11.5 -61t35.5 -18q45 0 67 58.5z" />
<glyph unicode="7" horiz-adv-x="423" d="M471 677l-16 -114l-295 -580l-144 51l265 516h-235l18 127h407z" />
<glyph unicode="8" horiz-adv-x="530" d="M475.5 294.5q23.5 -37.5 23.5 -84.5q0 -67 -34 -118.5t-96 -80.5t-143 -29q-70 0 -119.5 23.5t-74.5 64.5t-25 91q0 59 34.5 107.5t105.5 80.5q-70 53 -70 133q0 58 29 106t84 76t130 28q93 0 148.5 -42t55.5 -114q0 -51 -28.5 -94.5t-94.5 -79.5q51 -30 74.5 -67.5z M254.5 551q-17.5 -28 -17.5 -66q0 -25 11.5 -41.5t38.5 -30.5l14 -6q35 26 49 55t14 62q0 55 -53 55q-39 0 -56.5 -28zM310 132.5q24 29.5 24 74.5q0 29 -15 47t-54 36l-24 10q-36 -25 -52 -59t-16 -70q0 -33 17.5 -50.5t50.5 -17.5q45 0 69 29.5z" />
<glyph unicode="9" horiz-adv-x="518" d="M466 635.5q54 -56.5 54 -154.5q0 -189 -111 -326.5t-356 -184.5l-22 118q122 32 187.5 76.5t101.5 126.5q-30 -30 -60 -44t-68 -14q-66 0 -108 48.5t-42 131.5q0 72 30.5 136t91 103.5t145.5 39.5q103 0 157 -56.5zM257 349q43 0 87 57q7 57 7 96t-12 55.5t-39 16.5 q-46 0 -68 -48.5t-22 -106.5q0 -70 47 -70z" />
<glyph unicode=":" horiz-adv-x="229" d="M18 5.5q-22 23.5 -22 59.5q0 43 29.5 74t72.5 31q37 0 59 -23.5t22 -60.5q0 -44 -29.5 -74t-72.5 -30q-37 0 -59 23.5zM66 345.5q-22 23.5 -22 59.5q0 43 29.5 74t72.5 31q37 0 59 -23.5t22 -60.5q0 -44 -29.5 -74t-72.5 -30q-37 0 -59 23.5z" />
<glyph unicode=";" horiz-adv-x="230" d="M157 148q22 -22 22 -58q0 -26 -10 -50t-39 -78l-79 -141h-88l66 179q-32 23 -32 64q0 44 29 75t73 31q36 0 58 -22zM67 345.5q-22 23.5 -22 59.5q0 43 29.5 74t72.5 31q37 0 59 -23.5t22 -60.5q0 -44 -29.5 -74t-72.5 -30q-37 0 -59 23.5z" />
<glyph unicode="&#x3c;" horiz-adv-x="470" d="M435 580l39 -123l-302 -127l263 -127l-71 -118l-340 174l20 148z" />
<glyph unicode="=" horiz-adv-x="472" d="M54 373l19 130h392l-18 -130h-393zM24 160l19 130h392l-18 -130h-393z" />
<glyph unicode="&#x3e;" horiz-adv-x="469" d="M124 580l340 -174l-20 -147l-391 -174l-38 127l303 126l-264 127z" />
<glyph unicode="?" horiz-adv-x="440" d="M422 667.5q49 -44.5 49 -111.5q0 -47 -17.5 -80t-41.5 -53t-63 -44q-43 -27 -63 -46.5t-20 -50.5q0 -15 3 -24l-148 -23q-8 30 -8 52q0 45 15.5 76t37.5 49.5t56 40.5q37 25 54.5 43t17.5 45q0 19 -11.5 28.5t-31.5 9.5q-47 0 -105 -58l-90 84q94 107 227 107 q90 0 139 -44.5zM120 5.5q-22 23.5 -22 59.5q0 43 29.5 74t72.5 31q37 0 59 -23.5t22 -60.5q0 -44 -29.5 -74t-72.5 -30q-37 0 -59 23.5z" />
<glyph unicode="@" horiz-adv-x="920" d="M723.5 666q81.5 -46 123.5 -125t42 -176q0 -90 -29 -173.5t-84 -136t-129 -52.5q-49 0 -79.5 28t-35.5 69q-49 -93 -138 -93q-67 0 -103.5 45.5t-36.5 122.5q0 80 26.5 156t83 125t141.5 49q40 0 81.5 -13t75.5 -34l-37 -270q-4 -34 -4 -45q0 -37 24 -37q30 0 53 41 t35 102.5t12 118.5q0 109 -56 166t-169 57q-119 0 -195.5 -63.5t-111 -162t-34.5 -206.5q0 -125 63.5 -192.5t186.5 -67.5q42 0 89.5 10t84.5 24l25 -114q-46 -19 -103.5 -30.5t-110.5 -11.5q-120 0 -206 47.5t-131.5 134.5t-45.5 203q0 134 57.5 261t171 208t270.5 81 q112 0 193.5 -46zM482 151l35 245q-13 5 -26 5q-32 0 -53 -38t-30.5 -92.5t-9.5 -105.5q0 -30 7.5 -42.5t24.5 -12.5q29 0 52 41z" />
<glyph unicode="A" horiz-adv-x="538" d="M335 0l-7 145h-156l-45 -145h-181l278 694h209l83 -694h-181zM212 271h110l-14 307z" />
<glyph unicode="B" horiz-adv-x="554" d="M496.5 321.5q34.5 -32.5 34.5 -95.5q0 -106 -78 -166t-231 -60h-213l97 694h194q118 0 184 -39t66 -118q0 -69 -41.5 -111t-105.5 -59q59 -13 93.5 -45.5zM349.5 445.5q22.5 26.5 22.5 71.5q0 28 -17.5 41t-53.5 13h-39l-21 -152h36q50 0 72.5 26.5zM354 237 q0 35 -20.5 51t-60.5 16h-48l-25 -177h39q115 0 115 110z" />
<glyph unicode="C" horiz-adv-x="521" d="M563 630l-91 -90q-23 21 -46.5 32t-52.5 11q-57 0 -93.5 -52t-52.5 -127.5t-16 -150.5q0 -136 93 -136q31 0 58 13.5t65 41.5l64 -100q-43 -40 -98 -65t-121 -25q-111 0 -176 70.5t-65 205.5q0 117 37 221t114 169t191 65q118 0 190 -83z" />
<glyph unicode="D" horiz-adv-x="591" d="M504.5 638.5q77.5 -55.5 77.5 -198.5q0 -199 -88 -319.5t-281 -120.5h-204l97 694h191q130 0 207.5 -55.5zM262 568l-61 -441h38q90 0 128 96t38 220q0 69 -25.5 97t-75.5 28h-42z" />
<glyph unicode="E" horiz-adv-x="464" d="M504 694l-37 -125h-204l-22 -155h180l-17 -123h-180l-23 -165h221l-18 -126h-395l97 694h398z" />
<glyph unicode="F" horiz-adv-x="433" d="M491 694l-37 -125h-191l-25 -174h170l-18 -125h-169l-38 -270h-174l97 694h385z" />
<glyph unicode="G" horiz-adv-x="584" d="M511.5 688.5q51.5 -24.5 86.5 -65.5l-94 -85q-29 26 -54.5 37t-58.5 11q-67 0 -108 -54.5t-58.5 -135.5t-17.5 -168q0 -63 20 -90.5t61 -27.5q38 0 76 22l21 147h-68l1 123h249l-47 -345q-54 -36 -118 -55.5t-124 -19.5q-125 0 -187 67.5t-62 199.5q0 121 40.5 226.5 t122.5 171.5t202 66q66 0 117.5 -24.5z" />
<glyph unicode="H" horiz-adv-x="589" d="M182 0h-174l98 694h174l-37 -265h148l38 265h173l-97 -694h-173l40 292h-148z" />
<glyph unicode="I" horiz-adv-x="267" d="M280 694l-97 -694h-174l97 694h174z" />
<glyph unicode="J" horiz-adv-x="291" d="M224 103q-12 -86 -49 -141t-87 -85t-119 -53l-31 124q58 25 80.5 61t32.5 105l82 580h173z" />
<glyph unicode="K" horiz-adv-x="587" d="M9 0l97 694h174l-97 -694h-174zM368 0l-128 370l222 324h179l-224 -320l143 -374h-192z" />
<glyph unicode="L" horiz-adv-x="461" d="M280 694l-78 -556h235l-38 -138h-390l97 694h174z" />
<glyph unicode="M" horiz-adv-x="712" d="M651 0h-170l29 264q16 137 44 298l-143 -490h-167l-19 489q-9 -169 -29 -300l-41 -261h-169l141 694h209l11 -478l133 478h223z" />
<glyph unicode="N" horiz-adv-x="586" d="M502 0h-213l-85 548l1 -33q2 -46 2 -71q0 -98 -15 -210l-31 -234h-152l97 694h212l85 -548l-1 41q-2 44 -2 64q0 82 13 190l34 253h152z" />
<glyph unicode="O" horiz-adv-x="624" d="M553.5 643q62.5 -70 62.5 -203q0 -117 -35 -221t-112 -170.5t-195 -66.5t-180.5 70t-62.5 202q0 117 35 221.5t111.5 171t194.5 66.5q119 0 181.5 -70zM271.5 525q-34.5 -59 -49 -141t-14.5 -155q0 -63 19.5 -91t58.5 -28q56 0 90 58.5t48 140t14 156.5q0 63 -19 91 t-58 28q-55 0 -89.5 -59z" />
<glyph unicode="P" horiz-adv-x="540" d="M494.5 644.5q63.5 -49.5 63.5 -144.5q0 -75 -32 -137t-98 -99t-162 -37h-52l-31 -227h-174l97 694h206q119 0 182.5 -49.5zM354 394q26 41 26 100q0 39 -19.5 57.5t-61.5 18.5h-37l-30 -217h34q62 0 88 41z" />
<glyph unicode="Q" horiz-adv-x="623" d="M570 201q-46 -108 -144 -157q63 -2 105 -19t76 -50l-122 -131q-37 64 -86.5 102t-124.5 38q-119 0 -181 69t-62 201q0 117 35 221.5t111.5 171t194.5 66.5q119 0 181.5 -70t62.5 -203q0 -131 -46 -239zM227.5 137.5q19.5 -27.5 58.5 -27.5q56 0 90 58.5t48 140.5t14 158 q0 61 -19 89t-58 28q-55 0 -89.5 -59.5t-49 -142t-14.5 -156.5q0 -61 19.5 -88.5z" />
<glyph unicode="R" horiz-adv-x="556" d="M527.5 382.5q-32.5 -53.5 -106.5 -91.5l111 -291h-185l-84 259h-44l-36 -259h-174l97 694h208q123 0 184.5 -48t61.5 -137q0 -73 -32.5 -126.5zM236 380h42q55 0 79.5 35.5t24.5 86.5q0 36 -20 52.5t-60 16.5h-39z" />
<glyph unicode="S" horiz-adv-x="519" d="M539 620l-88 -90q-28 28 -58 41t-66 13q-41 0 -64 -19.5t-23 -50.5q0 -28 21 -46t83 -44q77 -32 114 -76.5t37 -117.5q0 -67 -32.5 -123.5t-96.5 -90.5t-153 -34q-149 0 -238 102l96 94q32 -32 66 -48.5t78 -16.5q47 0 73.5 23.5t26.5 63.5q0 33 -22 54.5t-80 46.5 q-81 33 -116.5 76t-35.5 110q0 63 31 114.5t90 81.5t139 30q136 0 218 -93z" />
<glyph unicode="T" horiz-adv-x="488" d="M551 694l-37 -134h-142l-78 -560h-174l78 560h-153l19 134h487z" />
<glyph unicode="U" horiz-adv-x="576" d="M532 213q-9 -66 -44 -118.5t-95 -82.5t-141 -30q-111 0 -168.5 53.5t-57.5 142.5q0 19 3 40l67 476h174l-68 -486q-2 -20 -2 -27q0 -69 64 -69q80 0 93 99l68 483h174z" />
<glyph unicode="V" horiz-adv-x="518" d="M594 694l-255 -694h-224l-71 694h179l23 -562l169 562h179z" />
<glyph unicode="W" horiz-adv-x="765" d="M819 694l-189 -694h-227l13 523l-134 -523h-224l8 694h170l-32 -562l149 562h179l-16 -562l136 562h167z" />
<glyph unicode="X" horiz-adv-x="530" d="M584 694l-204 -320l120 -374h-184l-54 264l-120 -264h-188l218 369l-109 325h184l41 -226l109 226h187z" />
<glyph unicode="Y" horiz-adv-x="542" d="M614 694l-257 -435l-36 -259h-174l36 258l-135 436h184l58 -301l138 301h186z" />
<glyph unicode="Z" horiz-adv-x="489" d="M-27 0l18 131l320 427h-236l20 136h430l-19 -133l-318 -421h269l-38 -140h-446z" />
<glyph unicode="[" horiz-adv-x="291" d="M354 824l-17 -126h-100l-96 -697h99l-18 -125h-259l135 948h256z" />
<glyph unicode="\" horiz-adv-x="467" d="M278 814l85 -898l-151 -30l-84 898z" />
<glyph unicode="]" horiz-adv-x="290" d="M351 824l-134 -948h-257l18 125h99l96 698h-97l17 125h258z" />
<glyph unicode="^" horiz-adv-x="507" d="M411 845l123 -318h-159l-59 193l-104 -193h-166l212 318h153z" />
<glyph unicode="_" horiz-adv-x="464" d="M-54 -176l18 131h449l-19 -131h-448z" />
<glyph unicode="`" horiz-adv-x="323" d="M166 837l186 -138l-48 -77l-211 93z" />
<glyph unicode="a" d="M514 496l-48 -337q-2 -20 -2 -27q0 -14 5 -22.5t17 -14.5l-50 -110q-45 4 -77.5 24t-44.5 57q-29 -41 -63.5 -62.5t-80.5 -21.5q-74 0 -114 53.5t-40 146.5t30 177t96.5 138t169.5 54q105 0 202 -55zM215 354.5q-29 -76.5 -29 -174.5q0 -41 11 -57.5t31 -16.5q35 0 74 62 l37 257q-20 6 -38 6q-57 0 -86 -76.5z" />
<glyph unicode="b" horiz-adv-x="533" d="M478 501.5q37 -49.5 37 -142.5q0 -163 -69.5 -270t-230.5 -107q-102 0 -206 45l100 716l169 18l-37 -271q25 28 59.5 44.5t71.5 16.5q69 0 106 -49.5zM225 374l-36 -260q25 -9 48 -9q36 0 60.5 38t36 95t11.5 113q0 43 -11.5 59.5t-32.5 16.5q-37 0 -76 -53z" />
<glyph unicode="c" horiz-adv-x="431" d="M466 482l-81 -94q-37 33 -78 33q-60 0 -87 -66.5t-27 -152.5q0 -49 16.5 -68.5t47.5 -19.5q21 0 40.5 8t46.5 25l60 -103q-78 -62 -174 -62q-99 0 -155 59.5t-56 164.5q0 88 32 167t96.5 128.5t155.5 49.5q99 0 163 -69z" />
<glyph unicode="d" horiz-adv-x="534" d="M558 743l-104 -743h-148l2 67q-28 -41 -62 -63t-81 -22q-72 0 -110 52.5t-38 148.5q0 89 26.5 173.5t80 139.5t130.5 55q65 0 103 -48l36 257zM232 387.5q-23 -39.5 -33.5 -96t-10.5 -107.5q0 -44 10.5 -61.5t30.5 -17.5q37 0 83 77l30 215q-19 30 -52 30 q-35 0 -58 -39.5z" />
<glyph unicode="e" horiz-adv-x="495" d="M445.5 510q49.5 -41 49.5 -105q0 -180 -311 -213v-1q0 -45 19 -65t55 -20q29 0 56.5 11t63.5 36l58 -98q-93 -73 -206 -73q-102 0 -157 56t-55 159q0 91 31 172t96.5 131.5t164.5 50.5q86 0 135.5 -41zM298 329.5q32 30.5 32 70.5q0 39 -38 39t-62.5 -41.5t-36.5 -104.5 q73 6 105 36.5z" />
<glyph unicode="f" horiz-adv-x="326" d="M296 620q-16 -17 -22 -55l-5 -33h112l-35 -117h-93l-48 -352q-12 -88 -46.5 -143.5t-83 -86.5t-118.5 -56l-39 122q56 22 83 55t37 102l49 359h-65l16 117h65l6 43q11 83 66.5 134.5t148.5 51.5q81 0 143 -45l-59 -99q-33 20 -68 20q-28 0 -44 -17z" />
<glyph unicode="g" horiz-adv-x="525" d="M518 496l-65 -460q-20 -136 -83.5 -198t-184.5 -62q-50 0 -99 15.5t-89 42.5l57 108q67 -38 127 -38q43 0 70.5 22t35.5 83l8 57q-51 -66 -125 -66q-73 0 -112.5 53t-39.5 144t30 171t96.5 131.5t170.5 51.5q106 0 203 -55zM217 360q-29 -71 -29 -163q0 -40 11 -56.5 t32 -16.5q36 0 77 62l34 239q-19 6 -38 6q-58 0 -87 -71z" />
<glyph unicode="h" horiz-adv-x="510" d="M463 518q29 -33 29 -92q0 -16 -3 -36l-55 -390h-167l49 356q1 7 1 19q0 29 -19 29q-18 0 -38.5 -27t-46.5 -82l-41 -295h-167l104 743l169 17l-42 -307q25 43 63 70.5t84 27.5q51 0 80 -33z" />
<glyph unicode="i" horiz-adv-x="254" d="M247 532l-74 -532h-167l74 532h167zM117 649.5q-23 22.5 -23 59.5q0 46 31 76.5t76 30.5q40 0 63 -22.5t23 -59.5q0 -46 -31 -76.5t-76 -30.5q-40 0 -63 22.5z" />
<glyph unicode="j" horiz-adv-x="253" d="M-105 -102q56 23 83 56.5t36 101.5l66 476h168l-66 -469q-13 -88 -47.5 -143.5t-83 -86.5t-117.5 -56zM117 649.5q-23 22.5 -23 59.5q0 46 31 76.5t76 30.5q40 0 63 -22.5t23 -59.5q0 -46 -31 -76.5t-76 -30.5q-40 0 -63 22.5z" />
<glyph unicode="k" horiz-adv-x="526" d="M239 469q36 42 75 61.5t85 19.5q61 0 97.5 -34t36.5 -90q0 -61 -31.5 -106t-97.5 -80l77 -240h-177l-72 256q73 27 102.5 61t29.5 76q0 20 -9.5 30t-25.5 10q-53 0 -110 -97l-46 -336h-168l104 743l170 17z" />
<glyph unicode="l" horiz-adv-x="266" d="M188 147l-1 -9q0 -21 19 -21q10 0 19 3l15 -118q-45 -20 -99 -20q-60 0 -92 31.5t-32 89.5q0 16 3 34l85 606l168 17z" />
<glyph unicode="m" horiz-adv-x="747" d="M700 518q29 -33 29 -91q0 -18 -3 -36l-55 -391h-167l49 356q2 18 2 23q0 28 -18 28q-16 0 -33.5 -26.5t-38.5 -78.5l-43 -302h-167l49 356q2 18 2 22q0 29 -19 29q-32 0 -72 -110l-42 -297h-167l74 532h146l-2 -80q65 99 147 99q44 0 71.5 -24t34.5 -69q28 43 65 68 t79 25q50 0 79 -33z" />
<glyph unicode="n" horiz-adv-x="511" d="M464 518q29 -33 29 -92q0 -16 -3 -36l-55 -390h-167l49 356q1 7 1 19q0 29 -19 29q-18 0 -38 -27t-46 -82l-42 -295h-167l74 532h146l-2 -85q31 48 72 76t88 28q51 0 80 -33z" />
<glyph unicode="o" horiz-adv-x="528" d="M73.5 38.5q-54.5 56.5 -54.5 162.5q0 90 29.5 170t93 130t159.5 50q98 0 153 -57t55 -163q-1 -90 -30.5 -169.5t-93 -129.5t-159.5 -50q-98 0 -152.5 56.5zM315 184.5q24 78.5 24 165.5q0 41 -12 58.5t-38 17.5q-53 0 -77 -78t-24 -165q0 -41 12.5 -59t37.5 -18 q53 0 77 78.5z" />
<glyph unicode="p" horiz-adv-x="532" d="M80 532h149l-1 -53q63 72 144 72q70 0 107 -50t37 -142q0 -100 -27.5 -185.5t-86.5 -138.5t-150 -53q-45 0 -81 12l-28 -201l-168 -17zM298.5 144q24.5 40 36 98t11.5 111q0 41 -11.5 57.5t-32.5 16.5q-39 0 -76 -52l-37 -261q27 -10 47 -10q38 0 62.5 40z" />
<glyph unicode="q" horiz-adv-x="527" d="M290 40q-20 -25 -51 -41.5t-69 -16.5q-73 0 -113 53.5t-40 146.5q0 96 30.5 179.5t97 136.5t169.5 53q108 0 204 -55l-97 -703l-168 -17zM306 168l37 257q-19 6 -40 6q-57 0 -86.5 -75t-29.5 -176q0 -41 11 -57.5t32 -16.5q37 0 76 62z" />
<glyph unicode="r" horiz-adv-x="362" d="M408 540l-50 -164q-21 6 -41 6q-39 0 -64 -37.5t-46 -105.5l-34 -239h-167l74 532h144l-1 -92q25 51 59.5 79.5t77.5 28.5q24 0 48 -8z" />
<glyph unicode="s" horiz-adv-x="436" d="M354.5 532.5q47.5 -18.5 81.5 -50.5l-72 -90q-52 38 -105 38q-27 0 -42 -11t-15 -29t17.5 -30.5t71.5 -33.5q59 -24 88.5 -59.5t29.5 -92.5q0 -55 -27.5 -98.5t-79.5 -68.5t-123 -25q-65 0 -118 23t-89 62l85 87q57 -52 120 -52q31 0 48 13.5t17 35.5t-17.5 36t-69.5 35 q-61 24 -89.5 58t-28.5 90q0 51 26.5 92t76 65t113.5 24q54 0 101.5 -18.5z" />
<glyph unicode="t" horiz-adv-x="351" d="M213 172q-1 -6 -1 -18q0 -38 32 -38q19 0 47 13l40 -107q-30 -20 -68 -30t-73 -10q-71 0 -109 38.5t-38 109.5q0 21 3 43l34 242h-61l16 117h68l31 117l148 17l-19 -134h107l-36 -117h-87z" />
<glyph unicode="u" horiz-adv-x="506" d="M49 15.5q-30 33.5 -30 92.5q0 17 3 36l54 388h167l-50 -361q-1 -7 -1 -17q0 -30 22 -30q31 0 71 67l48 341h167l-75 -532h-145l3 73q-31 -43 -67 -67t-82 -24q-55 0 -85 33.5z" />
<glyph unicode="v" horiz-adv-x="466" d="M513 532l-212 -532h-202l-71 532h177l13 -405l121 405h174z" />
<glyph unicode="w" horiz-adv-x="684" d="M719 532l-168 -532h-190l-3 380l-103 -380h-194l-21 532h168l-22 -404l119 404h158l-2 -404l98 404h160z" />
<glyph unicode="x" horiz-adv-x="466" d="M491 532l-154 -252l105 -280h-177l-46 190l-95 -190h-176l184 283l-98 249h179l33 -167l73 167h172z" />
<glyph unicode="y" horiz-adv-x="471" d="M303 -1q-45 -110 -124 -163.5t-198 -59.5l-3 117q71 9 107.5 32t63.5 75h-59l-62 532h173l9 -424l133 424h176z" />
<glyph unicode="z" horiz-adv-x="416" d="M436 532l-16 -119l-231 -285h198l-33 -128h-384l16 120l231 286h-174l19 126h374z" />
<glyph unicode="{" horiz-adv-x="288" d="M338 723q-35 0 -49 -13t-19 -47l-23 -175q-8 -65 -37.5 -95t-85.5 -45q43 -9 64 -31.5t21 -69.5q0 -17 -3 -38l-24 -175q-1 -7 -1 -18q0 -21 11.5 -30t41.5 -9l-15 -118q-102 0 -148 34t-46 103q0 17 3 36l23 172q3 18 3 31q0 25 -11 35t-38 10l20 140q33 0 48.5 17.5 t21.5 60.5l23 172q8 61 30.5 97.5t71 55t133.5 18.5z" />
<glyph unicode="|" horiz-adv-x="324" d="M317 811l-129 -917h-156l128 917h157z" />
<glyph unicode="}" horiz-adv-x="288" d="M-26 -23q35 0 49 13t19 47l23 175q8 65 37.5 95t85.5 45q-43 9 -64 31.5t-21 70.5q0 16 3 37l24 175q1 7 1 18q0 21 -11.5 30t-41.5 9l15 118q102 0 148 -34t46 -103q0 -16 -3 -36l-23 -172q-3 -18 -3 -31q0 -25 11 -35t38 -10l-20 -140q-33 0 -48.5 -17.5t-20.5 -60.5 l-23 -172q-9 -61 -31.5 -97.5t-71 -55t-133.5 -18.5z" />
<glyph unicode="~" horiz-adv-x="472" d="M257 238.5q-21 9.5 -44 26.5q-16 12 -27.5 18t-25.5 6q-21 0 -35.5 -13t-34.5 -40l-78 48q37 60 76.5 95.5t91.5 35.5q29 0 49.5 -9.5t42.5 -26.5q17 -13 28.5 -18.5t24.5 -5.5q22 0 37 12.5t33 38.5l80 -48q-36 -59 -76 -94t-92 -35q-29 0 -50 9.5z" />
<glyph unicode="&#xa1;" horiz-adv-x="228" d="M68 347.5q-22 23.5 -22 59.5q0 43 29.5 74t72.5 31q37 0 59 -23.5t22 -60.5q0 -44 -29.5 -74t-72.5 -30q-37 0 -59 23.5zM173 233l-40 -439h-175l84 439h131z" />
<glyph unicode="&#xa2;" horiz-adv-x="431" d="M404 44q-62 -49 -133 -59l-22 -147h-116l23 154q-66 20 -101.5 75.5t-35.5 138.5q0 76 24 146t72.5 121t117.5 69l22 151h114l-21 -146q69 -13 118 -65l-81 -94q-37 33 -78 33q-60 0 -87 -66.5t-27 -152.5q0 -49 16.5 -68.5t47.5 -19.5q21 0 40.5 8t46.5 25z" />
<glyph unicode="&#xa3;" horiz-adv-x="488" d="M237.5 175q-16.5 -27 -57.5 -48h270l-37 -127h-428l18 122q36 11 54 26.5t25.5 36t10.5 55.5l9 69h-61l13 86h60l13 95q14 94 71 148t153 54q124 0 179 -103l-106 -69q-13 26 -28 36t-37 10q-31 0 -47 -19.5t-21 -61.5l-12 -90h153l-13 -86h-152l-8 -63q-5 -44 -21.5 -71 z" />
<glyph unicode="&#xa4;" horiz-adv-x="504" d="M432 224l73 -82l-75 -66l-68 75q-47 -28 -104 -28q-59 0 -105 29l-69 -76l-72 67l73 82q-28 51 -28 117q0 65 28 116l-74 84l76 66l67 -76q47 28 104 28q59 0 105 -29l69 77l73 -67l-73 -82q28 -51 28 -117q0 -67 -28 -118zM315.5 260q18.5 26 18.5 82q0 55 -18.5 81 t-57.5 26t-58 -26t-19 -81q0 -56 19 -82t58 -26t57.5 26z" />
<glyph unicode="&#xa5;" horiz-adv-x="514" d="M584 677l-199 -324h83l-12 -86h-115l-10 -68h116l-13 -86h-114l-16 -113h-166l16 113h-116l14 86h113l10 68h-115l13 86h81l-108 324h170l60 -279l134 279h174z" />
<glyph unicode="&#xa6;" horiz-adv-x="324" d="M317 811l-52 -368h-157l52 368h157zM240 262l-52 -368h-156l51 368h157z" />
<glyph unicode="&#xa7;" horiz-adv-x="500" d="M436 406q30 -31 30 -80q0 -48 -25.5 -83t-73.5 -62q23 -19 33.5 -41.5t10.5 -51.5q0 -47 -26 -86.5t-77 -63.5t-124 -24q-103 0 -176 58l66 95q28 -19 53.5 -28t54.5 -9q37 0 54 13t17 35t-18 35.5t-74 34.5q-58 21 -87 51t-29 80q0 88 97 142q-41 38 -41 95q0 50 27 90 t77 63t116 23q51 0 97.5 -16t81.5 -44l-67 -91q-50 35 -107 35q-35 0 -51.5 -13t-16.5 -35q0 -21 18 -34.5t73 -34.5q57 -22 87 -53zM291 228q30 35 30 66q0 20 -16 35.5t-54 30.5l-36 15q-25 -31 -25 -64q0 -20 12 -34t40 -26q35 -16 49 -23z" />
<glyph unicode="&#xa8;" horiz-adv-x="443" d="M114 659q-20 20 -20 52q0 40 27 66.5t66 26.5q34 0 54 -19.5t20 -52.5q0 -40 -27 -66.5t-66 -26.5q-34 0 -54 20zM330 659q-20 20 -20 52q0 40 27 66.5t66 26.5q34 0 54 -19.5t20 -52.5q0 -40 -27 -66.5t-66 -26.5q-34 0 -54 20z" />
<glyph unicode="&#xa9;" horiz-adv-x="732" d="M549.5 727.5q71.5 -42.5 113 -119.5t41.5 -176t-41.5 -175.5t-113 -119t-159.5 -42.5q-87 0 -159.5 42.5t-114.5 119t-42 175.5t42 176t114.5 119.5t159.5 42.5q88 0 159.5 -42.5zM277 654q-50 -31 -78 -88.5t-28 -133.5t28 -133.5t78 -88t113 -30.5t112.5 30.5t78 88 t28.5 133.5t-28.5 133.5t-78 88.5t-112.5 31t-113 -31zM459.5 617q31.5 -14 55.5 -39l-48 -61q-18 12 -31.5 17t-30.5 5q-27 0 -43.5 -25t-16.5 -81q0 -58 16 -82.5t45 -24.5q19 0 34.5 7t32.5 21l46 -66q-26 -25 -58.5 -39.5t-67.5 -14.5q-77 0 -121 51.5t-44 147.5 q0 91 45.5 144.5t120.5 53.5q34 0 65.5 -14z" />
<glyph unicode="&#xaa;" horiz-adv-x="438" d="M77.5 295.5q-30.5 32.5 -30.5 83.5q0 64 47.5 107t152.5 43h31l2 11q1 6 1 16q0 19 -9.5 26.5t-32.5 7.5q-41 0 -104 -19l-21 92q36 15 78 23t80 8q75 0 113 -30t38 -97q0 -18 -3 -39l-17 -123q-2 -12 -2 -16q0 -18 19 -26l-42 -97q-76 5 -100 55q-45 -58 -117 -58 q-53 0 -83.5 32.5zM259 389l9 60h-19q-54 0 -54 -53q0 -28 23 -28q24 0 41 21zM-8 0l19 130h377l-18 -130h-378z" />
<glyph unicode="&#xab;" horiz-adv-x="589" d="M240 560l94 -70l-141 -207l83 -205l-113 -70l-143 222l17 107zM501 560l94 -70l-141 -207l83 -205l-113 -70l-143 222l17 107z" />
<glyph unicode="&#xac;" horiz-adv-x="486" d="M465 395l-41 -287h-144l21 156h-262l18 131h408z" />
<glyph unicode="&#xad;" horiz-adv-x="370" d="M34 248l18 130h297l-18 -130h-297z" />
<glyph unicode="&#xae;" horiz-adv-x="573" d="M449 726q58 -35 91 -98.5t33 -144.5t-33 -144t-91 -97.5t-131 -34.5t-131.5 34.5t-92 97.5t-33.5 144t33.5 144.5t92 98.5t131.5 35t131 -35zM445.5 332q48.5 55 48.5 151t-48.5 152t-127.5 56q-52 0 -92 -25t-63 -72t-23 -111q0 -96 49.5 -151t128.5 -55t127.5 55z M408.5 499q-13.5 -19 -35.5 -30l65 -119h-80l-49 102h-20v-102h-70v283h78q125 0 125 -89q0 -26 -13.5 -45zM289 513h26q15 0 25 8.5t10 25.5q0 31 -36 31h-25v-65z" />
<glyph unicode="&#xaf;" horiz-adv-x="345" d="M368 653h-283l17 117h283z" />
<glyph unicode="&#xb0;" horiz-adv-x="457" d="M107.5 406q-40.5 39 -40.5 108q0 57 24.5 102.5t66.5 71t94 25.5q63 0 103.5 -39t40.5 -108q0 -57 -24.5 -102.5t-67 -71t-94.5 -25.5q-62 0 -102.5 39zM269 491q17 29 17 71q0 55 -42 55q-33 0 -50 -29t-17 -71q0 -55 42 -55q33 0 50 29z" />
<glyph unicode="&#xb1;" horiz-adv-x="486" d="M11 0l19 130h392l-18 -130h-393zM364 639l-22 -157h135l-18 -131h-136l-23 -157h-135l23 157h-137l19 131h137l22 157h135z" />
<glyph unicode="&#xb2;" horiz-adv-x="359" d="M336.5 719.5q35.5 -32.5 35.5 -80.5q0 -42 -20.5 -76.5t-55.5 -66.5t-100 -81h154l-25 -95h-275l12 88q104 92 144 136.5t40 82.5q0 15 -8.5 23.5t-24.5 8.5q-18 0 -34 -9.5t-35 -30.5l-63 56q67 77 159 77q61 0 96.5 -32.5z" />
<glyph unicode="&#xb3;" horiz-adv-x="359" d="M335.5 724.5q34.5 -28.5 34.5 -73.5q0 -42 -27.5 -69.5t-78.5 -39.5q43 -3 67 -24t24 -62t-22.5 -75t-63.5 -54t-94 -20q-95 0 -141 70l70 59q17 -19 34 -27.5t37 -8.5q25 0 41.5 16.5t16.5 45.5q0 20 -12.5 28.5t-39.5 8.5h-32l25 82h19q28 0 43 13.5t15 36.5 q0 31 -37 31q-38 0 -79 -34l-51 65q69 60 156 60q61 0 95.5 -28.5z" />
<glyph unicode="&#xb4;" horiz-adv-x="327" d="M307 838l54 -123l-233 -95l-40 82z" />
<glyph unicode="&#xb5;" horiz-adv-x="518" d="M446 67q0 -43 4 -68l-155 -16q-9 36 -9 75q-21 -34 -42.5 -50t-49.5 -16q-31 0 -50 21q6 -34 6 -62q0 -33 -5 -68l-13 -89l-158 -16l106 754h167l-51 -369q-2 -14 -2 -19q0 -32 26 -32q16 0 33 14t32 42l51 364h167l-49 -350q-8 -60 -8 -115z" />
<glyph unicode="&#xb6;" horiz-adv-x="721" d="M691 694l-126 -900l-145 -19l111 802h-77l-109 -783l-144 -19l68 485q-92 1 -141.5 49.5t-49.5 130.5q0 78 35 135.5t98.5 88t146.5 30.5h333z" />
<glyph unicode="&#xb7;" horiz-adv-x="229" d="M50 236.5q-22 23.5 -22 59.5q0 43 29.5 74t72.5 31q37 0 59 -23.5t22 -60.5q0 -44 -29.5 -74t-72.5 -30q-37 0 -59 23.5z" />
<glyph unicode="&#xb8;" horiz-adv-x="311" d="M138 -49q42 -5 63.5 -27.5t21.5 -60.5q0 -30 -15.5 -59.5t-51 -49.5t-91.5 -20q-33 0 -60 9t-45 24l47 72q26 -14 54 -14q20 0 32 7.5t13 23.5q0 16 -18 23t-61 7l32 130h90z" />
<glyph unicode="&#xb9;" horiz-adv-x="359" d="M342 742l-59 -422h-118l42 306l-84 -54l-44 80l154 90h109z" />
<glyph unicode="&#xba;" horiz-adv-x="449" d="M409 651q45 -43 45 -127q0 -73 -27 -132.5t-78.5 -94t-121.5 -34.5q-82 0 -127.5 43t-45.5 127q0 74 26.5 133t78 93.5t122.5 34.5q83 0 128 -43zM219 535.5q-17 -51.5 -17 -114.5q0 -27 8.5 -39t25.5 -12q36 0 53.5 53t17.5 114q0 26 -8.5 38t-26.5 12q-36 0 -53 -51.5z M-10 0l19 130h392l-18 -130h-393z" />
<glyph unicode="&#xbb;" horiz-adv-x="589" d="M171 560l142 -223l-16 -107l-204 -222l-95 70l143 207l-85 205zM432 560l142 -223l-16 -107l-204 -222l-95 70l143 207l-85 205z" />
<glyph unicode="&#xbc;" horiz-adv-x="875" d="M335 694l-59 -422h-118l42 306l-84 -54l-44 80l154 90h109zM634 759l88 -47l-477 -799l-88 47zM844 173l-13 -91h-38l-11 -82h-111l11 82h-174l11 83l142 268l96 -38l-112 -222h52l37 93h85l-13 -93h38z" />
<glyph unicode="&#xbd;" horiz-adv-x="875" d="M335 694l-59 -422h-118l42 306l-84 -54l-44 80l154 90h109zM634 759l88 -47l-477 -799l-88 47zM807.5 399.5q35.5 -32.5 35.5 -80.5q0 -42 -20.5 -76.5t-55.5 -66.5t-100 -81h154l-25 -95h-275l12 88q104 92 144 136.5t40 82.5q0 15 -8.5 23.5t-24.5 8.5q-18 0 -34 -9.5 t-35 -30.5l-63 56q67 77 159 77q61 0 96.5 -32.5z" />
<glyph unicode="&#xbe;" horiz-adv-x="875" d="M328.5 676.5q34.5 -28.5 34.5 -73.5q0 -42 -27.5 -69.5t-78.5 -39.5q43 -3 67 -24t24 -62t-22.5 -75t-63.5 -54t-94 -20q-95 0 -141 70l70 59q17 -19 34 -27.5t37 -8.5q25 0 41.5 16.5t16.5 45.5q0 20 -12.5 28.5t-39.5 8.5h-32l25 82h19q28 0 43 13.5t15 36.5 q0 31 -37 31q-38 0 -79 -34l-51 65q69 60 156 60q61 0 95.5 -28.5zM634 759l88 -47l-477 -799l-88 47zM844 173l-13 -91h-38l-11 -82h-111l11 82h-174l11 83l142 268l96 -38l-112 -222h52l37 93h85l-13 -93h38z" />
<glyph unicode="&#xbf;" horiz-adv-x="439" d="M314 484.5q22 -23.5 22 -59.5q0 -43 -29.5 -74t-72.5 -31q-37 0 -59 23.5t-22 60.5q0 44 29.5 74t72.5 30q37 0 59 -23.5zM12 -180.5q-49 43.5 -49 109.5q0 47 17 80t41.5 53t62.5 44q43 26 63 46.5t20 53.5q0 12 -2 24l148 22q7 -24 7 -51q0 -44 -15.5 -75t-37 -49.5 t-55.5 -41.5q-37 -25 -54.5 -43t-17.5 -46q0 -37 43 -37q48 0 104 58l90 -84q-94 -107 -226 -107q-90 0 -139 43.5z" />
<glyph unicode="&#xc0;" horiz-adv-x="538" d="M335 0l-7 145h-156l-45 -145h-181l278 694h209l83 -694h-181zM212 271h110l-14 307zM299 951l188 -127l-47 -78l-211 84z" />
<glyph unicode="&#xc1;" horiz-adv-x="538" d="M335 0l-7 145h-156l-45 -145h-181l278 694h209l83 -694h-181zM212 271h110l-14 307zM440 954l54 -123l-233 -86l-37 81z" />
<glyph unicode="&#xc2;" horiz-adv-x="538" d="M335 0l-7 145h-156l-45 -145h-181l278 694h209l83 -694h-181zM212 271h110l-14 307zM216 755l-57 67l148 133h100l113 -137l-65 -63l-109 86z" />
<glyph unicode="&#xc3;" horiz-adv-x="538" d="M335 0l-7 145h-156l-45 -145h-181l278 694h209l83 -694h-181zM212 271h110l-14 307zM364.5 764q-13.5 7 -31.5 19q-3 2 -11 7.5t-14.5 8t-12.5 2.5q-15 0 -26.5 -10.5t-26.5 -33.5l-74 42q26 54 61.5 88t74.5 34q20 0 35 -7t32 -20q11 -9 19 -13t16 -4q14 0 25.5 10.5 t25.5 32.5l74 -41q-26 -54 -62 -88t-74 -34q-17 0 -30.5 7z" />
<glyph unicode="&#xc4;" horiz-adv-x="538" d="M335 0l-7 145h-156l-45 -145h-181l278 694h209l83 -694h-181zM212 271h110l-14 307zM176 785q-20 20 -20 52q0 40 27 66.5t66 26.5q34 0 54 -19.5t20 -52.5q0 -40 -27 -66.5t-66 -26.5q-34 0 -54 20zM392 785q-20 20 -20 52q0 40 27 66.5t66 26.5q34 0 54 -19.5t20 -52.5 q0 -40 -27 -66.5t-66 -26.5q-34 0 -54 20z" />
<glyph unicode="&#xc5;" horiz-adv-x="538" d="M335 0l-7 145h-156l-45 -145h-181l278 694h209l83 -694h-181zM212 271h110l-14 307zM456.5 964.5q31.5 -33.5 31.5 -87.5q0 -40 -19 -74t-53.5 -54.5t-79.5 -20.5q-56 0 -87 33.5t-31 86.5q0 40 19 74.5t53.5 55t78.5 20.5q56 0 87.5 -33.5zM325 895.5 q-13 -18.5 -13 -42.5q0 -40 32 -40q23 0 36 18t13 42q0 41 -32 41q-23 0 -36 -18.5z" />
<glyph unicode="&#xc6;" horiz-adv-x="764" d="M736 569h-223l3 -157h209l-17 -122h-190l3 -164h205l-19 -126h-344v145h-172l-59 -145h-188l328 694h501zM243 271h120v295z" />
<glyph unicode="&#xc7;" horiz-adv-x="521" d="M310 -16l-6 -33q42 -5 63.5 -27.5t21.5 -60.5q0 -30 -15.5 -59.5t-51 -49.5t-91.5 -20q-33 0 -60 9t-45 24l47 72q26 -14 54 -14q20 0 32 7.5t13 23.5q0 16 -18 23t-61 7l25 101q-88 16 -137.5 85t-49.5 186t37 221t114 169t191 65q118 0 190 -83l-91 -90 q-23 21 -46.5 32t-52.5 11q-57 0 -93.5 -52t-52.5 -127.5t-16 -150.5q0 -136 93 -136q31 0 58 13.5t65 41.5l64 -100q-80 -75 -181 -88z" />
<glyph unicode="&#xc8;" horiz-adv-x="464" d="M504 694l-37 -125h-204l-22 -155h180l-17 -123h-180l-23 -165h221l-18 -126h-395l97 694h398zM276 951l188 -127l-47 -78l-211 84z" />
<glyph unicode="&#xc9;" horiz-adv-x="464" d="M504 694l-37 -125h-204l-22 -155h180l-17 -123h-180l-23 -165h221l-18 -126h-395l97 694h398zM417 954l54 -123l-233 -86l-37 81z" />
<glyph unicode="&#xca;" horiz-adv-x="464" d="M504 694l-37 -125h-204l-22 -155h180l-17 -123h-180l-23 -165h221l-18 -126h-395l97 694h398zM193 755l-57 67l148 133h100l113 -137l-65 -63l-109 86z" />
<glyph unicode="&#xcb;" horiz-adv-x="464" d="M504 694l-37 -125h-204l-22 -155h180l-17 -123h-180l-23 -165h221l-18 -126h-395l97 694h398zM153 785q-20 20 -20 52q0 40 27 66.5t66 26.5q34 0 54 -19.5t20 -52.5q0 -40 -27 -66.5t-66 -26.5q-34 0 -54 20zM369 785q-20 20 -20 52q0 40 27 66.5t66 26.5q34 0 54 -19.5 t20 -52.5q0 -40 -27 -66.5t-66 -26.5q-34 0 -54 20z" />
<glyph unicode="&#xcc;" horiz-adv-x="267" d="M280 694l-97 -694h-174l97 694h174zM163 951l188 -127l-47 -78l-211 84z" />
<glyph unicode="&#xcd;" horiz-adv-x="267" d="M280 694l-97 -694h-174l97 694h174zM304 954l54 -123l-233 -86l-37 81z" />
<glyph unicode="&#xce;" horiz-adv-x="267" d="M280 694l-97 -694h-174l97 694h174zM80 755l-57 67l148 133h100l113 -137l-65 -63l-109 86z" />
<glyph unicode="&#xcf;" horiz-adv-x="267" d="M280 694l-97 -694h-174l97 694h174zM40 785q-20 20 -20 52q0 40 27 66.5t66 26.5q34 0 54 -19.5t20 -52.5q0 -40 -27 -66.5t-66 -26.5q-34 0 -54 20zM256 785q-20 20 -20 52q0 40 27 66.5t66 26.5q34 0 54 -19.5t20 -52.5q0 -40 -27 -66.5t-66 -26.5q-34 0 -54 20z" />
<glyph unicode="&#xd0;" horiz-adv-x="599" d="M512.5 638.5q77.5 -55.5 77.5 -198.5q0 -199 -88 -319.5t-281 -120.5h-204l42 301h-47l16 104h46l40 289h191q130 0 207.5 -55.5zM375 223q38 96 38 220q0 69 -25.5 97t-75.5 28h-42l-23 -163h110l-16 -104h-108l-24 -174h38q90 0 128 96z" />
<glyph unicode="&#xd1;" horiz-adv-x="586" d="M502 0h-213l-85 548l1 -33q2 -46 2 -71q0 -98 -15 -210l-31 -234h-152l97 694h212l85 -548l-1 41q-2 44 -2 64q0 82 13 190l34 253h152zM389.5 764q-13.5 7 -31.5 19q-3 2 -11 7.5t-14.5 8t-12.5 2.5q-15 0 -26.5 -10.5t-26.5 -33.5l-74 42q26 54 61.5 88t74.5 34 q20 0 35 -7t32 -20q11 -9 19 -13t16 -4q14 0 25.5 10.5t25.5 32.5l74 -41q-26 -54 -62 -88t-74 -34q-17 0 -30.5 7z" />
<glyph unicode="&#xd2;" horiz-adv-x="624" d="M553.5 643q62.5 -70 62.5 -203q0 -117 -35 -221t-112 -170.5t-195 -66.5t-180.5 70t-62.5 202q0 117 35 221.5t111.5 171t194.5 66.5q119 0 181.5 -70zM271.5 525q-34.5 -59 -49 -141t-14.5 -155q0 -63 19.5 -91t58.5 -28q56 0 90 58.5t48 140t14 156.5q0 63 -19 91 t-58 28q-55 0 -89.5 -59zM342 951l188 -127l-47 -78l-211 84z" />
<glyph unicode="&#xd3;" horiz-adv-x="624" d="M553.5 643q62.5 -70 62.5 -203q0 -117 -35 -221t-112 -170.5t-195 -66.5t-180.5 70t-62.5 202q0 117 35 221.5t111.5 171t194.5 66.5q119 0 181.5 -70zM271.5 525q-34.5 -59 -49 -141t-14.5 -155q0 -63 19.5 -91t58.5 -28q56 0 90 58.5t48 140t14 156.5q0 63 -19 91 t-58 28q-55 0 -89.5 -59zM483 954l54 -123l-233 -86l-37 81z" />
<glyph unicode="&#xd4;" horiz-adv-x="624" d="M553.5 643q62.5 -70 62.5 -203q0 -117 -35 -221t-112 -170.5t-195 -66.5t-180.5 70t-62.5 202q0 117 35 221.5t111.5 171t194.5 66.5q119 0 181.5 -70zM271.5 525q-34.5 -59 -49 -141t-14.5 -155q0 -63 19.5 -91t58.5 -28q56 0 90 58.5t48 140t14 156.5q0 63 -19 91 t-58 28q-55 0 -89.5 -59zM259 755l-57 67l148 133h100l113 -137l-65 -63l-109 86z" />
<glyph unicode="&#xd5;" horiz-adv-x="624" d="M553.5 643q62.5 -70 62.5 -203q0 -117 -35 -221t-112 -170.5t-195 -66.5t-180.5 70t-62.5 202q0 117 35 221.5t111.5 171t194.5 66.5q119 0 181.5 -70zM271.5 525q-34.5 -59 -49 -141t-14.5 -155q0 -63 19.5 -91t58.5 -28q56 0 90 58.5t48 140t14 156.5q0 63 -19 91 t-58 28q-55 0 -89.5 -59zM407.5 764q-13.5 7 -31.5 19q-3 2 -11 7.5t-14.5 8t-12.5 2.5q-15 0 -26.5 -10.5t-26.5 -33.5l-74 42q26 54 61.5 88t74.5 34q20 0 35 -7t32 -20q11 -9 19 -13t16 -4q14 0 25.5 10.5t25.5 32.5l74 -41q-26 -54 -62 -88t-74 -34q-17 0 -30.5 7z" />
<glyph unicode="&#xd6;" horiz-adv-x="624" d="M553.5 643q62.5 -70 62.5 -203q0 -117 -35 -221t-112 -170.5t-195 -66.5t-180.5 70t-62.5 202q0 117 35 221.5t111.5 171t194.5 66.5q119 0 181.5 -70zM271.5 525q-34.5 -59 -49 -141t-14.5 -155q0 -63 19.5 -91t58.5 -28q56 0 90 58.5t48 140t14 156.5q0 63 -19 91 t-58 28q-55 0 -89.5 -59zM219 785q-20 20 -20 52q0 40 27 66.5t66 26.5q34 0 54 -19.5t20 -52.5q0 -40 -27 -66.5t-66 -26.5q-34 0 -54 20zM435 785q-20 20 -20 52q0 40 27 66.5t66 26.5q34 0 54 -19.5t20 -52.5q0 -40 -27 -66.5t-66 -26.5q-34 0 -54 20z" />
<glyph unicode="&#xd7;" horiz-adv-x="472" d="M370 515l83 -88l-124 -120l95 -124l-103 -85l-89 121l-118 -121l-83 88l122 119l-94 125l104 85l87 -123z" />
<glyph unicode="&#xd8;" horiz-adv-x="624" d="M616 440q0 -117 -35 -221t-112 -170.5t-195 -66.5q-12 0 -36 2l-47 -120l-124 35l53 131q-89 71 -89 224q0 117 35 221.5t111.5 171t194.5 66.5q13 0 35 -2l48 118l122 -35l-51 -128q90 -70 90 -226zM267.5 526.5q-35.5 -59.5 -50.5 -142.5t-15 -158q0 -42 8 -69l164 429 h-13q-58 0 -93.5 -59.5zM379.5 167q35.5 59 50 141t14.5 159q0 42 -7 66l-163 -425h12q58 0 93.5 59z" />
<glyph unicode="&#xd9;" horiz-adv-x="576" d="M532 213q-9 -66 -44 -118.5t-95 -82.5t-141 -30q-111 0 -168.5 53.5t-57.5 142.5q0 19 3 40l67 476h174l-68 -486q-2 -20 -2 -27q0 -69 64 -69q80 0 93 99l68 483h174zM317 951l188 -127l-47 -78l-211 84z" />
<glyph unicode="&#xda;" horiz-adv-x="576" d="M532 213q-9 -66 -44 -118.5t-95 -82.5t-141 -30q-111 0 -168.5 53.5t-57.5 142.5q0 19 3 40l67 476h174l-68 -486q-2 -20 -2 -27q0 -69 64 -69q80 0 93 99l68 483h174zM458 954l54 -123l-233 -86l-37 81z" />
<glyph unicode="&#xdb;" horiz-adv-x="576" d="M532 213q-9 -66 -44 -118.5t-95 -82.5t-141 -30q-111 0 -168.5 53.5t-57.5 142.5q0 19 3 40l67 476h174l-68 -486q-2 -20 -2 -27q0 -69 64 -69q80 0 93 99l68 483h174zM234 755l-57 67l148 133h100l113 -137l-65 -63l-109 86z" />
<glyph unicode="&#xdc;" horiz-adv-x="576" d="M532 213q-9 -66 -44 -118.5t-95 -82.5t-141 -30q-111 0 -168.5 53.5t-57.5 142.5q0 19 3 40l67 476h174l-68 -486q-2 -20 -2 -27q0 -69 64 -69q80 0 93 99l68 483h174zM194 785q-20 20 -20 52q0 40 27 66.5t66 26.5q34 0 54 -19.5t20 -52.5q0 -40 -27 -66.5t-66 -26.5 q-34 0 -54 20zM410 785q-20 20 -20 52q0 40 27 66.5t66 26.5q34 0 54 -19.5t20 -52.5q0 -40 -27 -66.5t-66 -26.5q-34 0 -54 20z" />
<glyph unicode="&#xdd;" horiz-adv-x="542" d="M614 694l-257 -435l-36 -259h-174l36 258l-135 436h184l58 -301l138 301h186zM441 954l54 -123l-233 -86l-37 81z" />
<glyph unicode="&#xde;" horiz-adv-x="541" d="M481 537q63 -50 63 -149q0 -74 -31 -136.5t-97 -101t-164 -38.5h-53l-16 -112h-174l97 694h174l-15 -107h34q119 0 182 -50zM339.5 280.5q26.5 42.5 26.5 103.5q0 41 -19.5 59.5t-61.5 18.5h-37l-32 -224h35q62 0 88.5 42.5z" />
<glyph unicode="&#xdf;" horiz-adv-x="543" d="M-105 -101q53 22 80.5 52t35.5 89l68 493q15 108 80 168t172 60q85 0 130.5 -40t45.5 -103q0 -41 -15.5 -67t-44.5 -56q-21 -22 -31 -37t-10 -35q0 -18 10 -32.5t31 -34.5q23 -24 38 -43.5t26 -50t11 -72.5q0 -53 -22.5 -100t-70 -77.5t-119.5 -30.5q-30 0 -58 7.5 t-49 19.5l58 114q19 -11 38 -11q27 0 39.5 20t12.5 47q0 28 -10 47t-32 47q-24 30 -36.5 54.5t-12.5 60.5q0 38 12 63t35 55q21 27 31.5 48t10.5 50q0 19 -9.5 28.5t-25.5 9.5q-28 0 -44 -26.5t-23 -79.5l-65 -473q-12 -84 -46.5 -139.5t-84 -88.5t-117.5 -58z" />
<glyph unicode="&#xe0;" d="M514 496l-48 -337q-2 -20 -2 -27q0 -14 5 -22.5t17 -14.5l-50 -110q-45 4 -77.5 24t-44.5 57q-29 -41 -63.5 -62.5t-80.5 -21.5q-74 0 -114 53.5t-40 146.5t30 177t96.5 138t169.5 54q105 0 202 -55zM215 354.5q-29 -76.5 -29 -174.5q0 -41 11 -57.5t31 -16.5q35 0 74 62 l37 257q-20 6 -38 6q-57 0 -86 -76.5zM299 837l186 -138l-48 -77l-211 93z" />
<glyph unicode="&#xe1;" d="M514 496l-48 -337q-2 -20 -2 -27q0 -14 5 -22.5t17 -14.5l-50 -110q-45 4 -77.5 24t-44.5 57q-29 -41 -63.5 -62.5t-80.5 -21.5q-74 0 -114 53.5t-40 146.5t30 177t96.5 138t169.5 54q105 0 202 -55zM215 354.5q-29 -76.5 -29 -174.5q0 -41 11 -57.5t31 -16.5q35 0 74 62 l37 257q-20 6 -38 6q-57 0 -86 -76.5zM427 838l54 -123l-233 -95l-40 82z" />
<glyph unicode="&#xe2;" d="M514 496l-48 -337q-2 -20 -2 -27q0 -14 5 -22.5t17 -14.5l-50 -110q-45 4 -77.5 24t-44.5 57q-29 -41 -63.5 -62.5t-80.5 -21.5q-74 0 -114 53.5t-40 146.5t30 177t96.5 138t169.5 54q105 0 202 -55zM215 354.5q-29 -76.5 -29 -174.5q0 -41 11 -57.5t31 -16.5q35 0 74 62 l37 257q-20 6 -38 6q-57 0 -86 -76.5zM216 619l-54 67l148 141h100l113 -145l-69 -63l-106 94z" />
<glyph unicode="&#xe3;" d="M514 496l-48 -337q-2 -20 -2 -27q0 -14 5 -22.5t17 -14.5l-50 -110q-45 4 -77.5 24t-44.5 57q-29 -41 -63.5 -62.5t-80.5 -21.5q-74 0 -114 53.5t-40 146.5t30 177t96.5 138t169.5 54q105 0 202 -55zM215 354.5q-29 -76.5 -29 -174.5q0 -41 11 -57.5t31 -16.5q35 0 74 62 l37 257q-20 6 -38 6q-57 0 -86 -76.5zM361.5 638q-13.5 7 -31.5 19q-3 2 -11 7.5t-14.5 8t-12.5 2.5q-15 0 -26.5 -10.5t-26.5 -33.5l-74 42q26 54 61.5 88t74.5 34q20 0 35 -7t32 -20q11 -9 19 -13t16 -4q14 0 25.5 10.5t25.5 32.5l74 -41q-26 -54 -62 -88t-74 -34 q-17 0 -30.5 7z" />
<glyph unicode="&#xe4;" d="M514 496l-48 -337q-2 -20 -2 -27q0 -14 5 -22.5t17 -14.5l-50 -110q-45 4 -77.5 24t-44.5 57q-29 -41 -63.5 -62.5t-80.5 -21.5q-74 0 -114 53.5t-40 146.5t30 177t96.5 138t169.5 54q105 0 202 -55zM215 354.5q-29 -76.5 -29 -174.5q0 -41 11 -57.5t31 -16.5q35 0 74 62 l37 257q-20 6 -38 6q-57 0 -86 -76.5zM175 659q-20 20 -20 52q0 40 27 66.5t66 26.5q34 0 54 -19.5t20 -52.5q0 -40 -27 -66.5t-66 -26.5q-34 0 -54 20zM391 659q-20 20 -20 52q0 40 27 66.5t66 26.5q34 0 54 -19.5t20 -52.5q0 -40 -27 -66.5t-66 -26.5q-34 0 -54 20z" />
<glyph unicode="&#xe5;" d="M514 496l-48 -337q-2 -20 -2 -27q0 -14 5 -22.5t17 -14.5l-50 -110q-45 4 -77.5 24t-44.5 57q-29 -41 -63.5 -62.5t-80.5 -21.5q-74 0 -114 53.5t-40 146.5t30 177t96.5 138t169.5 54q105 0 202 -55zM215 354.5q-29 -76.5 -29 -174.5q0 -41 11 -57.5t31 -16.5q35 0 74 62 l37 257q-20 6 -38 6q-57 0 -86 -76.5zM452.5 838.5q31.5 -33.5 31.5 -87.5q0 -40 -19 -74t-53.5 -54.5t-79.5 -20.5q-56 0 -87 33.5t-31 86.5q0 40 19 74.5t53.5 55t78.5 20.5q56 0 87.5 -33.5zM321 769.5q-13 -18.5 -13 -42.5q0 -40 32 -40q23 0 36 18t13 42q0 41 -32 41 q-23 0 -36 -18.5z" />
<glyph unicode="&#xe6;" horiz-adv-x="765" d="M352 534q33 -16 56 -47q32 30 76 47t95 17q86 0 135.5 -40.5t49.5 -103.5q0 -183 -311 -214q1 -47 19 -67t55 -20q30 0 57.5 11t63.5 36l58 -98q-93 -73 -207 -73q-61 0 -105.5 21t-70.5 61q-38 -45 -80.5 -63.5t-91.5 -18.5q-69 0 -109.5 39t-40.5 104q0 85 58.5 142 t201.5 57h43q6 23 17 50q-4 25 -26 38.5t-54 13.5q-57 0 -128 -26l-23 112q94 38 178 38q51 0 84 -16zM497.5 397.5q-24.5 -41.5 -35.5 -104.5q73 6 105.5 37t32.5 69q0 40 -39 40t-63.5 -41.5zM261 228q-40 0 -62 -19.5t-22 -59.5q0 -46 38 -46q19 0 37 13.5t39 40.5 q-2 22 -2 36l1 35h-29z" />
<glyph unicode="&#xe7;" horiz-adv-x="431" d="M257 -17l-5 -32q42 -5 63.5 -27.5t21.5 -60.5q0 -30 -15.5 -59.5t-51 -49.5t-91.5 -20q-33 0 -60 9t-45 24l47 72q26 -14 54 -14q20 0 32 7.5t13 23.5q0 16 -18 23t-61 7l25 103q-70 18 -108.5 74.5t-38.5 142.5q0 88 32 167t96.5 128.5t155.5 49.5q99 0 163 -69l-81 -94 q-37 33 -78 33q-60 0 -87 -66.5t-27 -152.5q0 -49 16.5 -68.5t47.5 -19.5q21 0 40.5 8t46.5 25l60 -103q-65 -52 -147 -61z" />
<glyph unicode="&#xe8;" horiz-adv-x="495" d="M445.5 510q49.5 -41 49.5 -105q0 -180 -311 -213v-1q0 -45 19 -65t55 -20q29 0 56.5 11t63.5 36l58 -98q-93 -73 -206 -73q-102 0 -157 56t-55 159q0 91 31 172t96.5 131.5t164.5 50.5q86 0 135.5 -41zM298 329.5q32 30.5 32 70.5q0 39 -38 39t-62.5 -41.5t-36.5 -104.5 q73 6 105 36.5zM277 837l186 -138l-48 -77l-211 93z" />
<glyph unicode="&#xe9;" horiz-adv-x="495" d="M445.5 510q49.5 -41 49.5 -105q0 -180 -311 -213v-1q0 -45 19 -65t55 -20q29 0 56.5 11t63.5 36l58 -98q-93 -73 -206 -73q-102 0 -157 56t-55 159q0 91 31 172t96.5 131.5t164.5 50.5q86 0 135.5 -41zM298 329.5q32 30.5 32 70.5q0 39 -38 39t-62.5 -41.5t-36.5 -104.5 q73 6 105 36.5zM405 838l54 -123l-233 -95l-40 82z" />
<glyph unicode="&#xea;" horiz-adv-x="495" d="M445.5 510q49.5 -41 49.5 -105q0 -180 -311 -213v-1q0 -45 19 -65t55 -20q29 0 56.5 11t63.5 36l58 -98q-93 -73 -206 -73q-102 0 -157 56t-55 159q0 91 31 172t96.5 131.5t164.5 50.5q86 0 135.5 -41zM298 329.5q32 30.5 32 70.5q0 39 -38 39t-62.5 -41.5t-36.5 -104.5 q73 6 105 36.5zM194 619l-54 67l148 141h100l113 -145l-69 -63l-106 94z" />
<glyph unicode="&#xeb;" horiz-adv-x="495" d="M445.5 510q49.5 -41 49.5 -105q0 -180 -311 -213v-1q0 -45 19 -65t55 -20q29 0 56.5 11t63.5 36l58 -98q-93 -73 -206 -73q-102 0 -157 56t-55 159q0 91 31 172t96.5 131.5t164.5 50.5q86 0 135.5 -41zM298 329.5q32 30.5 32 70.5q0 39 -38 39t-62.5 -41.5t-36.5 -104.5 q73 6 105 36.5zM153 659q-20 20 -20 52q0 40 27 66.5t66 26.5q34 0 54 -19.5t20 -52.5q0 -40 -27 -66.5t-66 -26.5q-34 0 -54 20zM369 659q-20 20 -20 52q0 40 27 66.5t66 26.5q34 0 54 -19.5t20 -52.5q0 -40 -27 -66.5t-66 -26.5q-34 0 -54 20z" />
<glyph unicode="&#xec;" horiz-adv-x="254" d="M247 532l-74 -532h-167l74 532h167zM142 837l186 -138l-48 -77l-211 93z" />
<glyph unicode="&#xed;" horiz-adv-x="254" d="M247 532l-74 -532h-167l74 532h167zM270 838l54 -123l-233 -95l-40 82z" />
<glyph unicode="&#xee;" horiz-adv-x="254" d="M247 532l-74 -532h-167l74 532h167zM59 619l-54 67l148 141h100l113 -145l-69 -63l-106 94z" />
<glyph unicode="&#xef;" horiz-adv-x="254" d="M247 532l-74 -532h-167l74 532h167zM18 659q-20 20 -20 52q0 40 27 66.5t66 26.5q34 0 54 -19.5t20 -52.5q0 -40 -27 -66.5t-66 -26.5q-34 0 -54 20zM234 659q-20 20 -20 52q0 40 27 66.5t66 26.5q34 0 54 -19.5t20 -52.5q0 -40 -27 -66.5t-66 -26.5q-34 0 -54 20z" />
<glyph unicode="&#xf0;" horiz-adv-x="529" d="M478.5 542.5q29.5 -70.5 29.5 -160.5q0 -111 -33 -202t-98 -144.5t-155 -53.5q-93 0 -150 55t-57 153q0 68 27.5 135.5t78 111t116.5 43.5q36 0 62.5 -11t48.5 -33q-6 46 -20.5 78.5t-44.5 63.5l-54 -52l-92 48l59 58q-31 11 -75 20l45 107q63 -11 125 -37l80 80l73 -71 l-60 -62q65 -56 94.5 -126.5zM306 160.5q21 55.5 33 166.5q-23 35 -63 35q-49 0 -71 -57t-22 -125q0 -40 13.5 -57.5t39.5 -17.5q49 0 70 55.5z" />
<glyph unicode="&#xf1;" horiz-adv-x="511" d="M464 518q29 -33 29 -92q0 -16 -3 -36l-55 -390h-167l49 356q1 7 1 19q0 29 -19 29q-18 0 -38 -27t-46 -82l-42 -295h-167l74 532h146l-2 -85q31 48 72 76t88 28q51 0 80 -33zM337.5 638q-13.5 7 -31.5 19q-3 2 -11 7.5t-14.5 8t-12.5 2.5q-15 0 -26.5 -10.5t-26.5 -33.5 l-74 42q26 54 61.5 88t74.5 34q20 0 35 -7t32 -20q11 -9 19 -13t16 -4q14 0 25.5 10.5t25.5 32.5l74 -41q-26 -54 -62 -88t-74 -34q-17 0 -30.5 7z" />
<glyph unicode="&#xf2;" horiz-adv-x="528" d="M73.5 38.5q-54.5 56.5 -54.5 162.5q0 90 29.5 170t93 130t159.5 50q98 0 153 -57t55 -163q-1 -90 -30.5 -169.5t-93 -129.5t-159.5 -50q-98 0 -152.5 56.5zM315 184.5q24 78.5 24 165.5q0 41 -12 58.5t-38 17.5q-53 0 -77 -78t-24 -165q0 -41 12.5 -59t37.5 -18 q53 0 77 78.5zM275 837l186 -138l-48 -77l-211 93z" />
<glyph unicode="&#xf3;" horiz-adv-x="528" d="M73.5 38.5q-54.5 56.5 -54.5 162.5q0 90 29.5 170t93 130t159.5 50q98 0 153 -57t55 -163q-1 -90 -30.5 -169.5t-93 -129.5t-159.5 -50q-98 0 -152.5 56.5zM315 184.5q24 78.5 24 165.5q0 41 -12 58.5t-38 17.5q-53 0 -77 -78t-24 -165q0 -41 12.5 -59t37.5 -18 q53 0 77 78.5zM403 838l54 -123l-233 -95l-40 82z" />
<glyph unicode="&#xf4;" horiz-adv-x="528" d="M73.5 38.5q-54.5 56.5 -54.5 162.5q0 90 29.5 170t93 130t159.5 50q98 0 153 -57t55 -163q-1 -90 -30.5 -169.5t-93 -129.5t-159.5 -50q-98 0 -152.5 56.5zM315 184.5q24 78.5 24 165.5q0 41 -12 58.5t-38 17.5q-53 0 -77 -78t-24 -165q0 -41 12.5 -59t37.5 -18 q53 0 77 78.5zM192 619l-54 67l148 141h100l113 -145l-69 -63l-106 94z" />
<glyph unicode="&#xf5;" horiz-adv-x="528" d="M73.5 38.5q-54.5 56.5 -54.5 162.5q0 90 29.5 170t93 130t159.5 50q98 0 153 -57t55 -163q-1 -90 -30.5 -169.5t-93 -129.5t-159.5 -50q-98 0 -152.5 56.5zM315 184.5q24 78.5 24 165.5q0 41 -12 58.5t-38 17.5q-53 0 -77 -78t-24 -165q0 -41 12.5 -59t37.5 -18 q53 0 77 78.5zM337.5 638q-13.5 7 -31.5 19q-3 2 -11 7.5t-14.5 8t-12.5 2.5q-15 0 -26.5 -10.5t-26.5 -33.5l-74 42q26 54 61.5 88t74.5 34q20 0 35 -7t32 -20q11 -9 19 -13t16 -4q14 0 25.5 10.5t25.5 32.5l74 -41q-26 -54 -62 -88t-74 -34q-17 0 -30.5 7z" />
<glyph unicode="&#xf6;" horiz-adv-x="528" d="M73.5 38.5q-54.5 56.5 -54.5 162.5q0 90 29.5 170t93 130t159.5 50q98 0 153 -57t55 -163q-1 -90 -30.5 -169.5t-93 -129.5t-159.5 -50q-98 0 -152.5 56.5zM315 184.5q24 78.5 24 165.5q0 41 -12 58.5t-38 17.5q-53 0 -77 -78t-24 -165q0 -41 12.5 -59t37.5 -18 q53 0 77 78.5zM151 659q-20 20 -20 52q0 40 27 66.5t66 26.5q34 0 54 -19.5t20 -52.5q0 -40 -27 -66.5t-66 -26.5q-34 0 -54 20zM367 659q-20 20 -20 52q0 40 27 66.5t66 26.5q34 0 54 -19.5t20 -52.5q0 -40 -27 -66.5t-66 -26.5q-34 0 -54 20z" />
<glyph unicode="&#xf7;" horiz-adv-x="471" d="M147 18.5q-22 23.5 -22 59.5q0 43 29.5 74t72.5 31q37 0 59 -23.5t22 -60.5q0 -44 -29.5 -74t-72.5 -30q-37 0 -59 23.5zM215 504.5q-22 23.5 -22 59.5q0 43 29.5 74t72.5 31q37 0 59 -23.5t22 -60.5q0 -44 -29.5 -74t-72.5 -30q-37 0 -59 23.5zM39 267l19 130h392 l-18 -130h-393z" />
<glyph unicode="&#xf8;" horiz-adv-x="528" d="M489.5 434.5q19.5 -45.5 19.5 -103.5q-1 -90 -30.5 -169.5t-93 -129.5t-159.5 -50q-15 0 -22 1l-49 -119l-114 36l53 123q-36 29 -55.5 74t-19.5 104q0 90 29.5 170t93 130t159.5 50q16 0 24 -1l48 119l115 -37l-54 -123q36 -29 55.5 -74.5zM222.5 394 q-26.5 -39 -38.5 -96.5t-12 -113.5q0 -25 5 -45l1 2l116 290v2h-4q-41 0 -67.5 -39zM305.5 138q26.5 39 38 96t11.5 113q0 26 -4 41l-1 -2l-115 -285l-1 -2h4q41 0 67.5 39z" />
<glyph unicode="&#xf9;" horiz-adv-x="506" d="M49 15.5q-30 33.5 -30 92.5q0 17 3 36l54 388h167l-50 -361q-1 -7 -1 -17q0 -30 22 -30q31 0 71 67l48 341h167l-75 -532h-145l3 73q-31 -43 -67 -67t-82 -24q-55 0 -85 33.5zM266 837l186 -138l-48 -77l-211 93z" />
<glyph unicode="&#xfa;" horiz-adv-x="506" d="M49 15.5q-30 33.5 -30 92.5q0 17 3 36l54 388h167l-50 -361q-1 -7 -1 -17q0 -30 22 -30q31 0 71 67l48 341h167l-75 -532h-145l3 73q-31 -43 -67 -67t-82 -24q-55 0 -85 33.5zM394 838l54 -123l-233 -95l-40 82z" />
<glyph unicode="&#xfb;" horiz-adv-x="506" d="M49 15.5q-30 33.5 -30 92.5q0 17 3 36l54 388h167l-50 -361q-1 -7 -1 -17q0 -30 22 -30q31 0 71 67l48 341h167l-75 -532h-145l3 73q-31 -43 -67 -67t-82 -24q-55 0 -85 33.5zM183 619l-54 67l148 141h100l113 -145l-69 -63l-106 94z" />
<glyph unicode="&#xfc;" horiz-adv-x="506" d="M49 15.5q-30 33.5 -30 92.5q0 17 3 36l54 388h167l-50 -361q-1 -7 -1 -17q0 -30 22 -30q31 0 71 67l48 341h167l-75 -532h-145l3 73q-31 -43 -67 -67t-82 -24q-55 0 -85 33.5zM142 659q-20 20 -20 52q0 40 27 66.5t66 26.5q34 0 54 -19.5t20 -52.5q0 -40 -27 -66.5 t-66 -26.5q-34 0 -54 20zM358 659q-20 20 -20 52q0 40 27 66.5t66 26.5q34 0 54 -19.5t20 -52.5q0 -40 -27 -66.5t-66 -26.5q-34 0 -54 20z" />
<glyph unicode="&#xfd;" horiz-adv-x="471" d="M303 -1q-45 -110 -124 -163.5t-198 -59.5l-3 117q71 9 107.5 32t63.5 75h-59l-62 532h173l9 -424l133 424h176zM379 838l54 -123l-233 -95l-40 82z" />
<glyph unicode="&#xfe;" horiz-adv-x="532" d="M478 501.5q37 -49.5 37 -142.5q0 -100 -27 -185.5t-86.5 -138.5t-151.5 -53q-43 0 -79 12l-28 -200l-169 -18l136 967l169 17l-38 -270q24 28 59 44.5t71 16.5q70 0 107 -49.5zM297.5 144q24.5 40 36 98t11.5 111q0 41 -11.5 57.5t-32.5 16.5q-37 0 -76 -53l-37 -260 q27 -10 48 -10q37 0 61.5 40z" />
<glyph unicode="&#xff;" horiz-adv-x="471" d="M303 -1q-45 -110 -124 -163.5t-198 -59.5l-3 117q71 9 107.5 32t63.5 75h-59l-62 532h173l9 -424l133 424h176zM127 659q-20 20 -20 52q0 40 27 66.5t66 26.5q34 0 54 -19.5t20 -52.5q0 -40 -27 -66.5t-66 -26.5q-34 0 -54 20zM343 659q-20 20 -20 52q0 40 27 66.5 t66 26.5q34 0 54 -19.5t20 -52.5q0 -40 -27 -66.5t-66 -26.5q-34 0 -54 20z" />
<glyph unicode="&#x100;" horiz-adv-x="538" d="M335 0l-7 145h-156l-45 -145h-181l278 694h209l83 -694h-181zM212 271h110l-14 307zM480 779h-283l17 117h283z" />
<glyph unicode="&#x101;" d="M514 496l-48 -337q-2 -20 -2 -27q0 -14 5 -22.5t17 -14.5l-50 -110q-45 4 -77.5 24t-44.5 57q-29 -41 -63.5 -62.5t-80.5 -21.5q-74 0 -114 53.5t-40 146.5t30 177t96.5 138t169.5 54q105 0 202 -55zM215 354.5q-29 -76.5 -29 -174.5q0 -41 11 -57.5t31 -16.5q35 0 74 62 l37 257q-20 6 -38 6q-57 0 -86 -76.5zM479 653h-283l17 117h283z" />
<glyph unicode="&#x102;" horiz-adv-x="538" d="M335 0l-7 145h-156l-45 -145h-181l278 694h209l83 -694h-181zM212 271h110l-14 307zM229.5 799q-35.5 50 -30.5 121l87 13q2 -30 18 -48.5t44 -18.5q55 0 83 70l89 -19q-15 -72 -61.5 -120t-119.5 -48q-74 0 -109.5 50z" />
<glyph unicode="&#x103;" d="M514 496l-48 -337q-2 -20 -2 -27q0 -14 5 -22.5t17 -14.5l-50 -110q-45 4 -77.5 24t-44.5 57q-29 -41 -63.5 -62.5t-80.5 -21.5q-74 0 -114 53.5t-40 146.5t30 177t96.5 138t169.5 54q105 0 202 -55zM215 354.5q-29 -76.5 -29 -174.5q0 -41 11 -57.5t31 -16.5q35 0 74 62 l37 257q-20 6 -38 6q-57 0 -86 -76.5zM227 675.5q-36 45.5 -36 116.5l1 20l88 13q2 -37 17.5 -57t44.5 -20q30 0 52 21t34 58l85 -19q-15 -78 -61.5 -128t-118.5 -50q-70 0 -106 45.5z" />
<glyph unicode="&#x104;" horiz-adv-x="538" d="M340 -56q-25 -29 -25 -56q0 -33 40 -33q25 0 53 6l-23 -101q-30 -8 -65 -8q-55 0 -90 29.5t-35 80.5q0 104 139 164l-6 119h-156l-45 -145h-181l278 694h209l83 -694h-83q-68 -27 -93 -56zM212 271h110l-14 307z" />
<glyph unicode="&#x105;" d="M464 132q0 -14 5 -22.5t17 -14.5l-50 -110q-68 -27 -93 -56t-25 -56q0 -33 40 -33q25 0 53 6l-23 -101q-30 -8 -65 -8q-55 0 -90 29.5t-35 80.5q0 53 36.5 95t114.5 74q-24 18 -35 50q-29 -41 -63.5 -62.5t-80.5 -21.5q-74 0 -114 53.5t-40 146.5t30 177t96.5 138 t169.5 54q105 0 202 -55l-48 -337q-2 -20 -2 -27zM339 425q-20 6 -38 6q-57 0 -86 -76.5t-29 -174.5q0 -41 11 -57.5t31 -16.5q35 0 74 62z" />
<glyph unicode="&#x106;" horiz-adv-x="521" d="M563 630l-91 -90q-23 21 -46.5 32t-52.5 11q-57 0 -93.5 -52t-52.5 -127.5t-16 -150.5q0 -136 93 -136q31 0 58 13.5t65 41.5l64 -100q-43 -40 -98 -65t-121 -25q-111 0 -176 70.5t-65 205.5q0 117 37 221t114 169t191 65q118 0 190 -83zM488 954l54 -123l-233 -86 l-37 81z" />
<glyph unicode="&#x107;" horiz-adv-x="431" d="M466 482l-81 -94q-37 33 -78 33q-60 0 -87 -66.5t-27 -152.5q0 -49 16.5 -68.5t47.5 -19.5q21 0 40.5 8t46.5 25l60 -103q-78 -62 -174 -62q-99 0 -155 59.5t-56 164.5q0 88 32 167t96.5 128.5t155.5 49.5q99 0 163 -69zM405 838l54 -123l-233 -95l-40 82z" />
<glyph unicode="&#x108;" horiz-adv-x="521" d="M563 630l-91 -90q-23 21 -46.5 32t-52.5 11q-57 0 -93.5 -52t-52.5 -127.5t-16 -150.5q0 -136 93 -136q31 0 58 13.5t65 41.5l64 -100q-43 -40 -98 -65t-121 -25q-111 0 -176 70.5t-65 205.5q0 117 37 221t114 169t191 65q118 0 190 -83zM264 755l-57 67l148 133h100 l113 -137l-65 -63l-109 86z" />
<glyph unicode="&#x109;" horiz-adv-x="431" d="M466 482l-81 -94q-37 33 -78 33q-60 0 -87 -66.5t-27 -152.5q0 -49 16.5 -68.5t47.5 -19.5q21 0 40.5 8t46.5 25l60 -103q-78 -62 -174 -62q-99 0 -155 59.5t-56 164.5q0 88 32 167t96.5 128.5t155.5 49.5q99 0 163 -69zM194 619l-54 67l148 141h100l113 -145l-69 -63 l-106 94z" />
<glyph unicode="&#x10a;" horiz-adv-x="521" d="M563 630l-91 -90q-23 21 -46.5 32t-52.5 11q-57 0 -93.5 -52t-52.5 -127.5t-16 -150.5q0 -136 93 -136q31 0 58 13.5t65 41.5l64 -100q-43 -40 -98 -65t-121 -25q-111 0 -176 70.5t-65 205.5q0 117 37 221t114 169t191 65q118 0 190 -83zM328 775.5q-23 22.5 -23 59.5 q0 46 31 76.5t76 30.5q40 0 63 -22.5t23 -59.5q0 -46 -31 -76.5t-76 -30.5q-40 0 -63 22.5z" />
<glyph unicode="&#x10b;" horiz-adv-x="431" d="M466 482l-81 -94q-37 33 -78 33q-60 0 -87 -66.5t-27 -152.5q0 -49 16.5 -68.5t47.5 -19.5q21 0 40.5 8t46.5 25l60 -103q-78 -62 -174 -62q-99 0 -155 59.5t-56 164.5q0 88 32 167t96.5 128.5t155.5 49.5q99 0 163 -69zM252 649.5q-23 22.5 -23 59.5q0 46 31 76.5 t76 30.5q40 0 63 -22.5t23 -59.5q0 -46 -31 -76.5t-76 -30.5q-40 0 -63 22.5z" />
<glyph unicode="&#x10c;" horiz-adv-x="521" d="M563 630l-91 -90q-23 21 -46.5 32t-52.5 11q-57 0 -93.5 -52t-52.5 -127.5t-16 -150.5q0 -136 93 -136q31 0 58 13.5t65 41.5l64 -100q-43 -40 -98 -65t-121 -25q-111 0 -176 70.5t-65 205.5q0 117 37 221t114 169t191 65q118 0 190 -83zM526 949l56 -67l-147 -133h-101 l-113 138l65 62l110 -85z" />
<glyph unicode="&#x10d;" horiz-adv-x="431" d="M466 482l-81 -94q-37 33 -78 33q-60 0 -87 -66.5t-27 -152.5q0 -49 16.5 -68.5t47.5 -19.5q21 0 40.5 8t46.5 25l60 -103q-78 -62 -174 -62q-99 0 -155 59.5t-56 164.5q0 88 32 167t96.5 128.5t155.5 49.5q99 0 163 -69zM454 817l54 -67l-148 -141h-101l-108 141l62 67 l107 -94z" />
<glyph unicode="&#x10e;" horiz-adv-x="591" d="M504.5 638.5q77.5 -55.5 77.5 -198.5q0 -199 -88 -319.5t-281 -120.5h-204l97 694h191q130 0 207.5 -55.5zM262 568l-61 -441h38q90 0 128 96t38 220q0 69 -25.5 97t-75.5 28h-42zM474 949l56 -67l-147 -133h-101l-113 138l65 62l110 -85z" />
<glyph unicode="&#x10f;" horiz-adv-x="631" d="M558 743l-104 -743h-148l2 67q-28 -41 -62 -63t-81 -22q-72 0 -110 52.5t-38 148.5q0 89 26.5 173.5t80 139.5t130.5 55q65 0 103 -48l36 257zM232 387.5q-23 -39.5 -33.5 -96t-10.5 -107.5q0 -44 10.5 -61.5t30.5 -17.5q37 0 83 77l30 215q-19 30 -52 30 q-35 0 -58 -39.5zM600 758l119 -15l-74 -222l-84 8z" />
<glyph unicode="&#x110;" horiz-adv-x="599" d="M512.5 638.5q77.5 -55.5 77.5 -198.5q0 -199 -88 -319.5t-281 -120.5h-204l42 301h-47l16 104h46l40 289h191q130 0 207.5 -55.5zM375 223q38 96 38 220q0 69 -25.5 97t-75.5 28h-42l-23 -163h110l-16 -104h-108l-24 -174h38q90 0 128 96z" />
<glyph unicode="&#x111;" horiz-adv-x="544" d="M585 594h-48l-83 -594h-148l2 67q-28 -41 -62 -63t-81 -22q-72 0 -110 52.5t-38 148.5q0 89 26.5 173.5t80 139.5t130.5 55q65 0 103 -48l13 91h-105l2 96h116l10 70l165 -17l-7 -53h49zM342 397q-19 30 -52 30q-35 0 -58 -39.5t-33.5 -96t-10.5 -107.5q0 -44 10.5 -61.5 t30.5 -17.5q37 0 83 77z" />
<glyph unicode="&#x112;" horiz-adv-x="464" d="M504 694l-37 -125h-204l-22 -155h180l-17 -123h-180l-23 -165h221l-18 -126h-395l97 694h398zM457 779h-283l17 117h283z" />
<glyph unicode="&#x113;" horiz-adv-x="495" d="M445.5 510q49.5 -41 49.5 -105q0 -180 -311 -213v-1q0 -45 19 -65t55 -20q29 0 56.5 11t63.5 36l58 -98q-93 -73 -206 -73q-102 0 -157 56t-55 159q0 91 31 172t96.5 131.5t164.5 50.5q86 0 135.5 -41zM298 329.5q32 30.5 32 70.5q0 39 -38 39t-62.5 -41.5t-36.5 -104.5 q73 6 105 36.5zM457 653h-283l17 117h283z" />
<glyph unicode="&#x114;" horiz-adv-x="464" d="M504 694l-37 -125h-204l-22 -155h180l-17 -123h-180l-23 -165h221l-18 -126h-395l97 694h398zM206.5 799q-35.5 50 -30.5 121l87 13q2 -30 18 -48.5t44 -18.5q55 0 83 70l89 -19q-15 -72 -61.5 -120t-119.5 -48q-74 0 -109.5 50z" />
<glyph unicode="&#x115;" horiz-adv-x="495" d="M445.5 510q49.5 -41 49.5 -105q0 -180 -311 -213v-1q0 -45 19 -65t55 -20q29 0 56.5 11t63.5 36l58 -98q-93 -73 -206 -73q-102 0 -157 56t-55 159q0 91 31 172t96.5 131.5t164.5 50.5q86 0 135.5 -41zM298 329.5q32 30.5 32 70.5q0 39 -38 39t-62.5 -41.5t-36.5 -104.5 q73 6 105 36.5zM205 675.5q-36 45.5 -36 116.5l1 20l88 13q2 -37 17.5 -57t44.5 -20q30 0 52 21t34 58l85 -19q-15 -78 -61.5 -128t-118.5 -50q-70 0 -106 45.5z" />
<glyph unicode="&#x116;" horiz-adv-x="464" d="M504 694l-37 -125h-204l-22 -155h180l-17 -123h-180l-23 -165h221l-18 -126h-395l97 694h398zM257 775.5q-23 22.5 -23 59.5q0 46 31 76.5t76 30.5q40 0 63 -22.5t23 -59.5q0 -46 -31 -76.5t-76 -30.5q-40 0 -63 22.5z" />
<glyph unicode="&#x117;" horiz-adv-x="495" d="M445.5 510q49.5 -41 49.5 -105q0 -180 -311 -213v-1q0 -45 19 -65t55 -20q29 0 56.5 11t63.5 36l58 -98q-93 -73 -206 -73q-102 0 -157 56t-55 159q0 91 31 172t96.5 131.5t164.5 50.5q86 0 135.5 -41zM298 329.5q32 30.5 32 70.5q0 39 -38 39t-62.5 -41.5t-36.5 -104.5 q73 6 105 36.5zM252 649.5q-23 22.5 -23 59.5q0 46 31 76.5t76 30.5q40 0 63 -22.5t23 -59.5q0 -46 -31 -76.5t-76 -30.5q-40 0 -63 22.5z" />
<glyph unicode="&#x118;" horiz-adv-x="464" d="M263 569l-22 -155h180l-17 -123h-180l-23 -165h221l-18 -126h-35q-68 -27 -93 -56t-25 -56q0 -33 40 -33q25 0 53 6l-23 -101q-30 -8 -65 -8q-55 0 -90 29.5t-35 80.5q0 83 89 138h-211l97 694h398l-37 -125h-204z" />
<glyph unicode="&#x119;" horiz-adv-x="495" d="M445.5 510q49.5 -41 49.5 -105q0 -180 -311 -213v-1q0 -45 19 -65t55 -20q29 0 56.5 11t63.5 36l58 -98q-48 -38 -104 -57q-91 -42 -91 -99q0 -34 40 -34q25 0 57 8l-24 -103q-32 -8 -66 -8q-57 0 -92.5 28t-35.5 76q0 73 75 118q-86 10 -131.5 64.5t-45.5 148.5 q0 91 31 172t96.5 131.5t164.5 50.5q86 0 135.5 -41zM298 329.5q32 30.5 32 70.5q0 39 -38 39t-62.5 -41.5t-36.5 -104.5q73 6 105 36.5z" />
<glyph unicode="&#x11a;" horiz-adv-x="464" d="M504 694l-37 -125h-204l-22 -155h180l-17 -123h-180l-23 -165h221l-18 -126h-395l97 694h398zM455 949l56 -67l-147 -133h-101l-113 138l65 62l110 -85z" />
<glyph unicode="&#x11b;" horiz-adv-x="495" d="M445.5 510q49.5 -41 49.5 -105q0 -180 -311 -213v-1q0 -45 19 -65t55 -20q29 0 56.5 11t63.5 36l58 -98q-93 -73 -206 -73q-102 0 -157 56t-55 159q0 91 31 172t96.5 131.5t164.5 50.5q86 0 135.5 -41zM298 329.5q32 30.5 32 70.5q0 39 -38 39t-62.5 -41.5t-36.5 -104.5 q73 6 105 36.5zM454 817l54 -67l-148 -141h-101l-108 141l62 67l107 -94z" />
<glyph unicode="&#x11c;" horiz-adv-x="584" d="M511.5 688.5q51.5 -24.5 86.5 -65.5l-94 -85q-29 26 -54.5 37t-58.5 11q-67 0 -108 -54.5t-58.5 -135.5t-17.5 -168q0 -63 20 -90.5t61 -27.5q38 0 76 22l21 147h-68l1 123h249l-47 -345q-54 -36 -118 -55.5t-124 -19.5q-125 0 -187 67.5t-62 199.5q0 121 40.5 226.5 t122.5 171.5t202 66q66 0 117.5 -24.5zM269 755l-57 67l148 133h100l113 -137l-65 -63l-109 86z" />
<glyph unicode="&#x11d;" horiz-adv-x="525" d="M518 496l-65 -460q-20 -136 -83.5 -198t-184.5 -62q-50 0 -99 15.5t-89 42.5l57 108q67 -38 127 -38q43 0 70.5 22t35.5 83l8 57q-51 -66 -125 -66q-73 0 -112.5 53t-39.5 144t30 171t96.5 131.5t170.5 51.5q106 0 203 -55zM217 360q-29 -71 -29 -163q0 -40 11 -56.5 t32 -16.5q36 0 77 62l34 239q-19 6 -38 6q-58 0 -87 -71zM205 619l-54 67l148 141h100l113 -145l-69 -63l-106 94z" />
<glyph unicode="&#x11e;" horiz-adv-x="584" d="M511.5 688.5q51.5 -24.5 86.5 -65.5l-94 -85q-29 26 -54.5 37t-58.5 11q-67 0 -108 -54.5t-58.5 -135.5t-17.5 -168q0 -63 20 -90.5t61 -27.5q38 0 76 22l21 147h-68l1 123h249l-47 -345q-54 -36 -118 -55.5t-124 -19.5q-125 0 -187 67.5t-62 199.5q0 121 40.5 226.5 t122.5 171.5t202 66q66 0 117.5 -24.5zM282.5 799q-35.5 50 -30.5 121l87 13q2 -30 18 -48.5t44 -18.5q55 0 83 70l89 -19q-15 -72 -61.5 -120t-119.5 -48q-74 0 -109.5 50z" />
<glyph unicode="&#x11f;" horiz-adv-x="525" d="M518 496l-65 -460q-20 -136 -83.5 -198t-184.5 -62q-50 0 -99 15.5t-89 42.5l57 108q67 -38 127 -38q43 0 70.5 22t35.5 83l8 57q-51 -66 -125 -66q-73 0 -112.5 53t-39.5 144t30 171t96.5 131.5t170.5 51.5q106 0 203 -55zM217 360q-29 -71 -29 -163q0 -40 11 -56.5 t32 -16.5q36 0 77 62l34 239q-19 6 -38 6q-58 0 -87 -71zM216 675.5q-36 45.5 -36 116.5l1 20l88 13q2 -37 17.5 -57t44.5 -20q30 0 52 21t34 58l85 -19q-15 -78 -61.5 -128t-118.5 -50q-70 0 -106 45.5z" />
<glyph unicode="&#x120;" horiz-adv-x="584" d="M511.5 688.5q51.5 -24.5 86.5 -65.5l-94 -85q-29 26 -54.5 37t-58.5 11q-67 0 -108 -54.5t-58.5 -135.5t-17.5 -168q0 -63 20 -90.5t61 -27.5q38 0 76 22l21 147h-68l1 123h249l-47 -345q-54 -36 -118 -55.5t-124 -19.5q-125 0 -187 67.5t-62 199.5q0 121 40.5 226.5 t122.5 171.5t202 66q66 0 117.5 -24.5zM333 775.5q-23 22.5 -23 59.5q0 46 31 76.5t76 30.5q40 0 63 -22.5t23 -59.5q0 -46 -31 -76.5t-76 -30.5q-40 0 -63 22.5z" />
<glyph unicode="&#x121;" horiz-adv-x="525" d="M518 496l-65 -460q-20 -136 -83.5 -198t-184.5 -62q-50 0 -99 15.5t-89 42.5l57 108q67 -38 127 -38q43 0 70.5 22t35.5 83l8 57q-51 -66 -125 -66q-73 0 -112.5 53t-39.5 144t30 171t96.5 131.5t170.5 51.5q106 0 203 -55zM217 360q-29 -71 -29 -163q0 -40 11 -56.5 t32 -16.5q36 0 77 62l34 239q-19 6 -38 6q-58 0 -87 -71zM263 649.5q-23 22.5 -23 59.5q0 46 31 76.5t76 30.5q40 0 63 -22.5t23 -59.5q0 -46 -31 -76.5t-76 -30.5q-40 0 -63 22.5z" />
<glyph unicode="&#x122;" horiz-adv-x="584" d="M511.5 688.5q51.5 -24.5 86.5 -65.5l-94 -85q-29 26 -54.5 37t-58.5 11q-67 0 -108 -54.5t-58.5 -135.5t-17.5 -168q0 -63 20 -90.5t61 -27.5q38 0 76 22l21 147h-68l1 123h249l-47 -345q-54 -36 -118 -55.5t-124 -19.5q-125 0 -187 67.5t-62 199.5q0 121 40.5 226.5 t122.5 171.5t202 66q66 0 117.5 -24.5zM322.5 -86q20.5 -20 20.5 -51q0 -24 -8 -44t-29 -55l-57 -94h-80l42 117q-29 19 -29 54q0 41 25 67t62 26q33 0 53.5 -20z" />
<glyph unicode="&#x123;" horiz-adv-x="525" d="M518 496l-65 -460q-20 -136 -83.5 -198t-184.5 -62q-50 0 -99 15.5t-89 42.5l57 108q67 -38 127 -38q43 0 70.5 22t35.5 83l8 57q-51 -66 -125 -66q-73 0 -112.5 53t-39.5 144t30 171t96.5 131.5t170.5 51.5q106 0 203 -55zM217 360q-29 -71 -29 -163q0 -40 11 -56.5 t32 -16.5q36 0 77 62l34 239q-19 6 -38 6q-58 0 -87 -71zM266.5 607q-20.5 20 -20.5 51q0 24 8 44t29 55l57 94h80l-42 -117q29 -19 29 -54q0 -41 -25 -67t-62 -26q-33 0 -53.5 20z" />
<glyph unicode="&#x124;" horiz-adv-x="589" d="M182 0h-174l98 694h174l-37 -265h148l38 265h173l-97 -694h-173l40 292h-148zM242 755l-57 67l148 133h100l113 -137l-65 -63l-109 86z" />
<glyph unicode="&#x125;" horiz-adv-x="510" d="M463 518q29 -33 29 -92q0 -16 -3 -36l-55 -390h-167l49 356q1 7 1 19q0 29 -19 29q-18 0 -38.5 -27t-46.5 -82l-41 -295h-167l104 743l169 17l-42 -307q25 43 63 70.5t84 27.5q51 0 80 -33zM209 804l-57 67l148 133h100l113 -137l-65 -63l-109 86z" />
<glyph unicode="&#x126;" horiz-adv-x="605" d="M643 595l-14 -97h-46l-70 -498h-173l40 292h-148l-42 -292h-174l70 498h-45l13 97h46l14 99h174l-14 -99h149l14 99h173l-14 -99h47zM399 429l10 69h-148l-10 -69h148z" />
<glyph unicode="&#x127;" horiz-adv-x="519" d="M472 518q29 -33 29 -92q0 -16 -3 -36l-55 -390h-167l49 356q1 7 1 19q0 29 -19 29q-18 0 -38.5 -27t-46.5 -82l-41 -295h-167l83 594h-47l14 96h47l7 53l169 17l-10 -70h119l-27 -96h-105l-19 -141q25 43 63 70.5t84 27.5q51 0 80 -33z" />
<glyph unicode="&#x128;" horiz-adv-x="267" d="M280 694l-97 -694h-174l97 694h174zM228.5 764q-13.5 7 -31.5 19q-3 2 -11 7.5t-14.5 8t-12.5 2.5q-15 0 -26.5 -10.5t-26.5 -33.5l-74 42q26 54 61.5 88t74.5 34q20 0 35 -7t32 -20q11 -9 19 -13t16 -4q14 0 25.5 10.5t25.5 32.5l74 -41q-26 -54 -62 -88t-74 -34 q-17 0 -30.5 7z" />
<glyph unicode="&#x129;" horiz-adv-x="254" d="M247 532l-74 -532h-167l74 532h167zM204.5 638q-13.5 7 -31.5 19q-3 2 -11 7.5t-14.5 8t-12.5 2.5q-15 0 -26.5 -10.5t-26.5 -33.5l-74 42q26 54 61.5 88t74.5 34q20 0 35 -7t32 -20q11 -9 19 -13t16 -4q14 0 25.5 10.5t25.5 32.5l74 -41q-26 -54 -62 -88t-74 -34 q-17 0 -30.5 7z" />
<glyph unicode="&#x12a;" horiz-adv-x="267" d="M280 694l-97 -694h-174l97 694h174zM344 779h-283l17 117h283z" />
<glyph unicode="&#x12b;" horiz-adv-x="254" d="M247 532l-74 -532h-167l74 532h167zM322 653h-283l17 117h283z" />
<glyph unicode="&#x12c;" horiz-adv-x="267" d="M280 694l-97 -694h-174l97 694h174zM93.5 799q-35.5 50 -30.5 121l87 13q2 -30 18 -48.5t44 -18.5q55 0 83 70l89 -19q-15 -72 -61.5 -120t-119.5 -48q-74 0 -109.5 50z" />
<glyph unicode="&#x12d;" horiz-adv-x="254" d="M247 532l-74 -532h-167l74 532h167zM70 675.5q-36 45.5 -36 116.5l1 20l88 13q2 -37 17.5 -57t44.5 -20q30 0 52 21t34 58l85 -19q-15 -78 -61.5 -128t-118.5 -50q-70 0 -106 45.5z" />
<glyph unicode="&#x12e;" horiz-adv-x="267" d="M280 694l-97 -694h-41q-68 -27 -93 -56t-25 -56q0 -33 40 -33q24 0 53 6l-23 -101q-30 -8 -65 -8q-55 0 -90 29.5t-35 80.5q0 90 106 148l96 684h174z" />
<glyph unicode="&#x12f;" horiz-adv-x="254" d="M264 793.5q23 -22.5 23 -59.5q0 -46 -31 -76.5t-76 -30.5q-40 0 -63 22.5t-23 59.5q0 46 31 76.5t76 30.5q40 0 63 -22.5zM80 532h167l-74 -532h-38q-68 -27 -93 -56t-25 -56q0 -33 40 -33q25 0 53 6l-23 -101q-30 -8 -65 -8q-55 0 -90 29.5t-35 80.5q0 92 111 150z" />
<glyph unicode="&#x130;" horiz-adv-x="267" d="M280 694l-97 -694h-174l97 694h174zM144 775.5q-23 22.5 -23 59.5q0 46 31 76.5t76 30.5q40 0 63 -22.5t23 -59.5q0 -46 -31 -76.5t-76 -30.5q-40 0 -63 22.5z" />
<glyph unicode="&#x131;" horiz-adv-x="254" d="M247 532l-74 -532h-167l74 532h167z" />
<glyph unicode="&#x132;" horiz-adv-x="558" d="M280 694l-97 -694h-174l97 694h174zM491 103q-12 -86 -49 -141t-87 -85t-119 -53l-31 124q58 25 80.5 61t32.5 105l82 580h173z" />
<glyph unicode="&#x133;" horiz-adv-x="507" d="M247 532l-74 -532h-167l74 532h167zM117 649.5q-23 22.5 -23 59.5q0 46 31 76.5t76 30.5q40 0 63 -22.5t23 -59.5q0 -46 -31 -76.5t-76 -30.5q-40 0 -63 22.5zM149 -102q56 23 83 56.5t36 101.5l66 476h168l-66 -469q-13 -88 -47.5 -143.5t-83 -86.5t-117.5 -56z M371 649.5q-23 22.5 -23 59.5q0 46 31 76.5t76 30.5q40 0 63 -22.5t23 -59.5q0 -46 -31 -76.5t-76 -30.5q-40 0 -63 22.5z" />
<glyph unicode="&#x134;" horiz-adv-x="291" d="M224 103q-12 -86 -49 -141t-87 -85t-119 -53l-31 124q58 25 80.5 61t32.5 105l82 580h173zM106 755l-57 67l148 133h100l113 -137l-65 -63l-109 86z" />
<glyph unicode="&#x135;" horiz-adv-x="253" d="M-105 -102q56 23 83 56.5t36 101.5l66 476h168l-66 -469q-13 -88 -47.5 -143.5t-83 -86.5t-117.5 -56zM59 619l-54 67l148 141h100l113 -145l-69 -63l-106 94z" />
<glyph unicode="&#x136;" horiz-adv-x="587" d="M9 0l97 694h174l-97 -694h-174zM368 0l-128 370l222 324h179l-224 -320l143 -374h-192zM303.5 -86q20.5 -20 20.5 -51q0 -24 -8 -44t-29 -55l-57 -94h-80l42 117q-29 19 -29 54q0 41 25 67t62 26q33 0 53.5 -20z" />
<glyph unicode="&#x137;" horiz-adv-x="526" d="M239 469q36 42 75 61.5t85 19.5q61 0 97.5 -34t36.5 -90q0 -61 -31.5 -106t-97.5 -80l77 -240h-177l-72 256q73 27 102.5 61t29.5 76q0 20 -9.5 30t-25.5 10q-53 0 -110 -97l-46 -336h-168l104 743l170 17zM275.5 -86q20.5 -20 20.5 -51q0 -24 -8 -44t-29 -55l-57 -94 h-80l42 117q-29 19 -29 54q0 41 25 67t62 26q33 0 53.5 -20z" />
<glyph unicode="&#x138;" horiz-adv-x="505" d="M248 532l-74 -532h-168l74 532h168zM548 532l-162 -249l96 -283h-179l-87 281l158 251h174z" />
<glyph unicode="&#x139;" horiz-adv-x="461" d="M280 694l-78 -556h235l-38 -138h-390l97 694h174zM304 954l54 -123l-233 -86l-37 81z" />
<glyph unicode="&#x13a;" horiz-adv-x="266" d="M188 147l-1 -9q0 -21 19 -21q10 0 19 3l15 -118q-45 -20 -99 -20q-60 0 -92 31.5t-32 89.5q0 16 3 34l85 606l168 17zM298 1003l54 -123l-233 -86l-37 81z" />
<glyph unicode="&#x13b;" horiz-adv-x="461" d="M280 694l-78 -556h235l-38 -138h-390l97 694h174zM250.5 -86q20.5 -20 20.5 -51q0 -24 -8 -44t-29 -55l-57 -94h-80l42 117q-29 19 -29 54q0 41 25 67t62 26q33 0 53.5 -20z" />
<glyph unicode="&#x13c;" horiz-adv-x="266" d="M188 147l-1 -9q0 -21 19 -21q10 0 19 3l15 -118q-45 -20 -99 -20q-60 0 -92 31.5t-32 89.5q0 16 3 34l85 606l168 17zM168.5 -86q20.5 -20 20.5 -51q0 -24 -8 -44t-29 -55l-57 -94h-80l42 117q-29 19 -29 54q0 41 25 67t62 26q33 0 53.5 -20z" />
<glyph unicode="&#x13d;" horiz-adv-x="461" d="M280 694l-78 -556h235l-38 -138h-390l97 694h174zM327 709l119 -15l-74 -222l-84 8z" />
<glyph unicode="&#x13e;" horiz-adv-x="346" d="M188 147l-1 -9q0 -21 19 -21q10 0 19 3l15 -118q-45 -20 -99 -20q-60 0 -92 31.5t-32 89.5q0 16 3 34l85 606l168 17zM316 758l119 -15l-74 -222l-84 8z" />
<glyph unicode="&#x13f;" horiz-adv-x="461" d="M280 694l-78 -556h235l-38 -138h-390l97 694h174zM305 327.5q-23 22.5 -23 59.5q0 46 31 76.5t76 30.5q40 0 63 -22.5t23 -59.5q0 -46 -31 -76.5t-76 -30.5q-40 0 -63 22.5z" />
<glyph unicode="&#x140;" horiz-adv-x="435" d="M188 147l-1 -9q0 -21 19 -21q10 0 19 3l15 -118q-45 -20 -99 -20q-60 0 -92 31.5t-32 89.5q0 16 3 34l85 606l168 17zM279 302.5q-23 22.5 -23 59.5q0 46 31 76.5t76 30.5q40 0 63 -22.5t23 -59.5q0 -46 -31 -76.5t-76 -30.5q-40 0 -63 22.5z" />
<glyph unicode="&#x141;" horiz-adv-x="501" d="M242 138h235l-38 -138h-390l30 218l-34 -22l-42 87l94 58l49 353h174l-33 -236l109 67l43 -86l-169 -104z" />
<glyph unicode="&#x142;" horiz-adv-x="321" d="M256 120l15 -118q-45 -20 -99 -20q-60 0 -92 31.5t-32 89.5q0 16 3 34l18 127l-41 -24l-27 97l85 52l50 354l168 17l-36 -261l55 33l26 -100l-99 -59l-31 -226l-1 -9q0 -21 19 -21q10 0 19 3z" />
<glyph unicode="&#x143;" horiz-adv-x="586" d="M502 0h-213l-85 548l1 -33q2 -46 2 -71q0 -98 -15 -210l-31 -234h-152l97 694h212l85 -548l-1 41q-2 44 -2 64q0 82 13 190l34 253h152zM465 954l54 -123l-233 -86l-37 81z" />
<glyph unicode="&#x144;" horiz-adv-x="511" d="M464 518q29 -33 29 -92q0 -16 -3 -36l-55 -390h-167l49 356q1 7 1 19q0 29 -19 29q-18 0 -38 -27t-46 -82l-42 -295h-167l74 532h146l-2 -85q31 48 72 76t88 28q51 0 80 -33zM403 838l54 -123l-233 -95l-40 82z" />
<glyph unicode="&#x145;" horiz-adv-x="586" d="M502 0h-213l-85 548l1 -33q2 -46 2 -71q0 -98 -15 -210l-31 -234h-152l97 694h212l85 -548l-1 41q-2 44 -2 64q0 82 13 190l34 253h152zM302.5 -86q20.5 -20 20.5 -51q0 -24 -8 -44t-29 -55l-57 -94h-80l42 117q-29 19 -29 54q0 41 25 67t62 26q33 0 53.5 -20z" />
<glyph unicode="&#x146;" horiz-adv-x="511" d="M464 518q29 -33 29 -92q0 -16 -3 -36l-55 -390h-167l49 356q1 7 1 19q0 29 -19 29q-18 0 -38 -27t-46 -82l-42 -295h-167l74 532h146l-2 -85q31 48 72 76t88 28q51 0 80 -33zM258.5 -86q20.5 -20 20.5 -51q0 -24 -8 -44t-29 -55l-57 -94h-80l42 117q-29 19 -29 54 q0 41 25 67t62 26q33 0 53.5 -20z" />
<glyph unicode="&#x147;" horiz-adv-x="586" d="M502 0h-213l-85 548l1 -33q2 -46 2 -71q0 -98 -15 -210l-31 -234h-152l97 694h212l85 -548l-1 41q-2 44 -2 64q0 82 13 190l34 253h152zM503 949l56 -67l-147 -133h-101l-113 138l65 62l110 -85z" />
<glyph unicode="&#x148;" horiz-adv-x="511" d="M464 518q29 -33 29 -92q0 -16 -3 -36l-55 -390h-167l49 356q1 7 1 19q0 29 -19 29q-18 0 -38 -27t-46 -82l-42 -295h-167l74 532h146l-2 -85q31 48 72 76t88 28q51 0 80 -33zM452 817l54 -67l-148 -141h-101l-108 141l62 67l107 -94z" />
<glyph unicode="&#x149;" horiz-adv-x="631" d="M208 743.5q17 -17.5 17 -44.5q0 -19 -7 -36.5t-25 -47.5l-49 -80h-68l35 100q-23 16 -23 49q0 32 22 54.5t53 22.5q28 0 45 -17.5zM584 518q29 -33 29 -92q0 -16 -3 -36l-55 -390h-167l49 356q1 7 1 19q0 29 -19 29q-18 0 -38 -27t-46 -82l-42 -295h-167l74 532h146 l-2 -85q31 48 72 76t88 28q51 0 80 -33z" />
<glyph unicode="&#x14a;" horiz-adv-x="586" d="M599 694l-97 -694l-5 -34q-15 -93 -73.5 -141.5t-147.5 -48.5q-84 0 -133 45l69 101q16 -10 27.5 -14t28.5 -4q46 0 55 54l5 42h-39l-85 548l1 -33q2 -46 2 -71q0 -98 -15 -210l-31 -234h-152l97 694h212l85 -548l-1 41q-2 44 -2 64q0 82 13 190l34 253h152z" />
<glyph unicode="&#x14b;" horiz-adv-x="511" d="M464 518q29 -33 29 -92q0 -16 -3 -36l-55 -390l-5 -36q-14 -93 -71.5 -140t-145.5 -47q-79 0 -132 44l68 97q18 -11 30 -15t28 -4q23 0 37 13.5t17 39.5l7 48l49 356q1 7 1 19q0 29 -19 29q-18 0 -38 -27t-46 -82l-42 -295h-167l74 532h146l-2 -85q31 48 72 76t88 28 q51 0 80 -33z" />
<glyph unicode="&#x14c;" horiz-adv-x="624" d="M553.5 643q62.5 -70 62.5 -203q0 -117 -35 -221t-112 -170.5t-195 -66.5t-180.5 70t-62.5 202q0 117 35 221.5t111.5 171t194.5 66.5q119 0 181.5 -70zM271.5 525q-34.5 -59 -49 -141t-14.5 -155q0 -63 19.5 -91t58.5 -28q56 0 90 58.5t48 140t14 156.5q0 63 -19 91 t-58 28q-55 0 -89.5 -59zM523 779h-283l17 117h283z" />
<glyph unicode="&#x14d;" horiz-adv-x="528" d="M73.5 38.5q-54.5 56.5 -54.5 162.5q0 90 29.5 170t93 130t159.5 50q98 0 153 -57t55 -163q-1 -90 -30.5 -169.5t-93 -129.5t-159.5 -50q-98 0 -152.5 56.5zM315 184.5q24 78.5 24 165.5q0 41 -12 58.5t-38 17.5q-53 0 -77 -78t-24 -165q0 -41 12.5 -59t37.5 -18 q53 0 77 78.5zM455 653h-283l17 117h283z" />
<glyph unicode="&#x14e;" horiz-adv-x="624" d="M553.5 643q62.5 -70 62.5 -203q0 -117 -35 -221t-112 -170.5t-195 -66.5t-180.5 70t-62.5 202q0 117 35 221.5t111.5 171t194.5 66.5q119 0 181.5 -70zM271.5 525q-34.5 -59 -49 -141t-14.5 -155q0 -63 19.5 -91t58.5 -28q56 0 90 58.5t48 140t14 156.5q0 63 -19 91 t-58 28q-55 0 -89.5 -59zM272.5 799q-35.5 50 -30.5 121l87 13q2 -30 18 -48.5t44 -18.5q55 0 83 70l89 -19q-15 -72 -61.5 -120t-119.5 -48q-74 0 -109.5 50z" />
<glyph unicode="&#x14f;" horiz-adv-x="528" d="M73.5 38.5q-54.5 56.5 -54.5 162.5q0 90 29.5 170t93 130t159.5 50q98 0 153 -57t55 -163q-1 -90 -30.5 -169.5t-93 -129.5t-159.5 -50q-98 0 -152.5 56.5zM315 184.5q24 78.5 24 165.5q0 41 -12 58.5t-38 17.5q-53 0 -77 -78t-24 -165q0 -41 12.5 -59t37.5 -18 q53 0 77 78.5zM203 675.5q-36 45.5 -36 116.5l1 20l88 13q2 -37 17.5 -57t44.5 -20q30 0 52 21t34 58l85 -19q-15 -78 -61.5 -128t-118.5 -50q-70 0 -106 45.5z" />
<glyph unicode="&#x150;" horiz-adv-x="624" d="M553.5 643q62.5 -70 62.5 -203q0 -117 -35 -221t-112 -170.5t-195 -66.5t-180.5 70t-62.5 202q0 117 35 221.5t111.5 171t194.5 66.5q119 0 181.5 -70zM271.5 525q-34.5 -59 -49 -141t-14.5 -155q0 -63 19.5 -91t58.5 -28q56 0 90 58.5t48 140t14 156.5q0 63 -19 91 t-58 28q-55 0 -89.5 -59zM361 991l99 -52l-133 -185l-79 35zM525 991l98 -56l-140 -185l-77 40z" />
<glyph unicode="&#x151;" horiz-adv-x="528" d="M73.5 38.5q-54.5 56.5 -54.5 162.5q0 90 29.5 170t93 130t159.5 50q98 0 153 -57t55 -163q-1 -90 -30.5 -169.5t-93 -129.5t-159.5 -50q-98 0 -152.5 56.5zM315 184.5q24 78.5 24 165.5q0 41 -12 58.5t-38 17.5q-53 0 -77 -78t-24 -165q0 -41 12.5 -59t37.5 -18 q53 0 77 78.5zM293 865l99 -52l-133 -185l-79 35zM457 865l98 -56l-140 -185l-77 40z" />
<glyph unicode="&#x152;" horiz-adv-x="807" d="M811 569h-244q27 -57 27 -137v-18h171l-17 -123h-168q-21 -98 -73 -165h260l-20 -126h-393q-43 -18 -96 -18q-108 0 -167.5 70t-59.5 202q0 115 34.5 220t108 172t184.5 67q59 0 97 -19h392zM358 166.5q32 56.5 46 139t14 163.5q0 60 -17 87.5t-51 27.5q-50 0 -82 -57 t-46 -140t-14 -162q0 -60 17.5 -87.5t50.5 -27.5q50 0 82 56.5z" />
<glyph unicode="&#x153;" horiz-adv-x="807" d="M757 510.5q49 -40.5 49 -103.5q0 -182 -310 -215v-1q0 -45 19 -65t55 -20q29 0 56.5 11t63.5 36l58 -98q-93 -73 -204 -73q-102 0 -156 73q-65 -73 -167 -73q-93 0 -147.5 57t-54.5 162q0 90 29.5 169.5t92 130t155.5 50.5q100 0 153 -76q68 76 175 76q84 0 133 -40.5z M609 329.5q33 31.5 33 69.5q0 40 -39 40q-40 0 -64.5 -41t-34.5 -106q72 6 105 37.5zM316.5 186.5q23.5 80.5 23.5 167.5q0 38 -12.5 55t-37.5 17q-54 0 -78 -78t-24 -165q0 -41 12.5 -59t38.5 -18q54 0 77.5 80.5z" />
<glyph unicode="&#x154;" horiz-adv-x="556" d="M527.5 382.5q-32.5 -53.5 -106.5 -91.5l111 -291h-185l-84 259h-44l-36 -259h-174l97 694h208q123 0 184.5 -48t61.5 -137q0 -73 -32.5 -126.5zM236 380h42q55 0 79.5 35.5t24.5 86.5q0 36 -20 52.5t-60 16.5h-39zM442 954l54 -123l-233 -86l-37 81z" />
<glyph unicode="&#x155;" horiz-adv-x="362" d="M408 540l-50 -164q-21 6 -41 6q-39 0 -64 -37.5t-46 -105.5l-34 -239h-167l74 532h144l-1 -92q25 51 59.5 79.5t77.5 28.5q24 0 48 -8zM349 838l54 -123l-233 -95l-40 82z" />
<glyph unicode="&#x156;" horiz-adv-x="556" d="M527.5 382.5q-32.5 -53.5 -106.5 -91.5l111 -291h-185l-84 259h-44l-36 -259h-174l97 694h208q123 0 184.5 -48t61.5 -137q0 -73 -32.5 -126.5zM236 380h42q55 0 79.5 35.5t24.5 86.5q0 36 -20 52.5t-60 16.5h-39zM300.5 -86q20.5 -20 20.5 -51q0 -24 -8 -44t-29 -55 l-57 -94h-80l42 117q-29 19 -29 54q0 41 25 67t62 26q33 0 53.5 -20z" />
<glyph unicode="&#x157;" horiz-adv-x="362" d="M408 540l-50 -164q-21 6 -41 6q-39 0 -64 -37.5t-46 -105.5l-34 -239h-167l74 532h144l-1 -92q25 51 59.5 79.5t77.5 28.5q24 0 48 -8zM127.5 -86q20.5 -20 20.5 -51q0 -24 -8 -44t-29 -55l-57 -94h-80l42 117q-29 19 -29 54q0 41 25 67t62 26q33 0 53.5 -20z" />
<glyph unicode="&#x158;" horiz-adv-x="556" d="M527.5 382.5q-32.5 -53.5 -106.5 -91.5l111 -291h-185l-84 259h-44l-36 -259h-174l97 694h208q123 0 184.5 -48t61.5 -137q0 -73 -32.5 -126.5zM236 380h42q55 0 79.5 35.5t24.5 86.5q0 36 -20 52.5t-60 16.5h-39zM480 949l56 -67l-147 -133h-101l-113 138l65 62l110 -85 z" />
<glyph unicode="&#x159;" horiz-adv-x="362" d="M408 540l-50 -164q-21 6 -41 6q-39 0 -64 -37.5t-46 -105.5l-34 -239h-167l74 532h144l-1 -92q25 51 59.5 79.5t77.5 28.5q24 0 48 -8zM398 817l54 -67l-148 -141h-101l-108 141l62 67l107 -94z" />
<glyph unicode="&#x15a;" horiz-adv-x="519" d="M539 620l-88 -90q-28 28 -58 41t-66 13q-41 0 -64 -19.5t-23 -50.5q0 -28 21 -46t83 -44q77 -32 114 -76.5t37 -117.5q0 -67 -32.5 -123.5t-96.5 -90.5t-153 -34q-149 0 -238 102l96 94q32 -32 66 -48.5t78 -16.5q47 0 73.5 23.5t26.5 63.5q0 33 -22 54.5t-80 46.5 q-81 33 -116.5 76t-35.5 110q0 63 31 114.5t90 81.5t139 30q136 0 218 -93zM437 954l54 -123l-233 -86l-37 81z" />
<glyph unicode="&#x15b;" horiz-adv-x="436" d="M354.5 532.5q47.5 -18.5 81.5 -50.5l-72 -90q-52 38 -105 38q-27 0 -42 -11t-15 -29t17.5 -30.5t71.5 -33.5q59 -24 88.5 -59.5t29.5 -92.5q0 -55 -27.5 -98.5t-79.5 -68.5t-123 -25q-65 0 -118 23t-89 62l85 87q57 -52 120 -52q31 0 48 13.5t17 35.5t-17.5 36t-69.5 35 q-61 24 -89.5 58t-28.5 90q0 51 26.5 92t76 65t113.5 24q54 0 101.5 -18.5zM362 838l54 -123l-233 -95l-40 82z" />
<glyph unicode="&#x15c;" horiz-adv-x="519" d="M539 620l-88 -90q-28 28 -58 41t-66 13q-41 0 -64 -19.5t-23 -50.5q0 -28 21 -46t83 -44q77 -32 114 -76.5t37 -117.5q0 -67 -32.5 -123.5t-96.5 -90.5t-153 -34q-149 0 -238 102l96 94q32 -32 66 -48.5t78 -16.5q47 0 73.5 23.5t26.5 63.5q0 33 -22 54.5t-80 46.5 q-81 33 -116.5 76t-35.5 110q0 63 31 114.5t90 81.5t139 30q136 0 218 -93zM213 755l-57 67l148 133h100l113 -137l-65 -63l-109 86z" />
<glyph unicode="&#x15d;" horiz-adv-x="436" d="M354.5 532.5q47.5 -18.5 81.5 -50.5l-72 -90q-52 38 -105 38q-27 0 -42 -11t-15 -29t17.5 -30.5t71.5 -33.5q59 -24 88.5 -59.5t29.5 -92.5q0 -55 -27.5 -98.5t-79.5 -68.5t-123 -25q-65 0 -118 23t-89 62l85 87q57 -52 120 -52q31 0 48 13.5t17 35.5t-17.5 36t-69.5 35 q-61 24 -89.5 58t-28.5 90q0 51 26.5 92t76 65t113.5 24q54 0 101.5 -18.5zM151 619l-54 67l148 141h100l113 -145l-69 -63l-106 94z" />
<glyph unicode="&#x15e;" horiz-adv-x="519" d="M458 347.5q37 -44.5 37 -117.5q0 -60 -26.5 -112.5t-78.5 -87.5t-125 -45l-6 -34q42 -5 63.5 -27.5t21.5 -60.5q0 -30 -15.5 -59.5t-51 -49.5t-91.5 -20q-33 0 -60 9t-45 24l47 72q26 -14 54 -14q20 0 32 7.5t13 23.5q0 16 -18 23t-61 7l24 98q-121 13 -197 100l96 94 q32 -32 66 -48.5t78 -16.5q47 0 73.5 23.5t26.5 63.5q0 33 -22 54.5t-80 46.5q-81 33 -116.5 76t-35.5 110q0 63 31 114.5t90 81.5t139 30q136 0 218 -93l-88 -90q-28 28 -58 41t-66 13q-41 0 -64 -19.5t-23 -50.5q0 -28 21 -46t83 -44q77 -32 114 -76.5z" />
<glyph unicode="&#x15f;" horiz-adv-x="436" d="M379.5 266.5q29.5 -35.5 29.5 -92.5q0 -74 -49.5 -126t-135.5 -63l-6 -34q42 -5 63.5 -27.5t21.5 -60.5q0 -30 -15.5 -59.5t-51 -49.5t-91.5 -20q-33 0 -60 9t-45 24l47 72q26 -14 54 -14q20 0 32 7.5t13 23.5q0 16 -18 23t-61 7l24 99q-96 14 -159 82l85 87 q57 -52 120 -52q31 0 48 13.5t17 35.5t-17.5 36t-69.5 35q-61 24 -89.5 58t-28.5 90q0 51 26.5 92t76 65t113.5 24q54 0 101.5 -18.5t81.5 -50.5l-72 -90q-52 38 -105 38q-27 0 -42 -11t-15 -29t17.5 -30.5t71.5 -33.5q59 -24 88.5 -59.5z" />
<glyph unicode="&#x160;" horiz-adv-x="519" d="M539 620l-88 -90q-28 28 -58 41t-66 13q-41 0 -64 -19.5t-23 -50.5q0 -28 21 -46t83 -44q77 -32 114 -76.5t37 -117.5q0 -67 -32.5 -123.5t-96.5 -90.5t-153 -34q-149 0 -238 102l96 94q32 -32 66 -48.5t78 -16.5q47 0 73.5 23.5t26.5 63.5q0 33 -22 54.5t-80 46.5 q-81 33 -116.5 76t-35.5 110q0 63 31 114.5t90 81.5t139 30q136 0 218 -93zM475 949l56 -67l-147 -133h-101l-113 138l65 62l110 -85z" />
<glyph unicode="&#x161;" horiz-adv-x="436" d="M354.5 532.5q47.5 -18.5 81.5 -50.5l-72 -90q-52 38 -105 38q-27 0 -42 -11t-15 -29t17.5 -30.5t71.5 -33.5q59 -24 88.5 -59.5t29.5 -92.5q0 -55 -27.5 -98.5t-79.5 -68.5t-123 -25q-65 0 -118 23t-89 62l85 87q57 -52 120 -52q31 0 48 13.5t17 35.5t-17.5 36t-69.5 35 q-61 24 -89.5 58t-28.5 90q0 51 26.5 92t76 65t113.5 24q54 0 101.5 -18.5zM411 817l54 -67l-148 -141h-101l-108 141l62 67l107 -94z" />
<glyph unicode="&#x162;" horiz-adv-x="488" d="M551 694l-37 -134h-142l-78 -560l-6 -46q40 -6 61.5 -29t21.5 -61q0 -30 -15.5 -59.5t-51.5 -50t-92 -20.5q-63 0 -105 33l47 74q27 -16 54 -16q45 0 45 32q0 16 -18 22.5t-60 6.5l28 114h-83l78 560h-153l19 134h487z" />
<glyph unicode="&#x163;" horiz-adv-x="351" d="M213 172q-1 -6 -1 -18q0 -38 32 -38q19 0 47 13l40 -107q-44 -29 -108 -38l-6 -33q42 -5 63.5 -27.5t21.5 -60.5q0 -30 -15.5 -59.5t-51 -49.5t-91.5 -20q-33 0 -60 9t-45 24l47 72q26 -14 54 -14q20 0 32 7.5t13 23.5q0 16 -18 23t-61 7l26 104q-43 14 -66 50t-23 90 q0 21 3 43l34 242h-61l16 117h68l31 117l148 17l-19 -134h107l-36 -117h-87z" />
<glyph unicode="&#x164;" horiz-adv-x="488" d="M551 694l-37 -134h-142l-78 -560h-174l78 560h-153l19 134h487zM453 949l56 -67l-147 -133h-101l-113 138l65 62l110 -85z" />
<glyph unicode="&#x165;" horiz-adv-x="351" d="M335 808l119 -15l-74 -222l-84 8zM263 532h107l-36 -117h-87l-34 -243q-1 -6 -1 -18q0 -38 32 -38q19 0 47 13l40 -107q-30 -20 -68 -30t-73 -10q-71 0 -109 38.5t-38 109.5q0 21 3 43l34 242h-61l16 117h68l31 117l148 17z" />
<glyph unicode="&#x166;" horiz-adv-x="488" d="M514 560h-142l-24 -169h98l-13 -97h-98l-41 -294h-174l41 294h-98l13 97h98l24 169h-153l19 134h487z" />
<glyph unicode="&#x167;" horiz-adv-x="351" d="M247 415l-7 -53h90l-34 -110h-72l-11 -80q-1 -6 -1 -18q0 -38 32 -38q19 0 47 13l40 -107q-30 -20 -68 -30t-73 -10q-71 0 -109 38.5t-38 109.5q0 21 3 43l11 79h-52l16 110h51l8 53h-61l16 117h68l31 117l148 17l-19 -134h107l-36 -117h-87z" />
<glyph unicode="&#x168;" horiz-adv-x="576" d="M532 213q-9 -66 -44 -118.5t-95 -82.5t-141 -30q-111 0 -168.5 53.5t-57.5 142.5q0 19 3 40l67 476h174l-68 -486q-2 -20 -2 -27q0 -69 64 -69q80 0 93 99l68 483h174zM382.5 764q-13.5 7 -31.5 19q-3 2 -11 7.5t-14.5 8t-12.5 2.5q-15 0 -26.5 -10.5t-26.5 -33.5l-74 42 q26 54 61.5 88t74.5 34q20 0 35 -7t32 -20q11 -9 19 -13t16 -4q14 0 25.5 10.5t25.5 32.5l74 -41q-26 -54 -62 -88t-74 -34q-17 0 -30.5 7z" />
<glyph unicode="&#x169;" horiz-adv-x="506" d="M49 15.5q-30 33.5 -30 92.5q0 17 3 36l54 388h167l-50 -361q-1 -7 -1 -17q0 -30 22 -30q31 0 71 67l48 341h167l-75 -532h-145l3 73q-31 -43 -67 -67t-82 -24q-55 0 -85 33.5zM328.5 638q-13.5 7 -31.5 19q-3 2 -11 7.5t-14.5 8t-12.5 2.5q-15 0 -26.5 -10.5t-26.5 -33.5 l-74 42q26 54 61.5 88t74.5 34q20 0 35 -7t32 -20q11 -9 19 -13t16 -4q14 0 25.5 10.5t25.5 32.5l74 -41q-26 -54 -62 -88t-74 -34q-17 0 -30.5 7z" />
<glyph unicode="&#x16a;" horiz-adv-x="576" d="M532 213q-9 -66 -44 -118.5t-95 -82.5t-141 -30q-111 0 -168.5 53.5t-57.5 142.5q0 19 3 40l67 476h174l-68 -486q-2 -20 -2 -27q0 -69 64 -69q80 0 93 99l68 483h174zM498 779h-283l17 117h283z" />
<glyph unicode="&#x16b;" horiz-adv-x="506" d="M49 15.5q-30 33.5 -30 92.5q0 17 3 36l54 388h167l-50 -361q-1 -7 -1 -17q0 -30 22 -30q31 0 71 67l48 341h167l-75 -532h-145l3 73q-31 -43 -67 -67t-82 -24q-55 0 -85 33.5zM446 653h-283l17 117h283z" />
<glyph unicode="&#x16c;" horiz-adv-x="576" d="M532 213q-9 -66 -44 -118.5t-95 -82.5t-141 -30q-111 0 -168.5 53.5t-57.5 142.5q0 19 3 40l67 476h174l-68 -486q-2 -20 -2 -27q0 -69 64 -69q80 0 93 99l68 483h174zM247.5 799q-35.5 50 -30.5 121l87 13q2 -30 18 -48.5t44 -18.5q55 0 83 70l89 -19 q-15 -72 -61.5 -120t-119.5 -48q-74 0 -109.5 50z" />
<glyph unicode="&#x16d;" horiz-adv-x="506" d="M49 15.5q-30 33.5 -30 92.5q0 17 3 36l54 388h167l-50 -361q-1 -7 -1 -17q0 -30 22 -30q31 0 71 67l48 341h167l-75 -532h-145l3 73q-31 -43 -67 -67t-82 -24q-55 0 -85 33.5zM194 675.5q-36 45.5 -36 116.5l1 20l88 13q2 -37 17.5 -57t44.5 -20q30 0 52 21t34 58l85 -19 q-15 -78 -61.5 -128t-118.5 -50q-70 0 -106 45.5z" />
<glyph unicode="&#x16e;" horiz-adv-x="576" d="M532 213q-9 -66 -44 -118.5t-95 -82.5t-141 -30q-111 0 -168.5 53.5t-57.5 142.5q0 19 3 40l67 476h174l-68 -486q-2 -20 -2 -27q0 -69 64 -69q80 0 93 99l68 483h174zM474.5 964.5q31.5 -33.5 31.5 -87.5q0 -40 -19 -74t-53.5 -54.5t-79.5 -20.5q-56 0 -87 33.5 t-31 86.5q0 40 19 74.5t53.5 55t78.5 20.5q56 0 87.5 -33.5zM343 895.5q-13 -18.5 -13 -42.5q0 -40 32 -40q23 0 36 18t13 42q0 41 -32 41q-23 0 -36 -18.5z" />
<glyph unicode="&#x16f;" horiz-adv-x="506" d="M49 15.5q-30 33.5 -30 92.5q0 17 3 36l54 388h167l-50 -361q-1 -7 -1 -17q0 -30 22 -30q31 0 71 67l48 341h167l-75 -532h-145l3 73q-31 -43 -67 -67t-82 -24q-55 0 -85 33.5zM419.5 838.5q31.5 -33.5 31.5 -87.5q0 -40 -19 -74t-53.5 -54.5t-79.5 -20.5q-56 0 -87 33.5 t-31 86.5q0 40 19 74.5t53.5 55t78.5 20.5q56 0 87.5 -33.5zM288 769.5q-13 -18.5 -13 -42.5q0 -40 32 -40q23 0 36 18t13 42q0 41 -32 41q-23 0 -36 -18.5z" />
<glyph unicode="&#x170;" horiz-adv-x="576" d="M532 213q-9 -66 -44 -118.5t-95 -82.5t-141 -30q-111 0 -168.5 53.5t-57.5 142.5q0 19 3 40l67 476h174l-68 -486q-2 -20 -2 -27q0 -69 64 -69q80 0 93 99l68 483h174zM336 991l99 -52l-133 -185l-79 35zM500 991l98 -56l-140 -185l-77 40z" />
<glyph unicode="&#x171;" horiz-adv-x="506" d="M49 15.5q-30 33.5 -30 92.5q0 17 3 36l54 388h167l-50 -361q-1 -7 -1 -17q0 -30 22 -30q31 0 71 67l48 341h167l-75 -532h-145l3 73q-31 -43 -67 -67t-82 -24q-55 0 -85 33.5zM284 865l99 -52l-133 -185l-79 35zM448 865l98 -56l-140 -185l-77 40z" />
<glyph unicode="&#x172;" horiz-adv-x="576" d="M599 694l-67 -481q-11 -79 -58 -137t-125 -81q-107 -44 -107 -106q0 -34 40 -34q25 0 57 8l-24 -103q-32 -8 -66 -8q-57 0 -92.5 28t-35.5 76q0 81 93 128q-93 9 -140.5 61t-47.5 133q0 19 3 40l67 476h174l-68 -486q-2 -20 -2 -27q0 -69 64 -69q80 0 93 99l68 483h174z " />
<glyph unicode="&#x173;" horiz-adv-x="506" d="M332 -56q-25 -29 -25 -56q0 -33 40 -33q25 0 53 6l-23 -101q-30 -8 -65 -8q-55 0 -90 29.5t-35 80.5q0 84 93 141l3 70q-31 -43 -67 -67t-82 -24q-55 0 -85 33.5t-30 92.5q0 17 3 36l54 388h167l-50 -361q-1 -7 -1 -17q0 -30 22 -30q31 0 71 67l48 341h167l-75 -532 q-68 -27 -93 -56z" />
<glyph unicode="&#x174;" horiz-adv-x="765" d="M819 694l-189 -694h-227l13 523l-134 -523h-224l8 694h170l-32 -562l149 562h179l-16 -562l136 562h167zM332 755l-57 67l148 133h100l113 -137l-65 -63l-109 86z" />
<glyph unicode="&#x175;" horiz-adv-x="684" d="M719 532l-168 -532h-190l-3 380l-103 -380h-194l-21 532h168l-22 -404l119 404h158l-2 -404l98 404h160zM274 619l-54 67l148 141h100l113 -145l-69 -63l-106 94z" />
<glyph unicode="&#x176;" horiz-adv-x="542" d="M614 694l-257 -435l-36 -259h-174l36 258l-135 436h184l58 -301l138 301h186zM217 755l-57 67l148 133h100l113 -137l-65 -63l-109 86z" />
<glyph unicode="&#x177;" horiz-adv-x="471" d="M303 -1q-45 -110 -124 -163.5t-198 -59.5l-3 117q71 9 107.5 32t63.5 75h-59l-62 532h173l9 -424l133 424h176zM168 619l-54 67l148 141h100l113 -145l-69 -63l-106 94z" />
<glyph unicode="&#x178;" horiz-adv-x="542" d="M614 694l-257 -435l-36 -259h-174l36 258l-135 436h184l58 -301l138 301h186zM177 785q-20 20 -20 52q0 40 27 66.5t66 26.5q34 0 54 -19.5t20 -52.5q0 -40 -27 -66.5t-66 -26.5q-34 0 -54 20zM393 785q-20 20 -20 52q0 40 27 66.5t66 26.5q34 0 54 -19.5t20 -52.5 q0 -40 -27 -66.5t-66 -26.5q-34 0 -54 20z" />
<glyph unicode="&#x179;" horiz-adv-x="489" d="M-27 0l18 131l320 427h-236l20 136h430l-19 -133l-318 -421h269l-38 -140h-446zM417 954l54 -123l-233 -86l-37 81z" />
<glyph unicode="&#x17a;" horiz-adv-x="416" d="M436 532l-16 -119l-231 -285h198l-33 -128h-384l16 120l231 286h-174l19 126h374zM355 838l54 -123l-233 -95l-40 82z" />
<glyph unicode="&#x17b;" horiz-adv-x="489" d="M-27 0l18 131l320 427h-236l20 136h430l-19 -133l-318 -421h269l-38 -140h-446zM257 775.5q-23 22.5 -23 59.5q0 46 31 76.5t76 30.5q40 0 63 -22.5t23 -59.5q0 -46 -31 -76.5t-76 -30.5q-40 0 -63 22.5z" />
<glyph unicode="&#x17c;" horiz-adv-x="416" d="M436 532l-16 -119l-231 -285h198l-33 -128h-384l16 120l231 286h-174l19 126h374zM202 649.5q-23 22.5 -23 59.5q0 46 31 76.5t76 30.5q40 0 63 -22.5t23 -59.5q0 -46 -31 -76.5t-76 -30.5q-40 0 -63 22.5z" />
<glyph unicode="&#x17d;" horiz-adv-x="489" d="M-27 0l18 131l320 427h-236l20 136h430l-19 -133l-318 -421h269l-38 -140h-446zM455 949l56 -67l-147 -133h-101l-113 138l65 62l110 -85z" />
<glyph unicode="&#x17e;" horiz-adv-x="416" d="M436 532l-16 -119l-231 -285h198l-33 -128h-384l16 120l231 286h-174l19 126h374zM404 817l54 -67l-148 -141h-101l-108 141l62 67l107 -94z" />
<glyph unicode="&#x17f;" horiz-adv-x="326" d="M467 716l-59 -99q-33 20 -68 20q-28 0 -44 -17t-22 -55l-78 -565h-167l58 415h-65l16 117h65l6 43q11 83 66.5 134.5t148.5 51.5q81 0 143 -45z" />
<glyph unicode="&#x180;" horiz-adv-x="542" d="M488 501.5q37 -49.5 37 -142.5q0 -163 -69.5 -270t-230.5 -107q-102 0 -206 45l79 568h-47l14 97h47l7 51l169 18l-9 -69h118l-27 -97h-105l-14 -105q25 28 59.5 44.5t71.5 16.5q69 0 106 -49.5zM307.5 143q24.5 38 36 95t11.5 113q0 43 -11.5 59.5t-32.5 16.5 q-37 0 -76 -53l-36 -260q25 -9 48 -9q36 0 60.5 38z" />
<glyph unicode="&#x181;" horiz-adv-x="706" d="M647.5 321.5q34.5 -32.5 34.5 -95.5q0 -106 -78 -166t-231 -60h-213l80 569h-25q-21 0 -32.5 -14t-11.5 -41q0 -21 7 -53l-115 -42q-22 51 -22 100q0 80 51.5 127.5t135.5 47.5h223q118 0 184 -39t66 -118q0 -69 -41.5 -111t-105.5 -59q59 -13 93.5 -45.5zM500.5 445.5 q22.5 26.5 22.5 71.5q0 28 -17.5 41t-53.5 13h-39l-21 -152h36q50 0 72.5 26.5zM505 237q0 35 -20.5 51t-60.5 16h-48l-25 -177h39q115 0 115 110z" />
<glyph unicode="&#x182;" horiz-adv-x="540" d="M466.5 402q60.5 -48 60.5 -140q0 -65 -28.5 -125t-92 -98.5t-161.5 -38.5h-236l97 694h407l-37 -133h-214l-16 -111h51q109 0 169.5 -48zM319 163q25 36 25 91q0 37 -17.5 55.5t-55.5 18.5h-42l-28 -201h40q53 0 78 36z" />
<glyph unicode="&#x183;" horiz-adv-x="534" d="M478.5 484q36.5 -51 36.5 -148q-1 -150 -70.5 -252t-229.5 -102q-102 0 -206 45l100 716h361l-37 -121h-174l-21 -147q26 28 61.5 44t72.5 16q70 0 106.5 -51zM297.5 142q24.5 37 36 90.5t11.5 100.5q0 45 -11.5 61.5t-32.5 16.5q-20 0 -40 -14t-38 -39l-34 -244 q25 -9 48 -9q36 0 60.5 37z" />
<glyph unicode="&#x184;" horiz-adv-x="556" d="M485 411.5q61 -49.5 61 -144.5q0 -69 -29 -129.5t-93 -99t-161 -38.5h-235l67 485l-62 53q64 59 123 156h142l-32 -233h50q108 0 169 -49.5zM338.5 165.5q24.5 38.5 24.5 93.5q0 40 -17.5 60t-55.5 20h-41l-30 -212h40q55 0 79.5 38.5z" />
<glyph unicode="&#x185;" horiz-adv-x="496" d="M478 202q0 -55 -24.5 -105t-80.5 -82.5t-145 -32.5q-52 0 -97.5 8.5t-95.5 26.5l43 316l-62 53q69 63 122 146h135l-23 -165h16q212 0 212 -165zM294.5 123.5q17.5 31.5 17.5 77.5q0 30 -13 44.5t-43 14.5h-20l-23 -165q15 -3 26 -3q38 0 55.5 31.5z" />
<glyph unicode="&#x186;" horiz-adv-x="521" d="M449 642q64 -71 64 -206q0 -127 -40 -230t-117.5 -163.5t-185.5 -60.5q-65 0 -114 26t-82 67l89 95q29 -26 53 -39.5t56 -13.5q55 0 91.5 49.5t53.5 124t17 151.5q0 76 -21 108.5t-63 32.5q-31 0 -59 -12t-59 -35l-72 99q48 39 99.5 58.5t113.5 19.5q112 0 176 -71z" />
<glyph unicode="&#x187;" horiz-adv-x="525" d="M731 817l-59 -103q-29 17 -54 17q-41 0 -50 -60l-5 -41l-81 -84q-56 37 -108 37q-58 0 -94.5 -52t-53 -127.5t-16.5 -150.5q0 -136 93 -136q31 0 58.5 13.5t65.5 41.5l64 -100q-43 -40 -98.5 -65t-118.5 -25q-114 0 -179 70.5t-65 205.5q0 114 38 219t111 170.5t171 65.5 q42 0 79 -16l1 4q10 71 54.5 112.5t122.5 41.5q70 0 124 -38z" />
<glyph unicode="&#x188;" horiz-adv-x="431" d="M640 722l-59 -102q-29 16 -53 16q-22 0 -33 -14.5t-16 -45.5l-13 -94l-73 -86q-43 25 -86 25q-60 0 -87 -66.5t-27 -152.5q0 -49 16.5 -68.5t47.5 -19.5q21 0 40.5 8t46.5 25l60 -103q-78 -62 -174 -62q-99 0 -155 59.5t-56 164.5q0 87 31.5 166.5t91 129t139.5 49.5 q25 0 51 -8l9 61q12 75 55 115.5t119 40.5q74 0 125 -38z" />
<glyph unicode="&#x189;" horiz-adv-x="599" d="M512.5 638.5q77.5 -55.5 77.5 -198.5q0 -199 -88 -319.5t-281 -120.5h-204l42 301h-47l16 104h46l40 289h191q130 0 207.5 -55.5zM375 223q38 96 38 220q0 69 -25.5 97t-75.5 28h-42l-23 -163h110l-16 -104h-108l-24 -174h38q90 0 128 96z" />
<glyph unicode="&#x18a;" horiz-adv-x="742" d="M655.5 638.5q77.5 -55.5 77.5 -198.5q0 -199 -88 -319.5t-281 -120.5h-204l80 569h-25q-21 0 -32.5 -14t-11.5 -41q0 -21 7 -53l-115 -42q-22 51 -22 100q0 80 51.5 127.5t135.5 47.5h220q130 0 207.5 -55.5zM518 223q38 96 38 220q0 69 -25.5 97t-75.5 28h-42l-61 -441 h38q90 0 128 96z" />
<glyph unicode="&#x18b;" horiz-adv-x="541" d="M457 0h-225q-108 0 -168 51.5t-60 149.5q0 119 77 183.5t206 64.5h59l15 112h-227l18 133h402zM301 127l28 201h-41q-50 0 -75.5 -32.5t-25.5 -87.5q0 -42 19 -61.5t59 -19.5h36z" />
<glyph unicode="&#x18c;" horiz-adv-x="534" d="M454 0h-149l2 67q-56 -85 -142 -85q-73 0 -111 52t-38 149q0 85 26 166t79.5 133.5t130.5 52.5q66 0 103 -48l18 135h-184l17 121h352zM340 380q-11 17 -23 24.5t-29 7.5q-34 0 -56.5 -37.5t-33 -90.5t-10.5 -100q0 -44 10.5 -61.5t30.5 -17.5q37 0 83 77z" />
<glyph unicode="&#x18d;" d="M6 -148l85 79q21 -20 43 -30t49 -10q30 0 45 14.5t15 38.5q0 18 -14 32t-55 34q-81 40 -117.5 89t-36.5 126q0 72 28.5 147t91.5 126.5t159 51.5q64 0 111 -27.5t71.5 -75t24.5 -105.5q0 -95 -39.5 -165.5t-136.5 -112.5q71 -51 71 -121q0 -42 -24 -80.5t-72.5 -62.5 t-117.5 -24q-117 0 -181 76zM318 212q17 56 17 133q0 81 -51 81q-47 0 -70 -61t-23 -146q0 -39 13 -62.5t48 -46.5q49 46 66 102z" />
<glyph unicode="&#x18e;" horiz-adv-x="460" d="M81 694h392l-97 -694h-395l18 126h220l24 165h-181l17 123h181l22 155h-218z" />
<glyph unicode="&#x18f;" horiz-adv-x="575" d="M506.5 647q61.5 -66 61.5 -192q0 -135 -36.5 -242t-110 -169t-179.5 -62q-110 0 -167.5 66.5t-57.5 184.5q0 88 26 177l350 -2q3 33 3 57q0 63 -22 91t-66 28q-40 0 -72 -14.5t-66 -40.5l-65 95q54 45 109 67t122 22q109 0 170.5 -66zM326 150q31 40 49 138l-192 -1 q-5 -40 -5 -70q0 -56 18 -81.5t53 -25.5q46 0 77 40z" />
<glyph unicode="&#x190;" horiz-adv-x="488" d="M440 689q49 -23 88 -71l-92 -85q-47 53 -103 53q-40 0 -63 -25.5t-23 -67.5q0 -65 75 -65h64l-38 -125h-42q-58 0 -90.5 -29.5t-32.5 -83.5q0 -79 78 -79q34 0 64 14.5t64 44.5l78 -91q-95 -97 -236 -97q-104 0 -165.5 51t-61.5 136q0 90 51 139.5t145 59.5 q-127 28 -127 138q0 61 34.5 108t91.5 72.5t122 25.5q70 0 119 -23z" />
<glyph unicode="&#x191;" horiz-adv-x="433" d="M263 569l-25 -174h170l-18 -125h-169l-38 -270l-5 -34q-15 -93 -73.5 -141.5t-147.5 -48.5q-84 0 -133 45l69 101q16 -10 27.5 -14t28.5 -4q46 0 55 54l5 42l97 694h385l-37 -125h-191z" />
<glyph unicode="&#x192;" horiz-adv-x="326" d="M295 620q-16 -17 -21 -55l-5 -33h112l-36 -117h-92l-48 -352q-12 -88 -46.5 -143.5t-83 -86.5t-118.5 -56l-39 122q56 22 83.5 55.5t36.5 102.5l49 358h-66l17 117h65l6 43q11 83 66.5 134.5t148.5 51.5q81 0 143 -45l-59 -99q-33 20 -68 20q-29 0 -45 -17z" />
<glyph unicode="&#x193;" horiz-adv-x="561" d="M767 817l-59 -103q-28 17 -54 17q-42 0 -50 -60l-6 -48l-85 -79q-57 42 -122 42q-67 0 -108.5 -54.5t-59 -135.5t-17.5 -168q0 -63 20 -90.5t61 -27.5q39 0 77 22l21 147h-68l1 123h249l-48 -345q-54 -36 -118 -55.5t-123 -19.5q-125 0 -187 67.5t-62 199.5 q0 119 40.5 225.5t119 172.5t186.5 66q53 0 90 -18l1 6q10 71 54.5 112.5t122.5 41.5q70 0 124 -38z" />
<glyph unicode="&#x194;" horiz-adv-x="520" d="M320 90q21 -50 31 -85t10 -71q0 -76 -43 -116.5t-122 -40.5q-66 0 -98.5 31.5t-32.5 86.5q0 47 21.5 94.5t65.5 106.5l-108 598h179l32 -484l162 484h178zM226 8q-38 -63 -38 -99q0 -24 20 -24q15 0 23 11.5t8 33.5q0 29 -13 78z" />
<glyph unicode="&#x195;" horiz-adv-x="770" d="M334 28q-45 46 -45 114q0 9 2 29l25 185q1 7 1 19q0 29 -19 29q-18 0 -38 -27t-46 -82l-42 -295h-167l104 743l169 17l-42 -307q25 43 63 70.5t84 27.5q51 0 80 -33t29 -92q0 -16 -3 -36l-31 -221q-2 -16 -2 -22q0 -41 33 -41q56 0 78.5 106.5t22.5 231.5q0 46 -3 88h158 q6 -48 6 -101q0 -138 -22.5 -235.5t-84.5 -155.5t-174 -58q-91 0 -136 46z" />
<glyph unicode="&#x196;" horiz-adv-x="358" d="M336 24q-60 -41 -141 -41q-82 0 -127.5 40t-45.5 117q0 23 2 35l4 31l69 488h174l-69 -488h-1l-5 -45q-1 -5 -1 -13q0 -38 36 -38q17 0 29.5 3.5t34.5 13.5z" />
<glyph unicode="&#x197;" horiz-adv-x="305" d="M323 424l-18 -129h-60l-41 -295h-174l41 295h-63l18 129h63l38 270h174l-38 -270h60z" />
<glyph unicode="&#x198;" horiz-adv-x="601" d="M240 370l149 230q39 62 77.5 87t96.5 25q36 0 61 -10t46 -28l-57 -96q-18 9 -33 9q-16 0 -27.5 -8.5t-27.5 -31.5l-107 -172l142 -375h-193zM9 0l97 694h174l-97 -694h-174z" />
<glyph unicode="&#x199;" horiz-adv-x="526" d="M501.5 320q-31.5 -45 -97.5 -80l77 -240h-178l-71 256q73 27 102 61t29 76q0 40 -35 40q-52 0 -109 -97l-46 -336h-168l75 531l7 54q12 79 67.5 127t148.5 48q38 0 73.5 -9.5t61.5 -25.5l-59 -106q-33 17 -67 17q-26 0 -40.5 -15t-18.5 -49l-6 -41l-8 -62q36 42 75 61.5 t85 19.5q61 0 97.5 -34t36.5 -90q0 -61 -31.5 -106z" />
<glyph unicode="&#x19a;" horiz-adv-x="311" d="M218 147l-1 -9q0 -21 19 -21q10 0 19 3l15 -118q-45 -20 -99 -20q-60 0 -92 31.5t-32 89.5q0 16 3 34l25 176h-65l18 117h63l44 313l168 17l-46 -330h68l-18 -117h-66z" />
<glyph unicode="&#x19b;" horiz-adv-x="481" d="M418 187.5q16 -82.5 51 -153.5l-161 -51q-31 77 -43 159t-12 218l-116 -378l-168 41l213 466l68 -13q-2 51 -10 84l-51 -44l-77 57l72 61q-29 15 -75 21l31 106q49 -9 85 -21.5t63 -32.5l78 62l50 -79l-69 -57h-1q35 -71 45 -213q11 -150 27 -232.5z" />
<glyph unicode="&#x19c;" horiz-adv-x="809" d="M822 694l-97 -694h-153l-4 60q-37 -42 -70.5 -60t-73.5 -18q-45 0 -75.5 22.5t-43.5 61.5q-36 -44 -74 -64t-83 -20q-61 0 -95 41t-34 106q0 17 3 35l75 530h174l-74 -525q-1 -6 -1 -16q0 -19 8 -30t22 -11q19 0 36.5 14.5t36.5 44.5l73 523h174l-73 -523q-1 -6 -1 -17 q0 -20 8 -31t22 -11q18 0 35.5 14.5t36.5 45.5l74 522h174z" />
<glyph unicode="&#x19d;" horiz-adv-x="586" d="M599 694l-97 -694h-213l-85 548l1 -33q2 -46 2 -71q0 -98 -15 -210l-31 -234l-6 -40q-13 -90 -64.5 -136.5t-135.5 -46.5q-80 0 -131 44l69 95q17 -10 28.5 -14t27.5 -4q23 0 37 15t18 45l5 42l97 694h212l85 -548l-1 41q-2 44 -2 64q0 82 13 190l34 253h152z" />
<glyph unicode="&#x19e;" horiz-adv-x="511" d="M464 518q29 -33 29 -92q0 -16 -3 -36l-86 -596l-170 -19l85 581q1 7 1 18q0 30 -20 30q-18 0 -38.5 -27t-46.5 -82l-42 -295h-167l74 532h146l-2 -85q31 47 72 75.5t87 28.5q52 0 81 -33z" />
<glyph unicode="&#x19f;" horiz-adv-x="624" d="M553.5 643q62.5 -70 62.5 -203q0 -117 -35 -221t-112 -170.5t-195 -66.5t-180.5 70t-62.5 202q0 117 35 221.5t111.5 171t194.5 66.5q119 0 181.5 -70zM271.5 535q-35.5 -53 -53.5 -136h227q2 46 2 64q0 67 -20 96t-63 29q-57 0 -92.5 -53zM378.5 161q36.5 55 53.5 142 h-229q-3 -40 -3 -73q0 -66 20 -95t63 -29q59 0 95.5 55z" />
<glyph unicode="&#x1a0;" horiz-adv-x="657" d="M689 607.5q-31 -39.5 -89 -50.5q16 -49 16 -117q0 -117 -35 -221t-112 -170.5t-195 -66.5t-180.5 70t-62.5 202q0 117 35 221.5t111.5 171t194.5 66.5q126 0 189 -78q27 4 38.5 23t11.5 54q0 21 -4 47l106 13q7 -26 7 -59q0 -66 -31 -105.5zM376 168.5q34 58.5 48 140 t14 156.5q0 63 -19 91t-58 28q-55 0 -89.5 -59t-49 -141t-14.5 -155q0 -63 19.5 -91t58.5 -28q56 0 90 58.5z" />
<glyph unicode="&#x1a1;" horiz-adv-x="579" d="M594 444.5q-32 -39.5 -91 -49.5q6 -30 6 -64q-1 -90 -30.5 -169.5t-93 -129.5t-159.5 -50q-98 0 -152.5 56.5t-54.5 162.5q0 90 29.5 170t93 130t159.5 50q118 0 171 -80q24 6 34.5 25t10.5 53q0 29 -4 48l106 12q7 -33 7 -58q0 -67 -32 -106.5zM315 184.5 q24 78.5 24 165.5q0 41 -12 58.5t-38 17.5q-53 0 -77 -78t-24 -165q0 -41 12.5 -59t37.5 -18q53 0 77 78.5z" />
<glyph unicode="&#x1a2;" horiz-adv-x="873" d="M820 672.5q46 -40.5 46 -113.5q0 -17 -3 -35l-103 -736h-174l104 744q1 6 1 17q0 41 -39 41q-17 0 -30 -4.5t-29 -13.5q23 -57 23 -132q0 -117 -35 -221t-112 -170.5t-195 -66.5t-180.5 70t-62.5 202q0 117 35 221.5t111.5 171t194.5 66.5q95 0 158 -52q71 52 162 52 q82 0 128 -40.5zM376 168.5q34 58.5 48 140t14 156.5q0 63 -19 91t-58 28q-55 0 -89.5 -59t-49 -141t-14.5 -155q0 -63 19.5 -91t58.5 -28q56 0 90 58.5z" />
<glyph unicode="&#x1a3;" horiz-adv-x="749" d="M682.5 510q42.5 -41 42.5 -114q0 -18 -3 -39l-78 -564l-169 -17l83 601q1 5 1 15q0 36 -34 36q-16 0 -33 -6q13 -38 13 -91q0 -90 -29.5 -169.5t-93 -129.5t-158.5 -50q-97 0 -151 56.5t-54 162.5q0 90 29.5 170t93 130t158.5 50q73 0 123 -35q34 18 67 26.5t73 8.5 q77 0 119.5 -41zM312 184q23 78 24 166q0 40 -12 58t-37 18q-52 0 -75.5 -78.5t-23.5 -164.5q0 -41 12 -59t37 -18q52 0 75 78z" />
<glyph unicode="&#x1a4;" horiz-adv-x="691" d="M645.5 644.5q63.5 -49.5 63.5 -144.5q0 -75 -32 -137t-98 -99t-162 -37h-52l-31 -227h-174l80 569h-25q-21 0 -32.5 -14t-11.5 -41q0 -21 7 -53l-115 -42q-22 51 -22 100q0 80 51.5 127.5t135.5 47.5h235q119 0 182.5 -49.5zM505 394q26 41 26 100q0 39 -19.5 57.5 t-61.5 18.5h-37l-30 -217h34q62 0 88 41z" />
<glyph unicode="&#x1a5;" horiz-adv-x="532" d="M479 501.5q37 -49.5 37 -142.5q0 -100 -27.5 -185.5t-86.5 -138.5t-150 -53q-46 0 -80 12l-29 -201l-168 -17l105 755l7 54q12 79 67.5 127t148.5 48q38 0 73.5 -9.5t61.5 -25.5l-59 -106q-33 17 -67 17q-26 0 -40.5 -15t-18.5 -49l-6 -41l-5 -45q54 65 130 65 q70 0 107 -49.5zM298.5 144q24.5 40 36 98t11.5 111q0 41 -11.5 57.5t-32.5 16.5q-39 0 -76 -52l-37 -261q25 -10 47 -10q38 0 62.5 40z" />
<glyph unicode="&#x1a6;" horiz-adv-x="557" d="M512.5 271q-32.5 -54 -106.5 -93l111 -291h-183l-86 259h-44l-20 -146h-174l97 694h174l-16 -113h34q246 0 246 -181q0 -75 -32.5 -129zM221 267h43q55 0 79 36t24 87q0 36 -19.5 52t-60.5 16h-39z" />
<glyph unicode="&#x1a7;" horiz-adv-x="506" d="M478 665.5q55 -46.5 55 -124.5q0 -95 -56.5 -149t-172.5 -94q-66 -22 -93 -50.5t-27 -71.5q0 -29 17 -45.5t51 -16.5q73 0 154 64l73 -96q-47 -46 -111.5 -73t-145.5 -27q-101 0 -159 51t-58 135q0 100 54.5 159t161.5 95q53 18 81 32.5t40 33t13 45.5q-1 51 -59 51 q-38 0 -72.5 -14t-71.5 -42l-64 94q107 90 243 90q92 0 147 -46.5z" />
<glyph unicode="&#x1a8;" horiz-adv-x="433" d="M380.5 511q48.5 -40 48.5 -104q0 -61 -37.5 -106t-123.5 -77q-61 -22 -80 -39.5t-19 -42.5q0 -19 11.5 -29.5t34.5 -10.5q29 0 62.5 14.5t64.5 37.5l67 -92q-42 -37 -101.5 -58.5t-120.5 -21.5q-88 0 -140.5 41.5t-52.5 112.5q0 64 38 109.5t137 80.5q59 20 77 35.5 t18 36.5q0 15 -10.5 23.5t-30.5 8.5q-25 0 -54.5 -10.5t-54.5 -28.5l-50 93q38 32 87.5 49.5t100.5 17.5q80 0 128.5 -40z" />
<glyph unicode="&#x1a9;" horiz-adv-x="451" d="M496 694l-18 -127h-241l115 -197l-9 -66l-159 -174h235l-19 -130h-422l18 127l193 219l-133 222l18 126h422z" />
<glyph unicode="&#x1aa;" horiz-adv-x="404" d="M459 -182q-61 -41 -143 -41q-79 0 -123.5 40.5t-44.5 117.5q0 10 2 34l4 31h1l58 421q-30 -14 -64 -14q-53 0 -88.5 42t-35.5 108q0 60 26 106t73 71.5t108 25.5q79 0 124.5 -44.5t45.5 -124.5q0 -20 -3 -41l-77 -550h-1l-6 -49q-1 -4 -1 -13q0 -19 10.5 -29t29.5 -10 q18 0 31 4t31 14zM228 527l9 65q2 16 2 21q0 16 -6 23.5t-20 7.5q-24 0 -35.5 -24t-11.5 -57q0 -40 34 -40q10 0 28 4z" />
<glyph unicode="&#x1ab;" horiz-adv-x="351" d="M211 162q-1 -6 -1 -15q0 -39 35 -39q21 0 48 11l37 -97l-9 -64q-13 -89 -67.5 -135t-142.5 -46q-86 0 -138 45l67 96q18 -10 34 -15t38 -5q56 0 65 61l3 23q-68 2 -103 40.5t-35 106.5q0 22 3 44l34 242h-60l17 117h66l32 117l147 17l-19 -134h106l-34 -117h-88z" />
<glyph unicode="&#x1ac;" horiz-adv-x="546" d="M572 560h-142l-78 -560h-174l78 560h-43q-42 0 -42 -47q0 -20 7 -52l-115 -42q-22 51 -22 100q0 80 51 127.5t132 47.5h385z" />
<glyph unicode="&#x1ad;" horiz-adv-x="351" d="M262 532h106l-34 -117h-88l-33 -243q-2 -14 -2 -19q0 -37 32 -37q21 0 47 14l40 -108q-30 -20 -67.5 -30t-72.5 -10q-73 0 -110.5 38.5t-37.5 109.5q0 21 3 43l34 242h-60l17 117h59l6 49q11 84 63 131.5t138 47.5q73 0 124 -38l-59 -94q-27 15 -50 15q-40 0 -46 -49z " />
<glyph unicode="&#x1ae;" horiz-adv-x="488" d="M288 -45q-1 -5 -1 -13q0 -38 36 -38q17 0 29.5 3.5t34.5 13.5l41 -103q-60 -41 -141 -41q-82 0 -127.5 40t-45.5 117q0 23 2 35l4 31l78 560h-153l19 134h487l-37 -134h-142l-78 -560h-1z" />
<glyph unicode="&#x1af;" horiz-adv-x="665" d="M698 595.5q-42 -40.5 -119 -42.5l-47 -340q-9 -66 -44 -118.5t-95 -82.5t-141 -30q-111 0 -168.5 53.5t-57.5 142.5q0 19 3 40l67 476h174l-68 -486q-2 -20 -2 -27q0 -69 64 -69q80 0 93 99l68 483h174l-8 -57q21 7 30.5 25t9.5 50q0 21 -4 47l106 13q7 -26 7 -59 q0 -77 -42 -117.5z" />
<glyph unicode="&#x1b0;" horiz-adv-x="595" d="M599 433.5q-42 -40.5 -119 -42.5l-55 -391h-145l3 73q-31 -43 -67 -67t-82 -24q-55 0 -85 33.5t-30 92.5q0 17 3 36l54 388h167l-50 -361q-1 -7 -1 -17q0 -30 22 -30q31 0 71 67l48 341h167l-8 -59q40 13 40 76q0 29 -4 48l106 12q7 -33 7 -58q0 -77 -42 -117.5z" />
<glyph unicode="&#x1b1;" horiz-adv-x="623" d="M139 15.5q-55 33.5 -83.5 92.5t-28.5 135q0 224 168 327h-108l18 124h232l-17 -118q-58 -45 -86.5 -144t-28.5 -203q0 -61 19.5 -90t59.5 -29q53 0 87.5 49.5t49.5 123.5t15 151q0 53 -11 85t-35 59l17 116h231l-18 -125h-106q46 -34 70 -81.5t24 -115.5q0 -108 -41 -197 t-117.5 -141t-177.5 -52q-78 0 -133 33.5z" />
<glyph unicode="&#x1b2;" horiz-adv-x="572" d="M580 582q0 -21 -3 -45l-36 -266q-19 -139 -99.5 -214t-205.5 -75q-99 0 -155 52.5t-56 137.5q0 18 3 36l69 486h174l-69 -495q-2 -18 -2 -25q0 -30 13.5 -46t38.5 -16q42 0 72.5 38.5t41.5 120.5l39 287q1 4 1 10q0 20 -18 20q-7 0 -21 -4l-9 112q43 17 91 17 q131 0 131 -131z" />
<glyph unicode="&#x1b3;" horiz-adv-x="568" d="M183 258l-135 437h184l57 -302l77 183q30 73 70.5 105t107.5 32q36 0 63 -10t52 -29l-59 -98q-21 12 -38 12q-16 0 -27 -9t-24 -32l-154 -288l-36 -259h-174z" />
<glyph unicode="&#x1b4;" horiz-adv-x="480" d="M-22 -107q71 9 107.5 32t63.5 75h-59l-62 532h173l9 -424l99 338q19 73 56 105.5t103 32.5q42 0 80 -16l-41 -112q-10 5 -23 5t-22 -8t-16 -28l-137 -409q-41 -122 -122.5 -178t-205.5 -62z" />
<glyph unicode="&#x1b5;" horiz-adv-x="489" d="M525 694l-19 -133l-127 -162h64l-15 -107h-133l-120 -152h282l-38 -140h-446l18 131l126 161h-70l16 107h138l124 159h-250l20 136h430z" />
<glyph unicode="&#x1b6;" horiz-adv-x="415" d="M435 532l-15 -111l-86 -101h54l-16 -96h-120l-88 -104h221l-32 -120h-384l16 112l96 112h-59l15 96h126l79 93h-199l18 119h374z" />
<glyph unicode="&#x1b7;" horiz-adv-x="499" d="M490 572l-171 -169q77 -5 118.5 -47.5t41.5 -116.5q0 -79 -38 -137.5t-103 -89t-143 -30.5t-129 27.5t-86 78.5l99 82q28 -31 53.5 -44.5t61.5 -13.5q46 0 76 32.5t30 85.5q0 39 -22.5 56.5t-63.5 17.5h-93l14 97l165 167h-216l19 126h405z" />
<glyph unicode="&#x1b8;" horiz-adv-x="501" d="M496 568h-225l131 -169l-15 -94l1 -1h-88q-55 0 -85 -31t-30 -86q0 -36 18.5 -55.5t52.5 -19.5q36 0 68 15t69 47l78 -88q-47 -51 -104.5 -77.5t-134.5 -26.5q-108 0 -167.5 54t-59.5 145q0 64 29 113t79.5 78t114.5 32l-135 168l18 122h404z" />
<glyph unicode="&#x1b9;" horiz-adv-x="465" d="M459 407h-226l127 -197l-13 -93l-2 1l1 -1h-87q-53 0 -83 -32.5t-30 -91.5q0 -44 20 -65.5t56 -21.5q33 0 63.5 14t66.5 46l74 -87q-91 -102 -232 -102q-104 0 -163 56t-59 148q0 100 61.5 162.5t169.5 70.5l-139 203l16 115h398z" />
<glyph unicode="&#x1ba;" horiz-adv-x="463" d="M10.5 -165.5q-35.5 35.5 -35.5 82.5q0 62 44 96t129 56q62 15 86.5 32t24.5 46q0 21 -14 30t-48 9h-111l13 89l149 139h-212l18 118h397l-15 -108l-162 -144h12q67 0 105 -33.5t38 -93.5q0 -82 -52.5 -126t-146.5 -67q-45 -11 -68 -19.5t-30.5 -16.5t-7.5 -19t7 -20 t22 -18l-46 -91q-61 23 -96.5 58.5z" />
<glyph unicode="&#x1bb;" horiz-adv-x="467" d="M450.5 433.5q-15.5 -41.5 -49.5 -87.5h52l-14 -107h-134q-58 -57 -122 -111l242 2l-35 -130h-407l15 121l122 118h-68l16 107h152q39 47 56.5 84t17.5 72q0 29 -15.5 45t-41.5 16q-29 0 -55 -16t-59 -51l-87 81q47 56 103.5 85.5t127.5 29.5q96 0 147.5 -49t51.5 -126 q0 -42 -15.5 -83.5z" />
<glyph unicode="&#x1bc;" horiz-adv-x="495" d="M-19 88l101 80q21 -29 46 -44t59 -15q59 0 85 48t26 113q0 39 -15 55.5t-43 16.5q-19 0 -36 -5.5t-40 -19.5l-111 1l53 376h392l-35 -120h-217l-20 -140q48 24 96 24q66 0 106.5 -46.5t40.5 -131.5q0 -80 -32 -147.5t-97 -109t-160 -41.5q-129 0 -199 106z" />
<glyph unicode="&#x1bd;" horiz-adv-x="438" d="M384 412h-169l-12 -81q32 16 75 16q56 0 92 -37.5t36 -105.5t-32.5 -118.5t-87 -77t-119.5 -26.5q-64 0 -105.5 21t-78.5 63l96 87q24 -23 44.5 -34t47.5 -11q31 0 50 23t19 61q0 45 -37 45q-22 0 -52 -14h-107l43 309h336z" />
<glyph unicode="&#x1be;" horiz-adv-x="460" d="M433 264q0 -82 -34 -146t-94 -100t-137 -36q-124 0 -200 95l91 81q24 -27 47 -39t51 -12q49 0 76.5 41.5t27.5 111.5q0 49 -20 77t-65 41l-42 10l19 139h-59l14 96h58l17 120l168 17l-19 -137h89l-14 -96h-88l-13 -90l24 -10q103 -42 103 -163z" />
<glyph unicode="&#x1bf;" horiz-adv-x="535" d="M484.5 506q39.5 -45 39.5 -123q0 -92 -36.5 -158.5t-96.5 -112.5t-147 -90l-74 -37l-27 -191l-168 -18l105 756h149l-1 -56q68 75 151 75q66 0 105.5 -45zM317.5 236.5q33.5 58.5 33.5 135.5q0 57 -42 57t-83 -46l-39 -273l32 22q65 46 98.5 104.5z" />
<glyph unicode="&#x1c0;" horiz-adv-x="236" d="M259 758l-109 -758h-142l105 743z" />
<glyph unicode="&#x1c1;" horiz-adv-x="442" d="M259 758l-109 -758h-142l105 743zM465 758l-109 -758h-142l105 743z" />
<glyph unicode="&#x1c2;" horiz-adv-x="306" d="M320 395h-76l-8 -55h76l-13 -94h-77l-35 -246h-142l35 246h-79l13 94h79l8 55h-78l13 94h78l36 254l146 15l-39 -269h76z" />
<glyph unicode="&#x1c3;" horiz-adv-x="275" d="M277 758l-74 -518h-142l70 503zM41 5.5q-22 23.5 -22 59.5q0 43 29.5 74t72.5 31q37 0 59 -23.5t22 -60.5q0 -44 -29.5 -74t-72.5 -30q-37 0 -59 23.5z" />
<glyph unicode="&#x1c4;" horiz-adv-x="1055" d="M504.5 638.5q77.5 -55.5 77.5 -198.5q0 -199 -88 -319.5t-281 -120.5h-204l97 694h191q130 0 207.5 -55.5zM262 568l-61 -441h38q90 0 128 96t38 220q0 69 -25.5 97t-75.5 28h-42zM539 0l18 131l320 427h-236l20 136h430l-19 -133l-318 -421h269l-38 -140h-446zM1021 949 l56 -67l-147 -133h-101l-113 138l65 62l110 -85z" />
<glyph unicode="&#x1c5;" horiz-adv-x="997" d="M504.5 638.5q77.5 -55.5 77.5 -198.5q0 -199 -88 -319.5t-281 -120.5h-204l97 694h191q130 0 207.5 -55.5zM262 568l-61 -441h38q90 0 128 96t38 220q0 69 -25.5 97t-75.5 28h-42zM1017 532l-16 -119l-231 -285h198l-33 -128h-384l16 120l231 286h-174l19 126h374z M985 817l54 -67l-148 -141h-101l-108 141l62 67l107 -94z" />
<glyph unicode="&#x1c6;" horiz-adv-x="950" d="M558 743l-104 -743h-148l2 67q-28 -41 -62 -63t-81 -22q-72 0 -110 52.5t-38 148.5q0 89 26.5 173.5t80 139.5t130.5 55q65 0 103 -48l36 257zM232 387.5q-23 -39.5 -33.5 -96t-10.5 -107.5q0 -44 10.5 -61.5t30.5 -17.5q37 0 83 77l30 215q-19 30 -52 30 q-35 0 -58 -39.5zM970 532l-16 -119l-231 -285h198l-33 -128h-384l16 120l231 286h-174l19 126h374zM938 817l54 -67l-148 -141h-101l-108 141l62 67l107 -94z" />
<glyph unicode="&#x1c7;" horiz-adv-x="728" d="M280 694l-78 -556h235l-38 -138h-390l97 694h174zM661 103q-12 -86 -49 -141t-87 -85t-119 -53l-31 124q58 25 80.5 61t32.5 105l82 580h173z" />
<glyph unicode="&#x1c8;" horiz-adv-x="699" d="M280 694l-78 -556h235l-38 -138h-390l97 694h174zM341 -102q56 23 83 56.5t36 101.5l66 476h168l-66 -469q-13 -88 -47.5 -143.5t-83 -86.5t-117.5 -56zM563 649.5q-23 22.5 -23 59.5q0 46 31 76.5t76 30.5q40 0 63 -22.5t23 -59.5q0 -46 -31 -76.5t-76 -30.5 q-40 0 -63 22.5z" />
<glyph unicode="&#x1c9;" horiz-adv-x="519" d="M188 147l-1 -9q0 -21 19 -21q10 0 19 3l15 -118q-45 -20 -99 -20q-60 0 -92 31.5t-32 89.5q0 16 3 34l85 606l168 17zM161 -102q56 23 83 56.5t36 101.5l66 476h168l-66 -469q-13 -88 -47.5 -143.5t-83 -86.5t-117.5 -56zM383 649.5q-23 22.5 -23 59.5q0 46 31 76.5 t76 30.5q40 0 63 -22.5t23 -59.5q0 -46 -31 -76.5t-76 -30.5q-40 0 -63 22.5z" />
<glyph unicode="&#x1ca;" horiz-adv-x="877" d="M502 0h-213l-85 548l1 -33q2 -46 2 -71q0 -98 -15 -210l-31 -234h-152l97 694h212l85 -548l-1 41q-2 44 -2 64q0 82 13 190l34 253h152zM810 103q-12 -86 -49 -141t-87 -85t-119 -53l-31 124q58 25 80.5 61t32.5 105l82 580h173z" />
<glyph unicode="&#x1cb;" horiz-adv-x="839" d="M502 0h-213l-85 548l1 -33q2 -46 2 -71q0 -98 -15 -210l-31 -234h-152l97 694h212l85 -548l-1 41q-2 44 -2 64q0 82 13 190l34 253h152zM481 -102q56 23 83 56.5t36 101.5l66 476h168l-66 -469q-13 -88 -47.5 -143.5t-83 -86.5t-117.5 -56zM703 649.5q-23 22.5 -23 59.5 q0 46 31 76.5t76 30.5q40 0 63 -22.5t23 -59.5q0 -46 -31 -76.5t-76 -30.5q-40 0 -63 22.5z" />
<glyph unicode="&#x1cc;" horiz-adv-x="764" d="M464 518q29 -33 29 -92q0 -16 -3 -36l-55 -390h-167l49 356q1 7 1 19q0 29 -19 29q-18 0 -38 -27t-46 -82l-42 -295h-167l74 532h146l-2 -85q31 48 72 76t88 28q51 0 80 -33zM406 -102q56 23 83 56.5t36 101.5l66 476h168l-66 -469q-13 -88 -47.5 -143.5t-83 -86.5 t-117.5 -56zM628 649.5q-23 22.5 -23 59.5q0 46 31 76.5t76 30.5q40 0 63 -22.5t23 -59.5q0 -46 -31 -76.5t-76 -30.5q-40 0 -63 22.5z" />
<glyph unicode="&#x1cd;" horiz-adv-x="538" d="M335 0l-7 145h-156l-45 -145h-181l278 694h209l83 -694h-181zM212 271h110l-14 307zM478 949l56 -67l-147 -133h-101l-113 138l65 62l110 -85z" />
<glyph unicode="&#x1ce;" d="M514 496l-48 -337q-2 -20 -2 -27q0 -14 5 -22.5t17 -14.5l-50 -110q-45 4 -77.5 24t-44.5 57q-29 -41 -63.5 -62.5t-80.5 -21.5q-74 0 -114 53.5t-40 146.5t30 177t96.5 138t169.5 54q105 0 202 -55zM215 354.5q-29 -76.5 -29 -174.5q0 -41 11 -57.5t31 -16.5q35 0 74 62 l37 257q-20 6 -38 6q-57 0 -86 -76.5zM476 817l54 -67l-148 -141h-101l-108 141l62 67l107 -94z" />
<glyph unicode="&#x1cf;" horiz-adv-x="267" d="M280 694l-97 -694h-174l97 694h174zM342 949l56 -67l-147 -133h-101l-113 138l65 62l110 -85z" />
<glyph unicode="&#x1d0;" horiz-adv-x="254" d="M247 532l-74 -532h-167l74 532h167zM319 817l54 -67l-148 -141h-101l-108 141l62 67l107 -94z" />
<glyph unicode="&#x1d1;" horiz-adv-x="624" d="M553.5 643q62.5 -70 62.5 -203q0 -117 -35 -221t-112 -170.5t-195 -66.5t-180.5 70t-62.5 202q0 117 35 221.5t111.5 171t194.5 66.5q119 0 181.5 -70zM271.5 525q-34.5 -59 -49 -141t-14.5 -155q0 -63 19.5 -91t58.5 -28q56 0 90 58.5t48 140t14 156.5q0 63 -19 91 t-58 28q-55 0 -89.5 -59zM521 949l56 -67l-147 -133h-101l-113 138l65 62l110 -85z" />
<glyph unicode="&#x1d2;" horiz-adv-x="528" d="M73.5 38.5q-54.5 56.5 -54.5 162.5q0 90 29.5 170t93 130t159.5 50q98 0 153 -57t55 -163q-1 -90 -30.5 -169.5t-93 -129.5t-159.5 -50q-98 0 -152.5 56.5zM315 184.5q24 78.5 24 165.5q0 41 -12 58.5t-38 17.5q-53 0 -77 -78t-24 -165q0 -41 12.5 -59t37.5 -18 q53 0 77 78.5zM452 817l54 -67l-148 -141h-101l-108 141l62 67l107 -94z" />
<glyph unicode="&#x1d3;" horiz-adv-x="576" d="M532 213q-9 -66 -44 -118.5t-95 -82.5t-141 -30q-111 0 -168.5 53.5t-57.5 142.5q0 19 3 40l67 476h174l-68 -486q-2 -20 -2 -27q0 -69 64 -69q80 0 93 99l68 483h174zM496 949l56 -67l-147 -133h-101l-113 138l65 62l110 -85z" />
<glyph unicode="&#x1d4;" horiz-adv-x="506" d="M49 15.5q-30 33.5 -30 92.5q0 17 3 36l54 388h167l-50 -361q-1 -7 -1 -17q0 -30 22 -30q31 0 71 67l48 341h167l-75 -532h-145l3 73q-31 -43 -67 -67t-82 -24q-55 0 -85 33.5zM443 817l54 -67l-148 -141h-101l-108 141l62 67l107 -94z" />
<glyph unicode="&#x1d5;" horiz-adv-x="576" d="M532 213q-9 -66 -44 -118.5t-95 -82.5t-141 -30q-111 0 -168.5 53.5t-57.5 142.5q0 19 3 40l67 476h174l-68 -486q-2 -20 -2 -27q0 -69 64 -69q80 0 93 99l68 483h174zM192 766q-20 20 -20 52q0 40 27 66.5t66 26.5q34 0 54 -19.5t20 -52.5q0 -40 -27 -66.5t-66 -26.5 q-34 0 -54 20zM408 766q-20 20 -20 52q0 40 27 66.5t66 26.5q34 0 54 -19.5t20 -52.5q0 -40 -27 -66.5t-66 -26.5q-34 0 -54 20zM517 950h-283l17 117h283z" />
<glyph unicode="&#x1d6;" horiz-adv-x="506" d="M49 15.5q-30 33.5 -30 92.5q0 17 3 36l54 388h167l-50 -361q-1 -7 -1 -17q0 -30 22 -30q31 0 71 67l48 341h167l-75 -532h-145l3 73q-31 -43 -67 -67t-82 -24q-55 0 -85 33.5zM137 618q-20 20 -20 52q0 40 27 66.5t66 26.5q34 0 54 -19.5t20 -52.5q0 -40 -27 -66.5 t-66 -26.5q-34 0 -54 20zM353 618q-20 20 -20 52q0 40 27 66.5t66 26.5q34 0 54 -19.5t20 -52.5q0 -40 -27 -66.5t-66 -26.5q-34 0 -54 20zM464 804h-283l17 117h283z" />
<glyph unicode="&#x1d7;" horiz-adv-x="576" d="M532 213q-9 -66 -44 -118.5t-95 -82.5t-141 -30q-111 0 -168.5 53.5t-57.5 142.5q0 19 3 40l67 476h174l-68 -486q-2 -20 -2 -27q0 -69 64 -69q80 0 93 99l68 483h174zM464 1111l80 -86l-172 -146l-57 54zM187 769q-20 20 -20 52q0 39 27.5 66t66.5 27q34 0 54 -19.5 t20 -52.5q0 -39 -27.5 -66t-66.5 -27q-34 0 -54 20zM418 769q-20 20 -20 52q0 39 27 66t66 27q34 0 54 -19.5t20 -52.5q0 -40 -27 -66.5t-66 -26.5q-34 0 -54 20z" />
<glyph unicode="&#x1d8;" horiz-adv-x="506" d="M49 15.5q-30 33.5 -30 92.5q0 17 3 36l54 388h167l-50 -361q-1 -7 -1 -17q0 -30 22 -30q31 0 71 67l48 341h167l-75 -532h-145l3 73q-31 -43 -67 -67t-82 -24q-55 0 -85 33.5zM399 960l80 -86l-172 -146l-57 54zM120 617q-20 20 -20 52q0 40 27 67t66 27q34 0 54 -20 t20 -52q0 -40 -27 -67t-66 -27q-34 0 -54 20zM351 617q-20 20 -20 52q0 40 27 67t66 27q34 0 54 -20t20 -52q0 -40 -27 -67t-66 -27q-34 0 -54 20z" />
<glyph unicode="&#x1d9;" horiz-adv-x="576" d="M532 213q-9 -66 -44 -118.5t-95 -82.5t-141 -30q-111 0 -168.5 53.5t-57.5 142.5q0 19 3 40l67 476h174l-68 -486q-2 -20 -2 -27q0 -69 64 -69q80 0 93 99l68 483h174zM515 1113l56 -67l-147 -133h-101l-113 138l65 62l110 -85zM185 769q-20 20 -20 52q0 39 27.5 66 t66.5 27q34 0 54 -19.5t20 -52.5q0 -39 -27.5 -66t-66.5 -27q-34 0 -54 20zM416 769q-20 20 -20 52q0 39 27.5 66t66.5 27q34 0 54 -19.5t20 -52.5q0 -39 -27.5 -66t-66.5 -27q-34 0 -54 20z" />
<glyph unicode="&#x1da;" horiz-adv-x="506" d="M49 15.5q-30 33.5 -30 92.5q0 17 3 36l54 388h167l-50 -361q-1 -7 -1 -17q0 -30 22 -30q31 0 71 67l48 341h167l-75 -532h-145l3 73q-31 -43 -67 -67t-82 -24q-55 0 -85 33.5zM451 961l56 -67l-147 -133h-101l-113 138l65 62l110 -85zM119 617q-20 20 -20 52 q0 40 27.5 67t66.5 27q34 0 54 -20t20 -52q0 -40 -27 -67t-66 -27q-35 0 -55 20zM350 617q-20 20 -20 52q0 40 27.5 67t66.5 27q34 0 54 -20t20 -52q0 -40 -27 -67t-66 -27q-35 0 -55 20z" />
<glyph unicode="&#x1db;" horiz-adv-x="576" d="M532 213q-9 -66 -44 -118.5t-95 -82.5t-141 -30q-111 0 -168.5 53.5t-57.5 142.5q0 19 3 40l67 476h174l-68 -486q-2 -20 -2 -27q0 -69 64 -69q80 0 93 99l68 483h174zM335 1109l99 -181l-69 -49l-130 152zM184 769q-20 20 -20 52q0 39 27.5 66t66.5 27q34 0 54 -19.5 t20 -52.5q0 -39 -27.5 -66t-66.5 -27q-34 0 -54 20zM415 769q-20 20 -20 52q0 39 27 66t66 27q34 0 54 -19.5t20 -52.5q0 -40 -27 -66.5t-66 -26.5q-34 0 -54 20z" />
<glyph unicode="&#x1dc;" horiz-adv-x="506" d="M49 15.5q-30 33.5 -30 92.5q0 17 3 36l54 388h167l-50 -361q-1 -7 -1 -17q0 -30 22 -30q31 0 71 67l48 341h167l-75 -532h-145l3 73q-31 -43 -67 -67t-82 -24q-55 0 -85 33.5zM270 958l99 -181l-69 -49l-130 152zM121 617q-20 20 -20 52q0 40 27 67t66 27q34 0 54 -20 t20 -52q0 -40 -27 -67t-66 -27q-34 0 -54 20zM352 617q-20 20 -20 52q0 40 27 67t66 27q34 0 54 -20t20 -52q0 -40 -27 -67t-66 -27q-34 0 -54 20z" />
<glyph unicode="&#x1dd;" horiz-adv-x="495" d="M422 494q55 -56 55 -159q0 -91 -31 -172t-96.5 -131.5t-164.5 -50.5q-86 0 -135.5 41t-49.5 105q0 180 311 213v1q0 45 -19 65t-55 20q-29 0 -56.5 -11t-63.5 -36l-58 98q93 73 206 73q102 0 157 -56zM265.5 134.5q24.5 41.5 36.5 104.5q-73 -6 -105 -36.5t-32 -70.5 q0 -39 38 -39t62.5 41.5z" />
<glyph unicode="&#x1de;" horiz-adv-x="538" d="M335 0l-7 145h-156l-45 -145h-181l278 694h209l83 -694h-181zM212 271h110l-14 307zM174 766q-20 20 -20 52q0 40 27 66.5t66 26.5q34 0 54 -19.5t20 -52.5q0 -40 -27 -66.5t-66 -26.5q-34 0 -54 20zM390 766q-20 20 -20 52q0 40 27 66.5t66 26.5q34 0 54 -19.5t20 -52.5 q0 -40 -27 -66.5t-66 -26.5q-34 0 -54 20zM499 950h-283l17 117h283z" />
<glyph unicode="&#x1df;" d="M514 496l-48 -337q-2 -20 -2 -27q0 -14 5 -22.5t17 -14.5l-50 -110q-45 4 -77.5 24t-44.5 57q-29 -41 -63.5 -62.5t-80.5 -21.5q-74 0 -114 53.5t-40 146.5t30 177t96.5 138t169.5 54q105 0 202 -55zM215 354.5q-29 -76.5 -29 -174.5q0 -41 11 -57.5t31 -16.5q35 0 74 62 l37 257q-20 6 -38 6q-57 0 -86 -76.5zM170 618q-20 20 -20 52q0 40 27 66.5t66 26.5q34 0 54 -19.5t20 -52.5q0 -40 -27 -66.5t-66 -26.5q-34 0 -54 20zM386 618q-20 20 -20 52q0 40 27 66.5t66 26.5q34 0 54 -19.5t20 -52.5q0 -40 -27 -66.5t-66 -26.5q-34 0 -54 20z M497 804h-283l17 117h283z" />
<glyph unicode="&#x1e0;" horiz-adv-x="538" d="M335 0l-7 145h-156l-45 -145h-181l278 694h209l83 -694h-181zM212 271h110l-14 307zM272 757.5q-23 22.5 -23 59.5q0 46 31 76.5t76 30.5q40 0 63 -22.5t23 -59.5q0 -46 -31 -76.5t-76 -30.5q-40 0 -63 22.5zM506 951h-283l17 117h283z" />
<glyph unicode="&#x1e1;" d="M514 496l-48 -337q-2 -20 -2 -27q0 -14 5 -22.5t17 -14.5l-50 -110q-45 4 -77.5 24t-44.5 57q-29 -41 -63.5 -62.5t-80.5 -21.5q-74 0 -114 53.5t-40 146.5t30 177t96.5 138t169.5 54q105 0 202 -55zM215 354.5q-29 -76.5 -29 -174.5q0 -41 11 -57.5t31 -16.5q35 0 74 62 l37 257q-20 6 -38 6q-57 0 -86 -76.5zM267 614.5q-23 22.5 -23 59.5q0 46 31 76.5t76 30.5q40 0 63 -22.5t23 -59.5q0 -46 -31 -76.5t-76 -30.5q-40 0 -63 22.5zM498 813h-283l17 117h283z" />
<glyph unicode="&#x1e2;" horiz-adv-x="764" d="M736 569h-223l3 -157h209l-17 -122h-190l3 -164h205l-19 -126h-344v145h-172l-59 -145h-188l328 694h501zM243 271h120v295zM647 779h-283l17 117h283z" />
<glyph unicode="&#x1e3;" horiz-adv-x="765" d="M352 534q33 -16 56 -47q32 30 76 47t95 17q86 0 135.5 -40.5t49.5 -103.5q0 -183 -311 -214q1 -47 19 -67t55 -20q30 0 57.5 11t63.5 36l58 -98q-93 -73 -207 -73q-61 0 -105.5 21t-70.5 61q-38 -45 -80.5 -63.5t-91.5 -18.5q-69 0 -109.5 39t-40.5 104q0 85 58.5 142 t201.5 57h43q6 23 17 50q-4 25 -26 38.5t-54 13.5q-57 0 -128 -26l-23 112q94 38 178 38q51 0 84 -16zM497.5 397.5q-24.5 -41.5 -35.5 -104.5q73 6 105.5 37t32.5 69q0 40 -39 40t-63.5 -41.5zM261 228q-40 0 -62 -19.5t-22 -59.5q0 -46 38 -46q19 0 37 13.5t39 40.5 q-2 22 -2 36l1 35h-29zM578 653h-283l17 117h283z" />
<glyph unicode="&#x1e4;" horiz-adv-x="612" d="M596 175h-60l-16 -118q-54 -36 -118 -55.5t-124 -19.5q-125 0 -187 67.5t-62 199.5q0 121 40.5 226.5t122.5 171.5t202 66q66 0 117.5 -24.5t86.5 -65.5l-95 -86q-28 26 -53 37.5t-59 11.5q-67 0 -108 -54.5t-58.5 -135.5t-17.5 -168q0 -63 20 -90.5t61 -27.5q43 0 84 22 l6 43h-77l13 96h76l6 46h-76l-1 103h249l-20 -149h60z" />
<glyph unicode="&#x1e5;" horiz-adv-x="517" d="M447 1h48l-8 -63h-57q-29 -83 -88.5 -122.5t-154.5 -39.5q-51 0 -100 15t-90 43l54 101q66 -39 130 -39q65 0 88 42h-96l8 63h105l13 90q-52 -66 -126 -66q-73 0 -113 53.5t-40 142.5q0 81 30 156t96.5 124.5t168.5 49.5q107 0 203 -55l-65 -460zM273 166.5 q21 16.5 39 44.5l30 214q-18 6 -38 6q-38 0 -63.5 -32t-37.5 -80t-12 -97q0 -72 42 -72q19 0 40 16.5z" />
<glyph unicode="&#x1e6;" horiz-adv-x="584" d="M511.5 688.5q51.5 -24.5 86.5 -65.5l-94 -85q-29 26 -54.5 37t-58.5 11q-67 0 -108 -54.5t-58.5 -135.5t-17.5 -168q0 -63 20 -90.5t61 -27.5q38 0 76 22l21 147h-68l1 123h249l-47 -345q-54 -36 -118 -55.5t-124 -19.5q-125 0 -187 67.5t-62 199.5q0 121 40.5 226.5 t122.5 171.5t202 66q66 0 117.5 -24.5zM531 949l56 -67l-147 -133h-101l-113 138l65 62l110 -85z" />
<glyph unicode="&#x1e7;" horiz-adv-x="525" d="M518 496l-65 -460q-20 -136 -83.5 -198t-184.5 -62q-50 0 -99 15.5t-89 42.5l57 108q67 -38 127 -38q43 0 70.5 22t35.5 83l8 57q-51 -66 -125 -66q-73 0 -112.5 53t-39.5 144t30 171t96.5 131.5t170.5 51.5q106 0 203 -55zM217 360q-29 -71 -29 -163q0 -40 11 -56.5 t32 -16.5q36 0 77 62l34 239q-19 6 -38 6q-58 0 -87 -71zM465 817l54 -67l-148 -141h-101l-108 141l62 67l107 -94z" />
<glyph unicode="&#x1e8;" horiz-adv-x="587" d="M9 0l97 694h174l-97 -694h-174zM368 0l-128 370l222 324h179l-224 -320l143 -374h-192zM504 949l56 -67l-147 -133h-101l-113 138l65 62l110 -85z" />
<glyph unicode="&#x1e9;" horiz-adv-x="526" d="M239 469q36 42 75 61.5t85 19.5q61 0 97.5 -34t36.5 -90q0 -61 -31.5 -106t-97.5 -80l77 -240h-177l-72 256q73 27 102.5 61t29.5 76q0 20 -9.5 30t-25.5 10q-53 0 -110 -97l-46 -336h-168l104 743l170 17zM505 998l56 -67l-147 -133h-101l-113 138l65 62l110 -85z" />
<glyph unicode="&#x1ea;" horiz-adv-x="624" d="M265 -112q0 -33 40 -33q24 0 53 6l-23 -101q-30 -8 -65 -8q-55 0 -90 29.5t-35 80.5q0 74 70 125q-90 17 -137 84.5t-47 182.5q0 117 35 221.5t111.5 171t194.5 66.5q119 0 181.5 -70t62.5 -203q0 -97 -24.5 -187.5t-78 -158.5t-134.5 -96q-114 -45 -114 -110zM271.5 525 q-34.5 -59 -49 -141t-14.5 -155q0 -63 19.5 -91t58.5 -28q56 0 90 58.5t48 140t14 156.5q0 63 -19 91t-58 28q-55 0 -89.5 -59z" />
<glyph unicode="&#x1eb;" horiz-adv-x="528" d="M232.5 -57.5q-23.5 -28.5 -23.5 -54.5q0 -33 40 -33q24 0 53 6l-23 -101q-30 -8 -65 -8q-55 0 -90 29.5t-35 80.5q0 74 73 127q-68 17 -105.5 71t-37.5 141q0 90 29.5 170t93 130t159.5 50q98 0 153 -57t55 -163q-1 -114 -48 -207.5t-141 -126.5q-64 -26 -87.5 -54.5z M212 348q-24 -78 -24 -165q0 -41 12.5 -59t37.5 -18q53 0 77 78.5t24 165.5q0 41 -12 58.5t-38 17.5q-53 0 -77 -78z" />
<glyph unicode="&#x1ec;" horiz-adv-x="624" d="M540 896l-17 -117h-283l17 117h283zM265 -112q0 -33 40 -33q24 0 53 6l-23 -101q-30 -8 -65 -8q-55 0 -90 29.5t-35 80.5q0 74 70 125q-90 17 -137 84.5t-47 182.5q0 117 35 221.5t111.5 171t194.5 66.5q119 0 181.5 -70t62.5 -203q0 -97 -24.5 -187.5t-78 -158.5 t-134.5 -96q-114 -45 -114 -110zM271.5 525q-34.5 -59 -49 -141t-14.5 -155q0 -63 19.5 -91t58.5 -28q56 0 90 58.5t48 140t14 156.5q0 63 -19 91t-58 28q-55 0 -89.5 -59z" />
<glyph unicode="&#x1ed;" horiz-adv-x="528" d="M472 770l-17 -117h-283l17 117h283zM232.5 -57.5q-23.5 -28.5 -23.5 -54.5q0 -33 40 -33q24 0 53 6l-23 -101q-30 -8 -65 -8q-55 0 -90 29.5t-35 80.5q0 74 73 127q-68 17 -105.5 71t-37.5 141q0 90 29.5 170t93 130t159.5 50q98 0 153 -57t55 -163q-1 -114 -48 -207.5 t-141 -126.5q-64 -26 -87.5 -54.5zM212 348q-24 -78 -24 -165q0 -41 12.5 -59t37.5 -18q53 0 77 78.5t24 165.5q0 41 -12 58.5t-38 17.5q-53 0 -77 -78z" />
<glyph unicode="&#x1ee;" horiz-adv-x="499" d="M490 572l-171 -169q77 -5 118.5 -47.5t41.5 -116.5q0 -79 -38 -137.5t-103 -89t-143 -30.5t-129 27.5t-86 78.5l99 82q28 -31 53.5 -44.5t61.5 -13.5q46 0 76 32.5t30 85.5q0 39 -22.5 56.5t-63.5 17.5h-93l14 97l165 167h-216l19 126h405zM454 949l56 -67l-147 -133 h-101l-113 138l65 62l110 -85z" />
<glyph unicode="&#x1ef;" horiz-adv-x="463" d="M440 417l-185 -206q81 -8 122.5 -50t41.5 -117q0 -81 -37 -141.5t-101 -93.5t-144 -33q-138 0 -207 106l99 82q28 -31 53 -45t57 -14q49 0 79 36t30 100q0 42 -21.5 59t-64.5 17h-88l13 96l171 194h-217l18 125h397zM413 817l54 -67l-148 -141h-101l-108 141l62 67 l107 -94z" />
<glyph unicode="&#x1f0;" horiz-adv-x="253" d="M-105 -102q56 23 83 56.5t36 101.5l66 476h168l-66 -469q-13 -88 -47.5 -143.5t-83 -86.5t-117.5 -56zM319 817l54 -67l-148 -141h-101l-108 141l62 67l107 -94z" />
<glyph unicode="&#x1f1;" horiz-adv-x="1055" d="M504.5 638.5q77.5 -55.5 77.5 -198.5q0 -199 -88 -319.5t-281 -120.5h-204l97 694h191q130 0 207.5 -55.5zM262 568l-61 -441h38q90 0 128 96t38 220q0 69 -25.5 97t-75.5 28h-42zM539 0l18 131l320 427h-236l20 136h430l-19 -133l-318 -421h269l-38 -140h-446z" />
<glyph unicode="&#x1f2;" horiz-adv-x="997" d="M504.5 638.5q77.5 -55.5 77.5 -198.5q0 -199 -88 -319.5t-281 -120.5h-204l97 694h191q130 0 207.5 -55.5zM262 568l-61 -441h38q90 0 128 96t38 220q0 69 -25.5 97t-75.5 28h-42zM1017 532l-16 -119l-231 -285h198l-33 -128h-384l16 120l231 286h-174l19 126h374z" />
<glyph unicode="&#x1f3;" horiz-adv-x="950" d="M558 743l-104 -743h-148l2 67q-28 -41 -62 -63t-81 -22q-72 0 -110 52.5t-38 148.5q0 89 26.5 173.5t80 139.5t130.5 55q65 0 103 -48l36 257zM232 387.5q-23 -39.5 -33.5 -96t-10.5 -107.5q0 -44 10.5 -61.5t30.5 -17.5q37 0 83 77l30 215q-19 30 -52 30 q-35 0 -58 -39.5zM970 532l-16 -119l-231 -285h198l-33 -128h-384l16 120l231 286h-174l19 126h374z" />
<glyph unicode="&#x1f4;" horiz-adv-x="584" d="M511.5 688.5q51.5 -24.5 86.5 -65.5l-94 -85q-29 26 -54.5 37t-58.5 11q-67 0 -108 -54.5t-58.5 -135.5t-17.5 -168q0 -63 20 -90.5t61 -27.5q38 0 76 22l21 147h-68l1 123h249l-47 -345q-54 -36 -118 -55.5t-124 -19.5q-125 0 -187 67.5t-62 199.5q0 121 40.5 226.5 t122.5 171.5t202 66q66 0 117.5 -24.5zM493 954l54 -123l-233 -86l-37 81z" />
<glyph unicode="&#x1f5;" horiz-adv-x="525" d="M518 496l-65 -460q-20 -136 -83.5 -198t-184.5 -62q-50 0 -99 15.5t-89 42.5l57 108q67 -38 127 -38q43 0 70.5 22t35.5 83l8 57q-51 -66 -125 -66q-73 0 -112.5 53t-39.5 144t30 171t96.5 131.5t170.5 51.5q106 0 203 -55zM217 360q-29 -71 -29 -163q0 -40 11 -56.5 t32 -16.5q36 0 77 62l34 239q-19 6 -38 6q-58 0 -87 -71zM416 838l54 -123l-233 -95l-40 82z" />
<glyph unicode="&#x1f6;" horiz-adv-x="841" d="M437 4.5q-42 22.5 -62.5 59.5t-20.5 81q0 9 2 25l16 122h-148l-41 -292h-174l97 694h174l-37 -265h149l37 265h174l-74 -525q-1 -8 -1 -22q0 -20 7 -30.5t25 -10.5q56 0 78.5 106.5t22.5 231.5q0 46 -3 88h158q6 -48 6 -101q0 -139 -22.5 -236t-84.5 -155t-174 -58 q-62 0 -104 22.5z" />
<glyph unicode="&#x1f7;" horiz-adv-x="541" d="M524 668q41 -45 41 -123q0 -84 -36.5 -142t-97.5 -97.5t-153 -76.5l-67 -26l-28 -203h-174l97 694h174l-5 -35q60 54 140 54q68 0 109 -45zM384 527q0 61 -48 61q-39 0 -76 -34l-31 -226l24 12q131 69 131 187z" />
<glyph unicode="&#x1f8;" horiz-adv-x="586" d="M502 0h-213l-85 548l1 -33q2 -46 2 -71q0 -98 -15 -210l-31 -234h-152l97 694h212l85 -548l-1 41q-2 44 -2 64q0 82 13 190l34 253h152zM324 951l188 -127l-47 -78l-211 84z" />
<glyph unicode="&#x1f9;" horiz-adv-x="511" d="M464 518q29 -33 29 -92q0 -16 -3 -36l-55 -390h-167l49 356q1 7 1 19q0 29 -19 29q-18 0 -38 -27t-46 -82l-42 -295h-167l74 532h146l-2 -85q31 48 72 76t88 28q51 0 80 -33zM275 837l186 -138l-48 -77l-211 93z" />
<glyph unicode="&#x1fa;" horiz-adv-x="538" d="M335 0l-7 145h-156l-45 -145h-181l278 694h209l83 -694h-181zM212 271h110l-14 307zM451.5 962.5q31.5 -33.5 31.5 -87.5q0 -40 -19 -74t-53.5 -54.5t-79.5 -20.5q-56 0 -87 33.5t-31 86.5q0 40 19 74.5t53.5 55t78.5 20.5q56 0 87.5 -33.5zM320 893.5 q-13 -18.5 -13 -42.5q0 -40 32 -40q23 0 36 18t13 42q0 41 -32 41q-23 0 -36 -18.5zM446 1207l54 -123l-233 -86l-37 81z" />
<glyph unicode="&#x1fb;" d="M514 496l-48 -337q-2 -20 -2 -27q0 -14 5 -22.5t17 -14.5l-50 -110q-45 4 -77.5 24t-44.5 57q-29 -41 -63.5 -62.5t-80.5 -21.5q-74 0 -114 53.5t-40 146.5t30 177t96.5 138t169.5 54q105 0 202 -55zM215 354.5q-29 -76.5 -29 -174.5q0 -41 11 -57.5t31 -16.5q35 0 74 62 l37 257q-20 6 -38 6q-57 0 -86 -76.5zM448.5 813.5q31.5 -33.5 31.5 -87.5q0 -40 -19 -74t-53.5 -54.5t-79.5 -20.5q-56 0 -87 33.5t-31 86.5q0 40 19 74.5t53.5 55t78.5 20.5q56 0 87.5 -33.5zM317 744.5q-13 -18.5 -13 -42.5q0 -40 32 -40q23 0 36 18t13 42q0 41 -32 41 q-23 0 -36 -18.5zM447 1058l54 -123l-233 -86l-37 81z" />
<glyph unicode="&#x1fc;" horiz-adv-x="764" d="M736 569h-223l3 -157h209l-17 -122h-190l3 -164h205l-19 -126h-344v145h-172l-59 -145h-188l328 694h501zM243 271h120v295zM607 954l54 -123l-233 -86l-37 81z" />
<glyph unicode="&#x1fd;" horiz-adv-x="765" d="M352 534q33 -16 56 -47q32 30 76 47t95 17q86 0 135.5 -40.5t49.5 -103.5q0 -183 -311 -214q1 -47 19 -67t55 -20q30 0 57.5 11t63.5 36l58 -98q-93 -73 -207 -73q-61 0 -105.5 21t-70.5 61q-38 -45 -80.5 -63.5t-91.5 -18.5q-69 0 -109.5 39t-40.5 104q0 85 58.5 142 t201.5 57h43q6 23 17 50q-4 25 -26 38.5t-54 13.5q-57 0 -128 -26l-23 112q94 38 178 38q51 0 84 -16zM497.5 397.5q-24.5 -41.5 -35.5 -104.5q73 6 105.5 37t32.5 69q0 40 -39 40t-63.5 -41.5zM261 228q-40 0 -62 -19.5t-22 -59.5q0 -46 38 -46q19 0 37 13.5t39 40.5 q-2 22 -2 36l1 35h-29zM526 838l54 -123l-233 -95l-40 82z" />
<glyph unicode="&#x1fe;" horiz-adv-x="624" d="M616 440q0 -117 -35 -221t-112 -170.5t-195 -66.5q-12 0 -36 2l-47 -120l-124 35l53 131q-89 71 -89 224q0 117 35 221.5t111.5 171t194.5 66.5q13 0 35 -2l48 118l122 -35l-51 -128q90 -70 90 -226zM267.5 526.5q-35.5 -59.5 -50.5 -142.5t-15 -158q0 -42 8 -69l164 429 h-13q-58 0 -93.5 -59.5zM379.5 167q35.5 59 50 141t14.5 159q0 42 -7 66l-163 -425h12q58 0 93.5 59zM475 991l54 -123l-233 -86l-37 81z" />
<glyph unicode="&#x1ff;" horiz-adv-x="528" d="M489.5 434.5q19.5 -45.5 19.5 -103.5q-1 -90 -30.5 -169.5t-93 -129.5t-159.5 -50q-15 0 -22 1l-49 -119l-114 36l53 123q-36 29 -55.5 74t-19.5 104q0 90 29.5 170t93 130t159.5 50q16 0 24 -1l48 119l115 -37l-54 -123q36 -29 55.5 -74.5zM222.5 394 q-26.5 -39 -38.5 -96.5t-12 -113.5q0 -25 5 -45l1 2l116 290v2h-4q-41 0 -67.5 -39zM305.5 138q26.5 39 38 96t11.5 113q0 26 -4 41l-1 -2l-115 -285l-1 -2h4q41 0 67.5 39zM408 851l54 -123l-233 -95l-40 82z" />
<glyph unicode="&#x200;" horiz-adv-x="538" d="M335 0l-7 145h-156l-45 -145h-181l278 694h209l83 -694h-181zM212 271h110l-14 307zM249 991l64 -203l-90 -38l-91 190zM414 991l56 -204l-90 -33l-84 190z" />
<glyph unicode="&#x201;" d="M514 496l-48 -337q-2 -20 -2 -27q0 -14 5 -22.5t17 -14.5l-50 -110q-45 4 -77.5 24t-44.5 57q-29 -41 -63.5 -62.5t-80.5 -21.5q-74 0 -114 53.5t-40 146.5t30 177t96.5 138t169.5 54q105 0 202 -55zM215 354.5q-29 -76.5 -29 -174.5q0 -41 11 -57.5t31 -16.5q35 0 74 62 l37 257q-20 6 -38 6q-57 0 -86 -76.5zM248 865l64 -203l-90 -38l-91 190zM413 865l56 -204l-90 -33l-84 190z" />
<glyph unicode="&#x202;" horiz-adv-x="538" d="M335 0l-7 145h-156l-45 -145h-181l278 694h209l83 -694h-181zM212 271h110l-14 307zM177 778q18 79 65.5 129t121.5 50q75 0 110.5 -51.5t30.5 -129.5l-91 -13q-5 76 -62 76q-59 0 -87 -79z" />
<glyph unicode="&#x203;" d="M514 496l-48 -337q-2 -20 -2 -27q0 -14 5 -22.5t17 -14.5l-50 -110q-45 4 -77.5 24t-44.5 57q-29 -41 -63.5 -62.5t-80.5 -21.5q-74 0 -114 53.5t-40 146.5t30 177t96.5 138t169.5 54q105 0 202 -55zM215 354.5q-29 -76.5 -29 -174.5q0 -41 11 -57.5t31 -16.5q35 0 74 62 l37 257q-20 6 -38 6q-57 0 -86 -76.5zM169 616q18 79 65.5 129t121.5 50q75 0 110.5 -51.5t30.5 -129.5l-91 -13q-5 76 -62 76q-59 0 -87 -79z" />
<glyph unicode="&#x204;" horiz-adv-x="464" d="M504 694l-37 -125h-204l-22 -155h180l-17 -123h-180l-23 -165h221l-18 -126h-395l97 694h398zM226 991l64 -203l-90 -38l-91 190zM391 991l56 -204l-90 -33l-84 190z" />
<glyph unicode="&#x205;" horiz-adv-x="495" d="M445.5 510q49.5 -41 49.5 -105q0 -180 -311 -213v-1q0 -45 19 -65t55 -20q29 0 56.5 11t63.5 36l58 -98q-93 -73 -206 -73q-102 0 -157 56t-55 159q0 91 31 172t96.5 131.5t164.5 50.5q86 0 135.5 -41zM298 329.5q32 30.5 32 70.5q0 39 -38 39t-62.5 -41.5t-36.5 -104.5 q73 6 105 36.5zM226 865l64 -203l-90 -38l-91 190zM391 865l56 -204l-90 -33l-84 190z" />
<glyph unicode="&#x206;" horiz-adv-x="464" d="M504 694l-37 -125h-204l-22 -155h180l-17 -123h-180l-23 -165h221l-18 -126h-395l97 694h398zM154 778q18 79 65.5 129t121.5 50q75 0 110.5 -51.5t30.5 -129.5l-91 -13q-5 76 -62 76q-59 0 -87 -79z" />
<glyph unicode="&#x207;" horiz-adv-x="495" d="M445.5 510q49.5 -41 49.5 -105q0 -180 -311 -213v-1q0 -45 19 -65t55 -20q29 0 56.5 11t63.5 36l58 -98q-93 -73 -206 -73q-102 0 -157 56t-55 159q0 91 31 172t96.5 131.5t164.5 50.5q86 0 135.5 -41zM298 329.5q32 30.5 32 70.5q0 39 -38 39t-62.5 -41.5t-36.5 -104.5 q73 6 105 36.5zM147 616q18 79 65.5 129t121.5 50q75 0 110.5 -51.5t30.5 -129.5l-91 -13q-5 76 -62 76q-59 0 -87 -79z" />
<glyph unicode="&#x208;" horiz-adv-x="267" d="M280 694l-97 -694h-174l97 694h174zM113 991l64 -203l-90 -38l-91 190zM278 991l56 -204l-90 -33l-84 190z" />
<glyph unicode="&#x209;" horiz-adv-x="254" d="M247 532l-74 -532h-167l74 532h167zM91 865l64 -203l-90 -38l-91 190zM256 865l56 -204l-90 -33l-84 190z" />
<glyph unicode="&#x20a;" horiz-adv-x="267" d="M280 694l-97 -694h-174l97 694h174zM41 778q18 79 65.5 129t121.5 50q75 0 110.5 -51.5t30.5 -129.5l-91 -13q-5 76 -62 76q-59 0 -87 -79z" />
<glyph unicode="&#x20b;" horiz-adv-x="254" d="M247 532l-74 -532h-167l74 532h167zM12 616q18 79 65.5 129t121.5 50q75 0 110.5 -51.5t30.5 -129.5l-91 -13q-5 76 -62 76q-59 0 -87 -79z" />
<glyph unicode="&#x20c;" horiz-adv-x="624" d="M553.5 643q62.5 -70 62.5 -203q0 -117 -35 -221t-112 -170.5t-195 -66.5t-180.5 70t-62.5 202q0 117 35 221.5t111.5 171t194.5 66.5q119 0 181.5 -70zM271.5 525q-34.5 -59 -49 -141t-14.5 -155q0 -63 19.5 -91t58.5 -28q56 0 90 58.5t48 140t14 156.5q0 63 -19 91 t-58 28q-55 0 -89.5 -59zM292 991l64 -203l-90 -38l-91 190zM457 991l56 -204l-90 -33l-84 190z" />
<glyph unicode="&#x20d;" horiz-adv-x="528" d="M73.5 38.5q-54.5 56.5 -54.5 162.5q0 90 29.5 170t93 130t159.5 50q98 0 153 -57t55 -163q-1 -90 -30.5 -169.5t-93 -129.5t-159.5 -50q-98 0 -152.5 56.5zM315 184.5q24 78.5 24 165.5q0 41 -12 58.5t-38 17.5q-53 0 -77 -78t-24 -165q0 -41 12.5 -59t37.5 -18 q53 0 77 78.5zM224 865l64 -203l-90 -38l-91 190zM389 865l56 -204l-90 -33l-84 190z" />
<glyph unicode="&#x20e;" horiz-adv-x="624" d="M553.5 643q62.5 -70 62.5 -203q0 -117 -35 -221t-112 -170.5t-195 -66.5t-180.5 70t-62.5 202q0 117 35 221.5t111.5 171t194.5 66.5q119 0 181.5 -70zM271.5 525q-34.5 -59 -49 -141t-14.5 -155q0 -63 19.5 -91t58.5 -28q56 0 90 58.5t48 140t14 156.5q0 63 -19 91 t-58 28q-55 0 -89.5 -59zM220 778q18 79 65.5 129t121.5 50q75 0 110.5 -51.5t30.5 -129.5l-91 -13q-5 76 -62 76q-59 0 -87 -79z" />
<glyph unicode="&#x20f;" horiz-adv-x="528" d="M73.5 38.5q-54.5 56.5 -54.5 162.5q0 90 29.5 170t93 130t159.5 50q98 0 153 -57t55 -163q-1 -90 -30.5 -169.5t-93 -129.5t-159.5 -50q-98 0 -152.5 56.5zM315 184.5q24 78.5 24 165.5q0 41 -12 58.5t-38 17.5q-53 0 -77 -78t-24 -165q0 -41 12.5 -59t37.5 -18 q53 0 77 78.5zM145 616q18 79 65.5 129t121.5 50q75 0 110.5 -51.5t30.5 -129.5l-91 -13q-5 76 -62 76q-59 0 -87 -79z" />
<glyph unicode="&#x210;" horiz-adv-x="556" d="M527.5 382.5q-32.5 -53.5 -106.5 -91.5l111 -291h-185l-84 259h-44l-36 -259h-174l97 694h208q123 0 184.5 -48t61.5 -137q0 -73 -32.5 -126.5zM236 380h42q55 0 79.5 35.5t24.5 86.5q0 36 -20 52.5t-60 16.5h-39zM251 991l64 -203l-90 -38l-91 190zM416 991l56 -204 l-90 -33l-84 190z" />
<glyph unicode="&#x211;" horiz-adv-x="362" d="M408 540l-50 -164q-21 6 -41 6q-39 0 -64 -37.5t-46 -105.5l-34 -239h-167l74 532h144l-1 -92q25 51 59.5 79.5t77.5 28.5q24 0 48 -8zM170 865l64 -203l-90 -38l-91 190zM335 865l56 -204l-90 -33l-84 190z" />
<glyph unicode="&#x212;" horiz-adv-x="556" d="M527.5 382.5q-32.5 -53.5 -106.5 -91.5l111 -291h-185l-84 259h-44l-36 -259h-174l97 694h208q123 0 184.5 -48t61.5 -137q0 -73 -32.5 -126.5zM236 380h42q55 0 79.5 35.5t24.5 86.5q0 36 -20 52.5t-60 16.5h-39zM179 778q18 79 65.5 129t121.5 50q75 0 110.5 -51.5 t30.5 -129.5l-91 -13q-5 76 -62 76q-59 0 -87 -79z" />
<glyph unicode="&#x213;" horiz-adv-x="362" d="M408 540l-50 -164q-21 6 -41 6q-39 0 -64 -37.5t-46 -105.5l-34 -239h-167l74 532h144l-1 -92q25 51 59.5 79.5t77.5 28.5q24 0 48 -8zM91 616q18 79 65.5 129t121.5 50q75 0 110.5 -51.5t30.5 -129.5l-91 -13q-5 76 -62 76q-59 0 -87 -79z" />
<glyph unicode="&#x214;" horiz-adv-x="576" d="M532 213q-9 -66 -44 -118.5t-95 -82.5t-141 -30q-111 0 -168.5 53.5t-57.5 142.5q0 19 3 40l67 476h174l-68 -486q-2 -20 -2 -27q0 -69 64 -69q80 0 93 99l68 483h174zM267 991l64 -203l-90 -38l-91 190zM432 991l56 -204l-90 -33l-84 190z" />
<glyph unicode="&#x215;" horiz-adv-x="506" d="M49 15.5q-30 33.5 -30 92.5q0 17 3 36l54 388h167l-50 -361q-1 -7 -1 -17q0 -30 22 -30q31 0 71 67l48 341h167l-75 -532h-145l3 73q-31 -43 -67 -67t-82 -24q-55 0 -85 33.5zM215 865l64 -203l-90 -38l-91 190zM380 865l56 -204l-90 -33l-84 190z" />
<glyph unicode="&#x216;" horiz-adv-x="576" d="M532 213q-9 -66 -44 -118.5t-95 -82.5t-141 -30q-111 0 -168.5 53.5t-57.5 142.5q0 19 3 40l67 476h174l-68 -486q-2 -20 -2 -27q0 -69 64 -69q80 0 93 99l68 483h174zM195 778q18 79 65.5 129t121.5 50q75 0 110.5 -51.5t30.5 -129.5l-91 -13q-5 76 -62 76 q-59 0 -87 -79z" />
<glyph unicode="&#x217;" horiz-adv-x="506" d="M49 15.5q-30 33.5 -30 92.5q0 17 3 36l54 388h167l-50 -361q-1 -7 -1 -17q0 -30 22 -30q31 0 71 67l48 341h167l-75 -532h-145l3 73q-31 -43 -67 -67t-82 -24q-55 0 -85 33.5zM136 616q18 79 65.5 129t121.5 50q75 0 110.5 -51.5t30.5 -129.5l-91 -13q-5 76 -62 76 q-59 0 -87 -79z" />
<glyph unicode="&#x218;" horiz-adv-x="519" d="M539 620l-88 -90q-28 28 -58 41t-66 13q-41 0 -64 -19.5t-23 -50.5q0 -28 21 -46t83 -44q77 -32 114 -76.5t37 -117.5q0 -67 -32.5 -123.5t-96.5 -90.5t-153 -34q-149 0 -238 102l96 94q32 -32 66 -48.5t78 -16.5q47 0 73.5 23.5t26.5 63.5q0 33 -22 54.5t-80 46.5 q-81 33 -116.5 76t-35.5 110q0 63 31 114.5t90 81.5t139 30q136 0 218 -93zM264.5 -86q20.5 -20 20.5 -51q0 -24 -8 -44t-29 -55l-57 -94h-80l42 117q-29 19 -29 54q0 41 25 67t62 26q33 0 53.5 -20z" />
<glyph unicode="&#x219;" horiz-adv-x="436" d="M354.5 532.5q47.5 -18.5 81.5 -50.5l-72 -90q-52 38 -105 38q-27 0 -42 -11t-15 -29t17.5 -30.5t71.5 -33.5q59 -24 88.5 -59.5t29.5 -92.5q0 -55 -27.5 -98.5t-79.5 -68.5t-123 -25q-65 0 -118 23t-89 62l85 87q57 -52 120 -52q31 0 48 13.5t17 35.5t-17.5 36t-69.5 35 q-61 24 -89.5 58t-28.5 90q0 51 26.5 92t76 65t113.5 24q54 0 101.5 -18.5zM217.5 -86q20.5 -20 20.5 -51q0 -24 -8 -44t-29 -55l-57 -94h-80l42 117q-29 19 -29 54q0 41 25 67t62 26q33 0 53.5 -20z" />
<glyph unicode="&#x21a;" horiz-adv-x="488" d="M551 694l-37 -134h-142l-78 -560h-174l78 560h-153l19 134h487zM253.5 -86q20.5 -20 20.5 -51q0 -24 -8 -44t-29 -55l-57 -94h-80l42 117q-29 19 -29 54q0 41 25 67t62 26q33 0 53.5 -20z" />
<glyph unicode="&#x21b;" horiz-adv-x="351" d="M213 172q-1 -6 -1 -18q0 -38 32 -38q19 0 47 13l40 -107q-30 -20 -68 -30t-73 -10q-71 0 -109 38.5t-38 109.5q0 21 3 43l34 242h-61l16 117h68l31 117l148 17l-19 -134h107l-36 -117h-87zM216.5 -86q20.5 -20 20.5 -51q0 -24 -8 -44t-29 -55l-57 -94h-80l42 117 q-29 19 -29 54q0 41 25 67t62 26q33 0 53.5 -20z" />
<glyph unicode="&#x21c;" horiz-adv-x="466" d="M418.5 666q53.5 -47 53.5 -124q0 -145 -176 -185q72 -2 109.5 -36t37.5 -98q0 -132 -124.5 -216.5t-315.5 -121.5l7 126q83 25 136.5 51.5t84 65.5t30.5 95q0 37 -21 53.5t-68 16.5h-64l37 125h48q48 0 73.5 28.5t25.5 76.5q0 63 -57 63q-54 0 -123 -54l-68 89 q103 92 230 92q91 0 144.5 -47z" />
<glyph unicode="&#x21d;" horiz-adv-x="442" d="M369 513.5q49 -37.5 49 -103.5q0 -103 -132 -137q58 0 89 -25.5t31 -71.5q0 -104 -101.5 -176t-293.5 -110l1 113q114 38 168 77.5t54 93.5q0 35 -46 35h-80l26 107h41q34 0 53 19t19 54q0 23 -12 34t-34 11q-24 0 -46.5 -8t-51.5 -25l-62 89q46 31 93.5 46t103.5 15 q82 0 131 -37.5z" />
<glyph unicode="&#x21e;" horiz-adv-x="589" d="M182 0h-174l98 694h174l-37 -265h148l38 265h173l-97 -694h-173l40 292h-148zM504 949l56 -67l-147 -133h-101l-113 138l65 62l110 -85z" />
<glyph unicode="&#x21f;" horiz-adv-x="510" d="M463 518q29 -33 29 -92q0 -16 -3 -36l-55 -390h-167l49 356q1 7 1 19q0 29 -19 29q-18 0 -38.5 -27t-46.5 -82l-41 -295h-167l104 743l169 17l-42 -307q25 43 63 70.5t84 27.5q51 0 80 -33zM471 998l56 -67l-147 -133h-101l-113 138l65 62l110 -85z" />
<glyph unicode="&#x220;" horiz-adv-x="578" d="M537.5 672q36.5 -41 36.5 -107q0 -22 -2 -34l-102 -743h-174l100 727q1 7 1 20q0 47 -40 47q-24 0 -48 -13t-52 -40l-75 -529h-173l97 694h152l4 -55q40 37 81.5 55.5t88.5 18.5q69 0 105.5 -41z" />
<glyph unicode="&#x221;" horiz-adv-x="725" d="M682 221q28 -27 28 -74q0 -80 -55 -122.5t-140 -42.5q-16 0 -42 2l-38 -70l-70 32l34 58q-55 26 -77 78q-32 -50 -70.5 -75t-86.5 -25q-72 0 -110 52t-38 149q0 89 26 173.5t80.5 139.5t133.5 55q62 0 100 -48l36 257l165 -17l-80 -575q-2 -18 -2 -24q27 56 58 80t75 24 q45 0 73 -27zM342 396q-10 16 -22 23.5t-30 7.5q-35 0 -58 -39.5t-33.5 -96t-10.5 -107.5q0 -44 10.5 -61.5t31.5 -17.5q38 0 83 78zM588 113q14 11 14 30t-17 19q-13 0 -24.5 -13t-27.5 -47h18q23 0 37 11z" />
<glyph unicode="&#x222;" horiz-adv-x="585" d="M456 397q99 -42 99 -148q0 -79 -38.5 -139.5t-106.5 -94t-153 -33.5q-75 0 -129 27t-82.5 74t-28.5 105q0 76 39 128.5t109 79.5q-34 17 -52 45t-18 71q0 7 2 27l21 155h174l-24 -167q-2 -18 -2 -24q0 -27 12.5 -39.5t39.5 -12.5q34 0 50.5 20.5t21.5 58.5l23 164h174 l-22 -157q-14 -98 -109 -140zM346 146.5q28 36.5 28 97.5q0 40 -18.5 62.5t-53.5 22.5q-46 0 -75 -37.5t-29 -98.5q0 -40 18.5 -61.5t54.5 -21.5q47 0 75 36.5z" />
<glyph unicode="&#x223;" horiz-adv-x="522" d="M410 416q85 -39 85 -152q0 -81 -35 -145.5t-96 -100.5t-138 -36q-103 0 -157 55t-54 147q0 83 35.5 142t101.5 88q-58 34 -58 107q0 9 2 29l28 193h164l-32 -226q-1 -6 -1 -17q0 -37 31 -37q39 0 47 56l33 224h164l-27 -196q-12 -88 -93 -131zM303.5 156.5 q21.5 50.5 21.5 116.5q0 40 -12 60t-39 20q-44 0 -66.5 -52t-22.5 -117q0 -40 12 -59t39 -19q46 0 67.5 50.5z" />
<glyph unicode="&#x224;" horiz-adv-x="479" d="M506 561l-317 -421h257l-20 -140l-7 -41q-14 -89 -70.5 -136t-141.5 -47q-82 0 -132 45l67 97q16 -9 28.5 -13.5t29.5 -4.5q47 0 54 58l6 42h-287l18 131l320 427h-236l20 136h430z" />
<glyph unicode="&#x225;" horiz-adv-x="409" d="M420 413l-231 -285h188l-17 -128l-6 -40q-13 -90 -68.5 -136.5t-139.5 -46.5q-81 0 -132 44l67 97q18 -10 30 -14.5t29 -4.5q23 0 37 13.5t18 39.5l6 48h-231l16 120l231 286h-174l19 126h374z" />
<glyph unicode="&#x226;" horiz-adv-x="538" d="M335 0l-7 145h-156l-45 -145h-181l278 694h209l83 -694h-181zM212 271h110l-14 307zM280 775.5q-23 22.5 -23 59.5q0 46 31 76.5t76 30.5q40 0 63 -22.5t23 -59.5q0 -46 -31 -76.5t-76 -30.5q-40 0 -63 22.5z" />
<glyph unicode="&#x227;" d="M514 496l-48 -337q-2 -20 -2 -27q0 -14 5 -22.5t17 -14.5l-50 -110q-45 4 -77.5 24t-44.5 57q-29 -41 -63.5 -62.5t-80.5 -21.5q-74 0 -114 53.5t-40 146.5t30 177t96.5 138t169.5 54q105 0 202 -55zM215 354.5q-29 -76.5 -29 -174.5q0 -41 11 -57.5t31 -16.5q35 0 74 62 l37 257q-20 6 -38 6q-57 0 -86 -76.5zM274 649.5q-23 22.5 -23 59.5q0 46 31 76.5t76 30.5q40 0 63 -22.5t23 -59.5q0 -46 -31 -76.5t-76 -30.5q-40 0 -63 22.5z" />
<glyph unicode="&#x228;" horiz-adv-x="464" d="M263 569l-22 -155h180l-17 -123h-180l-23 -165h221l-18 -126h-153l-8 -49q42 -5 63.5 -27.5t21.5 -60.5q0 -30 -15.5 -59.5t-51 -49.5t-91.5 -20q-33 0 -60 9t-45 24l47 72q26 -14 55 -14q20 0 32 7.5t12 23.5t-18 23t-61 7l28 114h-151l97 694h398l-37 -125h-204z" />
<glyph unicode="&#x229;" horiz-adv-x="495" d="M445.5 510q49.5 -41 49.5 -105q0 -180 -311 -213v-1q0 -45 19 -65t55 -20q29 0 56.5 11t63.5 36l58 -98q-76 -59 -162 -70l-6 -34q42 -5 63.5 -27.5t21.5 -60.5q0 -30 -15.5 -59.5t-51 -49.5t-91.5 -20q-33 0 -60 9t-45 24l47 72q26 -14 54 -14q20 0 32 7.5t13 23.5 q0 16 -18 23t-61 7l25 100q-80 13 -122 67t-42 144q0 91 31 172t96.5 131.5t164.5 50.5q86 0 135.5 -41zM298 329.5q32 30.5 32 70.5q0 39 -38 39t-62.5 -41.5t-36.5 -104.5q73 6 105 36.5z" />
<glyph unicode="&#x22a;" horiz-adv-x="624" d="M553.5 643q62.5 -70 62.5 -203q0 -117 -35 -221t-112 -170.5t-195 -66.5t-180.5 70t-62.5 202q0 117 35 221.5t111.5 171t194.5 66.5q119 0 181.5 -70zM271.5 525q-34.5 -59 -49 -141t-14.5 -155q0 -63 19.5 -91t58.5 -28q56 0 90 58.5t48 140t14 156.5q0 63 -19 91 t-58 28q-55 0 -89.5 -59zM217 766q-20 20 -20 52q0 40 27 66.5t66 26.5q34 0 54 -19.5t20 -52.5q0 -40 -27 -66.5t-66 -26.5q-34 0 -54 20zM433 766q-20 20 -20 52q0 40 27 66.5t66 26.5q34 0 54 -19.5t20 -52.5q0 -40 -27 -66.5t-66 -26.5q-34 0 -54 20zM542 950h-283 l17 117h283z" />
<glyph unicode="&#x22b;" horiz-adv-x="528" d="M73.5 38.5q-54.5 56.5 -54.5 162.5q0 90 29.5 170t93 130t159.5 50q98 0 153 -57t55 -163q-1 -90 -30.5 -169.5t-93 -129.5t-159.5 -50q-98 0 -152.5 56.5zM315 184.5q24 78.5 24 165.5q0 41 -12 58.5t-38 17.5q-53 0 -77 -78t-24 -165q0 -41 12.5 -59t37.5 -18 q53 0 77 78.5zM146 618q-20 20 -20 52q0 40 27 66.5t66 26.5q34 0 54 -19.5t20 -52.5q0 -40 -27 -66.5t-66 -26.5q-34 0 -54 20zM362 618q-20 20 -20 52q0 40 27 66.5t66 26.5q34 0 54 -19.5t20 -52.5q0 -40 -27 -66.5t-66 -26.5q-34 0 -54 20zM473 804h-283l17 117h283z " />
<glyph unicode="&#x22c;" horiz-adv-x="624" d="M540 951h-283l17 117h283zM402.5 762q-13.5 7 -31.5 19q-3 2 -11 7.5t-14.5 8t-12.5 2.5q-15 0 -26.5 -10.5t-26.5 -33.5l-74 42q26 54 61.5 88t74.5 34q20 0 35 -7t32 -20q11 -9 19 -13t16 -4q14 0 25.5 10.5t25.5 32.5l74 -41q-26 -54 -62 -88t-74 -34q-17 0 -30.5 7z M553.5 643q62.5 -70 62.5 -203q0 -117 -35 -221t-112 -170.5t-195 -66.5t-180.5 70t-62.5 202q0 117 35 221.5t111.5 171t194.5 66.5q119 0 181.5 -70zM271.5 525q-34.5 -59 -49 -141t-14.5 -155q0 -63 19.5 -91t58.5 -28q56 0 90 58.5t48 140t14 156.5q0 63 -19 91t-58 28 q-55 0 -89.5 -59z" />
<glyph unicode="&#x22d;" horiz-adv-x="528" d="M73.5 38.5q-54.5 56.5 -54.5 162.5q0 90 29.5 170t93 130t159.5 50q98 0 153 -57t55 -163q-1 -90 -30.5 -169.5t-93 -129.5t-159.5 -50q-98 0 -152.5 56.5zM315 184.5q24 78.5 24 165.5q0 41 -12 58.5t-38 17.5q-53 0 -77 -78t-24 -165q0 -41 12.5 -59t37.5 -18 q53 0 77 78.5zM319.5 600q-13.5 7 -31.5 19q-3 2 -11 7.5t-14.5 8t-12.5 2.5q-15 0 -26.5 -10.5t-26.5 -33.5l-74 42q26 54 61.5 88t74.5 34q20 0 35 -7t32 -20q11 -9 19 -13t16 -4q14 0 25.5 10.5t25.5 32.5l74 -41q-26 -54 -62 -88t-74 -34q-17 0 -30.5 7zM462 792h-283 l17 117h283z" />
<glyph unicode="&#x22e;" horiz-adv-x="624" d="M553.5 643q62.5 -70 62.5 -203q0 -117 -35 -221t-112 -170.5t-195 -66.5t-180.5 70t-62.5 202q0 117 35 221.5t111.5 171t194.5 66.5q119 0 181.5 -70zM271.5 525q-34.5 -59 -49 -141t-14.5 -155q0 -63 19.5 -91t58.5 -28q56 0 90 58.5t48 140t14 156.5q0 63 -19 91 t-58 28q-55 0 -89.5 -59zM323 775.5q-23 22.5 -23 59.5q0 46 31 76.5t76 30.5q40 0 63 -22.5t23 -59.5q0 -46 -31 -76.5t-76 -30.5q-40 0 -63 22.5z" />
<glyph unicode="&#x22f;" horiz-adv-x="528" d="M73.5 38.5q-54.5 56.5 -54.5 162.5q0 90 29.5 170t93 130t159.5 50q98 0 153 -57t55 -163q-1 -90 -30.5 -169.5t-93 -129.5t-159.5 -50q-98 0 -152.5 56.5zM315 184.5q24 78.5 24 165.5q0 41 -12 58.5t-38 17.5q-53 0 -77 -78t-24 -165q0 -41 12.5 -59t37.5 -18 q53 0 77 78.5zM250 649.5q-23 22.5 -23 59.5q0 46 31 76.5t76 30.5q40 0 63 -22.5t23 -59.5q0 -46 -31 -76.5t-76 -30.5q-40 0 -63 22.5z" />
<glyph unicode="&#x230;" horiz-adv-x="624" d="M553.5 643q62.5 -70 62.5 -203q0 -117 -35 -221t-112 -170.5t-195 -66.5t-180.5 70t-62.5 202q0 117 35 221.5t111.5 171t194.5 66.5q119 0 181.5 -70zM271.5 525q-34.5 -59 -49 -141t-14.5 -155q0 -63 19.5 -91t58.5 -28q56 0 90 58.5t48 140t14 156.5q0 63 -19 91 t-58 28q-55 0 -89.5 -59zM315 757.5q-23 22.5 -23 59.5q0 46 31 76.5t76 30.5q40 0 63 -22.5t23 -59.5q0 -46 -31 -76.5t-76 -30.5q-40 0 -63 22.5zM549 951h-283l17 117h283z" />
<glyph unicode="&#x237;" horiz-adv-x="253" d="M-105 -102q56 23 83 56.5t36 101.5l66 476h168l-66 -469q-13 -88 -47.5 -143.5t-83 -86.5t-117.5 -56z" />
<glyph unicode="&#x259;" horiz-adv-x="495" d="M422 494q55 -56 55 -159q0 -91 -31 -172t-96.5 -131.5t-164.5 -50.5q-86 0 -135.5 41t-49.5 105q0 180 311 213v1q0 45 -19 65t-55 20q-29 0 -56.5 -11t-63.5 -36l-58 98q93 73 206 73q102 0 157 -56zM265.5 134.5q24.5 41.5 36.5 104.5q-73 -6 -105 -36.5t-32 -70.5 q0 -39 38 -39t62.5 41.5z" />
<glyph unicode="&#x278;" horiz-adv-x="615" d="M533.5 101.5q-65.5 -84.5 -180.5 -96.5l-31 -211l-167 -18l33 231q-76 11 -124.5 61.5t-48.5 141.5q0 136 66 221t181 97l29 215l167 17l-32 -234q76 -11 124.5 -62t48.5 -142q0 -136 -65.5 -220.5zM421.5 180.5q22.5 62.5 22.5 146.5q0 47 -12.5 69t-37.5 26l-42 -312 q47 8 69.5 70.5zM193 353q-23 -61 -23 -146q0 -46 12 -69t37 -28l43 311q-46 -7 -69 -68z" />
<glyph unicode="&#x292;" horiz-adv-x="463" d="M440 417l-185 -206q81 -8 122.5 -50t41.5 -117q0 -81 -37 -141.5t-101 -93.5t-144 -33q-138 0 -207 106l99 82q28 -31 53 -45t57 -14q49 0 79 36t30 100q0 42 -21.5 59t-64.5 17h-88l13 96l171 194h-217l18 125h397z" />
<glyph unicode="&#x2b9;" horiz-adv-x="293" d="M60 412l111 282h143l-147 -282h-107z" />
<glyph unicode="&#x2c6;" horiz-adv-x="417" d="M143 619l-54 67l148 141h100l113 -145l-69 -63l-106 94z" />
<glyph unicode="&#x2c7;" horiz-adv-x="417" d="M401 817l54 -67l-148 -141h-101l-108 141l62 67l107 -94z" />
<glyph unicode="&#x2d8;" horiz-adv-x="381" d="M142 675.5q-36 45.5 -36 116.5l1 20l88 13q2 -37 17.5 -57t44.5 -20q30 0 52 21t34 58l85 -19q-15 -78 -61.5 -128t-118.5 -50q-70 0 -106 45.5z" />
<glyph unicode="&#x2d9;" horiz-adv-x="249" d="M116 649.5q-23 22.5 -23 59.5q0 46 31 76.5t76 30.5q40 0 63 -22.5t23 -59.5q0 -46 -31 -76.5t-76 -30.5q-40 0 -63 22.5z" />
<glyph unicode="&#x2da;" horiz-adv-x="327" d="M334.5 838.5q31.5 -33.5 31.5 -87.5q0 -40 -19 -74t-53.5 -54.5t-79.5 -20.5q-56 0 -87 33.5t-31 86.5q0 40 19 74.5t53.5 55t78.5 20.5q56 0 87.5 -33.5zM203 769.5q-13 -18.5 -13 -42.5q0 -40 32 -40q23 0 36 18t13 42q0 41 -32 41q-23 0 -36 -18.5z" />
<glyph unicode="&#x2db;" horiz-adv-x="280" d="M212 0q-68 -27 -93 -56t-25 -56q0 -33 40 -33q24 0 53 6l-23 -101q-30 -8 -65 -8q-55 0 -90 29.5t-35 80.5q0 63 52.5 111t164.5 81z" />
<glyph unicode="&#x2dc;" horiz-adv-x="411" d="M283.5 638q-13.5 7 -31.5 19q-3 2 -11 7.5t-14.5 8t-12.5 2.5q-15 0 -26.5 -10.5t-26.5 -33.5l-74 42q26 54 61.5 88t74.5 34q20 0 35 -7t32 -20q11 -9 19 -13t16 -4q14 0 25.5 10.5t25.5 32.5l74 -41q-26 -54 -62 -88t-74 -34q-17 0 -30.5 7z" />
<glyph unicode="&#x2dd;" horiz-adv-x="415" d="M199 865l99 -52l-133 -185l-79 35zM363 865l98 -56l-140 -185l-77 40z" />
<glyph unicode="&#x300;" horiz-adv-x="0" d="M-157 837l186 -138l-48 -77l-211 93z" />
<glyph unicode="&#x301;" horiz-adv-x="0" d="M-20 838l54 -123l-233 -95l-40 82z" />
<glyph unicode="&#x302;" horiz-adv-x="0" d="M-278 619l-54 67l148 141h100l113 -145l-69 -63l-106 94z" />
<glyph unicode="&#x303;" horiz-adv-x="0" d="M-127.5 638q-13.5 7 -31.5 19q-3 2 -11 7.5t-14.5 8t-12.5 2.5q-15 0 -26.5 -10.5t-26.5 -33.5l-74 42q26 54 61.5 88t74.5 34q20 0 35 -7t32 -20q11 -9 19 -13t16 -4q14 0 25.5 10.5t25.5 32.5l74 -41q-26 -54 -62 -88t-74 -34q-17 0 -30.5 7z" />
<glyph unicode="&#x304;" horiz-adv-x="0" d="M23 653h-283l17 117h283z" />
<glyph unicode="&#x306;" horiz-adv-x="0" d="M-239 675.5q-36 45.5 -36 116.5l1 20l88 13q2 -37 17.5 -57t44.5 -20q30 0 52 21t34 58l85 -19q-15 -78 -61.5 -128t-118.5 -50q-70 0 -106 45.5z" />
<glyph unicode="&#x307;" horiz-adv-x="0" d="M-135 649.5q-23 22.5 -23 59.5q0 46 31 76.5t76 30.5q40 0 63 -22.5t23 -59.5q0 -46 -31 -76.5t-76 -30.5q-40 0 -63 22.5z" />
<glyph unicode="&#x308;" horiz-adv-x="0" d="M-329 659q-20 20 -20 52q0 40 27 66.5t66 26.5q34 0 54 -19.5t20 -52.5q0 -40 -27 -66.5t-66 -26.5q-34 0 -54 20zM-113 659q-20 20 -20 52q0 40 27 66.5t66 26.5q34 0 54 -19.5t20 -52.5q0 -40 -27 -66.5t-66 -26.5q-34 0 -54 20z" />
<glyph unicode="&#x309;" horiz-adv-x="0" d="M-141 704q36 2 52.5 12t16.5 31q0 13 -7 18.5t-23 5.5q-23 0 -54 -13l-17 70q45 25 100 25q53 0 82 -26.5t29 -69.5q0 -42 -24 -67.5t-67 -34.5l-7 -51h-94z" />
<glyph unicode="&#x30a;" horiz-adv-x="0" d="M5.5 838.5q31.5 -33.5 31.5 -87.5q0 -40 -19 -74t-53.5 -54.5t-79.5 -20.5q-56 0 -87 33.5t-31 86.5q0 40 19 74.5t53.5 55t78.5 20.5q56 0 87.5 -33.5zM-126 769.5q-13 -18.5 -13 -42.5q0 -40 32 -40q23 0 36 18t13 42q0 41 -32 41q-23 0 -36 -18.5z" />
<glyph unicode="&#x30b;" horiz-adv-x="0" d="M-216 865l99 -52l-133 -185l-79 35zM-52 865l98 -56l-140 -185l-77 40z" />
<glyph unicode="&#x30c;" horiz-adv-x="0" d="M-16 817l54 -67l-148 -141h-101l-108 141l62 67l107 -94z" />
<glyph unicode="&#x30f;" horiz-adv-x="0" d="M-196 865l64 -203l-90 -38l-91 190zM-31 865l56 -204l-90 -33l-84 190z" />
<glyph unicode="&#x311;" horiz-adv-x="0" d="M-309 616q18 79 65.5 129t121.5 50q75 0 110.5 -51.5t30.5 -129.5l-91 -13q-5 76 -62 76q-59 0 -87 -79z" />
<glyph unicode="&#x312;" horiz-adv-x="0" d="M-114.5 607q-20.5 20 -20.5 51q0 24 8 44t29 55l57 94h80l-42 -117q29 -19 29 -54q0 -41 -25 -67t-62 -26q-33 0 -53.5 20z" />
<glyph unicode="&#x323;" horiz-adv-x="0" d="M-111 -80.5q23 -22.5 23 -59.5q0 -46 -31 -76.5t-76 -30.5q-40 0 -63 22.5t-23 59.5q0 46 31 76.5t76 30.5q40 0 63 -22.5z" />
<glyph unicode="&#x326;" horiz-adv-x="0" d="M-108.5 -86q20.5 -20 20.5 -51q0 -24 -8 -44t-29 -55l-57 -94h-80l42 117q-29 19 -29 54q0 41 25 67t62 26q33 0 53.5 -20z" />
<glyph unicode="&#x327;" horiz-adv-x="0" d="M-173 -49q42 -5 63.5 -27.5t21.5 -60.5q0 -30 -15.5 -59.5t-51 -49.5t-91.5 -20q-33 0 -60 9t-45 24l47 72q26 -14 54 -14q20 0 32 7.5t13 23.5q0 16 -18 23t-61 7l32 130h90z" />
<glyph unicode="&#x328;" horiz-adv-x="0" d="M-68 0q-68 -27 -93 -56t-25 -56q0 -33 40 -33q24 0 53 6l-23 -101q-30 -8 -65 -8q-55 0 -90 29.5t-35 80.5q0 63 52.5 111t164.5 81z" />
<glyph unicode="&#x32d;" horiz-adv-x="0" d="M-403 -270l-54 67l148 141h101l112 -146l-68 -62l-106 93z" />
<glyph unicode="&#x331;" horiz-adv-x="0" d="M-361 -77h283l-17 -117h-283z" />
<glyph unicode="&#x345;" horiz-adv-x="0" d="M-281 -177.5q-29 28.5 -29 73.5q0 25 6 61h113q-4 -24 -4 -38q0 -30 28 -30q20 0 44 13l32 -72q-24 -17 -49.5 -26.5t-58.5 -9.5q-53 0 -82 28.5z" />
<glyph unicode="&#x370;" horiz-adv-x="473" d="M494 429l-20 -137h-250l-42 -292h-174l98 694h174l-37 -265h251z" />
<glyph unicode="&#x371;" horiz-adv-x="428" d="M403 206h-196l-29 -206h-166l54 388q5 34 5 73q0 29 -4 65l156 18q13 -39 13 -94q0 -34 -6 -82l-5 -32h196z" />
<glyph unicode="&#x372;" horiz-adv-x="615" d="M183 0l79 563h-67l-28 -187h-148l46 318h606l-45 -318h-148l25 187h-67l-79 -563h-174z" />
<glyph unicode="&#x373;" horiz-adv-x="464" d="M484 406h-141l-88 -613l-168 -17l88 630h-60q-45 0 -81 -11l-15 119q44 18 103 18h380z" />
<glyph unicode="&#x374;" horiz-adv-x="293" d="M60 412l111 282h143l-147 -282h-107z" />
<glyph unicode="&#x375;" horiz-adv-x="293" d="M237 149l-111 -282h-143l147 282h107z" />
<glyph unicode="&#x376;" horiz-adv-x="586" d="M502 0h-167l32 225q13 90 28.5 158t42.5 160l-223 -543h-206l97 694h166l-31 -224q-13 -92 -29.5 -163t-41.5 -151l227 538h202z" />
<glyph unicode="&#x377;" horiz-adv-x="517" d="M460 154q0 -19 6.5 -30.5t22.5 -20.5l-64 -121q-58 14 -94 45.5t-36 81.5q0 38 18 99.5t50 152.5l9 26l-197 -387h-169l74 532h159l-22 -158q-10 -75 -20 -113.5t-34 -102.5l193 374h155l-49 -353q-2 -18 -2 -25z" />
<glyph unicode="&#x37a;" horiz-adv-x="291" d="M10 -177.5q-29 28.5 -29 73.5q0 25 6 61h113q-4 -24 -4 -38q0 -30 28 -30q20 0 44 13l32 -72q-24 -17 -49.5 -26.5t-58.5 -9.5q-53 0 -82 28.5z" />
<glyph unicode="&#x37b;" horiz-adv-x="463" d="M337.5 521q49.5 -30 76.5 -84.5t27 -126.5q0 -100 -35 -174t-101.5 -114t-158.5 -40q-58 0 -100.5 17t-79.5 48l82 101q27 -18 46.5 -25.5t47.5 -7.5q64 0 94 53.5t30 145.5q0 54 -22 80.5t-57 26.5q-27 0 -51.5 -9.5t-54.5 -29.5l-54 102q46 34 92.5 50.5t103.5 16.5 q65 0 114.5 -30z" />
<glyph unicode="&#x37c;" horiz-adv-x="458" d="M415 534q43 -17 79 -52l-82 -94q-23 18 -43 25.5t-46 7.5q-67 0 -98 -62.5t-31 -146.5q0 -53 20 -75.5t57 -22.5q28 0 49.5 7.5t51.5 24.5l59 -102q-43 -31 -87.5 -46.5t-100.5 -15.5q-105 0 -164 60t-59 169q0 95 36 172.5t102.5 122.5t154.5 45q59 0 102 -17z M250.5 201q-19.5 19 -19.5 50q0 39 26 64.5t64 25.5q34 0 53.5 -19t19.5 -50q0 -39 -26 -64.5t-65 -25.5q-33 0 -52.5 19z" />
<glyph unicode="&#x37d;" horiz-adv-x="463" d="M337.5 521q49.5 -30 76.5 -84.5t27 -126.5q0 -100 -35 -174t-101.5 -114t-158.5 -40q-58 0 -100.5 17t-79.5 48l82 101q27 -18 46.5 -25.5t47.5 -7.5q64 0 94 53.5t30 145.5q0 54 -22 80.5t-57 26.5q-27 0 -51.5 -9.5t-54.5 -29.5l-54 102q46 34 92.5 50.5t103.5 16.5 q65 0 114.5 -30zM87.5 201q-19.5 19 -19.5 50q0 39 26 64.5t64 25.5q34 0 53.5 -19t19.5 -50q0 -39 -26 -64.5t-65 -25.5q-33 0 -52.5 19z" />
<glyph unicode="&#x37e;" horiz-adv-x="230" d="M157 148q22 -22 22 -58q0 -26 -10 -50t-39 -78l-79 -141h-88l66 179q-32 23 -32 64q0 44 29 75t73 31q36 0 58 -22zM67 345.5q-22 23.5 -22 59.5q0 43 29.5 74t72.5 31q37 0 59 -23.5t22 -60.5q0 -44 -29.5 -74t-72.5 -30q-37 0 -59 23.5z" />
<glyph unicode="&#x384;" horiz-adv-x="223" d="M111 842l162 -12l-80 -234h-106z" />
<glyph unicode="&#x385;" horiz-adv-x="461" d="M270 955l135 -10l-66 -194h-88zM235 743q20 -20 20 -52q0 -40 -27 -67t-66 -27q-34 0 -54 20t-20 52q0 40 27 67t66 27q34 0 54 -20zM469.5 743q20.5 -20 20.5 -52q0 -40 -27 -67t-66 -27q-34 0 -54.5 20t-20.5 52q0 40 27 67t66 27q34 0 54.5 -20z" />
<glyph unicode="&#x386;" horiz-adv-x="657" d="M455 0l-7 145h-156l-45 -145h-181l278 694h209l83 -694h-181zM332 271h110l-14 307zM113 706l160 -12l-80 -233h-104z" />
<glyph unicode="&#x388;" horiz-adv-x="652" d="M692 694l-37 -125h-204l-22 -155h180l-17 -123h-180l-23 -165h221l-18 -126h-395l97 694h398zM93 706l160 -12l-80 -233h-104z" />
<glyph unicode="&#x389;" horiz-adv-x="776" d="M369 0h-174l98 694h174l-37 -265h148l38 265h173l-97 -694h-173l40 292h-148zM94 706l160 -12l-80 -233h-104z" />
<glyph unicode="&#x38a;" horiz-adv-x="455" d="M469 694l-97 -694h-174l97 694h174zM94 706l160 -12l-80 -233h-104z" />
<glyph unicode="&#x38c;" horiz-adv-x="790" d="M718.5 643q62.5 -70 62.5 -203q0 -117 -35 -221t-112 -170.5t-195 -66.5t-180.5 70t-62.5 202q0 117 35 221.5t111.5 171t194.5 66.5q119 0 181.5 -70zM436.5 525q-34.5 -59 -49 -141t-14.5 -155q0 -63 19.5 -91t58.5 -28q56 0 90 58.5t48 140t14 156.5q0 63 -19 91 t-58 28q-55 0 -89.5 -59zM99 706l160 -12l-80 -233h-104z" />
<glyph unicode="&#x38e;" horiz-adv-x="747" d="M820 694l-257 -435l-36 -259h-174l36 258l-135 436h184l58 -301l138 301h186zM79 706l160 -12l-80 -233h-104z" />
<glyph unicode="&#x38f;" horiz-adv-x="785" d="M668 679q55 -34 83.5 -94.5t28.5 -138.5q0 -104 -39 -188t-127 -133h106l-18 -125h-239l16 118q67 32 95 135.5t28 213.5q0 118 -79 118q-57 0 -91 -55.5t-48.5 -134.5t-14.5 -157q0 -47 13 -74.5t43 -46.5l-16 -117h-240l18 126h105q-93 64 -93 193q0 95 38 185.5 t114 149.5t184 59q78 0 133 -34zM99 706l160 -12l-80 -233h-104z" />
<glyph unicode="&#x390;" horiz-adv-x="249" d="M194 179q-2 -18 -2 -25q0 -19 6.5 -30.5t22.5 -20.5l-64 -121q-135 27 -135 144q0 18 3 37l51 369h167zM162 955l135 -10l-66 -194h-88zM127 743q20 -20 20 -52q0 -40 -27 -67t-66 -27q-34 0 -54 20t-20 52q0 40 27 67t66 27q34 0 54 -20zM361.5 743q20.5 -20 20.5 -52 q0 -40 -27 -67t-66 -27q-34 0 -54.5 20t-20.5 52q0 40 27 67t66 27q34 0 54.5 -20z" />
<glyph unicode="&#x391;" horiz-adv-x="538" d="M335 0l-7 145h-156l-45 -145h-181l278 694h209l83 -694h-181zM212 271h110l-14 307z" />
<glyph unicode="&#x392;" horiz-adv-x="554" d="M496.5 321.5q34.5 -32.5 34.5 -95.5q0 -106 -78 -166t-231 -60h-213l97 694h194q118 0 184 -39t66 -118q0 -69 -41.5 -111t-105.5 -59q59 -13 93.5 -45.5zM349.5 445.5q22.5 26.5 22.5 71.5q0 28 -17.5 41t-53.5 13h-39l-21 -152h36q50 0 72.5 26.5zM354 237 q0 35 -20.5 51t-60.5 16h-48l-25 -177h39q115 0 115 110z" />
<glyph unicode="&#x393;" horiz-adv-x="455" d="M518 694l-37 -138h-220l-78 -556h-174l97 694h412z" />
<glyph unicode="&#x394;" horiz-adv-x="545" d="M437 694l86 -694h-577l282 694h209zM314 565l-142 -437h165z" />
<glyph unicode="&#x395;" horiz-adv-x="464" d="M504 694l-37 -125h-204l-22 -155h180l-17 -123h-180l-23 -165h221l-18 -126h-395l97 694h398z" />
<glyph unicode="&#x396;" horiz-adv-x="489" d="M-27 0l18 131l320 427h-236l20 136h430l-19 -133l-318 -421h269l-38 -140h-446z" />
<glyph unicode="&#x397;" horiz-adv-x="589" d="M182 0h-174l98 694h174l-37 -265h148l38 265h173l-97 -694h-173l40 292h-148z" />
<glyph unicode="&#x398;" horiz-adv-x="624" d="M553.5 643q62.5 -70 62.5 -203q0 -115 -35 -219.5t-112 -171.5t-194 -67q-119 0 -181.5 69.5t-62.5 202.5q0 115 35 219.5t112 172t194 67.5q119 0 181.5 -70zM266 529q-37 -58 -52 -140t-15 -160q0 -64 21 -93t63 -29q61 0 98 57.5t52 139t15 160.5q0 65 -21 94t-64 29 q-60 0 -97 -58zM412 401l-15 -98h-161l15 98h161z" />
<glyph unicode="&#x399;" horiz-adv-x="267" d="M280 694l-97 -694h-174l97 694h174z" />
<glyph unicode="&#x39a;" horiz-adv-x="587" d="M9 0l97 694h174l-97 -694h-174zM368 0l-128 370l222 324h179l-224 -320l143 -374h-192z" />
<glyph unicode="&#x39b;" horiz-adv-x="538" d="M433 694l83 -694h-178l-27 569l-181 -569h-184l278 694h209z" />
<glyph unicode="&#x39c;" horiz-adv-x="712" d="M651 0h-170l29 264q16 137 44 298l-143 -490h-167l-19 489q-9 -169 -29 -300l-41 -261h-169l141 694h209l11 -478l133 478h223z" />
<glyph unicode="&#x39d;" horiz-adv-x="586" d="M502 0h-213l-85 548l1 -33q2 -46 2 -71q0 -98 -15 -210l-31 -234h-152l97 694h212l85 -548l-1 41q-2 44 -2 64q0 82 13 190l34 253h152z" />
<glyph unicode="&#x39e;" horiz-adv-x="471" d="M512 694l-40 -146h-414l21 146h433zM413 421l-19 -137h-314l20 137h313zM434 152l-22 -152h-428l21 152h429z" />
<glyph unicode="&#x39f;" horiz-adv-x="624" d="M553.5 643q62.5 -70 62.5 -203q0 -117 -35 -221t-112 -170.5t-195 -66.5t-180.5 70t-62.5 202q0 117 35 221.5t111.5 171t194.5 66.5q119 0 181.5 -70zM271.5 525q-34.5 -59 -49 -141t-14.5 -155q0 -63 19.5 -91t58.5 -28q56 0 90 58.5t48 140t14 156.5q0 63 -19 91 t-58 28q-55 0 -89.5 -59z" />
<glyph unicode="&#x3a0;" horiz-adv-x="590" d="M603 694l-97 -694h-174l77 560h-147l-79 -560h-174l97 694h497z" />
<glyph unicode="&#x3a1;" horiz-adv-x="540" d="M494.5 644.5q63.5 -49.5 63.5 -144.5q0 -75 -32 -137t-98 -99t-162 -37h-52l-31 -227h-174l97 694h206q119 0 182.5 -49.5zM354 394q26 41 26 100q0 39 -19.5 57.5t-61.5 18.5h-37l-30 -217h34q62 0 88 41z" />
<glyph unicode="&#x3a3;" horiz-adv-x="451" d="M496 694l-18 -127h-241l115 -197l-9 -66l-159 -174h235l-19 -130h-422l18 127l193 219l-133 222l18 126h422z" />
<glyph unicode="&#x3a4;" horiz-adv-x="488" d="M551 694l-37 -134h-142l-78 -560h-174l78 560h-153l19 134h487z" />
<glyph unicode="&#x3a5;" horiz-adv-x="542" d="M614 694l-257 -435l-36 -259h-174l36 258l-135 436h184l58 -301l138 301h186z" />
<glyph unicode="&#x3a6;" horiz-adv-x="769" d="M737.5 241.5q-34.5 -67.5 -108.5 -113t-187 -51.5l-11 -77h-168l10 77q-117 9 -185.5 69.5t-68.5 163.5q0 74 34.5 141.5t108.5 113t187 51.5l11 78h168l-11 -78q118 -9 186.5 -69t68.5 -163q0 -75 -34.5 -142.5zM565 252q33 63 33 137q0 115 -104 125l-46 -335 q84 10 117 73zM219 217q25 -33 77 -38l46 335q-85 -9 -116.5 -72t-31.5 -137q0 -55 25 -88z" />
<glyph unicode="&#x3a7;" horiz-adv-x="530" d="M584 694l-204 -320l120 -374h-184l-54 264l-120 -264h-188l218 369l-109 325h184l41 -226l109 226h187z" />
<glyph unicode="&#x3a8;" horiz-adv-x="665" d="M710 694l-39 -282q-13 -92 -80.5 -153.5t-183.5 -78.5l-25 -180h-174l25 180q-100 15 -150.5 66.5t-50.5 130.5q0 19 3 38l39 279h165l-40 -287q-2 -20 -2 -28q0 -33 14.5 -51.5t47.5 -27.5l54 394h157l-54 -393q41 10 61.5 35t26.5 74l40 284h166z" />
<glyph unicode="&#x3a9;" horiz-adv-x="623" d="M506 679q55 -34 83.5 -94.5t28.5 -138.5q0 -104 -39 -188t-127 -133h106l-18 -125h-239l16 118q67 32 95 135.5t28 213.5q0 118 -79 118q-57 0 -91 -55.5t-48.5 -134.5t-14.5 -157q0 -47 13 -74.5t43 -46.5l-16 -117h-240l18 126h105q-93 64 -93 193q0 95 38 185.5 t114 149.5t184 59q78 0 133 -34z" />
<glyph unicode="&#x3aa;" horiz-adv-x="267" d="M280 694l-97 -694h-174l97 694h174zM40 785q-20 20 -20 52q0 40 27 66.5t66 26.5q34 0 54 -19.5t20 -52.5q0 -40 -27 -66.5t-66 -26.5q-34 0 -54 20zM256 785q-20 20 -20 52q0 40 27 66.5t66 26.5q34 0 54 -19.5t20 -52.5q0 -40 -27 -66.5t-66 -26.5q-34 0 -54 20z" />
<glyph unicode="&#x3ab;" horiz-adv-x="542" d="M614 694l-257 -435l-36 -259h-174l36 258l-135 436h184l58 -301l138 301h186zM177 785q-20 20 -20 52q0 40 27 66.5t66 26.5q34 0 54 -19.5t20 -52.5q0 -40 -27 -66.5t-66 -26.5q-34 0 -54 20zM393 785q-20 20 -20 52q0 40 27 66.5t66 26.5q34 0 54 -19.5t20 -52.5 q0 -40 -27 -66.5t-66 -26.5q-34 0 -54 20z" />
<glyph unicode="&#x3ac;" horiz-adv-x="536" d="M354.5 515.5q31.5 -35.5 35.5 -102.5l26 119h138l-106 -271l8 -101q2 -24 12.5 -36t30.5 -16l-70 -126q-90 12 -97 96l-1 22q-30 -60 -67.5 -89t-90.5 -29q-72 0 -114 52t-42 150q0 88 25 172t80.5 139.5t140.5 55.5q60 0 91.5 -35.5zM226 385.5q-21 -41.5 -31.5 -97.5 t-10.5 -99q0 -44 10.5 -64t30.5 -20q54 0 102 171q-1 85 -12.5 118t-38.5 33q-29 0 -50 -41.5zM264 842l162 -12l-80 -234h-106z" />
<glyph unicode="&#x3ad;" horiz-adv-x="448" d="M62.5 24q-55.5 42 -55.5 116q0 61 40.5 99t114.5 45q-101 23 -101 109q0 47 26 82.5t73.5 55.5t109.5 20q54 0 101.5 -17.5t81.5 -52.5l-75 -80q-46 33 -90 33q-30 0 -46.5 -15.5t-16.5 -42.5q0 -23 14 -36.5t43 -13.5h52l-32 -107h-46q-41 0 -60 -17t-19 -47 q0 -25 16.5 -39t48.5 -14q26 0 52 9.5t59 30.5l55 -93q-38 -32 -90.5 -49.5t-111.5 -17.5q-88 0 -143.5 42zM244 842l162 -12l-80 -234h-106z" />
<glyph unicode="&#x3ae;" horiz-adv-x="513" d="M318 356l2 20q0 29 -21 29q-17 0 -34.5 -24.5t-44.5 -82.5l-41 -298h-167l54 388q5 47 5 75q0 29 -4 63l154 18q8 -18 10 -38t1 -55q32 49 70.5 74.5t81.5 25.5q52 0 81.5 -33.5t29.5 -91.5q0 -18 -3 -36l-87 -598l-168 -16zM275 842l162 -12l-80 -234h-106z" />
<glyph unicode="&#x3af;" horiz-adv-x="249" d="M194 179q-2 -18 -2 -25q0 -19 6.5 -30.5t22.5 -20.5l-64 -121q-135 27 -135 144q0 18 3 37l51 369h167zM138 842l162 -12l-80 -234h-106z" />
<glyph unicode="&#x3b0;" horiz-adv-x="505" d="M486 431q0 -138 -22.5 -235.5t-84.5 -155.5t-174 -58q-91 0 -136.5 46.5t-45.5 114.5q0 10 2 28l51 361h167l-50 -363q-2 -16 -2 -22q0 -41 33 -41q56 0 78.5 106.5t22.5 231.5q0 46 -3 88h158q6 -48 6 -101zM285 955l135 -10l-66 -194h-88zM250 743q20 -20 20 -52 q0 -40 -27 -67t-66 -27q-34 0 -54 20t-20 52q0 40 27 67t66 27q34 0 54 -20zM484.5 743q20.5 -20 20.5 -52q0 -40 -27 -67t-66 -27q-34 0 -54.5 20t-20.5 52q0 40 27 67t66 27q34 0 54.5 -20z" />
<glyph unicode="&#x3b1;" horiz-adv-x="536" d="M354.5 515.5q31.5 -35.5 35.5 -102.5l26 119h138l-106 -271l8 -101q2 -24 12.5 -36t30.5 -16l-70 -126q-90 12 -97 96l-1 22q-30 -60 -67.5 -89t-90.5 -29q-72 0 -114 52t-42 150q0 88 25 172t80.5 139.5t140.5 55.5q60 0 91.5 -35.5zM226 385.5q-21 -41.5 -31.5 -97.5 t-10.5 -99q0 -44 10.5 -64t30.5 -20q54 0 102 171q-1 85 -12.5 118t-38.5 33q-29 0 -50 -41.5z" />
<glyph unicode="&#x3b2;" horiz-adv-x="544" d="M83 553q14 99 79.5 153t164.5 54q90 0 141.5 -48t51.5 -122q0 -64 -34.5 -115.5t-114.5 -70.5q62 -4 105.5 -42t43.5 -115q0 -59 -24.5 -120t-77 -103t-131.5 -42q-73 0 -118 42l-31 -228l-164 -20zM328 154.5q25 43.5 25 97.5q0 89 -81 89h-28l26 114h13q36 0 54 38.5 t18 87.5q0 61 -43 61q-55 0 -68 -91l-59 -419q26 -21 66 -21q52 0 77 43.5z" />
<glyph unicode="&#x3b3;" horiz-adv-x="462" d="M222 235q0 -42 -1 -65l131 380l154 -37l-225 -486q-21 -46 -31 -81t-10 -71q0 -34 9 -77l-128 -22q-36 61 -36 114q0 52 35 127q-11 162 -40.5 289t-65.5 193l155 50q53 -95 53 -314z" />
<glyph unicode="&#x3b4;" d="M440 740q44 -20 76 -56l-84 -81q-22 21 -43.5 30.5t-45.5 9.5q-32 0 -48 -14.5t-16 -37.5q0 -21 14.5 -35.5t57.5 -35.5q78 -38 114.5 -87t36.5 -125q0 -79 -28.5 -153.5t-91 -123.5t-157.5 -49q-65 0 -112.5 28t-72 75.5t-24.5 105.5q0 92 39.5 163t136.5 111 q-39 28 -55 59t-16 68q0 42 24 80.5t72 63t116 24.5q63 0 107 -20zM203.5 318q-16.5 -56 -16.5 -129q0 -83 50 -83q49 0 71.5 63.5t22.5 139.5q0 42 -13.5 65t-48.5 46q-49 -46 -65.5 -102z" />
<glyph unicode="&#x3b5;" horiz-adv-x="448" d="M62.5 24q-55.5 42 -55.5 116q0 61 40.5 99t114.5 45q-101 23 -101 109q0 47 26 82.5t73.5 55.5t109.5 20q54 0 101.5 -17.5t81.5 -52.5l-75 -80q-46 33 -90 33q-30 0 -46.5 -15.5t-16.5 -42.5q0 -23 14 -36.5t43 -13.5h52l-32 -107h-46q-41 0 -60 -17t-19 -47 q0 -25 16.5 -39t48.5 -14q26 0 52 9.5t59 30.5l55 -93q-38 -32 -90.5 -49.5t-111.5 -17.5q-88 0 -143.5 42z" />
<glyph unicode="&#x3b6;" horiz-adv-x="380" d="M111 -123q38 21 58 41t20 46q0 20 -13 34.5t-46 32.5q-44 25 -70 48.5t-39 57t-13 83.5q0 98 71.5 205t235.5 215q-52 -19 -118 -19h-120l36 122h336l10 -90q-278 -237 -278 -414q0 -42 18 -66.5t65 -51.5q49 -27 72 -55t23 -75q0 -68 -48.5 -119.5t-153.5 -95.5z" />
<glyph unicode="&#x3b7;" horiz-adv-x="513" d="M318 356l2 20q0 29 -21 29q-17 0 -34.5 -24.5t-44.5 -82.5l-41 -298h-167l54 388q5 47 5 75q0 29 -4 63l154 18q8 -18 10 -38t1 -55q32 49 70.5 74.5t81.5 25.5q52 0 81.5 -33.5t29.5 -91.5q0 -18 -3 -36l-87 -598l-168 -16z" />
<glyph unicode="&#x3b8;" horiz-adv-x="511" d="M462.5 696.5q47.5 -63.5 47.5 -190.5q0 -140 -30.5 -259t-96.5 -192t-167 -73q-91 0 -138.5 64t-47.5 191q0 137 31 256t97 193t165 74q92 0 139.5 -63.5zM268.5 622q-18.5 -19 -34.5 -67t-31 -134h149q10 77 10 118q0 57 -12.5 79.5t-37.5 22.5t-43.5 -19zM187 325 q-8 -69 -8 -117q0 -58 12.5 -81t37.5 -23q36 0 62 49t47 172h-151z" />
<glyph unicode="&#x3b9;" horiz-adv-x="249" d="M194 179q-2 -18 -2 -25q0 -19 6.5 -30.5t22.5 -20.5l-64 -121q-135 27 -135 144q0 18 3 37l51 369h167z" />
<glyph unicode="&#x3ba;" horiz-adv-x="518" d="M342.5 14q-30.5 24 -47.5 75l-74 191l182 270l133 -67l-148 -204l65 -132q9 -17 17 -25.5t22 -14.5l-73 -125q-46 8 -76.5 32zM66 388q5 47 5 75q0 29 -4 63l155 18q14 -42 14 -97q0 -34 -6 -79l-52 -368h-166z" />
<glyph unicode="&#x3bb;" horiz-adv-x="481" d="M274.5 718.5q49.5 -27.5 77 -84t34.5 -157.5q14 -187 31 -279t52 -164l-163 -51q-22 55 -33 101.5t-16.5 113.5t-5.5 179l-116 -395l-166 41l216 520l52 -13q-9 39 -22 60.5t-38 34t-71 21.5l34 115q85 -15 134.5 -42.5z" />
<glyph unicode="&#x3bc;" horiz-adv-x="518" d="M446 67q0 -43 4 -68l-155 -16q-9 36 -9 75q-21 -34 -42.5 -50t-49.5 -16q-31 0 -50 21q6 -34 6 -62q0 -33 -5 -68l-13 -89l-158 -16l106 754h167l-51 -369q-2 -14 -2 -19q0 -32 26 -32q16 0 33 14t32 42l51 364h167l-49 -350q-8 -60 -8 -115z" />
<glyph unicode="&#x3bd;" horiz-adv-x="462" d="M219 246q0 -47 -3 -101l137 404l153 -36l-215 -513h-205q-2 190 -18.5 316.5t-53.5 182.5l155 50q50 -95 50 -303z" />
<glyph unicode="&#x3be;" horiz-adv-x="409" d="M138 -123q39 23 58.5 42t19.5 45q0 20 -14 35t-52 37q-68 37 -101.5 78.5t-33.5 113.5q0 82 42.5 137.5t140.5 78.5q-49 13 -74.5 45.5t-25.5 81.5q0 46 25.5 90t75.5 71.5t119 27.5q53 0 96.5 -18t74.5 -51l-80 -80q-20 16 -37 23.5t-38 7.5q-33 0 -52 -24t-19 -62 q0 -65 67 -65h39l-31 -112h-35q-52 0 -83 -37t-31 -95q0 -32 9.5 -52t29 -34.5t58.5 -35.5q53 -30 76.5 -58.5t23.5 -74.5q0 -69 -48.5 -120.5t-153.5 -95.5z" />
<glyph unicode="&#x3bf;" horiz-adv-x="528" d="M73.5 38.5q-54.5 56.5 -54.5 162.5q0 90 29.5 170t93 130t159.5 50q98 0 153 -57t55 -163q-1 -90 -30.5 -169.5t-93 -129.5t-159.5 -50q-98 0 -152.5 56.5zM315 184.5q24 78.5 24 165.5q0 41 -12 58.5t-38 17.5q-53 0 -77 -78t-24 -165q0 -41 12.5 -59t37.5 -18 q53 0 77 78.5z" />
<glyph unicode="&#x3c0;" horiz-adv-x="540" d="M464 179q-2 -18 -2 -25q0 -19 6.5 -30.5t22.5 -20.5l-64 -121q-135 27 -135 146q0 16 3 35l35 243h-76l-56 -406h-166l56 406q-27 -1 -49 -9l-15 117q46 18 101 18h450l-18 -126h-60z" />
<glyph unicode="&#x3c1;" horiz-adv-x="530" d="M451 497q55 -54 55 -158q0 -92 -27.5 -174t-81.5 -132.5t-130 -50.5q-65 0 -99 47l-33 -236l-169 -17l71 517q18 126 82.5 192t177.5 66q99 0 154 -54zM293 144.5q22 39.5 32.5 96.5t10.5 109q0 44 -12 61t-37 17q-33 0 -53 -35.5t-31 -117.5l-19 -136q19 -34 53 -34 t56 39.5z" />
<glyph unicode="&#x3c2;" horiz-adv-x="434" d="M122 -123q39 22 58.5 41.5t19.5 45.5q0 21 -13 35.5t-45 32.5q-61 34 -91 77t-30 118q0 81 31.5 155t95.5 121.5t155 47.5q101 0 165 -70l-81 -93q-20 17 -38.5 25t-39.5 8q-40 0 -65 -30t-36 -73t-11 -83t17 -64.5t62 -49.5q48 -27 71 -55t23 -75q0 -68 -48.5 -119.5 t-153.5 -95.5z" />
<glyph unicode="&#x3c3;" horiz-adv-x="546" d="M74.5 38.5q-55.5 56.5 -55.5 162.5q0 83 26.5 159.5t93 128.5t179.5 52q98 0 260 -9l-20 -124l-90 10q17 -18 28.5 -48t11.5 -71q0 -73 -30 -146t-93 -122t-156 -49q-99 0 -154.5 56.5zM299 147q23 41 32 97.5t9 107.5q0 47 -12 71h-22q-62 1 -90 -63t-28 -174 q0 -42 12.5 -61t38.5 -19q37 0 60 41z" />
<glyph unicode="&#x3c4;" horiz-adv-x="430" d="M288 179q-2 -20 -2 -25q0 -19 6.5 -30.5t22.5 -20.5l-60 -121q-138 27 -138 147q0 22 2 34l35 243h-39q-45 0 -81 -11l-15 119q44 18 103 18h346l-18 -126h-129z" />
<glyph unicode="&#x3c5;" horiz-adv-x="505" d="M486 431q0 -138 -22.5 -235.5t-84.5 -155.5t-174 -58q-91 0 -136.5 46.5t-45.5 114.5q0 10 2 28l51 361h167l-50 -363q-2 -16 -2 -22q0 -41 33 -41q56 0 78.5 106.5t22.5 231.5q0 46 -3 88h158q6 -48 6 -101z" />
<glyph unicode="&#x3c6;" horiz-adv-x="686" d="M618.5 501.5q43.5 -49.5 43.5 -146.5q0 -155 -60.5 -254.5t-224.5 -117.5l-26 -189l-157 -18l29 208q-104 12 -155 66t-51 144q0 71 27 161t75 177h151q-48 -100 -69.5 -181t-21.5 -157q0 -44 14 -66t47 -29l33 244q14 98 68.5 153t146.5 55q87 0 130.5 -49.5zM446.5 418 q-11.5 -19 -18.5 -73l-35 -246q114 19 114 272q0 38 -7 52t-22 14q-20 0 -31.5 -19z" />
<glyph unicode="&#x3c7;" horiz-adv-x="449" d="M296 183l105 -378l-164 -28l-43 280l-111 -280l-172 18l214 389q-36 132 -60 198t-59 116l162 47q20 -50 31.5 -98.5t27.5 -153.5l82 253l174 -18z" />
<glyph unicode="&#x3c8;" horiz-adv-x="709" d="M667.5 196q-22.5 -91 -86 -145.5t-185.5 -66.5l-27 -191l-159 -17l30 208q-105 11 -159 60.5t-54 127.5q0 17 3 35l46 325h163l-46 -326q-2 -18 -2 -26q0 -65 66 -78l59 430h157l-59 -429q53 11 79 60.5t32.5 114t6.5 159.5l-1 95h154q5 -50 5 -100q0 -145 -22.5 -236z " />
<glyph unicode="&#x3c9;" horiz-adv-x="688" d="M55.5 30q-41.5 48 -41.5 142q0 80 27 172.5t75 187.5h152q-46 -113 -68.5 -197.5t-22.5 -158.5q0 -37 8 -53.5t25 -16.5q18 0 29 15t17 57l24 177l156 21l-28 -201q-2 -24 -2 -31q0 -19 6 -28.5t22 -9.5q41 0 58 78t17 172q0 60 -16 176h151q25 -89 25 -178 q0 -156 -51 -264t-170 -108q-52 0 -85.5 28.5t-41.5 85.5q-23 -59 -60.5 -86.5t-90.5 -27.5q-73 0 -114.5 48z" />
<glyph unicode="&#x3ca;" horiz-adv-x="249" d="M194 179q-2 -18 -2 -25q0 -19 6.5 -30.5t22.5 -20.5l-64 -121q-135 27 -135 144q0 18 3 37l51 369h167zM13 659q-20 20 -20 52q0 40 27 66.5t66 26.5q34 0 54 -19.5t20 -52.5q0 -40 -27 -66.5t-66 -26.5q-34 0 -54 20zM229 659q-20 20 -20 52q0 40 27 66.5t66 26.5 q34 0 54 -19.5t20 -52.5q0 -40 -27 -66.5t-66 -26.5q-34 0 -54 20z" />
<glyph unicode="&#x3cb;" horiz-adv-x="505" d="M486 431q0 -138 -22.5 -235.5t-84.5 -155.5t-174 -58q-91 0 -136.5 46.5t-45.5 114.5q0 10 2 28l51 361h167l-50 -363q-2 -16 -2 -22q0 -41 33 -41q56 0 78.5 106.5t22.5 231.5q0 46 -3 88h158q6 -48 6 -101zM136 659q-20 20 -20 52q0 40 27 66.5t66 26.5q34 0 54 -19.5 t20 -52.5q0 -40 -27 -66.5t-66 -26.5q-34 0 -54 20zM352 659q-20 20 -20 52q0 40 27 66.5t66 26.5q34 0 54 -19.5t20 -52.5q0 -40 -27 -66.5t-66 -26.5q-34 0 -54 20z" />
<glyph unicode="&#x3cc;" horiz-adv-x="528" d="M73.5 38.5q-54.5 56.5 -54.5 162.5q0 90 29.5 170t93 130t159.5 50q98 0 153 -57t55 -163q-1 -90 -30.5 -169.5t-93 -129.5t-159.5 -50q-98 0 -152.5 56.5zM315 184.5q24 78.5 24 165.5q0 41 -12 58.5t-38 17.5q-53 0 -77 -78t-24 -165q0 -41 12.5 -59t37.5 -18 q53 0 77 78.5zM276 842l162 -12l-80 -234h-106z" />
<glyph unicode="&#x3cd;" horiz-adv-x="505" d="M486 431q0 -138 -22.5 -235.5t-84.5 -155.5t-174 -58q-91 0 -136.5 46.5t-45.5 114.5q0 10 2 28l51 361h167l-50 -363q-2 -16 -2 -22q0 -41 33 -41q56 0 78.5 106.5t22.5 231.5q0 46 -3 88h158q6 -48 6 -101zM261 842l162 -12l-80 -234h-106z" />
<glyph unicode="&#x3ce;" horiz-adv-x="688" d="M55.5 30q-41.5 48 -41.5 142q0 80 27 172.5t75 187.5h152q-46 -113 -68.5 -197.5t-22.5 -158.5q0 -37 8 -53.5t25 -16.5q18 0 29 15t17 57l24 177l156 21l-28 -201q-2 -24 -2 -31q0 -19 6 -28.5t22 -9.5q41 0 58 78t17 172q0 60 -16 176h151q25 -89 25 -178 q0 -156 -51 -264t-170 -108q-52 0 -85.5 28.5t-41.5 85.5q-23 -59 -60.5 -86.5t-90.5 -27.5q-73 0 -114.5 48zM355 842l162 -12l-80 -234h-106z" />
<glyph unicode="&#x3cf;" horiz-adv-x="624" d="M106 694h174l-97 -694h-174zM509 134h93l-18 -134l-5 -34q-15 -93 -73.5 -141.5t-147.5 -48.5q-84 0 -133 45l69 101q16 -10 27.5 -14t28.5 -4q46 0 55 54l5 42h-42l-128 370l222 324h179l-224 -320z" />
<glyph unicode="&#x3d0;" horiz-adv-x="515" d="M461 390.5q30 -39.5 30 -110.5q0 -69 -28 -137.5t-88 -114.5t-151 -46q-198 0 -198 242q0 124 34.5 247.5t107.5 206t183 82.5q73 0 112.5 -38t39.5 -96q0 -60 -41.5 -114t-147.5 -91q20 4 35 6.5t28 2.5q54 0 84 -39.5zM268.5 595q-29.5 -48 -52.5 -157l22 11 q55 25 86 70t31 92q0 32 -26 32q-31 0 -60.5 -48zM299 159q20 54 20 115q0 40 -12.5 59.5t-38.5 19.5q-22 0 -52 -15l-19 -9q-9 -75 -9 -124q0 -54 12 -77t35 -23q44 0 64 54z" />
<glyph unicode="&#x3d1;" horiz-adv-x="502" d="M512 401h-32q-13 -191 -84 -304.5t-209 -113.5q-81 0 -125 43t-44 113q0 22 2 33l25 181h159l-27 -193q-1 -6 -1 -18q0 -38 28 -38q40 0 68 87.5t40 208.5h-63q-91 0 -137.5 44t-46.5 118q0 54 24.5 99.5t71 72t109.5 26.5q103 -1 155.5 -66t57.5 -182h45zM319 512v15 q0 61 -14 86t-41 25q-25 0 -39 -19t-14 -49q0 -58 58 -58h50z" />
<glyph unicode="&#x3d2;" horiz-adv-x="568" d="M183 258l-135 437h184l57 -302l77 183q30 73 70.5 105t107.5 32q36 0 63 -10t52 -29l-59 -98q-21 12 -38 12q-16 0 -27 -9t-24 -32l-154 -288l-36 -259h-174z" />
<glyph unicode="&#x3d3;" horiz-adv-x="767" d="M381 258l-135 437h184l57 -302l77 183q30 73 70.5 105t107.5 32q36 0 63 -10t52 -29l-59 -98q-21 12 -38 12q-16 0 -27 -9t-24 -32l-154 -288l-36 -259h-174zM221 712l8 -257l-100 -11l-52 250z" />
<glyph unicode="&#x3d4;" horiz-adv-x="568" d="M183 258l-135 437h184l57 -302l77 183q30 73 70.5 105t107.5 32q36 0 63 -10t52 -29l-59 -98q-21 12 -38 12q-16 0 -27 -9t-24 -32l-154 -288l-36 -259h-174zM193 785q-20 20 -20 52q0 40 27 66.5t66 26.5q34 0 54 -19.5t20 -52.5q0 -40 -27 -66.5t-66 -26.5 q-34 0 -54 20zM409 785q-20 20 -20 52q0 40 27 66.5t66 26.5q34 0 54 -19.5t20 -52.5q0 -40 -27 -66.5t-66 -26.5q-34 0 -54 20z" />
<glyph unicode="&#x3d5;" horiz-adv-x="615" d="M533.5 101.5q-65.5 -84.5 -180.5 -96.5l-31 -211l-167 -18l33 231q-76 11 -124.5 61.5t-48.5 141.5q0 136 66 221t181 97l29 215l167 17l-32 -234q76 -11 124.5 -62t48.5 -142q0 -136 -65.5 -220.5zM421.5 180.5q22.5 62.5 22.5 146.5q0 47 -12.5 69t-37.5 26l-42 -312 q47 8 69.5 70.5zM193 353q-23 -61 -23 -146q0 -46 12 -69t37 -28l43 311q-46 -7 -69 -68z" />
<glyph unicode="&#x3d6;" horiz-adv-x="680" d="M687 414h-67q38 -76 38 -153q0 -74 -24.5 -138t-71 -102.5t-107.5 -38.5q-55 0 -89 29t-39 89q-22 -62 -57.5 -90t-88.5 -28q-69 0 -110.5 45.5t-41.5 134.5q0 70 24 131t69 121h-7q-23 0 -36.5 -2t-32.5 -8l-16 108q24 11 52 15.5t72 4.5h551zM493 414h-241 q-29 -64 -44.5 -127t-15.5 -117q0 -34 7 -49t22 -15q16 0 26.5 15.5t15.5 51.5l17 122l154 21l-19 -140q-3 -18 -3 -32q0 -38 26 -38q34 0 48.5 64.5t14.5 131.5q0 56 -8 112z" />
<glyph unicode="&#x3d7;" horiz-adv-x="491" d="M434 154q0 -19 6.5 -30.5t22.5 -20.5l-25 -150q-14 -89 -67.5 -132.5t-131.5 -43.5t-131 44l67 81q20 -11 31.5 -15t28.5 -4q28 0 41.5 15t18.5 49l13 83q-39 29 -39 79q0 79 109 277l-280 -403l-89 33l45 334q2 18 2 25q0 19 -6.5 30.5t-22.5 20.5l65 120q58 -14 94 -45 t36 -81q0 -44 -27.5 -111t-77.5 -160l278 398l86 -34l-45 -334q-2 -18 -2 -25z" />
<glyph unicode="&#x3d8;" horiz-adv-x="624" d="M588 241q-28 -95 -89 -163.5t-154 -88.5l-28 -201h-160l30 206q-76 22 -116 88.5t-40 171.5q0 117 35 221.5t111.5 171t194.5 66.5q119 0 181.5 -70t62.5 -203q0 -104 -28 -199zM376 168.5q34 58.5 48 140t14 156.5q0 63 -19 91t-58 28q-55 0 -89.5 -59t-49 -141 t-14.5 -155q0 -63 19.5 -91t58.5 -28q56 0 90 58.5z" />
<glyph unicode="&#x3d9;" horiz-adv-x="528" d="M456 114q-52 -96 -157 -123l-29 -196l-148 -18l30 215q-64 19 -98.5 72t-34.5 137q0 90 29.5 170t93 130t159.5 50q98 0 153 -57t55 -163q-1 -121 -53 -217zM315 184.5q24 78.5 24 165.5q0 41 -12 58.5t-38 17.5q-53 0 -77 -78t-24 -165q0 -41 12.5 -59t37.5 -18 q53 0 77 78.5z" />
<glyph unicode="&#x3da;" horiz-adv-x="518" d="M216 -123q37 23 55 40.5t18 40.5q0 17 -12.5 28.5t-52.5 35.5l-28 18q-48 30 -82 63t-55.5 86t-21.5 130q0 110 48 195t135.5 132.5t201.5 47.5h155l-39 -139h-102q-108 0 -160 -65t-52 -163q0 -71 23 -110.5t80 -74.5q50 -31 76.5 -51t42.5 -45t16 -59q0 -67 -48 -117.5 t-151 -94.5z" />
<glyph unicode="&#x3db;" horiz-adv-x="437" d="M122 -123q38 21 58 40.5t20 45.5q0 21 -13 35.5t-47 34.5q-57 33 -88 75.5t-31 119.5q0 180 173 250l58 20q36 11 53.5 19.5t29 24.5t15.5 46l134 -15q-10 -65 -27 -98t-42 -48t-78 -34l-28 -10q-58 -21 -85 -53t-27 -91q0 -44 17.5 -68t62.5 -51q47 -27 70 -55t23 -74 q0 -69 -50.5 -121t-150.5 -95z" />
<glyph unicode="&#x3dc;" horiz-adv-x="460" d="M261 556l-22 -158h90q38 0 65 -7.5t48 -23.5l-54 -110q-18 7 -35 10.5t-43 3.5h-89l-38 -271h-174l97 694h412l-37 -138h-220z" />
<glyph unicode="&#x3dd;" horiz-adv-x="412" d="M214 343l-12 -88h50q40 0 66.5 -7.5t47.5 -22.5l-53 -109q-19 8 -37.5 12t-44.5 4h-46l-47 -335l-167 -21l80 576q25 180 213 180h189l-36 -128h-139q-54 0 -64 -61z" />
<glyph unicode="&#x3de;" horiz-adv-x="458" d="M424 417l26 -137l-201 -280h-192l212 280h-212l-25 137l202 277h192l-210 -277h208z" />
<glyph unicode="&#x3df;" horiz-adv-x="457" d="M367 722q-6 -45 -27.5 -92.5t-67.5 -115.5l-66 -96l226 68l39 -110l-103 -187q-39 -72 -59 -115t-34 -90l-143 38q9 46 27.5 89.5t53.5 94.5l77 113l-236 -70l-40 108l118 198q38 63 56.5 106.5t35.5 98.5z" />
<glyph unicode="&#x3e0;" horiz-adv-x="548" d="M526 0h-144l-34 219l-81 -219h-107l162 384l-16 104l-212 -488h-148l309 636l-17 58h150z" />
<glyph unicode="&#x3e1;" horiz-adv-x="605" d="M470.5 553.5q96.5 -123.5 96.5 -322.5q0 -105 -25.5 -225.5t-65.5 -227.5l-129 22q36 104 58.5 217.5t22.5 205.5v20l-122 -243h-147l239 402q-10 27 -24 51l-276 -453h-150l339 552q-62 53 -168 107l58 99q197 -81 293.5 -204.5z" />
<glyph unicode="&#x3f0;" horiz-adv-x="491" d="M434 154q0 -19 6.5 -30.5t22.5 -20.5l-65 -121q-58 14 -93.5 45.5t-35.5 81.5q0 45 28.5 114t80.5 163l-280 -403l-89 33l45 334q2 18 2 25q0 19 -6.5 30.5t-22.5 20.5l65 120q58 -14 94 -45t36 -81q0 -44 -27.5 -111t-77.5 -160l278 398l86 -34l-45 -334q-2 -18 -2 -25z " />
<glyph unicode="&#x3f1;" horiz-adv-x="528" d="M162 -1q-1 -4 -1 -11q0 -23 21 -36t80 -24q64 -12 93.5 -39.5t33.5 -81.5l-145 -30q-3 16 -11.5 23.5t-26 13t-60.5 13.5q-73 14 -110.5 51.5t-37.5 107.5q0 20 3 44l36 263q18 126 82.5 192t177.5 66q99 0 153.5 -54t55.5 -156q0 -81 -28.5 -155t-80.5 -120t-120 -46 q-67 0 -105 47zM234 392.5q-20 -35.5 -31 -117.5l-15 -101q19 -30 52 -30q48 0 72 64.5t24 143.5q0 42 -12 59t-36 17q-34 0 -54 -35.5z" />
<glyph unicode="&#x3f2;" horiz-adv-x="458" d="M415 534q43 -17 79 -52l-82 -94q-23 18 -43 25.5t-46 7.5q-67 0 -98 -62.5t-31 -146.5q0 -53 20 -75.5t57 -22.5q28 0 49.5 7.5t51.5 24.5l59 -102q-43 -31 -87.5 -46.5t-100.5 -15.5q-105 0 -164 60t-59 169q0 95 36 172.5t102.5 122.5t154.5 45q59 0 102 -17z" />
<glyph unicode="&#x3f3;" horiz-adv-x="253" d="M-105 -102q56 23 83 56.5t36 101.5l66 476h168l-66 -469q-13 -88 -47.5 -143.5t-83 -86.5t-117.5 -56zM117 649.5q-23 22.5 -23 59.5q0 46 31 76.5t76 30.5q40 0 63 -22.5t23 -59.5q0 -46 -31 -76.5t-76 -30.5q-40 0 -63 22.5z" />
<glyph unicode="&#x3f4;" horiz-adv-x="624" d="M553.5 643q62.5 -70 62.5 -203q0 -115 -35 -219.5t-112 -171.5t-194 -67q-119 0 -181.5 69.5t-62.5 202.5q0 115 35 219.5t112 172t194 67.5q119 0 181.5 -70zM266 529q-37 -58 -52 -140t-15 -160q0 -64 21 -93t63 -29q61 0 98 57.5t52 139t15 160.5q0 65 -21 94t-64 29 q-60 0 -97 -58zM412 401l-15 -98h-161l15 98h161z" />
<glyph unicode="&#x3f5;" horiz-adv-x="435" d="M297.5 117q20.5 8 46.5 25l60 -98q-78 -62 -175 -62q-99 0 -154.5 59.5t-55.5 164.5q0 88 32 167t96 128.5t155 49.5q98 0 164 -69l-81 -89q-37 33 -80 33q-79 0 -108 -108h159l-15 -95h-158v-21q0 -53 17.5 -73t53.5 -20q23 0 43.5 8z" />
<glyph unicode="&#x3f6;" horiz-adv-x="432" d="M359.5 492q52.5 -59 52.5 -165q0 -99 -33 -177t-96.5 -123t-151.5 -45q-96 0 -164 63l82 92q21 -17 40 -24.5t42 -7.5q37 0 65.5 27.5t40.5 90.5h-162l14 95h160q1 13 1 30q0 42 -15.5 61t-46.5 19q-24 0 -46 -8t-48 -26l-59 94q82 63 178 63q94 0 146.5 -59z" />
<glyph unicode="&#x3f7;" horiz-adv-x="541" d="M481 537q63 -50 63 -149q0 -74 -31 -136.5t-97 -101t-164 -38.5h-53l-16 -112h-174l97 694h174l-15 -107h34q119 0 182 -50zM339.5 280.5q26.5 42.5 26.5 103.5q0 41 -19.5 59.5t-61.5 18.5h-37l-32 -224h35q62 0 88.5 42.5z" />
<glyph unicode="&#x3f8;" horiz-adv-x="532" d="M478 501.5q37 -49.5 37 -142.5q0 -100 -27 -185.5t-86.5 -138.5t-151.5 -53q-43 0 -79 12l-28 -200l-169 -18l136 967l169 17l-38 -270q24 28 59 44.5t71 16.5q70 0 107 -49.5zM297.5 144q24.5 40 36 98t11.5 111q0 41 -11.5 57.5t-32.5 16.5q-37 0 -76 -53l-37 -260 q27 -10 48 -10q37 0 61.5 40z" />
<glyph unicode="&#x3f9;" horiz-adv-x="541" d="M499.5 692q48.5 -21 83.5 -62l-91 -90q-23 22 -48 32.5t-61 10.5q-62 0 -100.5 -52t-55 -127t-16.5 -151q0 -71 25.5 -103.5t77.5 -32.5q37 0 66 13.5t67 41.5l64 -100q-96 -90 -229 -90q-118 0 -184.5 70.5t-66.5 205.5q0 118 37.5 221.5t116.5 168.5t198 65 q68 0 116.5 -21z" />
<glyph unicode="&#x3fa;" horiz-adv-x="712" d="M651 0h-170l29 264q16 137 44 298l-143 -490h-167l-19 489q-9 -169 -29 -300l-41 -261h-169l141 694h209l11 -478l133 478h223z" />
<glyph unicode="&#x3fb;" horiz-adv-x="609" d="M553 0h-154l18 180q11 103 34 217l-110 -344h-134l-17 343q-8 -128 -23 -218l-72 -389l-156 -12l158 755h188l10 -336l96 336h195z" />
<glyph unicode="&#x3fc;" horiz-adv-x="529" d="M168 29l-11 -77h114l-14 -96h-113l-9 -63l-169 -17l11 80h-47l15 96h45l47 341q18 126 82.5 192t177.5 66q99 0 154 -54t55 -158q0 -92 -27.5 -174t-81.5 -132.5t-130 -50.5q-65 0 -99 47zM234 392.5q-20 -35.5 -31 -117.5l-19 -136q19 -34 53 -34t56 39.5t32.5 96.5 t10.5 109q0 44 -12 61t-37 17q-33 0 -53 -35.5z" />
<glyph unicode="&#x3fd;" horiz-adv-x="546" d="M68.5 7q-51.5 24 -90.5 65l89 93q29 -25 56 -37t66 -12q57 0 95.5 46.5t56 118t17.5 148.5q0 79 -25.5 115.5t-80.5 36.5q-34 0 -61.5 -11.5t-62.5 -34.5l-70 98q100 80 217 80q123 0 191.5 -74t68.5 -222q0 -123 -39 -221.5t-116 -155.5t-186 -57q-74 0 -125.5 24z" />
<glyph unicode="&#x3fe;" horiz-adv-x="541" d="M499.5 692q48.5 -21 83.5 -62l-91 -90q-23 22 -48 32.5t-61 10.5q-62 0 -100.5 -52t-55 -127t-16.5 -151q0 -71 25.5 -103.5t77.5 -32.5q37 0 66 13.5t67 41.5l64 -100q-96 -90 -229 -90q-118 0 -184.5 70.5t-66.5 205.5q0 118 37.5 221.5t116.5 168.5t198 65 q68 0 116.5 -21zM293 285q-21 21 -21 55q0 43 28.5 71t69.5 28q37 0 58.5 -21t21.5 -55q0 -42 -28.5 -70.5t-70.5 -28.5q-37 0 -58 21z" />
<glyph unicode="&#x3ff;" horiz-adv-x="546" d="M68.5 7q-51.5 24 -90.5 65l89 93q29 -25 56 -37t66 -12q57 0 95.5 46.5t56 118t17.5 148.5q0 79 -25.5 115.5t-80.5 36.5q-34 0 -61.5 -11.5t-62.5 -34.5l-70 98q100 80 217 80q123 0 191.5 -74t68.5 -222q0 -123 -39 -221.5t-116 -155.5t-186 -57q-74 0 -125.5 24z M137 285q-21 21 -21 55q0 43 28.5 71t69.5 28q37 0 58.5 -21t21.5 -55q0 -42 -28.5 -70.5t-70.5 -28.5q-37 0 -58 21z" />
<glyph unicode="&#x400;" horiz-adv-x="464" d="M504 694l-37 -125h-204l-22 -155h180l-17 -123h-180l-23 -165h221l-18 -126h-395l97 694h398zM276 951l188 -127l-47 -78l-211 84z" />
<glyph unicode="&#x401;" horiz-adv-x="464" d="M504 694l-37 -125h-204l-22 -155h180l-17 -123h-180l-23 -165h221l-18 -126h-395l97 694h398zM153 785q-20 20 -20 52q0 40 27 66.5t66 26.5q34 0 54 -19.5t20 -52.5q0 -40 -27 -66.5t-66 -26.5q-34 0 -54 20zM369 785q-20 20 -20 52q0 40 27 66.5t66 26.5q34 0 54 -19.5 t20 -52.5q0 -40 -27 -66.5t-66 -26.5q-34 0 -54 20z" />
<glyph unicode="&#x402;" horiz-adv-x="679" d="M614.5 424q43.5 -49 43.5 -136q0 -15 -4 -51l-19 -142q-11 -83 -48.5 -136t-87 -82t-118.5 -53l-29 126q58 24 80 58t30 96l18 139q3 20 3 35q0 67 -60 67q-47 0 -86 -39l-43 -306h-173l78 563h-153l18 131h485l-35 -131h-141l-20 -139q58 49 136 49q82 0 125.5 -49z" />
<glyph unicode="&#x403;" horiz-adv-x="455" d="M518 694l-37 -138h-220l-78 -556h-174l97 694h412zM430 954l54 -123l-233 -86l-37 81z" />
<glyph unicode="&#x404;" horiz-adv-x="520" d="M362 127.5q28 13.5 65 40.5l64 -96q-43 -40 -98 -65t-121 -25q-111 0 -176 70.5t-65 205.5q0 117 37 221t114 169t191 65q118 0 190 -83l-91 -87q-23 21 -46.5 32t-52.5 11q-58 0 -95 -47t-56 -123h200l-18 -122h-200q-1 -14 -1 -41q0 -73 24.5 -106t74.5 -33 q32 0 60 13.5z" />
<glyph unicode="&#x405;" horiz-adv-x="519" d="M539 620l-88 -90q-28 28 -58 41t-66 13q-41 0 -64 -19.5t-23 -50.5q0 -28 21 -46t83 -44q77 -32 114 -76.5t37 -117.5q0 -67 -32.5 -123.5t-96.5 -90.5t-153 -34q-149 0 -238 102l96 94q32 -32 66 -48.5t78 -16.5q47 0 73.5 23.5t26.5 63.5q0 33 -22 54.5t-80 46.5 q-81 33 -116.5 76t-35.5 110q0 63 31 114.5t90 81.5t139 30q136 0 218 -93z" />
<glyph unicode="&#x406;" horiz-adv-x="267" d="M280 694l-97 -694h-174l97 694h174z" />
<glyph unicode="&#x407;" horiz-adv-x="267" d="M280 694l-97 -694h-174l97 694h174zM40 785q-20 20 -20 52q0 40 27 66.5t66 26.5q34 0 54 -19.5t20 -52.5q0 -40 -27 -66.5t-66 -26.5q-34 0 -54 20zM256 785q-20 20 -20 52q0 40 27 66.5t66 26.5q34 0 54 -19.5t20 -52.5q0 -40 -27 -66.5t-66 -26.5q-34 0 -54 20z" />
<glyph unicode="&#x408;" horiz-adv-x="291" d="M224 103q-12 -86 -49 -141t-87 -85t-119 -53l-31 124q58 25 80.5 61t32.5 105l82 580h173z" />
<glyph unicode="&#x409;" horiz-adv-x="830" d="M759 411.5q61 -49.5 61 -144.5q0 -69 -29 -129.5t-93 -99t-161 -38.5h-226l79 562h-86l-50 -223q-32 -143 -61 -212t-72.5 -101t-124.5 -45l-23 132q32 11 47.5 27t31 59.5t38.5 142.5l78 352h414l-33 -233h41q108 0 169 -49.5zM612.5 165.5q24.5 38.5 24.5 93.5 q0 40 -18 60t-56 20h-31l-30 -212h31q55 0 79.5 38.5z" />
<glyph unicode="&#x40a;" horiz-adv-x="848" d="M776 399q61 -49 61 -140q0 -65 -29 -124t-92.5 -97t-160.5 -38h-228l46 323h-145l-45 -323h-174l97 694h174l-35 -246h145l35 246h173l-34 -246h43q108 0 169 -49zM630.5 164.5q24.5 37.5 24.5 86.5q0 76 -74 76h-33l-28 -200h31q55 0 79.5 37.5z" />
<glyph unicode="&#x40b;" horiz-adv-x="679" d="M614.5 424q43.5 -49 43.5 -135q0 -28 -4 -52l-33 -237h-173l33 243q3 18 3 34q0 35 -15 51.5t-46 16.5q-46 0 -86 -38l-42 -307h-174l78 563h-153l18 131h485l-35 -131h-141l-19 -139q30 25 62.5 37t73.5 12q81 0 124.5 -49z" />
<glyph unicode="&#x40c;" horiz-adv-x="578" d="M617 591q-36 -6 -58.5 -23t-48.5 -59l-87 -144l122 -365h-178l-92 300h-50l-42 -300h-174l97 694h174l-38 -272h47l96 163q28 47 53.5 71.5t58 36t89.5 19.5zM467 954l54 -123l-233 -86l-37 81z" />
<glyph unicode="&#x40d;" horiz-adv-x="586" d="M502 0h-167l32 225q13 90 28.5 158t42.5 160l-223 -543h-206l97 694h166l-31 -224q-13 -92 -29.5 -163t-41.5 -151l227 538h202zM315 951l188 -127l-47 -78l-211 84z" />
<glyph unicode="&#x40e;" d="M378 210q-39 -84 -82.5 -131t-98 -68.5t-134.5 -28.5l-7 118q60 7 92.5 24.5t57.5 59.5h-50l-113 510h171l57 -413l156 413h178zM219.5 795.5q-35.5 39.5 -35.5 104.5l1 19l88 13q2 -31 17.5 -44.5t45.5 -13.5q61 0 82 60l88 -18q-16 -73 -62 -116.5t-120 -43.5 q-69 0 -104.5 39.5z" />
<glyph unicode="&#x40f;" horiz-adv-x="585" d="M598 694l-97 -694h-179l-23 -168h-116l5 168h-180l98 694h174l-79 -557h145l78 557h174z" />
<glyph unicode="&#x410;" horiz-adv-x="538" d="M335 0l-7 145h-156l-45 -145h-181l278 694h209l83 -694h-181zM212 271h110l-14 307z" />
<glyph unicode="&#x411;" horiz-adv-x="540" d="M466.5 402q60.5 -48 60.5 -140q0 -65 -28.5 -125t-92 -98.5t-161.5 -38.5h-236l97 694h407l-37 -133h-214l-16 -111h51q109 0 169.5 -48zM319 163q25 36 25 91q0 37 -17.5 55.5t-55.5 18.5h-42l-28 -201h40q53 0 78 36z" />
<glyph unicode="&#x412;" horiz-adv-x="554" d="M496.5 321.5q34.5 -32.5 34.5 -95.5q0 -106 -78 -166t-231 -60h-213l97 694h194q118 0 184 -39t66 -118q0 -69 -41.5 -111t-105.5 -59q59 -13 93.5 -45.5zM349.5 445.5q22.5 26.5 22.5 71.5q0 28 -17.5 41t-53.5 13h-39l-21 -152h36q50 0 72.5 26.5zM354 237 q0 35 -20.5 51t-60.5 16h-48l-25 -177h39q115 0 115 110z" />
<glyph unicode="&#x413;" horiz-adv-x="455" d="M518 694l-37 -138h-220l-78 -556h-174l97 694h412z" />
<glyph unicode="&#x414;" horiz-adv-x="581" d="M497 134h55l-42 -302h-116l5 168h-292l-54 -168h-116l44 302h39q25 20 40.5 50.5t27.5 72t34 135.5l10 41l59 261h384zM390 566h-68l-28 -131q-30 -132 -60 -197.5t-77 -103.5h173z" />
<glyph unicode="&#x415;" horiz-adv-x="464" d="M504 694l-37 -125h-204l-22 -155h180l-17 -123h-180l-23 -165h221l-18 -126h-395l97 694h398z" />
<glyph unicode="&#x416;" horiz-adv-x="838" d="M884 592q-36 -7 -58.5 -23.5t-47.5 -58.5l-89 -145l118 -365h-177l-84 299h-38l-41 -299h-160l43 299h-36l-165 -299h-190l228 383l-45 125q-13 38 -35.5 56.5t-66.5 28.5l44 120q83 -11 128.5 -42.5t66.5 -91.5l58 -157h33l37 272h157l-37 -272h29l97 165q27 46 52.5 70 t58.5 36t89 20z" />
<glyph unicode="&#x417;" horiz-adv-x="487" d="M439.5 667.5q53.5 -44.5 53.5 -118.5q0 -72 -45 -118t-131 -64q73 -8 110.5 -43t37.5 -96q0 -72 -37.5 -128t-102.5 -87t-145 -31q-74 0 -124 25t-87 74l102 87q27 -30 51.5 -43.5t57.5 -13.5q50 0 77.5 32t27.5 85q0 75 -86 75h-69l39 125h46q47 0 72 27.5t25 72.5 q0 58 -56 58q-29 0 -59 -13.5t-65 -40.5l-70 88q103 92 232 92q92 0 145.5 -44.5z" />
<glyph unicode="&#x418;" horiz-adv-x="586" d="M502 0h-167l32 225q13 90 28.5 158t42.5 160l-223 -543h-206l97 694h166l-31 -224q-13 -92 -29.5 -163t-41.5 -151l227 538h202z" />
<glyph unicode="&#x419;" horiz-adv-x="586" d="M502 0h-167l32 225q13 90 28.5 158t42.5 160l-223 -543h-206l97 694h166l-31 -224q-13 -92 -29.5 -163t-41.5 -151l227 538h202zM242.5 795.5q-35.5 39.5 -35.5 104.5l1 19l88 13q2 -31 17.5 -44.5t45.5 -13.5q61 0 82 60l88 -18q-16 -73 -62 -116.5t-120 -43.5 q-69 0 -104.5 39.5z" />
<glyph unicode="&#x41a;" horiz-adv-x="578" d="M617 591q-36 -6 -58.5 -23t-48.5 -59l-87 -144l122 -365h-178l-92 300h-50l-42 -300h-174l97 694h174l-38 -272h47l96 163q28 47 53.5 71.5t58 36t89.5 19.5z" />
<glyph unicode="&#x41b;" horiz-adv-x="576" d="M492 0h-174l78 562h-92l-50 -223q-32 -143 -61 -212t-72.5 -101t-124.5 -45l-23 132q32 11 47.5 27t31 59.5t38.5 142.5l79 352h420z" />
<glyph unicode="&#x41c;" horiz-adv-x="712" d="M651 0h-170l29 264q16 137 44 298l-143 -490h-167l-19 489q-9 -169 -29 -300l-41 -261h-169l141 694h209l11 -478l133 478h223z" />
<glyph unicode="&#x41d;" horiz-adv-x="589" d="M182 0h-174l98 694h174l-37 -265h148l38 265h173l-97 -694h-173l40 292h-148z" />
<glyph unicode="&#x41e;" horiz-adv-x="624" d="M553.5 643q62.5 -70 62.5 -203q0 -117 -35 -221t-112 -170.5t-195 -66.5t-180.5 70t-62.5 202q0 117 35 221.5t111.5 171t194.5 66.5q119 0 181.5 -70zM271.5 525q-34.5 -59 -49 -141t-14.5 -155q0 -63 19.5 -91t58.5 -28q56 0 90 58.5t48 140t14 156.5q0 63 -19 91 t-58 28q-55 0 -89.5 -59z" />
<glyph unicode="&#x41f;" horiz-adv-x="590" d="M603 694l-97 -694h-174l77 560h-147l-79 -560h-174l97 694h497z" />
<glyph unicode="&#x420;" horiz-adv-x="540" d="M494.5 644.5q63.5 -49.5 63.5 -144.5q0 -75 -32 -137t-98 -99t-162 -37h-52l-31 -227h-174l97 694h206q119 0 182.5 -49.5zM354 394q26 41 26 100q0 39 -19.5 57.5t-61.5 18.5h-37l-30 -217h34q62 0 88 41z" />
<glyph unicode="&#x421;" horiz-adv-x="521" d="M563 630l-91 -90q-23 21 -46.5 32t-52.5 11q-57 0 -93.5 -52t-52.5 -127.5t-16 -150.5q0 -136 93 -136q31 0 58 13.5t65 41.5l64 -100q-43 -40 -98 -65t-121 -25q-111 0 -176 70.5t-65 205.5q0 117 37 221t114 169t191 65q118 0 190 -83z" />
<glyph unicode="&#x422;" horiz-adv-x="488" d="M551 694l-37 -134h-142l-78 -560h-174l78 560h-153l19 134h487z" />
<glyph unicode="&#x423;" d="M378 210q-39 -84 -82.5 -131t-98 -68.5t-134.5 -28.5l-7 118q60 7 92.5 24.5t57.5 59.5h-50l-113 510h171l57 -413l156 413h178z" />
<glyph unicode="&#x424;" horiz-adv-x="780" d="M746 237q-33 -81 -108 -135t-195 -60l-13 -83h-169l13 83q-118 9 -184.5 69t-66.5 175q0 93 33 174t108 135t195 60l11 78h168l-11 -79q119 -9 185.5 -69.5t66.5 -174.5q0 -92 -33 -173zM570 237q33 77 33 176q0 63 -24 96t-75 39l-55 -399q88 11 121 88zM222 188 q24 -33 75 -39l55 399q-87 -11 -120.5 -88.5t-33.5 -177.5q0 -61 24 -94z" />
<glyph unicode="&#x425;" horiz-adv-x="530" d="M584 694l-204 -320l120 -374h-184l-54 264l-120 -264h-188l218 369l-109 325h184l41 -226l109 226h187z" />
<glyph unicode="&#x426;" horiz-adv-x="614" d="M598 694l-78 -560h70l-42 -302h-116l5 168h-429l98 694h174l-79 -557h145l78 557h174z" />
<glyph unicode="&#x427;" horiz-adv-x="557" d="M570 694l-97 -694h-173l35 249q-32 -25 -64.5 -36.5t-71.5 -11.5q-79 0 -122 48.5t-43 130.5q0 16 4 50l37 264h170l-37 -268q-2 -20 -2 -29q0 -34 14 -50.5t46 -16.5q51 0 85 36l46 328h173z" />
<glyph unicode="&#x428;" horiz-adv-x="805" d="M818 694l-97 -694h-712l97 694h171l-79 -557h106l78 557h161l-77 -557h104l78 557h170z" />
<glyph unicode="&#x429;" horiz-adv-x="835" d="M818 694l-78 -560h71l-42 -302h-116l5 168h-649l97 694h171l-79 -557h106l78 557h161l-77 -557h104l78 557h170z" />
<glyph unicode="&#x42a;" horiz-adv-x="650" d="M579 411.5q61 -49.5 61 -144.5q0 -69 -29 -129.5t-93 -99t-161 -38.5h-236l79 563h-154l19 131h327l-32 -233h50q108 0 169 -49.5zM432.5 165.5q24.5 38.5 24.5 93.5q0 40 -18 60t-56 20h-40l-30 -212h40q55 0 79.5 38.5z" />
<glyph unicode="&#x42b;" horiz-adv-x="777" d="M457.5 411.5q60.5 -49.5 60.5 -144.5q0 -69 -29 -129.5t-92.5 -99t-160.5 -38.5h-227l97 694h174l-32 -233h40q109 0 169.5 -49.5zM616 694h174l-97 -694h-174zM311.5 165.5q24.5 38.5 24.5 93.5q0 40 -18 60t-56 20h-31l-30 -212h31q55 0 79.5 38.5z" />
<glyph unicode="&#x42c;" horiz-adv-x="538" d="M467 411.5q61 -49.5 61 -144.5q0 -69 -29 -129.5t-93 -99t-161 -38.5h-236l97 694h174l-32 -233h50q108 0 169 -49.5zM320.5 165.5q24.5 38.5 24.5 93.5q0 40 -18 60t-56 20h-40l-30 -212h40q55 0 79.5 38.5z" />
<glyph unicode="&#x42d;" horiz-adv-x="490" d="M428 646q56 -67 56 -195q0 -115 -32.5 -222t-106 -177t-188.5 -70q-117 0 -183 84l90 90q23 -22 44.5 -32.5t50.5 -10.5q105 0 140 181h-201l17 122h196q1 15 1 45q0 66 -18.5 95t-58.5 29q-30 0 -54.5 -11t-57.5 -35l-66 95q49 40 97.5 59.5t111.5 19.5q106 0 162 -67z " />
<glyph unicode="&#x42e;" horiz-adv-x="843" d="M775.5 643q59.5 -70 59.5 -204q0 -114 -34 -218.5t-107.5 -171.5t-184.5 -67q-110 0 -167.5 69t-57.5 200q0 27 1 40h-61l-41 -291h-174l97 694h174l-37 -266h61q30 127 105 206t196 79q111 0 170.5 -70zM604.5 169q31.5 59 44.5 141.5t13 159.5q0 60 -17 87t-52 27 q-50 0 -82 -59.5t-45.5 -143t-13.5 -158.5q0 -113 69 -113q52 0 83.5 59z" />
<glyph unicode="&#x42f;" horiz-adv-x="548" d="M561 694l-97 -694h-174l34 246h-53l-129 -246h-183l168 284q-80 49 -80 153q0 66 28 124t93.5 95.5t173.5 37.5h219zM370 571h-37q-55 0 -80.5 -38t-25.5 -91q0 -74 67 -74h48z" />
<glyph unicode="&#x430;" d="M514 496l-48 -337q-2 -20 -2 -27q0 -14 5 -22.5t17 -14.5l-50 -110q-45 4 -77.5 24t-44.5 57q-29 -41 -63.5 -62.5t-80.5 -21.5q-74 0 -114 53.5t-40 146.5t30 177t96.5 138t169.5 54q105 0 202 -55zM215 354.5q-29 -76.5 -29 -174.5q0 -41 11 -57.5t31 -16.5q35 0 74 62 l37 257q-20 6 -38 6q-57 0 -86 -76.5z" />
<glyph unicode="&#x431;" d="M459 447q42 -51 42 -142q0 -84 -29.5 -157.5t-90 -119.5t-149.5 -46q-95 0 -150 61.5t-55 179.5q0 393 260 465q63 17 95.5 30.5t71.5 37.5l50 -101q-37 -26 -74 -43t-92 -32q-58 -16 -89.5 -51.5t-47.5 -114.5q62 84 152 84q64 0 106 -51zM308.5 170q20.5 64 21.5 143 q0 64 -42 64q-23 0 -47.5 -19t-46.5 -56q-6 -73 -6 -115q0 -81 52 -81q48 0 68.5 64z" />
<glyph unicode="&#x432;" horiz-adv-x="514" d="M445 515q50 -35 50 -94q0 -46 -26 -80t-84 -58q100 -27 100 -114q0 -61 -33.5 -103t-87.5 -63t-114 -21q-108 0 -170 58.5t-62 168.5q0 88 36.5 166t105 126.5t160.5 48.5q75 0 125 -35zM238 406q-28 -35 -42 -93q143 17 143 91q0 37 -36 37q-37 0 -65 -35zM183 232 l-1 -22q0 -113 73 -113q30 0 47.5 20t17.5 60q0 46 -41 74q-50 -14 -96 -19z" />
<glyph unicode="&#x433;" horiz-adv-x="433" d="M380.5 511q48.5 -40 48.5 -104q0 -61 -37.5 -106t-123.5 -77q-61 -22 -80 -39.5t-19 -42.5q0 -19 11.5 -29.5t34.5 -10.5q29 0 62.5 14.5t64.5 37.5l67 -92q-42 -37 -101.5 -58.5t-120.5 -21.5q-88 0 -140.5 41.5t-52.5 112.5q0 64 38 109.5t137 80.5q59 20 77 35.5 t18 36.5q0 15 -10.5 23.5t-30.5 8.5q-25 0 -54.5 -10.5t-54.5 -28.5l-50 93q38 32 87.5 49.5t100.5 17.5q80 0 128.5 -40z" />
<glyph unicode="&#x434;" horiz-adv-x="526" d="M120.5 8q-48.5 26 -76 74.5t-27.5 114.5q0 78 26 147.5t77 112.5t122 43q66 0 108 -51v8q0 73 -18.5 110.5t-64 55t-135.5 24.5l36 112q136 -7 210.5 -45t104 -106.5t29.5 -178.5q0 -211 -68.5 -329t-213.5 -118q-61 0 -109.5 26zM340 342q-28 40 -63 40q-47 0 -68 -58 t-21 -132q0 -87 52 -87q87 0 100 237z" />
<glyph unicode="&#x435;" horiz-adv-x="495" d="M445.5 510q49.5 -41 49.5 -105q0 -180 -311 -213v-1q0 -45 19 -65t55 -20q29 0 56.5 11t63.5 36l58 -98q-93 -73 -206 -73q-102 0 -157 56t-55 159q0 91 31 172t96.5 131.5t164.5 50.5q86 0 135.5 -41zM298 329.5q32 30.5 32 70.5q0 39 -38 39t-62.5 -41.5t-36.5 -104.5 q73 6 105 36.5z" />
<glyph unicode="&#x436;" horiz-adv-x="712" d="M722 442q-36 -12 -55 -29.5t-37 -52.5l-39 -83l65 -277h-156l-43 225h-34l-31 -225h-143l31 225h-32l-105 -225h-168l153 287l-25 94q-7 25 -21 38.5t-45 23.5l43 108q73 -20 106 -46t47 -82l25 -99h36l29 208h143l-29 -208h34l55 111q26 52 57.5 76.5t96.5 39.5z" />
<glyph unicode="&#x437;" horiz-adv-x="447" d="M377.5 514.5q48.5 -36.5 48.5 -96.5q0 -52 -35 -88t-103 -48q61 -6 91.5 -36.5t30.5 -80.5q0 -47 -25.5 -89t-79 -68t-135.5 -26q-117 0 -191 66l81 94q29 -22 53 -31t51 -9q37 0 56 19t19 51q0 24 -15 35.5t-46 11.5h-72l27 107h48q36 0 55.5 18t19.5 47q0 43 -46 43 q-26 0 -48 -8t-51 -25l-62 88q90 62 201 62q79 0 127.5 -36.5z" />
<glyph unicode="&#x438;" horiz-adv-x="506" d="M49 15.5q-30 33.5 -30 92.5q0 17 3 36l54 388h167l-50 -361q-1 -7 -1 -17q0 -30 22 -30q31 0 71 67l48 341h167l-75 -532h-145l3 73q-31 -43 -67 -67t-82 -24q-55 0 -85 33.5z" />
<glyph unicode="&#x439;" horiz-adv-x="506" d="M49 15.5q-30 33.5 -30 92.5q0 17 3 36l54 388h167l-50 -361q-1 -7 -1 -17q0 -30 22 -30q31 0 71 67l48 341h167l-75 -532h-145l3 73q-31 -43 -67 -67t-82 -24q-55 0 -85 33.5zM207.5 669.5q-35.5 39.5 -35.5 104.5l1 19l88 13q2 -31 17.5 -44.5t45.5 -13.5q61 0 82 60 l88 -18q-16 -73 -62 -116.5t-120 -43.5q-69 0 -104.5 39.5z" />
<glyph unicode="&#x43a;" horiz-adv-x="514" d="M512 428q-31 -10 -47 -26t-37 -54l-44 -77l81 -271h-168l-58 225h-35l-31 -225h-167l74 532h167l-28 -208h33l64 114q28 50 61 74t96 39z" />
<glyph unicode="&#x43b;" horiz-adv-x="508" d="M428 0h-167l57 409h-64l-21 -104q-26 -128 -44.5 -183.5t-59.5 -89.5t-124 -47l-23 126q30 11 43.5 25.5t24 51t28.5 124.5l43 220h381z" />
<glyph unicode="&#x43c;" horiz-adv-x="608" d="M551 0h-154l18 180q6 61 13.5 106t22.5 115l-112 -348h-134l-17 348q-5 -99 -23 -223l-29 -178h-154l114 532h188l9 -335l96 335h195z" />
<glyph unicode="&#x43d;" horiz-adv-x="519" d="M272 0l29 207h-99l-29 -207h-167l74 532h167l-27 -200h98l28 200h167l-74 -532h-167z" />
<glyph unicode="&#x43e;" horiz-adv-x="528" d="M73.5 38.5q-54.5 56.5 -54.5 162.5q0 90 29.5 170t93 130t159.5 50q98 0 153 -57t55 -163q-1 -90 -30.5 -169.5t-93 -129.5t-159.5 -50q-98 0 -152.5 56.5zM315 184.5q24 78.5 24 165.5q0 41 -12 58.5t-38 17.5q-53 0 -77 -78t-24 -165q0 -41 12.5 -59t37.5 -18 q53 0 77 78.5z" />
<glyph unicode="&#x43f;" horiz-adv-x="516" d="M269 0l56 408h-95l-57 -408h-167l74 532h430l-74 -532h-167z" />
<glyph unicode="&#x440;" horiz-adv-x="532" d="M80 532h149l-1 -53q63 72 144 72q70 0 107 -50t37 -142q0 -100 -27.5 -185.5t-86.5 -138.5t-150 -53q-45 0 -81 12l-28 -201l-168 -17zM298.5 144q24.5 40 36 98t11.5 111q0 41 -11.5 57.5t-32.5 16.5q-39 0 -76 -52l-37 -261q27 -10 47 -10q38 0 62.5 40z" />
<glyph unicode="&#x441;" horiz-adv-x="431" d="M466 482l-81 -94q-37 33 -78 33q-60 0 -87 -66.5t-27 -152.5q0 -49 16.5 -68.5t47.5 -19.5q21 0 40.5 8t46.5 25l60 -103q-78 -62 -174 -62q-99 0 -155 59.5t-56 164.5q0 88 32 167t96.5 128.5t155.5 49.5q99 0 163 -69z" />
</font>
</defs>
</svg>
