<?xml version="1.0" standalone="no"?>
<!DOCTYPE svg PUBLIC "-//W3C//DTD SVG 1.1//EN" "http://www.w3.org/Graphics/SVG/1.1/DTD/svg11.dtd" >
<svg xmlns="http://www.w3.org/2000/svg" xmlns:xlink="http://www.w3.org/1999/xlink" version="1.1">
<metadata></metadata>
<defs>
<font id="fira_sans_condensedBlkIt" horiz-adv-x="504" >
<font-face units-per-em="1000" ascent="800" descent="-200" />
<missing-glyph horiz-adv-x="181" />
<glyph unicode="&#xfb01;" horiz-adv-x="539" />
<glyph unicode="&#xfb02;" horiz-adv-x="574" />
<glyph horiz-adv-x="0" />
<glyph unicode="&#xd;" horiz-adv-x="181" />
<glyph unicode=" "  horiz-adv-x="181" />
<glyph unicode="&#x09;" horiz-adv-x="181" />
<glyph unicode="&#xa0;" horiz-adv-x="181" />
<glyph unicode="!" horiz-adv-x="229" d="M40 267l34 429h195l-85 -429h-144zM17.5 5.5q-23.5 25.5 -23.5 63.5q0 47 31.5 79.5t78.5 32.5q39 0 62.5 -25t23.5 -64q0 -47 -31.5 -79.5t-78.5 -32.5q-39 0 -62.5 25.5z" />
<glyph unicode="&#x22;" horiz-adv-x="442" d="M75 407l21 289h157l-60 -289h-118zM288 407l21 289h157l-60 -289h-118z" />
<glyph unicode="#" horiz-adv-x="523" d="M534 437h-57l-47 -182h46l-18 -120h-58l-35 -135h-148l35 135h-63l-35 -135h-147l34 135h-47l17 120h61l46 182h-48l16 120h63l31 122h149l-31 -122h62l31 122h148l-31 -122h43zM282 255l47 182h-62l-47 -182h62z" />
<glyph unicode="$" horiz-adv-x="499" d="M445 344q36 -44 36 -111q0 -88 -53.5 -152.5t-151.5 -83.5l-23 -161h-125l23 157q-60 8 -104.5 34t-74.5 64l101 97q60 -62 130 -62q40 0 62 21t22 54q0 26 -18.5 44.5t-66.5 39.5q-78 34 -113 76t-35 102q0 85 55 145.5t148 76.5l20 148h126l-22 -150q86 -17 145 -84 l-92 -94q-57 51 -113 51q-35 0 -54 -16t-19 -42q0 -23 18 -38.5t69 -38.5q74 -33 110 -77z" />
<glyph unicode="%" horiz-adv-x="793" d="M614 724l-509 -703l97 -65l511 703zM94 364.5q-41 39.5 -41 112.5q0 56 22.5 106t66.5 81t105 31q65 0 105.5 -39.5t40.5 -111.5q0 -56 -22.5 -106.5t-66 -81.5t-104.5 -31q-65 0 -106 39.5zM256 466q15 34 15 77q0 45 -35 45q-34 0 -47.5 -33.5t-13.5 -76.5 q0 -23 8.5 -34.5t27.5 -11.5q30 0 45 34zM461 20q-41 40 -41 112q0 56 22.5 106.5t67 81.5t105.5 31q64 0 105 -40t41 -111q0 -56 -22.5 -106.5t-66.5 -82t-105 -31.5q-65 0 -106 40zM623.5 121.5q14.5 34.5 14.5 76.5q0 46 -34 46q-33 0 -47 -33.5t-14 -76.5q0 -23 8 -35 t27 -12q31 0 45.5 34.5z" />
<glyph unicode="&#x26;" horiz-adv-x="715" d="M492 672.5q52 -42.5 52 -110.5q0 -59 -34.5 -107t-107.5 -99l82 -106q25 48 50 121l140 -41q-47 -99 -108 -176l94 -105l-165 -69l-52 67q-49 -35 -97.5 -51t-104.5 -16q-62 0 -109.5 22.5t-73.5 62t-26 89.5q0 70 36 120.5t112 98.5q-36 43 -50.5 76t-14.5 69 q0 54 26.5 98.5t78.5 71.5t127 27q93 0 145 -42.5zM302 574q-13 -23 -13 -52q0 -18 6 -33.5t20 -36.5q30 28 42.5 53.5t12.5 56.5q0 17 -8.5 26t-23.5 9q-23 0 -36 -23zM228 169q0 -28 15 -43t44 -15q43 0 80 25l-99 131q-40 -43 -40 -98z" />
<glyph unicode="'" horiz-adv-x="229" d="M75 407l21 289h157l-60 -289h-118z" />
<glyph unicode="(" horiz-adv-x="297" d="M372 783q-92 -119 -138 -271.5t-46 -310.5q0 -86 14.5 -156t46.5 -135l-131 -74q-37 72 -59.5 125.5t-37.5 120.5t-15 145q0 129 29 235.5t83 200.5t141 203z" />
<glyph unicode=")" horiz-adv-x="299" d="M262.5 737.5q22.5 -53.5 38 -120.5t15.5 -146q0 -127 -29.5 -234t-84.5 -201.5t-141 -201.5l-111 83q92 121 137.5 271.5t45.5 308.5q0 87 -15 157t-47 136l132 74q37 -73 59.5 -126.5z" />
<glyph unicode="*" horiz-adv-x="421" d="M454 522l-127 -19l80 -99l-140 -88l-34 121l-64 -122l-118 88l103 101l-116 18l63 143l101 -59l-7 138h161l-45 -139l112 61z" />
<glyph unicode="+" horiz-adv-x="493" d="M364 563l-22 -159h136l-20 -144h-138l-23 -159h-148l23 159h-138l20 144h140l21 159h149z" />
<glyph unicode="," horiz-adv-x="228" d="M162 158.5q23 -23.5 23 -62.5q0 -28 -10.5 -54t-42.5 -85l-79 -140h-95l67 183q-34 25 -34 68q0 47 31.5 80.5t77.5 33.5q39 0 62 -23.5z" />
<glyph unicode="-" horiz-adv-x="372" d="M29 241l20 144h306l-19 -144h-307z" />
<glyph unicode="." horiz-adv-x="231" d="M14.5 5.5q-23.5 25.5 -23.5 63.5q0 47 31.5 79.5t78.5 32.5q39 0 62.5 -25t23.5 -64q0 -47 -31.5 -79.5t-78.5 -32.5q-39 0 -62.5 25.5z" />
<glyph unicode="/" horiz-adv-x="463" d="M333 821l157 -38l-334 -899l-158 39z" />
<glyph unicode="0" horiz-adv-x="551" d="M158.5 627.5q-67.5 -67.5 -97.5 -171.5t-30 -219q0 -127 53.5 -192t155.5 -65q104 0 171.5 68t98 172.5t30.5 218.5q0 126 -53.5 191t-155.5 65q-105 0 -172.5 -67.5zM349.5 543q9.5 -15 9.5 -52q0 -74 -12.5 -162t-37 -149.5t-58.5 -61.5q-19 0 -28.5 15.5t-9.5 53.5 q0 72 12 159t36.5 149.5t59.5 62.5q19 0 28.5 -15z" />
<glyph unicode="1" horiz-adv-x="436" d="M433 680l-95 -680h-180l67 489l-132 -82l-63 129l236 144h167z" />
<glyph unicode="2" horiz-adv-x="472" d="M423.5 645q53.5 -50 53.5 -127q0 -55 -26.5 -109.5t-86.5 -119t-163 -147.5l237 1l-39 -143h-420l17 132q112 105 171 167t88.5 110t29.5 91q0 26 -13.5 39.5t-37.5 13.5q-26 0 -50.5 -15.5t-58.5 -49.5l-96 88q49 58 108 88.5t133 30.5q100 0 153.5 -50z" />
<glyph unicode="3" horiz-adv-x="476" d="M417.5 649.5q52.5 -45.5 52.5 -115.5q0 -64 -39.5 -110t-120.5 -66q63 -8 99 -41t36 -94q0 -62 -32.5 -118t-95.5 -90.5t-149 -34.5q-140 0 -215 110l110 91q25 -31 49 -45t55 -14q37 0 63 28t26 78q0 63 -75 63h-53l38 127h34q43 0 64.5 25t21.5 63q0 52 -55 52 q-59 0 -119 -57l-79 101q104 93 236 93q96 0 148.5 -45.5z" />
<glyph unicode="4" horiz-adv-x="527" d="M517 277l-20 -141h-60l-19 -136h-179l18 136h-260l17 125l225 439l152 -56l-179 -367h67l43 150h156l-21 -150h60z" />
<glyph unicode="5" horiz-adv-x="500" d="M465 547h-208l-17 -118q46 23 91 23q65 0 105 -46t40 -132q0 -77 -33.5 -144.5t-100 -108.5t-158.5 -41q-135 0 -207 110l111 90q22 -29 45 -44.5t55 -15.5q48 0 73.5 41t25.5 102q0 62 -50 62q-17 0 -33 -5.5t-37 -18.5h-121l54 379h403z" />
<glyph unicode="6" horiz-adv-x="529" d="M475 415q40 -47 40 -131q0 -78 -30.5 -147.5t-91.5 -113t-149 -43.5q-109 0 -163 62t-54 178q0 122 42 231.5t121 176.5t184 67q87 0 143 -47l-79 -106q-36 22 -69 22q-42 0 -75 -37t-52 -113q55 48 123 48q70 0 110 -47zM311 169.5q19 56.5 19 116.5q0 29 -8.5 40 t-26.5 11q-32 0 -71 -39q-10 -88 -10 -119q0 -36 9 -51t30 -15q39 0 58 56.5z" />
<glyph unicode="7" horiz-adv-x="429" d="M482 679l-18 -125l-293 -573l-160 57l259 501h-229l20 140h421z" />
<glyph unicode="8" horiz-adv-x="537" d="M488.5 294.5q23.5 -37.5 23.5 -84.5q0 -67 -35 -119.5t-99 -81.5t-148 -29q-73 0 -124 24t-77 65.5t-26 92.5q0 59 34 106.5t104 79.5q-70 52 -70 132q0 59 29.5 108t86.5 78t137 29q98 0 155 -43t57 -115q0 -107 -122 -173q51 -32 74.5 -69.5zM262.5 545 q-14.5 -26 -14.5 -61q0 -22 9.5 -37t32.5 -28l13 -6q30 25 42 52t12 58q0 48 -44 48q-36 0 -50.5 -26zM308 139.5q21 26.5 21 67.5q0 27 -13.5 43t-48.5 33l-23 10q-30 -23 -44 -54.5t-14 -63.5q0 -30 15.5 -46t44.5 -16q41 0 62 26.5z" />
<glyph unicode="9" horiz-adv-x="529" d="M479 638q57 -57 57 -156q0 -195 -118 -332.5t-366 -180.5l-23 130q121 29 183.5 68.5t99.5 114.5q-30 -27 -58.5 -39.5t-64.5 -12.5q-66 0 -108.5 49t-42.5 133q0 74 32 139t94.5 104.5t150.5 39.5q107 0 164 -57zM347 507q0 32 -10 45.5t-33 13.5q-40 0 -59.5 -46 t-19.5 -100q0 -62 40 -62q37 0 74 48q8 59 8 101z" />
<glyph unicode=":" horiz-adv-x="231" d="M15.5 5.5q-23.5 25.5 -23.5 63.5q0 47 31.5 79.5t78.5 32.5q39 0 62.5 -25t23.5 -64q0 -47 -31.5 -79.5t-78.5 -32.5q-39 0 -62.5 25.5zM61.5 338.5q-23.5 25.5 -23.5 63.5q0 47 31.5 79.5t78.5 32.5q39 0 62.5 -25t23.5 -64q0 -47 -31.5 -79.5t-78.5 -32.5 q-39 0 -62.5 25.5z" />
<glyph unicode=";" horiz-adv-x="232" d="M163 158.5q23 -23.5 23 -62.5q0 -28 -10.5 -54t-42.5 -85l-79 -140h-95l67 183q-34 25 -34 68q0 47 31.5 80.5t77.5 33.5q39 0 62 -23.5zM62.5 338.5q-23.5 25.5 -23.5 63.5q0 47 31.5 79.5t78.5 32.5q39 0 62.5 -25t23.5 -64q0 -47 -31.5 -79.5t-78.5 -32.5 q-39 0 -62.5 25.5z" />
<glyph unicode="&#x3c;" horiz-adv-x="474" d="M441 588l42 -136l-299 -122l261 -123l-78 -129l-348 174l22 162z" />
<glyph unicode="=" horiz-adv-x="476" d="M50 369l20 144h406l-20 -144h-406zM19 150l20 144h406l-20 -144h-406z" />
<glyph unicode="&#x3e;" horiz-adv-x="474" d="M126 588l348 -175l-22 -161l-400 -174l-41 140l301 120l-263 124z" />
<glyph unicode="?" horiz-adv-x="446" d="M430 669.5q51 -45.5 51 -114.5q0 -48 -17.5 -81t-42 -53.5t-62.5 -43.5q-41 -25 -59.5 -43.5t-18.5 -46.5q0 -13 2 -23l-164 -25q-8 30 -8 52q0 45 15.5 77t37 51t55.5 41q34 23 49 38.5t15 38.5q0 30 -35 30q-42 0 -98 -54l-99 92q97 110 235 110q93 0 144 -45.5z M120.5 5.5q-23.5 25.5 -23.5 63.5q0 47 31.5 79.5t78.5 32.5q39 0 62.5 -25t23.5 -64q0 -47 -31.5 -79.5t-78.5 -32.5q-39 0 -62.5 25.5z" />
<glyph unicode="@" horiz-adv-x="919" d="M725.5 668.5q82.5 -46.5 125.5 -126t43 -177.5q0 -93 -30.5 -176.5t-86.5 -135t-130 -51.5q-49 0 -80.5 27.5t-36.5 67.5q-23 -44 -56.5 -67.5t-81.5 -23.5q-70 0 -106 45t-36 124q0 82 27 158.5t84.5 125.5t142.5 49q41 0 85 -13.5t78 -35.5l-36 -266q-5 -32 -5 -48 q0 -32 20 -32q26 0 46.5 40.5t32 100t11.5 114.5q0 215 -218 215q-115 0 -189 -61.5t-108 -158.5t-34 -207q0 -121 61.5 -184.5t182.5 -63.5q42 0 90 10t84 24l28 -125q-45 -19 -106 -31t-112 -12q-123 0 -211 47.5t-133.5 134.5t-45.5 204q0 138 59.5 266t174 208.5 t270.5 80.5q114 0 196.5 -46.5zM472 146l35 245q-9 4 -20 4q-38 0 -58 -75.5t-20 -156.5q0 -25 6 -35t18 -10q22 0 39 28z" />
<glyph unicode="A" horiz-adv-x="542" d="M324 0l-4 138h-138l-40 -138h-201l274 696h231l79 -696h-201zM222 276h94l-8 294z" />
<glyph unicode="B" horiz-adv-x="555" d="M503.5 322.5q34.5 -32.5 34.5 -96.5q0 -108 -81 -167t-236 -59h-222l98 696h196q125 0 194 -39t69 -120q0 -69 -41.5 -111t-104.5 -58q59 -13 93.5 -45.5zM358 513q0 24 -15 35.5t-49 11.5h-24l-19 -135h24q83 0 83 88zM341 240q0 59 -71 59h-36l-22 -159h29 q100 0 100 100z" />
<glyph unicode="C" horiz-adv-x="524" d="M570 631l-101 -100q-45 42 -95 42q-53 0 -86.5 -50.5t-48 -123.5t-14.5 -144q0 -65 21.5 -95.5t63.5 -30.5q29 0 55.5 13.5t63.5 40.5l71 -109q-102 -94 -228 -94q-114 0 -180.5 71.5t-66.5 208.5q0 119 37.5 222.5t116 168t195.5 64.5q123 0 196 -84z" />
<glyph unicode="D" horiz-adv-x="592" d="M510.5 640q78.5 -56 78.5 -201q0 -201 -89 -320t-285 -119h-216l98 696h203q132 0 210.5 -56zM271 556l-58 -416h31q80 0 113.5 92.5t33.5 209.5q0 63 -21 88.5t-65 25.5h-34z" />
<glyph unicode="E" horiz-adv-x="461" d="M509 696l-41 -138h-197l-19 -138h174l-19 -134h-174l-20 -147h213l-20 -139h-407l98 696h412z" />
<glyph unicode="F" horiz-adv-x="432" d="M495 696l-42 -138h-182l-22 -159h163l-21 -138h-161l-37 -261h-194l98 696h398z" />
<glyph unicode="G" horiz-adv-x="588" d="M517.5 690q53.5 -25 89.5 -66l-103 -94q-30 25 -54.5 36t-56.5 11q-92 0 -132 -106t-40 -245q0 -57 17 -81t52 -24q34 0 66 19l19 133h-59l1 134h260l-48 -349q-55 -37 -121.5 -57t-127.5 -20q-256 0 -256 270q0 123 41 228.5t125 170.5t207 65q67 0 120.5 -25z" />
<glyph unicode="H" horiz-adv-x="585" d="M192 0h-193l98 696h193l-36 -260h124l36 260h194l-97 -696h-194l39 284h-123z" />
<glyph unicode="I" horiz-adv-x="267" d="M290 696l-97 -696h-194l98 696h193z" />
<glyph unicode="J" horiz-adv-x="295" d="M237 106q-13 -91 -52.5 -148.5t-92 -88t-124.5 -54.5l-34 137q57 24 79 61t31 105l81 578h194z" />
<glyph unicode="K" horiz-adv-x="600" d="M-1 0l98 696h193l-97 -696h-194zM363 0l-113 371l210 325h197l-211 -320l130 -376h-213z" />
<glyph unicode="L" horiz-adv-x="465" d="M290 696l-75 -544h230l-42 -152h-404l98 696h193z" />
<glyph unicode="M" horiz-adv-x="713" d="M660 0h-189l31 253q13 107 49 302l-131 -484h-185l-8 482q-4 -99 -9.5 -165.5t-15.5 -136.5l-36 -251h-189l140 696h232l-1 -473l120 473h246z" />
<glyph unicode="N" horiz-adv-x="580" d="M506 0h-235l-67 533q4 -82 4 -127q0 -97 -13 -193l-27 -213h-168l97 696h233l67 -534q-4 92 -4 129q0 86 12 181l30 224h168z" />
<glyph unicode="O" horiz-adv-x="624" d="M558.5 645q63.5 -70 63.5 -204q0 -119 -36 -224t-114 -171t-197 -66q-123 0 -186.5 70.5t-63.5 205.5q0 119 36 223.5t114 170t197 65.5q123 0 186.5 -70zM278.5 516q-30.5 -59 -43 -140t-12.5 -152q0 -55 15.5 -79t49.5 -24q50 0 80.5 57.5t43 137.5t12.5 154 q0 56 -16 80.5t-50 24.5q-49 0 -79.5 -59z" />
<glyph unicode="P" horiz-adv-x="546" d="M501.5 645.5q65.5 -50.5 65.5 -147.5q0 -77 -33.5 -140t-100 -100.5t-162.5 -37.5h-47l-31 -220h-194l98 696h217q122 0 187.5 -50.5zM346 397.5q23 38.5 23 93.5q0 35 -17 51t-53 16h-28l-28 -199h26q54 0 77 38.5z" />
<glyph unicode="Q" horiz-adv-x="623" d="M576.5 203q-45.5 -106 -142.5 -157q65 -3 107.5 -19.5t77.5 -50.5l-135 -144q-79 150 -209 150q-123 0 -186.5 70t-63.5 204q0 119 36 223.5t114 170t197 65.5q123 0 186.5 -70t63.5 -204q0 -132 -45.5 -238zM238.5 144.5q15.5 -23.5 49.5 -23.5q50 0 80.5 57.5t43 138 t12.5 155.5q0 54 -16 78.5t-50 24.5q-49 0 -79.5 -59t-43 -140.5t-12.5 -153.5q0 -54 15.5 -77.5z" />
<glyph unicode="R" horiz-adv-x="559" d="M539 379q-31 -52 -104 -93l108 -286h-205l-79 251h-31l-35 -251h-194l98 696h219q126 0 190 -49.5t64 -140.5q0 -75 -31 -127zM246 384h35q46 0 68.5 33t22.5 80q0 33 -17.5 48t-53.5 15h-30z" />
<glyph unicode="S" horiz-adv-x="526" d="M551 620l-96 -99q-54 54 -122 54q-38 0 -58 -16.5t-20 -42.5q0 -25 20.5 -41.5t82.5 -43.5q77 -33 113.5 -78.5t36.5 -117.5q0 -70 -33.5 -128t-99.5 -92.5t-158 -34.5q-154 0 -246 105l105 104q33 -32 67 -48t76 -16t65 19.5t23 53.5q0 31 -21.5 51.5t-77.5 44.5 q-82 34 -117.5 78t-35.5 111q0 66 32.5 119t93 83t143.5 30q144 0 227 -95z" />
<glyph unicode="T" horiz-adv-x="494" d="M560 696l-41 -148h-136l-77 -548h-193l77 548h-149l21 148h498z" />
<glyph unicode="U" horiz-adv-x="573" d="M539 217q-9 -68 -45 -121t-97.5 -84t-145.5 -31q-116 0 -175 54t-59 145q0 21 3 42l67 474h193l-67 -487q-2 -20 -2 -28q0 -29 13 -43.5t41 -14.5q35 0 54 22.5t25 65.5l68 485h194z" />
<glyph unicode="V" horiz-adv-x="521" d="M603 696l-247 -696h-253l-64 696h199l12 -556l154 556h199z" />
<glyph unicode="W" horiz-adv-x="770" d="M828 696l-182 -696h-253l24 509l-121 -509h-250l16 696h190l-42 -552l137 552h198l-27 -552l123 552h187z" />
<glyph unicode="X" horiz-adv-x="541" d="M599 696l-202 -321l117 -375h-205l-44 254l-105 -254h-209l214 369l-106 327h205l31 -217l97 217h207z" />
<glyph unicode="Y" horiz-adv-x="554" d="M630 696l-257 -439l-36 -257h-194l36 257l-135 439h206l48 -292l125 292h207z" />
<glyph unicode="Z" horiz-adv-x="495" d="M-31 0l20 145l306 401h-227l22 150h444l-21 -147l-304 -394h261l-42 -155h-459z" />
<glyph unicode="[" horiz-adv-x="291" d="M362 826l-19 -138h-98l-93 -677h97l-20 -137h-275l135 952h273z" />
<glyph unicode="\" horiz-adv-x="467" d="M287 816l85 -898l-169 -34l-84 899z" />
<glyph unicode="]" horiz-adv-x="290" d="M360 826l-134 -952h-273l20 138h98l92 677h-95l18 137h274z" />
<glyph unicode="^" horiz-adv-x="512" d="M422 847l123 -320h-176l-52 183l-95 -183h-182l212 320h170z" />
<glyph unicode="_" horiz-adv-x="463" d="M-58 -185l20 145h452l-20 -145h-452z" />
<glyph unicode="`" horiz-adv-x="335" d="M172 846l192 -143l-53 -85l-218 95z" />
<glyph unicode="a" horiz-adv-x="523" d="M420.5 538.5q54.5 -14.5 103.5 -42.5l-47 -328q-2 -20 -2 -27q0 -14 4.5 -22t16.5 -13l-56 -122q-46 4 -82 24t-50 56q-28 -41 -62.5 -62.5t-81.5 -21.5q-75 0 -114.5 54t-39.5 149t30.5 179t98 137.5t173.5 53.5q54 0 108.5 -14.5zM224 348.5q-25 -73.5 -25 -168.5 q0 -36 8.5 -49.5t23.5 -13.5q31 0 62 54l36 247q-15 4 -31 4q-49 0 -74 -73.5z" />
<glyph unicode="b" horiz-adv-x="534" d="M486.5 504q36.5 -49 36.5 -141q0 -169 -71 -276t-237 -107q-106 0 -215 48l100 716l188 20l-38 -269q24 27 58.5 42.5t71.5 15.5q70 0 106.5 -49zM234 370l-34 -246q18 -8 39 -8q47 0 70.5 74t23.5 161q0 39 -9 52.5t-26 13.5q-33 0 -64 -47z" />
<glyph unicode="c" horiz-adv-x="432" d="M472 482l-88 -103q-38 32 -75 32q-55 0 -78.5 -62t-23.5 -144q0 -45 15 -62t43 -17q18 0 36.5 7.5t45.5 23.5l65 -113q-80 -64 -179 -64q-103 0 -161.5 61.5t-58.5 167.5q0 90 33.5 168.5t99 127t158.5 48.5q103 0 168 -71z" />
<glyph unicode="d" horiz-adv-x="535" d="M568 744l-104 -744h-165l1 62q-28 -39 -61.5 -60.5t-79.5 -21.5q-73 0 -111 52.5t-38 150.5q0 91 27 176t81.5 139.5t130.5 54.5q63 0 100 -43l35 253zM240 380q-20 -38 -29.5 -92t-9.5 -103q0 -40 8.5 -54t23.5 -14q30 0 70 64l30 214q-18 23 -42 23q-31 0 -51 -38z" />
<glyph unicode="e" horiz-adv-x="501" d="M453.5 511.5q51.5 -41.5 51.5 -107.5q0 -101 -89 -150t-221 -63q0 -75 69 -75q28 0 55 11.5t64 35.5l63 -107q-95 -76 -210 -76q-108 0 -166 56t-58 161q0 94 32 175t99.5 131t168.5 50q90 0 141.5 -41.5zM296.5 334.5q26.5 30.5 26.5 64.5q0 33 -32 33t-53.5 -37.5 t-32.5 -95.5q65 5 91.5 35.5z" />
<glyph unicode="f" horiz-adv-x="333" d="M306 611q-15 -16 -20 -53l-3 -24h110l-39 -129h-89l-46 -332q-12 -92 -49.5 -150t-89 -91t-124.5 -58l-43 136q56 21 83 54t36 99l47 342h-61l18 129h60l5 35q12 87 71 141t156 54q46 0 84.5 -13.5t65.5 -33.5l-65 -109q-30 19 -65 19q-27 0 -42 -16z" />
<glyph unicode="g" horiz-adv-x="525" d="M424 538.5q55 -14.5 104 -42.5l-64 -452q-20 -140 -85 -205t-193 -65q-51 0 -101.5 15.5t-93.5 43.5l63 120q67 -39 127 -39q40 0 65 20t33 75l8 55q-50 -65 -122 -65q-74 0 -113.5 54t-39.5 146t30.5 172.5t98.5 131t174 50.5q54 0 109 -14.5zM226 355q-25 -67 -25 -156 q0 -35 9 -48.5t25 -13.5q31 0 65 53l32 228q-13 4 -30 4q-51 0 -76 -67z" />
<glyph unicode="h" horiz-adv-x="508" d="M470.5 520.5q28.5 -32.5 28.5 -90.5q0 -17 -3 -37l-56 -393h-186l49 351q1 7 1 18q0 12 -3 16.5t-9 4.5q-13 0 -29 -24t-41 -78l-40 -288h-186l104 744l188 19l-42 -306q24 41 62.5 68.5t83.5 27.5q50 0 78.5 -32.5z" />
<glyph unicode="i" horiz-adv-x="254" d="M257 534l-74 -534h-186l74 534h186zM111 644.5q-25 24.5 -25 64.5q0 50 34 83t83 33q43 0 68 -24.5t25 -64.5q0 -50 -33.5 -83t-83.5 -33q-43 0 -68 24.5z" />
<glyph unicode="j" horiz-adv-x="253" d="M-114 -91q56 22 83 55t36 99l66 471h186l-65 -461q-13 -92 -50 -150.5t-89 -91t-124 -57.5zM111 644.5q-25 24.5 -25 64.5q0 50 34 83t83 33q43 0 68 -24.5t25 -64.5q0 -50 -33.5 -83t-83.5 -33q-43 0 -68 24.5z" />
<glyph unicode="k" horiz-adv-x="533" d="M250 478q36 39 75 57t85 18q63 0 100 -34.5t37 -91.5q0 -61 -30 -105t-93 -81l71 -241h-197l-63 256q70 29 97 61.5t27 71.5q0 17 -8 26t-23 9q-44 0 -99 -83l-46 -341h-187l104 744l189 19z" />
<glyph unicode="l" horiz-adv-x="267" d="M200 159q-1 -4 -1 -11q0 -18 17 -18q8 0 17 3l14 -132q-21 -9 -49.5 -14.5t-56.5 -5.5q-64 0 -98 33.5t-34 94.5q0 23 2 35l84 600l187 19z" />
<glyph unicode="m" horiz-adv-x="743" d="M705.5 520.5q28.5 -32.5 28.5 -90.5q0 -17 -3 -37l-55 -393h-186l49 351l2 20q0 22 -12 22t-25.5 -22.5t-32.5 -73.5l-42 -297h-186l49 351l2 20q0 22 -13 22q-23 0 -57 -102l-41 -291h-186l74 534h162l1 -77q28 45 65 70.5t80 25.5t70.5 -23t35.5 -66q27 41 63.5 65 t77.5 24q51 0 79.5 -32.5z" />
<glyph unicode="n" horiz-adv-x="508" d="M471.5 520.5q28.5 -32.5 28.5 -90.5q0 -17 -3 -37l-56 -393h-186l49 351q1 7 1 18q0 12 -3 16.5t-9 4.5q-13 0 -28.5 -23.5t-40.5 -78.5l-41 -288h-186l74 534h162l1 -83q29 46 70 74t88 28q51 0 79.5 -32.5z" />
<glyph unicode="o" horiz-adv-x="529" d="M69.5 37q-56.5 57 -56.5 165q0 93 30.5 173t95.5 129t162 49q101 0 158 -57.5t57 -164.5q-1 -94 -31.5 -173.5t-95.5 -128.5t-162 -49q-101 0 -157.5 57zM307.5 194.5q19.5 77.5 19.5 162.5q0 32 -9.5 46t-30.5 14q-46 0 -66 -75.5t-20 -159.5q0 -35 9.5 -50t30.5 -15 q47 0 66.5 77.5z" />
<glyph unicode="p" horiz-adv-x="533" d="M71 534h166v-52q61 71 143 71q70 0 106.5 -49t36.5 -141q0 -103 -27.5 -190t-86.5 -140t-150 -53q-44 0 -79 11l-28 -198l-187 -20zM293.5 154q21.5 39 31 94.5t9.5 105.5q0 37 -9 50t-26 13q-33 0 -64 -46l-35 -247q20 -9 39 -9q33 0 54.5 39z" />
<glyph unicode="q" horiz-adv-x="528" d="M281 35q-19 -24 -49 -39.5t-68 -15.5q-74 0 -113.5 54t-39.5 149q0 99 30.5 182.5t98.5 135.5t174 52q117 0 214 -57l-96 -703l-188 -20zM298 171l36 247q-15 4 -33 4q-50 0 -75.5 -71.5t-25.5 -170.5q0 -36 9 -49.5t25 -13.5q33 0 64 54z" />
<glyph unicode="r" horiz-adv-x="366" d="M415 542l-55 -183q-23 7 -41 7q-37 0 -61 -36t-43 -101l-32 -229h-186l74 534h160v-91q25 51 60 79.5t77 28.5q25 0 47 -9z" />
<glyph unicode="s" horiz-adv-x="440" d="M359.5 534.5q49.5 -18.5 84.5 -50.5l-79 -99q-52 36 -103 36q-23 0 -35.5 -8.5t-12.5 -22.5q0 -16 16.5 -27t72.5 -34q57 -23 86 -59t29 -93q0 -55 -27.5 -100t-81 -71t-127.5 -26q-67 0 -122 23.5t-93 64.5l94 95q56 -51 117 -51q25 0 40 10t15 28q0 19 -17 31.5 t-68 33.5q-60 25 -88.5 59.5t-28.5 91.5q0 53 28 96t78.5 67t117.5 24q55 0 104.5 -18.5z" />
<glyph unicode="t" horiz-adv-x="357" d="M227 183q-2 -14 -2 -19q0 -35 29 -35q18 0 42 11l44 -119q-32 -20 -72 -30.5t-77 -10.5q-75 0 -114.5 40.5t-39.5 116.5q0 22 3 46l31 222h-56l18 129h64l31 116l165 19l-18 -135h105l-39 -129h-84z" />
<glyph unicode="u" horiz-adv-x="503" d="M39 13q-29 33 -29 91q0 19 3 40l54 390h186l-49 -356q-1 -6 -1 -15q0 -23 16 -23q24 0 54 54l47 340h186l-74 -534h-162l2 68q-66 -88 -149 -88q-55 0 -84 33z" />
<glyph unicode="v" horiz-adv-x="471" d="M523 534l-208 -534h-224l-68 534h197l3 -396l107 396h193z" />
<glyph unicode="w" horiz-adv-x="692" d="M732 534l-165 -534h-209l1 364l-93 -364h-212l-18 534h187l-31 -390l111 390h171l-7 -390l86 390h179z" />
<glyph unicode="x" horiz-adv-x="472" d="M501 534l-149 -253l101 -281h-196l-37 181l-82 -181h-195l180 283l-95 251h198l24 -160l61 160h190z" />
<glyph unicode="y" horiz-adv-x="477" d="M316 0q-45 -114 -128.5 -168t-208.5 -59l-3 128q70 8 107 29.5t63 69.5h-66l-57 534h193l-2 -416l120 416h196z" />
<glyph unicode="z" horiz-adv-x="422" d="M445 534l-18 -132l-216 -261h188l-37 -141h-396l18 133l217 262h-164l20 139h388z" />
<glyph unicode="{" horiz-adv-x="288" d="M342 712q-33 0 -45 -11.5t-16 -43.5l-21 -161q-8 -69 -40 -101t-91 -47q45 -8 67.5 -32t22.5 -74q0 -17 -3 -40l-21 -160q-1 -7 -1 -19q0 -20 10 -27.5t38 -7.5l-17 -130q-109 0 -157 35t-48 106q0 17 3 38l21 159q2 24 2 30q0 26 -10 36t-36 10l22 156q33 0 48 18t20 61 l21 158q8 62 31 100t74.5 57.5t142.5 19.5z" />
<glyph unicode="|" horiz-adv-x="315" d="M321 812l-128 -919h-175l128 919h175z" />
<glyph unicode="}" horiz-adv-x="288" d="M-30 -12q33 0 45 11.5t16 43.5l21 161q8 69 40 101t91 47q-45 8 -67.5 32t-22.5 74q0 18 3 40l21 160q2 16 2 20q0 19 -10.5 26.5t-38.5 7.5l17 130q109 0 157 -35t48 -106q0 -17 -3 -38l-20 -159q-3 -19 -3 -32q0 -24 10.5 -34t35.5 -10l-22 -156q-33 0 -48 -18t-20 -61 l-21 -158q-8 -62 -31 -100t-74.5 -57.5t-142.5 -19.5z" />
<glyph unicode="~" horiz-adv-x="478" d="M259.5 232.5q-20.5 9.5 -45.5 26.5q-17 12 -28.5 18t-25.5 6q-21 0 -35 -12t-34 -41l-85 53q41 66 81.5 103t95.5 37q31 0 52 -9.5t44 -26.5q16 -12 27.5 -18t25.5 -6q23 0 36.5 12t31.5 40l88 -52q-41 -66 -81.5 -103t-96.5 -37q-30 0 -50.5 9.5z" />
<glyph unicode="&#xa1;" horiz-adv-x="229" d="M63.5 340.5q-23.5 25.5 -23.5 63.5q0 47 31.5 79.5t78.5 32.5q39 0 62.5 -25t23.5 -64q0 -47 -31.5 -79.5t-78.5 -32.5q-39 0 -62.5 25.5zM179 229l-37 -436h-195l87 436h145z" />
<glyph unicode="&#xa2;" horiz-adv-x="432" d="M412 44q-63 -50 -136 -61l-22 -147h-126l24 156q-67 21 -103 77.5t-36 139.5q0 77 24.5 146.5t73 119.5t117.5 68l23 153h124l-21 -148q70 -13 118 -66l-88 -103q-38 32 -75 32q-55 0 -78.5 -62t-23.5 -144q0 -45 15 -62t43 -17q18 0 36.5 7.5t45.5 23.5z" />
<glyph unicode="&#xa3;" horiz-adv-x="493" d="M254.5 188q-16.5 -27 -58.5 -48h265l-40 -140h-439l19 134q36 10 54.5 25.5t25 35.5t10.5 53l8 57h-63l14 93h61l12 90q14 97 72.5 152t159.5 55q130 0 185 -108l-118 -75q-12 25 -25 35t-33 10q-28 0 -41 -17t-18 -56l-11 -86h146l-13 -93h-145l-6 -48q-5 -42 -21.5 -69 z" />
<glyph unicode="&#xa4;" d="M435 225l74 -81l-81 -71l-66 75q-48 -27 -103 -27q-57 0 -105 28l-70 -76l-77 71l74 82q-28 51 -28 116t28 116l-74 83l81 71l67 -76q48 27 104 27q57 0 104 -28l69 77l77 -72l-73 -82q27 -52 27 -116q0 -66 -28 -117zM310 265.5q17 24.5 17 76.5t-17 76t-52 24 t-52.5 -24t-17.5 -76q0 -101 70 -101q35 0 52 24.5z" />
<glyph unicode="&#xa5;" horiz-adv-x="523" d="M597 679l-195 -324h79l-14 -92h-113l-9 -63h114l-14 -92h-113l-15 -108h-183l14 108h-113l14 92h112l8 63h-112l13 92h76l-104 324h188l50 -274l123 274h194z" />
<glyph unicode="&#xa6;" horiz-adv-x="315" d="M321 812l-51 -369h-176l52 369h175zM245 262l-52 -369h-175l51 369h176z" />
<glyph unicode="&#xa7;" horiz-adv-x="502" d="M444 411.5q30 -30.5 30 -81.5q0 -94 -100 -146q24 -20 35 -42.5t11 -51.5q0 -49 -27.5 -90t-80.5 -65t-128 -24q-55 0 -101 16t-80 43l72 104q28 -19 53 -27.5t53 -8.5q65 0 65 40q0 19 -18 31.5t-75 34.5q-57 20 -86 50t-29 80q0 90 98 143q-42 39 -42 97q0 51 27.5 92 t79.5 65t122 24q52 0 100 -16t84 -44l-74 -101q-24 16 -51 25t-53 9q-62 0 -62 -40q0 -13 7 -22t25.5 -18.5t58.5 -24.5q56 -21 86 -51.5zM291 235q24 33 24 59q0 19 -15.5 33.5t-52.5 27.5l-31 12q-19 -26 -19 -55q0 -18 11.5 -31t37.5 -25z" />
<glyph unicode="&#xa8;" horiz-adv-x="463" d="M115.5 656.5q-21.5 21.5 -21.5 56.5q0 43 29.5 72t71.5 29q38 0 59.5 -21.5t21.5 -56.5q0 -43 -29.5 -72t-72.5 -29q-37 0 -58.5 21.5zM338.5 656.5q-21.5 21.5 -21.5 56.5q0 43 29 72t72 29q37 0 58.5 -21.5t21.5 -56.5q0 -43 -29 -72t-72 -29q-37 0 -58.5 21.5z" />
<glyph unicode="&#xa9;" horiz-adv-x="732" d="M553 731.5q73 -43.5 115.5 -121.5t42.5 -179q0 -100 -42.5 -178t-115.5 -121t-163 -43q-89 0 -163 43t-117 121t-43 178q0 101 43 179t117 121.5t163 43.5q90 0 163 -43.5zM277.5 651.5q-49.5 -30.5 -77.5 -87.5t-28 -133t28 -132.5t77.5 -87t112.5 -30.5 q62 0 111.5 30.5t77.5 87.5t28 132q0 76 -28 133t-77.5 87.5t-111.5 30.5q-63 0 -112.5 -30.5zM462 617.5q33 -14.5 57 -40.5l-51 -66q-18 13 -31 17.5t-29 4.5q-25 0 -40.5 -24t-15.5 -77q0 -55 15 -78t42 -23q18 0 33 6.5t32 20.5l49 -71q-26 -26 -60.5 -41t-69.5 -15 q-80 0 -124 52.5t-44 148.5q0 91 46 145.5t123 54.5q35 0 68 -14.5z" />
<glyph unicode="&#xaa;" horiz-adv-x="435" d="M72.5 293.5q-30.5 32.5 -30.5 84.5q0 65 48 108.5t154 43.5h27l1 9q1 5 1 14q0 16 -8.5 23t-28.5 7q-42 0 -105 -19l-23 100q38 15 82.5 23.5t82.5 8.5q77 0 116 -30.5t39 -98.5q0 -20 -3 -43l-16 -113q-1 -5 -1 -13q0 -19 19 -27l-48 -106q-81 3 -106 54 q-45 -58 -117 -58q-53 0 -83.5 32.5zM251 388l8 56h-12q-22 0 -32.5 -11t-10.5 -35q0 -12 4 -17t13 -5q18 0 30 12zM-14 0l19 144h387l-19 -144h-387z" />
<glyph unicode="&#xab;" horiz-adv-x="603" d="M240 566l104 -77l-139 -207l81 -204l-127 -78l-146 224l19 118zM511 566l104 -77l-139 -207l81 -204l-127 -78l-146 224l19 118z" />
<glyph unicode="&#xac;" horiz-adv-x="494" d="M478 404l-44 -304h-158l22 159h-264l20 145h424z" />
<glyph unicode="&#xad;" horiz-adv-x="372" d="M29 241l20 144h306l-19 -144h-307z" />
<glyph unicode="&#xae;" horiz-adv-x="572" d="M452 728.5q59 -35.5 92.5 -100t33.5 -148.5q0 -83 -33.5 -147t-92.5 -99t-134 -35q-76 0 -136 35t-94 99t-34 147q0 84 34 148.5t94 100t136 35.5q75 0 134 -35.5zM444 328.5q48 54.5 48 151.5t-48 152.5t-126 55.5q-80 0 -129 -55.5t-49 -152.5t49 -151.5t129 -54.5 q78 0 126 54.5zM375 468l66 -120h-84l-49 101h-19v-101h-75v285h81q128 0 128 -91q0 -46 -48 -74zM289 514h26q14 0 22.5 8t8.5 24q0 29 -32 29h-25v-61z" />
<glyph unicode="&#xaf;" horiz-adv-x="354" d="M376 649h-292l19 130h293z" />
<glyph unicode="&#xb0;" horiz-adv-x="455" d="M103.5 403q-41.5 40 -41.5 110q0 59 25 105t68 71.5t96 25.5q64 0 106 -40t42 -109q0 -59 -25 -105t-68.5 -72t-96.5 -26q-64 0 -105.5 40zM264.5 494.5q15.5 27.5 15.5 66.5q0 51 -38 51q-30 0 -45.5 -27.5t-15.5 -66.5q0 -51 38 -51q30 0 45.5 27.5z" />
<glyph unicode="&#xb1;" horiz-adv-x="494" d="M9 0l20 144h406l-20 -144h-406zM378 663l-22 -159h136l-20 -144h-138l-23 -159h-148l23 159h-138l20 144h140l21 159h149z" />
<glyph unicode="&#xb2;" horiz-adv-x="360" d="M340.5 721.5q36.5 -33.5 36.5 -82.5q0 -42 -19 -75.5t-54 -64t-99 -76.5h152l-28 -103h-283l14 95q102 89 141 132t39 77q0 14 -8 22t-22 8q-17 0 -31.5 -9.5t-34.5 -30.5l-68 60q71 81 165 81q63 0 99.5 -33.5z" />
<glyph unicode="&#xb3;" horiz-adv-x="360" d="M339 726q36 -29 36 -74q0 -42 -28.5 -69.5t-79.5 -39.5q94 -7 94 -87q0 -41 -23.5 -75.5t-66 -54.5t-97.5 -20q-96 0 -145 72l76 64q17 -18 33.5 -26t35.5 -8q23 0 38 14t15 41q0 17 -12 25t-38 8h-32l27 89h19q53 0 53 43q0 28 -33 28q-37 0 -78 -34l-56 70 q72 63 163 63q63 0 99 -29z" />
<glyph unicode="&#xb4;" horiz-adv-x="339" d="M313 847l59 -134l-239 -98l-45 91z" />
<glyph unicode="&#xb5;" horiz-adv-x="516" d="M452 64q0 -29 4 -65l-173 -17q-7 34 -8 71q-20 -32 -38.5 -46t-43.5 -14q-27 0 -44 17q8 -36 8 -65q0 -27 -6 -67l-12 -85l-175 -17l107 758h185l-50 -369q-1 -6 -1 -15q0 -14 4 -19.5t13 -5.5q12 0 25.5 11t25.5 33l51 365h186l-49 -351q-9 -69 -9 -119z" />
<glyph unicode="&#xb6;" horiz-adv-x="736" d="M713 696l-127 -903l-160 -20l109 795h-70l-108 -775l-160 -20l68 481q-93 1 -143.5 50.5t-50.5 132.5q0 80 35.5 138.5t100.5 89.5t151 31h355z" />
<glyph unicode="&#xb7;" horiz-adv-x="231" d="M46.5 230.5q-23.5 25.5 -23.5 63.5q0 47 31.5 79.5t78.5 32.5q39 0 62.5 -25t23.5 -64q0 -47 -31.5 -79.5t-78.5 -32.5q-39 0 -62.5 25.5z" />
<glyph unicode="&#xb8;" horiz-adv-x="324" d="M149 -47q42 -6 64.5 -28.5t22.5 -61.5q0 -31 -16 -62t-53.5 -52t-97.5 -21q-34 0 -62 9.5t-48 24.5l51 79q27 -15 55 -15q42 0 43 29q0 15 -18.5 21t-61.5 6l34 134h97z" />
<glyph unicode="&#xb9;" horiz-adv-x="360" d="M350 744l-59 -424h-130l41 298l-82 -54l-48 88l158 92h120z" />
<glyph unicode="&#xba;" horiz-adv-x="449" d="M412.5 653q46.5 -43 46.5 -129q0 -76 -28 -135.5t-80.5 -93.5t-124.5 -34q-84 0 -131 43t-47 128q0 76 28 136t81 94t125 34q84 0 130.5 -43zM225 529q-14 -50 -14 -110q0 -22 6.5 -31.5t20.5 -9.5q30 0 45 51.5t15 109.5q0 40 -27 40q-32 0 -46 -50zM-16 0l20 144h406 l-20 -144h-406z" />
<glyph unicode="&#xbb;" horiz-adv-x="603" d="M178 566l146 -224l-18 -118l-209 -224l-105 78l141 206l-83 205zM449 566l146 -224l-18 -118l-209 -224l-105 78l141 206l-83 205z" />
<glyph unicode="&#xbc;" horiz-adv-x="887" d="M343 696l-59 -424h-130l41 298l-82 -54l-48 88l158 92h120zM636 762l96 -52l-477 -799l-97 52zM861 177l-14 -99h-36l-11 -78h-121l11 78h-176l12 90l140 267l105 -42l-107 -216h42l40 90h91l-12 -90h36z" />
<glyph unicode="&#xbd;" horiz-adv-x="887" d="M343 696l-59 -424h-130l41 298l-82 -54l-48 88l158 92h120zM636 762l96 -52l-477 -799l-97 52zM822.5 401.5q36.5 -33.5 36.5 -82.5q0 -42 -19 -75.5t-54 -64t-99 -76.5h152l-28 -103h-283l14 95q102 89 141 132t39 77q0 14 -8 22t-22 8q-17 0 -31.5 -9.5t-34.5 -30.5 l-68 60q71 81 165 81q63 0 99.5 -33.5z" />
<glyph unicode="&#xbe;" horiz-adv-x="887" d="M332 678q36 -29 36 -74q0 -42 -28.5 -69.5t-79.5 -39.5q94 -7 94 -87q0 -41 -23.5 -75.5t-66 -54.5t-97.5 -20q-96 0 -145 72l76 64q17 -18 33.5 -26t35.5 -8q23 0 38 14t15 41q0 17 -12 25t-38 8h-32l27 89h19q53 0 53 43q0 28 -33 28q-37 0 -78 -34l-56 70 q72 63 163 63q63 0 99 -29zM636 762l96 -52l-477 -799l-97 52zM861 177l-14 -99h-36l-11 -78h-121l11 78h-176l12 90l140 267l105 -42l-107 -216h42l40 90h91l-12 -90h36z" />
<glyph unicode="&#xbf;" horiz-adv-x="445" d="M318.5 483.5q23.5 -25.5 23.5 -63.5q0 -47 -31.5 -79.5t-78.5 -32.5q-39 0 -62.5 25t-23.5 64q0 47 31.5 79.5t78.5 32.5q39 0 62.5 -25.5zM9 -182.5q-51 44.5 -51 112.5q0 48 17 81.5t41 53.5t63 44q41 26 60 44.5t19 47.5q0 12 -2 24l164 24q8 -30 8 -52 q0 -45 -15.5 -76t-36.5 -50t-55 -42q-34 -22 -49.5 -38.5t-15.5 -40.5q0 -14 9 -21.5t27 -7.5q40 0 96 54l100 -92q-97 -110 -235 -110q-93 0 -144 44.5z" />
<glyph unicode="&#xc0;" horiz-adv-x="542" d="M324 0l-4 138h-138l-40 -138h-201l274 696h231l79 -696h-201zM222 276h94l-8 294zM303 963l192 -133l-51 -86l-218 85z" />
<glyph unicode="&#xc1;" horiz-adv-x="542" d="M324 0l-4 138h-138l-40 -138h-201l274 696h231l79 -696h-201zM222 276h94l-8 294zM445 965l59 -134l-240 -88l-42 89z" />
<glyph unicode="&#xc2;" horiz-adv-x="542" d="M324 0l-4 138h-138l-40 -138h-201l274 696h231l79 -696h-201zM222 276h94l-8 294zM215 754l-61 74l150 138h111l115 -144l-72 -68l-111 87z" />
<glyph unicode="&#xc3;" horiz-adv-x="542" d="M324 0l-4 138h-138l-40 -138h-201l274 696h231l79 -696h-201zM222 276h94l-8 294zM365 757.5q-14 6.5 -31 18.5q-13 9 -21.5 13.5t-16.5 4.5q-15 0 -26.5 -10.5t-26.5 -33.5l-79 46q27 57 64.5 94t78.5 37q20 0 34 -7t33 -20q11 -9 19 -13t16 -4q14 0 25 10t25 33l80 -44 q-26 -57 -64.5 -94t-79.5 -37q-16 0 -30 6.5z" />
<glyph unicode="&#xc4;" horiz-adv-x="542" d="M324 0l-4 138h-138l-40 -138h-201l274 696h231l79 -696h-201zM222 276h94l-8 294zM168.5 782.5q-21.5 21.5 -21.5 56.5q0 43 29.5 72t71.5 29q38 0 59.5 -21.5t21.5 -56.5q0 -43 -29.5 -72t-72.5 -29q-37 0 -58.5 21.5zM391.5 782.5q-21.5 21.5 -21.5 56.5q0 43 29 72 t72 29q37 0 58.5 -21.5t21.5 -56.5q0 -43 -29 -72t-72 -29q-37 0 -58.5 21.5z" />
<glyph unicode="&#xc5;" horiz-adv-x="542" d="M324 0l-4 138h-138l-40 -138h-201l274 696h231l79 -696h-201zM222 276h94l-8 294zM464.5 973q32.5 -35 32.5 -92q0 -42 -19.5 -78.5t-56 -58t-84.5 -21.5q-59 0 -91.5 35t-32.5 92q0 41 20 77.5t56.5 58.5t83.5 22q59 0 91.5 -35zM329 897q-13 -18 -13 -42q0 -38 31 -38 q21 0 34 18t13 41q0 39 -30 39q-22 0 -35 -18z" />
<glyph unicode="&#xc6;" horiz-adv-x="771" d="M747 558h-211v-140h205l-19 -134h-186v-145h205l-21 -139h-361l2 138h-156l-54 -138h-210l325 696h521zM260 277h104l5 278z" />
<glyph unicode="&#xc7;" horiz-adv-x="524" d="M314 -17l-5 -30q42 -6 64.5 -28.5t22.5 -61.5q0 -31 -16 -62t-53.5 -52t-97.5 -21q-34 0 -62 9.5t-48 24.5l51 79q27 -15 55 -15q42 0 43 29q0 15 -18.5 21t-61.5 6l26 103q-89 17 -139 87t-50 188q0 119 37.5 222.5t116 168t195.5 64.5q123 0 196 -84l-101 -100 q-45 42 -95 42q-53 0 -86.5 -50.5t-48 -123.5t-14.5 -144q0 -65 21.5 -95.5t63.5 -30.5q29 0 55.5 13.5t63.5 40.5l71 -109q-83 -78 -186 -91z" />
<glyph unicode="&#xc8;" horiz-adv-x="461" d="M509 696l-41 -138h-197l-19 -138h174l-19 -134h-174l-20 -147h213l-20 -139h-407l98 696h412zM275 963l192 -133l-51 -86l-218 85z" />
<glyph unicode="&#xc9;" horiz-adv-x="461" d="M509 696l-41 -138h-197l-19 -138h174l-19 -134h-174l-20 -147h213l-20 -139h-407l98 696h412zM417 965l59 -134l-240 -88l-42 89z" />
<glyph unicode="&#xca;" horiz-adv-x="461" d="M509 696l-41 -138h-197l-19 -138h174l-19 -134h-174l-20 -147h213l-20 -139h-407l98 696h412zM187 754l-61 74l150 138h111l115 -144l-72 -68l-111 87z" />
<glyph unicode="&#xcb;" horiz-adv-x="461" d="M509 696l-41 -138h-197l-19 -138h174l-19 -134h-174l-20 -147h213l-20 -139h-407l98 696h412zM140.5 782.5q-21.5 21.5 -21.5 56.5q0 43 29.5 72t71.5 29q38 0 59.5 -21.5t21.5 -56.5q0 -43 -29.5 -72t-72.5 -29q-37 0 -58.5 21.5zM363.5 782.5q-21.5 21.5 -21.5 56.5 q0 43 29 72t72 29q37 0 58.5 -21.5t21.5 -56.5q0 -43 -29 -72t-72 -29q-37 0 -58.5 21.5z" />
<glyph unicode="&#xcc;" horiz-adv-x="267" d="M290 696l-97 -696h-194l98 696h193zM166 963l192 -133l-51 -86l-218 85z" />
<glyph unicode="&#xcd;" horiz-adv-x="267" d="M290 696l-97 -696h-194l98 696h193zM308 965l59 -134l-240 -88l-42 89z" />
<glyph unicode="&#xce;" horiz-adv-x="267" d="M290 696l-97 -696h-194l98 696h193zM78 754l-61 74l150 138h111l115 -144l-72 -68l-111 87z" />
<glyph unicode="&#xcf;" horiz-adv-x="267" d="M290 696l-97 -696h-194l98 696h193zM31.5 782.5q-21.5 21.5 -21.5 56.5q0 43 29.5 72t71.5 29q38 0 59.5 -21.5t21.5 -56.5q0 -43 -29.5 -72t-72.5 -29q-37 0 -58.5 21.5zM254.5 782.5q-21.5 21.5 -21.5 56.5q0 43 29 72t72 29q37 0 58.5 -21.5t21.5 -56.5q0 -43 -29 -72 t-72 -29q-37 0 -58.5 21.5z" />
<glyph unicode="&#xd0;" horiz-adv-x="600" d="M518.5 640q78.5 -56 78.5 -201q0 -201 -89 -320t-285 -119h-216l42 297h-40l17 112h39l40 287h203q132 0 210.5 -56zM365.5 232.5q33.5 92.5 33.5 209.5q0 63 -21 88.5t-65 25.5h-34l-20 -147h101l-16 -112h-101l-22 -157h31q80 0 113.5 92.5z" />
<glyph unicode="&#xd1;" horiz-adv-x="580" d="M506 0h-235l-67 533q4 -82 4 -127q0 -97 -13 -193l-27 -213h-168l97 696h233l67 -534q-4 92 -4 129q0 86 12 181l30 224h168zM383 757.5q-14 6.5 -31 18.5q-13 9 -21.5 13.5t-16.5 4.5q-15 0 -26.5 -10.5t-26.5 -33.5l-79 46q27 57 64.5 94t78.5 37q20 0 34 -7t33 -20 q11 -9 19 -13t16 -4q14 0 25 10t25 33l80 -44q-26 -57 -64.5 -94t-79.5 -37q-16 0 -30 6.5z" />
<glyph unicode="&#xd2;" horiz-adv-x="624" d="M558.5 645q63.5 -70 63.5 -204q0 -119 -36 -224t-114 -171t-197 -66q-123 0 -186.5 70.5t-63.5 205.5q0 119 36 223.5t114 170t197 65.5q123 0 186.5 -70zM278.5 516q-30.5 -59 -43 -140t-12.5 -152q0 -55 15.5 -79t49.5 -24q50 0 80.5 57.5t43 137.5t12.5 154 q0 56 -16 80.5t-50 24.5q-49 0 -79.5 -59zM342 963l192 -133l-51 -86l-218 85z" />
<glyph unicode="&#xd3;" horiz-adv-x="624" d="M558.5 645q63.5 -70 63.5 -204q0 -119 -36 -224t-114 -171t-197 -66q-123 0 -186.5 70.5t-63.5 205.5q0 119 36 223.5t114 170t197 65.5q123 0 186.5 -70zM278.5 516q-30.5 -59 -43 -140t-12.5 -152q0 -55 15.5 -79t49.5 -24q50 0 80.5 57.5t43 137.5t12.5 154 q0 56 -16 80.5t-50 24.5q-49 0 -79.5 -59zM484 965l59 -134l-240 -88l-42 89z" />
<glyph unicode="&#xd4;" horiz-adv-x="624" d="M558.5 645q63.5 -70 63.5 -204q0 -119 -36 -224t-114 -171t-197 -66q-123 0 -186.5 70.5t-63.5 205.5q0 119 36 223.5t114 170t197 65.5q123 0 186.5 -70zM278.5 516q-30.5 -59 -43 -140t-12.5 -152q0 -55 15.5 -79t49.5 -24q50 0 80.5 57.5t43 137.5t12.5 154 q0 56 -16 80.5t-50 24.5q-49 0 -79.5 -59zM254 754l-61 74l150 138h111l115 -144l-72 -68l-111 87z" />
<glyph unicode="&#xd5;" horiz-adv-x="624" d="M558.5 645q63.5 -70 63.5 -204q0 -119 -36 -224t-114 -171t-197 -66q-123 0 -186.5 70.5t-63.5 205.5q0 119 36 223.5t114 170t197 65.5q123 0 186.5 -70zM278.5 516q-30.5 -59 -43 -140t-12.5 -152q0 -55 15.5 -79t49.5 -24q50 0 80.5 57.5t43 137.5t12.5 154 q0 56 -16 80.5t-50 24.5q-49 0 -79.5 -59zM404 757.5q-14 6.5 -31 18.5q-13 9 -21.5 13.5t-16.5 4.5q-15 0 -26.5 -10.5t-26.5 -33.5l-79 46q27 57 64.5 94t78.5 37q20 0 34 -7t33 -20q11 -9 19 -13t16 -4q14 0 25 10t25 33l80 -44q-26 -57 -64.5 -94t-79.5 -37 q-16 0 -30 6.5z" />
<glyph unicode="&#xd6;" horiz-adv-x="624" d="M558.5 645q63.5 -70 63.5 -204q0 -119 -36 -224t-114 -171t-197 -66q-123 0 -186.5 70.5t-63.5 205.5q0 119 36 223.5t114 170t197 65.5q123 0 186.5 -70zM278.5 516q-30.5 -59 -43 -140t-12.5 -152q0 -55 15.5 -79t49.5 -24q50 0 80.5 57.5t43 137.5t12.5 154 q0 56 -16 80.5t-50 24.5q-49 0 -79.5 -59zM207.5 782.5q-21.5 21.5 -21.5 56.5q0 43 29.5 72t71.5 29q38 0 59.5 -21.5t21.5 -56.5q0 -43 -29.5 -72t-72.5 -29q-37 0 -58.5 21.5zM430.5 782.5q-21.5 21.5 -21.5 56.5q0 43 29 72t72 29q37 0 58.5 -21.5t21.5 -56.5 q0 -43 -29 -72t-72 -29q-37 0 -58.5 21.5z" />
<glyph unicode="&#xd7;" horiz-adv-x="476" d="M372 522l90 -97l-123 -119l94 -123l-113 -93l-88 120l-115 -120l-91 97l121 117l-93 125l114 93l85 -122z" />
<glyph unicode="&#xd8;" horiz-adv-x="624" d="M599.5 574q22.5 -57 22.5 -133q0 -119 -36 -224t-114 -171t-197 -66q-11 0 -33 2l-46 -120l-136 38l52 131q-43 35 -65 92t-22 133q0 119 36 223.5t114 170t197 65.5q20 0 30 -1l48 118l134 -39l-51 -127q44 -35 66.5 -92zM274 517q-32 -59 -45.5 -141t-13.5 -154 q0 -17 2 -41l149 395h-8q-52 0 -84 -59zM373 177q32 58 45 139t13 156q0 17 -2 37l-147 -390h6q53 0 85 58z" />
<glyph unicode="&#xd9;" horiz-adv-x="573" d="M539 217q-9 -68 -45 -121t-97.5 -84t-145.5 -31q-116 0 -175 54t-59 145q0 21 3 42l67 474h193l-67 -487q-2 -20 -2 -28q0 -29 13 -43.5t41 -14.5q35 0 54 22.5t25 65.5l68 485h194zM318 963l192 -133l-51 -86l-218 85z" />
<glyph unicode="&#xda;" horiz-adv-x="573" d="M539 217q-9 -68 -45 -121t-97.5 -84t-145.5 -31q-116 0 -175 54t-59 145q0 21 3 42l67 474h193l-67 -487q-2 -20 -2 -28q0 -29 13 -43.5t41 -14.5q35 0 54 22.5t25 65.5l68 485h194zM460 965l59 -134l-240 -88l-42 89z" />
<glyph unicode="&#xdb;" horiz-adv-x="573" d="M539 217q-9 -68 -45 -121t-97.5 -84t-145.5 -31q-116 0 -175 54t-59 145q0 21 3 42l67 474h193l-67 -487q-2 -20 -2 -28q0 -29 13 -43.5t41 -14.5q35 0 54 22.5t25 65.5l68 485h194zM230 754l-61 74l150 138h111l115 -144l-72 -68l-111 87z" />
<glyph unicode="&#xdc;" horiz-adv-x="573" d="M539 217q-9 -68 -45 -121t-97.5 -84t-145.5 -31q-116 0 -175 54t-59 145q0 21 3 42l67 474h193l-67 -487q-2 -20 -2 -28q0 -29 13 -43.5t41 -14.5q35 0 54 22.5t25 65.5l68 485h194zM183.5 782.5q-21.5 21.5 -21.5 56.5q0 43 29.5 72t71.5 29q38 0 59.5 -21.5t21.5 -56.5 q0 -43 -29.5 -72t-72.5 -29q-37 0 -58.5 21.5zM406.5 782.5q-21.5 21.5 -21.5 56.5q0 43 29 72t72 29q37 0 58.5 -21.5t21.5 -56.5q0 -43 -29 -72t-72 -29q-37 0 -58.5 21.5z" />
<glyph unicode="&#xdd;" horiz-adv-x="554" d="M630 696l-257 -439l-36 -257h-194l36 257l-135 439h206l48 -292l125 292h207zM449 965l59 -134l-240 -88l-42 89z" />
<glyph unicode="&#xde;" horiz-adv-x="547" d="M488 540q65 -51 65 -152q0 -76 -32.5 -139.5t-99 -102t-164.5 -38.5h-49l-15 -108h-193l97 696h193l-15 -105h25q123 0 188 -51zM332 286.5q23 39.5 23 97.5q0 36 -17 53t-53 17h-29l-29 -207h28q54 0 77 39.5z" />
<glyph unicode="&#xdf;" horiz-adv-x="546" d="M-114 -90q53 20 80.5 49.5t35.5 83.5l67 488q15 110 82.5 171.5t179.5 61.5q88 0 135.5 -41.5t47.5 -105.5q0 -40 -14.5 -66t-41.5 -54q-20 -23 -29.5 -38.5t-9.5 -35.5q0 -17 9 -30t30 -35q34 -35 53.5 -70.5t19.5 -94.5q0 -54 -22.5 -102.5t-72 -79t-124.5 -30.5 q-59 0 -107 25l64 127q15 -8 30 -8q22 0 31.5 15.5t9.5 39.5q0 25 -9.5 44t-28.5 44q-22 29 -33.5 53.5t-11.5 61.5q0 38 11 64t32 56q19 27 28.5 48t9.5 50q0 32 -27 32q-24 0 -37 -24t-19 -73l-63 -463q-18 -127 -86 -193.5t-177 -105.5z" />
<glyph unicode="&#xe0;" horiz-adv-x="523" d="M420.5 538.5q54.5 -14.5 103.5 -42.5l-47 -328q-2 -20 -2 -27q0 -14 4.5 -22t16.5 -13l-56 -122q-46 4 -82 24t-50 56q-28 -41 -62.5 -62.5t-81.5 -21.5q-75 0 -114.5 54t-39.5 149t30.5 179t98 137.5t173.5 53.5q54 0 108.5 -14.5zM224 348.5q-25 -73.5 -25 -168.5 q0 -36 8.5 -49.5t23.5 -13.5q31 0 62 54l36 247q-15 4 -31 4q-49 0 -74 -73.5zM301 846l192 -143l-53 -85l-218 95z" />
<glyph unicode="&#xe1;" horiz-adv-x="523" d="M420.5 538.5q54.5 -14.5 103.5 -42.5l-47 -328q-2 -20 -2 -27q0 -14 4.5 -22t16.5 -13l-56 -122q-46 4 -82 24t-50 56q-28 -41 -62.5 -62.5t-81.5 -21.5q-75 0 -114.5 54t-39.5 149t30.5 179t98 137.5t173.5 53.5q54 0 108.5 -14.5zM224 348.5q-25 -73.5 -25 -168.5 q0 -36 8.5 -49.5t23.5 -13.5q31 0 62 54l36 247q-15 4 -31 4q-49 0 -74 -73.5zM428 847l59 -134l-239 -98l-45 91z" />
<glyph unicode="&#xe2;" horiz-adv-x="523" d="M420.5 538.5q54.5 -14.5 103.5 -42.5l-47 -328q-2 -20 -2 -27q0 -14 4.5 -22t16.5 -13l-56 -122q-46 4 -82 24t-50 56q-28 -41 -62.5 -62.5t-81.5 -21.5q-75 0 -114.5 54t-39.5 149t30.5 179t98 137.5t173.5 53.5q54 0 108.5 -14.5zM224 348.5q-25 -73.5 -25 -168.5 q0 -36 8.5 -49.5t23.5 -13.5q31 0 62 54l36 247q-15 4 -31 4q-49 0 -74 -73.5zM214 615l-58 73l151 148h111l113 -153l-74 -68l-108 96z" />
<glyph unicode="&#xe3;" horiz-adv-x="523" d="M420.5 538.5q54.5 -14.5 103.5 -42.5l-47 -328q-2 -20 -2 -27q0 -14 4.5 -22t16.5 -13l-56 -122q-46 4 -82 24t-50 56q-28 -41 -62.5 -62.5t-81.5 -21.5q-75 0 -114.5 54t-39.5 149t30.5 179t98 137.5t173.5 53.5q54 0 108.5 -14.5zM224 348.5q-25 -73.5 -25 -168.5 q0 -36 8.5 -49.5t23.5 -13.5q31 0 62 54l36 247q-15 4 -31 4q-49 0 -74 -73.5zM361 631.5q-14 6.5 -31 18.5q-13 9 -21.5 13.5t-16.5 4.5q-15 0 -26.5 -10.5t-26.5 -33.5l-79 46q27 57 64.5 94t78.5 37q20 0 34 -7t33 -20q11 -9 19 -13t16 -4q14 0 25 10t25 33l80 -44 q-26 -57 -64.5 -94t-79.5 -37q-16 0 -30 6.5z" />
<glyph unicode="&#xe4;" horiz-adv-x="523" d="M420.5 538.5q54.5 -14.5 103.5 -42.5l-47 -328q-2 -20 -2 -27q0 -14 4.5 -22t16.5 -13l-56 -122q-46 4 -82 24t-50 56q-28 -41 -62.5 -62.5t-81.5 -21.5q-75 0 -114.5 54t-39.5 149t30.5 179t98 137.5t173.5 53.5q54 0 108.5 -14.5zM224 348.5q-25 -73.5 -25 -168.5 q0 -36 8.5 -49.5t23.5 -13.5q31 0 62 54l36 247q-15 4 -31 4q-49 0 -74 -73.5zM167.5 656.5q-21.5 21.5 -21.5 56.5q0 43 29.5 72t71.5 29q38 0 59.5 -21.5t21.5 -56.5q0 -43 -29.5 -72t-72.5 -29q-37 0 -58.5 21.5zM390.5 656.5q-21.5 21.5 -21.5 56.5q0 43 29 72t72 29 q37 0 58.5 -21.5t21.5 -56.5q0 -43 -29 -72t-72 -29q-37 0 -58.5 21.5z" />
<glyph unicode="&#xe5;" horiz-adv-x="523" d="M420.5 538.5q54.5 -14.5 103.5 -42.5l-47 -328q-2 -20 -2 -27q0 -14 4.5 -22t16.5 -13l-56 -122q-46 4 -82 24t-50 56q-28 -41 -62.5 -62.5t-81.5 -21.5q-75 0 -114.5 54t-39.5 149t30.5 179t98 137.5t173.5 53.5q54 0 108.5 -14.5zM224 348.5q-25 -73.5 -25 -168.5 q0 -36 8.5 -49.5t23.5 -13.5q31 0 62 54l36 247q-15 4 -31 4q-49 0 -74 -73.5zM459.5 846q32.5 -35 32.5 -92q0 -42 -19.5 -78.5t-56 -58t-84.5 -21.5q-59 0 -91.5 35t-32.5 92q0 41 20 77.5t56.5 58.5t83.5 22q59 0 91.5 -35zM324 770q-13 -18 -13 -42q0 -38 31 -38 q21 0 34 18t13 41q0 39 -30 39q-22 0 -35 -18z" />
<glyph unicode="&#xe6;" horiz-adv-x="770" d="M352.5 538.5q32.5 -14.5 56.5 -43.5q32 27 76.5 42.5t95.5 15.5q90 0 141.5 -41t51.5 -106q0 -103 -88.5 -152t-220.5 -63q1 -42 17.5 -58.5t50.5 -16.5q28 0 55 11.5t64 35.5l63 -107q-95 -76 -210 -76q-131 0 -185 81q-38 -44 -80.5 -62t-91.5 -18q-69 0 -110.5 39.5 t-41.5 104.5q0 86 59.5 144.5t206.5 58.5h36q7 23 16 44q-4 22 -24.5 33t-50.5 11q-59 0 -128 -25l-25 122q48 19 96.5 29.5t87.5 10.5q50 0 82.5 -14.5zM505.5 394.5q-21.5 -37.5 -31.5 -95.5q64 5 91 36t27 63q0 34 -33 34q-32 0 -53.5 -37.5zM261 224q-32 0 -50.5 -18 t-18.5 -51q0 -41 32 -41q14 0 28 11t32 34q-2 24 -2 39l1 26h-22z" />
<glyph unicode="&#xe7;" horiz-adv-x="432" d="M264 -18l-5 -29q42 -6 64.5 -28.5t22.5 -61.5q0 -31 -16 -62t-53.5 -52t-97.5 -21q-34 0 -62 9.5t-48 24.5l51 79q27 -15 55 -15q42 0 43 29q0 15 -18.5 21t-61.5 6l27 106q-73 19 -112.5 76.5t-39.5 144.5q0 90 33.5 168.5t99 127t158.5 48.5q103 0 168 -71l-88 -103 q-38 32 -75 32q-55 0 -78.5 -62t-23.5 -144q0 -45 15 -62t43 -17q18 0 36.5 7.5t45.5 23.5l65 -113q-70 -55 -148 -62z" />
<glyph unicode="&#xe8;" horiz-adv-x="501" d="M453.5 511.5q51.5 -41.5 51.5 -107.5q0 -101 -89 -150t-221 -63q0 -75 69 -75q28 0 55 11.5t64 35.5l63 -107q-95 -76 -210 -76q-108 0 -166 56t-58 161q0 94 32 175t99.5 131t168.5 50q90 0 141.5 -41.5zM296.5 334.5q26.5 30.5 26.5 64.5q0 33 -32 33t-53.5 -37.5 t-32.5 -95.5q65 5 91.5 35.5zM279 846l192 -143l-53 -85l-218 95z" />
<glyph unicode="&#xe9;" horiz-adv-x="501" d="M453.5 511.5q51.5 -41.5 51.5 -107.5q0 -101 -89 -150t-221 -63q0 -75 69 -75q28 0 55 11.5t64 35.5l63 -107q-95 -76 -210 -76q-108 0 -166 56t-58 161q0 94 32 175t99.5 131t168.5 50q90 0 141.5 -41.5zM296.5 334.5q26.5 30.5 26.5 64.5q0 33 -32 33t-53.5 -37.5 t-32.5 -95.5q65 5 91.5 35.5zM406 847l59 -134l-239 -98l-45 91z" />
<glyph unicode="&#xea;" horiz-adv-x="501" d="M453.5 511.5q51.5 -41.5 51.5 -107.5q0 -101 -89 -150t-221 -63q0 -75 69 -75q28 0 55 11.5t64 35.5l63 -107q-95 -76 -210 -76q-108 0 -166 56t-58 161q0 94 32 175t99.5 131t168.5 50q90 0 141.5 -41.5zM296.5 334.5q26.5 30.5 26.5 64.5q0 33 -32 33t-53.5 -37.5 t-32.5 -95.5q65 5 91.5 35.5zM192 615l-58 73l151 148h111l113 -153l-74 -68l-108 96z" />
<glyph unicode="&#xeb;" horiz-adv-x="501" d="M453.5 511.5q51.5 -41.5 51.5 -107.5q0 -101 -89 -150t-221 -63q0 -75 69 -75q28 0 55 11.5t64 35.5l63 -107q-95 -76 -210 -76q-108 0 -166 56t-58 161q0 94 32 175t99.5 131t168.5 50q90 0 141.5 -41.5zM296.5 334.5q26.5 30.5 26.5 64.5q0 33 -32 33t-53.5 -37.5 t-32.5 -95.5q65 5 91.5 35.5zM145.5 656.5q-21.5 21.5 -21.5 56.5q0 43 29.5 72t71.5 29q38 0 59.5 -21.5t21.5 -56.5q0 -43 -29.5 -72t-72.5 -29q-37 0 -58.5 21.5zM368.5 656.5q-21.5 21.5 -21.5 56.5q0 43 29 72t72 29q37 0 58.5 -21.5t21.5 -56.5q0 -43 -29 -72t-72 -29 q-37 0 -58.5 21.5z" />
<glyph unicode="&#xec;" horiz-adv-x="254" d="M257 534l-74 -534h-186l74 534h186zM143 846l192 -143l-53 -85l-218 95z" />
<glyph unicode="&#xed;" horiz-adv-x="254" d="M257 534l-74 -534h-186l74 534h186zM270 847l59 -134l-239 -98l-45 91z" />
<glyph unicode="&#xee;" horiz-adv-x="254" d="M257 534l-74 -534h-186l74 534h186zM56 615l-58 73l151 148h111l113 -153l-74 -68l-108 96z" />
<glyph unicode="&#xef;" horiz-adv-x="254" d="M257 534l-74 -534h-186l74 534h186zM9.5 656.5q-21.5 21.5 -21.5 56.5q0 43 29.5 72t71.5 29q38 0 59.5 -21.5t21.5 -56.5q0 -43 -29.5 -72t-72.5 -29q-37 0 -58.5 21.5zM232.5 656.5q-21.5 21.5 -21.5 56.5q0 43 29 72t72 29q37 0 58.5 -21.5t21.5 -56.5q0 -43 -29 -72 t-72 -29q-37 0 -58.5 21.5z" />
<glyph unicode="&#xf0;" horiz-adv-x="530" d="M486 541q31 -72 31 -162q0 -111 -34.5 -201.5t-100.5 -143.5t-159 -53q-96 0 -155 56t-59 155q0 68 28 135.5t78.5 110.5t115.5 43q35 0 60.5 -10t47.5 -30q-7 42 -21 72t-41 58l-50 -49l-101 53l53 52q-41 12 -69 17l50 118q56 -9 125 -34l80 80l81 -76l-58 -61 q67 -58 98 -130zM287 142q17 26 25 68t17 117q-21 25 -52 25q-42 0 -62 -55t-20 -117q0 -35 11.5 -49.5t33.5 -14.5q30 0 47 26z" />
<glyph unicode="&#xf1;" horiz-adv-x="508" d="M471.5 520.5q28.5 -32.5 28.5 -90.5q0 -17 -3 -37l-56 -393h-186l49 351q1 7 1 18q0 12 -3 16.5t-9 4.5q-13 0 -28.5 -23.5t-40.5 -78.5l-41 -288h-186l74 534h162l1 -83q29 46 70 74t88 28q51 0 79.5 -32.5zM335 631.5q-14 6.5 -31 18.5q-13 9 -21.5 13.5t-16.5 4.5 q-15 0 -26.5 -10.5t-26.5 -33.5l-79 46q27 57 64.5 94t78.5 37q20 0 34 -7t33 -20q11 -9 19 -13t16 -4q14 0 25 10t25 33l80 -44q-26 -57 -64.5 -94t-79.5 -37q-16 0 -30 6.5z" />
<glyph unicode="&#xf2;" horiz-adv-x="529" d="M69.5 37q-56.5 57 -56.5 165q0 93 30.5 173t95.5 129t162 49q101 0 158 -57.5t57 -164.5q-1 -94 -31.5 -173.5t-95.5 -128.5t-162 -49q-101 0 -157.5 57zM307.5 194.5q19.5 77.5 19.5 162.5q0 32 -9.5 46t-30.5 14q-46 0 -66 -75.5t-20 -159.5q0 -35 9.5 -50t30.5 -15 q47 0 66.5 77.5zM276 846l192 -143l-53 -85l-218 95z" />
<glyph unicode="&#xf3;" horiz-adv-x="529" d="M69.5 37q-56.5 57 -56.5 165q0 93 30.5 173t95.5 129t162 49q101 0 158 -57.5t57 -164.5q-1 -94 -31.5 -173.5t-95.5 -128.5t-162 -49q-101 0 -157.5 57zM307.5 194.5q19.5 77.5 19.5 162.5q0 32 -9.5 46t-30.5 14q-46 0 -66 -75.5t-20 -159.5q0 -35 9.5 -50t30.5 -15 q47 0 66.5 77.5zM403 847l59 -134l-239 -98l-45 91z" />
<glyph unicode="&#xf4;" horiz-adv-x="529" d="M69.5 37q-56.5 57 -56.5 165q0 93 30.5 173t95.5 129t162 49q101 0 158 -57.5t57 -164.5q-1 -94 -31.5 -173.5t-95.5 -128.5t-162 -49q-101 0 -157.5 57zM307.5 194.5q19.5 77.5 19.5 162.5q0 32 -9.5 46t-30.5 14q-46 0 -66 -75.5t-20 -159.5q0 -35 9.5 -50t30.5 -15 q47 0 66.5 77.5zM189 615l-58 73l151 148h111l113 -153l-74 -68l-108 96z" />
<glyph unicode="&#xf5;" horiz-adv-x="529" d="M69.5 37q-56.5 57 -56.5 165q0 93 30.5 173t95.5 129t162 49q101 0 158 -57.5t57 -164.5q-1 -94 -31.5 -173.5t-95.5 -128.5t-162 -49q-101 0 -157.5 57zM307.5 194.5q19.5 77.5 19.5 162.5q0 32 -9.5 46t-30.5 14q-46 0 -66 -75.5t-20 -159.5q0 -35 9.5 -50t30.5 -15 q47 0 66.5 77.5zM336 631.5q-14 6.5 -31 18.5q-13 9 -21.5 13.5t-16.5 4.5q-15 0 -26.5 -10.5t-26.5 -33.5l-79 46q27 57 64.5 94t78.5 37q20 0 34 -7t33 -20q11 -9 19 -13t16 -4q14 0 25 10t25 33l80 -44q-26 -57 -64.5 -94t-79.5 -37q-16 0 -30 6.5z" />
<glyph unicode="&#xf6;" horiz-adv-x="529" d="M69.5 37q-56.5 57 -56.5 165q0 93 30.5 173t95.5 129t162 49q101 0 158 -57.5t57 -164.5q-1 -94 -31.5 -173.5t-95.5 -128.5t-162 -49q-101 0 -157.5 57zM307.5 194.5q19.5 77.5 19.5 162.5q0 32 -9.5 46t-30.5 14q-46 0 -66 -75.5t-20 -159.5q0 -35 9.5 -50t30.5 -15 q47 0 66.5 77.5zM142.5 656.5q-21.5 21.5 -21.5 56.5q0 43 29.5 72t71.5 29q38 0 59.5 -21.5t21.5 -56.5q0 -43 -29.5 -72t-72.5 -29q-37 0 -58.5 21.5zM365.5 656.5q-21.5 21.5 -21.5 56.5q0 43 29 72t72 29q37 0 58.5 -21.5t21.5 -56.5q0 -43 -29 -72t-72 -29 q-37 0 -58.5 21.5z" />
<glyph unicode="&#xf7;" horiz-adv-x="476" d="M143.5 9.5q-23.5 25.5 -23.5 63.5q0 47 31.5 79.5t78.5 32.5q39 0 62.5 -25t23.5 -64q0 -47 -31.5 -79.5t-78.5 -32.5q-39 0 -62.5 25.5zM212.5 503.5q-23.5 25.5 -23.5 63.5q0 47 31.5 79.5t78.5 32.5q39 0 62.5 -25t23.5 -64q0 -47 -31.5 -79.5t-78.5 -32.5 q-39 0 -62.5 25.5zM34 260l20 144h406l-20 -144h-406z" />
<glyph unicode="&#xf8;" horiz-adv-x="529" d="M496.5 434.5q19.5 -45.5 19.5 -103.5q-1 -94 -31.5 -173.5t-95.5 -128.5t-162 -49q-12 0 -18 1l-48 -118l-125 39l52 121q-36 29 -55.5 74.5t-19.5 104.5q0 93 30.5 173t95.5 129t162 49q12 0 18 -1l49 120l125 -40l-53 -123q37 -29 56.5 -74.5zM207.5 349 q-26.5 -75 -26.5 -165q0 -13 2 -29l104 267l1 3q-54 -1 -80.5 -76zM301.5 147q23.5 38 34.5 93t11 108q0 16 -1 23l-103 -260l-1 -3q36 1 59.5 39z" />
<glyph unicode="&#xf9;" horiz-adv-x="503" d="M39 13q-29 33 -29 91q0 19 3 40l54 390h186l-49 -356q-1 -6 -1 -15q0 -23 16 -23q24 0 54 54l47 340h186l-74 -534h-162l2 68q-66 -88 -149 -88q-55 0 -84 33zM266 846l192 -143l-53 -85l-218 95z" />
<glyph unicode="&#xfa;" horiz-adv-x="503" d="M39 13q-29 33 -29 91q0 19 3 40l54 390h186l-49 -356q-1 -6 -1 -15q0 -23 16 -23q24 0 54 54l47 340h186l-74 -534h-162l2 68q-66 -88 -149 -88q-55 0 -84 33zM393 847l59 -134l-239 -98l-45 91z" />
<glyph unicode="&#xfb;" horiz-adv-x="503" d="M39 13q-29 33 -29 91q0 19 3 40l54 390h186l-49 -356q-1 -6 -1 -15q0 -23 16 -23q24 0 54 54l47 340h186l-74 -534h-162l2 68q-66 -88 -149 -88q-55 0 -84 33zM179 615l-58 73l151 148h111l113 -153l-74 -68l-108 96z" />
<glyph unicode="&#xfc;" horiz-adv-x="503" d="M39 13q-29 33 -29 91q0 19 3 40l54 390h186l-49 -356q-1 -6 -1 -15q0 -23 16 -23q24 0 54 54l47 340h186l-74 -534h-162l2 68q-66 -88 -149 -88q-55 0 -84 33zM132.5 656.5q-21.5 21.5 -21.5 56.5q0 43 29.5 72t71.5 29q38 0 59.5 -21.5t21.5 -56.5q0 -43 -29.5 -72 t-72.5 -29q-37 0 -58.5 21.5zM355.5 656.5q-21.5 21.5 -21.5 56.5q0 43 29 72t72 29q37 0 58.5 -21.5t21.5 -56.5q0 -43 -29 -72t-72 -29q-37 0 -58.5 21.5z" />
<glyph unicode="&#xfd;" horiz-adv-x="477" d="M316 0q-45 -114 -128.5 -168t-208.5 -59l-3 128q70 8 107 29.5t63 69.5h-66l-57 534h193l-2 -416l120 416h196zM382 847l59 -134l-239 -98l-45 91z" />
<glyph unicode="&#xfe;" horiz-adv-x="533" d="M485.5 504q36.5 -49 36.5 -141q0 -104 -27 -190.5t-86.5 -139.5t-152.5 -53q-38 0 -76 10l-28 -197l-188 -19l136 970l188 19l-38 -268q22 26 57.5 42t70.5 16q71 0 107.5 -49zM292.5 154q21.5 39 31 94.5t9.5 105.5q0 37 -9 50t-26 13q-33 0 -64 -46l-35 -247 q18 -9 39 -9q33 0 54.5 39z" />
<glyph unicode="&#xff;" horiz-adv-x="477" d="M316 0q-45 -114 -128.5 -168t-208.5 -59l-3 128q70 8 107 29.5t63 69.5h-66l-57 534h193l-2 -416l120 416h196zM121.5 656.5q-21.5 21.5 -21.5 56.5q0 43 29.5 72t71.5 29q38 0 59.5 -21.5t21.5 -56.5q0 -43 -29.5 -72t-72.5 -29q-37 0 -58.5 21.5zM344.5 656.5 q-21.5 21.5 -21.5 56.5q0 43 29 72t72 29q37 0 58.5 -21.5t21.5 -56.5q0 -43 -29 -72t-72 -29q-37 0 -58.5 21.5z" />
<glyph unicode="&#x100;" horiz-adv-x="542" d="M324 0l-4 138h-138l-40 -138h-201l274 696h231l79 -696h-201zM222 276h94l-8 294zM485 775h-292l19 130h293z" />
<glyph unicode="&#x101;" horiz-adv-x="523" d="M420.5 538.5q54.5 -14.5 103.5 -42.5l-47 -328q-2 -20 -2 -27q0 -14 4.5 -22t16.5 -13l-56 -122q-46 4 -82 24t-50 56q-28 -41 -62.5 -62.5t-81.5 -21.5q-75 0 -114.5 54t-39.5 149t30.5 179t98 137.5t173.5 53.5q54 0 108.5 -14.5zM224 348.5q-25 -73.5 -25 -168.5 q0 -36 8.5 -49.5t23.5 -13.5q31 0 62 54l36 247q-15 4 -31 4q-49 0 -74 -73.5zM483 649h-292l19 130h293z" />
<glyph unicode="&#x102;" horiz-adv-x="542" d="M324 0l-4 138h-138l-40 -138h-201l274 696h231l79 -696h-201zM222 276h94l-8 294zM231.5 793.5q-36.5 46.5 -36.5 115.5q0 13 1 20l95 15q2 -30 17 -49t43 -19q55 0 81 70l97 -19q-15 -77 -63 -128.5t-125 -51.5q-73 0 -109.5 46.5z" />
<glyph unicode="&#x103;" horiz-adv-x="523" d="M420.5 538.5q54.5 -14.5 103.5 -42.5l-47 -328q-2 -20 -2 -27q0 -14 4.5 -22t16.5 -13l-56 -122q-46 4 -82 24t-50 56q-28 -41 -62.5 -62.5t-81.5 -21.5q-75 0 -114.5 54t-39.5 149t30.5 179t98 137.5t173.5 53.5q54 0 108.5 -14.5zM224 348.5q-25 -73.5 -25 -168.5 q0 -36 8.5 -49.5t23.5 -13.5q31 0 62 54l36 247q-15 4 -31 4q-49 0 -74 -73.5zM223.5 675q-36.5 48 -36.5 123q0 15 1 22l96 14q2 -36 17.5 -57t43.5 -21q29 0 50 21.5t33 58.5l92 -19q-15 -82 -62.5 -136t-123.5 -54q-74 0 -110.5 48z" />
<glyph unicode="&#x104;" horiz-adv-x="542" d="M340 -54q-25 -29 -25 -54q0 -33 40 -33q15 0 53 6l-26 -109q-30 -8 -67 -8q-57 0 -93.5 30t-36.5 83q0 105 138 167l-3 110h-138l-40 -138h-201l274 696h231l79 -696h-94q-66 -25 -91 -54zM222 276h94l-8 294z" />
<glyph unicode="&#x105;" horiz-adv-x="523" d="M475 141q0 -14 4.5 -22t16.5 -13l-56 -122q-66 -25 -91 -54t-25 -54q0 -33 40 -33q15 0 53 6l-26 -109q-30 -8 -67 -8q-57 0 -93.5 30t-36.5 83q0 55 37 97.5t113 74.5q-24 18 -36 47q-28 -41 -62.5 -62.5t-81.5 -21.5q-75 0 -114.5 54t-39.5 149t30.5 179t98 137.5 t173.5 53.5q54 0 108.5 -14.5t103.5 -42.5l-47 -328q-2 -20 -2 -27zM329 418q-15 4 -31 4q-49 0 -74 -73.5t-25 -168.5q0 -36 8.5 -49.5t23.5 -13.5q31 0 62 54z" />
<glyph unicode="&#x106;" horiz-adv-x="524" d="M570 631l-101 -100q-45 42 -95 42q-53 0 -86.5 -50.5t-48 -123.5t-14.5 -144q0 -65 21.5 -95.5t63.5 -30.5q29 0 55.5 13.5t63.5 40.5l71 -109q-102 -94 -228 -94q-114 0 -180.5 71.5t-66.5 208.5q0 119 37.5 222.5t116 168t195.5 64.5q123 0 196 -84zM492 965l59 -134 l-240 -88l-42 89z" />
<glyph unicode="&#x107;" horiz-adv-x="432" d="M472 482l-88 -103q-38 32 -75 32q-55 0 -78.5 -62t-23.5 -144q0 -45 15 -62t43 -17q18 0 36.5 7.5t45.5 23.5l65 -113q-80 -64 -179 -64q-103 0 -161.5 61.5t-58.5 167.5q0 90 33.5 168.5t99 127t158.5 48.5q103 0 168 -71zM405 847l59 -134l-239 -98l-45 91z" />
<glyph unicode="&#x108;" horiz-adv-x="524" d="M570 631l-101 -100q-45 42 -95 42q-53 0 -86.5 -50.5t-48 -123.5t-14.5 -144q0 -65 21.5 -95.5t63.5 -30.5q29 0 55.5 13.5t63.5 40.5l71 -109q-102 -94 -228 -94q-114 0 -180.5 71.5t-66.5 208.5q0 119 37.5 222.5t116 168t195.5 64.5q123 0 196 -84zM262 754l-61 74 l150 138h111l115 -144l-72 -68l-111 87z" />
<glyph unicode="&#x109;" horiz-adv-x="432" d="M472 482l-88 -103q-38 32 -75 32q-55 0 -78.5 -62t-23.5 -144q0 -45 15 -62t43 -17q18 0 36.5 7.5t45.5 23.5l65 -113q-80 -64 -179 -64q-103 0 -161.5 61.5t-58.5 167.5q0 90 33.5 168.5t99 127t158.5 48.5q103 0 168 -71zM191 615l-58 73l151 148h111l113 -153l-74 -68 l-108 96z" />
<glyph unicode="&#x10a;" horiz-adv-x="524" d="M570 631l-101 -100q-45 42 -95 42q-53 0 -86.5 -50.5t-48 -123.5t-14.5 -144q0 -65 21.5 -95.5t63.5 -30.5q29 0 55.5 13.5t63.5 40.5l71 -109q-102 -94 -228 -94q-114 0 -180.5 71.5t-66.5 208.5q0 119 37.5 222.5t116 168t195.5 64.5q123 0 196 -84zM323 770.5 q-25 24.5 -25 64.5q0 50 34 83t83 33q43 0 68 -24.5t25 -64.5q0 -50 -33.5 -83t-83.5 -33q-43 0 -68 24.5z" />
<glyph unicode="&#x10b;" horiz-adv-x="432" d="M472 482l-88 -103q-38 32 -75 32q-55 0 -78.5 -62t-23.5 -144q0 -45 15 -62t43 -17q18 0 36.5 7.5t45.5 23.5l65 -113q-80 -64 -179 -64q-103 0 -161.5 61.5t-58.5 167.5q0 90 33.5 168.5t99 127t158.5 48.5q103 0 168 -71zM246 644.5q-25 24.5 -25 64.5q0 50 34 83 t83 33q43 0 68 -24.5t25 -64.5q0 -50 -33.5 -83t-83.5 -33q-43 0 -68 24.5z" />
<glyph unicode="&#x10c;" horiz-adv-x="524" d="M570 631l-101 -100q-45 42 -95 42q-53 0 -86.5 -50.5t-48 -123.5t-14.5 -144q0 -65 21.5 -95.5t63.5 -30.5q29 0 55.5 13.5t63.5 40.5l71 -109q-102 -94 -228 -94q-114 0 -180.5 71.5t-66.5 208.5q0 119 37.5 222.5t116 168t195.5 64.5q123 0 196 -84zM529 959l61 -73 l-150 -138h-110l-116 144l72 67l111 -87z" />
<glyph unicode="&#x10d;" horiz-adv-x="432" d="M472 482l-88 -103q-38 32 -75 32q-55 0 -78.5 -62t-23.5 -144q0 -45 15 -62t43 -17q18 0 36.5 7.5t45.5 23.5l65 -113q-80 -64 -179 -64q-103 0 -161.5 61.5t-58.5 167.5q0 90 33.5 168.5t99 127t158.5 48.5q103 0 168 -71zM456 825l59 -73l-150 -148h-111l-109 148 l68 73l108 -96z" />
<glyph unicode="&#x10e;" horiz-adv-x="592" d="M510.5 640q78.5 -56 78.5 -201q0 -201 -89 -320t-285 -119h-216l98 696h203q132 0 210.5 -56zM271 556l-58 -416h31q80 0 113.5 92.5t33.5 209.5q0 63 -21 88.5t-65 25.5h-34zM471 959l61 -73l-150 -138h-110l-116 144l72 67l111 -87z" />
<glyph unicode="&#x10f;" horiz-adv-x="647" d="M568 744l-104 -744h-165l1 62q-28 -39 -61.5 -60.5t-79.5 -21.5q-73 0 -111 52.5t-38 150.5q0 91 27 176t81.5 139.5t130.5 54.5q63 0 100 -43l35 253zM240 380q-20 -38 -29.5 -92t-9.5 -103q0 -40 8.5 -54t23.5 -14q30 0 70 64l30 214q-18 23 -42 23q-31 0 -51 -38z M605 759l129 -16l-76 -231l-92 8z" />
<glyph unicode="&#x110;" horiz-adv-x="600" d="M518.5 640q78.5 -56 78.5 -201q0 -201 -89 -320t-285 -119h-216l42 297h-40l17 112h39l40 287h203q132 0 210.5 -56zM365.5 232.5q33.5 92.5 33.5 209.5q0 63 -21 88.5t-65 25.5h-34l-20 -147h101l-16 -112h-101l-22 -157h31q80 0 113.5 92.5z" />
<glyph unicode="&#x111;" horiz-adv-x="545" d="M605 694l-15 -103h-43l-83 -591h-165l1 62q-28 -39 -61.5 -60.5t-79.5 -21.5q-73 0 -111 52.5t-38 150.5q0 91 27 176t81.5 139.5t130.5 54.5q63 0 100 -43l11 81h-98l3 103h109l10 69l184 -19l-7 -50h44zM333 395q-18 23 -42 23q-31 0 -51 -38t-29.5 -92t-9.5 -103 q0 -40 8.5 -54t23.5 -14q30 0 70 64z" />
<glyph unicode="&#x112;" horiz-adv-x="461" d="M509 696l-41 -138h-197l-19 -138h174l-19 -134h-174l-20 -147h213l-20 -139h-407l98 696h412zM457 775h-292l19 130h293z" />
<glyph unicode="&#x113;" horiz-adv-x="501" d="M453.5 511.5q51.5 -41.5 51.5 -107.5q0 -101 -89 -150t-221 -63q0 -75 69 -75q28 0 55 11.5t64 35.5l63 -107q-95 -76 -210 -76q-108 0 -166 56t-58 161q0 94 32 175t99.5 131t168.5 50q90 0 141.5 -41.5zM296.5 334.5q26.5 30.5 26.5 64.5q0 33 -32 33t-53.5 -37.5 t-32.5 -95.5q65 5 91.5 35.5zM461 649h-292l19 130h293z" />
<glyph unicode="&#x114;" horiz-adv-x="461" d="M509 696l-41 -138h-197l-19 -138h174l-19 -134h-174l-20 -147h213l-20 -139h-407l98 696h412zM203.5 793.5q-36.5 46.5 -36.5 115.5q0 13 1 20l95 15q2 -30 17 -49t43 -19q55 0 81 70l97 -19q-15 -77 -63 -128.5t-125 -51.5q-73 0 -109.5 46.5z" />
<glyph unicode="&#x115;" horiz-adv-x="501" d="M453.5 511.5q51.5 -41.5 51.5 -107.5q0 -101 -89 -150t-221 -63q0 -75 69 -75q28 0 55 11.5t64 35.5l63 -107q-95 -76 -210 -76q-108 0 -166 56t-58 161q0 94 32 175t99.5 131t168.5 50q90 0 141.5 -41.5zM296.5 334.5q26.5 30.5 26.5 64.5q0 33 -32 33t-53.5 -37.5 t-32.5 -95.5q65 5 91.5 35.5zM201.5 675q-36.5 48 -36.5 123q0 15 1 22l96 14q2 -36 17.5 -57t43.5 -21q29 0 50 21.5t33 58.5l92 -19q-15 -82 -62.5 -136t-123.5 -54q-74 0 -110.5 48z" />
<glyph unicode="&#x116;" horiz-adv-x="461" d="M509 696l-41 -138h-197l-19 -138h174l-19 -134h-174l-20 -147h213l-20 -139h-407l98 696h412zM248 770.5q-25 24.5 -25 64.5q0 50 34 83t83 33q43 0 68 -24.5t25 -64.5q0 -50 -33.5 -83t-83.5 -33q-43 0 -68 24.5z" />
<glyph unicode="&#x117;" horiz-adv-x="501" d="M453.5 511.5q51.5 -41.5 51.5 -107.5q0 -101 -89 -150t-221 -63q0 -75 69 -75q28 0 55 11.5t64 35.5l63 -107q-95 -76 -210 -76q-108 0 -166 56t-58 161q0 94 32 175t99.5 131t168.5 50q90 0 141.5 -41.5zM296.5 334.5q26.5 30.5 26.5 64.5q0 33 -32 33t-53.5 -37.5 t-32.5 -95.5q65 5 91.5 35.5zM247 644.5q-25 24.5 -25 64.5q0 50 34 83t83 33q43 0 68 -24.5t25 -64.5q0 -50 -33.5 -83t-83.5 -33q-43 0 -68 24.5z" />
<glyph unicode="&#x118;" horiz-adv-x="461" d="M271 558l-19 -138h174l-19 -134h-174l-20 -147h213l-20 -139h-35q-66 -25 -91 -54t-25 -54q0 -33 40 -33q15 0 53 6l-26 -109q-30 -8 -67 -8q-57 0 -93.5 30t-36.5 83q0 83 86 139h-212l98 696h412l-41 -138h-197z" />
<glyph unicode="&#x119;" horiz-adv-x="501" d="M453.5 511.5q51.5 -41.5 51.5 -107.5q0 -101 -89 -150t-221 -63q0 -75 69 -75q28 0 55 11.5t64 35.5l63 -107q-53 -42 -113 -61q-45 -22 -63.5 -46.5t-18.5 -45.5q0 -33 38 -33q25 0 57 8l-27 -111q-32 -8 -68 -8q-58 0 -95 28.5t-37 77.5q0 72 72 118q-87 11 -133 65.5 t-46 147.5q0 95 32 176t99.5 131t168.5 50q90 0 141.5 -41.5zM296.5 334.5q26.5 30.5 26.5 64.5q0 33 -32 33t-53.5 -37.5t-32.5 -95.5q65 5 91.5 35.5z" />
<glyph unicode="&#x11a;" horiz-adv-x="461" d="M509 696l-41 -138h-197l-19 -138h174l-19 -134h-174l-20 -147h213l-20 -139h-407l98 696h412zM454 959l61 -73l-150 -138h-110l-116 144l72 67l111 -87z" />
<glyph unicode="&#x11b;" horiz-adv-x="501" d="M453.5 511.5q51.5 -41.5 51.5 -107.5q0 -101 -89 -150t-221 -63q0 -75 69 -75q28 0 55 11.5t64 35.5l63 -107q-95 -76 -210 -76q-108 0 -166 56t-58 161q0 94 32 175t99.5 131t168.5 50q90 0 141.5 -41.5zM296.5 334.5q26.5 30.5 26.5 64.5q0 33 -32 33t-53.5 -37.5 t-32.5 -95.5q65 5 91.5 35.5zM457 825l59 -73l-150 -148h-111l-109 148l68 73l108 -96z" />
<glyph unicode="&#x11c;" horiz-adv-x="588" d="M517.5 690q53.5 -25 89.5 -66l-103 -94q-30 25 -54.5 36t-56.5 11q-92 0 -132 -106t-40 -245q0 -57 17 -81t52 -24q34 0 66 19l19 133h-59l1 134h260l-48 -349q-55 -37 -121.5 -57t-127.5 -20q-256 0 -256 270q0 123 41 228.5t125 170.5t207 65q67 0 120.5 -25zM265 754 l-61 74l150 138h111l115 -144l-72 -68l-111 87z" />
<glyph unicode="&#x11d;" horiz-adv-x="525" d="M424 538.5q55 -14.5 104 -42.5l-64 -452q-20 -140 -85 -205t-193 -65q-51 0 -101.5 15.5t-93.5 43.5l63 120q67 -39 127 -39q40 0 65 20t33 75l8 55q-50 -65 -122 -65q-74 0 -113.5 54t-39.5 146t30.5 172.5t98.5 131t174 50.5q54 0 109 -14.5zM226 355q-25 -67 -25 -156 q0 -35 9 -48.5t25 -13.5q31 0 65 53l32 228q-13 4 -30 4q-51 0 -76 -67zM202 615l-58 73l151 148h111l113 -153l-74 -68l-108 96z" />
<glyph unicode="&#x11e;" horiz-adv-x="588" d="M517.5 690q53.5 -25 89.5 -66l-103 -94q-30 25 -54.5 36t-56.5 11q-92 0 -132 -106t-40 -245q0 -57 17 -81t52 -24q34 0 66 19l19 133h-59l1 134h260l-48 -349q-55 -37 -121.5 -57t-127.5 -20q-256 0 -256 270q0 123 41 228.5t125 170.5t207 65q67 0 120.5 -25z M281.5 793.5q-36.5 46.5 -36.5 115.5q0 13 1 20l95 15q2 -30 17 -49t43 -19q55 0 81 70l97 -19q-15 -77 -63 -128.5t-125 -51.5q-73 0 -109.5 46.5z" />
<glyph unicode="&#x11f;" horiz-adv-x="525" d="M424 538.5q55 -14.5 104 -42.5l-64 -452q-20 -140 -85 -205t-193 -65q-51 0 -101.5 15.5t-93.5 43.5l63 120q67 -39 127 -39q40 0 65 20t33 75l8 55q-50 -65 -122 -65q-74 0 -113.5 54t-39.5 146t30.5 172.5t98.5 131t174 50.5q54 0 109 -14.5zM226 355q-25 -67 -25 -156 q0 -35 9 -48.5t25 -13.5q31 0 65 53l32 228q-13 4 -30 4q-51 0 -76 -67zM211.5 675q-36.5 48 -36.5 123q0 15 1 22l96 14q2 -36 17.5 -57t43.5 -21q29 0 50 21.5t33 58.5l92 -19q-15 -82 -62.5 -136t-123.5 -54q-74 0 -110.5 48z" />
<glyph unicode="&#x120;" horiz-adv-x="588" d="M517.5 690q53.5 -25 89.5 -66l-103 -94q-30 25 -54.5 36t-56.5 11q-92 0 -132 -106t-40 -245q0 -57 17 -81t52 -24q34 0 66 19l19 133h-59l1 134h260l-48 -349q-55 -37 -121.5 -57t-127.5 -20q-256 0 -256 270q0 123 41 228.5t125 170.5t207 65q67 0 120.5 -25z M326 770.5q-25 24.5 -25 64.5q0 50 34 83t83 33q43 0 68 -24.5t25 -64.5q0 -50 -33.5 -83t-83.5 -33q-43 0 -68 24.5z" />
<glyph unicode="&#x121;" horiz-adv-x="525" d="M424 538.5q55 -14.5 104 -42.5l-64 -452q-20 -140 -85 -205t-193 -65q-51 0 -101.5 15.5t-93.5 43.5l63 120q67 -39 127 -39q40 0 65 20t33 75l8 55q-50 -65 -122 -65q-74 0 -113.5 54t-39.5 146t30.5 172.5t98.5 131t174 50.5q54 0 109 -14.5zM226 355q-25 -67 -25 -156 q0 -35 9 -48.5t25 -13.5q31 0 65 53l32 228q-13 4 -30 4q-51 0 -76 -67zM257 644.5q-25 24.5 -25 64.5q0 50 34 83t83 33q43 0 68 -24.5t25 -64.5q0 -50 -33.5 -83t-83.5 -33q-43 0 -68 24.5z" />
<glyph unicode="&#x122;" horiz-adv-x="588" d="M517.5 690q53.5 -25 89.5 -66l-103 -94q-30 25 -54.5 36t-56.5 11q-92 0 -132 -106t-40 -245q0 -57 17 -81t52 -24q34 0 66 19l19 133h-59l1 134h260l-48 -349q-55 -37 -121.5 -57t-127.5 -20q-256 0 -256 270q0 123 41 228.5t125 170.5t207 65q67 0 120.5 -25z M330.5 -84.5q22.5 -21.5 22.5 -55.5q0 -25 -8.5 -46.5t-29.5 -55.5l-59 -97h-87l41 117q-31 21 -31 58q0 44 27 72.5t67 28.5q35 0 57.5 -21.5z" />
<glyph unicode="&#x123;" horiz-adv-x="525" d="M424 538.5q55 -14.5 104 -42.5l-64 -452q-20 -140 -85 -205t-193 -65q-51 0 -101.5 15.5t-93.5 43.5l63 120q67 -39 127 -39q40 0 65 20t33 75l8 55q-50 -65 -122 -65q-74 0 -113.5 54t-39.5 146t30.5 172.5t98.5 131t174 50.5q54 0 109 -14.5zM226 355q-25 -67 -25 -156 q0 -35 9 -48.5t25 -13.5q31 0 65 53l32 228q-13 4 -30 4q-51 0 -76 -67zM261.5 608.5q-22.5 21.5 -22.5 55.5q0 25 8.5 46.5t29.5 55.5l59 97h87l-41 -117q31 -21 31 -58q0 -44 -27 -72.5t-67 -28.5q-35 0 -57.5 21.5z" />
<glyph unicode="&#x124;" horiz-adv-x="585" d="M192 0h-193l98 696h193l-36 -260h124l36 260h194l-97 -696h-194l39 284h-123zM237 754l-61 74l150 138h111l115 -144l-72 -68l-111 87z" />
<glyph unicode="&#x125;" horiz-adv-x="508" d="M470.5 520.5q28.5 -32.5 28.5 -90.5q0 -17 -3 -37l-56 -393h-186l49 351q1 7 1 18q0 12 -3 16.5t-9 4.5q-13 0 -29 -24t-41 -78l-40 -288h-186l104 744l188 19l-42 -306q24 41 62.5 68.5t83.5 27.5q50 0 78.5 -32.5zM204 802l-61 74l150 138h111l115 -144l-72 -68 l-111 87z" />
<glyph unicode="&#x126;" horiz-adv-x="604" d="M647 599l-15 -103h-42l-69 -496h-194l39 284h-123l-41 -284h-193l70 496h-44l15 103h43l14 97h193l-13 -97h124l13 97h194l-14 -97h43zM388 436l8 60h-124l-8 -60h124z" />
<glyph unicode="&#x127;" horiz-adv-x="517" d="M479.5 520.5q28.5 -32.5 28.5 -90.5q0 -17 -3 -37l-56 -393h-186l49 351q1 7 1 18q0 12 -3 16.5t-9 4.5q-13 0 -29 -24t-41 -78l-40 -288h-186l83 591h-42l14 103h42l7 50l188 19l-9 -69h114l-29 -103h-100l-18 -134q24 41 62.5 68.5t83.5 27.5q50 0 78.5 -32.5z" />
<glyph unicode="&#x128;" horiz-adv-x="267" d="M290 696l-97 -696h-194l98 696h193zM228 757.5q-14 6.5 -31 18.5q-13 9 -21.5 13.5t-16.5 4.5q-15 0 -26.5 -10.5t-26.5 -33.5l-79 46q27 57 64.5 94t78.5 37q20 0 34 -7t33 -20q11 -9 19 -13t16 -4q14 0 25 10t25 33l80 -44q-26 -57 -64.5 -94t-79.5 -37q-16 0 -30 6.5z " />
<glyph unicode="&#x129;" horiz-adv-x="254" d="M257 534l-74 -534h-186l74 534h186zM203 631.5q-14 6.5 -31 18.5q-13 9 -21.5 13.5t-16.5 4.5q-15 0 -26.5 -10.5t-26.5 -33.5l-79 46q27 57 64.5 94t78.5 37q20 0 34 -7t33 -20q11 -9 19 -13t16 -4q14 0 25 10t25 33l80 -44q-26 -57 -64.5 -94t-79.5 -37q-16 0 -30 6.5z " />
<glyph unicode="&#x12a;" horiz-adv-x="267" d="M290 696l-97 -696h-194l98 696h193zM348 775h-292l19 130h293z" />
<glyph unicode="&#x12b;" horiz-adv-x="254" d="M257 534l-74 -534h-186l74 534h186zM325 649h-292l19 130h293z" />
<glyph unicode="&#x12c;" horiz-adv-x="267" d="M290 696l-97 -696h-194l98 696h193zM94.5 793.5q-36.5 46.5 -36.5 115.5q0 13 1 20l95 15q2 -30 17 -49t43 -19q55 0 81 70l97 -19q-15 -77 -63 -128.5t-125 -51.5q-73 0 -109.5 46.5z" />
<glyph unicode="&#x12d;" horiz-adv-x="254" d="M257 534l-74 -534h-186l74 534h186zM65.5 675q-36.5 48 -36.5 123q0 15 1 22l96 14q2 -36 17.5 -57t43.5 -21q29 0 50 21.5t33 58.5l92 -19q-15 -82 -62.5 -136t-123.5 -54q-74 0 -110.5 48z" />
<glyph unicode="&#x12e;" horiz-adv-x="267" d="M290 696l-97 -696h-46q-66 -25 -91 -54t-25 -54q0 -33 40 -33q15 0 53 6l-26 -109q-30 -8 -67 -8q-57 0 -93.5 30t-36.5 83q0 89 99 147l97 688h193z" />
<glyph unicode="&#x12f;" horiz-adv-x="254" d="M271 800.5q25 -24.5 25 -64.5q0 -50 -33.5 -83t-83.5 -33q-43 0 -68 24.5t-25 64.5q0 50 34 83t83 33q43 0 68 -24.5zM71 534h186l-74 -534h-41q-66 -25 -91 -54t-25 -54q0 -33 40 -33q15 0 53 6l-26 -109q-30 -8 -67 -8q-57 0 -93.5 30t-36.5 83q0 91 102 149z" />
<glyph unicode="&#x130;" horiz-adv-x="267" d="M290 696l-97 -696h-194l98 696h193zM139 770.5q-25 24.5 -25 64.5q0 50 34 83t83 33q43 0 68 -24.5t25 -64.5q0 -50 -33.5 -83t-83.5 -33q-43 0 -68 24.5z" />
<glyph unicode="&#x131;" horiz-adv-x="254" d="M257 534l-74 -534h-186l74 534h186z" />
<glyph unicode="&#x132;" horiz-adv-x="562" d="M290 696l-97 -696h-194l98 696h193zM504 106q-13 -91 -52.5 -148.5t-92 -88t-124.5 -54.5l-34 137q57 24 79 61t31 105l81 578h194z" />
<glyph unicode="&#x133;" horiz-adv-x="507" d="M257 534l-74 -534h-186l74 534h186zM111 644.5q-25 24.5 -25 64.5q0 50 34 83t83 33q43 0 68 -24.5t25 -64.5q0 -50 -33.5 -83t-83.5 -33q-43 0 -68 24.5zM140 -91q56 22 83 55t36 99l66 471h186l-65 -461q-13 -92 -50 -150.5t-89 -91t-124 -57.5zM365 644.5 q-25 24.5 -25 64.5q0 50 34 83t83 33q43 0 68 -24.5t25 -64.5q0 -50 -33.5 -83t-83.5 -33q-43 0 -68 24.5z" />
<glyph unicode="&#x134;" horiz-adv-x="295" d="M237 106q-13 -91 -52.5 -148.5t-92 -88t-124.5 -54.5l-34 137q57 24 79 61t31 105l81 578h194zM106 754l-61 74l150 138h111l115 -144l-72 -68l-111 87z" />
<glyph unicode="&#x135;" horiz-adv-x="253" d="M-114 -91q56 22 83 55t36 99l66 471h186l-65 -461q-13 -92 -50 -150.5t-89 -91t-124 -57.5zM56 615l-58 73l151 148h111l113 -153l-74 -68l-108 96z" />
<glyph unicode="&#x136;" horiz-adv-x="600" d="M-1 0l98 696h193l-97 -696h-194zM363 0l-113 371l210 325h197l-211 -320l130 -376h-213zM312.5 -84.5q22.5 -21.5 22.5 -55.5q0 -25 -8.5 -46.5t-29.5 -55.5l-59 -97h-87l41 117q-31 21 -31 58q0 44 27 72.5t67 28.5q35 0 57.5 -21.5z" />
<glyph unicode="&#x137;" horiz-adv-x="533" d="M250 478q36 39 75 57t85 18q63 0 100 -34.5t37 -91.5q0 -61 -30 -105t-93 -81l71 -241h-197l-63 256q70 29 97 61.5t27 71.5q0 17 -8 26t-23 9q-44 0 -99 -83l-46 -341h-187l104 744l189 19zM281.5 -84.5q22.5 -21.5 22.5 -55.5q0 -25 -8.5 -46.5t-29.5 -55.5l-59 -97 h-87l41 117q-31 21 -31 58q0 44 27 72.5t67 28.5q35 0 57.5 -21.5z" />
<glyph unicode="&#x138;" horiz-adv-x="516" d="M258 534l-74 -534h-187l74 534h187zM565 534l-152 -250l83 -284h-198l-72 282l148 252h191z" />
<glyph unicode="&#x139;" horiz-adv-x="465" d="M290 696l-75 -544h230l-42 -152h-404l98 696h193zM308 965l59 -134l-240 -88l-42 89z" />
<glyph unicode="&#x13a;" horiz-adv-x="267" d="M200 159q-1 -4 -1 -11q0 -18 17 -18q8 0 17 3l14 -132q-21 -9 -49.5 -14.5t-56.5 -5.5q-64 0 -98 33.5t-34 94.5q0 23 2 35l84 600l187 19zM301 1013l59 -134l-240 -88l-42 89z" />
<glyph unicode="&#x13b;" horiz-adv-x="465" d="M290 696l-75 -544h230l-42 -152h-404l98 696h193zM254.5 -84.5q22.5 -21.5 22.5 -55.5q0 -25 -8.5 -46.5t-29.5 -55.5l-59 -97h-87l41 117q-31 21 -31 58q0 44 27 72.5t67 28.5q35 0 57.5 -21.5z" />
<glyph unicode="&#x13c;" horiz-adv-x="267" d="M200 159q-1 -4 -1 -11q0 -18 17 -18q8 0 17 3l14 -132q-21 -9 -49.5 -14.5t-56.5 -5.5q-64 0 -98 33.5t-34 94.5q0 23 2 35l84 600l187 19zM171.5 -84.5q22.5 -21.5 22.5 -55.5q0 -25 -8.5 -46.5t-29.5 -55.5l-59 -97h-87l41 117q-31 21 -31 58q0 44 27 72.5t67 28.5 q35 0 57.5 -21.5z" />
<glyph unicode="&#x13d;" horiz-adv-x="465" d="M290 696l-75 -544h230l-42 -152h-404l98 696h193zM333 711l129 -16l-76 -231l-92 8z" />
<glyph unicode="&#x13e;" horiz-adv-x="367" d="M200 159q-1 -4 -1 -11q0 -18 17 -18q8 0 17 3l14 -132q-21 -9 -49.5 -14.5t-56.5 -5.5q-64 0 -98 33.5t-34 94.5q0 23 2 35l84 600l187 19zM325 759l129 -16l-76 -231l-92 8z" />
<glyph unicode="&#x13f;" horiz-adv-x="465" d="M290 696l-75 -544h230l-42 -152h-404l98 696h193zM302 324.5q-25 24.5 -25 64.5q0 50 34 83t83 33q43 0 68 -24.5t25 -64.5q0 -50 -33.5 -83t-83.5 -33q-43 0 -68 24.5z" />
<glyph unicode="&#x140;" horiz-adv-x="467" d="M200 159q-1 -4 -1 -11q0 -18 17 -18q8 0 17 3l14 -132q-21 -9 -49.5 -14.5t-56.5 -5.5q-64 0 -98 33.5t-34 94.5q0 23 2 35l84 600l187 19zM289 295.5q-25 24.5 -25 64.5q0 50 34 83t83 33q43 0 68 -24.5t25 -64.5q0 -50 -33.5 -83t-83.5 -33q-43 0 -68 24.5z" />
<glyph unicode="&#x141;" horiz-adv-x="512" d="M262 152h230l-42 -152h-404l29 209l-31 -19l-45 93l95 59l50 354h193l-31 -224l97 60l47 -93l-162 -99z" />
<glyph unicode="&#x142;" horiz-adv-x="333" d="M271 133l14 -132q-21 -9 -49.5 -14.5t-56.5 -5.5q-64 0 -98 33.5t-34 94.5q0 23 2 35l16 111l-41 -24l-28 106l87 53l50 354l187 19l-34 -251l51 31l26 -109l-95 -57l-30 -218q-1 -4 -1 -11q0 -18 17 -18q8 0 17 3z" />
<glyph unicode="&#x143;" horiz-adv-x="580" d="M506 0h-235l-67 533q4 -82 4 -127q0 -97 -13 -193l-27 -213h-168l97 696h233l67 -534q-4 92 -4 129q0 86 12 181l30 224h168zM463 965l59 -134l-240 -88l-42 89z" />
<glyph unicode="&#x144;" horiz-adv-x="508" d="M471.5 520.5q28.5 -32.5 28.5 -90.5q0 -17 -3 -37l-56 -393h-186l49 351q1 7 1 18q0 12 -3 16.5t-9 4.5q-13 0 -28.5 -23.5t-40.5 -78.5l-41 -288h-186l74 534h162l1 -83q29 46 70 74t88 28q51 0 79.5 -32.5zM402 847l59 -134l-239 -98l-45 91z" />
<glyph unicode="&#x145;" horiz-adv-x="580" d="M506 0h-235l-67 533q4 -82 4 -127q0 -97 -13 -193l-27 -213h-168l97 696h233l67 -534q-4 92 -4 129q0 86 12 181l30 224h168zM305.5 -84.5q22.5 -21.5 22.5 -55.5q0 -25 -8.5 -46.5t-29.5 -55.5l-59 -97h-87l41 117q-31 21 -31 58q0 44 27 72.5t67 28.5q35 0 57.5 -21.5z " />
<glyph unicode="&#x146;" horiz-adv-x="508" d="M471.5 520.5q28.5 -32.5 28.5 -90.5q0 -17 -3 -37l-56 -393h-186l49 351q1 7 1 18q0 12 -3 16.5t-9 4.5q-13 0 -28.5 -23.5t-40.5 -78.5l-41 -288h-186l74 534h162l1 -83q29 46 70 74t88 28q51 0 79.5 -32.5zM261.5 -84.5q22.5 -21.5 22.5 -55.5q0 -25 -8.5 -46.5 t-29.5 -55.5l-59 -97h-87l41 117q-31 21 -31 58q0 44 27 72.5t67 28.5q35 0 57.5 -21.5z" />
<glyph unicode="&#x147;" horiz-adv-x="580" d="M506 0h-235l-67 533q4 -82 4 -127q0 -97 -13 -193l-27 -213h-168l97 696h233l67 -534q-4 92 -4 129q0 86 12 181l30 224h168zM500 959l61 -73l-150 -138h-110l-116 144l72 67l111 -87z" />
<glyph unicode="&#x148;" horiz-adv-x="508" d="M471.5 520.5q28.5 -32.5 28.5 -90.5q0 -17 -3 -37l-56 -393h-186l49 351q1 7 1 18q0 12 -3 16.5t-9 4.5q-13 0 -28.5 -23.5t-40.5 -78.5l-41 -288h-186l74 534h162l1 -83q29 46 70 74t88 28q51 0 79.5 -32.5zM453 825l59 -73l-150 -148h-111l-109 148l68 73l108 -96z" />
<glyph unicode="&#x149;" horiz-adv-x="633" d="M212 743.5q18 -19.5 16 -49.5q-1 -18 -8 -35t-23 -44l-48 -80h-74l34 96q-24 16 -24 48q0 36 22.5 60t55.5 24q31 0 49 -19.5zM596.5 520.5q28.5 -32.5 28.5 -90.5q0 -17 -3 -37l-56 -393h-186l49 351q1 7 1 18q0 12 -3 16.5t-9 4.5q-13 0 -28.5 -23.5t-40.5 -78.5 l-41 -288h-186l74 534h162l1 -83q29 46 70 74t88 28q51 0 79.5 -32.5z" />
<glyph unicode="&#x14a;" horiz-adv-x="580" d="M603 696l-97 -696l-4 -27q-15 -98 -78.5 -149t-158.5 -51q-87 0 -140 46l76 112q16 -9 27.5 -13t27.5 -4q21 0 34 13t17 37l5 36h-41l-67 533q4 -82 4 -127q0 -97 -13 -193l-27 -213h-168l97 696h233l67 -534q-4 92 -4 129q0 86 12 181l30 224h168z" />
<glyph unicode="&#x14b;" horiz-adv-x="508" d="M471.5 520.5q28.5 -32.5 28.5 -90.5q0 -17 -3 -37l-56 -393l-4 -29q-15 -98 -76 -147.5t-155 -49.5q-85 0 -140 46l74 107q18 -10 30 -14t28 -4q22 0 35 12.5t16 35.5l55 394q1 7 1 18q0 12 -3 16.5t-9 4.5q-13 0 -28.5 -23.5t-40.5 -78.5l-41 -288h-186l74 534h162 l1 -83q29 46 70 74t88 28q51 0 79.5 -32.5z" />
<glyph unicode="&#x14c;" horiz-adv-x="624" d="M558.5 645q63.5 -70 63.5 -204q0 -119 -36 -224t-114 -171t-197 -66q-123 0 -186.5 70.5t-63.5 205.5q0 119 36 223.5t114 170t197 65.5q123 0 186.5 -70zM278.5 516q-30.5 -59 -43 -140t-12.5 -152q0 -55 15.5 -79t49.5 -24q50 0 80.5 57.5t43 137.5t12.5 154 q0 56 -16 80.5t-50 24.5q-49 0 -79.5 -59zM524 775h-292l19 130h293z" />
<glyph unicode="&#x14d;" horiz-adv-x="529" d="M69.5 37q-56.5 57 -56.5 165q0 93 30.5 173t95.5 129t162 49q101 0 158 -57.5t57 -164.5q-1 -94 -31.5 -173.5t-95.5 -128.5t-162 -49q-101 0 -157.5 57zM307.5 194.5q19.5 77.5 19.5 162.5q0 32 -9.5 46t-30.5 14q-46 0 -66 -75.5t-20 -159.5q0 -35 9.5 -50t30.5 -15 q47 0 66.5 77.5zM458 649h-292l19 130h293z" />
<glyph unicode="&#x14e;" horiz-adv-x="624" d="M558.5 645q63.5 -70 63.5 -204q0 -119 -36 -224t-114 -171t-197 -66q-123 0 -186.5 70.5t-63.5 205.5q0 119 36 223.5t114 170t197 65.5q123 0 186.5 -70zM278.5 516q-30.5 -59 -43 -140t-12.5 -152q0 -55 15.5 -79t49.5 -24q50 0 80.5 57.5t43 137.5t12.5 154 q0 56 -16 80.5t-50 24.5q-49 0 -79.5 -59zM270.5 793.5q-36.5 46.5 -36.5 115.5q0 13 1 20l95 15q2 -30 17 -49t43 -19q55 0 81 70l97 -19q-15 -77 -63 -128.5t-125 -51.5q-73 0 -109.5 46.5z" />
<glyph unicode="&#x14f;" horiz-adv-x="529" d="M69.5 37q-56.5 57 -56.5 165q0 93 30.5 173t95.5 129t162 49q101 0 158 -57.5t57 -164.5q-1 -94 -31.5 -173.5t-95.5 -128.5t-162 -49q-101 0 -157.5 57zM307.5 194.5q19.5 77.5 19.5 162.5q0 32 -9.5 46t-30.5 14q-46 0 -66 -75.5t-20 -159.5q0 -35 9.5 -50t30.5 -15 q47 0 66.5 77.5zM198.5 675q-36.5 48 -36.5 123q0 15 1 22l96 14q2 -36 17.5 -57t43.5 -21q29 0 50 21.5t33 58.5l92 -19q-15 -82 -62.5 -136t-123.5 -54q-74 0 -110.5 48z" />
<glyph unicode="&#x150;" horiz-adv-x="624" d="M558.5 645q63.5 -70 63.5 -204q0 -119 -36 -224t-114 -171t-197 -66q-123 0 -186.5 70.5t-63.5 205.5q0 119 36 223.5t114 170t197 65.5q123 0 186.5 -70zM278.5 516q-30.5 -59 -43 -140t-12.5 -152q0 -55 15.5 -79t49.5 -24q50 0 80.5 57.5t43 137.5t12.5 154 q0 56 -16 80.5t-50 24.5q-49 0 -79.5 -59zM355 1000l107 -55l-140 -194l-85 38zM525 1000l106 -60l-146 -193l-83 44z" />
<glyph unicode="&#x151;" horiz-adv-x="529" d="M69.5 37q-56.5 57 -56.5 165q0 93 30.5 173t95.5 129t162 49q101 0 158 -57.5t57 -164.5q-1 -94 -31.5 -173.5t-95.5 -128.5t-162 -49q-101 0 -157.5 57zM307.5 194.5q19.5 77.5 19.5 162.5q0 32 -9.5 46t-30.5 14q-46 0 -66 -75.5t-20 -159.5q0 -35 9.5 -50t30.5 -15 q47 0 66.5 77.5zM289 874l107 -55l-140 -194l-85 38zM459 874l106 -60l-146 -193l-83 44z" />
<glyph unicode="&#x152;" horiz-adv-x="809" d="M817 558h-240q23 -55 23 -127v-11h175l-19 -134h-171q-19 -83 -64 -147h255l-22 -139h-394q-48 -20 -103 -20q-111 0 -171.5 71t-60.5 204q0 118 35 223t110 171t188 66q62 0 101 -19h398zM350.5 176q28.5 55 41 136t12.5 161q0 54 -14 78t-42 24q-44 0 -72.5 -56.5 t-41 -138t-12.5 -159.5q0 -53 14 -76.5t42 -23.5q44 0 72.5 55z" />
<glyph unicode="&#x153;" horiz-adv-x="808" d="M762 511.5q51 -41.5 51 -107.5q0 -101 -89 -150t-221 -63q0 -75 69 -75q28 0 55 11.5t64 35.5l62 -107q-95 -76 -206 -76q-105 0 -161 69q-66 -69 -166 -69q-95 0 -151 57t-56 165q0 93 30.5 173t94 129t157.5 49q99 0 153 -71q69 71 175 71q88 0 139 -41.5zM604 334.5 q27 30.5 27 63.5q0 34 -34 34t-55 -36.5t-31 -96.5q66 5 93 35.5zM308 193.5q21 76.5 21 158.5q0 34 -10 49.5t-31 15.5q-46 0 -66.5 -76t-20.5 -159q0 -35 10 -50t31 -15q45 0 66 76.5z" />
<glyph unicode="&#x154;" horiz-adv-x="559" d="M539 379q-31 -52 -104 -93l108 -286h-205l-79 251h-31l-35 -251h-194l98 696h219q126 0 190 -49.5t64 -140.5q0 -75 -31 -127zM246 384h35q46 0 68.5 33t22.5 80q0 33 -17.5 48t-53.5 15h-30zM447 965l59 -134l-240 -88l-42 89z" />
<glyph unicode="&#x155;" horiz-adv-x="366" d="M415 542l-55 -183q-23 7 -41 7q-37 0 -61 -36t-43 -101l-32 -229h-186l74 534h160v-91q25 51 60 79.5t77 28.5q25 0 47 -9zM348 847l59 -134l-239 -98l-45 91z" />
<glyph unicode="&#x156;" horiz-adv-x="559" d="M539 379q-31 -52 -104 -93l108 -286h-205l-79 251h-31l-35 -251h-194l98 696h219q126 0 190 -49.5t64 -140.5q0 -75 -31 -127zM246 384h35q46 0 68.5 33t22.5 80q0 33 -17.5 48t-53.5 15h-30zM307.5 -84.5q22.5 -21.5 22.5 -55.5q0 -25 -8.5 -46.5t-29.5 -55.5l-59 -97 h-87l41 117q-31 21 -31 58q0 44 27 72.5t67 28.5q35 0 57.5 -21.5z" />
<glyph unicode="&#x157;" horiz-adv-x="366" d="M415 542l-55 -183q-23 7 -41 7q-37 0 -61 -36t-43 -101l-32 -229h-186l74 534h160v-91q25 51 60 79.5t77 28.5q25 0 47 -9zM131.5 -84.5q22.5 -21.5 22.5 -55.5q0 -25 -8.5 -46.5t-29.5 -55.5l-59 -97h-87l41 117q-31 21 -31 58q0 44 27 72.5t67 28.5q35 0 57.5 -21.5z " />
<glyph unicode="&#x158;" horiz-adv-x="559" d="M539 379q-31 -52 -104 -93l108 -286h-205l-79 251h-31l-35 -251h-194l98 696h219q126 0 190 -49.5t64 -140.5q0 -75 -31 -127zM246 384h35q46 0 68.5 33t22.5 80q0 33 -17.5 48t-53.5 15h-30zM484 959l61 -73l-150 -138h-110l-116 144l72 67l111 -87z" />
<glyph unicode="&#x159;" horiz-adv-x="366" d="M415 542l-55 -183q-23 7 -41 7q-37 0 -61 -36t-43 -101l-32 -229h-186l74 534h160v-91q25 51 60 79.5t77 28.5q25 0 47 -9zM399 825l59 -73l-150 -148h-111l-109 148l68 73l108 -96z" />
<glyph unicode="&#x15a;" horiz-adv-x="526" d="M551 620l-96 -99q-54 54 -122 54q-38 0 -58 -16.5t-20 -42.5q0 -25 20.5 -41.5t82.5 -43.5q77 -33 113.5 -78.5t36.5 -117.5q0 -70 -33.5 -128t-99.5 -92.5t-158 -34.5q-154 0 -246 105l105 104q33 -32 67 -48t76 -16t65 19.5t23 53.5q0 31 -21.5 51.5t-77.5 44.5 q-82 34 -117.5 78t-35.5 111q0 66 32.5 119t93 83t143.5 30q144 0 227 -95zM444 965l59 -134l-240 -88l-42 89z" />
<glyph unicode="&#x15b;" horiz-adv-x="440" d="M359.5 534.5q49.5 -18.5 84.5 -50.5l-79 -99q-52 36 -103 36q-23 0 -35.5 -8.5t-12.5 -22.5q0 -16 16.5 -27t72.5 -34q57 -23 86 -59t29 -93q0 -55 -27.5 -100t-81 -71t-127.5 -26q-67 0 -122 23.5t-93 64.5l94 95q56 -51 117 -51q25 0 40 10t15 28q0 19 -17 31.5 t-68 33.5q-60 25 -88.5 59.5t-28.5 91.5q0 53 28 96t78.5 67t117.5 24q55 0 104.5 -18.5zM363 847l59 -134l-239 -98l-45 91z" />
<glyph unicode="&#x15c;" horiz-adv-x="526" d="M551 620l-96 -99q-54 54 -122 54q-38 0 -58 -16.5t-20 -42.5q0 -25 20.5 -41.5t82.5 -43.5q77 -33 113.5 -78.5t36.5 -117.5q0 -70 -33.5 -128t-99.5 -92.5t-158 -34.5q-154 0 -246 105l105 104q33 -32 67 -48t76 -16t65 19.5t23 53.5q0 31 -21.5 51.5t-77.5 44.5 q-82 34 -117.5 78t-35.5 111q0 66 32.5 119t93 83t143.5 30q144 0 227 -95zM214 754l-61 74l150 138h111l115 -144l-72 -68l-111 87z" />
<glyph unicode="&#x15d;" horiz-adv-x="440" d="M359.5 534.5q49.5 -18.5 84.5 -50.5l-79 -99q-52 36 -103 36q-23 0 -35.5 -8.5t-12.5 -22.5q0 -16 16.5 -27t72.5 -34q57 -23 86 -59t29 -93q0 -55 -27.5 -100t-81 -71t-127.5 -26q-67 0 -122 23.5t-93 64.5l94 95q56 -51 117 -51q25 0 40 10t15 28q0 19 -17 31.5 t-68 33.5q-60 25 -88.5 59.5t-28.5 91.5q0 53 28 96t78.5 67t117.5 24q55 0 104.5 -18.5zM149 615l-58 73l151 148h111l113 -153l-74 -68l-108 96z" />
<glyph unicode="&#x15e;" horiz-adv-x="526" d="M471.5 352.5q36.5 -45.5 36.5 -117.5q0 -62 -27 -115.5t-80.5 -89.5t-128.5 -46l-5 -31q42 -6 64.5 -28.5t22.5 -61.5q0 -31 -16 -62t-53.5 -52t-97.5 -21q-34 0 -62 9.5t-48 24.5l51 79q27 -15 55 -15q42 0 43 29q0 15 -18.5 21t-61.5 6l25 100q-122 14 -200 103 l105 104q33 -32 67 -48t76 -16t65 19.5t23 53.5q0 31 -21.5 51.5t-77.5 44.5q-82 34 -117.5 78t-35.5 111q0 66 32.5 119t93 83t143.5 30q144 0 227 -95l-96 -99q-54 54 -122 54q-38 0 -58 -16.5t-20 -42.5q0 -25 20.5 -41.5t82.5 -43.5q77 -33 113.5 -78.5z" />
<glyph unicode="&#x15f;" horiz-adv-x="440" d="M389 270q29 -36 29 -93q0 -74 -49 -127.5t-137 -66.5l-5 -30q42 -6 64.5 -28.5t22.5 -61.5q0 -31 -16 -62t-53.5 -52t-97.5 -21q-34 0 -62 9.5t-48 24.5l51 79q27 -15 55 -15q42 0 43 29q0 15 -18.5 21t-61.5 6l26 102q-100 15 -165 84l94 95q56 -51 117 -51q25 0 40 10 t15 28q0 19 -17 31.5t-68 33.5q-60 25 -88.5 59.5t-28.5 91.5q0 53 28 96t78.5 67t117.5 24q55 0 104.5 -18.5t84.5 -50.5l-79 -99q-52 36 -103 36q-23 0 -35.5 -8.5t-12.5 -22.5q0 -16 16.5 -27t72.5 -34q57 -23 86 -59z" />
<glyph unicode="&#x160;" horiz-adv-x="526" d="M551 620l-96 -99q-54 54 -122 54q-38 0 -58 -16.5t-20 -42.5q0 -25 20.5 -41.5t82.5 -43.5q77 -33 113.5 -78.5t36.5 -117.5q0 -70 -33.5 -128t-99.5 -92.5t-158 -34.5q-154 0 -246 105l105 104q33 -32 67 -48t76 -16t65 19.5t23 53.5q0 31 -21.5 51.5t-77.5 44.5 q-82 34 -117.5 78t-35.5 111q0 66 32.5 119t93 83t143.5 30q144 0 227 -95zM481 959l61 -73l-150 -138h-110l-116 144l72 67l111 -87z" />
<glyph unicode="&#x161;" horiz-adv-x="440" d="M359.5 534.5q49.5 -18.5 84.5 -50.5l-79 -99q-52 36 -103 36q-23 0 -35.5 -8.5t-12.5 -22.5q0 -16 16.5 -27t72.5 -34q57 -23 86 -59t29 -93q0 -55 -27.5 -100t-81 -71t-127.5 -26q-67 0 -122 23.5t-93 64.5l94 95q56 -51 117 -51q25 0 40 10t15 28q0 19 -17 31.5 t-68 33.5q-60 25 -88.5 59.5t-28.5 91.5q0 53 28 96t78.5 67t117.5 24q55 0 104.5 -18.5zM414 825l59 -73l-150 -148h-111l-109 148l68 73l108 -96z" />
<glyph unicode="&#x162;" horiz-adv-x="494" d="M306 0l-5 -44q41 -6 62.5 -30t21.5 -64q0 -30 -16 -60.5t-53.5 -52t-97.5 -21.5q-34 0 -62 9.5t-48 24.5l51 81q28 -17 55 -17q43 0 43 30q0 14 -19 20t-61 6l30 118h-94l77 548h-149l21 148h498l-41 -148h-136z" />
<glyph unicode="&#x163;" horiz-adv-x="357" d="M227 183q-2 -14 -2 -19q0 -35 29 -35q18 0 42 11l44 -119q-49 -30 -112 -38l-5 -30q42 -6 64.5 -28.5t22.5 -61.5q0 -31 -16 -62t-53.5 -52t-97.5 -21q-34 0 -62 9.5t-48 24.5l51 79q27 -15 55 -15q42 0 43 29q0 15 -18.5 21t-61.5 6l27 107q-45 14 -68.5 52.5 t-23.5 96.5q0 21 3 45l31 222h-56l18 129h64l31 116l165 19l-18 -135h105l-39 -129h-84z" />
<glyph unicode="&#x164;" horiz-adv-x="494" d="M560 696l-41 -148h-136l-77 -548h-193l77 548h-149l21 148h498zM458 959l61 -73l-150 -138h-110l-116 144l72 67l111 -87z" />
<glyph unicode="&#x165;" horiz-adv-x="357" d="M342 820l129 -16l-76 -231l-92 8zM275 534h105l-39 -129h-84l-30 -222q-2 -14 -2 -19q0 -35 29 -35q18 0 42 11l44 -119q-32 -20 -72 -30.5t-77 -10.5q-75 0 -114.5 40.5t-39.5 116.5q0 22 3 46l31 222h-56l18 129h64l31 116l165 19z" />
<glyph unicode="&#x166;" horiz-adv-x="494" d="M519 548h-136l-22 -157h96l-15 -103h-96l-40 -288h-193l40 288h-96l15 103h96l22 157h-149l21 148h498z" />
<glyph unicode="&#x167;" horiz-adv-x="357" d="M257 405l-6 -42h87l-37 -120h-66l-8 -60q-2 -14 -2 -19q0 -35 29 -35q18 0 42 11l44 -119q-32 -20 -72 -30.5t-77 -10.5q-75 0 -114.5 40.5t-39.5 116.5q0 22 3 46l8 60h-47l17 120h47l6 42h-56l18 129h64l31 116l165 19l-18 -135h105l-39 -129h-84z" />
<glyph unicode="&#x168;" horiz-adv-x="573" d="M539 217q-9 -68 -45 -121t-97.5 -84t-145.5 -31q-116 0 -175 54t-59 145q0 21 3 42l67 474h193l-67 -487q-2 -20 -2 -28q0 -29 13 -43.5t41 -14.5q35 0 54 22.5t25 65.5l68 485h194zM380 757.5q-14 6.5 -31 18.5q-13 9 -21.5 13.5t-16.5 4.5q-15 0 -26.5 -10.5 t-26.5 -33.5l-79 46q27 57 64.5 94t78.5 37q20 0 34 -7t33 -20q11 -9 19 -13t16 -4q14 0 25 10t25 33l80 -44q-26 -57 -64.5 -94t-79.5 -37q-16 0 -30 6.5z" />
<glyph unicode="&#x169;" horiz-adv-x="503" d="M39 13q-29 33 -29 91q0 19 3 40l54 390h186l-49 -356q-1 -6 -1 -15q0 -23 16 -23q24 0 54 54l47 340h186l-74 -534h-162l2 68q-66 -88 -149 -88q-55 0 -84 33zM326 631.5q-14 6.5 -31 18.5q-13 9 -21.5 13.5t-16.5 4.5q-15 0 -26.5 -10.5t-26.5 -33.5l-79 46 q27 57 64.5 94t78.5 37q20 0 34 -7t33 -20q11 -9 19 -13t16 -4q14 0 25 10t25 33l80 -44q-26 -57 -64.5 -94t-79.5 -37q-16 0 -30 6.5z" />
<glyph unicode="&#x16a;" horiz-adv-x="573" d="M539 217q-9 -68 -45 -121t-97.5 -84t-145.5 -31q-116 0 -175 54t-59 145q0 21 3 42l67 474h193l-67 -487q-2 -20 -2 -28q0 -29 13 -43.5t41 -14.5q35 0 54 22.5t25 65.5l68 485h194zM500 775h-292l19 130h293z" />
<glyph unicode="&#x16b;" horiz-adv-x="503" d="M39 13q-29 33 -29 91q0 19 3 40l54 390h186l-49 -356q-1 -6 -1 -15q0 -23 16 -23q24 0 54 54l47 340h186l-74 -534h-162l2 68q-66 -88 -149 -88q-55 0 -84 33zM448 649h-292l19 130h293z" />
<glyph unicode="&#x16c;" horiz-adv-x="573" d="M539 217q-9 -68 -45 -121t-97.5 -84t-145.5 -31q-116 0 -175 54t-59 145q0 21 3 42l67 474h193l-67 -487q-2 -20 -2 -28q0 -29 13 -43.5t41 -14.5q35 0 54 22.5t25 65.5l68 485h194zM246.5 793.5q-36.5 46.5 -36.5 115.5q0 13 1 20l95 15q2 -30 17 -49t43 -19q55 0 81 70 l97 -19q-15 -77 -63 -128.5t-125 -51.5q-73 0 -109.5 46.5z" />
<glyph unicode="&#x16d;" horiz-adv-x="503" d="M39 13q-29 33 -29 91q0 19 3 40l54 390h186l-49 -356q-1 -6 -1 -15q0 -23 16 -23q24 0 54 54l47 340h186l-74 -534h-162l2 68q-66 -88 -149 -88q-55 0 -84 33zM188.5 675q-36.5 48 -36.5 123q0 15 1 22l96 14q2 -36 17.5 -57t43.5 -21q29 0 50 21.5t33 58.5l92 -19 q-15 -82 -62.5 -136t-123.5 -54q-74 0 -110.5 48z" />
<glyph unicode="&#x16e;" horiz-adv-x="573" d="M539 217q-9 -68 -45 -121t-97.5 -84t-145.5 -31q-116 0 -175 54t-59 145q0 21 3 42l67 474h193l-67 -487q-2 -20 -2 -28q0 -29 13 -43.5t41 -14.5q35 0 54 22.5t25 65.5l68 485h194zM479.5 973q32.5 -35 32.5 -92q0 -42 -19.5 -78.5t-56 -58t-84.5 -21.5q-59 0 -91.5 35 t-32.5 92q0 41 20 77.5t56.5 58.5t83.5 22q59 0 91.5 -35zM344 897q-13 -18 -13 -42q0 -38 31 -38q21 0 34 18t13 41q0 39 -30 39q-22 0 -35 -18z" />
<glyph unicode="&#x16f;" horiz-adv-x="503" d="M39 13q-29 33 -29 91q0 19 3 40l54 390h186l-49 -356q-1 -6 -1 -15q0 -23 16 -23q24 0 54 54l47 340h186l-74 -534h-162l2 68q-66 -88 -149 -88q-55 0 -84 33zM424.5 846q32.5 -35 32.5 -92q0 -42 -19.5 -78.5t-56 -58t-84.5 -21.5q-59 0 -91.5 35t-32.5 92q0 41 20 77.5 t56.5 58.5t83.5 22q59 0 91.5 -35zM289 770q-13 -18 -13 -42q0 -38 31 -38q21 0 34 18t13 41q0 39 -30 39q-22 0 -35 -18z" />
<glyph unicode="&#x170;" horiz-adv-x="573" d="M539 217q-9 -68 -45 -121t-97.5 -84t-145.5 -31q-116 0 -175 54t-59 145q0 21 3 42l67 474h193l-67 -487q-2 -20 -2 -28q0 -29 13 -43.5t41 -14.5q35 0 54 22.5t25 65.5l68 485h194zM331 1000l107 -55l-140 -194l-85 38zM501 1000l106 -60l-146 -193l-83 44z" />
<glyph unicode="&#x171;" horiz-adv-x="503" d="M39 13q-29 33 -29 91q0 19 3 40l54 390h186l-49 -356q-1 -6 -1 -15q0 -23 16 -23q24 0 54 54l47 340h186l-74 -534h-162l2 68q-66 -88 -149 -88q-55 0 -84 33zM279 874l107 -55l-140 -194l-85 38zM449 874l106 -60l-146 -193l-83 44z" />
<glyph unicode="&#x172;" horiz-adv-x="573" d="M606 696l-67 -479q-11 -79 -57.5 -138t-124.5 -83q-62 -24 -86 -51.5t-24 -52.5q0 -33 38 -33q25 0 57 8l-27 -111q-32 -8 -68 -8q-58 0 -95 28.5t-37 77.5q0 43 25 75.5t68 53.5q-95 10 -143 62.5t-48 134.5q0 21 3 42l67 474h193l-67 -487q-2 -20 -2 -28 q0 -29 13 -43.5t41 -14.5q35 0 54 22.5t25 65.5l68 485h194z" />
<glyph unicode="&#x173;" horiz-adv-x="503" d="M506 534l-74 -534h-1q-66 -25 -91 -54t-25 -54q0 -33 40 -33q15 0 53 6l-26 -109q-30 -8 -67 -8q-57 0 -93.5 30t-36.5 83q0 83 86 139h-1l2 68q-66 -88 -149 -88q-55 0 -84 33t-29 91q0 19 3 40l54 390h186l-49 -356q-1 -6 -1 -15q0 -23 16 -23q24 0 54 54l47 340h186z " />
<glyph unicode="&#x174;" horiz-adv-x="770" d="M828 696l-182 -696h-253l24 509l-121 -509h-250l16 696h190l-42 -552l137 552h198l-27 -552l123 552h187zM332 754l-61 74l150 138h111l115 -144l-72 -68l-111 87z" />
<glyph unicode="&#x175;" horiz-adv-x="692" d="M732 534l-165 -534h-209l1 364l-93 -364h-212l-18 534h187l-31 -390l111 390h171l-7 -390l86 390h179zM276 615l-58 73l151 148h111l113 -153l-74 -68l-108 96z" />
<glyph unicode="&#x176;" horiz-adv-x="554" d="M630 696l-257 -439l-36 -257h-194l36 257l-135 439h206l48 -292l125 292h207zM219 754l-61 74l150 138h111l115 -144l-72 -68l-111 87z" />
<glyph unicode="&#x177;" horiz-adv-x="477" d="M316 0q-45 -114 -128.5 -168t-208.5 -59l-3 128q70 8 107 29.5t63 69.5h-66l-57 534h193l-2 -416l120 416h196zM168 615l-58 73l151 148h111l113 -153l-74 -68l-108 96z" />
<glyph unicode="&#x178;" horiz-adv-x="554" d="M630 696l-257 -439l-36 -257h-194l36 257l-135 439h206l48 -292l125 292h207zM172.5 782.5q-21.5 21.5 -21.5 56.5q0 43 29.5 72t71.5 29q38 0 59.5 -21.5t21.5 -56.5q0 -43 -29.5 -72t-72.5 -29q-37 0 -58.5 21.5zM395.5 782.5q-21.5 21.5 -21.5 56.5q0 43 29 72t72 29 q37 0 58.5 -21.5t21.5 -56.5q0 -43 -29 -72t-72 -29q-37 0 -58.5 21.5z" />
<glyph unicode="&#x179;" horiz-adv-x="495" d="M-31 0l20 145l306 401h-227l22 150h444l-21 -147l-304 -394h261l-42 -155h-459zM420 965l59 -134l-240 -88l-42 89z" />
<glyph unicode="&#x17a;" horiz-adv-x="422" d="M445 534l-18 -132l-216 -261h188l-37 -141h-396l18 133l217 262h-164l20 139h388zM358 847l59 -134l-239 -98l-45 91z" />
<glyph unicode="&#x17b;" horiz-adv-x="495" d="M-31 0l20 145l306 401h-227l22 150h444l-21 -147l-304 -394h261l-42 -155h-459zM251 770.5q-25 24.5 -25 64.5q0 50 34 83t83 33q43 0 68 -24.5t25 -64.5q0 -50 -33.5 -83t-83.5 -33q-43 0 -68 24.5z" />
<glyph unicode="&#x17c;" horiz-adv-x="422" d="M445 534l-18 -132l-216 -261h188l-37 -141h-396l18 133l217 262h-164l20 139h388zM199 644.5q-25 24.5 -25 64.5q0 50 34 83t83 33q43 0 68 -24.5t25 -64.5q0 -50 -33.5 -83t-83.5 -33q-43 0 -68 24.5z" />
<glyph unicode="&#x17d;" horiz-adv-x="495" d="M-31 0l20 145l306 401h-227l22 150h444l-21 -147l-304 -394h261l-42 -155h-459zM457 959l61 -73l-150 -138h-110l-116 144l72 67l111 -87z" />
<glyph unicode="&#x17e;" horiz-adv-x="422" d="M445 534l-18 -132l-216 -261h188l-37 -141h-396l18 133l217 262h-164l20 139h388zM409 825l59 -73l-150 -148h-111l-109 148l68 73l108 -96z" />
<glyph unicode="&#x17f;" horiz-adv-x="333" d="M412.5 750.5q38.5 -13.5 65.5 -33.5l-65 -109q-30 19 -65 19q-27 0 -42 -16t-20 -53l-77 -558h-186l56 405h-61l18 129h60l5 35q12 87 71 141t156 54q46 0 84.5 -13.5z" />
<glyph unicode="&#x180;" horiz-adv-x="544" d="M496.5 504q36.5 -49 36.5 -141q0 -169 -71 -276t-237 -107q-106 0 -215 48l79 564h-43l15 103h42l7 49l188 20l-10 -69h115l-30 -103h-99l-14 -97q24 27 58.5 42.5t71.5 15.5q70 0 106.5 -49zM319.5 190q23.5 74 23.5 161q0 39 -9 52.5t-26 13.5q-33 0 -64 -47l-34 -246 q18 -8 39 -8q47 0 70.5 74z" />
<glyph unicode="&#x181;" horiz-adv-x="724" d="M672.5 322.5q34.5 -32.5 34.5 -96.5q0 -108 -81 -167t-236 -59h-222l79 558h-26q-20 0 -30.5 -14t-10.5 -39q0 -15 6 -51l-126 -46q-11 27 -16.5 50t-5.5 52q0 86 54.5 136t142.5 50h227q125 0 194 -39t69 -120q0 -69 -41.5 -111t-104.5 -58q59 -13 93.5 -45.5zM527 513 q0 24 -15 35.5t-49 11.5h-24l-19 -135h24q83 0 83 88zM510 240q0 59 -71 59h-36l-22 -159h29q100 0 100 100z" />
<glyph unicode="&#x182;" horiz-adv-x="546" d="M474.5 406.5q61.5 -48.5 61.5 -140.5q0 -66 -29.5 -126.5t-93.5 -100t-162 -39.5h-251l97 696h422l-40 -147h-209l-13 -94h46q110 0 171.5 -48.5zM310 173q23 33 23 83q0 32 -15 48.5t-48 16.5h-32l-25 -181h30q44 0 67 33z" />
<glyph unicode="&#x183;" horiz-adv-x="535" d="M485.5 484q36.5 -50 36.5 -146q0 -153 -70.5 -255.5t-236.5 -102.5q-106 0 -215 48l100 716h378l-40 -134h-171l-19 -135q24 27 59 43t73 16q69 0 105.5 -50zM292 151.5q21 35.5 31 85t10 91.5q0 41 -9 55t-26 14q-16 0 -34 -11.5t-33 -34.5l-31 -227q18 -8 39 -8 q32 0 53 35.5z" />
<glyph unicode="&#x184;" horiz-adv-x="566" d="M497 417q62 -50 62 -146q0 -69 -30 -131t-94 -101t-162 -39h-251l66 475l-64 56q72 66 131 165h157l-32 -229h45q110 0 172 -50zM333.5 176q21.5 36 21.5 86q0 35 -14.5 53t-47.5 18h-31l-27 -193h30q47 0 68.5 36z" />
<glyph unicode="&#x185;" horiz-adv-x="505" d="M436.5 328.5q54.5 -41.5 54.5 -126.5q0 -56 -24.5 -106t-82 -82.5t-150.5 -32.5q-54 0 -101.5 9t-100.5 28l42 305l-64 56q74 68 130 155h149l-22 -164h6q109 0 163.5 -41.5zM292.5 129.5q14.5 29.5 14.5 72.5q0 27 -10.5 39.5t-34.5 12.5h-11l-21 -152q7 -2 18 -2 q30 0 44.5 29.5z" />
<glyph unicode="&#x186;" horiz-adv-x="524" d="M455 643.5q66 -71.5 66 -208.5q0 -128 -40 -231t-119 -163t-189 -60q-67 0 -117.5 27t-85.5 69l98 105q29 -26 52.5 -39t54.5 -13q51 0 84.5 48t48.5 120t15 145q0 70 -19 100t-57 30q-30 0 -57 -12t-57 -34l-79 109q48 39 101.5 59t117.5 20q116 0 182 -71.5z" />
<glyph unicode="&#x187;" horiz-adv-x="531" d="M735 823l-64 -115q-26 16 -51 16q-20 0 -31 -14t-15 -43l-5 -36l-90 -94q-28 18 -52.5 27t-51.5 9q-53 0 -87 -50.5t-48.5 -123.5t-14.5 -144q0 -65 21.5 -95.5t63.5 -30.5q29 0 56 13.5t63 41.5l70 -110q-44 -42 -101.5 -68t-122.5 -26q-117 0 -183.5 71.5t-66.5 208.5 q0 116 39 220.5t112 169.5t170 65q42 0 76 -14q10 73 56.5 116.5t128.5 43.5q72 0 128 -38z" />
<glyph unicode="&#x188;" horiz-adv-x="431" d="M645 725l-64 -114q-27 15 -52 15q-20 0 -29.5 -13.5t-14.5 -43.5l-13 -87l-80 -95q-42 24 -83 24q-55 0 -78.5 -62t-23.5 -144q0 -45 15 -62t43 -17q18 0 36.5 7.5t45.5 23.5l65 -113q-80 -64 -179 -64q-103 0 -161.5 61.5t-58.5 167.5q0 88 32.5 167.5t93 128 t139.5 48.5q26 0 47 -7l9 58q12 76 56.5 117.5t124.5 41.5q75 0 130 -38z" />
<glyph unicode="&#x189;" horiz-adv-x="600" d="M518.5 640q78.5 -56 78.5 -201q0 -201 -89 -320t-285 -119h-216l42 297h-40l17 112h39l40 287h203q132 0 210.5 -56zM365.5 232.5q33.5 92.5 33.5 209.5q0 63 -21 88.5t-65 25.5h-34l-20 -147h101l-16 -112h-101l-22 -157h31q80 0 113.5 92.5z" />
<glyph unicode="&#x18a;" horiz-adv-x="760" d="M678.5 640q78.5 -56 78.5 -201q0 -201 -89 -320t-285 -119h-216l79 558h-25q-20 0 -30.5 -14t-10.5 -39q0 -15 6 -51l-126 -46q-11 27 -16.5 50t-5.5 52q0 86 54.5 136t142.5 50h233q132 0 210.5 -56zM525.5 232.5q33.5 92.5 33.5 209.5q0 63 -21 88.5t-65 25.5h-34 l-58 -416h31q80 0 113.5 92.5z" />
<glyph unicode="&#x18b;" horiz-adv-x="546" d="M568 695l-97 -695h-240q-109 0 -169.5 52.5t-60.5 149.5q0 121 78.5 186.5t207.5 65.5h53l14 95h-223l21 147h417zM297 140l25 181h-32q-43 0 -64.5 -30t-21.5 -80q0 -37 16 -54t49 -17h28z" />
<glyph unicode="&#x18c;" horiz-adv-x="535" d="M464 0h-166l2 62q-29 -39 -62.5 -60.5t-79.5 -21.5q-72 0 -110 52t-38 151q0 86 26.5 166.5t80 132.5t129.5 52q64 0 100 -44l17 120h-182l18 134h369zM330 375q-9 12 -19 17.5t-23 5.5q-29 0 -49 -35.5t-29.5 -85.5t-9.5 -92q0 -40 8.5 -54t24.5 -14q31 0 69 64z" />
<glyph unicode="&#x18d;" horiz-adv-x="523" d="M76 -204.5q-47 21.5 -76 57.5l94 86q21 -20 42 -30t47 -10t39 13t13 34q0 17 -12.5 29.5t-52.5 31.5q-83 40 -119.5 89t-36.5 128q0 74 29 150t93 127.5t163 51.5q66 0 114.5 -28t74 -76t25.5 -105q0 -95 -39 -165.5t-136 -111.5q72 -51 72 -122q0 -43 -25 -82.5t-75 -64 t-122 -24.5q-65 0 -112 21.5zM309.5 218q14.5 55 14.5 127q0 71 -42 71q-39 0 -59 -57t-20 -142q0 -35 10.5 -56.5t40.5 -42.5q41 45 55.5 100z" />
<glyph unicode="&#x18e;" horiz-adv-x="456" d="M75 696h404l-97 -696h-408l20 139h213l21 147h-175l19 134h174l20 138h-211z" />
<glyph unicode="&#x18f;" horiz-adv-x="573" d="M507.5 647.5q63.5 -67.5 63.5 -194.5q0 -138 -37 -244.5t-111 -167t-181 -60.5q-113 0 -172 67.5t-59 185.5q0 91 28 181l339 -2q3 29 3 52q0 57 -20 83.5t-61 26.5q-38 0 -68.5 -14.5t-60.5 -39.5l-71 105q53 46 108.5 67.5t124.5 21.5q111 0 174.5 -67.5zM317 157 q26 36 41 125h-162q-6 -34 -6 -67q0 -50 15.5 -72t45.5 -22q40 0 66 36z" />
<glyph unicode="&#x190;" horiz-adv-x="492" d="M445 691.5q50 -23.5 90 -72.5l-101 -93q-46 50 -98 50q-36 0 -56 -23t-20 -61q0 -58 69 -58h65l-41 -137h-41q-55 0 -85 -27t-30 -76q0 -38 17.5 -55t52.5 -17q31 0 59.5 13.5t63.5 42.5l85 -99q-96 -98 -243 -98q-107 0 -170.5 51t-63.5 138q0 176 201 197 q-133 29 -133 140q0 62 36 109.5t95 73t125 25.5q73 0 123 -23.5z" />
<glyph unicode="&#x191;" horiz-adv-x="432" d="M271 558l-22 -159h163l-21 -138h-161l-37 -261l-4 -27q-15 -98 -78.5 -149t-158.5 -51q-87 0 -140 46l76 112q16 -9 27.5 -13t27.5 -4q21 0 34 13t17 37l5 36l98 696h398l-42 -138h-182z" />
<glyph unicode="&#x192;" horiz-adv-x="333" d="M306 611q-15 -16 -20 -53l-3 -25h110l-41 -129h-87l-46 -331q-13 -92 -50 -150.5t-89 -91t-124 -57.5l-43 136q56 21 83.5 54.5t36.5 99.5l46 340h-62l19 129h60l5 36q12 87 71 141t156 54q46 0 84.5 -13.5t65.5 -33.5l-65 -109q-30 19 -65 19q-27 0 -42 -16z" />
<glyph unicode="&#x193;" horiz-adv-x="569" d="M774 823l-64 -115q-28 16 -52 16q-20 0 -31 -14t-15 -43l-6 -43l-93 -88q-56 41 -120 41q-93 0 -133 -106t-40 -245q0 -57 17 -81t53 -24q33 0 65 19l19 133h-59l2 134h259l-48 -349q-54 -37 -120.5 -57t-127.5 -20q-257 0 -257 270q0 120 42 226.5t121.5 172t187.5 65.5 q47 0 87 -16v2q10 74 56 117t128 43q71 0 129 -38z" />
<glyph unicode="&#x194;" horiz-adv-x="523" d="M331 95q22 -52 32.5 -85.5t10.5 -70.5q0 -80 -46 -122.5t-130 -42.5q-70 0 -104.5 33.5t-34.5 91.5q0 50 22 98t66 106l-108 593h199l22 -467l146 467h198zM228 7q-36 -59 -36 -93q0 -23 19 -23q30 0 30 44q0 32 -13 72z" />
<glyph unicode="&#x195;" horiz-adv-x="765" d="M324 28q-47 47 -47 117q0 9 2 29l24 177q1 7 1 18q0 12 -3 16.5t-9 4.5q-13 0 -28.5 -23.5t-40.5 -78.5l-41 -288h-186l104 744l188 19l-42 -306q24 41 62.5 68.5t83.5 27.5q50 0 78.5 -32.5t28.5 -90.5q0 -17 -3 -37l-31 -222q-2 -14 -2 -21q0 -33 25 -33q48 0 68 106.5 t20 226.5q0 42 -3 84h175q7 -56 7 -98q0 -143 -22.5 -241t-86 -156t-180.5 -58q-95 0 -142 47z" />
<glyph unicode="&#x196;" horiz-adv-x="367" d="M348 24q-64 -43 -148 -43q-88 0 -137 42.5t-49 124.5q0 11 2 35l3 24l69 489h193l-69 -489h1l-5 -38q-1 -4 -1 -11q0 -37 35 -37q17 0 30.5 4t32.5 13z" />
<glyph unicode="&#x197;" horiz-adv-x="310" d="M331 432l-19 -143h-56l-40 -289h-194l41 289h-58l20 143h58l37 264h193l-37 -264h55z" />
<glyph unicode="&#x198;" horiz-adv-x="610" d="M250 371l138 224q41 66 81.5 93t102.5 27q37 0 63 -10t47 -28l-58 -107q-1 1 -9.5 4.5t-21.5 3.5q-15 0 -26.5 -8t-24.5 -29l-95 -164l129 -377h-214zM-1 0l98 696h193l-97 -696h-194z" />
<glyph unicode="&#x199;" horiz-adv-x="533" d="M517 321.5q-30 -44.5 -94 -80.5l71 -241h-197l-62 256q70 29 97 61.5t27 71.5q0 17 -8.5 26t-23.5 9q-43 0 -98 -83l-47 -341h-187l75 533l7 47q12 81 70 132t157 51q39 0 77 -10.5t64 -26.5l-65 -117q-34 17 -65 17q-24 0 -37 -14t-17 -47l-5 -32l-7 -55q36 39 75 57 t85 18q63 0 100.5 -34.5t37.5 -91.5q0 -61 -30 -105.5z" />
<glyph unicode="&#x19a;" horiz-adv-x="318" d="M233 159q-1 -4 -1 -11q0 -18 17 -18q8 0 17 3l14 -132q-21 -9 -49.5 -14.5t-56.5 -5.5q-64 0 -98 33.5t-34 94.5q0 23 2 35l23 163h-60l20 129h58l43 308l187 19l-44 -327h62l-19 -129h-61z" />
<glyph unicode="&#x19b;" horiz-adv-x="491" d="M432 189.5q15 -80.5 49 -151.5l-180 -56q-29 76 -39 156t-9 207l-99 -364l-187 45l208 459l76 -14q-1 46 -9 79l-47 -39l-83 63l68 55q-25 12 -74 18l34 116q53 -9 90.5 -21.5t66.5 -33.5l80 60l52 -88l-66 -51l-2 -1q36 -75 46 -216q10 -142 25 -222.5z" />
<glyph unicode="&#x19c;" horiz-adv-x="804" d="M826 696l-97 -696h-171l-5 58q-37 -42 -69.5 -59.5t-73.5 -17.5q-44 0 -74 21.5t-44 59.5q-34 -42 -71.5 -61.5t-82.5 -19.5q-61 0 -95 40.5t-34 105.5q0 17 3 35l75 534h194l-74 -527q-4 -45 22 -45t58 50l73 522h193l-73 -527q-1 -5 -1 -13q0 -15 6 -23.5t17 -8.5 q28 0 57 50l73 522h194z" />
<glyph unicode="&#x19d;" horiz-adv-x="580" d="M603 696l-97 -696h-235l-67 533q4 -82 4 -127q0 -97 -13 -193l-27 -213l-5 -33q-14 -95 -68 -144t-144 -49q-46 0 -79 12.5t-60 33.5l77 104q16 -9 27.5 -13t27.5 -4q43 0 51 57l5 36l97 696h233l67 -534q-4 92 -4 129q0 86 12 181l30 224h168z" />
<glyph unicode="&#x19e;" horiz-adv-x="508" d="M471.5 520.5q28.5 -32.5 28.5 -90.5q0 -17 -3 -37l-87 -600l-189 -20l85 578q1 7 1 18q0 21 -13 21t-29.5 -24.5t-40.5 -77.5l-41 -288h-186l74 534h162l1 -83q29 46 70 74t87 28q52 0 80.5 -32.5z" />
<glyph unicode="&#x19f;" horiz-adv-x="624" d="M558.5 645q63.5 -70 63.5 -204q0 -119 -36 -224t-114 -171t-197 -66q-123 0 -186.5 70.5t-63.5 205.5q0 119 36 223.5t114 170t197 65.5q123 0 186.5 -70zM280.5 530q-32.5 -49 -49.5 -127h201q2 46 2 65q0 60 -16.5 85.5t-54.5 25.5q-50 0 -82.5 -49zM369.5 167 q32.5 51 48.5 132h-202q-3 -40 -3 -73q0 -60 16.5 -85t54.5 -25q53 0 85.5 51z" />
<glyph unicode="&#x1a0;" horiz-adv-x="661" d="M701.5 602q-32.5 -41 -92.5 -52q13 -46 13 -109q0 -119 -36 -224t-114 -171t-197 -66q-123 0 -186.5 70.5t-63.5 205.5q0 119 36 223.5t114 170t197 65.5q132 0 196 -81q25 4 36 23t11 54q0 29 -4 48l116 13q7 -26 7 -59q0 -70 -32.5 -111zM368.5 178.5 q30.5 57.5 43 137.5t12.5 154q0 56 -16 80.5t-50 24.5q-49 0 -79.5 -59t-43 -140t-12.5 -152q0 -55 15.5 -79t49.5 -24q50 0 80.5 57.5z" />
<glyph unicode="&#x1a1;" horiz-adv-x="589" d="M605 440q-33 -41 -94 -51q5 -30 5 -58q-1 -94 -31.5 -173.5t-95.5 -128.5t-162 -49q-101 0 -157.5 57t-56.5 165q0 93 30.5 173t95.5 129t162 49q60 0 105 -20.5t73 -60.5q41 10 41 76q0 30 -4 49l115 13q7 -35 7 -59q0 -70 -33 -111zM317.5 403q-9.5 14 -30.5 14 q-46 0 -66 -75.5t-20 -159.5q0 -35 9.5 -50t30.5 -15q47 0 66.5 77.5t19.5 162.5q0 32 -9.5 46z" />
<glyph unicode="&#x1a2;" horiz-adv-x="883" d="M835.5 673.5q48.5 -41.5 48.5 -118.5q0 -17 -3 -37l-102 -733h-194l104 742q1 5 1 14q0 39 -35 39q-15 0 -27 -3.5t-26 -11.5q20 -55 20 -124q0 -119 -36 -224t-114 -171t-197 -66q-123 0 -186.5 70.5t-63.5 205.5q0 119 36 223.5t114 170t197 65.5q98 0 162 -52 q71 52 167 52q86 0 134.5 -41.5zM368.5 178.5q30.5 57.5 43 137.5t12.5 154q0 56 -16 80.5t-50 24.5q-49 0 -79.5 -59t-43 -140t-12.5 -152q0 -55 15.5 -79t49.5 -24q50 0 80.5 57.5z" />
<glyph unicode="&#x1a3;" horiz-adv-x="760" d="M698.5 510q44.5 -43 44.5 -119q0 -20 -3 -41l-76 -557l-188 -20l82 600q1 4 1 12q0 34 -31 34q-14 0 -27 -4q11 -39 11 -84q0 -93 -30.5 -173t-95 -129t-161.5 -49q-100 0 -156 57t-56 165q0 93 30.5 173t95 129t161.5 49q74 0 127 -35q36 18 69.5 26.5t76.5 8.5 q81 0 125.5 -43zM304 193q20 76 20 159q0 35 -9.5 50t-29.5 15q-45 0 -64.5 -76t-19.5 -159q0 -35 9.5 -50t28.5 -15q45 0 65 76z" />
<glyph unicode="&#x1a4;" horiz-adv-x="715" d="M669.5 645.5q65.5 -50.5 65.5 -147.5q0 -77 -33.5 -140t-100 -100.5t-162.5 -37.5h-47l-31 -220h-194l79 558h-25q-20 0 -30.5 -14t-10.5 -39q0 -15 6 -51l-126 -46q-11 27 -16.5 50t-5.5 52q0 86 54.5 136t142.5 50h247q122 0 187.5 -50.5zM514 397.5q23 38.5 23 93.5 q0 35 -17 51t-53 16h-28l-28 -199h26q54 0 77 38.5z" />
<glyph unicode="&#x1a5;" horiz-adv-x="533" d="M486.5 504q36.5 -49 36.5 -141q0 -103 -27.5 -190t-86.5 -140t-150 -53q-45 0 -78 11l-29 -198l-187 -20l105 760l7 47q12 81 70 132t157 51q39 0 77 -10.5t64 -26.5l-65 -117q-34 17 -65 17q-24 0 -37 -14t-17 -47l-5 -32l-4 -43q25 31 58 47t70 16q70 0 106.5 -49z M292.5 154q21.5 39 31.5 94.5t10 105.5q0 37 -9.5 50t-26.5 13q-32 0 -63 -46l-35 -247q18 -9 39 -9q32 0 53.5 39z" />
<glyph unicode="&#x1a6;" horiz-adv-x="559" d="M524 270q-31 -53 -105 -94l109 -287h-203l-81 251h-31l-19 -140h-194l97 696h194l-15 -111h25q254 0 254 -186q0 -76 -31 -129zM232 273h34q48 0 69.5 33.5t21.5 80.5q0 32 -17.5 47t-53.5 15h-29z" />
<glyph unicode="&#x1a7;" horiz-adv-x="513" d="M486.5 667.5q56.5 -47.5 56.5 -128.5q0 -66 -27 -112t-76.5 -77t-127.5 -59q-60 -20 -85.5 -46.5t-25.5 -64.5q0 -54 59 -54q68 0 151 63l79 -106q-48 -46 -115 -74t-150 -28q-105 0 -164.5 52t-59.5 138q0 102 54.5 161.5t161.5 95.5q52 17 79 31t38 30t11 40 q0 22 -14 33.5t-39 11.5q-70 0 -141 -55l-69 103q110 93 253 93q95 0 151.5 -47.5z" />
<glyph unicode="&#x1a8;" horiz-adv-x="435" d="M386.5 512.5q50.5 -40.5 50.5 -106.5q0 -62 -38 -107.5t-124 -79.5q-56 -21 -74 -37t-18 -37q0 -33 40 -33q26 0 59 14.5t63 36.5l73 -100q-43 -38 -104.5 -60t-124.5 -22q-92 0 -146 42.5t-54 114.5q0 65 38 111t136 82q39 14 58.5 24t26 18.5t6.5 21.5q0 26 -36 26 q-22 0 -51 -10t-54 -27l-53 102q37 31 88.5 49t104.5 18q83 0 133.5 -40.5z" />
<glyph unicode="&#x1a9;" horiz-adv-x="450" d="M500 696l-20 -140h-231l108 -184l-9 -68l-148 -161h225l-21 -143h-431l20 139l182 208l-126 210l19 139h432z" />
<glyph unicode="&#x1aa;" horiz-adv-x="430" d="M496 -183q-65 -43 -151 -43q-84 0 -131 42.5t-47 123.5q0 24 2 36l3 24l57 404q-31 -14 -67 -14q-57 0 -93.5 44.5t-37.5 114.5q0 62 28 111t78 76t116 27q86 0 135 -48t49 -134q0 -20 -3 -43l-76 -538l-6 -43l-1 -10q0 -38 39 -38q17 0 29.5 3.5t30.5 12.5zM245 521 l9 64l2 20q0 30 -25 30q-24 0 -34.5 -23.5t-10.5 -56.5q0 -38 33 -38q15 0 26 4z" />
<glyph unicode="&#x1ab;" horiz-adv-x="356" d="M224 170q-1 -5 -1 -14q0 -36 33 -36q21 0 42 9l41 -108l-8 -57q-14 -94 -72 -142t-152 -48q-47 0 -84.5 12.5t-61.5 33.5l74 107q17 -10 33.5 -14.5t39.5 -4.5q55 0 63 58l2 15q-137 10 -137 156q0 22 3 46l31 222h-55l18 129h63l31 116l166 19l-19 -135h105l-39 -129 h-84z" />
<glyph unicode="&#x1ac;" horiz-adv-x="557" d="M583 548h-136l-77 -548h-194l77 548h-34q-39 0 -39 -44q0 -14 6 -50l-126 -46q-11 27 -16.5 50t-5.5 52q0 57 25 99t68.5 64.5t98.5 22.5h393z" />
<glyph unicode="&#x1ad;" horiz-adv-x="356" d="M273 534h106l-39 -129h-84l-30 -222q-1 -6 -1 -17q0 -37 28 -37q21 0 43 12l43 -120q-32 -20 -72 -30.5t-76 -10.5q-78 1 -116.5 41t-38.5 115q0 23 3 47l31 222h-55l18 129h54l5 40q12 88 66.5 138.5t146.5 50.5q75 0 130 -38l-64 -104q-25 14 -48 14q-36 0 -42 -45z " />
<glyph unicode="&#x1ae;" horiz-adv-x="494" d="M383 548l-77 -548h1l-5 -38q-1 -4 -1 -11q0 -37 35 -37q17 0 30.5 4t32.5 13l43 -114q-64 -43 -148 -43q-88 0 -137 42.5t-49 124.5q0 11 2 35l3 24l77 548h-149l21 148h498l-41 -148h-136z" />
<glyph unicode="&#x1af;" horiz-adv-x="679" d="M709.5 589q-44.5 -42 -124.5 -43l-46 -329q-9 -68 -45 -121t-97.5 -84t-145.5 -31q-116 0 -175 54t-59 145q0 21 3 42l67 474h193l-67 -487q-2 -20 -2 -28q0 -29 13 -43.5t41 -14.5q35 0 54 22.5t25 65.5l68 485h194l-8 -60q37 13 37 75q0 29 -4 48l116 13q7 -26 7 -59 q0 -82 -44.5 -124z" />
<glyph unicode="&#x1b0;" horiz-adv-x="606" d="M610.5 427q-44.5 -42 -125.5 -42l-53 -385h-162l2 68q-66 -88 -149 -88q-55 0 -84 33t-29 91q0 19 3 40l54 390h186l-49 -356q-1 -6 -1 -15q0 -23 16 -23q24 0 54 54l47 340h186l-9 -62q40 11 40 76q0 30 -4 49l115 13q7 -35 7 -59q0 -82 -44.5 -124z" />
<glyph unicode="&#x1b1;" horiz-adv-x="621" d="M134.5 14.5q-56.5 34.5 -85.5 94t-29 135.5q0 216 167 316h-109l20 136h241l-18 -128q-50 -45 -76 -143t-26 -199q0 -55 16 -80t50 -25q48 0 78.5 48.5t44 120.5t13.5 147q0 48 -9.5 78t-29.5 54l19 127h241l-20 -138h-106q95 -69 95 -197q0 -109 -42.5 -195.5 t-119.5 -136t-178 -49.5q-80 0 -136.5 34.5z" />
<glyph unicode="&#x1b2;" horiz-adv-x="571" d="M551 681.5q35 -33.5 35 -103.5q0 -14 -4 -50l-35 -259q-19 -140 -101 -214t-212 -74q-103 0 -160.5 53.5t-57.5 139.5q0 23 2 35l70 487h193l-69 -497q-2 -18 -2 -23q0 -53 43 -53q35 0 61.5 34t37.5 109l39 286q1 3 1 9q0 17 -17 17q-7 0 -17 -2l-8 122q46 17 97 17 q69 0 104 -33.5z" />
<glyph unicode="&#x1b3;" horiz-adv-x="580" d="M179 257l-135 439h206l47 -292l63 166q30 77 72.5 111t114.5 34q68 0 119 -37l-62 -110q-18 10 -36 10q-15 0 -25 -8t-22 -30l-148 -283l-36 -257h-194z" />
<glyph unicode="&#x1b4;" horiz-adv-x="488" d="M-24 -99q70 8 107 29.5t63 69.5h-66l-57 534h193l-2 -416l87 321q18 77 58 112t111 35q44 0 84 -14l-44 -125q-10 4 -22 4q-13 0 -21 -7.5t-15 -27.5l-128 -396q-42 -128 -129 -185t-216 -62z" />
<glyph unicode="&#x1b5;" horiz-adv-x="495" d="M534 696l-21 -147l-118 -146h59l-16 -116h-137l-107 -132h276l-42 -155h-459l20 145l114 142h-63l16 116h141l115 143h-244l22 150h444z" />
<glyph unicode="&#x1b6;" horiz-adv-x="421" d="M444 534l-17 -122l-76 -87h49l-17 -102h-121l-81 -92h215l-35 -131h-396l18 123l88 100h-55l17 102h128l70 79h-193l19 130h387z" />
<glyph unicode="&#x1b7;" horiz-adv-x="508" d="M499 562l-161 -157q73 -6 114 -48.5t41 -115.5q0 -81 -39.5 -140t-106 -89.5t-146.5 -30.5q-82 0 -134 28t-88 81l109 91q28 -31 52.5 -44.5t59.5 -13.5q39 0 66.5 30t27.5 78q0 67 -78 67h-96l16 104l153 155h-206l21 139h414z" />
<glyph unicode="&#x1b8;" horiz-adv-x="511" d="M502 557h-215l124 -157l-16 -102h-89q-51 0 -77.5 -28t-26.5 -79q0 -32 16 -50t46 -18q33 0 63.5 15t68.5 47l85 -97q-47 -52 -106.5 -79.5t-139.5 -27.5q-112 0 -173.5 54.5t-61.5 148.5q0 62 28 110.5t77.5 77t111.5 33.5l-127 157l20 134h413z" />
<glyph unicode="&#x1b9;" horiz-adv-x="472" d="M466 395h-218l122 -184l-15 -100l-2 1l1 -1h-90q-48 0 -75.5 -29.5t-27.5 -83.5q0 -41 18.5 -61t51.5 -20q31 0 60 13.5t66 44.5l80 -95q-93 -106 -239 -106q-108 0 -168.5 57.5t-60.5 151.5q0 98 60 160t166 72l-135 192l19 127h407z" />
<glyph unicode="&#x1ba;" horiz-adv-x="474" d="M13.5 -168q-37.5 37 -37.5 86q0 64 45 100t128 57q57 15 80 31t23 41q0 19 -14 26.5t-48 7.5h-105l14 95l139 129h-204l19 129h409l-17 -118l-153 -134h7q66 0 104 -34t38 -94q0 -84 -53.5 -129t-146.5 -68q-44 -11 -65.5 -19t-29 -15.5t-7.5 -18.5q0 -9 6 -16.5 t18 -15.5l-49 -98q-63 21 -100.5 58z" />
<glyph unicode="&#x1bb;" horiz-adv-x="472" d="M415 351h45l-15 -116h-136q-46 -43 -108 -93l237 1l-39 -143h-420l17 132q68 63 108 103h-58l16 116h152q37 45 54 80t17 69q0 26 -13.5 39.5t-37.5 13.5q-26 0 -50.5 -15.5t-58.5 -49.5l-96 88q49 58 108 88.5t133 30.5q100 0 153.5 -50t53.5 -127q0 -82 -62 -167z" />
<glyph unicode="&#x1bc;" horiz-adv-x="502" d="M-23 91l111 88q20 -28 44.5 -43.5t57.5 -15.5q53 0 76.5 44.5t23.5 105.5q0 36 -13.5 51t-38.5 15q-16 0 -32 -5.5t-38 -19.5l-120 1l53 384h406l-38 -133h-211l-18 -123q46 23 93 23q66 0 106.5 -47t40.5 -134q0 -83 -33.5 -151.5t-100.5 -109.5t-164 -41 q-133 0 -205 111z" />
<glyph unicode="&#x1bd;" horiz-adv-x="446" d="M392 402h-166l-10 -70q30 16 73 16q55 0 91.5 -37.5t36.5 -106.5t-33.5 -119.5t-89.5 -77t-122 -26.5q-67 0 -110 21.5t-82 64.5l106 96q23 -23 43.5 -34t46.5 -11q27 0 42.5 20t15.5 53q0 37 -31 37q-18 0 -44 -11h-118l44 317h349z" />
<glyph unicode="&#x1be;" horiz-adv-x="461" d="M416 367.5q25 -38.5 25 -100.5q0 -83 -34.5 -148.5t-96.5 -101.5t-141 -36q-129 0 -208 96l101 89q24 -25 45.5 -36.5t47.5 -11.5q46 0 70.5 39t24.5 106q0 46 -20 74t-64 41l-38 10l19 134h-57l14 103h57l17 119l187 19l-20 -138h86l-14 -103h-86l-12 -84l25 -11 q47 -21 72 -59.5z" />
<glyph unicode="&#x1bf;" horiz-adv-x="537" d="M492 508q40 -45 40 -125q0 -93 -36.5 -160t-96 -113t-144.5 -88l-76 -38l-27 -191l-187 -19l106 760h166v-54q65 73 149 73q66 0 106 -45zM340 369q0 51 -36 51q-34 0 -68 -36l-37 -264l26 20q115 88 115 229z" />
<glyph unicode="&#x1c0;" horiz-adv-x="232" d="M264 760l-109 -760h-156l105 744z" />
<glyph unicode="&#x1c1;" horiz-adv-x="447" d="M264 760l-109 -760h-156l105 744zM479 760l-109 -760h-156l105 744z" />
<glyph unicode="&#x1c2;" horiz-adv-x="311" d="M328 392h-75l-7 -47h75l-14 -102h-75l-35 -243h-156l34 243h-77l14 102h78l6 47h-76l15 102h76l35 250l160 16l-38 -266h74z" />
<glyph unicode="&#x1c3;" horiz-adv-x="268" d="M280 760l-72 -513h-157l69 497zM33.5 5.5q-23.5 25.5 -23.5 63.5q0 47 31.5 79.5t78.5 32.5q39 0 62.5 -25t23.5 -64q0 -47 -31.5 -79.5t-78.5 -32.5q-39 0 -62.5 25.5z" />
<glyph unicode="&#x1c4;" horiz-adv-x="1062" d="M510.5 640q78.5 -56 78.5 -201q0 -201 -89 -320t-285 -119h-216l98 696h203q132 0 210.5 -56zM271 556l-58 -416h31q80 0 113.5 92.5t33.5 209.5q0 63 -21 88.5t-65 25.5h-34zM536 0l20 145l306 401h-227l22 150h444l-21 -147l-304 -394h261l-42 -155h-459zM1024 959 l61 -73l-150 -138h-110l-116 144l72 67l111 -87z" />
<glyph unicode="&#x1c5;" horiz-adv-x="1004" d="M510.5 640q78.5 -56 78.5 -201q0 -201 -89 -320t-285 -119h-216l98 696h203q132 0 210.5 -56zM271 556l-58 -416h31q80 0 113.5 92.5t33.5 209.5q0 63 -21 88.5t-65 25.5h-34zM1027 534l-18 -132l-216 -261h188l-37 -141h-396l18 133l217 262h-164l20 139h388zM991 825 l59 -73l-150 -148h-111l-109 148l68 73l108 -96z" />
<glyph unicode="&#x1c6;" horiz-adv-x="957" d="M568 744l-104 -744h-165l1 62q-28 -39 -61.5 -60.5t-79.5 -21.5q-73 0 -111 52.5t-38 150.5q0 91 27 176t81.5 139.5t130.5 54.5q63 0 100 -43l35 253zM240 380q-20 -38 -29.5 -92t-9.5 -103q0 -40 8.5 -54t23.5 -14q30 0 70 64l30 214q-18 23 -42 23q-31 0 -51 -38z M980 534l-18 -132l-216 -261h188l-37 -141h-396l18 133l217 262h-164l20 139h388zM944 825l59 -73l-150 -148h-111l-109 148l68 73l108 -96z" />
<glyph unicode="&#x1c7;" horiz-adv-x="735" d="M290 696l-75 -544h230l-42 -152h-404l98 696h193zM677 106q-13 -91 -52.5 -148.5t-92 -88t-124.5 -54.5l-34 137q57 24 79 61t31 105l81 578h194z" />
<glyph unicode="&#x1c8;" horiz-adv-x="703" d="M290 696l-75 -544h230l-42 -152h-404l98 696h193zM336 -91q56 22 83 55t36 99l66 471h186l-65 -461q-13 -92 -50 -150.5t-89 -91t-124 -57.5zM561 644.5q-25 24.5 -25 64.5q0 50 34 83t83 33q43 0 68 -24.5t25 -64.5q0 -50 -33.5 -83t-83.5 -33q-43 0 -68 24.5z" />
<glyph unicode="&#x1c9;" horiz-adv-x="520" d="M200 159q-1 -4 -1 -11q0 -18 17 -18q8 0 17 3l14 -132q-21 -9 -49.5 -14.5t-56.5 -5.5q-64 0 -98 33.5t-34 94.5q0 23 2 35l84 600l187 19zM153 -91q56 22 83 55t36 99l66 471h186l-65 -461q-13 -92 -50 -150.5t-89 -91t-124 -57.5zM378 644.5q-25 24.5 -25 64.5 q0 50 34 83t83 33q43 0 68 -24.5t25 -64.5q0 -50 -33.5 -83t-83.5 -33q-43 0 -68 24.5z" />
<glyph unicode="&#x1ca;" horiz-adv-x="875" d="M506 0h-235l-67 533q4 -82 4 -127q0 -97 -13 -193l-27 -213h-168l97 696h233l67 -534q-4 92 -4 129q0 86 12 181l30 224h168zM817 106q-13 -91 -52.5 -148.5t-92 -88t-124.5 -54.5l-34 137q57 24 79 61t31 105l81 578h194z" />
<glyph unicode="&#x1cb;" horiz-adv-x="833" d="M506 0h-235l-67 533q4 -82 4 -127q0 -97 -13 -193l-27 -213h-168l97 696h233l67 -534q-4 92 -4 129q0 86 12 181l30 224h168zM466 -91q56 22 83 55t36 99l66 471h186l-65 -461q-13 -92 -50 -150.5t-89 -91t-124 -57.5zM691 644.5q-25 24.5 -25 64.5q0 50 34 83t83 33 q43 0 68 -24.5t25 -64.5q0 -50 -33.5 -83t-83.5 -33q-43 0 -68 24.5z" />
<glyph unicode="&#x1cc;" horiz-adv-x="761" d="M471.5 520.5q28.5 -32.5 28.5 -90.5q0 -17 -3 -37l-56 -393h-186l49 351q1 7 1 18q0 12 -3 16.5t-9 4.5q-13 0 -28.5 -23.5t-40.5 -78.5l-41 -288h-186l74 534h162l1 -83q29 46 70 74t88 28q51 0 79.5 -32.5zM394 -91q56 22 83 55t36 99l66 471h186l-65 -461 q-13 -92 -50 -150.5t-89 -91t-124 -57.5zM619 644.5q-25 24.5 -25 64.5q0 50 34 83t83 33q43 0 68 -24.5t25 -64.5q0 -50 -33.5 -83t-83.5 -33q-43 0 -68 24.5z" />
<glyph unicode="&#x1cd;" horiz-adv-x="542" d="M324 0l-4 138h-138l-40 -138h-201l274 696h231l79 -696h-201zM222 276h94l-8 294zM482 959l61 -73l-150 -138h-110l-116 144l72 67l111 -87z" />
<glyph unicode="&#x1ce;" horiz-adv-x="523" d="M420.5 538.5q54.5 -14.5 103.5 -42.5l-47 -328q-2 -20 -2 -27q0 -14 4.5 -22t16.5 -13l-56 -122q-46 4 -82 24t-50 56q-28 -41 -62.5 -62.5t-81.5 -21.5q-75 0 -114.5 54t-39.5 149t30.5 179t98 137.5t173.5 53.5q54 0 108.5 -14.5zM224 348.5q-25 -73.5 -25 -168.5 q0 -36 8.5 -49.5t23.5 -13.5q31 0 62 54l36 247q-15 4 -31 4q-49 0 -74 -73.5zM479 825l59 -73l-150 -148h-111l-109 148l68 73l108 -96z" />
<glyph unicode="&#x1cf;" horiz-adv-x="267" d="M290 696l-97 -696h-194l98 696h193zM345 959l61 -73l-150 -138h-110l-116 144l72 67l111 -87z" />
<glyph unicode="&#x1d0;" horiz-adv-x="254" d="M257 534l-74 -534h-186l74 534h186zM321 825l59 -73l-150 -148h-111l-109 148l68 73l108 -96z" />
<glyph unicode="&#x1d1;" horiz-adv-x="624" d="M558.5 645q63.5 -70 63.5 -204q0 -119 -36 -224t-114 -171t-197 -66q-123 0 -186.5 70.5t-63.5 205.5q0 119 36 223.5t114 170t197 65.5q123 0 186.5 -70zM278.5 516q-30.5 -59 -43 -140t-12.5 -152q0 -55 15.5 -79t49.5 -24q50 0 80.5 57.5t43 137.5t12.5 154 q0 56 -16 80.5t-50 24.5q-49 0 -79.5 -59zM521 959l61 -73l-150 -138h-110l-116 144l72 67l111 -87z" />
<glyph unicode="&#x1d2;" horiz-adv-x="529" d="M69.5 37q-56.5 57 -56.5 165q0 93 30.5 173t95.5 129t162 49q101 0 158 -57.5t57 -164.5q-1 -94 -31.5 -173.5t-95.5 -128.5t-162 -49q-101 0 -157.5 57zM307.5 194.5q19.5 77.5 19.5 162.5q0 32 -9.5 46t-30.5 14q-46 0 -66 -75.5t-20 -159.5q0 -35 9.5 -50t30.5 -15 q47 0 66.5 77.5zM454 825l59 -73l-150 -148h-111l-109 148l68 73l108 -96z" />
<glyph unicode="&#x1d3;" horiz-adv-x="573" d="M539 217q-9 -68 -45 -121t-97.5 -84t-145.5 -31q-116 0 -175 54t-59 145q0 21 3 42l67 474h193l-67 -487q-2 -20 -2 -28q0 -29 13 -43.5t41 -14.5q35 0 54 22.5t25 65.5l68 485h194zM497 959l61 -73l-150 -138h-110l-116 144l72 67l111 -87z" />
<glyph unicode="&#x1d4;" horiz-adv-x="503" d="M39 13q-29 33 -29 91q0 19 3 40l54 390h186l-49 -356q-1 -6 -1 -15q0 -23 16 -23q24 0 54 54l47 340h186l-74 -534h-162l2 68q-66 -88 -149 -88q-55 0 -84 33zM444 825l59 -73l-150 -148h-111l-109 148l68 73l108 -96z" />
<glyph unicode="&#x1d5;" horiz-adv-x="573" d="M539 217q-9 -68 -45 -121t-97.5 -84t-145.5 -31q-116 0 -175 54t-59 145q0 21 3 42l67 474h193l-67 -487q-2 -20 -2 -28q0 -29 13 -43.5t41 -14.5q35 0 54 22.5t25 65.5l68 485h194zM182.5 766.5q-21.5 21.5 -21.5 56.5q0 43 29.5 72t71.5 29q38 0 59.5 -21.5t21.5 -56.5 q0 -43 -29.5 -72t-72.5 -29q-37 0 -58.5 21.5zM405.5 766.5q-21.5 21.5 -21.5 56.5q0 43 29 72t72 29q37 0 58.5 -21.5t21.5 -56.5q0 -43 -29 -72t-72 -29q-37 0 -58.5 21.5zM522 961h-292l19 130h293z" />
<glyph unicode="&#x1d6;" horiz-adv-x="503" d="M39 13q-29 33 -29 91q0 19 3 40l54 390h186l-49 -356q-1 -6 -1 -15q0 -23 16 -23q24 0 54 54l47 340h186l-74 -534h-162l2 68q-66 -88 -149 -88q-55 0 -84 33zM127.5 612.5q-21.5 21.5 -21.5 56.5q0 43 29.5 72t71.5 29q38 0 59.5 -21.5t21.5 -56.5q0 -43 -29.5 -72 t-72.5 -29q-37 0 -58.5 21.5zM350.5 612.5q-21.5 21.5 -21.5 56.5q0 43 29 72t72 29q37 0 58.5 -21.5t21.5 -56.5q0 -43 -29 -72t-72 -29q-37 0 -58.5 21.5zM468 807h-292l19 130h293z" />
<glyph unicode="&#x1d7;" horiz-adv-x="573" d="M539 217q-9 -68 -45 -121t-97.5 -84t-145.5 -31q-116 0 -175 54t-59 145q0 21 3 42l67 474h193l-67 -487q-2 -20 -2 -28q0 -29 13 -43.5t41 -14.5q35 0 54 22.5t25 65.5l68 485h194zM465 1136l87 -95l-179 -151l-63 60zM176.5 770.5q-21.5 21.5 -21.5 56.5q0 43 29.5 72 t71.5 29q38 0 59 -21.5t21 -56.5q0 -43 -29.5 -72t-71.5 -29q-37 0 -58.5 21.5zM417.5 770.5q-21.5 21.5 -21.5 56.5q0 43 29.5 72t71.5 29q38 0 59 -21.5t21 -56.5q0 -43 -29.5 -72t-71.5 -29q-37 0 -58.5 21.5z" />
<glyph unicode="&#x1d8;" horiz-adv-x="503" d="M39 13q-29 33 -29 91q0 19 3 40l54 390h186l-49 -356q-1 -6 -1 -15q0 -23 16 -23q24 0 54 54l47 340h186l-74 -534h-162l2 68q-66 -88 -149 -88q-55 0 -84 33zM399 977l87 -95l-179 -151l-63 60zM106.5 611.5q-21.5 21.5 -21.5 56.5q0 43 30 72t72 29q37 0 58.5 -21.5 t21.5 -56.5q0 -43 -29.5 -72t-72.5 -29q-37 0 -58.5 21.5zM348.5 611.5q-21.5 21.5 -21.5 56.5q0 43 29.5 72t71.5 29q37 0 58.5 -21.5t21.5 -56.5q0 -43 -29.5 -72t-71.5 -29q-37 0 -58.5 21.5z" />
<glyph unicode="&#x1d9;" horiz-adv-x="573" d="M539 217q-9 -68 -45 -121t-97.5 -84t-145.5 -31q-116 0 -175 54t-59 145q0 21 3 42l67 474h193l-67 -487q-2 -20 -2 -28q0 -29 13 -43.5t41 -14.5q35 0 54 22.5t25 65.5l68 485h194zM519 1136l61 -73l-150 -138h-110l-116 144l72 67l111 -87zM174.5 770.5 q-21.5 21.5 -21.5 56.5q0 43 29.5 72t72.5 29q37 0 58.5 -21.5t21.5 -56.5q0 -43 -29.5 -72t-72.5 -29q-37 0 -58.5 21.5zM415.5 770.5q-21.5 21.5 -21.5 56.5q0 43 29.5 72t72.5 29q37 0 58.5 -21.5t21.5 -56.5q0 -42 -30 -71.5t-72 -29.5q-37 0 -58.5 21.5z" />
<glyph unicode="&#x1da;" horiz-adv-x="503" d="M39 13q-29 33 -29 91q0 19 3 40l54 390h186l-49 -356q-1 -6 -1 -15q0 -23 16 -23q24 0 54 54l47 340h186l-74 -534h-162l2 68q-66 -88 -149 -88q-55 0 -84 33zM453 977l61 -73l-150 -138h-110l-116 144l72 67l111 -87zM106.5 611.5q-21.5 21.5 -21.5 56.5q0 43 29.5 72 t71.5 29q38 0 59 -21.5t21 -56.5q0 -43 -29.5 -72t-71.5 -29q-37 0 -58.5 21.5zM347.5 611.5q-21.5 21.5 -21.5 56.5q0 43 29.5 72t72.5 29q37 0 58.5 -21.5t21.5 -56.5q0 -42 -30 -71.5t-72 -29.5q-37 0 -58.5 21.5z" />
<glyph unicode="&#x1db;" horiz-adv-x="573" d="M539 217q-9 -68 -45 -121t-97.5 -84t-145.5 -31q-116 0 -175 54t-59 145q0 21 3 42l67 474h193l-67 -487q-2 -20 -2 -28q0 -29 13 -43.5t41 -14.5q35 0 54 22.5t25 65.5l68 485h194zM340 1134l102 -188l-77 -55l-136 158zM173.5 771.5q-21.5 21.5 -21.5 56.5 q0 43 29.5 72t71.5 29q38 0 59 -21.5t21 -56.5q0 -43 -29.5 -72t-71.5 -29q-37 0 -58.5 21.5zM414.5 771.5q-21.5 21.5 -21.5 56.5q0 43 29.5 72t71.5 29q38 0 59 -21.5t21 -56.5q0 -43 -29.5 -72t-71.5 -29q-37 0 -58.5 21.5z" />
<glyph unicode="&#x1dc;" horiz-adv-x="503" d="M39 13q-29 33 -29 91q0 19 3 40l54 390h186l-49 -356q-1 -6 -1 -15q0 -23 16 -23q24 0 54 54l47 340h186l-74 -534h-162l2 68q-66 -88 -149 -88q-55 0 -84 33zM273 974l102 -188l-77 -55l-136 158zM107 611.5q-22 21.5 -22 56.5q0 43 29.5 72t72.5 29q37 0 58.5 -21.5 t21.5 -56.5q0 -43 -29.5 -72t-71.5 -29q-37 0 -59 21.5zM348.5 611.5q-21.5 21.5 -21.5 56.5q0 43 29 72t72 29q37 0 58.5 -21.5t21.5 -56.5q0 -43 -29 -72t-72 -29q-37 0 -58.5 21.5z" />
<glyph unicode="&#x1dd;" horiz-adv-x="501" d="M431 498q58 -56 58 -161q0 -94 -32 -175t-99.5 -131t-168.5 -50q-90 0 -141.5 41.5t-51.5 107.5q0 101 89 150t221 63q0 75 -69 75q-28 0 -55 -11.5t-64 -35.5l-63 107q95 76 210 76q108 0 166 -56zM263.5 139.5q21.5 37.5 32.5 95.5q-65 -5 -91.5 -35.5t-26.5 -64.5 q0 -33 32 -33t53.5 37.5z" />
<glyph unicode="&#x1de;" horiz-adv-x="542" d="M324 0l-4 138h-138l-40 -138h-201l274 696h231l79 -696h-201zM222 276h94l-8 294zM167.5 766.5q-21.5 21.5 -21.5 56.5q0 43 29.5 72t71.5 29q38 0 59.5 -21.5t21.5 -56.5q0 -43 -29.5 -72t-72.5 -29q-37 0 -58.5 21.5zM390.5 766.5q-21.5 21.5 -21.5 56.5q0 43 29 72 t72 29q37 0 58.5 -21.5t21.5 -56.5q0 -43 -29 -72t-72 -29q-37 0 -58.5 21.5zM507 961h-292l19 130h293z" />
<glyph unicode="&#x1df;" horiz-adv-x="523" d="M420.5 538.5q54.5 -14.5 103.5 -42.5l-47 -328q-2 -20 -2 -27q0 -14 4.5 -22t16.5 -13l-56 -122q-46 4 -82 24t-50 56q-28 -41 -62.5 -62.5t-81.5 -21.5q-75 0 -114.5 54t-39.5 149t30.5 179t98 137.5t173.5 53.5q54 0 108.5 -14.5zM224 348.5q-25 -73.5 -25 -168.5 q0 -36 8.5 -49.5t23.5 -13.5q31 0 62 54l36 247q-15 4 -31 4q-49 0 -74 -73.5zM162.5 612.5q-21.5 21.5 -21.5 56.5q0 43 29.5 72t71.5 29q38 0 59.5 -21.5t21.5 -56.5q0 -43 -29.5 -72t-72.5 -29q-37 0 -58.5 21.5zM385.5 612.5q-21.5 21.5 -21.5 56.5q0 43 29 72t72 29 q37 0 58.5 -21.5t21.5 -56.5q0 -43 -29 -72t-72 -29q-37 0 -58.5 21.5zM503 807h-292l19 130h293z" />
<glyph unicode="&#x1e0;" horiz-adv-x="542" d="M324 0l-4 138h-138l-40 -138h-201l274 696h231l79 -696h-201zM222 276h94l-8 294zM269 758.5q-25 24.5 -25 64.5q0 50 34 83t83 33q43 0 68 -24.5t25 -64.5q0 -50 -33.5 -83t-83.5 -33q-43 0 -68 24.5zM516 961h-292l19 130h293z" />
<glyph unicode="&#x1e1;" horiz-adv-x="523" d="M420.5 538.5q54.5 -14.5 103.5 -42.5l-47 -328q-2 -20 -2 -27q0 -14 4.5 -22t16.5 -13l-56 -122q-46 4 -82 24t-50 56q-28 -41 -62.5 -62.5t-81.5 -21.5q-75 0 -114.5 54t-39.5 149t30.5 179t98 137.5t173.5 53.5q54 0 108.5 -14.5zM224 348.5q-25 -73.5 -25 -168.5 q0 -36 8.5 -49.5t23.5 -13.5q31 0 62 54l36 247q-15 4 -31 4q-49 0 -74 -73.5zM262 612.5q-25 24.5 -25 64.5q0 50 34 83t83 33q43 0 68 -24.5t25 -64.5q0 -50 -33.5 -83t-83.5 -33q-43 0 -68 24.5zM503 823h-292l19 130h293z" />
<glyph unicode="&#x1e2;" horiz-adv-x="771" d="M747 558h-211v-140h205l-19 -134h-186v-145h205l-21 -139h-361l2 138h-156l-54 -138h-210l325 696h521zM260 277h104l5 278zM652 775h-292l19 130h293z" />
<glyph unicode="&#x1e3;" horiz-adv-x="770" d="M352.5 538.5q32.5 -14.5 56.5 -43.5q32 27 76.5 42.5t95.5 15.5q90 0 141.5 -41t51.5 -106q0 -103 -88.5 -152t-220.5 -63q1 -42 17.5 -58.5t50.5 -16.5q28 0 55 11.5t64 35.5l63 -107q-95 -76 -210 -76q-131 0 -185 81q-38 -44 -80.5 -62t-91.5 -18q-69 0 -110.5 39.5 t-41.5 104.5q0 86 59.5 144.5t206.5 58.5h36q7 23 16 44q-4 22 -24.5 33t-50.5 11q-59 0 -128 -25l-25 122q48 19 96.5 29.5t87.5 10.5q50 0 82.5 -14.5zM505.5 394.5q-21.5 -37.5 -31.5 -95.5q64 5 91 36t27 63q0 34 -33 34q-32 0 -53.5 -37.5zM261 224q-32 0 -50.5 -18 t-18.5 -51q0 -41 32 -41q14 0 28 11t32 34q-2 24 -2 39l1 26h-22zM583 649h-292l19 130h293z" />
<glyph unicode="&#x1e4;" horiz-adv-x="620" d="M603 176h-58l-16 -118q-55 -37 -121.5 -57t-127.5 -20q-256 0 -256 270q0 123 41 228.5t125 170.5t207 65q67 0 120.5 -25t89.5 -66l-105 -96q-27 26 -51.5 37.5t-57.5 11.5q-92 0 -132 -106t-40 -245q0 -57 17 -81t52 -24q39 0 75 19l5 36h-70l13 101h70l6 42h-69 l-2 110h260l-20 -152h59z" />
<glyph unicode="&#x1e5;" horiz-adv-x="522" d="M458 7h45l-8 -63h-54q-29 -87 -90.5 -128.5t-162.5 -41.5q-106 0 -196 59l58 110q70 -39 130 -39q63 0 84 40h-93l8 63h100l12 86q-22 -30 -53.5 -47t-70.5 -17q-73 0 -112.5 54t-39.5 143q0 81 30 155.5t97.5 123t172.5 48.5q55 0 110 -14.5t103 -42.5l-64 -452z M270.5 181q17.5 15 33.5 39l28 198q-13 4 -30 4q-49 0 -73.5 -60.5t-24.5 -133.5q0 -62 33 -62q16 0 33.5 15z" />
<glyph unicode="&#x1e6;" horiz-adv-x="588" d="M517.5 690q53.5 -25 89.5 -66l-103 -94q-30 25 -54.5 36t-56.5 11q-92 0 -132 -106t-40 -245q0 -57 17 -81t52 -24q34 0 66 19l19 133h-59l1 134h260l-48 -349q-55 -37 -121.5 -57t-127.5 -20q-256 0 -256 270q0 123 41 228.5t125 170.5t207 65q67 0 120.5 -25zM532 959 l61 -73l-150 -138h-110l-116 144l72 67l111 -87z" />
<glyph unicode="&#x1e7;" horiz-adv-x="525" d="M424 538.5q55 -14.5 104 -42.5l-64 -452q-20 -140 -85 -205t-193 -65q-51 0 -101.5 15.5t-93.5 43.5l63 120q67 -39 127 -39q40 0 65 20t33 75l8 55q-50 -65 -122 -65q-74 0 -113.5 54t-39.5 146t30.5 172.5t98.5 131t174 50.5q54 0 109 -14.5zM226 355q-25 -67 -25 -156 q0 -35 9 -48.5t25 -13.5q31 0 65 53l32 228q-13 4 -30 4q-51 0 -76 -67zM467 825l59 -73l-150 -148h-111l-109 148l68 73l108 -96z" />
<glyph unicode="&#x1e8;" horiz-adv-x="600" d="M-1 0l98 696h193l-97 -696h-194zM363 0l-113 371l210 325h197l-211 -320l130 -376h-213zM507 959l61 -73l-150 -138h-110l-116 144l72 67l111 -87z" />
<glyph unicode="&#x1e9;" horiz-adv-x="533" d="M250 478q36 39 75 57t85 18q63 0 100 -34.5t37 -91.5q0 -61 -30 -105t-93 -81l71 -241h-197l-63 256q70 29 97 61.5t27 71.5q0 17 -8 26t-23 9q-44 0 -99 -83l-46 -341h-187l104 744l189 19zM512 1007l61 -73l-150 -138h-110l-116 144l72 67l111 -87z" />
<glyph unicode="&#x1ea;" horiz-adv-x="624" d="M296.5 -57.5q-22.5 -27.5 -22.5 -50.5q0 -33 40 -33q15 0 53 6l-26 -109q-30 -8 -67 -8q-57 0 -93.5 30t-36.5 83q0 72 66 125q-91 17 -138 85.5t-47 184.5q0 119 36 223.5t114 170t197 65.5q123 0 186.5 -70t63.5 -204q0 -100 -25.5 -191t-80.5 -159.5t-138 -95.5 q-59 -25 -81.5 -52.5zM278.5 516q-30.5 -59 -43 -140t-12.5 -152q0 -55 15.5 -79t49.5 -24q50 0 80.5 57.5t43 137.5t12.5 154q0 56 -16 80.5t-50 24.5q-49 0 -79.5 -59z" />
<glyph unicode="&#x1eb;" horiz-adv-x="529" d="M239 -58.5q-21 -26.5 -21 -49.5q0 -33 40 -33q15 0 53 6l-26 -109q-30 -8 -67 -8q-57 0 -93.5 30t-36.5 83q0 74 69 127q-69 17 -106.5 72t-37.5 142q0 93 30.5 173t95.5 129t162 49q101 0 158 -57.5t57 -164.5q-1 -121 -51 -214.5t-149 -123.5q-56 -25 -77 -51.5z M221 341.5q-20 -75.5 -20 -159.5q0 -35 9.5 -50t30.5 -15q47 0 66.5 77.5t19.5 162.5q0 32 -9.5 46t-30.5 14q-46 0 -66 -75.5z" />
<glyph unicode="&#x1ec;" horiz-adv-x="624" d="M544 905l-20 -130h-292l19 130h293zM296.5 -57.5q-22.5 -27.5 -22.5 -50.5q0 -33 40 -33q15 0 53 6l-26 -109q-30 -8 -67 -8q-57 0 -93.5 30t-36.5 83q0 72 66 125q-91 17 -138 85.5t-47 184.5q0 119 36 223.5t114 170t197 65.5q123 0 186.5 -70t63.5 -204 q0 -100 -25.5 -191t-80.5 -159.5t-138 -95.5q-59 -25 -81.5 -52.5zM278.5 516q-30.5 -59 -43 -140t-12.5 -152q0 -55 15.5 -79t49.5 -24q50 0 80.5 57.5t43 137.5t12.5 154q0 56 -16 80.5t-50 24.5q-49 0 -79.5 -59z" />
<glyph unicode="&#x1ed;" horiz-adv-x="529" d="M478 779l-20 -130h-292l19 130h293zM239 -58.5q-21 -26.5 -21 -49.5q0 -33 40 -33q15 0 53 6l-26 -109q-30 -8 -67 -8q-57 0 -93.5 30t-36.5 83q0 74 69 127q-69 17 -106.5 72t-37.5 142q0 93 30.5 173t95.5 129t162 49q101 0 158 -57.5t57 -164.5q-1 -121 -51 -214.5 t-149 -123.5q-56 -25 -77 -51.5zM221 341.5q-20 -75.5 -20 -159.5q0 -35 9.5 -50t30.5 -15q47 0 66.5 77.5t19.5 162.5q0 32 -9.5 46t-30.5 14q-46 0 -66 -75.5z" />
<glyph unicode="&#x1ee;" horiz-adv-x="508" d="M499 562l-161 -157q73 -6 114 -48.5t41 -115.5q0 -81 -39.5 -140t-106 -89.5t-146.5 -30.5q-82 0 -134 28t-88 81l109 91q28 -31 52.5 -44.5t59.5 -13.5q39 0 66.5 30t27.5 78q0 67 -78 67h-96l16 104l153 155h-206l21 139h414zM462 959l61 -73l-150 -138h-110l-116 144 l72 67l111 -87z" />
<glyph unicode="&#x1ef;" horiz-adv-x="470" d="M447 407l-175 -195q77 -10 117.5 -51.5t40.5 -114.5q0 -83 -38 -144.5t-104 -95t-149 -33.5q-143 0 -212 110l109 91q27 -31 51 -44.5t55 -13.5q45 0 72 32.5t27 93.5q0 38 -20 53.5t-58 15.5h-92l14 104l160 180h-207l19 139h408zM419 825l59 -73l-150 -148h-111 l-109 148l68 73l108 -96z" />
<glyph unicode="&#x1f0;" horiz-adv-x="253" d="M-114 -91q56 22 83 55t36 99l66 471h186l-65 -461q-13 -92 -50 -150.5t-89 -91t-124 -57.5zM321 825l59 -73l-150 -148h-111l-109 148l68 73l108 -96z" />
<glyph unicode="&#x1f1;" horiz-adv-x="1062" d="M510.5 640q78.5 -56 78.5 -201q0 -201 -89 -320t-285 -119h-216l98 696h203q132 0 210.5 -56zM271 556l-58 -416h31q80 0 113.5 92.5t33.5 209.5q0 63 -21 88.5t-65 25.5h-34zM536 0l20 145l306 401h-227l22 150h444l-21 -147l-304 -394h261l-42 -155h-459z" />
<glyph unicode="&#x1f2;" horiz-adv-x="1004" d="M510.5 640q78.5 -56 78.5 -201q0 -201 -89 -320t-285 -119h-216l98 696h203q132 0 210.5 -56zM271 556l-58 -416h31q80 0 113.5 92.5t33.5 209.5q0 63 -21 88.5t-65 25.5h-34zM1027 534l-18 -132l-216 -261h188l-37 -141h-396l18 133l217 262h-164l20 139h388z" />
<glyph unicode="&#x1f3;" horiz-adv-x="957" d="M568 744l-104 -744h-165l1 62q-28 -39 -61.5 -60.5t-79.5 -21.5q-73 0 -111 52.5t-38 150.5q0 91 27 176t81.5 139.5t130.5 54.5q63 0 100 -43l35 253zM240 380q-20 -38 -29.5 -92t-9.5 -103q0 -40 8.5 -54t23.5 -14q30 0 70 64l30 214q-18 23 -42 23q-31 0 -51 -38z M980 534l-18 -132l-216 -261h188l-37 -141h-396l18 133l217 262h-164l20 139h388z" />
<glyph unicode="&#x1f4;" horiz-adv-x="588" d="M517.5 690q53.5 -25 89.5 -66l-103 -94q-30 25 -54.5 36t-56.5 11q-92 0 -132 -106t-40 -245q0 -57 17 -81t52 -24q34 0 66 19l19 133h-59l1 134h260l-48 -349q-55 -37 -121.5 -57t-127.5 -20q-256 0 -256 270q0 123 41 228.5t125 170.5t207 65q67 0 120.5 -25zM495 965 l59 -134l-240 -88l-42 89z" />
<glyph unicode="&#x1f5;" horiz-adv-x="525" d="M424 538.5q55 -14.5 104 -42.5l-64 -452q-20 -140 -85 -205t-193 -65q-51 0 -101.5 15.5t-93.5 43.5l63 120q67 -39 127 -39q40 0 65 20t33 75l8 55q-50 -65 -122 -65q-74 0 -113.5 54t-39.5 146t30.5 172.5t98.5 131t174 50.5q54 0 109 -14.5zM226 355q-25 -67 -25 -156 q0 -35 9 -48.5t25 -13.5q31 0 65 53l32 228q-13 4 -30 4q-51 0 -76 -67zM416 847l59 -134l-239 -98l-45 91z" />
<glyph unicode="&#x1f6;" horiz-adv-x="835" d="M390 29q-50 48 -50 119q0 8 2 26l15 110h-124l-40 -284h-194l98 696h193l-36 -260h124l36 260h194l-73 -525q-2 -16 -2 -22q0 -32 25 -32q48 0 68 106.5t20 226.5q0 42 -3 84h175q7 -56 7 -98q0 -143 -22.5 -241t-86 -156t-180.5 -58q-96 0 -146 48z" />
<glyph unicode="&#x1f7;" horiz-adv-x="547" d="M533 670q41 -45 41 -123q0 -86 -36.5 -145t-98 -98t-155.5 -77l-63 -25l-28 -202h-194l98 696h193l-5 -33q58 52 139 52q68 0 109 -45zM372 525q0 55 -40 55q-32 0 -62 -28l-30 -213l13 7q119 66 119 179z" />
<glyph unicode="&#x1f8;" horiz-adv-x="580" d="M506 0h-235l-67 533q4 -82 4 -127q0 -97 -13 -193l-27 -213h-168l97 696h233l67 -534q-4 92 -4 129q0 86 12 181l30 224h168zM321 963l192 -133l-51 -86l-218 85z" />
<glyph unicode="&#x1f9;" horiz-adv-x="508" d="M471.5 520.5q28.5 -32.5 28.5 -90.5q0 -17 -3 -37l-56 -393h-186l49 351q1 7 1 18q0 12 -3 16.5t-9 4.5q-13 0 -28.5 -23.5t-40.5 -78.5l-41 -288h-186l74 534h162l1 -83q29 46 70 74t88 28q51 0 79.5 -32.5zM275 846l192 -143l-53 -85l-218 95z" />
<glyph unicode="&#x1fa;" horiz-adv-x="542" d="M324 0l-4 138h-138l-40 -138h-201l274 696h231l79 -696h-201zM222 276h94l-8 294zM459.5 975q32.5 -35 32.5 -92q0 -42 -19.5 -78.5t-56 -58t-84.5 -21.5q-59 0 -91.5 35t-32.5 92q0 41 20 77.5t56.5 58.5t83.5 22q59 0 91.5 -35zM324 899q-13 -18 -13 -42q0 -38 31 -38 q21 0 34 18t13 41q0 39 -30 39q-22 0 -35 -18zM450 1233l59 -134l-240 -88l-42 89z" />
<glyph unicode="&#x1fb;" horiz-adv-x="523" d="M420.5 538.5q54.5 -14.5 103.5 -42.5l-47 -328q-2 -20 -2 -27q0 -14 4.5 -22t16.5 -13l-56 -122q-46 4 -82 24t-50 56q-28 -41 -62.5 -62.5t-81.5 -21.5q-75 0 -114.5 54t-39.5 149t30.5 179t98 137.5t173.5 53.5q54 0 108.5 -14.5zM224 348.5q-25 -73.5 -25 -168.5 q0 -36 8.5 -49.5t23.5 -13.5q31 0 62 54l36 247q-15 4 -31 4q-49 0 -74 -73.5zM456.5 824q32.5 -35 32.5 -92q0 -42 -19.5 -78.5t-56 -58t-84.5 -21.5q-59 0 -91.5 35t-32.5 92q0 41 20 77.5t56.5 58.5t83.5 22q59 0 91.5 -35zM321 748q-13 -18 -13 -42q0 -38 31 -38 q21 0 34 18t13 41q0 39 -30 39q-22 0 -35 -18zM452 1082l59 -134l-240 -88l-42 89z" />
<glyph unicode="&#x1fc;" horiz-adv-x="771" d="M747 558h-211v-140h205l-19 -134h-186v-145h205l-21 -139h-361l2 138h-156l-54 -138h-210l325 696h521zM260 277h104l5 278zM612 965l59 -134l-240 -88l-42 89z" />
<glyph unicode="&#x1fd;" horiz-adv-x="770" d="M352.5 538.5q32.5 -14.5 56.5 -43.5q32 27 76.5 42.5t95.5 15.5q90 0 141.5 -41t51.5 -106q0 -103 -88.5 -152t-220.5 -63q1 -42 17.5 -58.5t50.5 -16.5q28 0 55 11.5t64 35.5l63 -107q-95 -76 -210 -76q-131 0 -185 81q-38 -44 -80.5 -62t-91.5 -18q-69 0 -110.5 39.5 t-41.5 104.5q0 86 59.5 144.5t206.5 58.5h36q7 23 16 44q-4 22 -24.5 33t-50.5 11q-59 0 -128 -25l-25 122q48 19 96.5 29.5t87.5 10.5q50 0 82.5 -14.5zM505.5 394.5q-21.5 -37.5 -31.5 -95.5q64 5 91 36t27 63q0 34 -33 34q-32 0 -53.5 -37.5zM261 224q-32 0 -50.5 -18 t-18.5 -51q0 -41 32 -41q14 0 28 11t32 34q-2 24 -2 39l1 26h-22zM528 847l59 -134l-239 -98l-45 91z" />
<glyph unicode="&#x1fe;" horiz-adv-x="624" d="M599.5 574q22.5 -57 22.5 -133q0 -119 -36 -224t-114 -171t-197 -66q-11 0 -33 2l-46 -120l-136 38l52 131q-43 35 -65 92t-22 133q0 119 36 223.5t114 170t197 65.5q20 0 30 -1l48 118l134 -39l-51 -127q44 -35 66.5 -92zM274 517q-32 -59 -45.5 -141t-13.5 -154 q0 -17 2 -41l149 395h-8q-52 0 -84 -59zM373 177q32 58 45 139t13 156q0 17 -2 37l-147 -390h6q53 0 85 58zM476 1007l59 -134l-240 -88l-42 89z" />
<glyph unicode="&#x1ff;" horiz-adv-x="529" d="M496.5 434.5q19.5 -45.5 19.5 -103.5q-1 -94 -31.5 -173.5t-95.5 -128.5t-162 -49q-12 0 -18 1l-48 -118l-125 39l52 121q-36 29 -55.5 74.5t-19.5 104.5q0 93 30.5 173t95.5 129t162 49q12 0 18 -1l49 120l125 -40l-53 -123q37 -29 56.5 -74.5zM207.5 349 q-26.5 -75 -26.5 -165q0 -13 2 -29l104 267l1 3q-54 -1 -80.5 -76zM301.5 147q23.5 38 34.5 93t11 108q0 16 -1 23l-103 -260l-1 -3q36 1 59.5 39zM408 862l59 -134l-239 -98l-45 91z" />
<glyph unicode="&#x200;" horiz-adv-x="542" d="M324 0l-4 138h-138l-40 -138h-201l274 696h231l79 -696h-201zM222 276h94l-8 294zM250 1000l66 -211l-98 -42l-95 197zM421 1000l59 -213l-98 -36l-88 198z" />
<glyph unicode="&#x201;" horiz-adv-x="523" d="M420.5 538.5q54.5 -14.5 103.5 -42.5l-47 -328q-2 -20 -2 -27q0 -14 4.5 -22t16.5 -13l-56 -122q-46 4 -82 24t-50 56q-28 -41 -62.5 -62.5t-81.5 -21.5q-75 0 -114.5 54t-39.5 149t30.5 179t98 137.5t173.5 53.5q54 0 108.5 -14.5zM224 348.5q-25 -73.5 -25 -168.5 q0 -36 8.5 -49.5t23.5 -13.5q31 0 62 54l36 247q-15 4 -31 4q-49 0 -74 -73.5zM249 874l66 -211l-98 -42l-95 197zM420 874l59 -213l-98 -36l-88 198z" />
<glyph unicode="&#x202;" horiz-adv-x="542" d="M324 0l-4 138h-138l-40 -138h-201l274 696h231l79 -696h-201zM222 276h94l-8 294zM173 775q17 83 66.5 136.5t127.5 53.5q75 0 111 -47.5t36 -122.5q0 -14 -1 -22l-99 -14q-5 77 -60 77q-30 0 -52 -21.5t-34 -58.5z" />
<glyph unicode="&#x203;" horiz-adv-x="523" d="M420.5 538.5q54.5 -14.5 103.5 -42.5l-47 -328q-2 -20 -2 -27q0 -14 4.5 -22t16.5 -13l-56 -122q-46 4 -82 24t-50 56q-28 -41 -62.5 -62.5t-81.5 -21.5q-75 0 -114.5 54t-39.5 149t30.5 179t98 137.5t173.5 53.5q54 0 108.5 -14.5zM224 348.5q-25 -73.5 -25 -168.5 q0 -36 8.5 -49.5t23.5 -13.5q31 0 62 54l36 247q-15 4 -31 4q-49 0 -74 -73.5zM164 613q17 83 66.5 136.5t127.5 53.5q75 0 111 -47.5t36 -122.5q0 -14 -1 -22l-99 -14q-5 77 -60 77q-30 0 -52 -21.5t-34 -58.5z" />
<glyph unicode="&#x204;" horiz-adv-x="461" d="M509 696l-41 -138h-197l-19 -138h174l-19 -134h-174l-20 -147h213l-20 -139h-407l98 696h412zM222 1000l66 -211l-98 -42l-95 197zM393 1000l59 -213l-98 -36l-88 198z" />
<glyph unicode="&#x205;" horiz-adv-x="501" d="M453.5 511.5q51.5 -41.5 51.5 -107.5q0 -101 -89 -150t-221 -63q0 -75 69 -75q28 0 55 11.5t64 35.5l63 -107q-95 -76 -210 -76q-108 0 -166 56t-58 161q0 94 32 175t99.5 131t168.5 50q90 0 141.5 -41.5zM296.5 334.5q26.5 30.5 26.5 64.5q0 33 -32 33t-53.5 -37.5 t-32.5 -95.5q65 5 91.5 35.5zM227 874l66 -211l-98 -42l-95 197zM398 874l59 -213l-98 -36l-88 198z" />
<glyph unicode="&#x206;" horiz-adv-x="461" d="M509 696l-41 -138h-197l-19 -138h174l-19 -134h-174l-20 -147h213l-20 -139h-407l98 696h412zM145 775q17 83 66.5 136.5t127.5 53.5q75 0 111 -47.5t36 -122.5q0 -14 -1 -22l-99 -14q-5 77 -60 77q-30 0 -52 -21.5t-34 -58.5z" />
<glyph unicode="&#x207;" horiz-adv-x="501" d="M453.5 511.5q51.5 -41.5 51.5 -107.5q0 -101 -89 -150t-221 -63q0 -75 69 -75q28 0 55 11.5t64 35.5l63 -107q-95 -76 -210 -76q-108 0 -166 56t-58 161q0 94 32 175t99.5 131t168.5 50q90 0 141.5 -41.5zM296.5 334.5q26.5 30.5 26.5 64.5q0 33 -32 33t-53.5 -37.5 t-32.5 -95.5q65 5 91.5 35.5zM142 613q17 83 66.5 136.5t127.5 53.5q75 0 111 -47.5t36 -122.5q0 -14 -1 -22l-99 -14q-5 77 -60 77q-30 0 -52 -21.5t-34 -58.5z" />
<glyph unicode="&#x208;" horiz-adv-x="267" d="M290 696l-97 -696h-194l98 696h193zM113 1000l66 -211l-98 -42l-95 197zM284 1000l59 -213l-98 -36l-88 198z" />
<glyph unicode="&#x209;" horiz-adv-x="254" d="M257 534l-74 -534h-186l74 534h186zM91 874l66 -211l-98 -42l-95 197zM262 874l59 -213l-98 -36l-88 198z" />
<glyph unicode="&#x20a;" horiz-adv-x="267" d="M290 696l-97 -696h-194l98 696h193zM36 775q17 83 66.5 136.5t127.5 53.5q75 0 111 -47.5t36 -122.5q0 -14 -1 -22l-99 -14q-5 77 -60 77q-30 0 -52 -21.5t-34 -58.5z" />
<glyph unicode="&#x20b;" horiz-adv-x="254" d="M257 534l-74 -534h-186l74 534h186zM6 613q17 83 66.5 136.5t127.5 53.5q75 0 111 -47.5t36 -122.5q0 -14 -1 -22l-99 -14q-5 77 -60 77q-30 0 -52 -21.5t-34 -58.5z" />
<glyph unicode="&#x20c;" horiz-adv-x="624" d="M558.5 645q63.5 -70 63.5 -204q0 -119 -36 -224t-114 -171t-197 -66q-123 0 -186.5 70.5t-63.5 205.5q0 119 36 223.5t114 170t197 65.5q123 0 186.5 -70zM278.5 516q-30.5 -59 -43 -140t-12.5 -152q0 -55 15.5 -79t49.5 -24q50 0 80.5 57.5t43 137.5t12.5 154 q0 56 -16 80.5t-50 24.5q-49 0 -79.5 -59zM289 1000l66 -211l-98 -42l-95 197zM460 1000l59 -213l-98 -36l-88 198z" />
<glyph unicode="&#x20d;" horiz-adv-x="529" d="M69.5 37q-56.5 57 -56.5 165q0 93 30.5 173t95.5 129t162 49q101 0 158 -57.5t57 -164.5q-1 -94 -31.5 -173.5t-95.5 -128.5t-162 -49q-101 0 -157.5 57zM307.5 194.5q19.5 77.5 19.5 162.5q0 32 -9.5 46t-30.5 14q-46 0 -66 -75.5t-20 -159.5q0 -35 9.5 -50t30.5 -15 q47 0 66.5 77.5zM224 874l66 -211l-98 -42l-95 197zM395 874l59 -213l-98 -36l-88 198z" />
<glyph unicode="&#x20e;" horiz-adv-x="624" d="M558.5 645q63.5 -70 63.5 -204q0 -119 -36 -224t-114 -171t-197 -66q-123 0 -186.5 70.5t-63.5 205.5q0 119 36 223.5t114 170t197 65.5q123 0 186.5 -70zM278.5 516q-30.5 -59 -43 -140t-12.5 -152q0 -55 15.5 -79t49.5 -24q50 0 80.5 57.5t43 137.5t12.5 154 q0 56 -16 80.5t-50 24.5q-49 0 -79.5 -59zM212 775q17 83 66.5 136.5t127.5 53.5q75 0 111 -47.5t36 -122.5q0 -14 -1 -22l-99 -14q-5 77 -60 77q-30 0 -52 -21.5t-34 -58.5z" />
<glyph unicode="&#x20f;" horiz-adv-x="529" d="M69.5 37q-56.5 57 -56.5 165q0 93 30.5 173t95.5 129t162 49q101 0 158 -57.5t57 -164.5q-1 -94 -31.5 -173.5t-95.5 -128.5t-162 -49q-101 0 -157.5 57zM307.5 194.5q19.5 77.5 19.5 162.5q0 32 -9.5 46t-30.5 14q-46 0 -66 -75.5t-20 -159.5q0 -35 9.5 -50t30.5 -15 q47 0 66.5 77.5zM139 613q17 83 66.5 136.5t127.5 53.5q75 0 111 -47.5t36 -122.5q0 -14 -1 -22l-99 -14q-5 77 -60 77q-30 0 -52 -21.5t-34 -58.5z" />
<glyph unicode="&#x210;" horiz-adv-x="559" d="M539 379q-31 -52 -104 -93l108 -286h-205l-79 251h-31l-35 -251h-194l98 696h219q126 0 190 -49.5t64 -140.5q0 -75 -31 -127zM246 384h35q46 0 68.5 33t22.5 80q0 33 -17.5 48t-53.5 15h-30zM252 1000l66 -211l-98 -42l-95 197zM423 1000l59 -213l-98 -36l-88 198z" />
<glyph unicode="&#x211;" horiz-adv-x="366" d="M415 542l-55 -183q-23 7 -41 7q-37 0 -61 -36t-43 -101l-32 -229h-186l74 534h160v-91q25 51 60 79.5t77 28.5q25 0 47 -9zM169 874l66 -211l-98 -42l-95 197zM340 874l59 -213l-98 -36l-88 198z" />
<glyph unicode="&#x212;" horiz-adv-x="559" d="M539 379q-31 -52 -104 -93l108 -286h-205l-79 251h-31l-35 -251h-194l98 696h219q126 0 190 -49.5t64 -140.5q0 -75 -31 -127zM246 384h35q46 0 68.5 33t22.5 80q0 33 -17.5 48t-53.5 15h-30zM175 775q17 83 66.5 136.5t127.5 53.5q75 0 111 -47.5t36 -122.5 q0 -14 -1 -22l-99 -14q-5 77 -60 77q-30 0 -52 -21.5t-34 -58.5z" />
<glyph unicode="&#x213;" horiz-adv-x="366" d="M415 542l-55 -183q-23 7 -41 7q-37 0 -61 -36t-43 -101l-32 -229h-186l74 534h160v-91q25 51 60 79.5t77 28.5q25 0 47 -9zM84 613q17 83 66.5 136.5t127.5 53.5q75 0 111 -47.5t36 -122.5q0 -14 -1 -22l-99 -14q-5 77 -60 77q-30 0 -52 -21.5t-34 -58.5z" />
<glyph unicode="&#x214;" horiz-adv-x="573" d="M539 217q-9 -68 -45 -121t-97.5 -84t-145.5 -31q-116 0 -175 54t-59 145q0 21 3 42l67 474h193l-67 -487q-2 -20 -2 -28q0 -29 13 -43.5t41 -14.5q35 0 54 22.5t25 65.5l68 485h194zM265 1000l66 -211l-98 -42l-95 197zM436 1000l59 -213l-98 -36l-88 198z" />
<glyph unicode="&#x215;" horiz-adv-x="503" d="M39 13q-29 33 -29 91q0 19 3 40l54 390h186l-49 -356q-1 -6 -1 -15q0 -23 16 -23q24 0 54 54l47 340h186l-74 -534h-162l2 68q-66 -88 -149 -88q-55 0 -84 33zM214 874l66 -211l-98 -42l-95 197zM385 874l59 -213l-98 -36l-88 198z" />
<glyph unicode="&#x216;" horiz-adv-x="573" d="M539 217q-9 -68 -45 -121t-97.5 -84t-145.5 -31q-116 0 -175 54t-59 145q0 21 3 42l67 474h193l-67 -487q-2 -20 -2 -28q0 -29 13 -43.5t41 -14.5q35 0 54 22.5t25 65.5l68 485h194zM188 775q17 83 66.5 136.5t127.5 53.5q75 0 111 -47.5t36 -122.5q0 -14 -1 -22l-99 -14 q-5 77 -60 77q-30 0 -52 -21.5t-34 -58.5z" />
<glyph unicode="&#x217;" horiz-adv-x="503" d="M39 13q-29 33 -29 91q0 19 3 40l54 390h186l-49 -356q-1 -6 -1 -15q0 -23 16 -23q24 0 54 54l47 340h186l-74 -534h-162l2 68q-66 -88 -149 -88q-55 0 -84 33zM129 613q17 83 66.5 136.5t127.5 53.5q75 0 111 -47.5t36 -122.5q0 -14 -1 -22l-99 -14q-5 77 -60 77 q-30 0 -52 -21.5t-34 -58.5z" />
<glyph unicode="&#x218;" horiz-adv-x="526" d="M551 620l-96 -99q-54 54 -122 54q-38 0 -58 -16.5t-20 -42.5q0 -25 20.5 -41.5t82.5 -43.5q77 -33 113.5 -78.5t36.5 -117.5q0 -70 -33.5 -128t-99.5 -92.5t-158 -34.5q-154 0 -246 105l105 104q33 -32 67 -48t76 -16t65 19.5t23 53.5q0 31 -21.5 51.5t-77.5 44.5 q-82 34 -117.5 78t-35.5 111q0 66 32.5 119t93 83t143.5 30q144 0 227 -95zM272.5 -84.5q22.5 -21.5 22.5 -55.5q0 -25 -8.5 -46.5t-29.5 -55.5l-59 -97h-87l41 117q-31 21 -31 58q0 44 27 72.5t67 28.5q35 0 57.5 -21.5z" />
<glyph unicode="&#x219;" horiz-adv-x="440" d="M359.5 534.5q49.5 -18.5 84.5 -50.5l-79 -99q-52 36 -103 36q-23 0 -35.5 -8.5t-12.5 -22.5q0 -16 16.5 -27t72.5 -34q57 -23 86 -59t29 -93q0 -55 -27.5 -100t-81 -71t-127.5 -26q-67 0 -122 23.5t-93 64.5l94 95q56 -51 117 -51q25 0 40 10t15 28q0 19 -17 31.5 t-68 33.5q-60 25 -88.5 59.5t-28.5 91.5q0 53 28 96t78.5 67t117.5 24q55 0 104.5 -18.5zM223.5 -84.5q22.5 -21.5 22.5 -55.5q0 -25 -8.5 -46.5t-29.5 -55.5l-59 -97h-87l41 117q-31 21 -31 58q0 44 27 72.5t67 28.5q35 0 57.5 -21.5z" />
<glyph unicode="&#x21a;" horiz-adv-x="494" d="M560 696l-41 -148h-136l-77 -548h-193l77 548h-149l21 148h498zM262.5 -84.5q22.5 -21.5 22.5 -55.5q0 -25 -8.5 -46.5t-29.5 -55.5l-59 -97h-87l41 117q-31 21 -31 58q0 44 27 72.5t67 28.5q35 0 57.5 -21.5z" />
<glyph unicode="&#x21b;" horiz-adv-x="357" d="M227 183q-2 -14 -2 -19q0 -35 29 -35q18 0 42 11l44 -119q-32 -20 -72 -30.5t-77 -10.5q-75 0 -114.5 40.5t-39.5 116.5q0 22 3 46l31 222h-56l18 129h64l31 116l165 19l-18 -135h105l-39 -129h-84zM219.5 -84.5q22.5 -21.5 22.5 -55.5q0 -25 -8.5 -46.5t-29.5 -55.5 l-59 -97h-87l41 117q-31 21 -31 58q0 44 27 72.5t67 28.5q35 0 57.5 -21.5z" />
<glyph unicode="&#x21c;" horiz-adv-x="470" d="M426 667.5q55 -47.5 55 -125.5q0 -144 -180 -185q76 -1 114 -35.5t38 -99.5q0 -131 -127 -217t-322 -124l8 139q81 26 131 51t79 61.5t29 90.5q0 35 -19 49.5t-64 14.5h-64l39 137h48q47 0 68.5 26t21.5 71q0 56 -50 56q-51 0 -116 -52l-74 96q101 94 235 94 q95 0 150 -47.5z" />
<glyph unicode="&#x21d;" horiz-adv-x="443" d="M375.5 515.5q49.5 -37.5 49.5 -103.5q0 -55 -36 -89t-99 -49q60 0 91.5 -26t31.5 -72q0 -104 -101.5 -176.5t-303.5 -111.5l3 124q109 37 160 74.5t51 87.5q0 30 -38 30h-79l28 116h40q30 0 46 17t16 49q0 40 -39 40q-21 0 -42 -7.5t-48 -23.5l-68 97q47 32 95.5 46.5 t106.5 14.5q86 0 135.5 -37.5z" />
<glyph unicode="&#x21e;" horiz-adv-x="585" d="M192 0h-193l98 696h193l-36 -260h124l36 260h194l-97 -696h-194l39 284h-123zM504 959l61 -73l-150 -138h-110l-116 144l72 67l111 -87z" />
<glyph unicode="&#x21f;" horiz-adv-x="508" d="M470.5 520.5q28.5 -32.5 28.5 -90.5q0 -17 -3 -37l-56 -393h-186l49 351q1 7 1 18q0 12 -3 16.5t-9 4.5q-13 0 -29 -24t-41 -78l-40 -288h-186l104 744l188 19l-42 -306q24 41 62.5 68.5t83.5 27.5q50 0 78.5 -32.5zM471 1007l61 -73l-150 -138h-110l-116 144l72 67 l111 -87z" />
<glyph unicode="&#x220;" horiz-adv-x="574" d="M542.5 675q35.5 -40 35.5 -105q0 -23 -2 -35l-102 -750h-194l100 732q2 14 2 18q0 37 -32 37q-34 0 -83 -44l-75 -528h-193l98 696h169l5 -51q39 36 80 53t88 17q68 0 103.5 -40z" />
<glyph unicode="&#x221;" horiz-adv-x="740" d="M693 227q29 -28 29 -76q0 -83 -56 -126.5t-144 -43.5q-15 0 -39 2l-38 -72l-74 34l32 56q-61 26 -86 80q-65 -101 -158 -101q-73 0 -111 52t-38 151q0 92 27 176.5t81.5 139t133.5 54.5q60 0 97 -43l35 253l184 -19l-79 -566q-2 -17 -1 -24q26 56 56 78.5t75 22.5t74 -28 zM333 394q-9 12 -19 18t-23 6q-31 0 -51 -38t-29.5 -92t-9.5 -103q0 -40 8.5 -54t24.5 -14q29 0 69 66zM593.5 120.5q11.5 9.5 11.5 26.5q0 16 -14 16q-11 0 -20.5 -11.5t-22.5 -40.5h15q19 0 30.5 9.5z" />
<glyph unicode="&#x222;" horiz-adv-x="585" d="M464 400q97 -42 97 -147q0 -82 -39.5 -143.5t-108.5 -95t-155 -33.5q-77 0 -133 27.5t-85 75t-29 106.5q0 76 39 128t108 80q-69 35 -69 117q0 16 1 25l20 156h194l-24 -171q-1 -8 -1 -22q0 -23 9 -33.5t31 -10.5q28 0 41 17t17 51l24 169h194l-22 -158 q-13 -95 -109 -138zM335 156q24 35 24 92q0 37 -14.5 57t-43.5 20q-38 0 -62.5 -35.5t-24.5 -92.5q0 -36 15 -56t44 -20q38 0 62 35z" />
<glyph unicode="&#x223;" horiz-adv-x="523" d="M418 418q42 -20 63 -57t21 -94q0 -83 -35.5 -148t-98.5 -101.5t-142 -36.5q-106 0 -161.5 55.5t-55.5 149.5q0 83 35 141.5t101 88.5q-57 32 -57 105q0 9 2 29l27 194h183l-33 -233q-1 -5 -1 -14q0 -28 22 -28q14 0 21.5 10t10.5 33l34 232h183l-27 -196 q-12 -88 -92 -130zM296 166.5q18 49.5 18 112.5q0 36 -9.5 53.5t-30.5 17.5q-38 0 -57.5 -51t-19.5 -114q0 -34 10 -51t32 -17q39 0 57 49.5z" />
<glyph unicode="&#x224;" horiz-adv-x="483" d="M513 549l-302 -394h247l-23 -155l-5 -36q-15 -92 -76 -141.5t-151 -49.5q-86 0 -139 46l74 108q16 -9 28.5 -13.5t28.5 -4.5q44 0 51 55l5 36h-282l20 145l306 401h-227l22 150h444z" />
<glyph unicode="&#x225;" horiz-adv-x="414" d="M427 402l-216 -261h177l-20 -141l-4 -33q-14 -95 -73 -144t-149 -49q-86 0 -139 46l74 107q18 -10 30 -14t28 -4q22 0 35.5 12.5t16.5 35.5l5 43h-226l18 133l217 262h-164l20 139h388z" />
<glyph unicode="&#x226;" horiz-adv-x="542" d="M324 0l-4 138h-138l-40 -138h-201l274 696h231l79 -696h-201zM222 276h94l-8 294zM276 770.5q-25 24.5 -25 64.5q0 50 34 83t83 33q43 0 68 -24.5t25 -64.5q0 -50 -33.5 -83t-83.5 -33q-43 0 -68 24.5z" />
<glyph unicode="&#x227;" horiz-adv-x="523" d="M420.5 538.5q54.5 -14.5 103.5 -42.5l-47 -328q-2 -20 -2 -27q0 -14 4.5 -22t16.5 -13l-56 -122q-46 4 -82 24t-50 56q-28 -41 -62.5 -62.5t-81.5 -21.5q-75 0 -114.5 54t-39.5 149t30.5 179t98 137.5t173.5 53.5q54 0 108.5 -14.5zM224 348.5q-25 -73.5 -25 -168.5 q0 -36 8.5 -49.5t23.5 -13.5q31 0 62 54l36 247q-15 4 -31 4q-49 0 -74 -73.5zM269 644.5q-25 24.5 -25 64.5q0 50 34 83t83 33q43 0 68 -24.5t25 -64.5q0 -50 -33.5 -83t-83.5 -33q-43 0 -68 24.5z" />
<glyph unicode="&#x228;" horiz-adv-x="461" d="M271 558l-19 -138h174l-19 -134h-174l-20 -147h213l-20 -139h-154l-7 -47q42 -6 64.5 -28.5t22.5 -61.5q0 -31 -16 -62t-53.5 -52t-97.5 -21q-34 0 -62 9.5t-48 24.5l51 79q27 -15 56 -15q42 0 42 29q0 15 -18.5 21t-61.5 6l30 118h-155l98 696h412l-41 -138h-197z" />
<glyph unicode="&#x229;" horiz-adv-x="501" d="M453.5 511.5q51.5 -41.5 51.5 -107.5q0 -101 -89 -150t-221 -63q0 -75 69 -75q28 0 55 11.5t64 35.5l63 -107q-74 -59 -164 -73l-5 -30q42 -6 64.5 -28.5t22.5 -61.5q0 -31 -16 -62t-53.5 -52t-97.5 -21q-34 0 -62 9.5t-48 24.5l51 79q27 -15 55 -15q42 0 43 29 q0 15 -18.5 21t-61.5 6l26 102q-82 14 -126 68t-44 144q0 95 32 176t99.5 131t168.5 50q90 0 141.5 -41.5zM296.5 334.5q26.5 30.5 26.5 64.5q0 33 -32 33t-53.5 -37.5t-32.5 -95.5q65 5 91.5 35.5z" />
<glyph unicode="&#x22a;" horiz-adv-x="624" d="M558.5 645q63.5 -70 63.5 -204q0 -119 -36 -224t-114 -171t-197 -66q-123 0 -186.5 70.5t-63.5 205.5q0 119 36 223.5t114 170t197 65.5q123 0 186.5 -70zM278.5 516q-30.5 -59 -43 -140t-12.5 -152q0 -55 15.5 -79t49.5 -24q50 0 80.5 57.5t43 137.5t12.5 154 q0 56 -16 80.5t-50 24.5q-49 0 -79.5 -59zM206.5 766.5q-21.5 21.5 -21.5 56.5q0 43 29.5 72t71.5 29q38 0 59.5 -21.5t21.5 -56.5q0 -43 -29.5 -72t-72.5 -29q-37 0 -58.5 21.5zM429.5 766.5q-21.5 21.5 -21.5 56.5q0 43 29 72t72 29q37 0 58.5 -21.5t21.5 -56.5 q0 -43 -29 -72t-72 -29q-37 0 -58.5 21.5zM546 961h-292l19 130h293z" />
<glyph unicode="&#x22b;" horiz-adv-x="529" d="M69.5 37q-56.5 57 -56.5 165q0 93 30.5 173t95.5 129t162 49q101 0 158 -57.5t57 -164.5q-1 -94 -31.5 -173.5t-95.5 -128.5t-162 -49q-101 0 -157.5 57zM307.5 194.5q19.5 77.5 19.5 162.5q0 32 -9.5 46t-30.5 14q-46 0 -66 -75.5t-20 -159.5q0 -35 9.5 -50t30.5 -15 q47 0 66.5 77.5zM137.5 612.5q-21.5 21.5 -21.5 56.5q0 43 29.5 72t71.5 29q38 0 59.5 -21.5t21.5 -56.5q0 -43 -29.5 -72t-72.5 -29q-37 0 -58.5 21.5zM360.5 612.5q-21.5 21.5 -21.5 56.5q0 43 29 72t72 29q37 0 58.5 -21.5t21.5 -56.5q0 -43 -29 -72t-72 -29 q-37 0 -58.5 21.5zM478 807h-292l19 130h293z" />
<glyph unicode="&#x22c;" horiz-adv-x="624" d="M542 961h-292l19 130h293zM400 761.5q-14 6.5 -31 18.5q-13 9 -21.5 13.5t-16.5 4.5q-15 0 -26.5 -10.5t-26.5 -33.5l-79 46q27 57 64.5 94t78.5 37q20 0 34 -7t33 -20q11 -9 19 -13t16 -4q14 0 25 10t25 33l80 -44q-26 -57 -64.5 -94t-79.5 -37q-16 0 -30 6.5z M558.5 645q63.5 -70 63.5 -204q0 -119 -36 -224t-114 -171t-197 -66q-123 0 -186.5 70.5t-63.5 205.5q0 119 36 223.5t114 170t197 65.5q123 0 186.5 -70zM278.5 516q-30.5 -59 -43 -140t-12.5 -152q0 -55 15.5 -79t49.5 -24q50 0 80.5 57.5t43 137.5t12.5 154 q0 56 -16 80.5t-50 24.5q-49 0 -79.5 -59z" />
<glyph unicode="&#x22d;" horiz-adv-x="529" d="M69.5 37q-56.5 57 -56.5 165q0 93 30.5 173t95.5 129t162 49q101 0 158 -57.5t57 -164.5q-1 -94 -31.5 -173.5t-95.5 -128.5t-162 -49q-101 0 -157.5 57zM307.5 194.5q19.5 77.5 19.5 162.5q0 32 -9.5 46t-30.5 14q-46 0 -66 -75.5t-20 -159.5q0 -35 9.5 -50t30.5 -15 q47 0 66.5 77.5zM318 599.5q-14 6.5 -31 18.5q-13 9 -21.5 13.5t-16.5 4.5q-15 0 -26.5 -10.5t-26.5 -33.5l-79 46q27 57 64.5 94t78.5 37q20 0 34 -7t33 -20q11 -9 19 -13t16 -4q14 0 25 10t25 33l80 -44q-26 -57 -64.5 -94t-79.5 -37q-16 0 -30 6.5zM466 801h-292l19 130 h293z" />
<glyph unicode="&#x22e;" horiz-adv-x="624" d="M558.5 645q63.5 -70 63.5 -204q0 -119 -36 -224t-114 -171t-197 -66q-123 0 -186.5 70.5t-63.5 205.5q0 119 36 223.5t114 170t197 65.5q123 0 186.5 -70zM278.5 516q-30.5 -59 -43 -140t-12.5 -152q0 -55 15.5 -79t49.5 -24q50 0 80.5 57.5t43 137.5t12.5 154 q0 56 -16 80.5t-50 24.5q-49 0 -79.5 -59zM315 770.5q-25 24.5 -25 64.5q0 50 34 83t83 33q43 0 68 -24.5t25 -64.5q0 -50 -33.5 -83t-83.5 -33q-43 0 -68 24.5z" />
<glyph unicode="&#x22f;" horiz-adv-x="529" d="M69.5 37q-56.5 57 -56.5 165q0 93 30.5 173t95.5 129t162 49q101 0 158 -57.5t57 -164.5q-1 -94 -31.5 -173.5t-95.5 -128.5t-162 -49q-101 0 -157.5 57zM307.5 194.5q19.5 77.5 19.5 162.5q0 32 -9.5 46t-30.5 14q-46 0 -66 -75.5t-20 -159.5q0 -35 9.5 -50t30.5 -15 q47 0 66.5 77.5zM244 644.5q-25 24.5 -25 64.5q0 50 34 83t83 33q43 0 68 -24.5t25 -64.5q0 -50 -33.5 -83t-83.5 -33q-43 0 -68 24.5z" />
<glyph unicode="&#x230;" horiz-adv-x="624" d="M558.5 645q63.5 -70 63.5 -204q0 -119 -36 -224t-114 -171t-197 -66q-123 0 -186.5 70.5t-63.5 205.5q0 119 36 223.5t114 170t197 65.5q123 0 186.5 -70zM278.5 516q-30.5 -59 -43 -140t-12.5 -152q0 -55 15.5 -79t49.5 -24q50 0 80.5 57.5t43 137.5t12.5 154 q0 56 -16 80.5t-50 24.5q-49 0 -79.5 -59zM308 758.5q-25 24.5 -25 64.5q0 50 34 83t83 33q43 0 68 -24.5t25 -64.5q0 -50 -33.5 -83t-83.5 -33q-43 0 -68 24.5zM555 961h-292l19 130h293z" />
<glyph unicode="&#x237;" horiz-adv-x="253" d="M-114 -91q56 22 83 55t36 99l66 471h186l-65 -461q-13 -92 -50 -150.5t-89 -91t-124 -57.5z" />
<glyph unicode="&#x259;" horiz-adv-x="501" d="M431 498q58 -56 58 -161q0 -94 -32 -175t-99.5 -131t-168.5 -50q-90 0 -141.5 41.5t-51.5 107.5q0 101 89 150t221 63q0 75 -69 75q-28 0 -55 -11.5t-64 -35.5l-63 107q95 76 210 76q108 0 166 -56zM263.5 139.5q21.5 37.5 32.5 95.5q-65 -5 -91.5 -35.5t-26.5 -64.5 q0 -33 32 -33t53.5 37.5z" />
<glyph unicode="&#x278;" horiz-adv-x="626" d="M549.5 103.5q-66.5 -83.5 -181.5 -97.5l-30 -213l-187 -20l33 234q-76 12 -125 62.5t-49 141.5q0 136 65.5 219.5t181.5 97.5l30 216l186 19l-32 -236q77 -12 126 -63t49 -142q0 -135 -66.5 -218.5zM425.5 187q19.5 61 19.5 141q0 44 -10 64t-30 23l-40 -296 q41 7 60.5 68zM200.5 347.5q-19.5 -59.5 -19.5 -139.5q0 -81 39 -90l40 295q-40 -6 -59.5 -65.5z" />
<glyph unicode="&#x292;" horiz-adv-x="470" d="M447 407l-175 -195q77 -10 117.5 -51.5t40.5 -114.5q0 -83 -38 -144.5t-104 -95t-149 -33.5q-143 0 -212 110l109 91q27 -31 51 -44.5t55 -13.5q45 0 72 32.5t27 93.5q0 38 -20 53.5t-58 15.5h-92l14 104l160 180h-207l19 139h408z" />
<glyph unicode="&#x2b9;" horiz-adv-x="297" d="M56 408l110 288h155l-149 -288h-116z" />
<glyph unicode="&#x2c6;" horiz-adv-x="430" d="M147 615l-58 73l151 148h111l113 -153l-74 -68l-108 96z" />
<glyph unicode="&#x2c7;" horiz-adv-x="430" d="M409 825l59 -73l-150 -148h-111l-109 148l68 73l108 -96z" />
<glyph unicode="&#x2d8;" horiz-adv-x="393" d="M143.5 675q-36.5 48 -36.5 123q0 15 1 22l96 14q2 -36 17.5 -57t43.5 -21q29 0 50 21.5t33 58.5l92 -19q-15 -82 -62.5 -136t-123.5 -54q-74 0 -110.5 48z" />
<glyph unicode="&#x2d9;" horiz-adv-x="265" d="M118 644.5q-25 24.5 -25 64.5q0 50 34 83t83 33q43 0 68 -24.5t25 -64.5q0 -50 -33.5 -83t-83.5 -33q-43 0 -68 24.5z" />
<glyph unicode="&#x2da;" horiz-adv-x="342" d="M347.5 846q32.5 -35 32.5 -92q0 -42 -19.5 -78.5t-56 -58t-84.5 -21.5q-59 0 -91.5 35t-32.5 92q0 41 20 77.5t56.5 58.5t83.5 22q59 0 91.5 -35zM212 770q-13 -18 -13 -42q0 -38 31 -38q21 0 34 18t13 41q0 39 -30 39q-22 0 -35 -18z" />
<glyph unicode="&#x2db;" horiz-adv-x="288" d="M220 0q-66 -25 -91 -54t-25 -54q0 -33 40 -33q15 0 53 6l-26 -109q-30 -8 -67 -8q-57 0 -93.5 30t-36.5 83q0 67 55 115.5t168 82.5z" />
<glyph unicode="&#x2dc;" horiz-adv-x="423" d="M288 631.5q-14 6.5 -31 18.5q-13 9 -21.5 13.5t-16.5 4.5q-15 0 -26.5 -10.5t-26.5 -33.5l-79 46q27 57 64.5 94t78.5 37q20 0 34 -7t33 -20q11 -9 19 -13t16 -4q14 0 25 10t25 33l80 -44q-26 -57 -64.5 -94t-79.5 -37q-16 0 -30 6.5z" />
<glyph unicode="&#x2dd;" horiz-adv-x="433" d="M204 874l107 -55l-140 -194l-85 38zM374 874l106 -60l-146 -193l-83 44z" />
<glyph unicode="&#x300;" horiz-adv-x="0" d="M-163 846l192 -143l-53 -85l-218 95z" />
<glyph unicode="&#x301;" horiz-adv-x="0" d="M-26 847l59 -134l-239 -98l-45 91z" />
<glyph unicode="&#x302;" horiz-adv-x="0" d="M-289 615l-58 73l151 148h111l113 -153l-74 -68l-108 96z" />
<glyph unicode="&#x303;" horiz-adv-x="0" d="M-135 631.5q-14 6.5 -31 18.5q-13 9 -21.5 13.5t-16.5 4.5q-15 0 -26.5 -10.5t-26.5 -33.5l-79 46q27 57 64.5 94t78.5 37q20 0 34 -7t33 -20q11 -9 19 -13t16 -4q14 0 25 10t25 33l80 -44q-26 -57 -64.5 -94t-79.5 -37q-16 0 -30 6.5z" />
<glyph unicode="&#x304;" horiz-adv-x="0" d="M22 649h-292l19 130h293z" />
<glyph unicode="&#x306;" horiz-adv-x="0" d="M-249.5 675q-36.5 48 -36.5 123q0 15 1 22l96 14q2 -36 17.5 -57t43.5 -21q29 0 50 21.5t33 58.5l92 -19q-15 -82 -62.5 -136t-123.5 -54q-74 0 -110.5 48z" />
<glyph unicode="&#x307;" horiz-adv-x="0" d="M-150 644.5q-25 24.5 -25 64.5q0 50 34 83t83 33q43 0 68 -24.5t25 -64.5q0 -50 -33.5 -83t-83.5 -33q-43 0 -68 24.5z" />
<glyph unicode="&#x308;" horiz-adv-x="0" d="M-347.5 656.5q-21.5 21.5 -21.5 56.5q0 43 29.5 72t71.5 29q38 0 59.5 -21.5t21.5 -56.5q0 -43 -29.5 -72t-72.5 -29q-37 0 -58.5 21.5zM-124.5 656.5q-21.5 21.5 -21.5 56.5q0 43 29 72t72 29q37 0 58.5 -21.5t21.5 -56.5q0 -43 -29 -72t-72 -29q-37 0 -58.5 21.5z" />
<glyph unicode="&#x309;" horiz-adv-x="0" d="M-149 704q36 2 52 11.5t16 29.5q0 12 -6.5 17.5t-22.5 5.5q-24 0 -55 -13l-17 74q46 26 104 26q56 0 86 -27t30 -71q0 -42 -25 -69t-68 -36l-7 -50h-101z" />
<glyph unicode="&#x30a;" horiz-adv-x="0" d="M3.5 846q32.5 -35 32.5 -92q0 -42 -19.5 -78.5t-56 -58t-84.5 -21.5q-59 0 -91.5 35t-32.5 92q0 41 20 77.5t56.5 58.5t83.5 22q59 0 91.5 -35zM-132 770q-13 -18 -13 -42q0 -38 31 -38q21 0 34 18t13 41q0 39 -30 39q-22 0 -35 -18z" />
<glyph unicode="&#x30b;" horiz-adv-x="0" d="M-229 874l107 -55l-140 -194l-85 38zM-59 874l106 -60l-146 -193l-83 44z" />
<glyph unicode="&#x30c;" horiz-adv-x="0" d="M-21 825l59 -73l-150 -148h-111l-109 148l68 73l108 -96z" />
<glyph unicode="&#x30f;" horiz-adv-x="0" d="M-204 874l66 -211l-98 -42l-95 197zM-33 874l59 -213l-98 -36l-88 198z" />
<glyph unicode="&#x311;" horiz-adv-x="0" d="M-322 613q17 83 66.5 136.5t127.5 53.5q75 0 111 -47.5t36 -122.5q0 -14 -1 -22l-99 -14q-5 77 -60 77q-30 0 -52 -21.5t-34 -58.5z" />
<glyph unicode="&#x312;" horiz-adv-x="0" d="M-123.5 608.5q-22.5 21.5 -22.5 55.5q0 25 8.5 46.5t29.5 55.5l59 97h87l-41 -117q31 -21 31 -58q0 -44 -27 -72.5t-67 -28.5q-35 0 -57.5 21.5z" />
<glyph unicode="&#x323;" horiz-adv-x="0" d="M-114 -78.5q25 -24.5 25 -64.5q0 -50 -34 -83t-83 -33q-43 0 -68 24.5t-25 64.5q0 50 33.5 83t83.5 33q43 0 68 -24.5z" />
<glyph unicode="&#x326;" horiz-adv-x="0" d="M-110.5 -84.5q22.5 -21.5 22.5 -55.5q0 -25 -8.5 -46.5t-29.5 -55.5l-59 -97h-87l41 117q-31 21 -31 58q0 44 27 72.5t67 28.5q35 0 57.5 -21.5z" />
<glyph unicode="&#x327;" horiz-adv-x="0" d="M-175 -47q42 -6 64.5 -28.5t22.5 -61.5q0 -31 -16 -62t-53.5 -52t-97.5 -21q-34 0 -62 9.5t-48 24.5l51 79q27 -15 55 -15q42 0 43 29q0 15 -18.5 21t-61.5 6l34 134h97z" />
<glyph unicode="&#x328;" horiz-adv-x="0" d="M-68 0q-66 -25 -91 -54t-25 -54q0 -33 40 -33q15 0 53 6l-26 -109q-30 -8 -67 -8q-57 0 -93.5 30t-36.5 83q0 67 55 115.5t168 82.5z" />
<glyph unicode="&#x32d;" horiz-adv-x="0" d="M-414 -282l-59 73l151 148h111l113 -153l-74 -68l-108 96z" />
<glyph unicode="&#x331;" horiz-adv-x="0" d="M-369 -70h292l-19 -130h-293z" />
<glyph unicode="&#x345;" horiz-adv-x="0" d="M-289 -180.5q-30 29.5 -30 75.5q0 25 6 61h123q-4 -32 -4 -35q0 -29 27 -29q18 0 42 12l34 -77q-25 -18 -51 -27.5t-61 -9.5q-56 0 -86 29.5z" />
<glyph unicode="&#x370;" horiz-adv-x="475" d="M501 436l-22 -152h-246l-41 -284h-193l98 696h193l-36 -260h247z" />
<glyph unicode="&#x371;" horiz-adv-x="428" d="M404 199h-188l-28 -199h-186l55 395q5 42 5 71q0 27 -4 59l174 21q14 -42 14 -96q0 -33 -6 -77l-4 -31h188z" />
<glyph unicode="&#x372;" horiz-adv-x="636" d="M183 0l78 551h-53l-28 -182h-164l47 327h631l-46 -326h-165l24 181h-52l-78 -551h-194z" />
<glyph unicode="&#x373;" horiz-adv-x="475" d="M493 395h-136l-87 -602l-187 -20l87 622h-57q-42 0 -78 -12l-16 132q46 19 100 19h394z" />
<glyph unicode="&#x374;" horiz-adv-x="297" d="M56 408l110 288h155l-149 -288h-116z" />
<glyph unicode="&#x375;" horiz-adv-x="297" d="M245 154l-110 -288h-155l149 288h116z" />
<glyph unicode="&#x376;" horiz-adv-x="580" d="M506 0h-185l28 196q13 92 29.5 161.5t47.5 173.5l-201 -531h-225l97 696h184l-28 -194q-13 -93 -30.5 -167.5t-44.5 -163.5l203 525h222z" />
<glyph unicode="&#x377;" horiz-adv-x="514" d="M468 166q0 -18 6.5 -30t21.5 -21l-71 -134q-62 13 -101.5 46t-39.5 85q0 43 22 108.5t60 157.5l-186 -378h-183l74 534h176l-19 -138q-10 -76 -20.5 -114t-38.5 -111l180 363h168l-47 -344q-2 -18 -2 -24z" />
<glyph unicode="&#x37a;" horiz-adv-x="300" d="M11 -180.5q-30 29.5 -30 75.5q0 25 6 61h123q-4 -32 -4 -35q0 -29 27 -29q18 0 42 12l34 -77q-25 -18 -51 -27.5t-61 -9.5q-56 0 -86 29.5z" />
<glyph unicode="&#x37b;" horiz-adv-x="464" d="M340 522.5q51 -30.5 79.5 -86t28.5 -128.5q0 -100 -36 -174t-104 -113.5t-162 -39.5q-60 0 -104 17t-82 49l90 112q27 -17 46 -24t45 -7q111 0 111 184q0 51 -19.5 74.5t-52.5 23.5q-26 0 -50 -9.5t-52 -28.5l-59 113q46 34 95 51t108 17q67 0 118 -30.5z" />
<glyph unicode="&#x37c;" horiz-adv-x="459" d="M420.5 535q44.5 -18 80.5 -53l-90 -103q-23 17 -42 24.5t-44 7.5q-61 0 -89 -58t-28 -137q0 -49 18.5 -69.5t52.5 -20.5q26 0 46.5 7t49.5 23l65 -112q-44 -32 -89.5 -48t-105.5 -16q-108 0 -169.5 61.5t-61.5 172.5q0 97 37 174t105.5 121t157.5 44q62 0 106.5 -18z M252 198q-20 20 -20 52q0 40 27.5 67t66.5 27q35 0 55 -20t20 -52q0 -40 -27 -67t-67 -27q-35 0 -55 20z" />
<glyph unicode="&#x37d;" horiz-adv-x="464" d="M340 522.5q51 -30.5 79.5 -86t28.5 -128.5q0 -100 -36 -174t-104 -113.5t-162 -39.5q-60 0 -104 17t-82 49l90 112q27 -17 46 -24t45 -7q111 0 111 184q0 51 -19.5 74.5t-52.5 23.5q-26 0 -50 -9.5t-52 -28.5l-59 113q46 34 95 51t108 17q67 0 118 -30.5zM80 198 q-20 20 -20 52q0 40 27.5 67t66.5 27q35 0 55 -20t20 -52q0 -40 -27 -67t-67 -27q-35 0 -55 20z" />
<glyph unicode="&#x37e;" horiz-adv-x="232" d="M163 158.5q23 -23.5 23 -62.5q0 -28 -10.5 -54t-42.5 -85l-79 -140h-95l67 183q-34 25 -34 68q0 47 31.5 80.5t77.5 33.5q39 0 62 -23.5zM62.5 338.5q-23.5 25.5 -23.5 63.5q0 47 31.5 79.5t78.5 32.5q39 0 62.5 -25t23.5 -64q0 -47 -31.5 -79.5t-78.5 -32.5 q-39 0 -62.5 25.5z" />
<glyph unicode="&#x384;" horiz-adv-x="240" d="M112 851l178 -13l-84 -242h-117z" />
<glyph unicode="&#x385;" horiz-adv-x="482" d="M276 966l147 -12l-69 -199h-96zM247.5 747.5q21.5 -21.5 21.5 -56.5q0 -43 -29.5 -72t-71.5 -29q-37 0 -59 21.5t-22 56.5q0 43 29.5 72t72.5 29q37 0 58.5 -21.5zM489.5 747.5q21.5 -21.5 21.5 -56.5q0 -43 -29.5 -72t-71.5 -29q-37 0 -59 21.5t-22 56.5q0 43 29.5 72 t71.5 29q38 0 59.5 -21.5z" />
<glyph unicode="&#x386;" horiz-adv-x="688" d="M470 0l-4 138h-138l-40 -138h-201l274 696h231l79 -696h-201zM368 276h94l-8 294zM120 709l176 -13l-84 -242h-115z" />
<glyph unicode="&#x388;" horiz-adv-x="672" d="M720 696l-41 -138h-197l-19 -138h174l-19 -134h-174l-20 -147h213l-20 -139h-407l98 696h412zM95 709l176 -13l-84 -242h-115z" />
<glyph unicode="&#x389;" horiz-adv-x="794" d="M401 0h-193l98 696h193l-36 -260h124l36 260h194l-97 -696h-194l39 284h-123zM95 709l176 -13l-84 -242h-115z" />
<glyph unicode="&#x38a;" horiz-adv-x="479" d="M502 696l-97 -696h-194l98 696h193zM96 709l176 -13l-84 -242h-115z" />
<glyph unicode="&#x38c;" horiz-adv-x="813" d="M746.5 645q63.5 -70 63.5 -204q0 -119 -36 -224t-114 -171t-197 -66q-123 0 -186.5 70.5t-63.5 205.5q0 119 36 223.5t114 170t197 65.5q123 0 186.5 -70zM466.5 516q-30.5 -59 -43 -140t-12.5 -152q0 -55 15.5 -79t49.5 -24q50 0 80.5 57.5t43 137.5t12.5 154 q0 56 -16 80.5t-50 24.5q-49 0 -79.5 -59zM102 709l176 -13l-84 -242h-115z" />
<glyph unicode="&#x38e;" horiz-adv-x="779" d="M855 696l-257 -439l-36 -257h-194l36 257l-135 439h206l48 -292l125 292h207zM80 709l176 -13l-84 -242h-115z" />
<glyph unicode="&#x38f;" horiz-adv-x="806" d="M694.5 680.5q56.5 -34.5 85 -95t28.5 -137.5q0 -102 -39.5 -182.5t-125.5 -128.5h107l-19 -137h-250l17 128q61 31 86 133t25 211q0 53 -16 78t-50 25q-50 0 -81 -54.5t-44 -132t-13 -153.5q0 -41 11.5 -66t37.5 -42l-18 -127h-250l20 137h106q-95 67 -95 197 q0 93 39 181t116 144t185 56q81 0 137.5 -34.5zM102 709l176 -13l-84 -242h-115z" />
<glyph unicode="&#x390;" horiz-adv-x="249" d="M206 190q-2 -20 -2 -26q0 -17 6.5 -28.5t21.5 -20.5l-72 -134q-71 12 -109 50t-38 104q0 17 3 36l51 363h186zM158 966l147 -12l-69 -199h-96zM129.5 747.5q21.5 -21.5 21.5 -56.5q0 -43 -29.5 -72t-71.5 -29q-37 0 -59 21.5t-22 56.5q0 43 29.5 72t72.5 29 q37 0 58.5 -21.5zM371.5 747.5q21.5 -21.5 21.5 -56.5q0 -43 -29.5 -72t-71.5 -29q-37 0 -59 21.5t-22 56.5q0 43 29.5 72t71.5 29q38 0 59.5 -21.5z" />
<glyph unicode="&#x391;" horiz-adv-x="542" d="M324 0l-4 138h-138l-40 -138h-201l274 696h231l79 -696h-201zM222 276h94l-8 294z" />
<glyph unicode="&#x392;" horiz-adv-x="555" d="M503.5 322.5q34.5 -32.5 34.5 -96.5q0 -108 -81 -167t-236 -59h-222l98 696h196q125 0 194 -39t69 -120q0 -69 -41.5 -111t-104.5 -58q59 -13 93.5 -45.5zM358 513q0 24 -15 35.5t-49 11.5h-24l-19 -135h24q83 0 83 88zM341 240q0 59 -71 59h-36l-22 -159h29 q100 0 100 100z" />
<glyph unicode="&#x393;" horiz-adv-x="455" d="M521 696l-41 -152h-210l-76 -544h-194l97 696h424z" />
<glyph unicode="&#x394;" horiz-adv-x="549" d="M450 696l82 -696h-591l277 696h232zM314 554l-123 -413h136z" />
<glyph unicode="&#x395;" horiz-adv-x="461" d="M509 696l-41 -138h-197l-19 -138h174l-19 -134h-174l-20 -147h213l-20 -139h-407l98 696h412z" />
<glyph unicode="&#x396;" horiz-adv-x="495" d="M-31 0l20 145l306 401h-227l22 150h444l-21 -147l-304 -394h261l-42 -155h-459z" />
<glyph unicode="&#x397;" horiz-adv-x="585" d="M192 0h-193l98 696h193l-36 -260h124l36 260h194l-97 -696h-194l39 284h-123z" />
<glyph unicode="&#x398;" horiz-adv-x="624" d="M558.5 645.5q63.5 -69.5 63.5 -204.5q0 -117 -36 -222t-114 -172t-197 -67q-123 0 -186.5 70.5t-63.5 205.5q0 117 36 221.5t114 171t197 66.5q123 0 186.5 -69.5zM272.5 520q-33.5 -57 -47 -137.5t-13.5 -157.5q0 -57 17.5 -82t55.5 -25q56 0 89.5 56.5t47 136 t13.5 158.5q0 58 -18 83t-56 25q-55 0 -88.5 -57zM406 404l-15 -104h-149l15 104h149z" />
<glyph unicode="&#x399;" horiz-adv-x="267" d="M290 696l-97 -696h-194l98 696h193z" />
<glyph unicode="&#x39a;" horiz-adv-x="600" d="M-1 0l98 696h193l-97 -696h-194zM363 0l-113 371l210 325h197l-211 -320l130 -376h-213z" />
<glyph unicode="&#x39b;" horiz-adv-x="542" d="M446 696l79 -696h-197l-16 558l-166 -558h-205l274 696h231z" />
<glyph unicode="&#x39c;" horiz-adv-x="713" d="M660 0h-189l31 253q13 107 49 302l-131 -484h-185l-8 482q-4 -99 -9.5 -165.5t-15.5 -136.5l-36 -251h-189l140 696h232l-1 -473l120 473h246z" />
<glyph unicode="&#x39d;" horiz-adv-x="580" d="M506 0h-235l-67 533q4 -82 4 -127q0 -97 -13 -193l-27 -213h-168l97 696h233l67 -534q-4 92 -4 129q0 86 12 181l30 224h168z" />
<glyph unicode="&#x39e;" horiz-adv-x="475" d="M521 695l-43 -161h-427l23 161h447zM422 428l-21 -150h-325l21 150h325zM443 168l-23 -168h-441l24 168h440z" />
<glyph unicode="&#x39f;" horiz-adv-x="624" d="M558.5 645q63.5 -70 63.5 -204q0 -119 -36 -224t-114 -171t-197 -66q-123 0 -186.5 70.5t-63.5 205.5q0 119 36 223.5t114 170t197 65.5q123 0 186.5 -70zM278.5 516q-30.5 -59 -43 -140t-12.5 -152q0 -55 15.5 -79t49.5 -24q50 0 80.5 57.5t43 137.5t12.5 154 q0 56 -16 80.5t-50 24.5q-49 0 -79.5 -59z" />
<glyph unicode="&#x3a0;" horiz-adv-x="587" d="M609 696l-97 -696h-194l76 548h-124l-77 -548h-193l97 696h512z" />
<glyph unicode="&#x3a1;" horiz-adv-x="546" d="M501.5 645.5q65.5 -50.5 65.5 -147.5q0 -77 -33.5 -140t-100 -100.5t-162.5 -37.5h-47l-31 -220h-194l98 696h217q122 0 187.5 -50.5zM346 397.5q23 38.5 23 93.5q0 35 -17 51t-53 16h-28l-28 -199h26q54 0 77 38.5z" />
<glyph unicode="&#x3a3;" horiz-adv-x="450" d="M500 696l-20 -140h-231l108 -184l-9 -68l-148 -161h225l-21 -143h-431l20 139l182 208l-126 210l19 139h432z" />
<glyph unicode="&#x3a4;" horiz-adv-x="494" d="M560 696l-41 -148h-136l-77 -548h-193l77 548h-149l21 148h498z" />
<glyph unicode="&#x3a5;" horiz-adv-x="554" d="M630 696l-257 -439l-36 -257h-194l36 257l-135 439h206l48 -292l125 292h207z" />
<glyph unicode="&#x3a6;" horiz-adv-x="778" d="M752.5 244q-34.5 -67 -108.5 -112.5t-187 -52.5l-11 -79h-188l11 79q-116 9 -185.5 69t-69.5 163q0 72 34.5 139.5t109 113t186.5 51.5l11 81h188l-11 -81q117 -10 186 -69t69 -162q0 -73 -34.5 -140zM565 260q28 61 28 129q0 106 -86 117l-46 -317q76 10 104 71z M293 189l46 317q-77 -10 -104 -70.5t-27 -128.5q0 -107 85 -118z" />
<glyph unicode="&#x3a7;" horiz-adv-x="541" d="M599 696l-202 -321l117 -375h-205l-44 254l-105 -254h-209l214 369l-106 327h205l31 -217l97 217h207z" />
<glyph unicode="&#x3a8;" horiz-adv-x="674" d="M724 696l-40 -283q-12 -90 -79.5 -154t-183.5 -81l-24 -178h-194l24 177q-99 15 -149 67.5t-50 132.5q0 19 3 38l39 281h183l-40 -291q-2 -11 -2 -30q0 -26 10.5 -42t34.5 -25l53 388h174l-53 -387q33 10 48 32t21 66l40 289h185z" />
<glyph unicode="&#x3a9;" horiz-adv-x="621" d="M509.5 680.5q56.5 -34.5 85 -95t28.5 -137.5q0 -102 -39.5 -182.5t-125.5 -128.5h107l-19 -137h-250l17 128q61 31 86 133t25 211q0 53 -16 78t-50 25q-50 0 -81 -54.5t-44 -132t-13 -153.5q0 -41 11.5 -66t37.5 -42l-18 -127h-250l20 137h106q-95 67 -95 197 q0 93 39 181t116 144t185 56q81 0 137.5 -34.5z" />
<glyph unicode="&#x3aa;" horiz-adv-x="267" d="M290 696l-97 -696h-194l98 696h193zM31.5 782.5q-21.5 21.5 -21.5 56.5q0 43 29.5 72t71.5 29q38 0 59.5 -21.5t21.5 -56.5q0 -43 -29.5 -72t-72.5 -29q-37 0 -58.5 21.5zM254.5 782.5q-21.5 21.5 -21.5 56.5q0 43 29 72t72 29q37 0 58.5 -21.5t21.5 -56.5q0 -43 -29 -72 t-72 -29q-37 0 -58.5 21.5z" />
<glyph unicode="&#x3ab;" horiz-adv-x="554" d="M630 696l-257 -439l-36 -257h-194l36 257l-135 439h206l48 -292l125 292h207zM172.5 782.5q-21.5 21.5 -21.5 56.5q0 43 29.5 72t71.5 29q38 0 59.5 -21.5t21.5 -56.5q0 -43 -29.5 -72t-72.5 -29q-37 0 -58.5 21.5zM395.5 782.5q-21.5 21.5 -21.5 56.5q0 43 29 72t72 29 q37 0 58.5 -21.5t21.5 -56.5q0 -43 -29 -72t-72 -29q-37 0 -58.5 21.5z" />
<glyph unicode="&#x3ac;" horiz-adv-x="534" d="M351.5 518.5q31.5 -34.5 35.5 -98.5l23 114h152l-109 -270l9 -92q3 -26 14.5 -38t31.5 -15l-77 -138q-48 6 -73.5 29t-29.5 66l-2 16q-30 -58 -67.5 -84.5t-89.5 -26.5q-73 0 -115.5 52.5t-42.5 152.5q0 90 25.5 173.5t81.5 138.5t142 55q60 0 91.5 -34.5zM232.5 378.5 q-18.5 -39.5 -27.5 -93t-9 -92.5q0 -41 9 -59t27 -18q45 0 89 161q-2 80 -12 110.5t-33 30.5q-25 0 -43.5 -39.5zM258 851l178 -13l-84 -242h-117z" />
<glyph unicode="&#x3ad;" horiz-adv-x="450" d="M57 23q-57 42 -57 119q0 62 42.5 99.5t116.5 42.5q-105 23 -105 111q0 74 60 116t156 42q56 0 105.5 -17.5t85.5 -55.5l-83 -87q-42 33 -87 33q-25 0 -39.5 -14t-14.5 -37q0 -45 50 -45h52l-34 -116h-48q-34 0 -50.5 -15t-16.5 -40q0 -47 58 -47q25 0 49.5 9.5t57.5 29.5 l59 -102q-38 -32 -92.5 -50t-115.5 -18q-92 0 -149 42zM238 851l178 -13l-84 -242h-117z" />
<glyph unicode="&#x3ae;" horiz-adv-x="509" d="M304 352q1 7 1 17q0 21 -13 21q-12 0 -25.5 -21t-37.5 -77l-41 -292h-186l55 395q5 42 5 71q0 27 -4 59l174 21q7 -19 9 -38t1 -51q31 47 69.5 71.5t81.5 24.5q51 0 79.5 -32.5t28.5 -90.5q0 -17 -3 -37l-88 -602l-187 -18zM268 851l178 -13l-84 -242h-117z" />
<glyph unicode="&#x3af;" horiz-adv-x="249" d="M206 190q-2 -20 -2 -26q0 -17 6.5 -28.5t21.5 -20.5l-72 -134q-71 12 -109 50t-38 104q0 17 3 36l51 363h186zM133 851l178 -13l-84 -242h-117z" />
<glyph unicode="&#x3b0;" d="M493 436q0 -143 -22.5 -241t-86 -156t-180.5 -58q-96 0 -143 47.5t-47 117.5q0 10 2 28l51 360h185l-49 -363q-2 -14 -2 -21q0 -33 25 -33q48 0 68 106t20 227q0 42 -3 84h176q6 -64 6 -98zM279 966l147 -12l-69 -199h-96zM250.5 747.5q21.5 -21.5 21.5 -56.5 q0 -43 -29.5 -72t-71.5 -29q-37 0 -59 21.5t-22 56.5q0 43 29.5 72t72.5 29q37 0 58.5 -21.5zM492.5 747.5q21.5 -21.5 21.5 -56.5q0 -43 -29.5 -72t-71.5 -29q-37 0 -59 21.5t-22 56.5q0 43 29.5 72t71.5 29q38 0 59.5 -21.5z" />
<glyph unicode="&#x3b1;" horiz-adv-x="534" d="M351.5 518.5q31.5 -34.5 35.5 -98.5l23 114h152l-109 -270l9 -92q3 -26 14.5 -38t31.5 -15l-77 -138q-48 6 -73.5 29t-29.5 66l-2 16q-30 -58 -67.5 -84.5t-89.5 -26.5q-73 0 -115.5 52.5t-42.5 152.5q0 90 25.5 173.5t81.5 138.5t142 55q60 0 91.5 -34.5zM232.5 378.5 q-18.5 -39.5 -27.5 -93t-9 -92.5q0 -41 9 -59t27 -18q45 0 89 161q-2 80 -12 110.5t-33 30.5q-25 0 -43.5 -39.5z" />
<glyph unicode="&#x3b2;" horiz-adv-x="546" d="M74 555q14 99 81.5 153.5t169.5 54.5q63 0 108.5 -23t69 -62.5t23.5 -87.5q0 -63 -33.5 -114t-112.5 -71q61 -3 104.5 -40.5t43.5 -114.5q0 -59 -24.5 -121t-77.5 -105t-133 -43q-72 0 -116 41l-31 -227l-182 -21zM319 165.5q23 41.5 23 91.5q0 44 -18 61t-50 17h-27 l28 125h8q29 0 43.5 36t14.5 83q0 54 -34 54q-42 0 -55 -78l-58 -416q23 -15 56 -15q46 0 69 41.5z" />
<glyph unicode="&#x3b3;" horiz-adv-x="468" d="M230 275q0 -57 -2 -88l119 365l170 -41l-222 -481q-23 -48 -33 -83t-10 -71q0 -37 10 -78l-142 -25q-39 63 -39 117q0 53 35 126q-9 154 -39.5 283.5t-65.5 197.5l171 55q48 -85 48 -277z" />
<glyph unicode="&#x3b4;" horiz-adv-x="524" d="M522 683l-93 -89q-21 21 -41.5 31t-44.5 10q-28 0 -41.5 -12.5t-13.5 -33.5q0 -18 13.5 -31.5t55.5 -33.5q79 -38 115.5 -87.5t36.5 -126.5q0 -81 -28.5 -156t-92 -124t-162.5 -49q-68 0 -117 28t-74 75.5t-25 105.5q0 201 174 272q-39 30 -55 61.5t-16 68.5q0 43 25 82 t74.5 64t119.5 25q122 0 190 -80zM212.5 313.5q-13.5 -55.5 -13.5 -125.5q0 -71 41 -71q43 0 61 60t18 134q0 40 -11 60.5t-41 41.5q-41 -44 -54.5 -99.5z" />
<glyph unicode="&#x3b5;" horiz-adv-x="450" d="M57 23q-57 42 -57 119q0 62 42.5 99.5t116.5 42.5q-105 23 -105 111q0 74 60 116t156 42q56 0 105.5 -17.5t85.5 -55.5l-83 -87q-42 33 -87 33q-25 0 -39.5 -14t-14.5 -37q0 -45 50 -45h52l-34 -116h-48q-34 0 -50.5 -15t-16.5 -40q0 -47 58 -47q25 0 49.5 9.5t57.5 29.5 l59 -102q-38 -32 -92.5 -50t-115.5 -18q-92 0 -149 42z" />
<glyph unicode="&#x3b6;" horiz-adv-x="388" d="M106 -116q37 21 55 39.5t18 42.5q0 19 -12.5 33t-41.5 31q-45 26 -70.5 49.5t-39 57t-13.5 83.5q0 211 303 410q-55 -20 -114 -20h-118l40 134h339l11 -97q-158 -135 -213 -235t-55 -169q0 -41 17.5 -65t63.5 -50q47 -27 69 -55.5t22 -75.5q0 -72 -51.5 -125.5 t-158.5 -97.5z" />
<glyph unicode="&#x3b7;" horiz-adv-x="509" d="M304 352q1 7 1 17q0 21 -13 21q-12 0 -25.5 -21t-37.5 -77l-41 -292h-186l55 395q5 42 5 71q0 27 -4 59l174 21q7 -19 9 -38t1 -51q31 47 69.5 71.5t81.5 24.5q51 0 79.5 -32.5t28.5 -90.5q0 -17 -3 -37l-88 -602l-187 -18z" />
<glyph unicode="&#x3b8;" horiz-adv-x="509" d="M464.5 699q49.5 -64 49.5 -193q0 -141 -31 -260t-98 -192t-170 -73q-93 0 -142 63.5t-49 192.5q0 140 31 259t98 193t168 74q94 0 143.5 -64zM271.5 615.5q-15.5 -16.5 -29.5 -61.5t-29 -129h127q11 74 11 120q0 49 -10.5 68t-31.5 19q-22 0 -37.5 -16.5zM197 322 q-9 -66 -9 -117q0 -52 10 -71.5t32 -19.5q30 0 52.5 44.5t42.5 163.5h-128z" />
<glyph unicode="&#x3b9;" horiz-adv-x="249" d="M206 190q-2 -20 -2 -26q0 -17 6.5 -28.5t21.5 -20.5l-72 -134q-71 12 -109 50t-38 104q0 17 3 36l51 363h186z" />
<glyph unicode="&#x3ba;" horiz-adv-x="526" d="M341.5 13q-32.5 25 -49.5 81l-62 186l172 273l149 -72l-137 -202l57 -124q7 -16 14 -23t19 -12l-82 -139q-48 7 -80.5 32zM57 395q5 42 5 71q0 27 -4 59l174 21q14 -42 14 -96q0 -33 -6 -77l-52 -373h-186z" />
<glyph unicode="&#x3bb;" horiz-adv-x="491" d="M281.5 721q52.5 -27 82.5 -85.5t38 -163.5q13 -180 29 -271t50 -163l-182 -56q-20 56 -30 100.5t-14.5 107.5t-3.5 169l-99 -378l-185 45l212 518l56 -14q-9 37 -22.5 56.5t-38 31t-71.5 19.5l37 126q89 -15 141.5 -42z" />
<glyph unicode="&#x3bc;" horiz-adv-x="516" d="M452 64q0 -29 4 -65l-173 -17q-7 34 -8 71q-20 -32 -38.5 -46t-43.5 -14q-27 0 -44 17q8 -36 8 -65q0 -27 -6 -67l-12 -85l-175 -17l107 758h185l-50 -369q-1 -6 -1 -15q0 -14 4 -19.5t13 -5.5q12 0 25.5 11t25.5 33l51 365h186l-49 -351q-9 -69 -9 -119z" />
<glyph unicode="&#x3bd;" horiz-adv-x="468" d="M228 283q0 -48 -5 -121l124 390l170 -41l-212 -511h-227v34q0 168 -16 288.5t-51 174.5l171 55q46 -87 46 -269z" />
<glyph unicode="&#x3be;" horiz-adv-x="413" d="M132 -115q37 22 55 39.5t18 41.5q0 20 -13.5 34.5t-49.5 34.5q-67 38 -100.5 80t-33.5 112q0 82 42 137t144 79q-102 28 -102 128q0 46 25.5 90t77 73t124.5 29q109 0 176 -72l-88 -87q-20 16 -34.5 22.5t-34.5 6.5q-28 0 -45.5 -22t-17.5 -58q0 -30 15 -44.5t47 -14.5 h36l-33 -121h-32q-47 0 -76.5 -34t-29.5 -88q0 -31 9.5 -50t28 -33.5t57.5 -36.5q51 -30 73.5 -58.5t22.5 -74.5q0 -72 -51 -125.5t-159 -98.5z" />
<glyph unicode="&#x3bf;" horiz-adv-x="529" d="M69.5 37q-56.5 57 -56.5 165q0 93 30.5 173t95.5 129t162 49q101 0 158 -57.5t57 -164.5q-1 -94 -31.5 -173.5t-95.5 -128.5t-162 -49q-101 0 -157.5 57zM307.5 194.5q19.5 77.5 19.5 162.5q0 32 -9.5 46t-30.5 14q-46 0 -66 -75.5t-20 -159.5q0 -35 9.5 -50t30.5 -15 q47 0 66.5 77.5z" />
<glyph unicode="&#x3c0;" horiz-adv-x="545" d="M479 190q-2 -20 -2 -26q0 -17 6.5 -28.5t21.5 -20.5l-72 -134q-71 12 -109 50t-38 104q0 17 3 36l33 224h-57l-55 -395h-184l54 395q-20 -1 -44 -9l-17 129q48 19 98 19h466l-19 -139h-56z" />
<glyph unicode="&#x3c1;" horiz-adv-x="531" d="M456 498.5q57 -54.5 57 -161.5q0 -95 -28 -176.5t-82 -131t-128 -49.5q-63 0 -98 45l-33 -232l-188 -20l72 522q36 258 268 258q103 0 160 -54.5zM287.5 154.5q19.5 38.5 28.5 93t9 103.5q0 39 -10 53t-31 14q-28 0 -44 -31t-27 -110l-19 -132q17 -29 45 -29 q29 0 48.5 38.5z" />
<glyph unicode="&#x3c2;" horiz-adv-x="438" d="M118 -115q36 21 54 39.5t18 41.5q0 19 -12.5 33.5t-41.5 31.5q-60 34 -90.5 78.5t-30.5 119.5q0 83 33 157t98.5 120.5t157.5 46.5q107 0 171 -72l-89 -102q-38 32 -75 32q-52 0 -76 -54.5t-24 -117.5q0 -39 16.5 -62.5t59.5 -48.5q47 -27 69 -55.5t22 -75.5 q0 -72 -51 -125t-159 -98z" />
<glyph unicode="&#x3c3;" horiz-adv-x="550" d="M70.5 36.5q-57.5 56.5 -57.5 165.5q0 85 26.5 161.5t94 128t183.5 51.5q72 0 230 -8l39 -2l-22 -136l-87 10q39 -44 39 -113q0 -73 -31 -145.5t-96 -120.5t-159 -48q-102 0 -159.5 56.5zM308.5 195.5q20.5 78.5 20.5 161.5q0 38 -6 56h-20q-102 1 -102 -226q0 -38 10 -54 t31 -16q46 0 66.5 78.5z" />
<glyph unicode="&#x3c4;" horiz-adv-x="437" d="M303 190q-2 -18 -2 -25q0 -18 6.5 -29.5t21.5 -20.5l-67 -134q-71 12 -111 50.5t-40 105.5q0 16 3 34l32 224h-33q-42 0 -78 -12l-16 132q46 19 100 19h356l-20 -139h-122z" />
<glyph unicode="&#x3c5;" d="M493 436q0 -143 -22.5 -241t-86 -156t-180.5 -58q-96 0 -143 47.5t-47 117.5q0 10 2 28l51 360h185l-49 -363q-2 -14 -2 -21q0 -33 25 -33q48 0 68 106t20 227q0 42 -3 84h176q6 -64 6 -98z" />
<glyph unicode="&#x3c6;" horiz-adv-x="692" d="M674 353q0 -154 -60 -253.5t-225 -117.5l-26 -189l-174 -19l29 209q-105 12 -157 67t-52 145q0 71 27 162.5t76 176.5h167q-48 -103 -69 -182.5t-21 -155.5q0 -39 10.5 -59.5t36.5 -27.5l32 233q14 99 71 155t153 56q182 0 182 -200zM455.5 413q-8.5 -17 -15.5 -66 l-33 -238q95 19 95 264q0 33 -5 45t-17 12q-16 0 -24.5 -17z" />
<glyph unicode="&#x3c7;" horiz-adv-x="458" d="M309 183l105 -377l-182 -32l-36 269l-97 -269l-192 20l212 389q-36 134 -59.5 199t-58.5 114l181 52q18 -51 27 -97t23 -148l68 245l195 -19z" />
<glyph unicode="&#x3c8;" horiz-adv-x="714" d="M680 192.5q-23 -91.5 -87.5 -144.5t-185.5 -65l-27 -190l-176 -20l29 209q-106 13 -160.5 63t-54.5 128q0 17 3 35l46 326h181l-46 -328q-2 -18 -2 -25q0 -28 12.5 -45t39.5 -24l58 422h174l-58 -421q46 11 68.5 60t28 111.5t5.5 153.5q0 36 -2 96h172l1 -20q4 -54 4 -82 q0 -148 -23 -239.5z" />
<glyph unicode="&#x3c9;" horiz-adv-x="686" d="M48.5 30q-42.5 49 -42.5 142q0 156 103 362h167q-44 -115 -66.5 -198.5t-22.5 -157.5q0 -33 6 -47t19 -14q14 0 22.5 13t12.5 49l24 176l172 23l-27 -201q-3 -18 -3 -31q0 -15 4.5 -22t16.5 -7q35 0 49 76t14 166q0 44 -5 92t-6 56l-3 27h167q26 -95 26 -176 q0 -158 -51.5 -267.5t-173.5 -109.5q-53 0 -87.5 28t-43.5 86q-24 -60 -62.5 -87t-92.5 -27q-74 0 -116.5 49z" />
<glyph unicode="&#x3ca;" horiz-adv-x="249" d="M206 190q-2 -20 -2 -26q0 -17 6.5 -28.5t21.5 -20.5l-72 -134q-71 12 -109 50t-38 104q0 17 3 36l51 363h186zM5.5 656.5q-21.5 21.5 -21.5 56.5q0 43 29.5 72t71.5 29q38 0 59.5 -21.5t21.5 -56.5q0 -43 -29.5 -72t-72.5 -29q-37 0 -58.5 21.5zM228.5 656.5 q-21.5 21.5 -21.5 56.5q0 43 29 72t72 29q37 0 58.5 -21.5t21.5 -56.5q0 -43 -29 -72t-72 -29q-37 0 -58.5 21.5z" />
<glyph unicode="&#x3cb;" d="M493 436q0 -143 -22.5 -241t-86 -156t-180.5 -58q-96 0 -143 47.5t-47 117.5q0 10 2 28l51 360h185l-49 -363q-2 -14 -2 -21q0 -33 25 -33q48 0 68 106t20 227q0 42 -3 84h176q6 -64 6 -98zM126.5 656.5q-21.5 21.5 -21.5 56.5q0 43 29.5 72t71.5 29q38 0 59.5 -21.5 t21.5 -56.5q0 -43 -29.5 -72t-72.5 -29q-37 0 -58.5 21.5zM349.5 656.5q-21.5 21.5 -21.5 56.5q0 43 29 72t72 29q37 0 58.5 -21.5t21.5 -56.5q0 -43 -29 -72t-72 -29q-37 0 -58.5 21.5z" />
<glyph unicode="&#x3cc;" horiz-adv-x="529" d="M69.5 37q-56.5 57 -56.5 165q0 93 30.5 173t95.5 129t162 49q101 0 158 -57.5t57 -164.5q-1 -94 -31.5 -173.5t-95.5 -128.5t-162 -49q-101 0 -157.5 57zM307.5 194.5q19.5 77.5 19.5 162.5q0 32 -9.5 46t-30.5 14q-46 0 -66 -75.5t-20 -159.5q0 -35 9.5 -50t30.5 -15 q47 0 66.5 77.5zM270 851l178 -13l-84 -242h-117z" />
<glyph unicode="&#x3cd;" d="M493 436q0 -143 -22.5 -241t-86 -156t-180.5 -58q-96 0 -143 47.5t-47 117.5q0 10 2 28l51 360h185l-49 -363q-2 -14 -2 -21q0 -33 25 -33q48 0 68 106t20 227q0 42 -3 84h176q6 -64 6 -98zM254 851l178 -13l-84 -242h-117z" />
<glyph unicode="&#x3ce;" horiz-adv-x="686" d="M48.5 30q-42.5 49 -42.5 142q0 156 103 362h167q-44 -115 -66.5 -198.5t-22.5 -157.5q0 -33 6 -47t19 -14q14 0 22.5 13t12.5 49l24 176l172 23l-27 -201q-3 -18 -3 -31q0 -15 4.5 -22t16.5 -7q35 0 49 76t14 166q0 44 -5 92t-6 56l-3 27h167q26 -95 26 -176 q0 -158 -51.5 -267.5t-173.5 -109.5q-53 0 -87.5 28t-43.5 86q-24 -60 -62.5 -87t-92.5 -27q-74 0 -116.5 49zM348 851l178 -13l-84 -242h-117z" />
<glyph unicode="&#x3cf;" horiz-adv-x="641" d="M97 696h193l-97 -696h-194zM623 148l-21 -148h1l-4 -27q-15 -98 -78.5 -149t-158.5 -51q-87 0 -140 46l76 112q16 -9 27.5 -13t27.5 -4q21 0 34 13t17 37l5 36h-46l-113 371l210 325h197l-211 -320l79 -228h98z" />
<glyph unicode="&#x3d0;" horiz-adv-x="516" d="M467.5 389.5q30.5 -38.5 30.5 -109.5q0 -70 -28.5 -139t-90 -114.5t-154.5 -45.5q-205 0 -205 246q0 127 34 250t108.5 204.5t186.5 81.5q74 0 116 -40t42 -100q0 -137 -185 -203q40 8 64 8q51 0 81.5 -38.5zM228 444l19 9q43 20 70 63.5t27 88.5q0 29 -21 29 q-57 0 -95 -190zM290.5 166q16.5 50 16.5 105q0 74 -43 74q-18 0 -42 -11l-14 -7q-8 -67 -8 -121q0 -50 10 -70t29 -20q35 0 51.5 50z" />
<glyph unicode="&#x3d1;" horiz-adv-x="506" d="M517 400h-32q-12 -194 -83 -306t-213 -112q-85 0 -130 43.5t-45 116.5q0 22 2 33l25 179h176l-27 -193q-1 -7 -1 -19q0 -27 19 -27q33 0 57 84.5t35 199.5h-55q-92 0 -138 44.5t-46 117.5q0 55 25 101t72.5 73.5t111.5 27.5q102 0 156.5 -64t60.5 -178h48zM307 521v10 q0 56 -11 77t-32 21q-20 0 -30.5 -16.5t-10.5 -42.5q0 -49 46 -49h38z" />
<glyph unicode="&#x3d2;" horiz-adv-x="580" d="M179 257l-135 439h206l47 -292l63 166q30 77 72.5 111t114.5 34q68 0 119 -37l-62 -110q-18 10 -36 10q-15 0 -25 -8t-22 -30l-148 -283l-36 -257h-194z" />
<glyph unicode="&#x3d3;" horiz-adv-x="795" d="M394 257l-135 439h206l47 -292l63 166q30 77 72.5 111t114.5 34q68 0 119 -37l-62 -110q-18 10 -36 10q-15 0 -25 -8t-22 -30l-148 -283l-36 -257h-194zM236 715l6 -267l-110 -11l-54 259z" />
<glyph unicode="&#x3d4;" horiz-adv-x="580" d="M179 257l-135 439h206l47 -292l63 166q30 77 72.5 111t114.5 34q68 0 119 -37l-62 -110q-18 10 -36 10q-15 0 -25 -8t-22 -30l-148 -283l-36 -257h-194zM189.5 782.5q-21.5 21.5 -21.5 56.5q0 43 29.5 72t71.5 29q38 0 59.5 -21.5t21.5 -56.5q0 -43 -29.5 -72t-72.5 -29 q-37 0 -58.5 21.5zM412.5 782.5q-21.5 21.5 -21.5 56.5q0 43 29 72t72 29q37 0 58.5 -21.5t21.5 -56.5q0 -43 -29 -72t-72 -29q-37 0 -58.5 21.5z" />
<glyph unicode="&#x3d5;" horiz-adv-x="626" d="M549.5 103.5q-66.5 -83.5 -181.5 -97.5l-30 -213l-187 -20l33 234q-76 12 -125 62.5t-49 141.5q0 136 65.5 219.5t181.5 97.5l30 216l186 19l-32 -236q77 -12 126 -63t49 -142q0 -135 -66.5 -218.5zM425.5 187q19.5 61 19.5 141q0 44 -10 64t-30 23l-40 -296 q41 7 60.5 68zM200.5 347.5q-19.5 -59.5 -19.5 -139.5q0 -81 39 -90l40 295q-40 -6 -59.5 -65.5z" />
<glyph unicode="&#x3d6;" horiz-adv-x="687" d="M694 404h-60q36 -74 36 -147t-25 -136.5t-72 -101.5t-109 -38q-123 0 -133 120q-23 -64 -59 -92t-92 -28q-71 0 -113.5 46t-42.5 136q0 67 22.5 125.5t64.5 115.5h-4q-22 0 -34.5 -2t-30.5 -7l-18 117q25 11 53 16.5t71 5.5h565zM491 404h-234q-25 -61 -38.5 -121.5 t-13.5 -109.5q0 -31 5 -43.5t18 -12.5t19.5 12.5t11.5 44.5l15 114l171 23l-18 -134q-3 -16 -3 -30q0 -30 20 -30q29 0 40.5 62.5t11.5 125.5q0 47 -5 99z" />
<glyph unicode="&#x3d7;" horiz-adv-x="483" d="M437 165q0 -18 6.5 -29.5t21.5 -20.5l-27 -158q-15 -92 -71.5 -137.5t-137.5 -45.5q-83 0 -138 46l73 88q20 -10 32 -14t29 -4q26 0 38.5 14t17.5 47l13 80q-41 31 -41 81q0 46 31.5 111.5t88.5 154.5l-285 -397l-89 33l44 325q2 20 2 26q0 17 -6.5 28.5t-21.5 20.5 l72 134q61 -13 100.5 -46t39.5 -85q0 -46 -29.5 -109t-85.5 -149l283 391l86 -35l-44 -325q-2 -18 -2 -25z" />
<glyph unicode="&#x3d8;" horiz-adv-x="624" d="M594 241.5q-28 -94.5 -88.5 -163t-152.5 -89.5l-29 -203h-176l30 208q-76 25 -114.5 91t-38.5 171q0 119 36 223.5t114 170t197 65.5q123 0 186.5 -70t63.5 -204q0 -105 -28 -199.5zM368.5 178.5q30.5 57.5 43 137.5t12.5 154q0 56 -16 80.5t-50 24.5q-49 0 -79.5 -59 t-43 -140t-12.5 -152q0 -55 15.5 -79t49.5 -24q50 0 80.5 57.5z" />
<glyph unicode="&#x3d9;" horiz-adv-x="529" d="M462.5 112.5q-52.5 -94.5 -155.5 -122.5l-29 -196l-164 -19l31 217q-64 20 -98 73t-34 137q0 93 30.5 173t95.5 129t162 49q101 0 158 -57.5t57 -164.5q-1 -124 -53.5 -218.5zM317.5 403q-9.5 14 -30.5 14q-46 0 -66 -75.5t-20 -159.5q0 -35 9.5 -50t30.5 -15 q47 0 66.5 77.5t19.5 162.5q0 32 -9.5 46z" />
<glyph unicode="&#x3da;" horiz-adv-x="526" d="M218 -116q34 22 50 38t16 35q0 15 -12 25.5t-51 35.5l-29 18q-49 31 -82.5 63.5t-56 85.5t-22.5 132q0 112 49.5 198t138.5 133.5t203 47.5h166l-43 -154h-103q-105 0 -154 -60.5t-49 -155.5q0 -68 22 -106.5t78 -72.5q51 -31 78 -51t43 -45.5t16 -59.5q0 -68 -50 -120.5 t-157 -97.5z" />
<glyph unicode="&#x3db;" horiz-adv-x="441" d="M117 -116q36 21 54 39t18 41q0 21 -12.5 36t-44.5 33q-56 34 -87 76t-31 118q0 181 174 251q37 14 56 20q37 13 55 21.5t29 25t15 46.5l148 -16q-11 -70 -28 -104.5t-42 -50t-79 -35.5l-24 -9q-55 -19 -81.5 -49.5t-26.5 -85.5q0 -42 17 -65t60 -49q45 -27 67.5 -55.5 t22.5 -74.5q0 -73 -53 -127t-156 -97z" />
<glyph unicode="&#x3dc;" horiz-adv-x="459" d="M270 544l-20 -143h81q78 0 117 -33l-59 -120q-18 7 -35 10.5t-43 3.5h-80l-37 -262h-194l97 696h424l-41 -152h-210z" />
<glyph unicode="&#x3dd;" horiz-adv-x="416" d="M222 333l-10 -75h41q40 0 67.5 -8t49.5 -24l-59 -120q-20 8 -38 12t-44 4h-37l-45 -325l-185 -23l78 571q12 87 66 138t158 51h194l-38 -142h-137q-52 0 -61 -59z" />
<glyph unicode="&#x3de;" horiz-adv-x="468" d="M432 423l28 -149l-198 -274h-214l210 274h-200l-27 149l200 273h214l-210 -273h197z" />
<glyph unicode="&#x3df;" horiz-adv-x="468" d="M382 720q-5 -42 -27.5 -91.5t-69.5 -118.5l-59 -84l216 64l42 -119l-99 -180q-40 -75 -60 -118.5t-35 -90.5l-159 42q14 87 79 180l73 103l-228 -66l-43 117l116 195q39 65 57.5 108.5t36.5 100.5z" />
<glyph unicode="&#x3e0;" horiz-adv-x="552" d="M536 0h-158l-30 203l-72 -203h-114l159 385l-15 97l-205 -482h-160l309 644l-16 52h166z" />
<glyph unicode="&#x3e1;" horiz-adv-x="618" d="M406.5 639q88.5 -70 134 -170t45.5 -238q0 -105 -25.5 -226.5t-65.5 -228.5l-141 23q35 107 57.5 219.5t22.5 204.5v6l-111 -229h-161l241 405q-7 18 -22 44l-273 -449h-165l340 555q-64 50 -164 98l63 108q136 -52 224.5 -122z" />
<glyph unicode="&#x3f0;" horiz-adv-x="483" d="M437 165q0 -18 6.5 -29.5t21.5 -20.5l-71 -134q-62 13 -101.5 46t-39.5 85q0 46 30.5 110t89.5 156l-285 -397l-89 33l44 325q2 20 2 26q0 17 -6.5 28.5t-21.5 20.5l72 134q61 -13 100.5 -46t39.5 -85q0 -46 -29.5 -109t-85.5 -149l283 391l86 -35l-44 -325 q-2 -18 -2 -25z" />
<glyph unicode="&#x3f1;" horiz-adv-x="529" d="M172 1q-1 -4 -1 -10q0 -21 21 -33t78 -23q64 -12 94.5 -41.5t34.5 -87.5l-161 -31q-3 16 -11 24t-25.5 13t-60.5 13q-75 14 -113.5 53t-38.5 113q0 21 3 45l36 259q36 258 268 258q103 0 160 -55t57 -161q0 -83 -29 -156t-81.5 -117t-117.5 -44q-67 0 -103 45zM240.5 387 q-16.5 -31 -27.5 -110l-14 -97q16 -24 42 -24q42 0 63 61t21 137q0 37 -10 50.5t-30 13.5q-28 0 -44.5 -31z" />
<glyph unicode="&#x3f2;" horiz-adv-x="459" d="M420.5 535q44.5 -18 80.5 -53l-90 -103q-23 17 -42 24.5t-44 7.5q-61 0 -89 -58t-28 -137q0 -49 18.5 -69.5t52.5 -20.5q26 0 46.5 7t49.5 23l65 -112q-44 -32 -89.5 -48t-105.5 -16q-108 0 -169.5 61.5t-61.5 172.5q0 97 37 174t105.5 121t157.5 44q62 0 106.5 -18z" />
<glyph unicode="&#x3f3;" horiz-adv-x="253" d="M-114 -91q56 22 83 55t36 99l66 471h186l-65 -461q-13 -92 -50 -150.5t-89 -91t-124 -57.5zM111 644.5q-25 24.5 -25 64.5q0 50 34 83t83 33q43 0 68 -24.5t25 -64.5q0 -50 -33.5 -83t-83.5 -33q-43 0 -68 24.5z" />
<glyph unicode="&#x3f4;" horiz-adv-x="624" d="M558.5 645.5q63.5 -69.5 63.5 -204.5q0 -117 -36 -222t-114 -172t-197 -67q-123 0 -186.5 70.5t-63.5 205.5q0 117 36 221.5t114 171t197 66.5q123 0 186.5 -69.5zM272.5 520q-33.5 -57 -47 -137.5t-13.5 -157.5q0 -57 17.5 -82t55.5 -25q56 0 89.5 56.5t47 136 t13.5 158.5q0 58 -18 83t-56 25q-55 0 -88.5 -57zM406 404l-15 -104h-149l15 104h149z" />
<glyph unicode="&#x3f5;" horiz-adv-x="436" d="M302 127.5q20 7.5 45 24.5l65 -108q-80 -64 -181 -64q-102 0 -160 61.5t-58 167.5q0 90 33 168.5t99 127t158 48.5q103 0 169 -71l-88 -97q-36 32 -77 32q-73 0 -99 -95h151l-15 -102h-150v-15q0 -50 16.5 -67.5t50.5 -17.5q21 0 41 7.5z" />
<glyph unicode="&#x3f6;" horiz-adv-x="431" d="M363.5 492.5q54.5 -60.5 54.5 -168.5q0 -99 -34 -177t-99.5 -122t-155.5 -44q-53 0 -93.5 16t-74.5 47l90 101q20 -16 38 -22.5t39 -6.5q75 0 96 104h-153l15 102h151q1 11 1 26q0 71 -55 71q-23 0 -43.5 -8t-46.5 -25l-65 103q83 64 183 64q98 0 152.5 -60.5z" />
<glyph unicode="&#x3f7;" horiz-adv-x="547" d="M488 540q65 -51 65 -152q0 -76 -32.5 -139.5t-99 -102t-164.5 -38.5h-49l-15 -108h-193l97 696h193l-15 -105h25q123 0 188 -51zM332 286.5q23 39.5 23 97.5q0 36 -17 53t-53 17h-29l-29 -207h28q54 0 77 39.5z" />
<glyph unicode="&#x3f8;" horiz-adv-x="533" d="M485.5 504q36.5 -49 36.5 -141q0 -104 -27 -190.5t-86.5 -139.5t-152.5 -53q-38 0 -76 10l-28 -197l-188 -19l136 970l188 19l-38 -268q22 26 57.5 42t70.5 16q71 0 107.5 -49zM292.5 154q21.5 39 31 94.5t9.5 105.5q0 37 -9 50t-26 13q-33 0 -64 -46l-35 -247 q18 -9 39 -9q33 0 54.5 39z" />
<glyph unicode="&#x3f9;" horiz-adv-x="544" d="M504 693.5q50 -21.5 86 -62.5l-101 -100q-22 21 -46.5 31.5t-58.5 10.5q-58 0 -93.5 -50.5t-50.5 -123t-15 -144.5q0 -66 23 -96t72 -30q35 0 63.5 13.5t65.5 40.5l71 -109q-102 -94 -238 -94q-120 0 -188.5 71.5t-68.5 208.5q0 120 38 223.5t119 167.5t202 64 q70 0 120 -21.5z" />
<glyph unicode="&#x3fa;" horiz-adv-x="713" d="M660 0h-189l31 253q13 107 49 302l-131 -484h-185l-8 482q-4 -99 -9.5 -165.5t-15.5 -136.5l-36 -251h-189l140 696h232l-1 -473l120 473h246z" />
<glyph unicode="&#x3fb;" horiz-adv-x="609" d="M561 0h-171l19 162q7 58 14.5 106t22.5 118l-98 -334h-147l-10 333q-3 -71 -8 -121.5t-14 -103.5l-65 -373l-173 -12l157 759h207l2 -326l84 326h214z" />
<glyph unicode="&#x3fc;" horiz-adv-x="531" d="M456 498.5q57 -54.5 57 -161.5q0 -95 -28 -176.5t-82 -131t-128 -49.5q-63 0 -98 45l-10 -69h108l-15 -103h-107l-9 -60l-188 -20l11 80h-41l15 103h40l47 339q36 258 268 258q103 0 160 -54.5zM287.5 154.5q19.5 38.5 28.5 93t9 103.5q0 39 -10 53t-31 14q-28 0 -44 -31 t-27 -110l-19 -132q17 -29 45 -29q29 0 48.5 38.5z" />
<glyph unicode="&#x3fd;" horiz-adv-x="549" d="M68.5 6.5q-53.5 24.5 -93.5 66.5l98 103q30 -25 55.5 -36.5t62.5 -11.5q53 0 88 45.5t51 114.5t16 141q0 74 -23.5 108t-74.5 34q-33 0 -59 -11.5t-60 -34.5l-77 108q102 83 224 83q125 0 196.5 -74.5t71.5 -226.5q0 -123 -39.5 -221.5t-118 -155t-190.5 -56.5 q-74 0 -127.5 24.5z" />
<glyph unicode="&#x3fe;" horiz-adv-x="544" d="M504 693.5q50 -21.5 86 -62.5l-101 -100q-22 21 -46.5 31.5t-58.5 10.5q-58 0 -93.5 -50.5t-50.5 -123t-15 -144.5q0 -66 23 -96t72 -30q35 0 63.5 13.5t65.5 40.5l71 -109q-102 -94 -238 -94q-120 0 -188.5 71.5t-68.5 208.5q0 120 38 223.5t119 167.5t202 64 q70 0 120 -21.5zM293.5 282.5q-22.5 22.5 -22.5 58.5q0 45 30.5 74.5t75.5 29.5q39 0 61.5 -22t22.5 -58q0 -45 -30.5 -75t-75.5 -30q-39 0 -61.5 22.5z" />
<glyph unicode="&#x3ff;" horiz-adv-x="549" d="M68.5 6.5q-53.5 24.5 -93.5 66.5l98 103q30 -25 55.5 -36.5t62.5 -11.5q53 0 88 45.5t51 114.5t16 141q0 74 -23.5 108t-74.5 34q-33 0 -59 -11.5t-60 -34.5l-77 108q102 83 224 83q125 0 196.5 -74.5t71.5 -226.5q0 -123 -39.5 -221.5t-118 -155t-190.5 -56.5 q-74 0 -127.5 24.5zM129.5 282.5q-22.5 22.5 -22.5 58.5q0 45 30.5 74.5t75.5 29.5q39 0 61.5 -22t22.5 -58q0 -45 -30.5 -75t-75.5 -30q-39 0 -61.5 22.5z" />
<glyph unicode="&#x400;" horiz-adv-x="461" d="M509 696l-41 -138h-197l-19 -138h174l-19 -134h-174l-20 -147h213l-20 -139h-407l98 696h412zM275 963l192 -133l-51 -86l-218 85z" />
<glyph unicode="&#x401;" horiz-adv-x="461" d="M509 696l-41 -138h-197l-19 -138h174l-19 -134h-174l-20 -147h213l-20 -139h-407l98 696h412zM140.5 782.5q-21.5 21.5 -21.5 56.5q0 43 29.5 72t71.5 29q38 0 59.5 -21.5t21.5 -56.5q0 -43 -29.5 -72t-72.5 -29q-37 0 -58.5 21.5zM363.5 782.5q-21.5 21.5 -21.5 56.5 q0 43 29 72t72 29q37 0 58.5 -21.5t21.5 -56.5q0 -43 -29 -72t-72 -29q-37 0 -58.5 21.5z" />
<glyph unicode="&#x402;" horiz-adv-x="687" d="M625.5 428.5q43.5 -50.5 43.5 -139.5q0 -15 -4 -53l-19 -138q-12 -88 -52 -143.5t-92 -85t-124 -54.5l-32 139q40 16 62 37.5t31.5 48t14.5 67.5l18 135q2 24 2 33q0 33 -12 48t-40 15q-39 0 -71 -29l-43 -309h-194l76 551h-148l20 145h495l-38 -145h-135l-16 -118 q56 46 131 46q83 0 126.5 -50.5z" />
<glyph unicode="&#x403;" horiz-adv-x="455" d="M521 696l-41 -152h-210l-76 -544h-194l97 696h424zM428 965l59 -134l-240 -88l-42 89z" />
<glyph unicode="&#x404;" horiz-adv-x="522" d="M365 138.5q27 13.5 64 40.5l71 -105q-102 -94 -228 -94q-114 0 -180.5 71.5t-66.5 208.5q0 119 37.5 222.5t116 168t195.5 64.5q123 0 196 -84l-101 -96q-45 42 -95 42q-52 0 -86.5 -43t-51.5 -112h193l-20 -134h-192q-1 -11 -1 -33q0 -69 22.5 -99.5t69.5 -30.5 q30 0 57 13.5z" />
<glyph unicode="&#x405;" horiz-adv-x="526" d="M551 620l-96 -99q-54 54 -122 54q-38 0 -58 -16.5t-20 -42.5q0 -25 20.5 -41.5t82.5 -43.5q77 -33 113.5 -78.5t36.5 -117.5q0 -70 -33.5 -128t-99.5 -92.5t-158 -34.5q-154 0 -246 105l105 104q33 -32 67 -48t76 -16t65 19.5t23 53.5q0 31 -21.5 51.5t-77.5 44.5 q-82 34 -117.5 78t-35.5 111q0 66 32.5 119t93 83t143.5 30q144 0 227 -95z" />
<glyph unicode="&#x406;" horiz-adv-x="267" d="M290 696l-97 -696h-194l98 696h193z" />
<glyph unicode="&#x407;" horiz-adv-x="267" d="M290 696l-97 -696h-194l98 696h193zM31.5 782.5q-21.5 21.5 -21.5 56.5q0 43 29.5 72t71.5 29q38 0 59.5 -21.5t21.5 -56.5q0 -43 -29.5 -72t-72.5 -29q-37 0 -58.5 21.5zM254.5 782.5q-21.5 21.5 -21.5 56.5q0 43 29 72t72 29q37 0 58.5 -21.5t21.5 -56.5q0 -43 -29 -72 t-72 -29q-37 0 -58.5 21.5z" />
<glyph unicode="&#x408;" horiz-adv-x="295" d="M237 106q-13 -91 -52.5 -148.5t-92 -88t-124.5 -54.5l-34 137q57 24 79 61t31 105l81 578h194z" />
<glyph unicode="&#x409;" horiz-adv-x="836" d="M766.5 417q61.5 -50 61.5 -146q0 -69 -29.5 -131t-93.5 -101t-162 -39h-242l77 550h-68l-45 -208q-32 -144 -61.5 -214.5t-76 -102.5t-132.5 -45l-25 145q31 11 46.5 26t30 57.5t36.5 136.5l76 351h433l-32 -229h35q110 0 171.5 -50zM603.5 176q21.5 36 21.5 86 q0 35 -14.5 53t-47.5 18h-22l-27 -193h21q47 0 68.5 36z" />
<glyph unicode="&#x40a;" horiz-adv-x="850" d="M780.5 407q61.5 -49 61.5 -142q0 -66 -29.5 -126.5t-93.5 -99.5t-162 -39h-244l45 318h-120l-45 -318h-194l98 696h193l-33 -240h120l34 240h193l-33 -240h38q110 0 171.5 -49zM617.5 175q21.5 35 21.5 80q0 33 -14 50.5t-48 17.5h-24l-25 -183h21q47 0 68.5 35z" />
<glyph unicode="&#x40b;" horiz-adv-x="687" d="M625.5 428.5q43.5 -50.5 43.5 -137.5q0 -30 -4 -55l-32 -236h-194l33 242q3 20 3 35q0 32 -12.5 46.5t-40.5 14.5q-39 0 -71 -29l-43 -309h-193l76 551h-149l20 145h495l-38 -145h-135l-16 -118q29 23 61 34.5t71 11.5q82 0 125.5 -50.5z" />
<glyph unicode="&#x40c;" horiz-adv-x="587" d="M628 582q-36 -5 -59 -21.5t-46 -54.5l-83 -140l118 -366h-199l-84 295h-40l-42 -295h-194l98 696h193l-37 -268h37l93 161q28 47 54.5 71.5t61.5 36t97 18.5zM475 965l59 -134l-240 -88l-42 89z" />
<glyph unicode="&#x40d;" horiz-adv-x="580" d="M506 0h-185l28 196q13 92 29.5 161.5t47.5 173.5l-201 -531h-225l97 696h184l-28 -194q-13 -93 -30.5 -167.5t-44.5 -163.5l203 525h222zM313 963l192 -133l-51 -86l-218 85z" />
<glyph unicode="&#x40e;" horiz-adv-x="532" d="M397 216q-40 -88 -86.5 -137t-104.5 -70.5t-143 -27.5l-7 130q59 6 91.5 20.5t56.5 50.5h-55l-110 514h190l47 -406l144 406h198zM220 794q-36 40 -36 106q0 18 1 27l96 14q1 -31 16 -44.5t44 -13.5q31 0 51 15t30 46l95 -19q-16 -78 -63 -124.5t-126 -46.5 q-72 0 -108 40z" />
<glyph unicode="&#x40f;" horiz-adv-x="582" d="M605 696l-97 -696h-179l-24 -173h-127l4 173h-183l98 696h193l-76 -544h121l76 544h194z" />
<glyph unicode="&#x410;" horiz-adv-x="542" d="M324 0l-4 138h-138l-40 -138h-201l274 696h231l79 -696h-201zM222 276h94l-8 294z" />
<glyph unicode="&#x411;" horiz-adv-x="546" d="M474.5 406.5q61.5 -48.5 61.5 -140.5q0 -66 -29.5 -126.5t-93.5 -100t-162 -39.5h-251l97 696h422l-40 -147h-209l-13 -94h46q110 0 171.5 -48.5zM310 173q23 33 23 83q0 32 -15 48.5t-48 16.5h-32l-25 -181h30q44 0 67 33z" />
<glyph unicode="&#x412;" horiz-adv-x="555" d="M503.5 322.5q34.5 -32.5 34.5 -96.5q0 -108 -81 -167t-236 -59h-222l98 696h196q125 0 194 -39t69 -120q0 -69 -41.5 -111t-104.5 -58q59 -13 93.5 -45.5zM358 513q0 24 -15 35.5t-49 11.5h-24l-19 -135h24q83 0 83 88zM341 240q0 59 -71 59h-36l-22 -159h29 q100 0 100 100z" />
<glyph unicode="&#x413;" horiz-adv-x="455" d="M521 696l-41 -152h-210l-76 -544h-194l97 696h424z" />
<glyph unicode="&#x414;" horiz-adv-x="589" d="M511 148h58l-45 -321h-127l4 173h-278l-57 -173h-127l46 321h38q32 26 49 71.5t44 158.5l14 58l58 260h399zM383 554h-50l-23 -113q-28 -125 -58.5 -190t-77.5 -103h152z" />
<glyph unicode="&#x415;" horiz-adv-x="461" d="M509 696l-41 -138h-197l-19 -138h174l-19 -134h-174l-20 -147h213l-20 -139h-407l98 696h412z" />
<glyph unicode="&#x416;" horiz-adv-x="858" d="M907 583q-36 -5 -59 -22t-47 -56l-86 -139l115 -366h-196l-78 293h-30l-41 -293h-177l43 293h-28l-158 -293h-211l227 387l-38 110q-13 39 -37 58.5t-70 28.5l48 131q90 -9 139.5 -43t72.5 -98l52 -146h24l37 268h174l-37 -268h21l95 161q28 47 54.5 72t62 36.5 t95.5 17.5z" />
<glyph unicode="&#x417;" horiz-adv-x="492" d="M448.5 670q55.5 -45 55.5 -120q0 -72 -46 -118t-135 -65q76 -8 114 -43t38 -94q0 -74 -38.5 -130.5t-105.5 -87.5t-150 -31q-77 0 -127.5 25t-88.5 75l112 96q28 -30 50.5 -42.5t53.5 -12.5q43 0 68.5 29.5t25.5 77.5q0 35 -19.5 51.5t-59.5 16.5h-70l43 137h45 q44 0 66 24.5t22 65.5q0 27 -11.5 39.5t-36.5 12.5q-28 0 -56.5 -12.5t-62.5 -38.5l-76 96q105 94 240 94q94 0 149.5 -45z" />
<glyph unicode="&#x418;" horiz-adv-x="580" d="M506 0h-185l28 196q13 92 29.5 161.5t47.5 173.5l-201 -531h-225l97 696h184l-28 -194q-13 -93 -30.5 -167.5t-44.5 -163.5l203 525h222z" />
<glyph unicode="&#x419;" horiz-adv-x="580" d="M506 0h-185l28 196q13 92 29.5 161.5t47.5 173.5l-201 -531h-225l97 696h184l-28 -194q-13 -93 -30.5 -167.5t-44.5 -163.5l203 525h222zM234 794q-36 40 -36 106q0 18 1 27l96 14q1 -31 16 -44.5t44 -13.5q31 0 51 15t30 46l95 -19q-16 -78 -63 -124.5t-126 -46.5 q-72 0 -108 40z" />
<glyph unicode="&#x41a;" horiz-adv-x="587" d="M628 582q-36 -5 -59 -21.5t-46 -54.5l-83 -140l118 -366h-199l-84 295h-40l-42 -295h-194l98 696h193l-37 -268h37l93 161q28 47 54.5 71.5t61.5 36t97 18.5z" />
<glyph unicode="&#x41b;" horiz-adv-x="573" d="M499 0h-194l76 550h-71l-45 -208q-32 -144 -61.5 -214.5t-76 -102.5t-132.5 -45l-25 145q31 11 46 26t30 57t37 137l77 351h436z" />
<glyph unicode="&#x41c;" horiz-adv-x="713" d="M660 0h-189l31 253q13 107 49 302l-131 -484h-185l-8 482q-4 -99 -9.5 -165.5t-15.5 -136.5l-36 -251h-189l140 696h232l-1 -473l120 473h246z" />
<glyph unicode="&#x41d;" horiz-adv-x="585" d="M192 0h-193l98 696h193l-36 -260h124l36 260h194l-97 -696h-194l39 284h-123z" />
<glyph unicode="&#x41e;" horiz-adv-x="624" d="M558.5 645q63.5 -70 63.5 -204q0 -119 -36 -224t-114 -171t-197 -66q-123 0 -186.5 70.5t-63.5 205.5q0 119 36 223.5t114 170t197 65.5q123 0 186.5 -70zM278.5 516q-30.5 -59 -43 -140t-12.5 -152q0 -55 15.5 -79t49.5 -24q50 0 80.5 57.5t43 137.5t12.5 154 q0 56 -16 80.5t-50 24.5q-49 0 -79.5 -59z" />
<glyph unicode="&#x41f;" horiz-adv-x="587" d="M609 696l-97 -696h-194l76 548h-124l-77 -548h-193l97 696h512z" />
<glyph unicode="&#x420;" horiz-adv-x="546" d="M501.5 645.5q65.5 -50.5 65.5 -147.5q0 -77 -33.5 -140t-100 -100.5t-162.5 -37.5h-47l-31 -220h-194l98 696h217q122 0 187.5 -50.5zM346 397.5q23 38.5 23 93.5q0 35 -17 51t-53 16h-28l-28 -199h26q54 0 77 38.5z" />
<glyph unicode="&#x421;" horiz-adv-x="524" d="M570 631l-101 -100q-45 42 -95 42q-53 0 -86.5 -50.5t-48 -123.5t-14.5 -144q0 -65 21.5 -95.5t63.5 -30.5q29 0 55.5 13.5t63.5 40.5l71 -109q-102 -94 -228 -94q-114 0 -180.5 71.5t-66.5 208.5q0 119 37.5 222.5t116 168t195.5 64.5q123 0 196 -84z" />
<glyph unicode="&#x422;" horiz-adv-x="494" d="M560 696l-41 -148h-136l-77 -548h-193l77 548h-149l21 148h498z" />
<glyph unicode="&#x423;" horiz-adv-x="532" d="M397 216q-40 -88 -86.5 -137t-104.5 -70.5t-143 -27.5l-7 130q59 6 91.5 20.5t56.5 50.5h-55l-110 514h190l47 -406l144 406h198z" />
<glyph unicode="&#x424;" horiz-adv-x="788" d="M760 237.5q-33 -80.5 -108.5 -135t-195.5 -61.5l-13 -85h-188l13 85q-117 9 -183.5 68t-66.5 175q0 93 33 174.5t107.5 135.5t194.5 61l12 81h187l-11 -81q118 -9 185 -69t67 -176q0 -92 -33 -172.5zM568.5 244q28.5 74 28.5 170q0 59 -19.5 89.5t-63.5 35.5l-51 -380 q77 11 105.5 85zM232 193.5q20 -29.5 63 -36.5l52 381q-75 -11 -105 -86t-30 -172q0 -57 20 -86.5z" />
<glyph unicode="&#x425;" horiz-adv-x="541" d="M599 696l-202 -321l117 -375h-205l-44 254l-105 -254h-209l214 369l-106 327h205l31 -217l97 217h207z" />
<glyph unicode="&#x426;" horiz-adv-x="619" d="M605 696l-76 -548h72l-45 -321h-127l4 173h-434l98 696h193l-76 -544h121l76 544h194z" />
<glyph unicode="&#x427;" horiz-adv-x="559" d="M581 696l-97 -696h-193l34 241q-57 -44 -130 -44q-81 0 -123.5 49.5t-42.5 134.5q0 16 4 52l36 263h190l-36 -267q-2 -12 -2 -32q0 -30 11.5 -44.5t39.5 -14.5q40 0 70 28l46 330h193z" />
<glyph unicode="&#x428;" horiz-adv-x="800" d="M823 696l-97 -696h-727l98 696h189l-76 -544h84l77 544h179l-76 -544h84l76 544h189z" />
<glyph unicode="&#x429;" horiz-adv-x="838" d="M823 696l-76 -548h72l-45 -321h-127l4 173h-652l98 696h189l-76 -544h84l77 544h179l-76 -544h84l76 544h189z" />
<glyph unicode="&#x42a;" horiz-adv-x="659" d="M590 417q62 -50 62 -146q0 -69 -30 -131t-94 -101t-162 -39h-251l77 552l-1 -1h-149l21 145h342l-32 -229h45q110 0 172 -50zM427 176q22 36 22 86q0 35 -15 53t-48 18h-31l-27 -193h30q47 0 69 36z" />
<glyph unicode="&#x42b;" horiz-adv-x="787" d="M465.5 417q61.5 -50 61.5 -146q0 -69 -29.5 -131t-93.5 -101t-162 -39h-242l97 696h193l-32 -229h36q110 0 171.5 -50zM616 696h194l-97 -696h-194zM302.5 176q21.5 36 21.5 86q0 35 -14.5 53t-47.5 18h-22l-27 -193h21q47 0 68.5 36z" />
<glyph unicode="&#x42c;" horiz-adv-x="544" d="M475 417q62 -50 62 -146q0 -69 -30 -131t-94 -101t-162 -39h-251l97 696h193l-32 -229h45q110 0 172 -50zM312 176q22 36 22 86q0 35 -15 53t-48 18h-31l-27 -193h30q47 0 69 36z" />
<glyph unicode="&#x42d;" horiz-adv-x="490" d="M432 646.5q57 -68.5 57 -196.5q0 -116 -33 -223t-108 -176.5t-192 -69.5q-120 0 -187 86l99 99q22 -22 42.5 -32t47.5 -10q51 0 82 44.5t45 119.5h-192l19 134h186q1 13 1 39q0 61 -17 88t-53 27q-28 0 -51 -11t-54 -35l-73 104q49 41 99.5 61t116.5 20q108 0 165 -68.5z " />
<glyph unicode="&#x42e;" horiz-adv-x="852" d="M789.5 645q60.5 -70 60.5 -206q0 -116 -35 -220.5t-109.5 -171.5t-186.5 -67q-113 0 -171 69.5t-58 202.5q0 21 1 32h-58l-40 -284h-193l97 696h193l-36 -260h57q31 126 106 202.5t197 76.5q115 0 175.5 -70zM606.5 179.5q27.5 58.5 39 139.5t11.5 156q0 52 -14 76 t-42 24q-45 0 -73 -59.5t-40 -141.5t-12 -155q0 -52 14 -75t43 -23q46 0 73.5 58.5z" />
<glyph unicode="&#x42f;" horiz-adv-x="548" d="M570 696l-97 -696h-194l33 240h-35l-123 -240h-204l168 282q-78 48 -78 151q0 68 28.5 127.5t95.5 97.5t177 38h229zM357 560h-25q-47 0 -69.5 -36t-22.5 -84q0 -67 59 -67h32z" />
<glyph unicode="&#x430;" horiz-adv-x="523" d="M420.5 538.5q54.5 -14.5 103.5 -42.5l-47 -328q-2 -20 -2 -27q0 -14 4.5 -22t16.5 -13l-56 -122q-46 4 -82 24t-50 56q-28 -41 -62.5 -62.5t-81.5 -21.5q-75 0 -114.5 54t-39.5 149t30.5 179t98 137.5t173.5 53.5q54 0 108.5 -14.5zM224 348.5q-25 -73.5 -25 -168.5 q0 -36 8.5 -49.5t23.5 -13.5q31 0 62 54l36 247q-15 4 -31 4q-49 0 -74 -73.5z" />
<glyph unicode="&#x431;" horiz-adv-x="522" d="M432.5 474.5q33.5 -22.5 53.5 -66.5t20 -106q0 -86 -30 -159t-91.5 -117.5t-151.5 -44.5q-99 0 -156 62t-57 181q0 392 264 465q64 17 97.5 31t73.5 39l54 -110q-38 -27 -76 -44.5t-93 -32.5q-56 -15 -84.5 -48t-42.5 -104q30 38 65 57.5t80 19.5q41 0 74.5 -22.5z M299 178q17 61 17 134q0 52 -33 52q-37 0 -76 -58q-6 -65 -6 -127t41 -62q40 0 57 61z" />
<glyph unicode="&#x432;" horiz-adv-x="521" d="M451.5 517q52.5 -36 52.5 -96q0 -47 -26.5 -80.5t-85.5 -58.5q103 -25 103 -113q0 -62 -35 -104.5t-90.5 -63t-117.5 -20.5q-112 0 -176 59.5t-64 170.5q0 90 37.5 168.5t108 126t164.5 47.5q77 0 129.5 -36zM247 402.5q-25 -31.5 -39 -84.5q124 16 124 83q0 33 -29 33 q-31 0 -56 -31.5zM195 232q-1 -4 -1 -21q0 -104 64 -104q25 0 40 17t15 54q0 23 -9.5 40t-27.5 31q-31 -8 -81 -17z" />
<glyph unicode="&#x433;" horiz-adv-x="435" d="M386.5 512.5q50.5 -40.5 50.5 -106.5q0 -62 -38 -107.5t-124 -79.5q-56 -21 -74 -37t-18 -37q0 -33 40 -33q26 0 59 14.5t63 36.5l73 -100q-43 -38 -104.5 -60t-124.5 -22q-92 0 -146 42.5t-54 114.5q0 65 38 111t136 82q39 14 58.5 24t26 18.5t6.5 21.5q0 26 -36 26 q-22 0 -51 -10t-54 -27l-53 102q37 31 88.5 49t104.5 18q83 0 133.5 -40.5z" />
<glyph unicode="&#x434;" horiz-adv-x="528" d="M119.5 7.5q-50.5 26.5 -79.5 76t-29 116.5q0 77 26 146t77.5 111.5t122.5 42.5q60 0 105 -47v5q-1 71 -20.5 107t-64.5 51.5t-135 22.5l40 123q141 -7 219 -45.5t109 -107.5t31 -179q0 -214 -69.5 -331.5t-218.5 -117.5q-63 0 -113.5 26.5zM304.5 176.5 q19.5 60.5 25.5 163.5q-26 31 -52 31q-41 0 -59 -54.5t-18 -122.5q0 -39 11.5 -58.5t32.5 -19.5q40 0 59.5 60.5z" />
</font>
</defs>
</svg>
